{
  "header": {
    "keySignatures": [],
    "meta": [],
    "name": "",
    "ppq": 384,
    "tempos": [
      {
        "bpm": 86.00054467011624,
        "ticks": 0
      }
    ],
    "timeSignatures": [
      {
        "ticks": 0,
        "timeSignature": [
          4,
          4
        ],
        "measures": 0
      }
    ]
  },
  "tracks": [
    {
      "channel": 0,
      "controlChanges": {
        "0": [
          {
            "number": 0,
            "ticks": 1536,
            "time": 2.79068,
            "value": 0
          }
        ],
        "7": [
          {
            "number": 7,
            "ticks": 1536,
            "time": 2.79068,
            "value": 0.7795275590551181
          }
        ],
        "10": [
          {
            "number": 10,
            "ticks": 1536,
            "time": 2.79068,
            "value": 0.5039370078740157
          }
        ],
        "11": [
          {
            "number": 11,
            "ticks": 1536,
            "time": 2.79068,
            "value": 1
          }
        ],
        "91": [
          {
            "number": 91,
            "ticks": 1536,
            "time": 2.79068,
            "value": 0.6141732283464567
          }
        ],
        "93": [
          {
            "number": 93,
            "ticks": 1536,
            "time": 2.79068,
            "value": 0.33858267716535434
          }
        ],
        "121": [
          {
            "number": 121,
            "ticks": 1536,
            "time": 2.79068,
            "value": 0
          }
        ]
      },
      "pitchBends": [
        {
          "ticks": 1536,
          "time": 2.79068,
          "value": 0
        }
      ],
      "instrument": {
        "family": "piano",
        "name": "acoustic grand piano",
        "number": 0
      },
      "name": "Melody",
      "notes": []
    },
    {
      "channel": 0,
      "controlChanges": {
        "120": [
          {
            "number": 120,
            "ticks": 107376,
            "time": 195.08597375,
            "value": 0
          }
        ],
        "123": [
          {
            "number": 123,
            "ticks": 107424,
            "time": 195.1731825,
            "value": 0
          }
        ]
      },
      "pitchBends": [],
      "instrument": {
        "family": "strings",
        "name": "violin",
        "number": 40
      },
      "name": "",
      "notes": [
        {
          "duration": 0.5268861979166672,
          "durationTicks": 290,
          "midi": 70,
          "name": "A#4",
          "ticks": 18598,
          "time": 33.78975692708333,
          "velocity": 0.6692913385826772
        },
        {
          "duration": 0.2289229687499983,
          "durationTicks": 126,
          "midi": 70,
          "name": "A#4",
          "ticks": 18980,
          "time": 34.48379322916667,
          "velocity": 0.6692913385826772
        },
        {
          "duration": 0.6940363020833331,
          "durationTicks": 382,
          "midi": 70,
          "name": "A#4",
          "ticks": 19196,
          "time": 34.87623260416667,
          "velocity": 0.7086614173228346
        },
        {
          "duration": 0.170783802083335,
          "durationTicks": 94,
          "midi": 69,
          "name": "A4",
          "ticks": 19580,
          "time": 35.57390260416667,
          "velocity": 0.7401574803149606
        },
        {
          "duration": 0.559589479166668,
          "durationTicks": 308,
          "midi": 67,
          "name": "G4",
          "ticks": 19676,
          "time": 35.748320104166666,
          "velocity": 0.7401574803149606
        },
        {
          "duration": 0.41424156249999555,
          "durationTicks": 228,
          "midi": 74,
          "name": "D5",
          "ticks": 19986,
          "time": 36.31154328125,
          "velocity": 0.7401574803149606
        },
        {
          "duration": 0.4978166145833285,
          "durationTicks": 274,
          "midi": 74,
          "name": "D5",
          "ticks": 20276,
          "time": 36.83842947916667,
          "velocity": 0.7401574803149606
        },
        {
          "duration": 0.33793390625000086,
          "durationTicks": 186,
          "midi": 75,
          "name": "D#5",
          "ticks": 20552,
          "time": 37.33987979166667,
          "velocity": 0.6850393700787402
        },
        {
          "duration": 0.5305198958333364,
          "durationTicks": 292,
          "midi": 74,
          "name": "D5",
          "ticks": 20740,
          "time": 37.68144739583333,
          "velocity": 0.7401574803149606
        },
        {
          "duration": 0.31976541666666947,
          "durationTicks": 176,
          "midi": 72,
          "name": "C5",
          "ticks": 21034,
          "time": 38.21560098958333,
          "velocity": 0.7401574803149606
        },
        {
          "duration": 0.31613171875000035,
          "durationTicks": 174,
          "midi": 70,
          "name": "A#4",
          "ticks": 21316,
          "time": 38.727952395833334,
          "velocity": 0.6377952755905512
        },
        {
          "duration": 0.41424156249999555,
          "durationTicks": 228,
          "midi": 72,
          "name": "C5",
          "ticks": 21492,
          "time": 39.047717812500004,
          "velocity": 0.7401574803149606
        },
        {
          "duration": 0.33430020833333174,
          "durationTicks": 184,
          "midi": 72,
          "name": "C5",
          "ticks": 21788,
          "time": 39.58550510416667,
          "velocity": 0.7401574803149606
        },
        {
          "duration": 0.18531859375000437,
          "durationTicks": 102,
          "midi": 72,
          "name": "C5",
          "ticks": 22060,
          "time": 40.07968802083333,
          "velocity": 0.7401574803149606
        },
        {
          "duration": 1.031970208333334,
          "durationTicks": 568,
          "midi": 72,
          "name": "C5",
          "ticks": 22258,
          "time": 40.43942411458333,
          "velocity": 0.7401574803149606
        },
        {
          "duration": 0.3706371874999945,
          "durationTicks": 204,
          "midi": 69,
          "name": "A4",
          "ticks": 22830,
          "time": 41.478661718750004,
          "velocity": 0.7401574803149606
        },
        {
          "duration": 0.3815382812500019,
          "durationTicks": 210,
          "midi": 72,
          "name": "C5",
          "ticks": 23036,
          "time": 41.85293260416667,
          "velocity": 0.7401574803149606
        },
        {
          "duration": 0.5014503124999976,
          "durationTicks": 276,
          "midi": 72,
          "name": "C5",
          "ticks": 23320,
          "time": 42.368917708333335,
          "velocity": 0.7401574803149606
        },
        {
          "duration": 0.35610239583333225,
          "durationTicks": 196,
          "midi": 74,
          "name": "D5",
          "ticks": 23598,
          "time": 42.87400171875,
          "velocity": 0.7401574803149606
        },
        {
          "duration": 0.3270328125000006,
          "durationTicks": 180,
          "midi": 75,
          "name": "D#5",
          "ticks": 23796,
          "time": 43.2337378125,
          "velocity": 0.6535433070866141
        },
        {
          "duration": 0.14898161458332737,
          "durationTicks": 82,
          "midi": 74,
          "name": "D5",
          "ticks": 23978,
          "time": 43.56440432291667,
          "velocity": 0.7401574803149606
        },
        {
          "duration": 0.19985338541666664,
          "durationTicks": 110,
          "midi": 72,
          "name": "C5",
          "ticks": 24062,
          "time": 43.71701963541667,
          "velocity": 0.7401574803149606
        },
        {
          "duration": 0.4396774479166723,
          "durationTicks": 242,
          "midi": 74,
          "name": "D5",
          "ticks": 24174,
          "time": 43.92050671875,
          "velocity": 0.7401574803149606
        },
        {
          "duration": 0.45421223958334167,
          "durationTicks": 250,
          "midi": 70,
          "name": "A#4",
          "ticks": 24740,
          "time": 44.94884322916666,
          "velocity": 0.6535433070866141
        },
        {
          "duration": 0.18168489583332104,
          "durationTicks": 100,
          "midi": 70,
          "name": "A#4",
          "ticks": 25108,
          "time": 45.61744364583334,
          "velocity": 0.6850393700787402
        },
        {
          "duration": 0.7013036979166642,
          "durationTicks": 386,
          "midi": 70,
          "name": "A#4",
          "ticks": 25318,
          "time": 45.998981927083335,
          "velocity": 0.6692913385826772
        },
        {
          "duration": 0.14534791666667957,
          "durationTicks": 80,
          "midi": 69,
          "name": "A4",
          "ticks": 25706,
          "time": 46.70391932291666,
          "velocity": 0.7401574803149606
        },
        {
          "duration": 0.5595894791666751,
          "durationTicks": 308,
          "midi": 67,
          "name": "G4",
          "ticks": 25790,
          "time": 46.856534635416665,
          "velocity": 0.7401574803149606
        },
        {
          "duration": 0.41060786458333354,
          "durationTicks": 226,
          "midi": 74,
          "name": "D5",
          "ticks": 26100,
          "time": 47.4197578125,
          "velocity": 0.7401574803149606
        },
        {
          "duration": 0.4978166145833356,
          "durationTicks": 274,
          "midi": 74,
          "name": "D5",
          "ticks": 26402,
          "time": 47.96844619791666,
          "velocity": 0.7401574803149606
        },
        {
          "duration": 0.3270328124999935,
          "durationTicks": 180,
          "midi": 75,
          "name": "D#5",
          "ticks": 26678,
          "time": 48.46989651041667,
          "velocity": 0.6850393700787402
        },
        {
          "duration": 0.5414209895833295,
          "durationTicks": 298,
          "midi": 74,
          "name": "D5",
          "ticks": 26860,
          "time": 48.80056302083334,
          "velocity": 0.7401574803149606
        },
        {
          "duration": 0.30159692708333097,
          "durationTicks": 166,
          "midi": 72,
          "name": "C5",
          "ticks": 27160,
          "time": 49.345617708333336,
          "velocity": 0.7401574803149606
        },
        {
          "duration": 0.3233991145833315,
          "durationTicks": 178,
          "midi": 70,
          "name": "A#4",
          "ticks": 27450,
          "time": 49.87250390625,
          "velocity": 0.6220472440944882
        },
        {
          "duration": 0.41060786458333354,
          "durationTicks": 226,
          "midi": 72,
          "name": "C5",
          "ticks": 27630,
          "time": 50.199536718750004,
          "velocity": 0.7401574803149606
        },
        {
          "duration": 0.3306665104166626,
          "durationTicks": 182,
          "midi": 72,
          "name": "C5",
          "ticks": 27940,
          "time": 50.76275989583334,
          "velocity": 0.7401574803149606
        },
        {
          "duration": 0.174417499999997,
          "durationTicks": 96,
          "midi": 72,
          "name": "C5",
          "ticks": 28216,
          "time": 51.26421020833334,
          "velocity": 0.7401574803149606
        },
        {
          "duration": 0.7013036979166714,
          "durationTicks": 386,
          "midi": 72,
          "name": "C5",
          "ticks": 28406,
          "time": 51.60941151041666,
          "velocity": 0.7401574803149606
        },
        {
          "duration": 0.1562490104166585,
          "durationTicks": 86,
          "midi": 70,
          "name": "A#4",
          "ticks": 28794,
          "time": 52.314348906250004,
          "velocity": 0.6535433070866141
        },
        {
          "duration": 0.8720874999999992,
          "durationTicks": 480,
          "midi": 69,
          "name": "A4",
          "ticks": 28882,
          "time": 52.47423161458334,
          "velocity": 0.7401574803149606
        },
        {
          "duration": 1.075574583333328,
          "durationTicks": 592,
          "midi": 67,
          "name": "G4",
          "ticks": 29374,
          "time": 53.36812130208334,
          "velocity": 0.7401574803149606
        },
        {
          "duration": 0.5268861979166601,
          "durationTicks": 290,
          "midi": 70,
          "name": "A#4",
          "ticks": 30886,
          "time": 56.11519692708334,
          "velocity": 0.6692913385826772
        },
        {
          "duration": 0.2289229687499983,
          "durationTicks": 126,
          "midi": 70,
          "name": "A#4",
          "ticks": 31268,
          "time": 56.809233229166665,
          "velocity": 0.6692913385826772
        },
        {
          "duration": 0.6940363020833331,
          "durationTicks": 382,
          "midi": 70,
          "name": "A#4",
          "ticks": 31484,
          "time": 57.20167260416667,
          "velocity": 0.7086614173228346
        },
        {
          "duration": 0.1707838020833421,
          "durationTicks": 94,
          "midi": 69,
          "name": "A4",
          "ticks": 31868,
          "time": 57.89934260416666,
          "velocity": 0.7401574803149606
        },
        {
          "duration": 0.559589479166668,
          "durationTicks": 308,
          "midi": 67,
          "name": "G4",
          "ticks": 31964,
          "time": 58.07376010416667,
          "velocity": 0.7401574803149606
        },
        {
          "duration": 0.41424156249999555,
          "durationTicks": 228,
          "midi": 74,
          "name": "D5",
          "ticks": 32274,
          "time": 58.636983281250004,
          "velocity": 0.7401574803149606
        },
        {
          "duration": 0.4978166145833356,
          "durationTicks": 274,
          "midi": 74,
          "name": "D5",
          "ticks": 32564,
          "time": 59.163869479166664,
          "velocity": 0.7401574803149606
        },
        {
          "duration": 0.33793390625000086,
          "durationTicks": 186,
          "midi": 75,
          "name": "D#5",
          "ticks": 32840,
          "time": 59.66531979166666,
          "velocity": 0.6850393700787402
        },
        {
          "duration": 0.5305198958333293,
          "durationTicks": 292,
          "midi": 74,
          "name": "D5",
          "ticks": 33028,
          "time": 60.00688739583334,
          "velocity": 0.7401574803149606
        },
        {
          "duration": 0.31976541666666236,
          "durationTicks": 176,
          "midi": 72,
          "name": "C5",
          "ticks": 33322,
          "time": 60.54104098958334,
          "velocity": 0.7401574803149606
        },
        {
          "duration": 0.31613171875000035,
          "durationTicks": 174,
          "midi": 70,
          "name": "A#4",
          "ticks": 33604,
          "time": 61.053392395833335,
          "velocity": 0.6377952755905512
        },
        {
          "duration": 0.41424156249999555,
          "durationTicks": 228,
          "midi": 72,
          "name": "C5",
          "ticks": 33780,
          "time": 61.373157812500004,
          "velocity": 0.7401574803149606
        },
        {
          "duration": 0.33430020833333884,
          "durationTicks": 184,
          "midi": 72,
          "name": "C5",
          "ticks": 34076,
          "time": 61.910945104166665,
          "velocity": 0.7401574803149606
        },
        {
          "duration": 0.18531859374999726,
          "durationTicks": 102,
          "midi": 72,
          "name": "C5",
          "ticks": 34348,
          "time": 62.40512802083334,
          "velocity": 0.7401574803149606
        },
        {
          "duration": 1.0319702083333269,
          "durationTicks": 568,
          "midi": 72,
          "name": "C5",
          "ticks": 34546,
          "time": 62.76486411458334,
          "velocity": 0.7401574803149606
        },
        {
          "duration": 0.3706371874999945,
          "durationTicks": 204,
          "midi": 69,
          "name": "A4",
          "ticks": 35118,
          "time": 63.804101718750005,
          "velocity": 0.7401574803149606
        },
        {
          "duration": 0.3815382812500019,
          "durationTicks": 210,
          "midi": 72,
          "name": "C5",
          "ticks": 35324,
          "time": 64.17837260416667,
          "velocity": 0.7401574803149606
        },
        {
          "duration": 0.5014503124999976,
          "durationTicks": 276,
          "midi": 72,
          "name": "C5",
          "ticks": 35608,
          "time": 64.69435770833334,
          "velocity": 0.7401574803149606
        },
        {
          "duration": 0.35610239583334646,
          "durationTicks": 196,
          "midi": 74,
          "name": "D5",
          "ticks": 35886,
          "time": 65.19944171875,
          "velocity": 0.7401574803149606
        },
        {
          "duration": 0.3270328125000077,
          "durationTicks": 180,
          "midi": 75,
          "name": "D#5",
          "ticks": 36084,
          "time": 65.5591778125,
          "velocity": 0.6535433070866141
        },
        {
          "duration": 0.1489816145833487,
          "durationTicks": 82,
          "midi": 74,
          "name": "D5",
          "ticks": 36266,
          "time": 65.88984432291666,
          "velocity": 0.7401574803149606
        },
        {
          "duration": 0.19985338541667375,
          "durationTicks": 110,
          "midi": 72,
          "name": "C5",
          "ticks": 36350,
          "time": 66.04245963541666,
          "velocity": 0.7401574803149606
        },
        {
          "duration": 0.4396774479166652,
          "durationTicks": 242,
          "midi": 74,
          "name": "D5",
          "ticks": 36462,
          "time": 66.24594671875,
          "velocity": 0.7401574803149606
        },
        {
          "duration": 0.45421223958332746,
          "durationTicks": 250,
          "midi": 70,
          "name": "A#4",
          "ticks": 37028,
          "time": 67.27428322916667,
          "velocity": 0.6535433070866141
        },
        {
          "duration": 0.18168489583332814,
          "durationTicks": 100,
          "midi": 70,
          "name": "A#4",
          "ticks": 37396,
          "time": 67.94288364583333,
          "velocity": 0.6850393700787402
        },
        {
          "duration": 0.7013036979166714,
          "durationTicks": 386,
          "midi": 70,
          "name": "A#4",
          "ticks": 37606,
          "time": 68.32442192708334,
          "velocity": 0.6692913385826772
        },
        {
          "duration": 0.14534791666667957,
          "durationTicks": 80,
          "midi": 69,
          "name": "A4",
          "ticks": 37994,
          "time": 69.02935932291666,
          "velocity": 0.7401574803149606
        },
        {
          "duration": 0.5595894791666751,
          "durationTicks": 308,
          "midi": 67,
          "name": "G4",
          "ticks": 38078,
          "time": 69.18197463541667,
          "velocity": 0.7401574803149606
        },
        {
          "duration": 0.41060786458334064,
          "durationTicks": 226,
          "midi": 74,
          "name": "D5",
          "ticks": 38388,
          "time": 69.7451978125,
          "velocity": 0.7401574803149606
        },
        {
          "duration": 0.4978166145833427,
          "durationTicks": 274,
          "midi": 74,
          "name": "D5",
          "ticks": 38690,
          "time": 70.29388619791666,
          "velocity": 0.7401574803149606
        },
        {
          "duration": 0.3270328125000077,
          "durationTicks": 180,
          "midi": 75,
          "name": "D#5",
          "ticks": 38966,
          "time": 70.79533651041666,
          "velocity": 0.6850393700787402
        },
        {
          "duration": 0.5414209895833295,
          "durationTicks": 298,
          "midi": 74,
          "name": "D5",
          "ticks": 39148,
          "time": 71.12600302083334,
          "velocity": 0.7401574803149606
        },
        {
          "duration": 0.30159692708332386,
          "durationTicks": 166,
          "midi": 72,
          "name": "C5",
          "ticks": 39448,
          "time": 71.67105770833334,
          "velocity": 0.7401574803149606
        },
        {
          "duration": 0.3233991145833386,
          "durationTicks": 178,
          "midi": 70,
          "name": "A#4",
          "ticks": 39738,
          "time": 72.19794390625,
          "velocity": 0.6220472440944882
        },
        {
          "duration": 0.41060786458334064,
          "durationTicks": 226,
          "midi": 72,
          "name": "C5",
          "ticks": 39918,
          "time": 72.52497671875,
          "velocity": 0.7401574803149606
        },
        {
          "duration": 0.3306665104166626,
          "durationTicks": 182,
          "midi": 72,
          "name": "C5",
          "ticks": 40228,
          "time": 73.08819989583334,
          "velocity": 0.7401574803149606
        },
        {
          "duration": 0.1744175000000041,
          "durationTicks": 96,
          "midi": 72,
          "name": "C5",
          "ticks": 40504,
          "time": 73.58965020833334,
          "velocity": 0.7401574803149606
        },
        {
          "duration": 0.7013036979166714,
          "durationTicks": 386,
          "midi": 72,
          "name": "C5",
          "ticks": 40694,
          "time": 73.93485151041666,
          "velocity": 0.7401574803149606
        },
        {
          "duration": 0.1562490104166585,
          "durationTicks": 86,
          "midi": 70,
          "name": "A#4",
          "ticks": 41082,
          "time": 74.63978890625,
          "velocity": 0.6535433070866141
        },
        {
          "duration": 0.5377872916666746,
          "durationTicks": 296,
          "midi": 69,
          "name": "A4",
          "ticks": 41170,
          "time": 74.79967161458333,
          "velocity": 0.7401574803149606
        },
        {
          "duration": 1.0755745833333208,
          "durationTicks": 592,
          "midi": 67,
          "name": "G4",
          "ticks": 41470,
          "time": 75.34472630208334,
          "velocity": 0.7401574803149606
        },
        {
          "duration": 0.6758678125000017,
          "durationTicks": 372,
          "midi": 74,
          "name": "D5",
          "ticks": 42424,
          "time": 77.07800020833334,
          "velocity": 0.7401574803149606
        },
        {
          "duration": 0.15624901041667272,
          "durationTicks": 86,
          "midi": 74,
          "name": "D5",
          "ticks": 42910,
          "time": 77.96098880208334,
          "velocity": 0.7401574803149606
        },
        {
          "duration": 0.37790458333333277,
          "durationTicks": 208,
          "midi": 72,
          "name": "C5",
          "ticks": 42998,
          "time": 78.12087151041666,
          "velocity": 0.7401574803149606
        },
        {
          "duration": 0.3670034895833254,
          "durationTicks": 202,
          "midi": 72,
          "name": "C5",
          "ticks": 43264,
          "time": 78.60415333333334,
          "velocity": 0.7401574803149606
        },
        {
          "duration": 0.1744174999999899,
          "durationTicks": 96,
          "midi": 72,
          "name": "C5",
          "ticks": 43576,
          "time": 79.17101020833334,
          "velocity": 0.7401574803149606
        },
        {
          "duration": 1.0283365104166649,
          "durationTicks": 566,
          "midi": 72,
          "name": "C5",
          "ticks": 43776,
          "time": 79.53438,
          "velocity": 0.7401574803149606
        },
        {
          "duration": 0.3233991145833386,
          "durationTicks": 178,
          "midi": 69,
          "name": "A4",
          "ticks": 44346,
          "time": 80.56998390625,
          "velocity": 0.7401574803149606
        },
        {
          "duration": 0.45421223958334167,
          "durationTicks": 250,
          "midi": 72,
          "name": "C5",
          "ticks": 44526,
          "time": 80.89701671875,
          "velocity": 0.7401574803149606
        },
        {
          "duration": 0.47238072916665885,
          "durationTicks": 260,
          "midi": 72,
          "name": "C5",
          "ticks": 44826,
          "time": 81.44207140625001,
          "velocity": 0.7401574803149606
        },
        {
          "duration": 0.3488350000000082,
          "durationTicks": 192,
          "midi": 74,
          "name": "D5",
          "ticks": 45088,
          "time": 81.91808583333334,
          "velocity": 0.7401574803149606
        },
        {
          "duration": 0.5268861979166672,
          "durationTicks": 290,
          "midi": 75,
          "name": "D#5",
          "ticks": 45282,
          "time": 82.27055453125,
          "velocity": 0.6692913385826772
        },
        {
          "duration": 0.5305198958333222,
          "durationTicks": 292,
          "midi": 74,
          "name": "D5",
          "ticks": 45574,
          "time": 82.80107442708334,
          "velocity": 0.7401574803149606
        },
        {
          "duration": 0.24709145833332968,
          "durationTicks": 136,
          "midi": 79,
          "name": "G5",
          "ticks": 45868,
          "time": 83.33522802083334,
          "velocity": 0.7401574803149606
        },
        {
          "duration": 0.348834999999994,
          "durationTicks": 192,
          "midi": 79,
          "name": "G5",
          "ticks": 46078,
          "time": 83.71676630208334,
          "velocity": 0.7401574803149606
        },
        {
          "duration": 0.4941829166666736,
          "durationTicks": 272,
          "midi": 79,
          "name": "G5",
          "ticks": 46368,
          "time": 84.2436525,
          "velocity": 0.7401574803149606
        },
        {
          "duration": 0.15988270833332763,
          "durationTicks": 88,
          "midi": 77,
          "name": "F5",
          "ticks": 46648,
          "time": 84.75237020833333,
          "velocity": 0.7401574803149606
        },
        {
          "duration": 0.45057854166667255,
          "durationTicks": 248,
          "midi": 74,
          "name": "D5",
          "ticks": 46854,
          "time": 85.12664109375,
          "velocity": 0.7401574803149606
        },
        {
          "duration": 0.2688936458333302,
          "durationTicks": 148,
          "midi": 72,
          "name": "C5",
          "ticks": 47148,
          "time": 85.6607946875,
          "velocity": 0.7401574803149606
        },
        {
          "duration": 0.6758678125000017,
          "durationTicks": 372,
          "midi": 70,
          "name": "A#4",
          "ticks": 47314,
          "time": 85.96239161458334,
          "velocity": 0.7480314960629921
        },
        {
          "duration": 1.2645268750000014,
          "durationTicks": 696,
          "midi": 72,
          "name": "C5",
          "ticks": 47688,
          "time": 86.641893125,
          "velocity": 0.7401574803149606
        },
        {
          "duration": 0.421508958333348,
          "durationTicks": 232,
          "midi": 72,
          "name": "C5",
          "ticks": 49150,
          "time": 89.29812630208333,
          "velocity": 0.7401574803149606
        },
        {
          "duration": 0.4941829166666736,
          "durationTicks": 272,
          "midi": 72,
          "name": "C5",
          "ticks": 49440,
          "time": 89.8250125,
          "velocity": 0.7401574803149606
        },
        {
          "duration": 0.33793390625000086,
          "durationTicks": 186,
          "midi": 74,
          "name": "D5",
          "ticks": 49714,
          "time": 90.32282911458333,
          "velocity": 0.7401574803149606
        },
        {
          "duration": 0.5014503124999976,
          "durationTicks": 276,
          "midi": 72,
          "name": "C5",
          "ticks": 49902,
          "time": 90.66439671875,
          "velocity": 0.7401574803149606
        },
        {
          "duration": 0.42877635416667204,
          "durationTicks": 236,
          "midi": 70,
          "name": "A#4",
          "ticks": 50182,
          "time": 91.17311442708333,
          "velocity": 0.6929133858267716
        },
        {
          "duration": 0.47238072916665885,
          "durationTicks": 260,
          "midi": 69,
          "name": "A4",
          "ticks": 50420,
          "time": 91.60552447916668,
          "velocity": 0.7007874015748031
        },
        {
          "duration": 0.35246869791667734,
          "durationTicks": 194,
          "midi": 70,
          "name": "A#4",
          "ticks": 50682,
          "time": 92.08153890625,
          "velocity": 0.6535433070866141
        },
        {
          "duration": 0.5014503124999976,
          "durationTicks": 276,
          "midi": 70,
          "name": "A#4",
          "ticks": 50954,
          "time": 92.57572182291668,
          "velocity": 0.6535433070866141
        },
        {
          "duration": 0.3815382812500019,
          "durationTicks": 210,
          "midi": 72,
          "name": "C5",
          "ticks": 51232,
          "time": 93.08080583333333,
          "velocity": 0.7401574803149606
        },
        {
          "duration": 0.6649667187499944,
          "durationTicks": 366,
          "midi": 70,
          "name": "A#4",
          "ticks": 51444,
          "time": 93.4659778125,
          "velocity": 0.6535433070866141
        },
        {
          "duration": 0.1526153125000036,
          "durationTicks": 84,
          "midi": 66,
          "name": "F#4",
          "ticks": 52032,
          "time": 94.534285,
          "velocity": 0.6692913385826772
        },
        {
          "duration": 0.1925859895833355,
          "durationTicks": 106,
          "midi": 67,
          "name": "G4",
          "ticks": 52118,
          "time": 94.69053401041667,
          "velocity": 0.7401574803149606
        },
        {
          "duration": 0.3633697916666563,
          "durationTicks": 200,
          "midi": 69,
          "name": "A4",
          "ticks": 52226,
          "time": 94.88675369791667,
          "velocity": 0.7952755905511811
        },
        {
          "duration": 0.512351406250005,
          "durationTicks": 282,
          "midi": 69,
          "name": "A4",
          "ticks": 52500,
          "time": 95.3845703125,
          "velocity": 0.7401574803149606
        },
        {
          "duration": 0.4033404687500024,
          "durationTicks": 222,
          "midi": 70,
          "name": "A#4",
          "ticks": 52784,
          "time": 95.90055541666668,
          "velocity": 0.7007874015748031
        },
        {
          "duration": 0.3270328124999935,
          "durationTicks": 180,
          "midi": 69,
          "name": "A4",
          "ticks": 53008,
          "time": 96.30752958333333,
          "velocity": 0.7401574803149606
        },
        {
          "duration": 0.4215089583333196,
          "durationTicks": 232,
          "midi": 69,
          "name": "A4",
          "ticks": 53294,
          "time": 96.82714838541668,
          "velocity": 0.7401574803149606
        },
        {
          "duration": 0.25799255208335126,
          "durationTicks": 142,
          "midi": 74,
          "name": "D5",
          "ticks": 53536,
          "time": 97.26682583333333,
          "velocity": 0.7401574803149606
        },
        {
          "duration": 2.3691710416666467,
          "durationTicks": 1304,
          "midi": 74,
          "name": "D5",
          "ticks": 53744,
          "time": 97.64473041666668,
          "velocity": 0.7401574803149606
        },
        {
          "duration": 0.5268861979166672,
          "durationTicks": 290,
          "midi": 70,
          "name": "A#4",
          "ticks": 55462,
          "time": 100.76607692708333,
          "velocity": 0.6692913385826772
        },
        {
          "duration": 0.2289229687499983,
          "durationTicks": 126,
          "midi": 70,
          "name": "A#4",
          "ticks": 55844,
          "time": 101.46011322916668,
          "velocity": 0.6692913385826772
        },
        {
          "duration": 0.6940363020833331,
          "durationTicks": 382,
          "midi": 70,
          "name": "A#4",
          "ticks": 56060,
          "time": 101.85255260416668,
          "velocity": 0.7086614173228346
        },
        {
          "duration": 0.17078380208332078,
          "durationTicks": 94,
          "midi": 69,
          "name": "A4",
          "ticks": 56444,
          "time": 102.55022260416668,
          "velocity": 0.7401574803149606
        },
        {
          "duration": 0.5595894791666467,
          "durationTicks": 308,
          "midi": 67,
          "name": "G4",
          "ticks": 56540,
          "time": 102.72464010416668,
          "velocity": 0.7401574803149606
        },
        {
          "duration": 0.41424156250000976,
          "durationTicks": 228,
          "midi": 74,
          "name": "D5",
          "ticks": 56850,
          "time": 103.28786328125,
          "velocity": 0.7401574803149606
        },
        {
          "duration": 0.4978166145833285,
          "durationTicks": 274,
          "midi": 74,
          "name": "D5",
          "ticks": 57140,
          "time": 103.81474947916668,
          "velocity": 0.7401574803149606
        },
        {
          "duration": 0.33793390625000086,
          "durationTicks": 186,
          "midi": 75,
          "name": "D#5",
          "ticks": 57416,
          "time": 104.31619979166668,
          "velocity": 0.6850393700787402
        },
        {
          "duration": 0.5305198958333364,
          "durationTicks": 292,
          "midi": 74,
          "name": "D5",
          "ticks": 57604,
          "time": 104.65776739583333,
          "velocity": 0.7401574803149606
        },
        {
          "duration": 0.3197654166666837,
          "durationTicks": 176,
          "midi": 72,
          "name": "C5",
          "ticks": 57898,
          "time": 105.19192098958332,
          "velocity": 0.7401574803149606
        },
        {
          "duration": 0.31613171875000035,
          "durationTicks": 174,
          "midi": 70,
          "name": "A#4",
          "ticks": 58180,
          "time": 105.70427239583333,
          "velocity": 0.6377952755905512
        },
        {
          "duration": 0.41424156250000976,
          "durationTicks": 228,
          "midi": 72,
          "name": "C5",
          "ticks": 58356,
          "time": 106.0240378125,
          "velocity": 0.7401574803149606
        },
        {
          "duration": 0.33430020833333174,
          "durationTicks": 184,
          "midi": 72,
          "name": "C5",
          "ticks": 58652,
          "time": 106.56182510416667,
          "velocity": 0.7401574803149606
        },
        {
          "duration": 0.18531859374999726,
          "durationTicks": 102,
          "midi": 72,
          "name": "C5",
          "ticks": 58924,
          "time": 107.05600802083333,
          "velocity": 0.7401574803149606
        },
        {
          "duration": 0.5959264583333379,
          "durationTicks": 328,
          "midi": 72,
          "name": "C5",
          "ticks": 59122,
          "time": 107.41574411458333,
          "velocity": 0.7401574803149606
        },
        {
          "duration": 0.15988270833335605,
          "durationTicks": 88,
          "midi": 62,
          "name": "D4",
          "ticks": 59518,
          "time": 108.13521630208332,
          "velocity": 0.7401574803149606
        },
        {
          "duration": 0.7558091666666655,
          "durationTicks": 416,
          "midi": 67,
          "name": "G4",
          "ticks": 59608,
          "time": 108.29873270833333,
          "velocity": 0.7401574803149606
        },
        {
          "duration": 1.8023141666666618,
          "durationTicks": 992,
          "midi": 67,
          "name": "G4",
          "ticks": 60086,
          "time": 109.16718651041667,
          "velocity": 0.7401574803149606
        },
        {
          "duration": 0.6758678125000017,
          "durationTicks": 372,
          "midi": 74,
          "name": "D5",
          "ticks": 73144,
          "time": 132.89160020833333,
          "velocity": 0.7401574803149606
        },
        {
          "duration": 0.15624901041670114,
          "durationTicks": 86,
          "midi": 74,
          "name": "D5",
          "ticks": 73630,
          "time": 133.77458880208331,
          "velocity": 0.7401574803149606
        },
        {
          "duration": 0.37790458333333277,
          "durationTicks": 208,
          "midi": 72,
          "name": "C5",
          "ticks": 73718,
          "time": 133.93447151041667,
          "velocity": 0.7401574803149606
        },
        {
          "duration": 0.3670034895833396,
          "durationTicks": 202,
          "midi": 72,
          "name": "C5",
          "ticks": 73984,
          "time": 134.41775333333334,
          "velocity": 0.7401574803149606
        },
        {
          "duration": 0.1744175000000041,
          "durationTicks": 96,
          "midi": 72,
          "name": "C5",
          "ticks": 74296,
          "time": 134.98461020833332,
          "velocity": 0.7401574803149606
        },
        {
          "duration": 1.0283365104166649,
          "durationTicks": 566,
          "midi": 72,
          "name": "C5",
          "ticks": 74496,
          "time": 135.34798,
          "velocity": 0.7401574803149606
        },
        {
          "duration": 0.32339911458331017,
          "durationTicks": 178,
          "midi": 69,
          "name": "A4",
          "ticks": 75066,
          "time": 136.38358390625,
          "velocity": 0.7401574803149606
        },
        {
          "duration": 0.45421223958331325,
          "durationTicks": 250,
          "midi": 72,
          "name": "C5",
          "ticks": 75246,
          "time": 136.71061671875,
          "velocity": 0.7401574803149606
        },
        {
          "duration": 0.47238072916667306,
          "durationTicks": 260,
          "midi": 72,
          "name": "C5",
          "ticks": 75546,
          "time": 137.25567140625,
          "velocity": 0.7401574803149606
        },
        {
          "duration": 0.3488350000000082,
          "durationTicks": 192,
          "midi": 74,
          "name": "D5",
          "ticks": 75808,
          "time": 137.73168583333333,
          "velocity": 0.7401574803149606
        },
        {
          "duration": 0.5268861979166957,
          "durationTicks": 290,
          "midi": 75,
          "name": "D#5",
          "ticks": 76002,
          "time": 138.08415453125,
          "velocity": 0.6692913385826772
        },
        {
          "duration": 0.5305198958333506,
          "durationTicks": 292,
          "midi": 74,
          "name": "D5",
          "ticks": 76294,
          "time": 138.61467442708332,
          "velocity": 0.7401574803149606
        },
        {
          "duration": 0.2470914583333581,
          "durationTicks": 136,
          "midi": 79,
          "name": "G5",
          "ticks": 76588,
          "time": 139.14882802083332,
          "velocity": 0.7401574803149606
        },
        {
          "duration": 0.3488349999999798,
          "durationTicks": 192,
          "midi": 79,
          "name": "G5",
          "ticks": 76798,
          "time": 139.53036630208334,
          "velocity": 0.7401574803149606
        },
        {
          "duration": 0.49418291666665937,
          "durationTicks": 272,
          "midi": 79,
          "name": "G5",
          "ticks": 77088,
          "time": 140.0572525,
          "velocity": 0.7401574803149606
        },
        {
          "duration": 0.15988270833332763,
          "durationTicks": 88,
          "midi": 77,
          "name": "F5",
          "ticks": 77368,
          "time": 140.56597020833334,
          "velocity": 0.7401574803149606
        },
        {
          "duration": 0.45057854166668676,
          "durationTicks": 248,
          "midi": 74,
          "name": "D5",
          "ticks": 77574,
          "time": 140.94024109375,
          "velocity": 0.7401574803149606
        },
        {
          "duration": 0.2688936458333444,
          "durationTicks": 148,
          "midi": 72,
          "name": "C5",
          "ticks": 77868,
          "time": 141.4743946875,
          "velocity": 0.7401574803149606
        },
        {
          "duration": 0.6758678125000017,
          "durationTicks": 372,
          "midi": 70,
          "name": "A#4",
          "ticks": 78034,
          "time": 141.77599161458332,
          "velocity": 0.7480314960629921
        },
        {
          "duration": 1.2645268750000014,
          "durationTicks": 696,
          "midi": 72,
          "name": "C5",
          "ticks": 78408,
          "time": 142.455493125,
          "velocity": 0.7401574803149606
        },
        {
          "duration": 0.4215089583333622,
          "durationTicks": 232,
          "midi": 72,
          "name": "C5",
          "ticks": 79870,
          "time": 145.11172630208333,
          "velocity": 0.7401574803149606
        },
        {
          "duration": 0.4941829166666878,
          "durationTicks": 272,
          "midi": 72,
          "name": "C5",
          "ticks": 80160,
          "time": 145.6386125,
          "velocity": 0.7401574803149606
        },
        {
          "duration": 0.33793390624998665,
          "durationTicks": 186,
          "midi": 74,
          "name": "D5",
          "ticks": 80434,
          "time": 146.13642911458334,
          "velocity": 0.7401574803149606
        },
        {
          "duration": 0.5014503124999976,
          "durationTicks": 276,
          "midi": 72,
          "name": "C5",
          "ticks": 80622,
          "time": 146.47799671875,
          "velocity": 0.7401574803149606
        },
        {
          "duration": 0.42877635416667204,
          "durationTicks": 236,
          "midi": 70,
          "name": "A#4",
          "ticks": 80902,
          "time": 146.98671442708334,
          "velocity": 0.6929133858267716
        },
        {
          "duration": 0.47238072916667306,
          "durationTicks": 260,
          "midi": 69,
          "name": "A4",
          "ticks": 81140,
          "time": 147.41912447916667,
          "velocity": 0.7007874015748031
        },
        {
          "duration": 0.35246869791669155,
          "durationTicks": 194,
          "midi": 70,
          "name": "A#4",
          "ticks": 81402,
          "time": 147.89513890625,
          "velocity": 0.6535433070866141
        },
        {
          "duration": 0.5014503124999976,
          "durationTicks": 276,
          "midi": 70,
          "name": "A#4",
          "ticks": 81674,
          "time": 148.38932182291668,
          "velocity": 0.6535433070866141
        },
        {
          "duration": 0.3815382812499877,
          "durationTicks": 210,
          "midi": 72,
          "name": "C5",
          "ticks": 81952,
          "time": 148.89440583333334,
          "velocity": 0.7401574803149606
        },
        {
          "duration": 0.6649667187499801,
          "durationTicks": 366,
          "midi": 70,
          "name": "A#4",
          "ticks": 82164,
          "time": 149.2795778125,
          "velocity": 0.6535433070866141
        },
        {
          "duration": 0.1526153125000178,
          "durationTicks": 84,
          "midi": 66,
          "name": "F#4",
          "ticks": 82752,
          "time": 150.347885,
          "velocity": 0.6692913385826772
        },
        {
          "duration": 0.1925859895833355,
          "durationTicks": 106,
          "midi": 67,
          "name": "G4",
          "ticks": 82838,
          "time": 150.50413401041666,
          "velocity": 0.7401574803149606
        },
        {
          "duration": 0.3633697916666563,
          "durationTicks": 200,
          "midi": 69,
          "name": "A4",
          "ticks": 82946,
          "time": 150.70035369791668,
          "velocity": 0.7952755905511811
        },
        {
          "duration": 0.5123514062500192,
          "durationTicks": 282,
          "midi": 69,
          "name": "A4",
          "ticks": 83220,
          "time": 151.1981703125,
          "velocity": 0.7401574803149606
        },
        {
          "duration": 0.4033404687500024,
          "durationTicks": 222,
          "midi": 70,
          "name": "A#4",
          "ticks": 83504,
          "time": 151.71415541666667,
          "velocity": 0.7007874015748031
        },
        {
          "duration": 0.3270328124999935,
          "durationTicks": 180,
          "midi": 69,
          "name": "A4",
          "ticks": 83728,
          "time": 152.12112958333333,
          "velocity": 0.7401574803149606
        },
        {
          "duration": 0.4215089583333054,
          "durationTicks": 232,
          "midi": 69,
          "name": "A4",
          "ticks": 84014,
          "time": 152.64074838541669,
          "velocity": 0.7401574803149606
        },
        {
          "duration": 0.25799255208335126,
          "durationTicks": 142,
          "midi": 74,
          "name": "D5",
          "ticks": 84256,
          "time": 153.08042583333332,
          "velocity": 0.7401574803149606
        },
        {
          "duration": 1.2390909895833317,
          "durationTicks": 682,
          "midi": 74,
          "name": "D5",
          "ticks": 84464,
          "time": 153.45833041666668,
          "velocity": 0.7401574803149606
        },
        {
          "duration": 0.1744175000000041,
          "durationTicks": 96,
          "midi": 70,
          "name": "A#4",
          "ticks": 85148,
          "time": 154.70105510416667,
          "velocity": 0.5748031496062992
        },
        {
          "duration": 0.17805119791665902,
          "durationTicks": 98,
          "midi": 72,
          "name": "C5",
          "ticks": 85254,
          "time": 154.89364109375,
          "velocity": 0.6299212598425197
        },
        {
          "duration": 0.8212157291666813,
          "durationTicks": 452,
          "midi": 70,
          "name": "A#4",
          "ticks": 85354,
          "time": 155.07532598958332,
          "velocity": 0.6299212598425197
        },
        {
          "duration": 0.3633697916666563,
          "durationTicks": 200,
          "midi": 74,
          "name": "D5",
          "ticks": 85808,
          "time": 155.90017541666668,
          "velocity": 0.5433070866141733
        },
        {
          "duration": 0.1526153125000178,
          "durationTicks": 84,
          "midi": 70,
          "name": "A#4",
          "ticks": 86398,
          "time": 156.97211630208332,
          "velocity": 0.8503937007874016
        },
        {
          "duration": 0.08357505208331872,
          "durationTicks": 46,
          "midi": 70,
          "name": "A#4",
          "ticks": 86578,
          "time": 157.29914911458334,
          "velocity": 0.8346456692913385
        },
        {
          "duration": 0.7848787500000185,
          "durationTicks": 432,
          "midi": 70,
          "name": "A#4",
          "ticks": 86674,
          "time": 157.47356661458332,
          "velocity": 0.8031496062992126
        },
        {
          "duration": 0.17078380208332078,
          "durationTicks": 94,
          "midi": 69,
          "name": "A4",
          "ticks": 87140,
          "time": 158.32021822916667,
          "velocity": 0.7401574803149606
        },
        {
          "duration": 0.6031938541666477,
          "durationTicks": 332,
          "midi": 67,
          "name": "G4",
          "ticks": 87236,
          "time": 158.49463572916667,
          "velocity": 0.7401574803149606
        },
        {
          "duration": 0.41424156249999555,
          "durationTicks": 228,
          "midi": 74,
          "name": "D5",
          "ticks": 87570,
          "time": 159.10146328125,
          "velocity": 0.7401574803149606
        },
        {
          "duration": 0.4978166145833427,
          "durationTicks": 274,
          "midi": 74,
          "name": "D5",
          "ticks": 87860,
          "time": 159.62834947916667,
          "velocity": 0.7401574803149606
        },
        {
          "duration": 0.33793390625001507,
          "durationTicks": 186,
          "midi": 75,
          "name": "D#5",
          "ticks": 88136,
          "time": 160.12979979166667,
          "velocity": 0.6850393700787402
        },
        {
          "duration": 0.5305198958333222,
          "durationTicks": 292,
          "midi": 74,
          "name": "D5",
          "ticks": 88324,
          "time": 160.47136739583334,
          "velocity": 0.7401574803149606
        },
        {
          "duration": 0.3197654166666837,
          "durationTicks": 176,
          "midi": 72,
          "name": "C5",
          "ticks": 88618,
          "time": 161.00552098958332,
          "velocity": 0.7401574803149606
        },
        {
          "duration": 0.31613171875000035,
          "durationTicks": 174,
          "midi": 70,
          "name": "A#4",
          "ticks": 88900,
          "time": 161.51787239583334,
          "velocity": 0.6377952755905512
        },
        {
          "duration": 0.414241562500024,
          "durationTicks": 228,
          "midi": 72,
          "name": "C5",
          "ticks": 89076,
          "time": 161.8376378125,
          "velocity": 0.7401574803149606
        },
        {
          "duration": 0.33430020833333174,
          "durationTicks": 184,
          "midi": 72,
          "name": "C5",
          "ticks": 89372,
          "time": 162.37542510416668,
          "velocity": 0.7401574803149606
        },
        {
          "duration": 0.18531859374999726,
          "durationTicks": 102,
          "midi": 72,
          "name": "C5",
          "ticks": 89644,
          "time": 162.86960802083334,
          "velocity": 0.7401574803149606
        },
        {
          "duration": 0.741274374999989,
          "durationTicks": 408,
          "midi": 72,
          "name": "C5",
          "ticks": 89842,
          "time": 163.22934411458334,
          "velocity": 0.7401574803149606
        },
        {
          "duration": 0.13081312500000308,
          "durationTicks": 72,
          "midi": 69,
          "name": "A4",
          "ticks": 90426,
          "time": 164.29038390625,
          "velocity": 0.7401574803149606
        },
        {
          "duration": 0.1162783333333266,
          "durationTicks": 64,
          "midi": 70,
          "name": "A#4",
          "ticks": 90506,
          "time": 164.43573182291667,
          "velocity": 0.6299212598425197
        },
        {
          "duration": 0.2906958333333307,
          "durationTicks": 160,
          "midi": 74,
          "name": "D5",
          "ticks": 90614,
          "time": 164.63195151041668,
          "velocity": 0.7401574803149606
        },
        {
          "duration": 0.5595894791666751,
          "durationTicks": 308,
          "midi": 74,
          "name": "D5",
          "ticks": 90880,
          "time": 165.11523333333332,
          "velocity": 0.7401574803149606
        },
        {
          "duration": 0.697669999999988,
          "durationTicks": 384,
          "midi": 79,
          "name": "G5",
          "ticks": 91190,
          "time": 165.67845651041668,
          "velocity": 0.6692913385826772
        },
        {
          "duration": 0.8575527083333156,
          "durationTicks": 472,
          "midi": 74,
          "name": "D5",
          "ticks": 91586,
          "time": 166.39792869791668,
          "velocity": 0.7401574803149606
        },
        {
          "duration": 0.45421223958334167,
          "durationTicks": 250,
          "midi": 70,
          "name": "A#4",
          "ticks": 92324,
          "time": 167.73876322916666,
          "velocity": 0.6535433070866141
        },
        {
          "duration": 0.18168489583334235,
          "durationTicks": 100,
          "midi": 70,
          "name": "A#4",
          "ticks": 92692,
          "time": 168.40736364583333,
          "velocity": 0.6850393700787402
        },
        {
          "duration": 0.7013036979166998,
          "durationTicks": 386,
          "midi": 70,
          "name": "A#4",
          "ticks": 92902,
          "time": 168.78890192708332,
          "velocity": 0.6692913385826772
        },
        {
          "duration": 0.14534791666665114,
          "durationTicks": 80,
          "midi": 69,
          "name": "A4",
          "ticks": 93290,
          "time": 169.49383932291667,
          "velocity": 0.7401574803149606
        },
        {
          "duration": 0.5595894791666467,
          "durationTicks": 308,
          "midi": 67,
          "name": "G4",
          "ticks": 93374,
          "time": 169.6464546354167,
          "velocity": 0.7401574803149606
        },
        {
          "duration": 0.41060786458334064,
          "durationTicks": 226,
          "midi": 74,
          "name": "D5",
          "ticks": 93684,
          "time": 170.2096778125,
          "velocity": 0.7401574803149606
        },
        {
          "duration": 0.4978166145833427,
          "durationTicks": 274,
          "midi": 74,
          "name": "D5",
          "ticks": 93986,
          "time": 170.75836619791667,
          "velocity": 0.7401574803149606
        },
        {
          "duration": 0.3270328124999935,
          "durationTicks": 180,
          "midi": 75,
          "name": "D#5",
          "ticks": 94262,
          "time": 171.25981651041667,
          "velocity": 0.6850393700787402
        },
        {
          "duration": 0.5414209895833721,
          "durationTicks": 298,
          "midi": 74,
          "name": "D5",
          "ticks": 94444,
          "time": 171.59048302083332,
          "velocity": 0.7401574803149606
        },
        {
          "duration": 0.3015969270833523,
          "durationTicks": 166,
          "midi": 72,
          "name": "C5",
          "ticks": 94744,
          "time": 172.13553770833332,
          "velocity": 0.7401574803149606
        },
        {
          "duration": 0.32339911458331017,
          "durationTicks": 178,
          "midi": 70,
          "name": "A#4",
          "ticks": 95034,
          "time": 172.66242390625,
          "velocity": 0.6220472440944882
        },
        {
          "duration": 0.4106078645833122,
          "durationTicks": 226,
          "midi": 72,
          "name": "C5",
          "ticks": 95214,
          "time": 172.98945671875,
          "velocity": 0.7401574803149606
        },
        {
          "duration": 0.33066651041667683,
          "durationTicks": 182,
          "midi": 72,
          "name": "C5",
          "ticks": 95524,
          "time": 173.55267989583334,
          "velocity": 0.7401574803149606
        },
        {
          "duration": 0.1744175000000041,
          "durationTicks": 96,
          "midi": 72,
          "name": "C5",
          "ticks": 95800,
          "time": 174.05413020833333,
          "velocity": 0.7401574803149606
        },
        {
          "duration": 0.7013036979166429,
          "durationTicks": 386,
          "midi": 72,
          "name": "C5",
          "ticks": 95990,
          "time": 174.3993315104167,
          "velocity": 0.7401574803149606
        },
        {
          "duration": 0.15624901041667272,
          "durationTicks": 86,
          "midi": 70,
          "name": "A#4",
          "ticks": 96378,
          "time": 175.10426890625,
          "velocity": 0.6535433070866141
        },
        {
          "duration": 0.5377872916666604,
          "durationTicks": 296,
          "midi": 69,
          "name": "A4",
          "ticks": 96466,
          "time": 175.26415161458334,
          "velocity": 0.7401574803149606
        },
        {
          "duration": 1.0755745833333492,
          "durationTicks": 592,
          "midi": 67,
          "name": "G4",
          "ticks": 96766,
          "time": 175.80920630208334,
          "velocity": 0.7401574803149606
        },
        {
          "duration": 0.15624901041667272,
          "durationTicks": 86,
          "midi": 69,
          "name": "A4",
          "ticks": 98214,
          "time": 178.44000359375,
          "velocity": 0.7401574803149606
        },
        {
          "duration": 0.3960730729166926,
          "durationTicks": 218,
          "midi": 72,
          "name": "C5",
          "ticks": 98302,
          "time": 178.59988630208332,
          "velocity": 0.7401574803149606
        },
        {
          "duration": 0.4360437500000103,
          "durationTicks": 240,
          "midi": 72,
          "name": "C5",
          "ticks": 98578,
          "time": 179.10133661458335,
          "velocity": 0.7401574803149606
        },
        {
          "duration": 0.1562490104166443,
          "durationTicks": 86,
          "midi": 72,
          "name": "C5",
          "ticks": 98890,
          "time": 179.66819348958336,
          "velocity": 0.7401574803149606
        },
        {
          "duration": 0.5523220833333369,
          "durationTicks": 304,
          "midi": 72,
          "name": "C5",
          "ticks": 99056,
          "time": 179.96979041666665,
          "velocity": 0.7401574803149606
        },
        {
          "duration": 0.5050840104167094,
          "durationTicks": 278,
          "midi": 74,
          "name": "D5",
          "ticks": 99362,
          "time": 180.52574619791665,
          "velocity": 0.7401574803149606
        },
        {
          "duration": 0.3706371874999945,
          "durationTicks": 204,
          "midi": 75,
          "name": "D#5",
          "ticks": 99642,
          "time": 181.03446390625,
          "velocity": 0.6377952755905512
        },
        {
          "duration": 1.7587097916666607,
          "durationTicks": 968,
          "midi": 74,
          "name": "D5",
          "ticks": 99852,
          "time": 181.4160021875,
          "velocity": 0.7086614173228346
        },
        {
          "duration": 0.16351640624998254,
          "durationTicks": 90,
          "midi": 72,
          "name": "C5",
          "ticks": 101278,
          "time": 184.00682880208336,
          "velocity": 0.7401574803149606
        },
        {
          "duration": 0.4069741666666573,
          "durationTicks": 224,
          "midi": 74,
          "name": "D5",
          "ticks": 101370,
          "time": 184.17397890625,
          "velocity": 0.7401574803149606
        },
        {
          "duration": 0.4614796354166515,
          "durationTicks": 254,
          "midi": 74,
          "name": "D5",
          "ticks": 101638,
          "time": 184.66089442708335,
          "velocity": 0.7401574803149606
        },
        {
          "duration": 0.3197654166667121,
          "durationTicks": 176,
          "midi": 74,
          "name": "D5",
          "ticks": 101954,
          "time": 185.23501869791664,
          "velocity": 0.7401574803149606
        },
        {
          "duration": 0.5159851041666457,
          "durationTicks": 284,
          "midi": 78,
          "name": "F#5",
          "ticks": 102138,
          "time": 185.56931890625,
          "velocity": 0.7401574803149606
        },
        {
          "duration": 0.5087177083333074,
          "durationTicks": 280,
          "midi": 79,
          "name": "G5",
          "ticks": 102424,
          "time": 186.08893770833336,
          "velocity": 0.7401574803149606
        },
        {
          "duration": 0.3633697916666563,
          "durationTicks": 200,
          "midi": 81,
          "name": "A5",
          "ticks": 102706,
          "time": 186.60128911458335,
          "velocity": 0.7401574803149606
        },
        {
          "duration": 4.385873385416687,
          "durationTicks": 2414,
          "midi": 82,
          "name": "A#5",
          "ticks": 102908,
          "time": 186.96829260416666,
          "velocity": 0.7559055118110236
        }
      ]
    },
    {
      "channel": 0,
      "controlChanges": {
        "0": [
          {
            "number": 0,
            "ticks": 1536,
            "time": 2.79068,
            "value": 0
          }
        ],
        "7": [
          {
            "number": 7,
            "ticks": 1536,
            "time": 2.79068,
            "value": 0.8582677165354331
          }
        ],
        "10": [
          {
            "number": 10,
            "ticks": 1536,
            "time": 2.79068,
            "value": 0.6141732283464567
          }
        ],
        "11": [
          {
            "number": 11,
            "ticks": 1536,
            "time": 2.79068,
            "value": 1
          }
        ],
        "91": [
          {
            "number": 91,
            "ticks": 1536,
            "time": 2.79068,
            "value": 1
          }
        ],
        "93": [
          {
            "number": 93,
            "ticks": 1536,
            "time": 2.79068,
            "value": 0.1889763779527559
          }
        ],
        "121": [
          {
            "number": 121,
            "ticks": 1536,
            "time": 2.79068,
            "value": 0
          }
        ]
      },
      "pitchBends": [
        {
          "ticks": 1536,
          "time": 2.79068,
          "value": 0
        }
      ],
      "instrument": {
        "family": "piano",
        "name": "acoustic grand piano",
        "number": 0
      },
      "name": "Harmonica",
      "notes": []
    },
    {
      "channel": 1,
      "controlChanges": {
        "7": [
          {
            "number": 7,
            "ticks": 33758,
            "time": 61.333187135416665,
            "value": 0.7559055118110236
          },
          {
            "number": 7,
            "ticks": 33814,
            "time": 61.43493067708334,
            "value": 0.7637795275590551
          },
          {
            "number": 7,
            "ticks": 33894,
            "time": 61.58027859375,
            "value": 0.7716535433070866
          },
          {
            "number": 7,
            "ticks": 33934,
            "time": 61.652952552083335,
            "value": 0.7795275590551181
          },
          {
            "number": 7,
            "ticks": 34014,
            "time": 61.79830046875,
            "value": 0.7952755905511811
          },
          {
            "number": 7,
            "ticks": 34054,
            "time": 61.87097442708334,
            "value": 0.8110236220472441
          },
          {
            "number": 7,
            "ticks": 34134,
            "time": 62.01632234375,
            "value": 0.8188976377952756
          },
          {
            "number": 7,
            "ticks": 34174,
            "time": 62.08899630208334,
            "value": 0.8346456692913385
          },
          {
            "number": 7,
            "ticks": 34262,
            "time": 62.248879010416665,
            "value": 0.8503937007874016
          },
          {
            "number": 7,
            "ticks": 34302,
            "time": 62.32155296875,
            "value": 0.8582677165354331
          },
          {
            "number": 7,
            "ticks": 34382,
            "time": 62.46690088541666,
            "value": 0.8740157480314961
          },
          {
            "number": 7,
            "ticks": 34462,
            "time": 62.612248802083336,
            "value": 0.889763779527559
          },
          {
            "number": 7,
            "ticks": 34502,
            "time": 62.68492276041666,
            "value": 0.905511811023622
          },
          {
            "number": 7,
            "ticks": 34582,
            "time": 62.83027067708334,
            "value": 0.9133858267716536
          },
          {
            "number": 7,
            "ticks": 34622,
            "time": 62.90294463541667,
            "value": 0.9212598425196851
          },
          {
            "number": 7,
            "ticks": 34702,
            "time": 63.04829255208334,
            "value": 0.937007874015748
          },
          {
            "number": 7,
            "ticks": 34782,
            "time": 63.193640468750004,
            "value": 0.9448818897637795
          },
          {
            "number": 7,
            "ticks": 34822,
            "time": 63.26631442708334,
            "value": 0.952755905511811
          },
          {
            "number": 7,
            "ticks": 34870,
            "time": 63.35352317708334,
            "value": 0.9606299212598425
          },
          {
            "number": 7,
            "ticks": 35326,
            "time": 64.18200630208334,
            "value": 0.7086614173228346
          },
          {
            "number": 7,
            "ticks": 35358,
            "time": 64.24014546875,
            "value": 0.7165354330708661
          },
          {
            "number": 7,
            "ticks": 35406,
            "time": 64.32735421875,
            "value": 0.7322834645669292
          },
          {
            "number": 7,
            "ticks": 35446,
            "time": 64.40002817708334,
            "value": 0.7322834645669292
          },
          {
            "number": 7,
            "ticks": 35494,
            "time": 64.48723692708334,
            "value": 0.7480314960629921
          },
          {
            "number": 7,
            "ticks": 35590,
            "time": 64.66165442708333,
            "value": 0.7716535433070866
          },
          {
            "number": 7,
            "ticks": 35638,
            "time": 64.74886317708334,
            "value": 0.7874015748031497
          },
          {
            "number": 7,
            "ticks": 35686,
            "time": 64.83607192708334,
            "value": 0.7952755905511811
          },
          {
            "number": 7,
            "ticks": 35726,
            "time": 64.90874588541666,
            "value": 0.8110236220472441
          },
          {
            "number": 7,
            "ticks": 35774,
            "time": 64.99595463541667,
            "value": 0.8346456692913385
          },
          {
            "number": 7,
            "ticks": 35822,
            "time": 65.08316338541667,
            "value": 0.8503937007874016
          },
          {
            "number": 7,
            "ticks": 35870,
            "time": 65.17037213541667,
            "value": 0.8582677165354331
          },
          {
            "number": 7,
            "ticks": 35918,
            "time": 65.25758088541666,
            "value": 0.8818897637795275
          },
          {
            "number": 7,
            "ticks": 35966,
            "time": 65.34478963541666,
            "value": 0.889763779527559
          },
          {
            "number": 7,
            "ticks": 36006,
            "time": 65.41746359375,
            "value": 0.9133858267716536
          },
          {
            "number": 7,
            "ticks": 36054,
            "time": 65.50467234375,
            "value": 0.9212598425196851
          },
          {
            "number": 7,
            "ticks": 36102,
            "time": 65.59188109375,
            "value": 0.937007874015748
          },
          {
            "number": 7,
            "ticks": 36150,
            "time": 65.67908984375,
            "value": 0.9448818897637795
          },
          {
            "number": 7,
            "ticks": 36198,
            "time": 65.76629859375001,
            "value": 0.9606299212598425
          },
          {
            "number": 7,
            "ticks": 36246,
            "time": 65.85350734375,
            "value": 0.9763779527559056
          },
          {
            "number": 7,
            "ticks": 36286,
            "time": 65.92618130208334,
            "value": 0.984251968503937
          },
          {
            "number": 7,
            "ticks": 36334,
            "time": 66.01339005208334,
            "value": 0.9921259842519685
          },
          {
            "number": 7,
            "ticks": 36382,
            "time": 66.10059880208334,
            "value": 1
          },
          {
            "number": 7,
            "ticks": 36430,
            "time": 66.18780755208334,
            "value": 1
          },
          {
            "number": 7,
            "ticks": 36486,
            "time": 66.28955109375,
            "value": 1
          },
          {
            "number": 7,
            "ticks": 36864,
            "time": 66.97632,
            "value": 0.8582677165354331
          },
          {
            "number": 7,
            "ticks": 39894,
            "time": 72.48137234375,
            "value": 0.7559055118110236
          },
          {
            "number": 7,
            "ticks": 39958,
            "time": 72.59765067708334,
            "value": 0.7637795275590551
          },
          {
            "number": 7,
            "ticks": 40038,
            "time": 72.74299859375,
            "value": 0.7716535433070866
          },
          {
            "number": 7,
            "ticks": 40078,
            "time": 72.81567255208334,
            "value": 0.7795275590551181
          },
          {
            "number": 7,
            "ticks": 40158,
            "time": 72.96102046875001,
            "value": 0.7952755905511811
          },
          {
            "number": 7,
            "ticks": 40198,
            "time": 73.03369442708333,
            "value": 0.8110236220472441
          },
          {
            "number": 7,
            "ticks": 40278,
            "time": 73.17904234375,
            "value": 0.8188976377952756
          },
          {
            "number": 7,
            "ticks": 40318,
            "time": 73.25171630208334,
            "value": 0.8346456692913385
          },
          {
            "number": 7,
            "ticks": 40406,
            "time": 73.41159901041667,
            "value": 0.8503937007874016
          },
          {
            "number": 7,
            "ticks": 40446,
            "time": 73.48427296875,
            "value": 0.8582677165354331
          },
          {
            "number": 7,
            "ticks": 40526,
            "time": 73.62962088541667,
            "value": 0.8740157480314961
          },
          {
            "number": 7,
            "ticks": 40606,
            "time": 73.77496880208334,
            "value": 0.889763779527559
          },
          {
            "number": 7,
            "ticks": 40646,
            "time": 73.84764276041666,
            "value": 0.905511811023622
          },
          {
            "number": 7,
            "ticks": 40726,
            "time": 73.99299067708334,
            "value": 0.9133858267716536
          },
          {
            "number": 7,
            "ticks": 40766,
            "time": 74.06566463541667,
            "value": 0.9212598425196851
          },
          {
            "number": 7,
            "ticks": 40846,
            "time": 74.21101255208333,
            "value": 0.937007874015748
          },
          {
            "number": 7,
            "ticks": 40926,
            "time": 74.35636046875,
            "value": 0.9448818897637795
          },
          {
            "number": 7,
            "ticks": 40966,
            "time": 74.42903442708334,
            "value": 0.952755905511811
          },
          {
            "number": 7,
            "ticks": 41014,
            "time": 74.51624317708334,
            "value": 0.9606299212598425
          },
          {
            "number": 7,
            "ticks": 41470,
            "time": 75.34472630208334,
            "value": 0.7086614173228346
          },
          {
            "number": 7,
            "ticks": 41502,
            "time": 75.40286546875001,
            "value": 0.7165354330708661
          },
          {
            "number": 7,
            "ticks": 41550,
            "time": 75.49007421875,
            "value": 0.7322834645669292
          },
          {
            "number": 7,
            "ticks": 41590,
            "time": 75.56274817708334,
            "value": 0.7322834645669292
          },
          {
            "number": 7,
            "ticks": 41638,
            "time": 75.64995692708334,
            "value": 0.7480314960629921
          },
          {
            "number": 7,
            "ticks": 41734,
            "time": 75.82437442708334,
            "value": 0.7716535433070866
          },
          {
            "number": 7,
            "ticks": 41782,
            "time": 75.91158317708334,
            "value": 0.7874015748031497
          },
          {
            "number": 7,
            "ticks": 41830,
            "time": 75.99879192708333,
            "value": 0.7952755905511811
          },
          {
            "number": 7,
            "ticks": 41870,
            "time": 76.07146588541667,
            "value": 0.8110236220472441
          },
          {
            "number": 7,
            "ticks": 41918,
            "time": 76.15867463541666,
            "value": 0.8346456692913385
          },
          {
            "number": 7,
            "ticks": 41966,
            "time": 76.24588338541666,
            "value": 0.8503937007874016
          },
          {
            "number": 7,
            "ticks": 42014,
            "time": 76.33309213541666,
            "value": 0.8582677165354331
          },
          {
            "number": 7,
            "ticks": 42062,
            "time": 76.42030088541667,
            "value": 0.8818897637795275
          },
          {
            "number": 7,
            "ticks": 42110,
            "time": 76.50750963541667,
            "value": 0.889763779527559
          },
          {
            "number": 7,
            "ticks": 42150,
            "time": 76.58018359375001,
            "value": 0.9133858267716536
          },
          {
            "number": 7,
            "ticks": 42198,
            "time": 76.66739234375,
            "value": 0.9212598425196851
          },
          {
            "number": 7,
            "ticks": 42246,
            "time": 76.75460109375,
            "value": 0.937007874015748
          },
          {
            "number": 7,
            "ticks": 42294,
            "time": 76.84180984375,
            "value": 0.9448818897637795
          },
          {
            "number": 7,
            "ticks": 42342,
            "time": 76.92901859375,
            "value": 0.9606299212598425
          },
          {
            "number": 7,
            "ticks": 42390,
            "time": 77.01622734375,
            "value": 0.9763779527559056
          },
          {
            "number": 7,
            "ticks": 42430,
            "time": 77.08890130208334,
            "value": 0.984251968503937
          },
          {
            "number": 7,
            "ticks": 42478,
            "time": 77.17611005208333,
            "value": 0.9921259842519685
          },
          {
            "number": 7,
            "ticks": 42526,
            "time": 77.26331880208333,
            "value": 1
          },
          {
            "number": 7,
            "ticks": 42574,
            "time": 77.35052755208334,
            "value": 1
          },
          {
            "number": 7,
            "ticks": 42630,
            "time": 77.45227109375,
            "value": 1
          },
          {
            "number": 7,
            "ticks": 42974,
            "time": 78.07726713541666,
            "value": 0.7559055118110236
          },
          {
            "number": 7,
            "ticks": 43030,
            "time": 78.17901067708334,
            "value": 0.7637795275590551
          },
          {
            "number": 7,
            "ticks": 43110,
            "time": 78.32435859375,
            "value": 0.7716535433070866
          },
          {
            "number": 7,
            "ticks": 43150,
            "time": 78.39703255208333,
            "value": 0.7795275590551181
          },
          {
            "number": 7,
            "ticks": 43230,
            "time": 78.54238046875,
            "value": 0.7952755905511811
          },
          {
            "number": 7,
            "ticks": 43270,
            "time": 78.61505442708334,
            "value": 0.8110236220472441
          },
          {
            "number": 7,
            "ticks": 43350,
            "time": 78.76040234375,
            "value": 0.8188976377952756
          },
          {
            "number": 7,
            "ticks": 43390,
            "time": 78.83307630208334,
            "value": 0.8346456692913385
          },
          {
            "number": 7,
            "ticks": 43478,
            "time": 78.99295901041667,
            "value": 0.8503937007874016
          },
          {
            "number": 7,
            "ticks": 43518,
            "time": 79.06563296875,
            "value": 0.8582677165354331
          },
          {
            "number": 7,
            "ticks": 43598,
            "time": 79.21098088541666,
            "value": 0.8740157480314961
          },
          {
            "number": 7,
            "ticks": 43678,
            "time": 79.35632880208334,
            "value": 0.889763779527559
          },
          {
            "number": 7,
            "ticks": 43718,
            "time": 79.42900276041667,
            "value": 0.905511811023622
          },
          {
            "number": 7,
            "ticks": 43798,
            "time": 79.57435067708334,
            "value": 0.9133858267716536
          },
          {
            "number": 7,
            "ticks": 43838,
            "time": 79.64702463541667,
            "value": 0.9212598425196851
          },
          {
            "number": 7,
            "ticks": 43918,
            "time": 79.79237255208334,
            "value": 0.937007874015748
          },
          {
            "number": 7,
            "ticks": 43998,
            "time": 79.93772046875,
            "value": 0.9448818897637795
          },
          {
            "number": 7,
            "ticks": 44038,
            "time": 80.01039442708334,
            "value": 0.952755905511811
          },
          {
            "number": 7,
            "ticks": 44086,
            "time": 80.09760317708334,
            "value": 0.9606299212598425
          },
          {
            "number": 7,
            "ticks": 44542,
            "time": 80.92608630208333,
            "value": 0.7086614173228346
          },
          {
            "number": 7,
            "ticks": 44574,
            "time": 80.98422546875,
            "value": 0.7165354330708661
          },
          {
            "number": 7,
            "ticks": 44622,
            "time": 81.07143421875,
            "value": 0.7322834645669292
          },
          {
            "number": 7,
            "ticks": 44662,
            "time": 81.14410817708334,
            "value": 0.7322834645669292
          },
          {
            "number": 7,
            "ticks": 44710,
            "time": 81.23131692708334,
            "value": 0.7480314960629921
          },
          {
            "number": 7,
            "ticks": 44806,
            "time": 81.40573442708333,
            "value": 0.7716535433070866
          },
          {
            "number": 7,
            "ticks": 44854,
            "time": 81.49294317708333,
            "value": 0.7874015748031497
          },
          {
            "number": 7,
            "ticks": 44902,
            "time": 81.58015192708334,
            "value": 0.7952755905511811
          },
          {
            "number": 7,
            "ticks": 44942,
            "time": 81.65282588541666,
            "value": 0.8110236220472441
          },
          {
            "number": 7,
            "ticks": 44990,
            "time": 81.74003463541666,
            "value": 0.8346456692913385
          },
          {
            "number": 7,
            "ticks": 45038,
            "time": 81.82724338541666,
            "value": 0.8503937007874016
          },
          {
            "number": 7,
            "ticks": 45086,
            "time": 81.91445213541667,
            "value": 0.8582677165354331
          },
          {
            "number": 7,
            "ticks": 45134,
            "time": 82.00166088541667,
            "value": 0.8818897637795275
          },
          {
            "number": 7,
            "ticks": 45182,
            "time": 82.08886963541667,
            "value": 0.889763779527559
          },
          {
            "number": 7,
            "ticks": 45222,
            "time": 82.16154359375,
            "value": 0.9133858267716536
          },
          {
            "number": 7,
            "ticks": 45270,
            "time": 82.24875234375,
            "value": 0.9212598425196851
          },
          {
            "number": 7,
            "ticks": 45318,
            "time": 82.33596109375,
            "value": 0.937007874015748
          },
          {
            "number": 7,
            "ticks": 45366,
            "time": 82.42316984375,
            "value": 0.9448818897637795
          },
          {
            "number": 7,
            "ticks": 45414,
            "time": 82.51037859375,
            "value": 0.9606299212598425
          },
          {
            "number": 7,
            "ticks": 45462,
            "time": 82.59758734375,
            "value": 0.9763779527559056
          },
          {
            "number": 7,
            "ticks": 45502,
            "time": 82.67026130208333,
            "value": 0.984251968503937
          },
          {
            "number": 7,
            "ticks": 45550,
            "time": 82.75747005208333,
            "value": 0.9921259842519685
          },
          {
            "number": 7,
            "ticks": 45598,
            "time": 82.84467880208334,
            "value": 1
          },
          {
            "number": 7,
            "ticks": 45646,
            "time": 82.93188755208334,
            "value": 1
          },
          {
            "number": 7,
            "ticks": 45702,
            "time": 83.03363109375,
            "value": 1
          },
          {
            "number": 7,
            "ticks": 46064,
            "time": 83.69133041666666,
            "value": 0.7007874015748031
          },
          {
            "number": 7,
            "ticks": 46104,
            "time": 83.764004375,
            "value": 0.7244094488188977
          },
          {
            "number": 7,
            "ticks": 46168,
            "time": 83.88028270833334,
            "value": 0.7401574803149606
          },
          {
            "number": 7,
            "ticks": 46216,
            "time": 83.96749145833334,
            "value": 0.7559055118110236
          },
          {
            "number": 7,
            "ticks": 46264,
            "time": 84.05470020833334,
            "value": 0.7716535433070866
          },
          {
            "number": 7,
            "ticks": 46304,
            "time": 84.12737416666667,
            "value": 0.7874015748031497
          },
          {
            "number": 7,
            "ticks": 46352,
            "time": 84.21458291666667,
            "value": 0.8110236220472441
          },
          {
            "number": 7,
            "ticks": 46400,
            "time": 84.30179166666666,
            "value": 0.8346456692913385
          },
          {
            "number": 7,
            "ticks": 46448,
            "time": 84.38900041666666,
            "value": 0.8503937007874016
          },
          {
            "number": 7,
            "ticks": 46496,
            "time": 84.47620916666666,
            "value": 0.8740157480314961
          },
          {
            "number": 7,
            "ticks": 46536,
            "time": 84.548883125,
            "value": 0.889763779527559
          },
          {
            "number": 7,
            "ticks": 46584,
            "time": 84.636091875,
            "value": 0.9133858267716536
          },
          {
            "number": 7,
            "ticks": 46632,
            "time": 84.72330062500001,
            "value": 0.9291338582677166
          },
          {
            "number": 7,
            "ticks": 46680,
            "time": 84.810509375,
            "value": 0.952755905511811
          },
          {
            "number": 7,
            "ticks": 46744,
            "time": 84.92678770833334,
            "value": 0.968503937007874
          },
          {
            "number": 7,
            "ticks": 46792,
            "time": 85.01399645833334,
            "value": 0.984251968503937
          },
          {
            "number": 7,
            "ticks": 46840,
            "time": 85.10120520833334,
            "value": 1
          },
          {
            "number": 7,
            "ticks": 46888,
            "time": 85.18841395833334,
            "value": 1
          },
          {
            "number": 7,
            "ticks": 46928,
            "time": 85.26108791666667,
            "value": 1
          },
          {
            "number": 7,
            "ticks": 47616,
            "time": 86.51108,
            "value": 0.7480314960629921
          },
          {
            "number": 7,
            "ticks": 47664,
            "time": 86.59828875,
            "value": 0.7637795275590551
          },
          {
            "number": 7,
            "ticks": 47712,
            "time": 86.6854975,
            "value": 0.7795275590551181
          },
          {
            "number": 7,
            "ticks": 47752,
            "time": 86.75817145833334,
            "value": 0.7952755905511811
          },
          {
            "number": 7,
            "ticks": 47800,
            "time": 86.84538020833334,
            "value": 0.8188976377952756
          },
          {
            "number": 7,
            "ticks": 47848,
            "time": 86.93258895833334,
            "value": 0.84251968503937
          },
          {
            "number": 7,
            "ticks": 47896,
            "time": 87.01979770833334,
            "value": 0.8582677165354331
          },
          {
            "number": 7,
            "ticks": 47936,
            "time": 87.09247166666667,
            "value": 0.8818897637795275
          },
          {
            "number": 7,
            "ticks": 47984,
            "time": 87.17968041666667,
            "value": 0.905511811023622
          },
          {
            "number": 7,
            "ticks": 48032,
            "time": 87.26688916666666,
            "value": 0.9212598425196851
          },
          {
            "number": 7,
            "ticks": 48080,
            "time": 87.35409791666666,
            "value": 0.937007874015748
          },
          {
            "number": 7,
            "ticks": 48120,
            "time": 87.426771875,
            "value": 0.952755905511811
          },
          {
            "number": 7,
            "ticks": 48168,
            "time": 87.513980625,
            "value": 0.968503937007874
          },
          {
            "number": 7,
            "ticks": 48216,
            "time": 87.601189375,
            "value": 0.984251968503937
          },
          {
            "number": 7,
            "ticks": 48264,
            "time": 87.688398125,
            "value": 1
          },
          {
            "number": 7,
            "ticks": 48312,
            "time": 87.77560687500001,
            "value": 1
          },
          {
            "number": 7,
            "ticks": 48352,
            "time": 87.84828083333333,
            "value": 1
          },
          {
            "number": 7,
            "ticks": 49136,
            "time": 89.27269041666666,
            "value": 0.7165354330708661
          },
          {
            "number": 7,
            "ticks": 58326,
            "time": 105.96953234375,
            "value": 0.7559055118110236
          },
          {
            "number": 7,
            "ticks": 58390,
            "time": 106.08581067708333,
            "value": 0.7637795275590551
          },
          {
            "number": 7,
            "ticks": 58470,
            "time": 106.23115859375,
            "value": 0.7716535433070866
          },
          {
            "number": 7,
            "ticks": 58510,
            "time": 106.30383255208334,
            "value": 0.7795275590551181
          },
          {
            "number": 7,
            "ticks": 58590,
            "time": 106.44918046875,
            "value": 0.7952755905511811
          },
          {
            "number": 7,
            "ticks": 58630,
            "time": 106.52185442708333,
            "value": 0.8110236220472441
          },
          {
            "number": 7,
            "ticks": 58710,
            "time": 106.66720234375,
            "value": 0.8188976377952756
          },
          {
            "number": 7,
            "ticks": 58750,
            "time": 106.73987630208333,
            "value": 0.8346456692913385
          },
          {
            "number": 7,
            "ticks": 58838,
            "time": 106.89975901041667,
            "value": 0.8503937007874016
          },
          {
            "number": 7,
            "ticks": 58878,
            "time": 106.97243296875,
            "value": 0.8582677165354331
          },
          {
            "number": 7,
            "ticks": 58958,
            "time": 107.11778088541668,
            "value": 0.8740157480314961
          },
          {
            "number": 7,
            "ticks": 59038,
            "time": 107.26312880208333,
            "value": 0.889763779527559
          },
          {
            "number": 7,
            "ticks": 59078,
            "time": 107.33580276041667,
            "value": 0.905511811023622
          },
          {
            "number": 7,
            "ticks": 59158,
            "time": 107.48115067708333,
            "value": 0.9133858267716536
          },
          {
            "number": 7,
            "ticks": 59198,
            "time": 107.55382463541667,
            "value": 0.9212598425196851
          },
          {
            "number": 7,
            "ticks": 59278,
            "time": 107.69917255208333,
            "value": 0.937007874015748
          },
          {
            "number": 7,
            "ticks": 59358,
            "time": 107.84452046875,
            "value": 0.9448818897637795
          },
          {
            "number": 7,
            "ticks": 59398,
            "time": 107.91719442708333,
            "value": 0.952755905511811
          },
          {
            "number": 7,
            "ticks": 59446,
            "time": 108.00440317708333,
            "value": 0.9606299212598425
          },
          {
            "number": 7,
            "ticks": 59902,
            "time": 108.83288630208332,
            "value": 0.7086614173228346
          },
          {
            "number": 7,
            "ticks": 59934,
            "time": 108.89102546875,
            "value": 0.7401574803149606
          },
          {
            "number": 7,
            "ticks": 72222,
            "time": 131.21646546875002,
            "value": 0.7165354330708661
          },
          {
            "number": 7,
            "ticks": 72270,
            "time": 131.30367421875,
            "value": 0.7322834645669292
          },
          {
            "number": 7,
            "ticks": 72310,
            "time": 131.37634817708332,
            "value": 0.7322834645669292
          },
          {
            "number": 7,
            "ticks": 72358,
            "time": 131.46355692708332,
            "value": 0.7480314960629921
          },
          {
            "number": 7,
            "ticks": 72454,
            "time": 131.63797442708332,
            "value": 0.7716535433070866
          },
          {
            "number": 7,
            "ticks": 72502,
            "time": 131.72518317708332,
            "value": 0.7874015748031497
          },
          {
            "number": 7,
            "ticks": 72550,
            "time": 131.81239192708333,
            "value": 0.7952755905511811
          },
          {
            "number": 7,
            "ticks": 72590,
            "time": 131.88506588541668,
            "value": 0.8110236220472441
          },
          {
            "number": 7,
            "ticks": 72638,
            "time": 131.97227463541668,
            "value": 0.8346456692913385
          },
          {
            "number": 7,
            "ticks": 72686,
            "time": 132.05948338541668,
            "value": 0.8503937007874016
          },
          {
            "number": 7,
            "ticks": 72734,
            "time": 132.14669213541669,
            "value": 0.8582677165354331
          },
          {
            "number": 7,
            "ticks": 72782,
            "time": 132.2339008854167,
            "value": 0.8818897637795275
          },
          {
            "number": 7,
            "ticks": 72830,
            "time": 132.3211096354167,
            "value": 0.889763779527559
          },
          {
            "number": 7,
            "ticks": 72870,
            "time": 132.39378359375002,
            "value": 0.9133858267716536
          },
          {
            "number": 7,
            "ticks": 72918,
            "time": 132.48099234375,
            "value": 0.9212598425196851
          },
          {
            "number": 7,
            "ticks": 72966,
            "time": 132.56820109375,
            "value": 0.937007874015748
          },
          {
            "number": 7,
            "ticks": 73014,
            "time": 132.65540984375,
            "value": 0.9448818897637795
          },
          {
            "number": 7,
            "ticks": 73062,
            "time": 132.74261859375,
            "value": 0.9606299212598425
          },
          {
            "number": 7,
            "ticks": 73110,
            "time": 132.82982734375,
            "value": 0.9763779527559056
          },
          {
            "number": 7,
            "ticks": 73150,
            "time": 132.90250130208332,
            "value": 0.984251968503937
          },
          {
            "number": 7,
            "ticks": 73198,
            "time": 132.98971005208332,
            "value": 0.9921259842519685
          },
          {
            "number": 7,
            "ticks": 73246,
            "time": 133.07691880208333,
            "value": 1
          },
          {
            "number": 7,
            "ticks": 73294,
            "time": 133.16412755208333,
            "value": 1
          },
          {
            "number": 7,
            "ticks": 73350,
            "time": 133.26587109375,
            "value": 1
          },
          {
            "number": 7,
            "ticks": 73686,
            "time": 133.87633234375,
            "value": 0.7559055118110236
          },
          {
            "number": 7,
            "ticks": 73750,
            "time": 133.99261067708332,
            "value": 0.7637795275590551
          },
          {
            "number": 7,
            "ticks": 73830,
            "time": 134.13795859375,
            "value": 0.7716535433070866
          },
          {
            "number": 7,
            "ticks": 73870,
            "time": 134.21063255208333,
            "value": 0.7795275590551181
          },
          {
            "number": 7,
            "ticks": 73950,
            "time": 134.35598046875,
            "value": 0.7952755905511811
          },
          {
            "number": 7,
            "ticks": 73990,
            "time": 134.42865442708333,
            "value": 0.8110236220472441
          },
          {
            "number": 7,
            "ticks": 74070,
            "time": 134.57400234375,
            "value": 0.8188976377952756
          },
          {
            "number": 7,
            "ticks": 74110,
            "time": 134.64667630208334,
            "value": 0.8346456692913385
          },
          {
            "number": 7,
            "ticks": 74198,
            "time": 134.80655901041666,
            "value": 0.8503937007874016
          },
          {
            "number": 7,
            "ticks": 74238,
            "time": 134.87923296875,
            "value": 0.8582677165354331
          },
          {
            "number": 7,
            "ticks": 74318,
            "time": 135.02458088541667,
            "value": 0.8740157480314961
          },
          {
            "number": 7,
            "ticks": 74398,
            "time": 135.16992880208332,
            "value": 0.889763779527559
          },
          {
            "number": 7,
            "ticks": 74438,
            "time": 135.24260276041667,
            "value": 0.905511811023622
          },
          {
            "number": 7,
            "ticks": 74518,
            "time": 135.38795067708332,
            "value": 0.9133858267716536
          },
          {
            "number": 7,
            "ticks": 74558,
            "time": 135.46062463541668,
            "value": 0.9212598425196851
          },
          {
            "number": 7,
            "ticks": 74638,
            "time": 135.60597255208333,
            "value": 0.937007874015748
          },
          {
            "number": 7,
            "ticks": 74718,
            "time": 135.75132046875,
            "value": 0.9448818897637795
          },
          {
            "number": 7,
            "ticks": 74758,
            "time": 135.82399442708333,
            "value": 0.952755905511811
          },
          {
            "number": 7,
            "ticks": 74806,
            "time": 135.91120317708334,
            "value": 0.9606299212598425
          },
          {
            "number": 7,
            "ticks": 75262,
            "time": 136.73968630208333,
            "value": 0.7086614173228346
          },
          {
            "number": 7,
            "ticks": 75294,
            "time": 136.79782546875,
            "value": 0.7165354330708661
          },
          {
            "number": 7,
            "ticks": 75342,
            "time": 136.88503421875,
            "value": 0.7322834645669292
          },
          {
            "number": 7,
            "ticks": 75382,
            "time": 136.95770817708333,
            "value": 0.7322834645669292
          },
          {
            "number": 7,
            "ticks": 75430,
            "time": 137.04491692708334,
            "value": 0.7480314960629921
          },
          {
            "number": 7,
            "ticks": 75526,
            "time": 137.21933442708334,
            "value": 0.7716535433070866
          },
          {
            "number": 7,
            "ticks": 75574,
            "time": 137.30654317708334,
            "value": 0.7874015748031497
          },
          {
            "number": 7,
            "ticks": 75622,
            "time": 137.39375192708331,
            "value": 0.7952755905511811
          },
          {
            "number": 7,
            "ticks": 75662,
            "time": 137.46642588541667,
            "value": 0.8110236220472441
          },
          {
            "number": 7,
            "ticks": 75710,
            "time": 137.55363463541667,
            "value": 0.8346456692913385
          },
          {
            "number": 7,
            "ticks": 75758,
            "time": 137.64084338541667,
            "value": 0.8503937007874016
          },
          {
            "number": 7,
            "ticks": 75806,
            "time": 137.72805213541668,
            "value": 0.8582677165354331
          },
          {
            "number": 7,
            "ticks": 75854,
            "time": 137.81526088541668,
            "value": 0.8818897637795275
          },
          {
            "number": 7,
            "ticks": 75902,
            "time": 137.90246963541668,
            "value": 0.889763779527559
          },
          {
            "number": 7,
            "ticks": 75942,
            "time": 137.97514359375,
            "value": 0.9133858267716536
          },
          {
            "number": 7,
            "ticks": 75990,
            "time": 138.06235234375,
            "value": 0.9212598425196851
          },
          {
            "number": 7,
            "ticks": 76038,
            "time": 138.14956109375,
            "value": 0.937007874015748
          },
          {
            "number": 7,
            "ticks": 76086,
            "time": 138.23676984375,
            "value": 0.9448818897637795
          },
          {
            "number": 7,
            "ticks": 76134,
            "time": 138.32397859375,
            "value": 0.9606299212598425
          },
          {
            "number": 7,
            "ticks": 76182,
            "time": 138.41118734375002,
            "value": 0.9763779527559056
          },
          {
            "number": 7,
            "ticks": 76222,
            "time": 138.48386130208334,
            "value": 0.984251968503937
          },
          {
            "number": 7,
            "ticks": 76270,
            "time": 138.57107005208334,
            "value": 0.9921259842519685
          },
          {
            "number": 7,
            "ticks": 76318,
            "time": 138.65827880208332,
            "value": 1
          },
          {
            "number": 7,
            "ticks": 76366,
            "time": 138.74548755208332,
            "value": 1
          },
          {
            "number": 7,
            "ticks": 76422,
            "time": 138.84723109375,
            "value": 1
          },
          {
            "number": 7,
            "ticks": 76784,
            "time": 139.50493041666667,
            "value": 0.7007874015748031
          },
          {
            "number": 7,
            "ticks": 76824,
            "time": 139.577604375,
            "value": 0.7244094488188977
          },
          {
            "number": 7,
            "ticks": 76888,
            "time": 139.69388270833332,
            "value": 0.7401574803149606
          },
          {
            "number": 7,
            "ticks": 76936,
            "time": 139.78109145833332,
            "value": 0.7559055118110236
          },
          {
            "number": 7,
            "ticks": 76984,
            "time": 139.86830020833332,
            "value": 0.7716535433070866
          },
          {
            "number": 7,
            "ticks": 77024,
            "time": 139.94097416666668,
            "value": 0.7874015748031497
          },
          {
            "number": 7,
            "ticks": 77072,
            "time": 140.02818291666668,
            "value": 0.8110236220472441
          },
          {
            "number": 7,
            "ticks": 77120,
            "time": 140.11539166666668,
            "value": 0.8346456692913385
          },
          {
            "number": 7,
            "ticks": 77168,
            "time": 140.20260041666668,
            "value": 0.8503937007874016
          },
          {
            "number": 7,
            "ticks": 77216,
            "time": 140.28980916666669,
            "value": 0.8740157480314961
          },
          {
            "number": 7,
            "ticks": 77256,
            "time": 140.362483125,
            "value": 0.889763779527559
          },
          {
            "number": 7,
            "ticks": 77304,
            "time": 140.449691875,
            "value": 0.9133858267716536
          },
          {
            "number": 7,
            "ticks": 77352,
            "time": 140.53690062500002,
            "value": 0.9291338582677166
          },
          {
            "number": 7,
            "ticks": 77400,
            "time": 140.624109375,
            "value": 0.952755905511811
          },
          {
            "number": 7,
            "ticks": 77464,
            "time": 140.74038770833332,
            "value": 0.968503937007874
          },
          {
            "number": 7,
            "ticks": 77512,
            "time": 140.82759645833332,
            "value": 0.984251968503937
          },
          {
            "number": 7,
            "ticks": 77560,
            "time": 140.91480520833332,
            "value": 1
          },
          {
            "number": 7,
            "ticks": 77608,
            "time": 141.00201395833332,
            "value": 1
          },
          {
            "number": 7,
            "ticks": 77648,
            "time": 141.07468791666668,
            "value": 1
          },
          {
            "number": 7,
            "ticks": 78336,
            "time": 142.32468,
            "value": 0.7480314960629921
          },
          {
            "number": 7,
            "ticks": 78384,
            "time": 142.41188875,
            "value": 0.7637795275590551
          },
          {
            "number": 7,
            "ticks": 78432,
            "time": 142.4990975,
            "value": 0.7795275590551181
          },
          {
            "number": 7,
            "ticks": 78472,
            "time": 142.57177145833333,
            "value": 0.7952755905511811
          },
          {
            "number": 7,
            "ticks": 78520,
            "time": 142.65898020833333,
            "value": 0.8188976377952756
          },
          {
            "number": 7,
            "ticks": 78568,
            "time": 142.74618895833333,
            "value": 0.84251968503937
          },
          {
            "number": 7,
            "ticks": 78616,
            "time": 142.83339770833334,
            "value": 0.8582677165354331
          },
          {
            "number": 7,
            "ticks": 78656,
            "time": 142.90607166666666,
            "value": 0.8818897637795275
          },
          {
            "number": 7,
            "ticks": 78704,
            "time": 142.99328041666666,
            "value": 0.905511811023622
          },
          {
            "number": 7,
            "ticks": 78752,
            "time": 143.08048916666667,
            "value": 0.9212598425196851
          },
          {
            "number": 7,
            "ticks": 78800,
            "time": 143.16769791666667,
            "value": 0.937007874015748
          },
          {
            "number": 7,
            "ticks": 78840,
            "time": 143.240371875,
            "value": 0.952755905511811
          },
          {
            "number": 7,
            "ticks": 78888,
            "time": 143.327580625,
            "value": 0.968503937007874
          },
          {
            "number": 7,
            "ticks": 78936,
            "time": 143.414789375,
            "value": 0.984251968503937
          },
          {
            "number": 7,
            "ticks": 78984,
            "time": 143.501998125,
            "value": 1
          },
          {
            "number": 7,
            "ticks": 79032,
            "time": 143.589206875,
            "value": 1
          },
          {
            "number": 7,
            "ticks": 79072,
            "time": 143.66188083333333,
            "value": 1
          },
          {
            "number": 7,
            "ticks": 79856,
            "time": 145.08629041666669,
            "value": 0.7165354330708661
          },
          {
            "number": 7,
            "ticks": 89046,
            "time": 161.78313234375,
            "value": 0.7559055118110236
          },
          {
            "number": 7,
            "ticks": 89110,
            "time": 161.89941067708332,
            "value": 0.7637795275590551
          },
          {
            "number": 7,
            "ticks": 89190,
            "time": 162.04475859375,
            "value": 0.7716535433070866
          },
          {
            "number": 7,
            "ticks": 89230,
            "time": 162.11743255208333,
            "value": 0.7795275590551181
          },
          {
            "number": 7,
            "ticks": 89310,
            "time": 162.26278046875,
            "value": 0.7952755905511811
          },
          {
            "number": 7,
            "ticks": 89350,
            "time": 162.33545442708333,
            "value": 0.8110236220472441
          },
          {
            "number": 7,
            "ticks": 89430,
            "time": 162.48080234375,
            "value": 0.8188976377952756
          },
          {
            "number": 7,
            "ticks": 89470,
            "time": 162.55347630208334,
            "value": 0.8346456692913385
          },
          {
            "number": 7,
            "ticks": 89558,
            "time": 162.71335901041667,
            "value": 0.8503937007874016
          },
          {
            "number": 7,
            "ticks": 89598,
            "time": 162.78603296875,
            "value": 0.8582677165354331
          },
          {
            "number": 7,
            "ticks": 89678,
            "time": 162.93138088541667,
            "value": 0.8740157480314961
          },
          {
            "number": 7,
            "ticks": 89758,
            "time": 163.07672880208332,
            "value": 0.889763779527559
          },
          {
            "number": 7,
            "ticks": 89798,
            "time": 163.14940276041668,
            "value": 0.905511811023622
          },
          {
            "number": 7,
            "ticks": 89878,
            "time": 163.29475067708333,
            "value": 0.9133858267716536
          },
          {
            "number": 7,
            "ticks": 89918,
            "time": 163.36742463541668,
            "value": 0.9212598425196851
          },
          {
            "number": 7,
            "ticks": 89998,
            "time": 163.51277255208333,
            "value": 0.937007874015748
          },
          {
            "number": 7,
            "ticks": 90078,
            "time": 163.65812046875,
            "value": 0.9448818897637795
          },
          {
            "number": 7,
            "ticks": 90118,
            "time": 163.73079442708334,
            "value": 0.952755905511811
          },
          {
            "number": 7,
            "ticks": 90166,
            "time": 163.81800317708334,
            "value": 0.9606299212598425
          },
          {
            "number": 7,
            "ticks": 90622,
            "time": 164.64648630208333,
            "value": 0.7086614173228346
          },
          {
            "number": 7,
            "ticks": 90654,
            "time": 164.70462546875,
            "value": 0.7401574803149606
          },
          {
            "number": 7,
            "ticks": 92118,
            "time": 167.36449234375002,
            "value": 0.7559055118110236
          },
          {
            "number": 7,
            "ticks": 95190,
            "time": 172.94585234375,
            "value": 0.7559055118110236
          },
          {
            "number": 7,
            "ticks": 95254,
            "time": 173.06213067708333,
            "value": 0.7637795275590551
          },
          {
            "number": 7,
            "ticks": 95334,
            "time": 173.20747859375,
            "value": 0.7716535433070866
          },
          {
            "number": 7,
            "ticks": 95374,
            "time": 173.28015255208334,
            "value": 0.7795275590551181
          },
          {
            "number": 7,
            "ticks": 95454,
            "time": 173.42550046875002,
            "value": 0.7952755905511811
          },
          {
            "number": 7,
            "ticks": 95494,
            "time": 173.49817442708334,
            "value": 0.8110236220472441
          },
          {
            "number": 7,
            "ticks": 95574,
            "time": 173.64352234375,
            "value": 0.8188976377952756
          },
          {
            "number": 7,
            "ticks": 95614,
            "time": 173.71619630208332,
            "value": 0.8346456692913385
          },
          {
            "number": 7,
            "ticks": 95702,
            "time": 173.87607901041667,
            "value": 0.8503937007874016
          },
          {
            "number": 7,
            "ticks": 95742,
            "time": 173.94875296875,
            "value": 0.8582677165354331
          },
          {
            "number": 7,
            "ticks": 95822,
            "time": 174.09410088541668,
            "value": 0.8740157480314961
          },
          {
            "number": 7,
            "ticks": 95902,
            "time": 174.23944880208333,
            "value": 0.889763779527559
          },
          {
            "number": 7,
            "ticks": 95942,
            "time": 174.31212276041668,
            "value": 0.905511811023622
          },
          {
            "number": 7,
            "ticks": 96022,
            "time": 174.45747067708334,
            "value": 0.9133858267716536
          },
          {
            "number": 7,
            "ticks": 96062,
            "time": 174.5301446354167,
            "value": 0.9212598425196851
          },
          {
            "number": 7,
            "ticks": 96142,
            "time": 174.67549255208334,
            "value": 0.937007874015748
          },
          {
            "number": 7,
            "ticks": 96222,
            "time": 174.82084046875,
            "value": 0.9448818897637795
          },
          {
            "number": 7,
            "ticks": 96262,
            "time": 174.89351442708332,
            "value": 0.952755905511811
          },
          {
            "number": 7,
            "ticks": 96310,
            "time": 174.98072317708332,
            "value": 0.9606299212598425
          },
          {
            "number": 7,
            "ticks": 96766,
            "time": 175.80920630208334,
            "value": 0.7086614173228346
          },
          {
            "number": 7,
            "ticks": 96798,
            "time": 175.86734546875002,
            "value": 0.7401574803149606
          },
          {
            "number": 7,
            "ticks": 98262,
            "time": 178.52721234375,
            "value": 0.7559055118110236
          },
          {
            "number": 7,
            "ticks": 98326,
            "time": 178.64349067708335,
            "value": 0.7637795275590551
          },
          {
            "number": 7,
            "ticks": 98406,
            "time": 178.78883859375,
            "value": 0.7716535433070866
          },
          {
            "number": 7,
            "ticks": 98446,
            "time": 178.86151255208335,
            "value": 0.7795275590551181
          },
          {
            "number": 7,
            "ticks": 98526,
            "time": 179.00686046875,
            "value": 0.7952755905511811
          },
          {
            "number": 7,
            "ticks": 98566,
            "time": 179.07953442708336,
            "value": 0.8110236220472441
          },
          {
            "number": 7,
            "ticks": 98646,
            "time": 179.22488234375,
            "value": 0.8188976377952756
          },
          {
            "number": 7,
            "ticks": 98686,
            "time": 179.29755630208334,
            "value": 0.8346456692913385
          },
          {
            "number": 7,
            "ticks": 98774,
            "time": 179.45743901041666,
            "value": 0.8503937007874016
          },
          {
            "number": 7,
            "ticks": 98814,
            "time": 179.53011296875,
            "value": 0.8582677165354331
          },
          {
            "number": 7,
            "ticks": 98894,
            "time": 179.67546088541667,
            "value": 0.8740157480314961
          },
          {
            "number": 7,
            "ticks": 98974,
            "time": 179.82080880208335,
            "value": 0.889763779527559
          },
          {
            "number": 7,
            "ticks": 99014,
            "time": 179.89348276041665,
            "value": 0.905511811023622
          },
          {
            "number": 7,
            "ticks": 99094,
            "time": 180.03883067708335,
            "value": 0.9133858267716536
          },
          {
            "number": 7,
            "ticks": 99134,
            "time": 180.11150463541665,
            "value": 0.9212598425196851
          },
          {
            "number": 7,
            "ticks": 99214,
            "time": 180.25685255208336,
            "value": 0.937007874015748
          },
          {
            "number": 7,
            "ticks": 99294,
            "time": 180.40220046875,
            "value": 0.9448818897637795
          },
          {
            "number": 7,
            "ticks": 99334,
            "time": 180.47487442708334,
            "value": 0.952755905511811
          },
          {
            "number": 7,
            "ticks": 99382,
            "time": 180.56208317708334,
            "value": 0.9606299212598425
          },
          {
            "number": 7,
            "ticks": 99838,
            "time": 181.39056630208336,
            "value": 0.7086614173228346
          },
          {
            "number": 7,
            "ticks": 99870,
            "time": 181.44870546875,
            "value": 0.7401574803149606
          }
        ],
        "120": [
          {
            "number": 120,
            "ticks": 107304,
            "time": 194.955160625,
            "value": 0
          }
        ],
        "123": [
          {
            "number": 123,
            "ticks": 107376,
            "time": 195.08597375,
            "value": 0
          }
        ]
      },
      "pitchBends": [],
      "instrument": {
        "family": "organ",
        "name": "tango accordion",
        "number": 23
      },
      "name": "",
      "notes": [
        {
          "duration": 2.1584165624999976,
          "durationTicks": 1188,
          "midi": 79,
          "name": "G5",
          "ticks": 14960,
          "time": 27.18006041666667,
          "velocity": 0.5433070866141733
        },
        {
          "duration": 0.7049373958333298,
          "durationTicks": 388,
          "midi": 75,
          "name": "D#5",
          "ticks": 14964,
          "time": 27.1873278125,
          "velocity": 0.4015748031496063
        },
        {
          "duration": 0.3706371874999981,
          "durationTicks": 204,
          "midi": 74,
          "name": "D5",
          "ticks": 15356,
          "time": 27.89953260416667,
          "velocity": 0.3858267716535433
        },
        {
          "duration": 0.9374940625000008,
          "durationTicks": 516,
          "midi": 74,
          "name": "D5",
          "ticks": 18420,
          "time": 33.4663578125,
          "velocity": 0.4094488188976378
        },
        {
          "duration": 1.6060944791666714,
          "durationTicks": 884,
          "midi": 79,
          "name": "G5",
          "ticks": 18420,
          "time": 33.4663578125,
          "velocity": 0.5039370078740157
        },
        {
          "duration": 0.15988270833332763,
          "durationTicks": 88,
          "midi": 67,
          "name": "G4",
          "ticks": 30064,
          "time": 54.62174708333334,
          "velocity": 0.6850393700787402
        },
        {
          "duration": 0.27979473958333045,
          "durationTicks": 154,
          "midi": 74,
          "name": "D5",
          "ticks": 30152,
          "time": 54.78162979166667,
          "velocity": 0.7165354330708661
        },
        {
          "duration": 0.3633697916666634,
          "durationTicks": 200,
          "midi": 70,
          "name": "A#4",
          "ticks": 30336,
          "time": 55.11593,
          "velocity": 0.7480314960629921
        },
        {
          "duration": 0.3270328125000006,
          "durationTicks": 180,
          "midi": 69,
          "name": "A4",
          "ticks": 30536,
          "time": 55.47929979166666,
          "velocity": 0.6850393700787402
        },
        {
          "duration": 5.5813599999999965,
          "durationTicks": 3072,
          "midi": 79,
          "name": "G5",
          "ticks": 30712,
          "time": 55.79906520833334,
          "velocity": 0.3700787401574803
        },
        {
          "duration": 5.5777263020833345,
          "durationTicks": 3070,
          "midi": 67,
          "name": "G4",
          "ticks": 30720,
          "time": 55.8136,
          "velocity": 0.6850393700787402
        },
        {
          "duration": 5.479616458333339,
          "durationTicks": 3016,
          "midi": 55,
          "name": "G3",
          "ticks": 30722,
          "time": 55.81723369791666,
          "velocity": 0.5118110236220472
        },
        {
          "duration": 5.505052343750002,
          "durationTicks": 3030,
          "midi": 58,
          "name": "A#3",
          "ticks": 30722,
          "time": 55.81723369791666,
          "velocity": 0.49606299212598426
        },
        {
          "duration": 5.49051755208334,
          "durationTicks": 3022,
          "midi": 62,
          "name": "D4",
          "ticks": 30722,
          "time": 55.81723369791666,
          "velocity": 0.5039370078740157
        },
        {
          "duration": 2.881522447916659,
          "durationTicks": 1586,
          "midi": 77,
          "name": "F5",
          "ticks": 33780,
          "time": 61.373157812500004,
          "velocity": 0.5118110236220472
        },
        {
          "duration": 2.783412604166678,
          "durationTicks": 1532,
          "midi": 53,
          "name": "F3",
          "ticks": 33788,
          "time": 61.387692604166666,
          "velocity": 0.5669291338582677
        },
        {
          "duration": 2.79794739583334,
          "durationTicks": 1540,
          "midi": 57,
          "name": "A3",
          "ticks": 33788,
          "time": 61.387692604166666,
          "velocity": 0.5511811023622047
        },
        {
          "duration": 2.783412604166678,
          "durationTicks": 1532,
          "midi": 60,
          "name": "C4",
          "ticks": 33788,
          "time": 61.387692604166666,
          "velocity": 0.5590551181102362
        },
        {
          "duration": 2.78704630208334,
          "durationTicks": 1534,
          "midi": 65,
          "name": "F4",
          "ticks": 33794,
          "time": 61.39859369791667,
          "velocity": 0.6456692913385826
        },
        {
          "duration": 1.373537812500004,
          "durationTicks": 756,
          "midi": 72,
          "name": "C5",
          "ticks": 34560,
          "time": 62.7903,
          "velocity": 0.49606299212598426
        },
        {
          "duration": 1.3262997395833338,
          "durationTicks": 730,
          "midi": 69,
          "name": "A4",
          "ticks": 34568,
          "time": 62.804834791666664,
          "velocity": 0.3858267716535433
        },
        {
          "duration": 2.0857426041666685,
          "durationTicks": 1148,
          "midi": 66,
          "name": "F#4",
          "ticks": 35324,
          "time": 64.17837260416667,
          "velocity": 0.5590551181102362
        },
        {
          "duration": 2.6416983854166602,
          "durationTicks": 1454,
          "midi": 78,
          "name": "F#5",
          "ticks": 35326,
          "time": 64.18200630208334,
          "velocity": 0.5039370078740157
        },
        {
          "duration": 2.7398082291666555,
          "durationTicks": 1508,
          "midi": 62,
          "name": "D4",
          "ticks": 35328,
          "time": 64.18564,
          "velocity": 0.5511811023622047
        },
        {
          "duration": 2.1002773958333307,
          "durationTicks": 1156,
          "midi": 72,
          "name": "C5",
          "ticks": 35328,
          "time": 64.18564,
          "velocity": 0.6141732283464567
        },
        {
          "duration": 2.096643697916676,
          "durationTicks": 1154,
          "midi": 69,
          "name": "A4",
          "ticks": 35336,
          "time": 64.20017479166667,
          "velocity": 0.5039370078740157
        },
        {
          "duration": 0.3197654166666837,
          "durationTicks": 176,
          "midi": 70,
          "name": "A#4",
          "ticks": 36476,
          "time": 66.27138260416666,
          "velocity": 0.4330708661417323
        },
        {
          "duration": 0.29796322916665474,
          "durationTicks": 164,
          "midi": 69,
          "name": "A4",
          "ticks": 36672,
          "time": 66.62748500000001,
          "velocity": 0.5039370078740157
        },
        {
          "duration": 5.581360000000004,
          "durationTicks": 3072,
          "midi": 79,
          "name": "G5",
          "ticks": 36856,
          "time": 66.96178520833334,
          "velocity": 0.4094488188976378
        },
        {
          "duration": 5.5777263020833345,
          "durationTicks": 3070,
          "midi": 67,
          "name": "G4",
          "ticks": 36864,
          "time": 66.97632,
          "velocity": 0.6141732283464567
        },
        {
          "duration": 5.479616458333325,
          "durationTicks": 3016,
          "midi": 55,
          "name": "G3",
          "ticks": 36866,
          "time": 66.97995369791667,
          "velocity": 0.5511811023622047
        },
        {
          "duration": 5.505052343749995,
          "durationTicks": 3030,
          "midi": 58,
          "name": "A#3",
          "ticks": 36866,
          "time": 66.97995369791667,
          "velocity": 0.5354330708661418
        },
        {
          "duration": 5.4905175520833325,
          "durationTicks": 3022,
          "midi": 62,
          "name": "D4",
          "ticks": 36866,
          "time": 66.97995369791667,
          "velocity": 0.5433070866141733
        },
        {
          "duration": 2.881522447916666,
          "durationTicks": 1586,
          "midi": 77,
          "name": "F5",
          "ticks": 39924,
          "time": 72.5358778125,
          "velocity": 0.5118110236220472
        },
        {
          "duration": 2.7834126041666707,
          "durationTicks": 1532,
          "midi": 53,
          "name": "F3",
          "ticks": 39932,
          "time": 72.55041260416667,
          "velocity": 0.5669291338582677
        },
        {
          "duration": 2.797947395833333,
          "durationTicks": 1540,
          "midi": 57,
          "name": "A3",
          "ticks": 39932,
          "time": 72.55041260416667,
          "velocity": 0.5511811023622047
        },
        {
          "duration": 2.7834126041666707,
          "durationTicks": 1532,
          "midi": 60,
          "name": "C4",
          "ticks": 39932,
          "time": 72.55041260416667,
          "velocity": 0.5590551181102362
        },
        {
          "duration": 2.78704630208334,
          "durationTicks": 1534,
          "midi": 65,
          "name": "F4",
          "ticks": 39938,
          "time": 72.56131369791666,
          "velocity": 0.6456692913385826
        },
        {
          "duration": 2.754343020833332,
          "durationTicks": 1516,
          "midi": 79,
          "name": "G5",
          "ticks": 41464,
          "time": 75.33382520833334,
          "velocity": 0.3700787401574803
        },
        {
          "duration": 2.7543430208333177,
          "durationTicks": 1516,
          "midi": 67,
          "name": "G4",
          "ticks": 41470,
          "time": 75.34472630208334,
          "velocity": 0.5748031496062992
        },
        {
          "duration": 2.7252734375000074,
          "durationTicks": 1500,
          "midi": 58,
          "name": "A#3",
          "ticks": 41472,
          "time": 75.34836,
          "velocity": 0.49606299212598426
        },
        {
          "duration": 2.7398082291666697,
          "durationTicks": 1508,
          "midi": 62,
          "name": "D4",
          "ticks": 41472,
          "time": 75.34836,
          "velocity": 0.5039370078740157
        },
        {
          "duration": 2.7216397395833383,
          "durationTicks": 1498,
          "midi": 55,
          "name": "G3",
          "ticks": 41474,
          "time": 75.35199369791667,
          "velocity": 0.5118110236220472
        },
        {
          "duration": 2.4491123958333247,
          "durationTicks": 1348,
          "midi": 77,
          "name": "F5",
          "ticks": 42996,
          "time": 78.11723781250001,
          "velocity": 0.5118110236220472
        },
        {
          "duration": 2.4200428125,
          "durationTicks": 1332,
          "midi": 53,
          "name": "F3",
          "ticks": 43004,
          "time": 78.13177260416667,
          "velocity": 0.5669291338582677
        },
        {
          "duration": 2.376438437499999,
          "durationTicks": 1308,
          "midi": 57,
          "name": "A3",
          "ticks": 43004,
          "time": 78.13177260416667,
          "velocity": 0.5511811023622047
        },
        {
          "duration": 2.376438437499999,
          "durationTicks": 1308,
          "midi": 60,
          "name": "C4",
          "ticks": 43004,
          "time": 78.13177260416667,
          "velocity": 0.5590551181102362
        },
        {
          "duration": 2.361903645833337,
          "durationTicks": 1300,
          "midi": 65,
          "name": "F4",
          "ticks": 43010,
          "time": 78.14267369791666,
          "velocity": 0.6692913385826772
        },
        {
          "duration": 0.995633229166657,
          "durationTicks": 548,
          "midi": 69,
          "name": "A4",
          "ticks": 43774,
          "time": 79.53074630208334,
          "velocity": 0.6377952755905512
        },
        {
          "duration": 0.3233991145833386,
          "durationTicks": 178,
          "midi": 60,
          "name": "C4",
          "ticks": 44354,
          "time": 80.58451869791666,
          "velocity": 0.7007874015748031
        },
        {
          "duration": 0.3233991145833386,
          "durationTicks": 178,
          "midi": 65,
          "name": "F4",
          "ticks": 44354,
          "time": 80.58451869791666,
          "velocity": 0.7007874015748031
        },
        {
          "duration": 2.071207812500006,
          "durationTicks": 1140,
          "midi": 69,
          "name": "A4",
          "ticks": 44538,
          "time": 80.91881890625,
          "velocity": 0.6377952755905512
        },
        {
          "duration": 2.725273437499993,
          "durationTicks": 1500,
          "midi": 57,
          "name": "A3",
          "ticks": 44544,
          "time": 80.92972,
          "velocity": 0.49606299212598426
        },
        {
          "duration": 2.7398082291666555,
          "durationTicks": 1508,
          "midi": 62,
          "name": "D4",
          "ticks": 44544,
          "time": 80.92972,
          "velocity": 0.5039370078740157
        },
        {
          "duration": 2.754343020833332,
          "durationTicks": 1516,
          "midi": 66,
          "name": "F#4",
          "ticks": 44544,
          "time": 80.92972,
          "velocity": 0.5748031496062992
        },
        {
          "duration": 0.6940363020833331,
          "durationTicks": 382,
          "midi": 72,
          "name": "C5",
          "ticks": 45316,
          "time": 82.33232739583333,
          "velocity": 0.5590551181102362
        },
        {
          "duration": 0.34156760416667,
          "durationTicks": 188,
          "midi": 70,
          "name": "A#4",
          "ticks": 45692,
          "time": 83.01546260416667,
          "velocity": 0.5905511811023622
        },
        {
          "duration": 0.25799255208333705,
          "durationTicks": 142,
          "midi": 69,
          "name": "A4",
          "ticks": 45882,
          "time": 83.36066390625,
          "velocity": 0.5748031496062992
        },
        {
          "duration": 2.4200428125,
          "durationTicks": 1332,
          "midi": 67,
          "name": "G4",
          "ticks": 46076,
          "time": 83.71313260416666,
          "velocity": 0.5590551181102362
        },
        {
          "duration": 2.0857426041666827,
          "durationTicks": 1148,
          "midi": 74,
          "name": "D5",
          "ticks": 46076,
          "time": 83.71313260416666,
          "velocity": 0.6535433070866141
        },
        {
          "duration": 2.7107386458333167,
          "durationTicks": 1492,
          "midi": 70,
          "name": "A#4",
          "ticks": 46078,
          "time": 83.71676630208334,
          "velocity": 0.5905511811023622
        },
        {
          "duration": 2.754343020833346,
          "durationTicks": 1516,
          "midi": 62,
          "name": "D4",
          "ticks": 46080,
          "time": 83.7204,
          "velocity": 0.5511811023622047
        },
        {
          "duration": 0.4215089583333338,
          "durationTicks": 232,
          "midi": 79,
          "name": "G5",
          "ticks": 47226,
          "time": 85.80250890625,
          "velocity": 0.7007874015748031
        },
        {
          "duration": 0.3124980208333312,
          "durationTicks": 172,
          "midi": 67,
          "name": "G4",
          "ticks": 47426,
          "time": 86.16587869791667,
          "velocity": 0.6220472440944882
        },
        {
          "duration": 1.678768437499997,
          "durationTicks": 924,
          "midi": 72,
          "name": "C5",
          "ticks": 47614,
          "time": 86.50744630208334,
          "velocity": 0.7007874015748031
        },
        {
          "duration": 2.4200428125,
          "durationTicks": 1332,
          "midi": 67,
          "name": "G4",
          "ticks": 47616,
          "time": 86.51108,
          "velocity": 0.5590551181102362
        },
        {
          "duration": 2.7543430208333177,
          "durationTicks": 1516,
          "midi": 64,
          "name": "E4",
          "ticks": 47620,
          "time": 86.51834739583335,
          "velocity": 0.5511811023622047
        },
        {
          "duration": 0.1562490104166585,
          "durationTicks": 86,
          "midi": 72,
          "name": "C5",
          "ticks": 48574,
          "time": 88.25162130208334,
          "velocity": 0.6141732283464567
        },
        {
          "duration": 0.16351640624999675,
          "durationTicks": 90,
          "midi": 74,
          "name": "D5",
          "ticks": 48670,
          "time": 88.42603880208334,
          "velocity": 0.6535433070866141
        },
        {
          "duration": 0.34156760416667,
          "durationTicks": 188,
          "midi": 75,
          "name": "D#5",
          "ticks": 48770,
          "time": 88.60772369791667,
          "velocity": 0.6692913385826772
        },
        {
          "duration": 0.1925859895833355,
          "durationTicks": 106,
          "midi": 74,
          "name": "D5",
          "ticks": 48962,
          "time": 88.95655869791666,
          "velocity": 0.7007874015748031
        },
        {
          "duration": 0.170783802083335,
          "durationTicks": 94,
          "midi": 72,
          "name": "C5",
          "ticks": 49050,
          "time": 89.11644140625,
          "velocity": 0.5826771653543307
        },
        {
          "duration": 2.754343020833332,
          "durationTicks": 1516,
          "midi": 75,
          "name": "D#5",
          "ticks": 49152,
          "time": 89.30176,
          "velocity": 0.7480314960629921
        },
        {
          "duration": 2.7398082291666555,
          "durationTicks": 1508,
          "midi": 67,
          "name": "G4",
          "ticks": 49154,
          "time": 89.30539369791667,
          "velocity": 0.6456692913385826
        },
        {
          "duration": 2.754343020833332,
          "durationTicks": 1516,
          "midi": 63,
          "name": "D#4",
          "ticks": 49158,
          "time": 89.31266109375,
          "velocity": 0.6377952755905512
        },
        {
          "duration": 2.071207812500006,
          "durationTicks": 1140,
          "midi": 67,
          "name": "G4",
          "ticks": 50688,
          "time": 92.09244,
          "velocity": 0.6141732283464567
        },
        {
          "duration": 1.7078380208333357,
          "durationTicks": 940,
          "midi": 74,
          "name": "D5",
          "ticks": 50688,
          "time": 92.09244,
          "velocity": 0.7165354330708661
        },
        {
          "duration": 2.056673020833344,
          "durationTicks": 1132,
          "midi": 62,
          "name": "D4",
          "ticks": 50692,
          "time": 92.09970739583333,
          "velocity": 0.6062992125984252
        },
        {
          "duration": 0.3997067708333475,
          "durationTicks": 220,
          "midi": 79,
          "name": "G5",
          "ticks": 51646,
          "time": 93.83298130208333,
          "velocity": 0.8188976377952756
        },
        {
          "duration": 0.3124980208333312,
          "durationTicks": 172,
          "midi": 62,
          "name": "D4",
          "ticks": 51840,
          "time": 94.18545,
          "velocity": 0.8188976377952756
        },
        {
          "duration": 0.6467982291666772,
          "durationTicks": 356,
          "midi": 67,
          "name": "G4",
          "ticks": 51844,
          "time": 94.19271739583333,
          "velocity": 0.8346456692913385
        },
        {
          "duration": 0.35973609374998716,
          "durationTicks": 198,
          "midi": 74,
          "name": "D5",
          "ticks": 52036,
          "time": 94.54155239583334,
          "velocity": 0.7637795275590551
        },
        {
          "duration": 2.7398082291666412,
          "durationTicks": 1508,
          "midi": 64,
          "name": "E4",
          "ticks": 52220,
          "time": 94.87585260416668,
          "velocity": 0.6062992125984252
        },
        {
          "duration": 1.7078380208333215,
          "durationTicks": 940,
          "midi": 69,
          "name": "A4",
          "ticks": 52224,
          "time": 94.88312,
          "velocity": 0.6141732283464567
        },
        {
          "duration": 1.718739114583343,
          "durationTicks": 946,
          "midi": 73,
          "name": "C#5",
          "ticks": 52228,
          "time": 94.89038739583333,
          "velocity": 0.5984251968503937
        },
        {
          "duration": 0.377904583333347,
          "durationTicks": 208,
          "midi": 69,
          "name": "A4",
          "ticks": 53182,
          "time": 96.62366130208333,
          "velocity": 0.7559055118110236
        },
        {
          "duration": 0.305230624999993,
          "durationTicks": 168,
          "midi": 76,
          "name": "E5",
          "ticks": 53374,
          "time": 96.97249630208333,
          "velocity": 0.7401574803149606
        },
        {
          "duration": 0.3706371874999945,
          "durationTicks": 204,
          "midi": 79,
          "name": "G5",
          "ticks": 53560,
          "time": 97.31043020833333,
          "velocity": 0.7716535433070866
        },
        {
          "duration": 2.2601601041666584,
          "durationTicks": 1244,
          "midi": 78,
          "name": "F#5",
          "ticks": 53756,
          "time": 97.66653260416668,
          "velocity": 0.7244094488188977
        },
        {
          "duration": 2.2601601041666726,
          "durationTicks": 1244,
          "midi": 74,
          "name": "D5",
          "ticks": 53760,
          "time": 97.6738,
          "velocity": 0.48031496062992124
        },
        {
          "duration": 5.581359999999989,
          "durationTicks": 3072,
          "midi": 79,
          "name": "G5",
          "ticks": 55288,
          "time": 100.44994520833333,
          "velocity": 0.3700787401574803
        },
        {
          "duration": 5.57772630208332,
          "durationTicks": 3070,
          "midi": 67,
          "name": "G4",
          "ticks": 55296,
          "time": 100.46448000000001,
          "velocity": 0.6850393700787402
        },
        {
          "duration": 5.479616458333325,
          "durationTicks": 3016,
          "midi": 55,
          "name": "G3",
          "ticks": 55298,
          "time": 100.46811369791668,
          "velocity": 0.5118110236220472
        },
        {
          "duration": 5.505052343749995,
          "durationTicks": 3030,
          "midi": 58,
          "name": "A#3",
          "ticks": 55298,
          "time": 100.46811369791668,
          "velocity": 0.49606299212598426
        },
        {
          "duration": 5.490517552083318,
          "durationTicks": 3022,
          "midi": 62,
          "name": "D4",
          "ticks": 55298,
          "time": 100.46811369791668,
          "velocity": 0.5039370078740157
        },
        {
          "duration": 1.417142187500005,
          "durationTicks": 780,
          "midi": 77,
          "name": "F5",
          "ticks": 58356,
          "time": 106.0240378125,
          "velocity": 0.5118110236220472
        },
        {
          "duration": 1.388072604166652,
          "durationTicks": 764,
          "midi": 53,
          "name": "F3",
          "ticks": 58364,
          "time": 106.03857260416667,
          "velocity": 0.5669291338582677
        },
        {
          "duration": 2.797947395833333,
          "durationTicks": 1540,
          "midi": 57,
          "name": "A3",
          "ticks": 58364,
          "time": 106.03857260416667,
          "velocity": 0.5511811023622047
        },
        {
          "duration": 2.7834126041666565,
          "durationTicks": 1532,
          "midi": 60,
          "name": "C4",
          "ticks": 58364,
          "time": 106.03857260416667,
          "velocity": 0.5590551181102362
        },
        {
          "duration": 1.3735378124999897,
          "durationTicks": 756,
          "midi": 65,
          "name": "F4",
          "ticks": 58370,
          "time": 106.04947369791668,
          "velocity": 0.6456692913385826
        },
        {
          "duration": 1.3590030208333275,
          "durationTicks": 748,
          "midi": 66,
          "name": "F#4",
          "ticks": 59130,
          "time": 107.43027890625,
          "velocity": 0.41732283464566927
        },
        {
          "duration": 1.373537812500004,
          "durationTicks": 756,
          "midi": 72,
          "name": "C5",
          "ticks": 59136,
          "time": 107.44118,
          "velocity": 0.5275590551181102
        },
        {
          "duration": 1.3590030208333275,
          "durationTicks": 748,
          "midi": 78,
          "name": "F#5",
          "ticks": 59136,
          "time": 107.44118,
          "velocity": 0.49606299212598426
        },
        {
          "duration": 2.4636471875000012,
          "durationTicks": 1356,
          "midi": 79,
          "name": "G5",
          "ticks": 59896,
          "time": 108.82198520833333,
          "velocity": 0.3700787401574803
        },
        {
          "duration": 2.4200428125,
          "durationTicks": 1332,
          "midi": 67,
          "name": "G4",
          "ticks": 59904,
          "time": 108.83652000000001,
          "velocity": 0.6850393700787402
        },
        {
          "duration": 2.4200428125,
          "durationTicks": 1332,
          "midi": 55,
          "name": "G3",
          "ticks": 59906,
          "time": 108.84015369791668,
          "velocity": 0.5118110236220472
        },
        {
          "duration": 2.4200428125,
          "durationTicks": 1332,
          "midi": 58,
          "name": "A#3",
          "ticks": 59906,
          "time": 108.84015369791668,
          "velocity": 0.49606299212598426
        },
        {
          "duration": 2.4200428125,
          "durationTicks": 1332,
          "midi": 62,
          "name": "D4",
          "ticks": 59906,
          "time": 108.84015369791668,
          "velocity": 0.5039370078740157
        },
        {
          "duration": 2.7252734375000216,
          "durationTicks": 1500,
          "midi": 58,
          "name": "A#3",
          "ticks": 72192,
          "time": 131.16196,
          "velocity": 0.49606299212598426
        },
        {
          "duration": 2.7398082291666697,
          "durationTicks": 1508,
          "midi": 62,
          "name": "D4",
          "ticks": 72192,
          "time": 131.16196,
          "velocity": 0.5039370078740157
        },
        {
          "duration": 2.7216397395833383,
          "durationTicks": 1498,
          "midi": 55,
          "name": "G3",
          "ticks": 72194,
          "time": 131.16559369791668,
          "velocity": 0.5118110236220472
        },
        {
          "duration": 2.4491123958333105,
          "durationTicks": 1348,
          "midi": 77,
          "name": "F5",
          "ticks": 73716,
          "time": 133.93083781250002,
          "velocity": 0.5118110236220472
        },
        {
          "duration": 2.4200428125000144,
          "durationTicks": 1332,
          "midi": 53,
          "name": "F3",
          "ticks": 73724,
          "time": 133.94537260416666,
          "velocity": 0.5669291338582677
        },
        {
          "duration": 2.3764384375000134,
          "durationTicks": 1308,
          "midi": 57,
          "name": "A3",
          "ticks": 73724,
          "time": 133.94537260416666,
          "velocity": 0.5511811023622047
        },
        {
          "duration": 2.3764384375000134,
          "durationTicks": 1308,
          "midi": 60,
          "name": "C4",
          "ticks": 73724,
          "time": 133.94537260416666,
          "velocity": 0.5590551181102362
        },
        {
          "duration": 2.3619036458333085,
          "durationTicks": 1300,
          "midi": 65,
          "name": "F4",
          "ticks": 73730,
          "time": 133.95627369791669,
          "velocity": 0.6692913385826772
        },
        {
          "duration": 0.9956332291666854,
          "durationTicks": 548,
          "midi": 69,
          "name": "A4",
          "ticks": 74494,
          "time": 135.34434630208332,
          "velocity": 0.6377952755905512
        },
        {
          "duration": 0.32339911458331017,
          "durationTicks": 178,
          "midi": 60,
          "name": "C4",
          "ticks": 75074,
          "time": 136.3981186979167,
          "velocity": 0.7007874015748031
        },
        {
          "duration": 0.32339911458331017,
          "durationTicks": 178,
          "midi": 65,
          "name": "F4",
          "ticks": 75074,
          "time": 136.3981186979167,
          "velocity": 0.7007874015748031
        },
        {
          "duration": 2.071207812500006,
          "durationTicks": 1140,
          "midi": 69,
          "name": "A4",
          "ticks": 75258,
          "time": 136.73241890625,
          "velocity": 0.6377952755905512
        },
        {
          "duration": 2.725273437499993,
          "durationTicks": 1500,
          "midi": 57,
          "name": "A3",
          "ticks": 75264,
          "time": 136.74332,
          "velocity": 0.49606299212598426
        },
        {
          "duration": 2.7398082291666697,
          "durationTicks": 1508,
          "midi": 62,
          "name": "D4",
          "ticks": 75264,
          "time": 136.74332,
          "velocity": 0.5039370078740157
        },
        {
          "duration": 2.7543430208333177,
          "durationTicks": 1516,
          "midi": 66,
          "name": "F#4",
          "ticks": 75264,
          "time": 136.74332,
          "velocity": 0.5748031496062992
        },
        {
          "duration": 0.6940363020833615,
          "durationTicks": 382,
          "midi": 72,
          "name": "C5",
          "ticks": 76036,
          "time": 138.14592739583333,
          "velocity": 0.5590551181102362
        },
        {
          "duration": 0.34156760416667,
          "durationTicks": 188,
          "midi": 70,
          "name": "A#4",
          "ticks": 76412,
          "time": 138.82906260416667,
          "velocity": 0.5905511811023622
        },
        {
          "duration": 0.25799255208335126,
          "durationTicks": 142,
          "midi": 69,
          "name": "A4",
          "ticks": 76602,
          "time": 139.17426390625,
          "velocity": 0.5748031496062992
        },
        {
          "duration": 2.420042812499986,
          "durationTicks": 1332,
          "midi": 67,
          "name": "G4",
          "ticks": 76796,
          "time": 139.52673260416668,
          "velocity": 0.5590551181102362
        },
        {
          "duration": 2.0857426041666542,
          "durationTicks": 1148,
          "midi": 74,
          "name": "D5",
          "ticks": 76796,
          "time": 139.52673260416668,
          "velocity": 0.6535433070866141
        },
        {
          "duration": 2.710738645833345,
          "durationTicks": 1492,
          "midi": 70,
          "name": "A#4",
          "ticks": 76798,
          "time": 139.53036630208334,
          "velocity": 0.5905511811023622
        },
        {
          "duration": 2.754343020833346,
          "durationTicks": 1516,
          "midi": 62,
          "name": "D4",
          "ticks": 76800,
          "time": 139.534,
          "velocity": 0.5511811023622047
        },
        {
          "duration": 0.4215089583333338,
          "durationTicks": 232,
          "midi": 79,
          "name": "G5",
          "ticks": 77946,
          "time": 141.61610890625,
          "velocity": 0.7007874015748031
        },
        {
          "duration": 0.312498020833317,
          "durationTicks": 172,
          "midi": 67,
          "name": "G4",
          "ticks": 78146,
          "time": 141.97947869791668,
          "velocity": 0.6220472440944882
        },
        {
          "duration": 1.6787684375000254,
          "durationTicks": 924,
          "midi": 72,
          "name": "C5",
          "ticks": 78334,
          "time": 142.32104630208332,
          "velocity": 0.7007874015748031
        },
        {
          "duration": 2.4200428125000144,
          "durationTicks": 1332,
          "midi": 67,
          "name": "G4",
          "ticks": 78336,
          "time": 142.32468,
          "velocity": 0.5590551181102362
        },
        {
          "duration": 2.754343020833346,
          "durationTicks": 1516,
          "midi": 64,
          "name": "E4",
          "ticks": 78340,
          "time": 142.33194739583334,
          "velocity": 0.5511811023622047
        },
        {
          "duration": 0.15624901041667272,
          "durationTicks": 86,
          "midi": 72,
          "name": "C5",
          "ticks": 79294,
          "time": 144.06522130208333,
          "velocity": 0.6141732283464567
        },
        {
          "duration": 0.16351640624998254,
          "durationTicks": 90,
          "midi": 74,
          "name": "D5",
          "ticks": 79390,
          "time": 144.23963880208333,
          "velocity": 0.6535433070866141
        },
        {
          "duration": 0.34156760416664156,
          "durationTicks": 188,
          "midi": 75,
          "name": "D#5",
          "ticks": 79490,
          "time": 144.42132369791668,
          "velocity": 0.6692913385826772
        },
        {
          "duration": 0.19258598958330708,
          "durationTicks": 106,
          "midi": 74,
          "name": "D5",
          "ticks": 79682,
          "time": 144.77015869791668,
          "velocity": 0.7007874015748031
        },
        {
          "duration": 0.17078380208332078,
          "durationTicks": 94,
          "midi": 72,
          "name": "C5",
          "ticks": 79770,
          "time": 144.93004140625,
          "velocity": 0.5826771653543307
        },
        {
          "duration": 2.7543430208333177,
          "durationTicks": 1516,
          "midi": 75,
          "name": "D#5",
          "ticks": 79872,
          "time": 145.11536,
          "velocity": 0.7480314960629921
        },
        {
          "duration": 2.7398082291666697,
          "durationTicks": 1508,
          "midi": 67,
          "name": "G4",
          "ticks": 79874,
          "time": 145.11899369791666,
          "velocity": 0.6456692913385826
        },
        {
          "duration": 2.7543430208333177,
          "durationTicks": 1516,
          "midi": 63,
          "name": "D#4",
          "ticks": 79878,
          "time": 145.12626109375,
          "velocity": 0.6377952755905512
        },
        {
          "duration": 2.071207812500006,
          "durationTicks": 1140,
          "midi": 67,
          "name": "G4",
          "ticks": 81408,
          "time": 147.90604,
          "velocity": 0.6141732283464567
        },
        {
          "duration": 1.70783802083335,
          "durationTicks": 940,
          "midi": 74,
          "name": "D5",
          "ticks": 81408,
          "time": 147.90604,
          "velocity": 0.7165354330708661
        },
        {
          "duration": 2.056673020833358,
          "durationTicks": 1132,
          "midi": 62,
          "name": "D4",
          "ticks": 81412,
          "time": 147.91330739583333,
          "velocity": 0.6062992125984252
        },
        {
          "duration": 0.3997067708333475,
          "durationTicks": 220,
          "midi": 79,
          "name": "G5",
          "ticks": 82366,
          "time": 149.64658130208332,
          "velocity": 0.8188976377952756
        },
        {
          "duration": 0.312498020833317,
          "durationTicks": 172,
          "midi": 62,
          "name": "D4",
          "ticks": 82560,
          "time": 149.99905,
          "velocity": 0.8188976377952756
        },
        {
          "duration": 0.6467982291666772,
          "durationTicks": 356,
          "midi": 67,
          "name": "G4",
          "ticks": 82564,
          "time": 150.00631739583332,
          "velocity": 0.8346456692913385
        },
        {
          "duration": 0.3597360937500014,
          "durationTicks": 198,
          "midi": 74,
          "name": "D5",
          "ticks": 82756,
          "time": 150.35515239583333,
          "velocity": 0.7637795275590551
        },
        {
          "duration": 2.7398082291666412,
          "durationTicks": 1508,
          "midi": 64,
          "name": "E4",
          "ticks": 82940,
          "time": 150.6894526041667,
          "velocity": 0.6062992125984252
        },
        {
          "duration": 1.7078380208333215,
          "durationTicks": 940,
          "midi": 69,
          "name": "A4",
          "ticks": 82944,
          "time": 150.69672,
          "velocity": 0.6141732283464567
        },
        {
          "duration": 1.718739114583343,
          "durationTicks": 946,
          "midi": 73,
          "name": "C#5",
          "ticks": 82948,
          "time": 150.70398739583334,
          "velocity": 0.5984251968503937
        },
        {
          "duration": 0.3779045833333612,
          "durationTicks": 208,
          "midi": 69,
          "name": "A4",
          "ticks": 83902,
          "time": 152.43726130208333,
          "velocity": 0.7559055118110236
        },
        {
          "duration": 0.3052306249999788,
          "durationTicks": 168,
          "midi": 76,
          "name": "E5",
          "ticks": 84094,
          "time": 152.78609630208334,
          "velocity": 0.7401574803149606
        },
        {
          "duration": 0.3706371874999945,
          "durationTicks": 204,
          "midi": 79,
          "name": "G5",
          "ticks": 84280,
          "time": 153.12403020833332,
          "velocity": 0.7716535433070866
        },
        {
          "duration": 2.2601601041666584,
          "durationTicks": 1244,
          "midi": 78,
          "name": "F#5",
          "ticks": 84476,
          "time": 153.48013260416667,
          "velocity": 0.7244094488188977
        },
        {
          "duration": 2.2601601041666584,
          "durationTicks": 1244,
          "midi": 74,
          "name": "D5",
          "ticks": 84480,
          "time": 153.4874,
          "velocity": 0.48031496062992124
        },
        {
          "duration": 5.581359999999989,
          "durationTicks": 3072,
          "midi": 79,
          "name": "G5",
          "ticks": 86008,
          "time": 156.26354520833334,
          "velocity": 0.3700787401574803
        },
        {
          "duration": 5.5777263020833345,
          "durationTicks": 3070,
          "midi": 67,
          "name": "G4",
          "ticks": 86016,
          "time": 156.27808,
          "velocity": 0.6850393700787402
        },
        {
          "duration": 5.479616458333339,
          "durationTicks": 3016,
          "midi": 55,
          "name": "G3",
          "ticks": 86018,
          "time": 156.28171369791667,
          "velocity": 0.5118110236220472
        },
        {
          "duration": 5.505052343750009,
          "durationTicks": 3030,
          "midi": 58,
          "name": "A#3",
          "ticks": 86018,
          "time": 156.28171369791667,
          "velocity": 0.49606299212598426
        },
        {
          "duration": 5.4905175520833325,
          "durationTicks": 3022,
          "midi": 62,
          "name": "D4",
          "ticks": 86018,
          "time": 156.28171369791667,
          "velocity": 0.5039370078740157
        },
        {
          "duration": 1.409874791666681,
          "durationTicks": 776,
          "midi": 77,
          "name": "F5",
          "ticks": 89076,
          "time": 161.8376378125,
          "velocity": 0.5118110236220472
        },
        {
          "duration": 1.3880726041666662,
          "durationTicks": 764,
          "midi": 53,
          "name": "F3",
          "ticks": 89084,
          "time": 161.85217260416667,
          "velocity": 0.5669291338582677
        },
        {
          "duration": 2.797947395833347,
          "durationTicks": 1540,
          "midi": 57,
          "name": "A3",
          "ticks": 89084,
          "time": 161.85217260416667,
          "velocity": 0.5511811023622047
        },
        {
          "duration": 2.7834126041666707,
          "durationTicks": 1532,
          "midi": 60,
          "name": "C4",
          "ticks": 89084,
          "time": 161.85217260416667,
          "velocity": 0.5590551181102362
        },
        {
          "duration": 1.3735378124999897,
          "durationTicks": 756,
          "midi": 65,
          "name": "F4",
          "ticks": 89090,
          "time": 161.8630736979167,
          "velocity": 0.6456692913385826
        },
        {
          "duration": 1.3590030208333417,
          "durationTicks": 748,
          "midi": 65,
          "name": "F4",
          "ticks": 89850,
          "time": 163.24387890625,
          "velocity": 0.41732283464566927
        },
        {
          "duration": 1.3735378124999897,
          "durationTicks": 756,
          "midi": 72,
          "name": "C5",
          "ticks": 89856,
          "time": 163.25478,
          "velocity": 0.5275590551181102
        },
        {
          "duration": 0.00363369791665491,
          "durationTicks": 2,
          "midi": 77,
          "name": "F5",
          "ticks": 89856,
          "time": 163.25478,
          "velocity": 0.49606299212598426
        },
        {
          "duration": 2.710738645833345,
          "durationTicks": 1492,
          "midi": 79,
          "name": "G5",
          "ticks": 90616,
          "time": 164.63558520833334,
          "velocity": 0.3700787401574803
        },
        {
          "duration": 2.725273437499993,
          "durationTicks": 1500,
          "midi": 67,
          "name": "G4",
          "ticks": 90624,
          "time": 164.65012000000002,
          "velocity": 0.6850393700787402
        },
        {
          "duration": 2.681669062499992,
          "durationTicks": 1476,
          "midi": 58,
          "name": "A#3",
          "ticks": 90626,
          "time": 164.65375369791667,
          "velocity": 0.49606299212598426
        },
        {
          "duration": 2.710738645833345,
          "durationTicks": 1492,
          "midi": 62,
          "name": "D4",
          "ticks": 90626,
          "time": 164.65375369791667,
          "velocity": 0.5039370078740157
        },
        {
          "duration": 5.385140312499999,
          "durationTicks": 2964,
          "midi": 77,
          "name": "F5",
          "ticks": 92154,
          "time": 167.42989890625,
          "velocity": 0.5118110236220472
        },
        {
          "duration": 5.5777263020833345,
          "durationTicks": 3070,
          "midi": 67,
          "name": "G4",
          "ticks": 92160,
          "time": 167.4408,
          "velocity": 0.6850393700787402
        },
        {
          "duration": 5.479616458333311,
          "durationTicks": 3016,
          "midi": 55,
          "name": "G3",
          "ticks": 92162,
          "time": 167.44443369791668,
          "velocity": 0.5118110236220472
        },
        {
          "duration": 5.505052343750009,
          "durationTicks": 3030,
          "midi": 58,
          "name": "A#3",
          "ticks": 92162,
          "time": 167.44443369791668,
          "velocity": 0.49606299212598426
        },
        {
          "duration": 5.4905175520833325,
          "durationTicks": 3022,
          "midi": 62,
          "name": "D4",
          "ticks": 92162,
          "time": 167.44443369791668,
          "velocity": 0.5039370078740157
        },
        {
          "duration": 1.409874791666681,
          "durationTicks": 776,
          "midi": 77,
          "name": "F5",
          "ticks": 95220,
          "time": 173.0003578125,
          "velocity": 0.5118110236220472
        },
        {
          "duration": 1.3880726041666662,
          "durationTicks": 764,
          "midi": 53,
          "name": "F3",
          "ticks": 95228,
          "time": 173.01489260416668,
          "velocity": 0.5669291338582677
        },
        {
          "duration": 2.7979473958333188,
          "durationTicks": 1540,
          "midi": 57,
          "name": "A3",
          "ticks": 95228,
          "time": 173.01489260416668,
          "velocity": 0.5511811023622047
        },
        {
          "duration": 2.7834126041666423,
          "durationTicks": 1532,
          "midi": 60,
          "name": "C4",
          "ticks": 95228,
          "time": 173.01489260416668,
          "velocity": 0.5590551181102362
        },
        {
          "duration": 1.3735378125000182,
          "durationTicks": 756,
          "midi": 65,
          "name": "F4",
          "ticks": 95234,
          "time": 173.02579369791667,
          "velocity": 0.6456692913385826
        },
        {
          "duration": 1.3590030208333417,
          "durationTicks": 748,
          "midi": 65,
          "name": "F4",
          "ticks": 95994,
          "time": 174.40659890625,
          "velocity": 0.41732283464566927
        },
        {
          "duration": 1.3735378125000182,
          "durationTicks": 756,
          "midi": 72,
          "name": "C5",
          "ticks": 96000,
          "time": 174.4175,
          "velocity": 0.5275590551181102
        },
        {
          "duration": 0.0036336979166833316,
          "durationTicks": 2,
          "midi": 77,
          "name": "F5",
          "ticks": 96000,
          "time": 174.4175,
          "velocity": 0.49606299212598426
        },
        {
          "duration": 0.19985338541667375,
          "durationTicks": 110,
          "midi": 79,
          "name": "G5",
          "ticks": 96760,
          "time": 175.79830520833332,
          "velocity": 0.3700787401574803
        },
        {
          "duration": 0.1671501041666943,
          "durationTicks": 92,
          "midi": 67,
          "name": "G4",
          "ticks": 96768,
          "time": 175.81284,
          "velocity": 0.6850393700787402
        },
        {
          "duration": 0.16715010416666587,
          "durationTicks": 92,
          "midi": 58,
          "name": "A#3",
          "ticks": 96770,
          "time": 175.81647369791668,
          "velocity": 0.49606299212598426
        },
        {
          "duration": 0.1562490104166443,
          "durationTicks": 86,
          "midi": 62,
          "name": "D4",
          "ticks": 96770,
          "time": 175.81647369791668,
          "velocity": 0.5039370078740157
        },
        {
          "duration": 0.08720875000000206,
          "durationTicks": 48,
          "midi": 67,
          "name": "G4",
          "ticks": 96960,
          "time": 176.161675,
          "velocity": 0.6614173228346457
        },
        {
          "duration": 0.10537723958333345,
          "durationTicks": 58,
          "midi": 70,
          "name": "A#4",
          "ticks": 96960,
          "time": 176.161675,
          "velocity": 0.6535433070866141
        },
        {
          "duration": 0.09084244791668539,
          "durationTicks": 50,
          "midi": 74,
          "name": "D5",
          "ticks": 96960,
          "time": 176.161675,
          "velocity": 0.7874015748031497
        },
        {
          "duration": 0.08720875000000206,
          "durationTicks": 48,
          "midi": 70,
          "name": "A#4",
          "ticks": 97150,
          "time": 176.50687630208333,
          "velocity": 0.8346456692913385
        },
        {
          "duration": 0.07994135416666381,
          "durationTicks": 44,
          "midi": 67,
          "name": "G4",
          "ticks": 97152,
          "time": 176.51051,
          "velocity": 0.7559055118110236
        },
        {
          "duration": 0.14534791666667957,
          "durationTicks": 80,
          "midi": 74,
          "name": "D5",
          "ticks": 97152,
          "time": 176.51051,
          "velocity": 0.937007874015748
        },
        {
          "duration": 0.09810984374999521,
          "durationTicks": 54,
          "midi": 72,
          "name": "C5",
          "ticks": 97246,
          "time": 176.68129380208333,
          "velocity": 0.8267716535433071
        },
        {
          "duration": 0.07994135416669224,
          "durationTicks": 44,
          "midi": 70,
          "name": "A#4",
          "ticks": 97344,
          "time": 176.859345,
          "velocity": 0.8346456692913385
        },
        {
          "duration": 0.09084244791668539,
          "durationTicks": 50,
          "midi": 72,
          "name": "C5",
          "ticks": 97434,
          "time": 177.02286140625,
          "velocity": 0.7480314960629921
        },
        {
          "duration": 0.08720875000000206,
          "durationTicks": 48,
          "midi": 67,
          "name": "G4",
          "ticks": 97530,
          "time": 177.19727890625,
          "velocity": 0.7480314960629921
        },
        {
          "duration": 0.09084244791665697,
          "durationTicks": 50,
          "midi": 70,
          "name": "A#4",
          "ticks": 97530,
          "time": 177.19727890625,
          "velocity": 0.7637795275590551
        },
        {
          "duration": 0.09084244791665697,
          "durationTicks": 50,
          "midi": 74,
          "name": "D5",
          "ticks": 97530,
          "time": 177.19727890625,
          "velocity": 0.9212598425196851
        },
        {
          "duration": 0.3233991145833386,
          "durationTicks": 178,
          "midi": 62,
          "name": "D4",
          "ticks": 97716,
          "time": 177.5352128125,
          "velocity": 0.6535433070866141
        },
        {
          "duration": 0.30159692708332386,
          "durationTicks": 166,
          "midi": 70,
          "name": "A#4",
          "ticks": 97718,
          "time": 177.53884651041668,
          "velocity": 0.7007874015748031
        },
        {
          "duration": 0.3233991145833386,
          "durationTicks": 178,
          "midi": 67,
          "name": "G4",
          "ticks": 97720,
          "time": 177.54248020833333,
          "velocity": 0.6535433070866141
        },
        {
          "duration": 0.5305198958333222,
          "durationTicks": 292,
          "midi": 62,
          "name": "D4",
          "ticks": 97916,
          "time": 177.89858260416668,
          "velocity": 0.6850393700787402
        },
        {
          "duration": 0.5377872916666604,
          "durationTicks": 296,
          "midi": 70,
          "name": "A#4",
          "ticks": 97916,
          "time": 177.89858260416668,
          "velocity": 0.7322834645669292
        },
        {
          "duration": 0.5305198958333222,
          "durationTicks": 292,
          "midi": 67,
          "name": "G4",
          "ticks": 97920,
          "time": 177.90585000000002,
          "velocity": 0.6850393700787402
        },
        {
          "duration": 1.4171421874999908,
          "durationTicks": 780,
          "midi": 77,
          "name": "F5",
          "ticks": 98298,
          "time": 178.59261890625,
          "velocity": 0.5118110236220472
        },
        {
          "duration": 1.3880726041666946,
          "durationTicks": 764,
          "midi": 53,
          "name": "F3",
          "ticks": 98300,
          "time": 178.59625260416666,
          "velocity": 0.5669291338582677
        },
        {
          "duration": 2.797947395833347,
          "durationTicks": 1540,
          "midi": 57,
          "name": "A3",
          "ticks": 98300,
          "time": 178.59625260416666,
          "velocity": 0.5511811023622047
        },
        {
          "duration": 2.7834126041666707,
          "durationTicks": 1532,
          "midi": 60,
          "name": "C4",
          "ticks": 98300,
          "time": 178.59625260416666,
          "velocity": 0.5590551181102362
        },
        {
          "duration": 1.3735378124999897,
          "durationTicks": 756,
          "midi": 65,
          "name": "F4",
          "ticks": 98306,
          "time": 178.60715369791666,
          "velocity": 0.6456692913385826
        },
        {
          "duration": 1.3590030208333417,
          "durationTicks": 748,
          "midi": 66,
          "name": "F#4",
          "ticks": 99066,
          "time": 179.98795890625001,
          "velocity": 0.41732283464566927
        },
        {
          "duration": 1.3735378124999897,
          "durationTicks": 756,
          "midi": 72,
          "name": "C5",
          "ticks": 99072,
          "time": 179.99886,
          "velocity": 0.5275590551181102
        },
        {
          "duration": 1.3590030208333417,
          "durationTicks": 748,
          "midi": 78,
          "name": "F#5",
          "ticks": 99072,
          "time": 179.99886,
          "velocity": 0.49606299212598426
        },
        {
          "duration": 0.19985338541667375,
          "durationTicks": 110,
          "midi": 79,
          "name": "G5",
          "ticks": 99832,
          "time": 181.37966520833334,
          "velocity": 0.3937007874015748
        },
        {
          "duration": 0.16715010416663745,
          "durationTicks": 92,
          "midi": 67,
          "name": "G4",
          "ticks": 99840,
          "time": 181.3942,
          "velocity": 0.7086614173228346
        },
        {
          "duration": 0.1671501041666943,
          "durationTicks": 92,
          "midi": 58,
          "name": "A#3",
          "ticks": 99842,
          "time": 181.39783369791667,
          "velocity": 0.5196850393700787
        },
        {
          "duration": 0.15624901041667272,
          "durationTicks": 86,
          "midi": 62,
          "name": "D4",
          "ticks": 99842,
          "time": 181.39783369791667,
          "velocity": 0.5275590551181102
        },
        {
          "duration": 0.08720875000000206,
          "durationTicks": 48,
          "midi": 67,
          "name": "G4",
          "ticks": 100028,
          "time": 181.73576760416665,
          "velocity": 0.6220472440944882
        },
        {
          "duration": 0.10901093750001678,
          "durationTicks": 60,
          "midi": 70,
          "name": "A#4",
          "ticks": 100028,
          "time": 181.73576760416665,
          "velocity": 0.6141732283464567
        },
        {
          "duration": 0.08720875000000206,
          "durationTicks": 48,
          "midi": 74,
          "name": "D5",
          "ticks": 100030,
          "time": 181.73940130208334,
          "velocity": 0.7480314960629921
        },
        {
          "duration": 0.08720875000000206,
          "durationTicks": 48,
          "midi": 79,
          "name": "G5",
          "ticks": 100030,
          "time": 181.73940130208334,
          "velocity": 0.7480314960629921
        },
        {
          "duration": 0.07994135416669224,
          "durationTicks": 44,
          "midi": 67,
          "name": "G4",
          "ticks": 100220,
          "time": 182.08460260416666,
          "velocity": 0.7165354330708661
        },
        {
          "duration": 0.08720875000000206,
          "durationTicks": 48,
          "midi": 70,
          "name": "A#4",
          "ticks": 100220,
          "time": 182.08460260416666,
          "velocity": 0.7952755905511811
        },
        {
          "duration": 0.09084244791668539,
          "durationTicks": 50,
          "midi": 74,
          "name": "D5",
          "ticks": 100220,
          "time": 182.08460260416666,
          "velocity": 0.8976377952755905
        },
        {
          "duration": 0.14534791666667957,
          "durationTicks": 80,
          "midi": 79,
          "name": "G5",
          "ticks": 100220,
          "time": 182.08460260416666,
          "velocity": 0.8976377952755905
        },
        {
          "duration": 0.09810984374999521,
          "durationTicks": 54,
          "midi": 72,
          "name": "C5",
          "ticks": 100318,
          "time": 182.26265380208335,
          "velocity": 0.7874015748031497
        },
        {
          "duration": 0.09810984374999521,
          "durationTicks": 54,
          "midi": 77,
          "name": "F5",
          "ticks": 100318,
          "time": 182.26265380208335,
          "velocity": 0.7874015748031497
        },
        {
          "duration": 0.07994135416663539,
          "durationTicks": 44,
          "midi": 70,
          "name": "A#4",
          "ticks": 100416,
          "time": 182.440705,
          "velocity": 0.7952755905511811
        },
        {
          "duration": 0.05813916666667751,
          "durationTicks": 32,
          "midi": 74,
          "name": "D5",
          "ticks": 100418,
          "time": 182.44433869791666,
          "velocity": 0.6771653543307087
        },
        {
          "duration": 0.09084244791665697,
          "durationTicks": 50,
          "midi": 72,
          "name": "C5",
          "ticks": 100506,
          "time": 182.60422140625,
          "velocity": 0.7086614173228346
        },
        {
          "duration": 0.09084244791665697,
          "durationTicks": 50,
          "midi": 77,
          "name": "F5",
          "ticks": 100506,
          "time": 182.60422140625,
          "velocity": 0.7086614173228346
        },
        {
          "duration": 0.08720875000000206,
          "durationTicks": 48,
          "midi": 67,
          "name": "G4",
          "ticks": 100602,
          "time": 182.77863890625,
          "velocity": 0.7086614173228346
        },
        {
          "duration": 0.09084244791665697,
          "durationTicks": 50,
          "midi": 70,
          "name": "A#4",
          "ticks": 100602,
          "time": 182.77863890625,
          "velocity": 0.7244094488188977
        },
        {
          "duration": 0.09084244791665697,
          "durationTicks": 50,
          "midi": 74,
          "name": "D5",
          "ticks": 100602,
          "time": 182.77863890625,
          "velocity": 0.8818897637795275
        },
        {
          "duration": 0.09084244791665697,
          "durationTicks": 50,
          "midi": 79,
          "name": "G5",
          "ticks": 100602,
          "time": 182.77863890625,
          "velocity": 0.8818897637795275
        },
        {
          "duration": 0.16715010416663745,
          "durationTicks": 92,
          "midi": 62,
          "name": "D4",
          "ticks": 100788,
          "time": 183.1165728125,
          "velocity": 0.6929133858267716
        },
        {
          "duration": 0.14534791666667957,
          "durationTicks": 80,
          "midi": 70,
          "name": "A#4",
          "ticks": 100790,
          "time": 183.12020651041666,
          "velocity": 0.7401574803149606
        },
        {
          "duration": 0.1562490104166443,
          "durationTicks": 86,
          "midi": 67,
          "name": "G4",
          "ticks": 100792,
          "time": 183.12384020833335,
          "velocity": 0.6929133858267716
        },
        {
          "duration": 0.14534791666665114,
          "durationTicks": 80,
          "midi": 74,
          "name": "D5",
          "ticks": 100792,
          "time": 183.12384020833335,
          "velocity": 0.7401574803149606
        },
        {
          "duration": 0.35246869791669155,
          "durationTicks": 194,
          "midi": 62,
          "name": "D4",
          "ticks": 100988,
          "time": 183.47994260416667,
          "velocity": 0.7244094488188977
        },
        {
          "duration": 0.4251426562499887,
          "durationTicks": 234,
          "midi": 70,
          "name": "A#4",
          "ticks": 100988,
          "time": 183.47994260416667,
          "velocity": 0.7716535433070866
        },
        {
          "duration": 0.3960730729166926,
          "durationTicks": 218,
          "midi": 74,
          "name": "D5",
          "ticks": 100988,
          "time": 183.47994260416667,
          "velocity": 0.7716535433070866
        },
        {
          "duration": 0.3851719791666426,
          "durationTicks": 212,
          "midi": 67,
          "name": "G4",
          "ticks": 100992,
          "time": 183.48721,
          "velocity": 0.7244094488188977
        },
        {
          "duration": 0.08720875000000206,
          "durationTicks": 48,
          "midi": 72,
          "name": "C5",
          "ticks": 101564,
          "time": 184.52644760416666,
          "velocity": 0.6850393700787402
        },
        {
          "duration": 0.08720875000000206,
          "durationTicks": 48,
          "midi": 78,
          "name": "F#5",
          "ticks": 101564,
          "time": 184.52644760416666,
          "velocity": 0.6141732283464567
        },
        {
          "duration": 0.06540656250001575,
          "durationTicks": 36,
          "midi": 69,
          "name": "A4",
          "ticks": 101568,
          "time": 184.533715,
          "velocity": 0.6850393700787402
        },
        {
          "duration": 0.09447614583331188,
          "durationTicks": 52,
          "midi": 69,
          "name": "A4",
          "ticks": 101668,
          "time": 184.71539989583334,
          "velocity": 0.6850393700787402
        },
        {
          "duration": 0.09447614583331188,
          "durationTicks": 52,
          "midi": 72,
          "name": "C5",
          "ticks": 101668,
          "time": 184.71539989583334,
          "velocity": 0.6850393700787402
        },
        {
          "duration": 0.09447614583331188,
          "durationTicks": 52,
          "midi": 78,
          "name": "F#5",
          "ticks": 101668,
          "time": 184.71539989583334,
          "velocity": 0.6929133858267716
        },
        {
          "duration": 0.16715010416663745,
          "durationTicks": 92,
          "midi": 69,
          "name": "A4",
          "ticks": 101952,
          "time": 185.23138500000002,
          "velocity": 0.5984251968503937
        },
        {
          "duration": 0.1780511979166306,
          "durationTicks": 98,
          "midi": 72,
          "name": "C5",
          "ticks": 101952,
          "time": 185.23138500000002,
          "velocity": 0.5984251968503937
        },
        {
          "duration": 0.1780511979166306,
          "durationTicks": 98,
          "midi": 78,
          "name": "F#5",
          "ticks": 101952,
          "time": 185.23138500000002,
          "velocity": 0.5118110236220472
        },
        {
          "duration": 0.08720875000000206,
          "durationTicks": 48,
          "midi": 72,
          "name": "C5",
          "ticks": 102332,
          "time": 185.92178760416667,
          "velocity": 0.6850393700787402
        },
        {
          "duration": 0.08720875000000206,
          "durationTicks": 48,
          "midi": 78,
          "name": "F#5",
          "ticks": 102332,
          "time": 185.92178760416667,
          "velocity": 0.6141732283464567
        },
        {
          "duration": 0.06540656249998733,
          "durationTicks": 36,
          "midi": 69,
          "name": "A4",
          "ticks": 102336,
          "time": 185.929055,
          "velocity": 0.6850393700787402
        },
        {
          "duration": 0.09447614583331188,
          "durationTicks": 52,
          "midi": 69,
          "name": "A4",
          "ticks": 102436,
          "time": 186.11073989583335,
          "velocity": 0.6850393700787402
        },
        {
          "duration": 0.09447614583331188,
          "durationTicks": 52,
          "midi": 72,
          "name": "C5",
          "ticks": 102436,
          "time": 186.11073989583335,
          "velocity": 0.6850393700787402
        },
        {
          "duration": 0.09447614583331188,
          "durationTicks": 52,
          "midi": 78,
          "name": "F#5",
          "ticks": 102436,
          "time": 186.11073989583335,
          "velocity": 0.6929133858267716
        },
        {
          "duration": 0.16715010416666587,
          "durationTicks": 92,
          "midi": 69,
          "name": "A4",
          "ticks": 102720,
          "time": 186.626725,
          "velocity": 0.5984251968503937
        },
        {
          "duration": 0.17805119791665902,
          "durationTicks": 98,
          "midi": 72,
          "name": "C5",
          "ticks": 102720,
          "time": 186.626725,
          "velocity": 0.5984251968503937
        },
        {
          "duration": 0.17805119791665902,
          "durationTicks": 98,
          "midi": 78,
          "name": "F#5",
          "ticks": 102720,
          "time": 186.626725,
          "velocity": 0.5118110236220472
        },
        {
          "duration": 0.16715010416666587,
          "durationTicks": 92,
          "midi": 67,
          "name": "G4",
          "ticks": 103012,
          "time": 187.15724489583334,
          "velocity": 0.8661417322834646
        },
        {
          "duration": 0.1780511979166306,
          "durationTicks": 98,
          "midi": 69,
          "name": "A4",
          "ticks": 103098,
          "time": 187.31349390625002,
          "velocity": 0.84251968503937
        },
        {
          "duration": 0.13081312500000308,
          "durationTicks": 72,
          "midi": 70,
          "name": "A#4",
          "ticks": 103190,
          "time": 187.48064401041665,
          "velocity": 0.8267716535433071
        },
        {
          "duration": 0.0763076562500089,
          "durationTicks": 42,
          "midi": 70,
          "name": "A#4",
          "ticks": 103282,
          "time": 187.64779411458335,
          "velocity": 0.905511811023622
        },
        {
          "duration": 0.28342843749999247,
          "durationTicks": 156,
          "midi": 69,
          "name": "A4",
          "ticks": 103300,
          "time": 187.68049739583336,
          "velocity": 0.8976377952755905
        },
        {
          "duration": 0.2688936458333444,
          "durationTicks": 148,
          "midi": 67,
          "name": "G4",
          "ticks": 103484,
          "time": 188.01479760416666,
          "velocity": 0.9291338582677166
        },
        {
          "duration": 0.1816848958332855,
          "durationTicks": 100,
          "midi": 74,
          "name": "D5",
          "ticks": 103768,
          "time": 188.53078270833336,
          "velocity": 0.7401574803149606
        },
        {
          "duration": 0.16351640625001096,
          "durationTicks": 90,
          "midi": 79,
          "name": "G5",
          "ticks": 103866,
          "time": 188.70883390625,
          "velocity": 0.7401574803149606
        },
        {
          "duration": 0.14534791666665114,
          "durationTicks": 80,
          "midi": 74,
          "name": "D5",
          "ticks": 103962,
          "time": 188.88325140625,
          "velocity": 0.7952755905511811
        },
        {
          "duration": 0.3706371874999945,
          "durationTicks": 204,
          "midi": 82,
          "name": "A#5",
          "ticks": 104056,
          "time": 189.05403520833335,
          "velocity": 0.8267716535433071
        },
        {
          "duration": 0.31249802083334544,
          "durationTicks": 172,
          "midi": 79,
          "name": "G5",
          "ticks": 104250,
          "time": 189.40650390625,
          "velocity": 0.7874015748031497
        },
        {
          "duration": 0.08357505208334715,
          "durationTicks": 46,
          "midi": 81,
          "name": "A5",
          "ticks": 104438,
          "time": 189.74807151041665,
          "velocity": 0.8740157480314961
        },
        {
          "duration": 0.09084244791665697,
          "durationTicks": 50,
          "midi": 82,
          "name": "A#5",
          "ticks": 104460,
          "time": 189.7880421875,
          "velocity": 0.84251968503937
        },
        {
          "duration": 0.0763076562500089,
          "durationTicks": 42,
          "midi": 81,
          "name": "A5",
          "ticks": 104532,
          "time": 189.9188553125,
          "velocity": 0.8188976377952756
        },
        {
          "duration": 0.35610239583334646,
          "durationTicks": 196,
          "midi": 79,
          "name": "G5",
          "ticks": 104546,
          "time": 189.94429119791667,
          "velocity": 0.8188976377952756
        },
        {
          "duration": 0.18168489583334235,
          "durationTicks": 100,
          "midi": 82,
          "name": "A#5",
          "ticks": 104730,
          "time": 190.27859140625,
          "velocity": 0.84251968503937
        },
        {
          "duration": 0.1526153125000178,
          "durationTicks": 84,
          "midi": 81,
          "name": "A5",
          "ticks": 104836,
          "time": 190.47117739583334,
          "velocity": 0.8661417322834646
        },
        {
          "duration": 0.09084244791668539,
          "durationTicks": 50,
          "midi": 79,
          "name": "G5",
          "ticks": 104930,
          "time": 190.64196119791666,
          "velocity": 0.8267716535433071
        },
        {
          "duration": 0.14898161458333448,
          "durationTicks": 82,
          "midi": 93,
          "name": "A6",
          "ticks": 105018,
          "time": 190.80184390625,
          "velocity": 0.7007874015748031
        },
        {
          "duration": 0.15988270833335605,
          "durationTicks": 88,
          "midi": 94,
          "name": "A#6",
          "ticks": 105116,
          "time": 190.97989510416664,
          "velocity": 0.7401574803149606
        },
        {
          "duration": 0.1707838020833492,
          "durationTicks": 94,
          "midi": 93,
          "name": "A6",
          "ticks": 105204,
          "time": 191.1397778125,
          "velocity": 0.7559055118110236
        },
        {
          "duration": 0.145347916666708,
          "durationTicks": 80,
          "midi": 91,
          "name": "G6",
          "ticks": 105308,
          "time": 191.32873010416665,
          "velocity": 0.7952755905511811
        },
        {
          "duration": 0.13808052083334132,
          "durationTicks": 76,
          "midi": 90,
          "name": "F#6",
          "ticks": 105402,
          "time": 191.49951390625,
          "velocity": 0.7952755905511811
        },
        {
          "duration": 0.17078380208332078,
          "durationTicks": 94,
          "midi": 93,
          "name": "A6",
          "ticks": 105502,
          "time": 191.68119880208334,
          "velocity": 0.7637795275590551
        },
        {
          "duration": 2.750709322916663,
          "durationTicks": 1514,
          "midi": 91,
          "name": "G6",
          "ticks": 105600,
          "time": 191.85925,
          "velocity": 0.7401574803149606
        }
      ]
    },
    {
      "channel": 0,
      "controlChanges": {
        "0": [
          {
            "number": 0,
            "ticks": 1536,
            "time": 2.79068,
            "value": 0
          }
        ],
        "7": [
          {
            "number": 7,
            "ticks": 1536,
            "time": 2.79068,
            "value": 0.8582677165354331
          }
        ],
        "10": [
          {
            "number": 10,
            "ticks": 1536,
            "time": 2.79068,
            "value": 0.6141732283464567
          }
        ],
        "11": [
          {
            "number": 11,
            "ticks": 1536,
            "time": 2.79068,
            "value": 1
          }
        ],
        "91": [
          {
            "number": 91,
            "ticks": 1536,
            "time": 2.79068,
            "value": 1
          }
        ],
        "93": [
          {
            "number": 93,
            "ticks": 1536,
            "time": 2.79068,
            "value": 0.1889763779527559
          }
        ],
        "121": [
          {
            "number": 121,
            "ticks": 1536,
            "time": 2.79068,
            "value": 0
          }
        ]
      },
      "pitchBends": [
        {
          "ticks": 1536,
          "time": 2.79068,
          "value": 0
        }
      ],
      "instrument": {
        "family": "piano",
        "name": "acoustic grand piano",
        "number": 0
      },
      "name": "Harmonica",
      "notes": []
    },
    {
      "channel": 2,
      "controlChanges": {
        "120": [
          {
            "number": 120,
            "ticks": 107256,
            "time": 194.86795187500002,
            "value": 0
          }
        ],
        "123": [
          {
            "number": 123,
            "ticks": 107328,
            "time": 194.998765,
            "value": 0
          }
        ]
      },
      "pitchBends": [],
      "instrument": {
        "family": "organ",
        "name": "tango accordion",
        "number": 23
      },
      "name": "",
      "notes": [
        {
          "duration": 0.03997067708334612,
          "durationTicks": 22,
          "midi": 74,
          "name": "D5",
          "ticks": 60094,
          "time": 109.18172130208333,
          "velocity": 0.7244094488188977
        },
        {
          "duration": 0.036336979166677,
          "durationTicks": 20,
          "midi": 79,
          "name": "G5",
          "ticks": 60096,
          "time": 109.185355,
          "velocity": 0.7244094488188977
        },
        {
          "duration": 0.036336979166677,
          "durationTicks": 20,
          "midi": 67,
          "name": "G4",
          "ticks": 60100,
          "time": 109.19262239583333,
          "velocity": 0.7874015748031497
        },
        {
          "duration": 0.036336979166677,
          "durationTicks": 20,
          "midi": 70,
          "name": "A#4",
          "ticks": 60100,
          "time": 109.19262239583333,
          "velocity": 0.7874015748031497
        },
        {
          "duration": 0.06177286458334663,
          "durationTicks": 34,
          "midi": 70,
          "name": "A#4",
          "ticks": 60472,
          "time": 109.86849020833333,
          "velocity": 0.7244094488188977
        },
        {
          "duration": 0.06904026041667066,
          "durationTicks": 38,
          "midi": 74,
          "name": "D5",
          "ticks": 60472,
          "time": 109.86849020833333,
          "velocity": 0.7244094488188977
        },
        {
          "duration": 0.072673958333354,
          "durationTicks": 40,
          "midi": 79,
          "name": "G5",
          "ticks": 60472,
          "time": 109.86849020833333,
          "velocity": 0.7244094488188977
        },
        {
          "duration": 0.05813916666667751,
          "durationTicks": 32,
          "midi": 67,
          "name": "G4",
          "ticks": 60474,
          "time": 109.87212390625,
          "velocity": 0.7244094488188977
        },
        {
          "duration": 0.06177286458333242,
          "durationTicks": 34,
          "midi": 67,
          "name": "G4",
          "ticks": 60866,
          "time": 110.58432869791667,
          "velocity": 0.7874015748031497
        },
        {
          "duration": 0.04723807291665594,
          "durationTicks": 26,
          "midi": 70,
          "name": "A#4",
          "ticks": 60866,
          "time": 110.58432869791667,
          "velocity": 0.7874015748031497
        },
        {
          "duration": 0.05813916666664909,
          "durationTicks": 32,
          "midi": 74,
          "name": "D5",
          "ticks": 60866,
          "time": 110.58432869791667,
          "velocity": 0.7244094488188977
        },
        {
          "duration": 0.06177286458333242,
          "durationTicks": 34,
          "midi": 79,
          "name": "G5",
          "ticks": 60866,
          "time": 110.58432869791667,
          "velocity": 0.7244094488188977
        },
        {
          "duration": 0.05813916666667751,
          "durationTicks": 32,
          "midi": 70,
          "name": "A#4",
          "ticks": 61240,
          "time": 111.26383020833333,
          "velocity": 0.7244094488188977
        },
        {
          "duration": 0.06904026041667066,
          "durationTicks": 38,
          "midi": 74,
          "name": "D5",
          "ticks": 61240,
          "time": 111.26383020833333,
          "velocity": 0.7244094488188977
        },
        {
          "duration": 0.05813916666667751,
          "durationTicks": 32,
          "midi": 67,
          "name": "G4",
          "ticks": 61242,
          "time": 111.26746390625,
          "velocity": 0.7244094488188977
        },
        {
          "duration": 0.06540656250000154,
          "durationTicks": 36,
          "midi": 79,
          "name": "G5",
          "ticks": 61242,
          "time": 111.26746390625,
          "velocity": 0.7244094488188977
        },
        {
          "duration": 0.03997067708334612,
          "durationTicks": 22,
          "midi": 74,
          "name": "D5",
          "ticks": 61630,
          "time": 111.97240130208333,
          "velocity": 0.7244094488188977
        },
        {
          "duration": 0.036336979166677,
          "durationTicks": 20,
          "midi": 79,
          "name": "G5",
          "ticks": 61632,
          "time": 111.976035,
          "velocity": 0.7244094488188977
        },
        {
          "duration": 0.036336979166662786,
          "durationTicks": 20,
          "midi": 67,
          "name": "G4",
          "ticks": 61636,
          "time": 111.98330239583333,
          "velocity": 0.7874015748031497
        },
        {
          "duration": 0.036336979166662786,
          "durationTicks": 20,
          "midi": 70,
          "name": "A#4",
          "ticks": 61636,
          "time": 111.98330239583333,
          "velocity": 0.7874015748031497
        },
        {
          "duration": 0.06177286458334663,
          "durationTicks": 34,
          "midi": 70,
          "name": "A#4",
          "ticks": 62008,
          "time": 112.65917020833332,
          "velocity": 0.7244094488188977
        },
        {
          "duration": 0.06904026041668487,
          "durationTicks": 38,
          "midi": 74,
          "name": "D5",
          "ticks": 62008,
          "time": 112.65917020833332,
          "velocity": 0.7244094488188977
        },
        {
          "duration": 0.072673958333354,
          "durationTicks": 40,
          "midi": 79,
          "name": "G5",
          "ticks": 62008,
          "time": 112.65917020833332,
          "velocity": 0.7244094488188977
        },
        {
          "duration": 0.0581391666666633,
          "durationTicks": 32,
          "midi": 67,
          "name": "G4",
          "ticks": 62010,
          "time": 112.66280390625,
          "velocity": 0.7244094488188977
        },
        {
          "duration": 0.06177286458333242,
          "durationTicks": 34,
          "midi": 67,
          "name": "G4",
          "ticks": 62402,
          "time": 113.37500869791667,
          "velocity": 0.7874015748031497
        },
        {
          "duration": 0.04723807291665594,
          "durationTicks": 26,
          "midi": 70,
          "name": "A#4",
          "ticks": 62402,
          "time": 113.37500869791667,
          "velocity": 0.7874015748031497
        },
        {
          "duration": 0.0581391666666633,
          "durationTicks": 32,
          "midi": 74,
          "name": "D5",
          "ticks": 62402,
          "time": 113.37500869791667,
          "velocity": 0.7244094488188977
        },
        {
          "duration": 0.06177286458333242,
          "durationTicks": 34,
          "midi": 79,
          "name": "G5",
          "ticks": 62402,
          "time": 113.37500869791667,
          "velocity": 0.7244094488188977
        },
        {
          "duration": 0.05813916666667751,
          "durationTicks": 32,
          "midi": 70,
          "name": "A#4",
          "ticks": 62776,
          "time": 114.05451020833333,
          "velocity": 0.7244094488188977
        },
        {
          "duration": 0.06904026041667066,
          "durationTicks": 38,
          "midi": 74,
          "name": "D5",
          "ticks": 62776,
          "time": 114.05451020833333,
          "velocity": 0.7244094488188977
        },
        {
          "duration": 0.05813916666667751,
          "durationTicks": 32,
          "midi": 67,
          "name": "G4",
          "ticks": 62778,
          "time": 114.05814390625,
          "velocity": 0.7244094488188977
        },
        {
          "duration": 0.06540656250000154,
          "durationTicks": 36,
          "midi": 79,
          "name": "G5",
          "ticks": 62778,
          "time": 114.05814390625,
          "velocity": 0.7244094488188977
        },
        {
          "duration": 0.07994135416666381,
          "durationTicks": 44,
          "midi": 74,
          "name": "D5",
          "ticks": 63166,
          "time": 114.76308130208334,
          "velocity": 0.7244094488188977
        },
        {
          "duration": 0.07994135416666381,
          "durationTicks": 44,
          "midi": 79,
          "name": "G5",
          "ticks": 63168,
          "time": 114.766715,
          "velocity": 0.7244094488188977
        },
        {
          "duration": 0.07994135416667802,
          "durationTicks": 44,
          "midi": 67,
          "name": "G4",
          "ticks": 63172,
          "time": 114.77398239583333,
          "velocity": 0.7874015748031497
        },
        {
          "duration": 0.07994135416667802,
          "durationTicks": 44,
          "midi": 70,
          "name": "A#4",
          "ticks": 63172,
          "time": 114.77398239583333,
          "velocity": 0.7874015748031497
        },
        {
          "duration": 0.06177286458334663,
          "durationTicks": 34,
          "midi": 70,
          "name": "A#4",
          "ticks": 63544,
          "time": 115.44985020833333,
          "velocity": 0.7244094488188977
        },
        {
          "duration": 0.06904026041667066,
          "durationTicks": 38,
          "midi": 74,
          "name": "D5",
          "ticks": 63544,
          "time": 115.44985020833333,
          "velocity": 0.7244094488188977
        },
        {
          "duration": 0.07267395833333978,
          "durationTicks": 40,
          "midi": 79,
          "name": "G5",
          "ticks": 63544,
          "time": 115.44985020833333,
          "velocity": 0.7244094488188977
        },
        {
          "duration": 0.05813916666667751,
          "durationTicks": 32,
          "midi": 67,
          "name": "G4",
          "ticks": 63546,
          "time": 115.45348390625,
          "velocity": 0.7244094488188977
        },
        {
          "duration": 0.0799413541666496,
          "durationTicks": 44,
          "midi": 67,
          "name": "G4",
          "ticks": 63938,
          "time": 116.16568869791668,
          "velocity": 0.7874015748031497
        },
        {
          "duration": 0.0799413541666496,
          "durationTicks": 44,
          "midi": 70,
          "name": "A#4",
          "ticks": 63938,
          "time": 116.16568869791668,
          "velocity": 0.7874015748031497
        },
        {
          "duration": 0.0799413541666496,
          "durationTicks": 44,
          "midi": 74,
          "name": "D5",
          "ticks": 63938,
          "time": 116.16568869791668,
          "velocity": 0.7244094488188977
        },
        {
          "duration": 0.0799413541666496,
          "durationTicks": 44,
          "midi": 79,
          "name": "G5",
          "ticks": 63938,
          "time": 116.16568869791668,
          "velocity": 0.7244094488188977
        },
        {
          "duration": 0.0581391666666633,
          "durationTicks": 32,
          "midi": 70,
          "name": "A#4",
          "ticks": 64312,
          "time": 116.84519020833334,
          "velocity": 0.7244094488188977
        },
        {
          "duration": 0.06904026041667066,
          "durationTicks": 38,
          "midi": 74,
          "name": "D5",
          "ticks": 64312,
          "time": 116.84519020833334,
          "velocity": 0.7244094488188977
        },
        {
          "duration": 0.05813916666667751,
          "durationTicks": 32,
          "midi": 67,
          "name": "G4",
          "ticks": 64314,
          "time": 116.84882390625,
          "velocity": 0.7244094488188977
        },
        {
          "duration": 0.06540656250000154,
          "durationTicks": 36,
          "midi": 79,
          "name": "G5",
          "ticks": 64314,
          "time": 116.84882390625,
          "velocity": 0.7244094488188977
        },
        {
          "duration": 0.03997067708334612,
          "durationTicks": 22,
          "midi": 72,
          "name": "C5",
          "ticks": 64702,
          "time": 117.55376130208333,
          "velocity": 0.7244094488188977
        },
        {
          "duration": 0.036336979166677,
          "durationTicks": 20,
          "midi": 77,
          "name": "F5",
          "ticks": 64704,
          "time": 117.557395,
          "velocity": 0.7244094488188977
        },
        {
          "duration": 0.036336979166677,
          "durationTicks": 20,
          "midi": 65,
          "name": "F4",
          "ticks": 64708,
          "time": 117.56466239583332,
          "velocity": 0.7874015748031497
        },
        {
          "duration": 0.036336979166677,
          "durationTicks": 20,
          "midi": 70,
          "name": "A#4",
          "ticks": 64708,
          "time": 117.56466239583332,
          "velocity": 0.7874015748031497
        },
        {
          "duration": 0.06177286458334663,
          "durationTicks": 34,
          "midi": 70,
          "name": "A#4",
          "ticks": 65080,
          "time": 118.24053020833333,
          "velocity": 0.7244094488188977
        },
        {
          "duration": 0.06904026041667066,
          "durationTicks": 38,
          "midi": 72,
          "name": "C5",
          "ticks": 65080,
          "time": 118.24053020833333,
          "velocity": 0.7244094488188977
        },
        {
          "duration": 0.072673958333354,
          "durationTicks": 40,
          "midi": 77,
          "name": "F5",
          "ticks": 65080,
          "time": 118.24053020833333,
          "velocity": 0.7244094488188977
        },
        {
          "duration": 0.0581391666666633,
          "durationTicks": 32,
          "midi": 65,
          "name": "F4",
          "ticks": 65082,
          "time": 118.24416390625001,
          "velocity": 0.7244094488188977
        },
        {
          "duration": 0.06177286458333242,
          "durationTicks": 34,
          "midi": 65,
          "name": "F4",
          "ticks": 65474,
          "time": 118.95636869791667,
          "velocity": 0.7874015748031497
        },
        {
          "duration": 0.04723807291665594,
          "durationTicks": 26,
          "midi": 70,
          "name": "A#4",
          "ticks": 65474,
          "time": 118.95636869791667,
          "velocity": 0.7874015748031497
        },
        {
          "duration": 0.05813916666664909,
          "durationTicks": 32,
          "midi": 72,
          "name": "C5",
          "ticks": 65474,
          "time": 118.95636869791667,
          "velocity": 0.7244094488188977
        },
        {
          "duration": 0.06177286458333242,
          "durationTicks": 34,
          "midi": 77,
          "name": "F5",
          "ticks": 65474,
          "time": 118.95636869791667,
          "velocity": 0.7244094488188977
        },
        {
          "duration": 0.05813916666667751,
          "durationTicks": 32,
          "midi": 70,
          "name": "A#4",
          "ticks": 65848,
          "time": 119.63587020833333,
          "velocity": 0.7244094488188977
        },
        {
          "duration": 0.06904026041667066,
          "durationTicks": 38,
          "midi": 72,
          "name": "C5",
          "ticks": 65848,
          "time": 119.63587020833333,
          "velocity": 0.7244094488188977
        },
        {
          "duration": 0.05813916666667751,
          "durationTicks": 32,
          "midi": 65,
          "name": "F4",
          "ticks": 65850,
          "time": 119.63950390625,
          "velocity": 0.7244094488188977
        },
        {
          "duration": 0.06540656250000154,
          "durationTicks": 36,
          "midi": 77,
          "name": "F5",
          "ticks": 65850,
          "time": 119.63950390625,
          "velocity": 0.7244094488188977
        },
        {
          "duration": 0.07994135416667802,
          "durationTicks": 44,
          "midi": 72,
          "name": "C5",
          "ticks": 66238,
          "time": 120.34444130208333,
          "velocity": 0.7244094488188977
        },
        {
          "duration": 0.07994135416666381,
          "durationTicks": 44,
          "midi": 78,
          "name": "F#5",
          "ticks": 66240,
          "time": 120.34807500000001,
          "velocity": 0.7244094488188977
        },
        {
          "duration": 0.07994135416666381,
          "durationTicks": 44,
          "midi": 70,
          "name": "A#4",
          "ticks": 66244,
          "time": 120.35534239583333,
          "velocity": 0.7874015748031497
        },
        {
          "duration": 0.06177286458334663,
          "durationTicks": 34,
          "midi": 70,
          "name": "A#4",
          "ticks": 66616,
          "time": 121.03121020833333,
          "velocity": 0.7244094488188977
        },
        {
          "duration": 0.06904026041667066,
          "durationTicks": 38,
          "midi": 72,
          "name": "C5",
          "ticks": 66616,
          "time": 121.03121020833333,
          "velocity": 0.7244094488188977
        },
        {
          "duration": 0.07267395833333978,
          "durationTicks": 40,
          "midi": 78,
          "name": "F#5",
          "ticks": 66616,
          "time": 121.03121020833333,
          "velocity": 0.7244094488188977
        },
        {
          "duration": 0.0799413541666496,
          "durationTicks": 44,
          "midi": 70,
          "name": "A#4",
          "ticks": 67010,
          "time": 121.74704869791668,
          "velocity": 0.7874015748031497
        },
        {
          "duration": 0.0799413541666496,
          "durationTicks": 44,
          "midi": 72,
          "name": "C5",
          "ticks": 67010,
          "time": 121.74704869791668,
          "velocity": 0.7244094488188977
        },
        {
          "duration": 0.0799413541666496,
          "durationTicks": 44,
          "midi": 78,
          "name": "F#5",
          "ticks": 67010,
          "time": 121.74704869791668,
          "velocity": 0.7244094488188977
        },
        {
          "duration": 0.05813916666667751,
          "durationTicks": 32,
          "midi": 70,
          "name": "A#4",
          "ticks": 67384,
          "time": 122.42655020833332,
          "velocity": 0.7244094488188977
        },
        {
          "duration": 0.06904026041667066,
          "durationTicks": 38,
          "midi": 72,
          "name": "C5",
          "ticks": 67384,
          "time": 122.42655020833332,
          "velocity": 0.7244094488188977
        },
        {
          "duration": 0.06540656249998733,
          "durationTicks": 36,
          "midi": 78,
          "name": "F#5",
          "ticks": 67386,
          "time": 122.43018390625001,
          "velocity": 0.7244094488188977
        },
        {
          "duration": 0.03997067708334612,
          "durationTicks": 22,
          "midi": 74,
          "name": "D5",
          "ticks": 67774,
          "time": 123.13512130208333,
          "velocity": 0.7244094488188977
        },
        {
          "duration": 0.036336979166677,
          "durationTicks": 20,
          "midi": 79,
          "name": "G5",
          "ticks": 67776,
          "time": 123.138755,
          "velocity": 0.7244094488188977
        },
        {
          "duration": 0.036336979166677,
          "durationTicks": 20,
          "midi": 67,
          "name": "G4",
          "ticks": 67780,
          "time": 123.14602239583333,
          "velocity": 0.7874015748031497
        },
        {
          "duration": 0.036336979166677,
          "durationTicks": 20,
          "midi": 70,
          "name": "A#4",
          "ticks": 67780,
          "time": 123.14602239583333,
          "velocity": 0.7874015748031497
        },
        {
          "duration": 0.06177286458334663,
          "durationTicks": 34,
          "midi": 70,
          "name": "A#4",
          "ticks": 68152,
          "time": 123.82189020833333,
          "velocity": 0.7244094488188977
        },
        {
          "duration": 0.06904026041667066,
          "durationTicks": 38,
          "midi": 74,
          "name": "D5",
          "ticks": 68152,
          "time": 123.82189020833333,
          "velocity": 0.7244094488188977
        },
        {
          "duration": 0.07267395833333978,
          "durationTicks": 40,
          "midi": 79,
          "name": "G5",
          "ticks": 68152,
          "time": 123.82189020833333,
          "velocity": 0.7244094488188977
        },
        {
          "duration": 0.05813916666667751,
          "durationTicks": 32,
          "midi": 67,
          "name": "G4",
          "ticks": 68154,
          "time": 123.82552390625,
          "velocity": 0.7244094488188977
        },
        {
          "duration": 0.06177286458333242,
          "durationTicks": 34,
          "midi": 67,
          "name": "G4",
          "ticks": 68546,
          "time": 124.53772869791668,
          "velocity": 0.7874015748031497
        },
        {
          "duration": 0.04723807291665594,
          "durationTicks": 26,
          "midi": 70,
          "name": "A#4",
          "ticks": 68546,
          "time": 124.53772869791668,
          "velocity": 0.7874015748031497
        },
        {
          "duration": 0.05813916666664909,
          "durationTicks": 32,
          "midi": 74,
          "name": "D5",
          "ticks": 68546,
          "time": 124.53772869791668,
          "velocity": 0.7244094488188977
        },
        {
          "duration": 0.06177286458333242,
          "durationTicks": 34,
          "midi": 79,
          "name": "G5",
          "ticks": 68546,
          "time": 124.53772869791668,
          "velocity": 0.7244094488188977
        },
        {
          "duration": 0.0581391666666633,
          "durationTicks": 32,
          "midi": 70,
          "name": "A#4",
          "ticks": 68920,
          "time": 125.21723020833333,
          "velocity": 0.7244094488188977
        },
        {
          "duration": 0.06904026041667066,
          "durationTicks": 38,
          "midi": 74,
          "name": "D5",
          "ticks": 68920,
          "time": 125.21723020833333,
          "velocity": 0.7244094488188977
        },
        {
          "duration": 0.05813916666667751,
          "durationTicks": 32,
          "midi": 67,
          "name": "G4",
          "ticks": 68922,
          "time": 125.22086390625,
          "velocity": 0.7244094488188977
        },
        {
          "duration": 0.06540656250000154,
          "durationTicks": 36,
          "midi": 79,
          "name": "G5",
          "ticks": 68922,
          "time": 125.22086390625,
          "velocity": 0.7244094488188977
        },
        {
          "duration": 0.07994135416667802,
          "durationTicks": 44,
          "midi": 74,
          "name": "D5",
          "ticks": 69310,
          "time": 125.92580130208333,
          "velocity": 0.7244094488188977
        },
        {
          "duration": 0.07994135416667802,
          "durationTicks": 44,
          "midi": 79,
          "name": "G5",
          "ticks": 69312,
          "time": 125.929435,
          "velocity": 0.7244094488188977
        },
        {
          "duration": 0.07994135416667802,
          "durationTicks": 44,
          "midi": 67,
          "name": "G4",
          "ticks": 69316,
          "time": 125.93670239583332,
          "velocity": 0.7874015748031497
        },
        {
          "duration": 0.07994135416667802,
          "durationTicks": 44,
          "midi": 70,
          "name": "A#4",
          "ticks": 69316,
          "time": 125.93670239583332,
          "velocity": 0.7874015748031497
        },
        {
          "duration": 0.06177286458334663,
          "durationTicks": 34,
          "midi": 70,
          "name": "A#4",
          "ticks": 69688,
          "time": 126.61257020833332,
          "velocity": 0.7244094488188977
        },
        {
          "duration": 0.06904026041668487,
          "durationTicks": 38,
          "midi": 74,
          "name": "D5",
          "ticks": 69688,
          "time": 126.61257020833332,
          "velocity": 0.7244094488188977
        },
        {
          "duration": 0.072673958333354,
          "durationTicks": 40,
          "midi": 79,
          "name": "G5",
          "ticks": 69688,
          "time": 126.61257020833332,
          "velocity": 0.7244094488188977
        },
        {
          "duration": 0.0581391666666633,
          "durationTicks": 32,
          "midi": 67,
          "name": "G4",
          "ticks": 69690,
          "time": 126.61620390625,
          "velocity": 0.7244094488188977
        },
        {
          "duration": 0.07994135416666381,
          "durationTicks": 44,
          "midi": 67,
          "name": "G4",
          "ticks": 70082,
          "time": 127.32840869791667,
          "velocity": 0.7874015748031497
        },
        {
          "duration": 0.07994135416666381,
          "durationTicks": 44,
          "midi": 70,
          "name": "A#4",
          "ticks": 70082,
          "time": 127.32840869791667,
          "velocity": 0.7874015748031497
        },
        {
          "duration": 0.07994135416666381,
          "durationTicks": 44,
          "midi": 74,
          "name": "D5",
          "ticks": 70082,
          "time": 127.32840869791667,
          "velocity": 0.7244094488188977
        },
        {
          "duration": 0.07994135416666381,
          "durationTicks": 44,
          "midi": 79,
          "name": "G5",
          "ticks": 70082,
          "time": 127.32840869791667,
          "velocity": 0.7244094488188977
        },
        {
          "duration": 0.05813916666667751,
          "durationTicks": 32,
          "midi": 70,
          "name": "A#4",
          "ticks": 70456,
          "time": 128.00791020833333,
          "velocity": 0.7244094488188977
        },
        {
          "duration": 0.06904026041667066,
          "durationTicks": 38,
          "midi": 74,
          "name": "D5",
          "ticks": 70456,
          "time": 128.00791020833333,
          "velocity": 0.7244094488188977
        },
        {
          "duration": 0.05813916666667751,
          "durationTicks": 32,
          "midi": 67,
          "name": "G4",
          "ticks": 70458,
          "time": 128.01154390625,
          "velocity": 0.7244094488188977
        },
        {
          "duration": 0.06540656249998733,
          "durationTicks": 36,
          "midi": 79,
          "name": "G5",
          "ticks": 70458,
          "time": 128.01154390625,
          "velocity": 0.7244094488188977
        },
        {
          "duration": 0.03997067708334612,
          "durationTicks": 22,
          "midi": 72,
          "name": "C5",
          "ticks": 70846,
          "time": 128.71648130208334,
          "velocity": 0.7244094488188977
        },
        {
          "duration": 0.03633697916669121,
          "durationTicks": 20,
          "midi": 77,
          "name": "F5",
          "ticks": 70848,
          "time": 128.720115,
          "velocity": 0.7244094488188977
        },
        {
          "duration": 0.036336979166662786,
          "durationTicks": 20,
          "midi": 65,
          "name": "F4",
          "ticks": 70852,
          "time": 128.72738239583333,
          "velocity": 0.7874015748031497
        },
        {
          "duration": 0.036336979166662786,
          "durationTicks": 20,
          "midi": 70,
          "name": "A#4",
          "ticks": 70852,
          "time": 128.72738239583333,
          "velocity": 0.7874015748031497
        },
        {
          "duration": 0.06177286458333242,
          "durationTicks": 34,
          "midi": 70,
          "name": "A#4",
          "ticks": 71224,
          "time": 129.40325020833333,
          "velocity": 0.7244094488188977
        },
        {
          "duration": 0.06904026041667066,
          "durationTicks": 38,
          "midi": 72,
          "name": "C5",
          "ticks": 71224,
          "time": 129.40325020833333,
          "velocity": 0.7244094488188977
        },
        {
          "duration": 0.072673958333354,
          "durationTicks": 40,
          "midi": 77,
          "name": "F5",
          "ticks": 71224,
          "time": 129.40325020833333,
          "velocity": 0.7244094488188977
        },
        {
          "duration": 0.05813916666664909,
          "durationTicks": 32,
          "midi": 65,
          "name": "F4",
          "ticks": 71226,
          "time": 129.40688390625002,
          "velocity": 0.7244094488188977
        },
        {
          "duration": 0.04723807291665594,
          "durationTicks": 26,
          "midi": 70,
          "name": "A#4",
          "ticks": 71618,
          "time": 130.11908869791668,
          "velocity": 0.7874015748031497
        },
        {
          "duration": 0.05813916666664909,
          "durationTicks": 32,
          "midi": 72,
          "name": "C5",
          "ticks": 71618,
          "time": 130.11908869791668,
          "velocity": 0.7244094488188977
        },
        {
          "duration": 0.06177286458333242,
          "durationTicks": 34,
          "midi": 79,
          "name": "G5",
          "ticks": 71618,
          "time": 130.11908869791668,
          "velocity": 0.7244094488188977
        },
        {
          "duration": 0.05813916666667751,
          "durationTicks": 32,
          "midi": 70,
          "name": "A#4",
          "ticks": 71992,
          "time": 130.79859020833334,
          "velocity": 0.7244094488188977
        },
        {
          "duration": 0.06904026041667066,
          "durationTicks": 38,
          "midi": 72,
          "name": "C5",
          "ticks": 71992,
          "time": 130.79859020833334,
          "velocity": 0.7244094488188977
        },
        {
          "duration": 0.06540656250001575,
          "durationTicks": 36,
          "midi": 79,
          "name": "G5",
          "ticks": 71994,
          "time": 130.80222390625,
          "velocity": 0.7244094488188977
        },
        {
          "duration": 0.07994135416666381,
          "durationTicks": 44,
          "midi": 74,
          "name": "D5",
          "ticks": 72384,
          "time": 131.510795,
          "velocity": 0.7244094488188977
        },
        {
          "duration": 0.07994135416666381,
          "durationTicks": 44,
          "midi": 79,
          "name": "G5",
          "ticks": 72384,
          "time": 131.510795,
          "velocity": 0.7244094488188977
        },
        {
          "duration": 0.07994135416666381,
          "durationTicks": 44,
          "midi": 67,
          "name": "G4",
          "ticks": 72388,
          "time": 131.51806239583334,
          "velocity": 0.7874015748031497
        },
        {
          "duration": 0.07994135416666381,
          "durationTicks": 44,
          "midi": 70,
          "name": "A#4",
          "ticks": 72388,
          "time": 131.51806239583334,
          "velocity": 0.7874015748031497
        },
        {
          "duration": 0.06177286458333242,
          "durationTicks": 34,
          "midi": 70,
          "name": "A#4",
          "ticks": 72760,
          "time": 132.19393020833334,
          "velocity": 0.7244094488188977
        },
        {
          "duration": 0.07267395833332557,
          "durationTicks": 40,
          "midi": 74,
          "name": "D5",
          "ticks": 72760,
          "time": 132.19393020833334,
          "velocity": 0.7244094488188977
        },
        {
          "duration": 0.06904026041667066,
          "durationTicks": 38,
          "midi": 79,
          "name": "G5",
          "ticks": 72762,
          "time": 132.19756390625,
          "velocity": 0.7244094488188977
        },
        {
          "duration": 0.05450546874999418,
          "durationTicks": 30,
          "midi": 67,
          "name": "G4",
          "ticks": 72764,
          "time": 132.20119760416668,
          "velocity": 0.7244094488188977
        },
        {
          "duration": 0.07994135416663539,
          "durationTicks": 44,
          "midi": 67,
          "name": "G4",
          "ticks": 73154,
          "time": 132.9097686979167,
          "velocity": 0.7874015748031497
        },
        {
          "duration": 0.07994135416663539,
          "durationTicks": 44,
          "midi": 70,
          "name": "A#4",
          "ticks": 73154,
          "time": 132.9097686979167,
          "velocity": 0.7874015748031497
        },
        {
          "duration": 0.07994135416663539,
          "durationTicks": 44,
          "midi": 74,
          "name": "D5",
          "ticks": 73154,
          "time": 132.9097686979167,
          "velocity": 0.7244094488188977
        },
        {
          "duration": 0.07994135416669224,
          "durationTicks": 44,
          "midi": 79,
          "name": "G5",
          "ticks": 73156,
          "time": 132.91340239583332,
          "velocity": 0.7244094488188977
        },
        {
          "duration": 0.072673958333354,
          "durationTicks": 40,
          "midi": 74,
          "name": "D5",
          "ticks": 73528,
          "time": 133.58927020833332,
          "velocity": 0.7244094488188977
        },
        {
          "duration": 0.05450546874999418,
          "durationTicks": 30,
          "midi": 70,
          "name": "A#4",
          "ticks": 73530,
          "time": 133.59290390625,
          "velocity": 0.7244094488188977
        },
        {
          "duration": 0.05450546874999418,
          "durationTicks": 30,
          "midi": 67,
          "name": "G4",
          "ticks": 73532,
          "time": 133.59653760416668,
          "velocity": 0.7244094488188977
        },
        {
          "duration": 0.06540656249998733,
          "durationTicks": 36,
          "midi": 79,
          "name": "G5",
          "ticks": 73532,
          "time": 133.59653760416668,
          "velocity": 0.7244094488188977
        },
        {
          "duration": 2.7180060416666265,
          "durationTicks": 1496,
          "midi": 55,
          "name": "G3",
          "ticks": 105610,
          "time": 191.87741848958336,
          "velocity": 0.5039370078740157
        },
        {
          "duration": 2.7180060416666265,
          "durationTicks": 1496,
          "midi": 58,
          "name": "A#3",
          "ticks": 105610,
          "time": 191.87741848958336,
          "velocity": 0.48031496062992124
        },
        {
          "duration": 2.7180060416666265,
          "durationTicks": 1496,
          "midi": 62,
          "name": "D4",
          "ticks": 105610,
          "time": 191.87741848958336,
          "velocity": 0.5118110236220472
        },
        {
          "duration": 2.7071049479166334,
          "durationTicks": 1490,
          "midi": 67,
          "name": "G4",
          "ticks": 105618,
          "time": 191.89195328125,
          "velocity": 0.5039370078740157
        }
      ]
    },
    {
      "channel": 0,
      "controlChanges": {
        "0": [
          {
            "number": 0,
            "ticks": 1536,
            "time": 2.79068,
            "value": 0
          }
        ],
        "7": [
          {
            "number": 7,
            "ticks": 1536,
            "time": 2.79068,
            "value": 0.3858267716535433
          }
        ],
        "10": [
          {
            "number": 10,
            "ticks": 1536,
            "time": 2.79068,
            "value": 0.1968503937007874
          }
        ],
        "11": [
          {
            "number": 11,
            "ticks": 1536,
            "time": 2.79068,
            "value": 1
          }
        ],
        "91": [
          {
            "number": 91,
            "ticks": 1536,
            "time": 2.79068,
            "value": 0.8267716535433071
          }
        ],
        "93": [
          {
            "number": 93,
            "ticks": 1536,
            "time": 2.79068,
            "value": 0.2047244094488189
          }
        ],
        "121": [
          {
            "number": 121,
            "ticks": 1536,
            "time": 2.79068,
            "value": 0
          }
        ]
      },
      "pitchBends": [
        {
          "ticks": 1536,
          "time": 2.79068,
          "value": 0
        }
      ],
      "instrument": {
        "family": "piano",
        "name": "acoustic grand piano",
        "number": 0
      },
      "name": "Guitar",
      "notes": []
    },
    {
      "channel": 3,
      "controlChanges": {
        "120": [
          {
            "number": 120,
            "ticks": 107256,
            "time": 194.86795187500002,
            "value": 0
          }
        ],
        "123": [
          {
            "number": 123,
            "ticks": 107280,
            "time": 194.91155625,
            "value": 0
          }
        ]
      },
      "pitchBends": [],
      "instrument": {
        "family": "guitar",
        "name": "acoustic guitar (nylon)",
        "number": 24
      },
      "name": "",
      "notes": [
        {
          "duration": 0.49781661458333293,
          "durationTicks": 274,
          "midi": 70,
          "name": "A#4",
          "ticks": 3072,
          "time": 5.58136,
          "velocity": 0.7480314960629921
        },
        {
          "duration": 0.49054921875,
          "durationTicks": 270,
          "midi": 67,
          "name": "G4",
          "ticks": 3076,
          "time": 5.588627395833333,
          "velocity": 0.8582677165354331
        },
        {
          "duration": 0.25435885416666704,
          "durationTicks": 140,
          "midi": 74,
          "name": "D5",
          "ticks": 3264,
          "time": 5.930195,
          "velocity": 0.9921259842519685
        },
        {
          "duration": 0.2834284374999996,
          "durationTicks": 156,
          "midi": 79,
          "name": "G5",
          "ticks": 3352,
          "time": 6.090077708333333,
          "velocity": 0.9763779527559056
        },
        {
          "duration": 0.3306665104166653,
          "durationTicks": 182,
          "midi": 82,
          "name": "A#5",
          "ticks": 3362,
          "time": 6.108246197916667,
          "velocity": 1
        },
        {
          "duration": 0.45421223958333456,
          "durationTicks": 250,
          "midi": 67,
          "name": "G4",
          "ticks": 3448,
          "time": 6.264495208333333,
          "velocity": 0.8582677165354331
        },
        {
          "duration": 0.46511333333333305,
          "durationTicks": 256,
          "midi": 70,
          "name": "A#4",
          "ticks": 3458,
          "time": 6.282663697916667,
          "velocity": 0.7559055118110236
        },
        {
          "duration": 0.20712078124999955,
          "durationTicks": 114,
          "midi": 74,
          "name": "D5",
          "ticks": 3552,
          "time": 6.4534475,
          "velocity": 0.9763779527559056
        },
        {
          "duration": 0.3415676041666673,
          "durationTicks": 188,
          "midi": 79,
          "name": "G5",
          "ticks": 3648,
          "time": 6.627865,
          "velocity": 0.9763779527559056
        },
        {
          "duration": 0.36336979166666694,
          "durationTicks": 200,
          "midi": 82,
          "name": "A#5",
          "ticks": 3744,
          "time": 6.8022825000000005,
          "velocity": 1
        },
        {
          "duration": 0.45784593749999924,
          "durationTicks": 252,
          "midi": 67,
          "name": "G4",
          "ticks": 3832,
          "time": 6.962165208333333,
          "velocity": 0.8582677165354331
        },
        {
          "duration": 0.47238072916666685,
          "durationTicks": 260,
          "midi": 70,
          "name": "A#4",
          "ticks": 3840,
          "time": 6.9767,
          "velocity": 0.7244094488188977
        },
        {
          "duration": 0.22892296875000007,
          "durationTicks": 126,
          "midi": 74,
          "name": "D5",
          "ticks": 3936,
          "time": 7.1511175,
          "velocity": 0.9763779527559056
        },
        {
          "duration": 0.3415676041666664,
          "durationTicks": 188,
          "midi": 79,
          "name": "G5",
          "ticks": 4032,
          "time": 7.325535,
          "velocity": 0.9763779527559056
        },
        {
          "duration": 0.33066651041666706,
          "durationTicks": 182,
          "midi": 82,
          "name": "A#5",
          "ticks": 4128,
          "time": 7.4999525,
          "velocity": 1
        },
        {
          "duration": 0.47238072916666507,
          "durationTicks": 260,
          "midi": 67,
          "name": "G4",
          "ticks": 4214,
          "time": 7.656201510416667,
          "velocity": 0.8582677165354331
        },
        {
          "duration": 0.47238072916666596,
          "durationTicks": 260,
          "midi": 70,
          "name": "A#4",
          "ticks": 4220,
          "time": 7.667102604166667,
          "velocity": 0.7637795275590551
        },
        {
          "duration": 0.2180218749999998,
          "durationTicks": 120,
          "midi": 74,
          "name": "D5",
          "ticks": 4320,
          "time": 7.8487875,
          "velocity": 0.9763779527559056
        },
        {
          "duration": 0.16715010416666587,
          "durationTicks": 92,
          "midi": 79,
          "name": "G5",
          "ticks": 4416,
          "time": 8.023205,
          "velocity": 0.9763779527559056
        },
        {
          "duration": 0.16715010416666765,
          "durationTicks": 92,
          "midi": 82,
          "name": "A#5",
          "ticks": 4512,
          "time": 8.1976225,
          "velocity": 1
        },
        {
          "duration": 0.4978166145833338,
          "durationTicks": 274,
          "midi": 72,
          "name": "C5",
          "ticks": 4608,
          "time": 8.37204,
          "velocity": 0.7480314960629921
        },
        {
          "duration": 0.4905492187500009,
          "durationTicks": 270,
          "midi": 67,
          "name": "G4",
          "ticks": 4612,
          "time": 8.379307395833333,
          "velocity": 0.8582677165354331
        },
        {
          "duration": 0.23982406250000032,
          "durationTicks": 132,
          "midi": 75,
          "name": "D#5",
          "ticks": 4704,
          "time": 8.5464575,
          "velocity": 0.937007874015748
        },
        {
          "duration": 0.3415676041666682,
          "durationTicks": 188,
          "midi": 79,
          "name": "G5",
          "ticks": 4800,
          "time": 8.720875,
          "velocity": 0.9763779527559056
        },
        {
          "duration": 0.3270328125000006,
          "durationTicks": 180,
          "midi": 84,
          "name": "C6",
          "ticks": 4896,
          "time": 8.8952925,
          "velocity": 0.9921259842519685
        },
        {
          "duration": 0.45421223958333456,
          "durationTicks": 250,
          "midi": 67,
          "name": "G4",
          "ticks": 4984,
          "time": 9.055175208333333,
          "velocity": 0.8582677165354331
        },
        {
          "duration": 0.46511333333333305,
          "durationTicks": 256,
          "midi": 72,
          "name": "C5",
          "ticks": 4994,
          "time": 9.073343697916668,
          "velocity": 0.7559055118110236
        },
        {
          "duration": 0.2252892708333345,
          "durationTicks": 124,
          "midi": 75,
          "name": "D#5",
          "ticks": 5088,
          "time": 9.2441275,
          "velocity": 0.9763779527559056
        },
        {
          "duration": 0.3415676041666664,
          "durationTicks": 188,
          "midi": 79,
          "name": "G5",
          "ticks": 5184,
          "time": 9.418545,
          "velocity": 0.9763779527559056
        },
        {
          "duration": 0.345201302083332,
          "durationTicks": 190,
          "midi": 84,
          "name": "C6",
          "ticks": 5280,
          "time": 9.5929625,
          "velocity": 1
        },
        {
          "duration": 0.45784593750000013,
          "durationTicks": 252,
          "midi": 67,
          "name": "G4",
          "ticks": 5368,
          "time": 9.752845208333333,
          "velocity": 0.8582677165354331
        },
        {
          "duration": 0.47238072916666773,
          "durationTicks": 260,
          "midi": 72,
          "name": "C5",
          "ticks": 5376,
          "time": 9.76738,
          "velocity": 0.7244094488188977
        },
        {
          "duration": 0.23982406250000032,
          "durationTicks": 132,
          "midi": 75,
          "name": "D#5",
          "ticks": 5472,
          "time": 9.9417975,
          "velocity": 0.9763779527559056
        },
        {
          "duration": 0.3415676041666664,
          "durationTicks": 188,
          "midi": 79,
          "name": "G5",
          "ticks": 5568,
          "time": 10.116215,
          "velocity": 0.9763779527559056
        },
        {
          "duration": 0.388805677083333,
          "durationTicks": 214,
          "midi": 84,
          "name": "C6",
          "ticks": 5664,
          "time": 10.290632500000001,
          "velocity": 1
        },
        {
          "duration": 0.47238072916666596,
          "durationTicks": 260,
          "midi": 67,
          "name": "G4",
          "ticks": 5750,
          "time": 10.446881510416667,
          "velocity": 0.8582677165354331
        },
        {
          "duration": 0.47238072916666596,
          "durationTicks": 260,
          "midi": 72,
          "name": "C5",
          "ticks": 5756,
          "time": 10.457782604166667,
          "velocity": 0.7637795275590551
        },
        {
          "duration": 0.25435885416666615,
          "durationTicks": 140,
          "midi": 75,
          "name": "D#5",
          "ticks": 5856,
          "time": 10.6394675,
          "velocity": 0.9763779527559056
        },
        {
          "duration": 0.3415676041666664,
          "durationTicks": 188,
          "midi": 79,
          "name": "G5",
          "ticks": 5952,
          "time": 10.813885,
          "velocity": 0.9763779527559056
        },
        {
          "duration": 0.27616104166666666,
          "durationTicks": 152,
          "midi": 84,
          "name": "C6",
          "ticks": 6048,
          "time": 10.9883025,
          "velocity": 1
        },
        {
          "duration": 0.4978166145833338,
          "durationTicks": 274,
          "midi": 70,
          "name": "A#4",
          "ticks": 6144,
          "time": 11.16272,
          "velocity": 0.7480314960629921
        },
        {
          "duration": 0.4905492187499991,
          "durationTicks": 270,
          "midi": 67,
          "name": "G4",
          "ticks": 6148,
          "time": 11.169987395833335,
          "velocity": 0.8582677165354331
        },
        {
          "duration": 0.23982406250000032,
          "durationTicks": 132,
          "midi": 74,
          "name": "D5",
          "ticks": 6240,
          "time": 11.3371375,
          "velocity": 0.9763779527559056
        },
        {
          "duration": 0.3415676041666664,
          "durationTicks": 188,
          "midi": 79,
          "name": "G5",
          "ticks": 6336,
          "time": 11.511555,
          "velocity": 0.9763779527559056
        },
        {
          "duration": 0.3524686979166667,
          "durationTicks": 194,
          "midi": 82,
          "name": "A#5",
          "ticks": 6432,
          "time": 11.6859725,
          "velocity": 1
        },
        {
          "duration": 0.454212239583331,
          "durationTicks": 250,
          "midi": 67,
          "name": "G4",
          "ticks": 6520,
          "time": 11.845855208333335,
          "velocity": 0.8582677165354331
        },
        {
          "duration": 0.4651133333333348,
          "durationTicks": 256,
          "midi": 70,
          "name": "A#4",
          "ticks": 6530,
          "time": 11.864023697916666,
          "velocity": 0.7559055118110236
        },
        {
          "duration": 0.2252892708333345,
          "durationTicks": 124,
          "midi": 74,
          "name": "D5",
          "ticks": 6624,
          "time": 12.0348075,
          "velocity": 0.9763779527559056
        },
        {
          "duration": 0.3415676041666664,
          "durationTicks": 188,
          "midi": 79,
          "name": "G5",
          "ticks": 6720,
          "time": 12.209225,
          "velocity": 0.9763779527559056
        },
        {
          "duration": 0.3343002083333335,
          "durationTicks": 184,
          "midi": 82,
          "name": "A#5",
          "ticks": 6816,
          "time": 12.3836425,
          "velocity": 1
        },
        {
          "duration": 0.45784593750000013,
          "durationTicks": 252,
          "midi": 67,
          "name": "G4",
          "ticks": 6904,
          "time": 12.543525208333334,
          "velocity": 0.8582677165354331
        },
        {
          "duration": 0.4723807291666642,
          "durationTicks": 260,
          "midi": 70,
          "name": "A#4",
          "ticks": 6912,
          "time": 12.558060000000001,
          "velocity": 0.7244094488188977
        },
        {
          "duration": 0.2507251562500006,
          "durationTicks": 138,
          "midi": 74,
          "name": "D5",
          "ticks": 7008,
          "time": 12.7324775,
          "velocity": 0.9763779527559056
        },
        {
          "duration": 0.3415676041666664,
          "durationTicks": 188,
          "midi": 79,
          "name": "G5",
          "ticks": 7104,
          "time": 12.906895,
          "velocity": 0.9763779527559056
        },
        {
          "duration": 0.36336979166666517,
          "durationTicks": 200,
          "midi": 82,
          "name": "A#5",
          "ticks": 7200,
          "time": 13.081312500000001,
          "velocity": 1
        },
        {
          "duration": 0.47238072916666773,
          "durationTicks": 260,
          "midi": 67,
          "name": "G4",
          "ticks": 7286,
          "time": 13.237561510416667,
          "velocity": 0.8582677165354331
        },
        {
          "duration": 0.47238072916666773,
          "durationTicks": 260,
          "midi": 70,
          "name": "A#4",
          "ticks": 7292,
          "time": 13.248462604166667,
          "velocity": 0.7637795275590551
        },
        {
          "duration": 0.24709145833333324,
          "durationTicks": 136,
          "midi": 74,
          "name": "D5",
          "ticks": 7392,
          "time": 13.4301475,
          "velocity": 0.9763779527559056
        },
        {
          "duration": 0.23982406249999855,
          "durationTicks": 132,
          "midi": 79,
          "name": "G5",
          "ticks": 7488,
          "time": 13.604565000000001,
          "velocity": 0.9763779527559056
        },
        {
          "duration": 0.1925859895833355,
          "durationTicks": 106,
          "midi": 82,
          "name": "A#5",
          "ticks": 7584,
          "time": 13.7789825,
          "velocity": 1
        },
        {
          "duration": 0.4978166145833338,
          "durationTicks": 274,
          "midi": 69,
          "name": "A4",
          "ticks": 7680,
          "time": 13.9534,
          "velocity": 0.7480314960629921
        },
        {
          "duration": 0.4905492187499991,
          "durationTicks": 270,
          "midi": 64,
          "name": "E4",
          "ticks": 7684,
          "time": 13.960667395833335,
          "velocity": 0.8582677165354331
        },
        {
          "duration": 0.26889364583333375,
          "durationTicks": 148,
          "midi": 73,
          "name": "C#5",
          "ticks": 7776,
          "time": 14.1278175,
          "velocity": 0.9763779527559056
        },
        {
          "duration": 0.3415676041666664,
          "durationTicks": 188,
          "midi": 76,
          "name": "E5",
          "ticks": 7872,
          "time": 14.302235,
          "velocity": 0.9606299212598425
        },
        {
          "duration": 0.3270328125000006,
          "durationTicks": 180,
          "midi": 81,
          "name": "A5",
          "ticks": 7968,
          "time": 14.4766525,
          "velocity": 0.9921259842519685
        },
        {
          "duration": 0.454212239583331,
          "durationTicks": 250,
          "midi": 64,
          "name": "E4",
          "ticks": 8056,
          "time": 14.636535208333335,
          "velocity": 0.8582677165354331
        },
        {
          "duration": 0.4651133333333348,
          "durationTicks": 256,
          "midi": 69,
          "name": "A4",
          "ticks": 8066,
          "time": 14.654703697916666,
          "velocity": 0.7559055118110236
        },
        {
          "duration": 0.25435885416666615,
          "durationTicks": 140,
          "midi": 73,
          "name": "C#5",
          "ticks": 8160,
          "time": 14.8254875,
          "velocity": 0.937007874015748
        },
        {
          "duration": 0.3415676041666664,
          "durationTicks": 188,
          "midi": 76,
          "name": "E5",
          "ticks": 8256,
          "time": 14.999905,
          "velocity": 0.9606299212598425
        },
        {
          "duration": 0.37790458333333454,
          "durationTicks": 208,
          "midi": 81,
          "name": "A5",
          "ticks": 8352,
          "time": 15.1743225,
          "velocity": 0.9763779527559056
        },
        {
          "duration": 0.45784593750000013,
          "durationTicks": 252,
          "midi": 64,
          "name": "E4",
          "ticks": 8440,
          "time": 15.334205208333334,
          "velocity": 0.8582677165354331
        },
        {
          "duration": 0.47238072916666596,
          "durationTicks": 260,
          "midi": 69,
          "name": "A4",
          "ticks": 8448,
          "time": 15.34874,
          "velocity": 0.7244094488188977
        },
        {
          "duration": 0.2834284374999996,
          "durationTicks": 156,
          "midi": 73,
          "name": "C#5",
          "ticks": 8544,
          "time": 15.5231575,
          "velocity": 0.937007874015748
        },
        {
          "duration": 0.3415676041666664,
          "durationTicks": 188,
          "midi": 76,
          "name": "E5",
          "ticks": 8640,
          "time": 15.697575,
          "velocity": 1
        },
        {
          "duration": 0.3924393749999986,
          "durationTicks": 216,
          "midi": 81,
          "name": "A5",
          "ticks": 8736,
          "time": 15.871992500000001,
          "velocity": 0.9921259842519685
        },
        {
          "duration": 0.4723807291666695,
          "durationTicks": 260,
          "midi": 64,
          "name": "E4",
          "ticks": 8822,
          "time": 16.028241510416667,
          "velocity": 0.8582677165354331
        },
        {
          "duration": 0.47238072916666596,
          "durationTicks": 260,
          "midi": 69,
          "name": "A4",
          "ticks": 8828,
          "time": 16.039142604166667,
          "velocity": 0.7637795275590551
        },
        {
          "duration": 0.2543588541666679,
          "durationTicks": 140,
          "midi": 73,
          "name": "C#5",
          "ticks": 8928,
          "time": 16.2208275,
          "velocity": 0.9606299212598425
        },
        {
          "duration": 0.24345776041666767,
          "durationTicks": 134,
          "midi": 76,
          "name": "E5",
          "ticks": 9024,
          "time": 16.395245,
          "velocity": 0.9763779527559056
        },
        {
          "duration": 0.16715010416666587,
          "durationTicks": 92,
          "midi": 81,
          "name": "A5",
          "ticks": 9120,
          "time": 16.5696625,
          "velocity": 1
        },
        {
          "duration": 0.4978166145833356,
          "durationTicks": 274,
          "midi": 70,
          "name": "A#4",
          "ticks": 9216,
          "time": 16.74408,
          "velocity": 0.7480314960629921
        },
        {
          "duration": 0.4905492187500009,
          "durationTicks": 270,
          "midi": 67,
          "name": "G4",
          "ticks": 9220,
          "time": 16.751347395833335,
          "velocity": 0.8582677165354331
        },
        {
          "duration": 0.25435885416666437,
          "durationTicks": 140,
          "midi": 74,
          "name": "D5",
          "ticks": 9312,
          "time": 16.9184975,
          "velocity": 0.9921259842519685
        },
        {
          "duration": 0.2834284374999996,
          "durationTicks": 156,
          "midi": 79,
          "name": "G5",
          "ticks": 9408,
          "time": 17.092915,
          "velocity": 0.9763779527559056
        },
        {
          "duration": 0.3379339062499973,
          "durationTicks": 186,
          "midi": 82,
          "name": "A#5",
          "ticks": 9506,
          "time": 17.270966197916668,
          "velocity": 1
        },
        {
          "duration": 0.45421223958333456,
          "durationTicks": 250,
          "midi": 67,
          "name": "G4",
          "ticks": 9592,
          "time": 17.427215208333333,
          "velocity": 0.8582677165354331
        },
        {
          "duration": 0.4651133333333348,
          "durationTicks": 256,
          "midi": 70,
          "name": "A#4",
          "ticks": 9602,
          "time": 17.445383697916665,
          "velocity": 0.7559055118110236
        },
        {
          "duration": 0.20712078125000133,
          "durationTicks": 114,
          "midi": 74,
          "name": "D5",
          "ticks": 9696,
          "time": 17.6161675,
          "velocity": 0.9763779527559056
        },
        {
          "duration": 0.3415676041666664,
          "durationTicks": 188,
          "midi": 79,
          "name": "G5",
          "ticks": 9792,
          "time": 17.790585,
          "velocity": 0.9763779527559056
        },
        {
          "duration": 0.36336979166666694,
          "durationTicks": 200,
          "midi": 82,
          "name": "A#5",
          "ticks": 9888,
          "time": 17.9650025,
          "velocity": 1
        },
        {
          "duration": 0.45784593750000013,
          "durationTicks": 252,
          "midi": 67,
          "name": "G4",
          "ticks": 9976,
          "time": 18.124885208333335,
          "velocity": 0.8582677165354331
        },
        {
          "duration": 0.47238072916666596,
          "durationTicks": 260,
          "midi": 70,
          "name": "A#4",
          "ticks": 9984,
          "time": 18.13942,
          "velocity": 0.7244094488188977
        },
        {
          "duration": 0.2289229687499983,
          "durationTicks": 126,
          "midi": 74,
          "name": "D5",
          "ticks": 10080,
          "time": 18.3138375,
          "velocity": 0.9763779527559056
        },
        {
          "duration": 0.3415676041666664,
          "durationTicks": 188,
          "midi": 79,
          "name": "G5",
          "ticks": 10176,
          "time": 18.488255,
          "velocity": 0.9763779527559056
        },
        {
          "duration": 0.33066651041666617,
          "durationTicks": 182,
          "midi": 82,
          "name": "A#5",
          "ticks": 10272,
          "time": 18.6626725,
          "velocity": 1
        },
        {
          "duration": 0.4723807291666695,
          "durationTicks": 260,
          "midi": 67,
          "name": "G4",
          "ticks": 10358,
          "time": 18.818921510416665,
          "velocity": 0.8582677165354331
        },
        {
          "duration": 0.4723807291666695,
          "durationTicks": 260,
          "midi": 70,
          "name": "A#4",
          "ticks": 10364,
          "time": 18.829822604166665,
          "velocity": 0.7637795275590551
        },
        {
          "duration": 0.21802187500000159,
          "durationTicks": 120,
          "midi": 74,
          "name": "D5",
          "ticks": 10464,
          "time": 19.0115075,
          "velocity": 0.9763779527559056
        },
        {
          "duration": 0.16715010416666587,
          "durationTicks": 92,
          "midi": 79,
          "name": "G5",
          "ticks": 10560,
          "time": 19.185925,
          "velocity": 0.9763779527559056
        },
        {
          "duration": 0.16715010416666587,
          "durationTicks": 92,
          "midi": 82,
          "name": "A#5",
          "ticks": 10656,
          "time": 19.3603425,
          "velocity": 1
        },
        {
          "duration": 0.4978166145833356,
          "durationTicks": 274,
          "midi": 72,
          "name": "C5",
          "ticks": 10752,
          "time": 19.53476,
          "velocity": 0.7480314960629921
        },
        {
          "duration": 0.4905492187500009,
          "durationTicks": 270,
          "midi": 67,
          "name": "G4",
          "ticks": 10756,
          "time": 19.542027395833333,
          "velocity": 0.8582677165354331
        },
        {
          "duration": 0.2398240625000021,
          "durationTicks": 132,
          "midi": 75,
          "name": "D#5",
          "ticks": 10848,
          "time": 19.7091775,
          "velocity": 0.937007874015748
        },
        {
          "duration": 0.3415676041666664,
          "durationTicks": 188,
          "midi": 79,
          "name": "G5",
          "ticks": 10944,
          "time": 19.883595,
          "velocity": 0.9763779527559056
        },
        {
          "duration": 0.3270328125000006,
          "durationTicks": 180,
          "midi": 84,
          "name": "C6",
          "ticks": 11040,
          "time": 20.0580125,
          "velocity": 0.9921259842519685
        },
        {
          "duration": 0.454212239583331,
          "durationTicks": 250,
          "midi": 67,
          "name": "G4",
          "ticks": 11128,
          "time": 20.217895208333335,
          "velocity": 0.8582677165354331
        },
        {
          "duration": 0.4651133333333348,
          "durationTicks": 256,
          "midi": 72,
          "name": "C5",
          "ticks": 11138,
          "time": 20.236063697916666,
          "velocity": 0.7559055118110236
        },
        {
          "duration": 0.22528927083333272,
          "durationTicks": 124,
          "midi": 75,
          "name": "D#5",
          "ticks": 11232,
          "time": 20.4068475,
          "velocity": 0.9763779527559056
        },
        {
          "duration": 0.3415676041666629,
          "durationTicks": 188,
          "midi": 79,
          "name": "G5",
          "ticks": 11328,
          "time": 20.581265000000002,
          "velocity": 0.9763779527559056
        },
        {
          "duration": 0.34520130208333555,
          "durationTicks": 190,
          "midi": 84,
          "name": "C6",
          "ticks": 11424,
          "time": 20.7556825,
          "velocity": 1
        },
        {
          "duration": 0.45784593750000013,
          "durationTicks": 252,
          "midi": 67,
          "name": "G4",
          "ticks": 11512,
          "time": 20.915565208333334,
          "velocity": 0.8582677165354331
        },
        {
          "duration": 0.47238072916666596,
          "durationTicks": 260,
          "midi": 72,
          "name": "C5",
          "ticks": 11520,
          "time": 20.9301,
          "velocity": 0.7244094488188977
        },
        {
          "duration": 0.2398240625000021,
          "durationTicks": 132,
          "midi": 75,
          "name": "D#5",
          "ticks": 11616,
          "time": 21.1045175,
          "velocity": 0.9763779527559056
        },
        {
          "duration": 0.3415676041666664,
          "durationTicks": 188,
          "midi": 79,
          "name": "G5",
          "ticks": 11712,
          "time": 21.278935,
          "velocity": 0.9763779527559056
        },
        {
          "duration": 0.388805677083333,
          "durationTicks": 214,
          "midi": 84,
          "name": "C6",
          "ticks": 11808,
          "time": 21.4533525,
          "velocity": 1
        },
        {
          "duration": 0.4723807291666695,
          "durationTicks": 260,
          "midi": 67,
          "name": "G4",
          "ticks": 11894,
          "time": 21.609601510416667,
          "velocity": 0.8582677165354331
        },
        {
          "duration": 0.47238072916666596,
          "durationTicks": 260,
          "midi": 72,
          "name": "C5",
          "ticks": 11900,
          "time": 21.620502604166667,
          "velocity": 0.7637795275590551
        },
        {
          "duration": 0.2543588541666679,
          "durationTicks": 140,
          "midi": 75,
          "name": "D#5",
          "ticks": 12000,
          "time": 21.8021875,
          "velocity": 0.9763779527559056
        },
        {
          "duration": 0.3415676041666664,
          "durationTicks": 188,
          "midi": 79,
          "name": "G5",
          "ticks": 12096,
          "time": 21.976605,
          "velocity": 0.9763779527559056
        },
        {
          "duration": 0.27616104166666844,
          "durationTicks": 152,
          "midi": 84,
          "name": "C6",
          "ticks": 12192,
          "time": 22.1510225,
          "velocity": 1
        },
        {
          "duration": 0.49781661458333204,
          "durationTicks": 274,
          "midi": 70,
          "name": "A#4",
          "ticks": 12288,
          "time": 22.32544,
          "velocity": 0.7480314960629921
        },
        {
          "duration": 0.4905492187500009,
          "durationTicks": 270,
          "midi": 67,
          "name": "G4",
          "ticks": 12292,
          "time": 22.33270739583333,
          "velocity": 0.8582677165354331
        },
        {
          "duration": 0.23982406249999855,
          "durationTicks": 132,
          "midi": 74,
          "name": "D5",
          "ticks": 12384,
          "time": 22.4998575,
          "velocity": 0.9763779527559056
        },
        {
          "duration": 0.3415676041666664,
          "durationTicks": 188,
          "midi": 79,
          "name": "G5",
          "ticks": 12480,
          "time": 22.674275,
          "velocity": 0.9763779527559056
        },
        {
          "duration": 0.3524686979166667,
          "durationTicks": 194,
          "midi": 82,
          "name": "A#5",
          "ticks": 12576,
          "time": 22.848692500000002,
          "velocity": 1
        },
        {
          "duration": 0.45421223958333456,
          "durationTicks": 250,
          "midi": 67,
          "name": "G4",
          "ticks": 12664,
          "time": 23.008575208333333,
          "velocity": 0.8582677165354331
        },
        {
          "duration": 0.46511333333333127,
          "durationTicks": 256,
          "midi": 70,
          "name": "A#4",
          "ticks": 12674,
          "time": 23.026743697916668,
          "velocity": 0.7559055118110236
        },
        {
          "duration": 0.22528927083333272,
          "durationTicks": 124,
          "midi": 74,
          "name": "D5",
          "ticks": 12768,
          "time": 23.1975275,
          "velocity": 0.9763779527559056
        },
        {
          "duration": 0.34156760416667,
          "durationTicks": 188,
          "midi": 79,
          "name": "G5",
          "ticks": 12864,
          "time": 23.371945,
          "velocity": 0.9763779527559056
        },
        {
          "duration": 0.33430020833333174,
          "durationTicks": 184,
          "midi": 82,
          "name": "A#5",
          "ticks": 12960,
          "time": 23.5463625,
          "velocity": 1
        },
        {
          "duration": 0.45784593750000013,
          "durationTicks": 252,
          "midi": 67,
          "name": "G4",
          "ticks": 13048,
          "time": 23.706245208333332,
          "velocity": 0.8582677165354331
        },
        {
          "duration": 0.47238072916666596,
          "durationTicks": 260,
          "midi": 70,
          "name": "A#4",
          "ticks": 13056,
          "time": 23.72078,
          "velocity": 0.7244094488188977
        },
        {
          "duration": 0.2507251562499988,
          "durationTicks": 138,
          "midi": 74,
          "name": "D5",
          "ticks": 13152,
          "time": 23.895197500000002,
          "velocity": 0.9763779527559056
        },
        {
          "duration": 0.34156760416667,
          "durationTicks": 188,
          "midi": 79,
          "name": "G5",
          "ticks": 13248,
          "time": 24.069615,
          "velocity": 0.9763779527559056
        },
        {
          "duration": 0.3633697916666705,
          "durationTicks": 200,
          "midi": 82,
          "name": "A#5",
          "ticks": 13344,
          "time": 24.2440325,
          "velocity": 1
        },
        {
          "duration": 0.4723807291666624,
          "durationTicks": 260,
          "midi": 67,
          "name": "G4",
          "ticks": 13430,
          "time": 24.40028151041667,
          "velocity": 0.8582677165354331
        },
        {
          "duration": 0.4723807291666624,
          "durationTicks": 260,
          "midi": 70,
          "name": "A#4",
          "ticks": 13436,
          "time": 24.41118260416667,
          "velocity": 0.7637795275590551
        },
        {
          "duration": 0.24709145833333324,
          "durationTicks": 136,
          "midi": 74,
          "name": "D5",
          "ticks": 13536,
          "time": 24.5928675,
          "velocity": 0.9763779527559056
        },
        {
          "duration": 0.23982406249999855,
          "durationTicks": 132,
          "midi": 79,
          "name": "G5",
          "ticks": 13632,
          "time": 24.767285,
          "velocity": 0.9763779527559056
        },
        {
          "duration": 0.19258598958333195,
          "durationTicks": 106,
          "midi": 82,
          "name": "A#5",
          "ticks": 13728,
          "time": 24.9417025,
          "velocity": 1
        },
        {
          "duration": 0.4978166145833285,
          "durationTicks": 274,
          "midi": 69,
          "name": "A4",
          "ticks": 13824,
          "time": 25.116120000000002,
          "velocity": 0.7480314960629921
        },
        {
          "duration": 0.49054921874999735,
          "durationTicks": 270,
          "midi": 64,
          "name": "E4",
          "ticks": 13828,
          "time": 25.123387395833333,
          "velocity": 0.8582677165354331
        },
        {
          "duration": 0.26889364583333375,
          "durationTicks": 148,
          "midi": 73,
          "name": "C#5",
          "ticks": 13920,
          "time": 25.2905375,
          "velocity": 0.9763779527559056
        },
        {
          "duration": 0.34156760416667,
          "durationTicks": 188,
          "midi": 76,
          "name": "E5",
          "ticks": 14016,
          "time": 25.464955,
          "velocity": 0.9606299212598425
        },
        {
          "duration": 0.3270328125000006,
          "durationTicks": 180,
          "midi": 81,
          "name": "A5",
          "ticks": 14112,
          "time": 25.6393725,
          "velocity": 0.9921259842519685
        },
        {
          "duration": 0.4542122395833381,
          "durationTicks": 250,
          "midi": 64,
          "name": "E4",
          "ticks": 14200,
          "time": 25.79925520833333,
          "velocity": 0.8582677165354331
        },
        {
          "duration": 0.46511333333333127,
          "durationTicks": 256,
          "midi": 69,
          "name": "A4",
          "ticks": 14210,
          "time": 25.81742369791667,
          "velocity": 0.7559055118110236
        },
        {
          "duration": 0.2543588541666679,
          "durationTicks": 140,
          "midi": 73,
          "name": "C#5",
          "ticks": 14304,
          "time": 25.9882075,
          "velocity": 0.937007874015748
        },
        {
          "duration": 0.3415676041666664,
          "durationTicks": 188,
          "midi": 76,
          "name": "E5",
          "ticks": 14400,
          "time": 26.162625000000002,
          "velocity": 0.9606299212598425
        },
        {
          "duration": 0.37790458333333277,
          "durationTicks": 208,
          "midi": 81,
          "name": "A5",
          "ticks": 14496,
          "time": 26.3370425,
          "velocity": 0.9763779527559056
        },
        {
          "duration": 0.45784593750000013,
          "durationTicks": 252,
          "midi": 64,
          "name": "E4",
          "ticks": 14584,
          "time": 26.496925208333334,
          "velocity": 0.8582677165354331
        },
        {
          "duration": 0.4723807291666695,
          "durationTicks": 260,
          "midi": 69,
          "name": "A4",
          "ticks": 14592,
          "time": 26.51146,
          "velocity": 0.7244094488188977
        },
        {
          "duration": 0.2834284374999996,
          "durationTicks": 156,
          "midi": 73,
          "name": "C#5",
          "ticks": 14688,
          "time": 26.6858775,
          "velocity": 0.937007874015748
        },
        {
          "duration": 0.3415676041666664,
          "durationTicks": 188,
          "midi": 76,
          "name": "E5",
          "ticks": 14784,
          "time": 26.860295,
          "velocity": 1
        },
        {
          "duration": 0.3924393749999986,
          "durationTicks": 216,
          "midi": 81,
          "name": "A5",
          "ticks": 14880,
          "time": 27.0347125,
          "velocity": 0.9921259842519685
        },
        {
          "duration": 0.4723807291666624,
          "durationTicks": 260,
          "midi": 64,
          "name": "E4",
          "ticks": 14966,
          "time": 27.19096151041667,
          "velocity": 0.8582677165354331
        },
        {
          "duration": 0.47238072916666596,
          "durationTicks": 260,
          "midi": 69,
          "name": "A4",
          "ticks": 14972,
          "time": 27.201862604166667,
          "velocity": 0.7637795275590551
        },
        {
          "duration": 0.2543588541666715,
          "durationTicks": 140,
          "midi": 73,
          "name": "C#5",
          "ticks": 15072,
          "time": 27.3835475,
          "velocity": 0.9606299212598425
        },
        {
          "duration": 0.24345776041666767,
          "durationTicks": 134,
          "midi": 76,
          "name": "E5",
          "ticks": 15168,
          "time": 27.557965,
          "velocity": 0.9763779527559056
        },
        {
          "duration": 0.16715010416666942,
          "durationTicks": 92,
          "midi": 81,
          "name": "A5",
          "ticks": 15264,
          "time": 27.7323825,
          "velocity": 1
        },
        {
          "duration": 0.2543588541666679,
          "durationTicks": 140,
          "midi": 70,
          "name": "A#4",
          "ticks": 15360,
          "time": 27.9068,
          "velocity": 0.7401574803149606
        },
        {
          "duration": 0.4869155208333318,
          "durationTicks": 268,
          "midi": 67,
          "name": "G4",
          "ticks": 15366,
          "time": 27.91770109375,
          "velocity": 0.952755905511811
        },
        {
          "duration": 0.15261531250000004,
          "durationTicks": 84,
          "midi": 70,
          "name": "A#4",
          "ticks": 15550,
          "time": 28.252001302083332,
          "velocity": 0.952755905511811
        },
        {
          "duration": 0.14898161458333092,
          "durationTicks": 82,
          "midi": 74,
          "name": "D5",
          "ticks": 15558,
          "time": 28.266536093750002,
          "velocity": 0.9763779527559056
        },
        {
          "duration": 0.3124980208333312,
          "durationTicks": 172,
          "midi": 74,
          "name": "D5",
          "ticks": 15648,
          "time": 28.430052500000002,
          "velocity": 0.8976377952755905
        },
        {
          "duration": 0.3124980208333312,
          "durationTicks": 172,
          "midi": 79,
          "name": "G5",
          "ticks": 15648,
          "time": 28.430052500000002,
          "velocity": 0.937007874015748
        },
        {
          "duration": 0.279794739583334,
          "durationTicks": 154,
          "midi": 67,
          "name": "G4",
          "ticks": 15656,
          "time": 28.444587291666668,
          "velocity": 0.8976377952755905
        },
        {
          "duration": 0.26525994791666463,
          "durationTicks": 146,
          "midi": 70,
          "name": "A#4",
          "ticks": 15662,
          "time": 28.45548838541667,
          "velocity": 0.889763779527559
        },
        {
          "duration": 0.10901093749999902,
          "durationTicks": 60,
          "midi": 67,
          "name": "G4",
          "ticks": 15840,
          "time": 28.7788875,
          "velocity": 0.8582677165354331
        },
        {
          "duration": 0.07994135416666737,
          "durationTicks": 44,
          "midi": 70,
          "name": "A#4",
          "ticks": 15840,
          "time": 28.7788875,
          "velocity": 0.7952755905511811
        },
        {
          "duration": 0.1271794270833304,
          "durationTicks": 70,
          "midi": 67,
          "name": "G4",
          "ticks": 15936,
          "time": 28.953305,
          "velocity": 0.937007874015748
        },
        {
          "duration": 0.1235457291666684,
          "durationTicks": 68,
          "midi": 70,
          "name": "A#4",
          "ticks": 15948,
          "time": 28.9751071875,
          "velocity": 0.9133858267716536
        },
        {
          "duration": 0.13808052083333067,
          "durationTicks": 76,
          "midi": 74,
          "name": "D5",
          "ticks": 15948,
          "time": 28.9751071875,
          "velocity": 0.937007874015748
        },
        {
          "duration": 0.15261531250000004,
          "durationTicks": 84,
          "midi": 70,
          "name": "A#4",
          "ticks": 16032,
          "time": 29.1277225,
          "velocity": 0.7637795275590551
        },
        {
          "duration": 0.13808052083333067,
          "durationTicks": 76,
          "midi": 74,
          "name": "D5",
          "ticks": 16032,
          "time": 29.1277225,
          "velocity": 0.8582677165354331
        },
        {
          "duration": 0.3415676041666664,
          "durationTicks": 188,
          "midi": 79,
          "name": "G5",
          "ticks": 16032,
          "time": 29.1277225,
          "velocity": 0.8582677165354331
        },
        {
          "duration": 0.22528927083332917,
          "durationTicks": 124,
          "midi": 70,
          "name": "A#4",
          "ticks": 16128,
          "time": 29.30214,
          "velocity": 0.9133858267716536
        },
        {
          "duration": 0.2834284374999996,
          "durationTicks": 156,
          "midi": 74,
          "name": "D5",
          "ticks": 16128,
          "time": 29.30214,
          "velocity": 0.8582677165354331
        },
        {
          "duration": 0.44331114583333076,
          "durationTicks": 244,
          "midi": 67,
          "name": "G4",
          "ticks": 16134,
          "time": 29.31304109375,
          "velocity": 0.905511811023622
        },
        {
          "duration": 0.16715010416666587,
          "durationTicks": 92,
          "midi": 69,
          "name": "A4",
          "ticks": 16224,
          "time": 29.476557500000002,
          "velocity": 0.9212598425196851
        },
        {
          "duration": 0.13808052083333422,
          "durationTicks": 76,
          "midi": 70,
          "name": "A#4",
          "ticks": 16316,
          "time": 29.643707604166668,
          "velocity": 0.9448818897637795
        },
        {
          "duration": 0.10901093749999902,
          "durationTicks": 60,
          "midi": 74,
          "name": "D5",
          "ticks": 16328,
          "time": 29.66550979166667,
          "velocity": 0.9763779527559056
        },
        {
          "duration": 0.09447614583333319,
          "durationTicks": 52,
          "midi": 79,
          "name": "G5",
          "ticks": 16328,
          "time": 29.66550979166667,
          "velocity": 0.6299212598425197
        },
        {
          "duration": 0.3124980208333312,
          "durationTicks": 172,
          "midi": 67,
          "name": "G4",
          "ticks": 16416,
          "time": 29.8253925,
          "velocity": 0.7637795275590551
        },
        {
          "duration": 0.3124980208333312,
          "durationTicks": 172,
          "midi": 70,
          "name": "A#4",
          "ticks": 16416,
          "time": 29.8253925,
          "velocity": 0.8661417322834646
        },
        {
          "duration": 0.29796322916666895,
          "durationTicks": 164,
          "midi": 74,
          "name": "D5",
          "ticks": 16416,
          "time": 29.8253925,
          "velocity": 0.8976377952755905
        },
        {
          "duration": 0.31613171875000035,
          "durationTicks": 174,
          "midi": 79,
          "name": "G5",
          "ticks": 16416,
          "time": 29.8253925,
          "velocity": 0.937007874015748
        },
        {
          "duration": 0.10901093749999902,
          "durationTicks": 60,
          "midi": 67,
          "name": "G4",
          "ticks": 16608,
          "time": 30.1742275,
          "velocity": 0.8582677165354331
        },
        {
          "duration": 0.1235457291666684,
          "durationTicks": 68,
          "midi": 70,
          "name": "A#4",
          "ticks": 16608,
          "time": 30.1742275,
          "velocity": 0.8503937007874016
        },
        {
          "duration": 0.1816848958333317,
          "durationTicks": 100,
          "midi": 67,
          "name": "G4",
          "ticks": 16706,
          "time": 30.35227869791667,
          "velocity": 0.937007874015748
        },
        {
          "duration": 0.12354572916666129,
          "durationTicks": 68,
          "midi": 70,
          "name": "A#4",
          "ticks": 16712,
          "time": 30.36317979166667,
          "velocity": 0.9291338582677166
        },
        {
          "duration": 0.1635164062500003,
          "durationTicks": 90,
          "midi": 74,
          "name": "D5",
          "ticks": 16714,
          "time": 30.366813489583333,
          "velocity": 0.937007874015748
        },
        {
          "duration": 0.15261531250000004,
          "durationTicks": 84,
          "midi": 70,
          "name": "A#4",
          "ticks": 16808,
          "time": 30.537597291666668,
          "velocity": 0.7637795275590551
        },
        {
          "duration": 0.15261531250000004,
          "durationTicks": 84,
          "midi": 74,
          "name": "D5",
          "ticks": 16808,
          "time": 30.537597291666668,
          "velocity": 0.8582677165354331
        },
        {
          "duration": 0.2979632291666654,
          "durationTicks": 164,
          "midi": 79,
          "name": "G5",
          "ticks": 16808,
          "time": 30.537597291666668,
          "velocity": 0.8582677165354331
        },
        {
          "duration": 0.2543588541666715,
          "durationTicks": 140,
          "midi": 70,
          "name": "A#4",
          "ticks": 16896,
          "time": 30.69748,
          "velocity": 0.9133858267716536
        },
        {
          "duration": 0.4869155208333318,
          "durationTicks": 268,
          "midi": 67,
          "name": "G4",
          "ticks": 16902,
          "time": 30.70838109375,
          "velocity": 0.952755905511811
        },
        {
          "duration": 0.16715010416666942,
          "durationTicks": 92,
          "midi": 69,
          "name": "A4",
          "ticks": 16992,
          "time": 30.8718975,
          "velocity": 0.9212598425196851
        },
        {
          "duration": 0.15261531250000004,
          "durationTicks": 84,
          "midi": 70,
          "name": "A#4",
          "ticks": 17086,
          "time": 31.04268130208333,
          "velocity": 0.952755905511811
        },
        {
          "duration": 0.09447614583333674,
          "durationTicks": 52,
          "midi": 79,
          "name": "G5",
          "ticks": 17092,
          "time": 31.05358239583333,
          "velocity": 0.6141732283464567
        },
        {
          "duration": 0.14898161458333092,
          "durationTicks": 82,
          "midi": 74,
          "name": "D5",
          "ticks": 17094,
          "time": 31.05721609375,
          "velocity": 0.9763779527559056
        },
        {
          "duration": 0.3124980208333312,
          "durationTicks": 172,
          "midi": 74,
          "name": "D5",
          "ticks": 17184,
          "time": 31.2207325,
          "velocity": 0.8976377952755905
        },
        {
          "duration": 0.3124980208333312,
          "durationTicks": 172,
          "midi": 79,
          "name": "G5",
          "ticks": 17184,
          "time": 31.2207325,
          "velocity": 0.8976377952755905
        },
        {
          "duration": 0.27979473958333045,
          "durationTicks": 154,
          "midi": 67,
          "name": "G4",
          "ticks": 17192,
          "time": 31.23526729166667,
          "velocity": 0.8976377952755905
        },
        {
          "duration": 0.2652599479166611,
          "durationTicks": 146,
          "midi": 70,
          "name": "A#4",
          "ticks": 17198,
          "time": 31.24616838541667,
          "velocity": 0.889763779527559
        },
        {
          "duration": 0.10901093749999902,
          "durationTicks": 60,
          "midi": 67,
          "name": "G4",
          "ticks": 17376,
          "time": 31.5695675,
          "velocity": 0.8582677165354331
        },
        {
          "duration": 0.07994135416666737,
          "durationTicks": 44,
          "midi": 70,
          "name": "A#4",
          "ticks": 17376,
          "time": 31.5695675,
          "velocity": 0.7952755905511811
        },
        {
          "duration": 0.1271794270833304,
          "durationTicks": 70,
          "midi": 67,
          "name": "G4",
          "ticks": 17472,
          "time": 31.743985000000002,
          "velocity": 0.937007874015748
        },
        {
          "duration": 0.1235457291666684,
          "durationTicks": 68,
          "midi": 70,
          "name": "A#4",
          "ticks": 17484,
          "time": 31.7657871875,
          "velocity": 0.9133858267716536
        },
        {
          "duration": 0.13808052083333422,
          "durationTicks": 76,
          "midi": 74,
          "name": "D5",
          "ticks": 17484,
          "time": 31.7657871875,
          "velocity": 0.937007874015748
        },
        {
          "duration": 0.1526153125000036,
          "durationTicks": 84,
          "midi": 70,
          "name": "A#4",
          "ticks": 17568,
          "time": 31.9184025,
          "velocity": 0.7637795275590551
        },
        {
          "duration": 0.13808052083333422,
          "durationTicks": 76,
          "midi": 74,
          "name": "D5",
          "ticks": 17568,
          "time": 31.9184025,
          "velocity": 0.8582677165354331
        },
        {
          "duration": 0.3124980208333312,
          "durationTicks": 172,
          "midi": 79,
          "name": "G5",
          "ticks": 17568,
          "time": 31.9184025,
          "velocity": 0.8740157480314961
        },
        {
          "duration": 0.2834284374999996,
          "durationTicks": 156,
          "midi": 70,
          "name": "A#4",
          "ticks": 17664,
          "time": 32.09282,
          "velocity": 0.7637795275590551
        },
        {
          "duration": 0.2834284374999996,
          "durationTicks": 156,
          "midi": 74,
          "name": "D5",
          "ticks": 17664,
          "time": 32.09282,
          "velocity": 0.8582677165354331
        },
        {
          "duration": 0.4433111458333272,
          "durationTicks": 244,
          "midi": 67,
          "name": "G4",
          "ticks": 17670,
          "time": 32.10372109375,
          "velocity": 0.905511811023622
        },
        {
          "duration": 0.16715010416666587,
          "durationTicks": 92,
          "midi": 69,
          "name": "A4",
          "ticks": 17762,
          "time": 32.27087119791667,
          "velocity": 0.9212598425196851
        },
        {
          "duration": 0.13808052083333422,
          "durationTicks": 76,
          "midi": 70,
          "name": "A#4",
          "ticks": 17852,
          "time": 32.434387604166666,
          "velocity": 0.9448818897637795
        },
        {
          "duration": 0.10901093750000257,
          "durationTicks": 60,
          "midi": 74,
          "name": "D5",
          "ticks": 17864,
          "time": 32.45618979166667,
          "velocity": 0.9763779527559056
        },
        {
          "duration": 0.10901093750000257,
          "durationTicks": 60,
          "midi": 79,
          "name": "G5",
          "ticks": 17864,
          "time": 32.45618979166667,
          "velocity": 0.6220472440944882
        },
        {
          "duration": 0.3124980208333312,
          "durationTicks": 172,
          "midi": 67,
          "name": "G4",
          "ticks": 17952,
          "time": 32.6160725,
          "velocity": 0.7637795275590551
        },
        {
          "duration": 0.3124980208333312,
          "durationTicks": 172,
          "midi": 70,
          "name": "A#4",
          "ticks": 17952,
          "time": 32.6160725,
          "velocity": 0.8661417322834646
        },
        {
          "duration": 0.29796322916666895,
          "durationTicks": 164,
          "midi": 74,
          "name": "D5",
          "ticks": 17952,
          "time": 32.6160725,
          "velocity": 0.8976377952755905
        },
        {
          "duration": 0.31613171875000035,
          "durationTicks": 174,
          "midi": 79,
          "name": "G5",
          "ticks": 17952,
          "time": 32.6160725,
          "velocity": 0.8976377952755905
        },
        {
          "duration": 0.10901093749999546,
          "durationTicks": 60,
          "midi": 67,
          "name": "G4",
          "ticks": 18144,
          "time": 32.9649075,
          "velocity": 0.8582677165354331
        },
        {
          "duration": 0.12354572916666484,
          "durationTicks": 68,
          "midi": 70,
          "name": "A#4",
          "ticks": 18144,
          "time": 32.9649075,
          "velocity": 0.8503937007874016
        },
        {
          "duration": 0.27979473958333045,
          "durationTicks": 154,
          "midi": 67,
          "name": "G4",
          "ticks": 18242,
          "time": 33.14295869791667,
          "velocity": 0.937007874015748
        },
        {
          "duration": 0.29796322916666185,
          "durationTicks": 164,
          "midi": 70,
          "name": "A#4",
          "ticks": 18248,
          "time": 33.15385979166667,
          "velocity": 0.9291338582677166
        },
        {
          "duration": 0.29796322916666895,
          "durationTicks": 164,
          "midi": 74,
          "name": "D5",
          "ticks": 18250,
          "time": 33.15749348958333,
          "velocity": 0.937007874015748
        },
        {
          "duration": 0.29796322916666895,
          "durationTicks": 164,
          "midi": 79,
          "name": "G5",
          "ticks": 18250,
          "time": 33.15749348958333,
          "velocity": 0.937007874015748
        },
        {
          "duration": 0.2543588541666679,
          "durationTicks": 140,
          "midi": 70,
          "name": "A#4",
          "ticks": 18432,
          "time": 33.48816,
          "velocity": 0.7401574803149606
        },
        {
          "duration": 0.48691552083332823,
          "durationTicks": 268,
          "midi": 67,
          "name": "G4",
          "ticks": 18438,
          "time": 33.49906109375,
          "velocity": 0.952755905511811
        },
        {
          "duration": 0.1526153124999965,
          "durationTicks": 84,
          "midi": 70,
          "name": "A#4",
          "ticks": 18622,
          "time": 33.83336130208333,
          "velocity": 0.952755905511811
        },
        {
          "duration": 0.14898161458332737,
          "durationTicks": 82,
          "midi": 74,
          "name": "D5",
          "ticks": 18630,
          "time": 33.84789609375,
          "velocity": 0.9763779527559056
        },
        {
          "duration": 0.3124980208333312,
          "durationTicks": 172,
          "midi": 74,
          "name": "D5",
          "ticks": 18720,
          "time": 34.0114125,
          "velocity": 0.8976377952755905
        },
        {
          "duration": 0.3124980208333312,
          "durationTicks": 172,
          "midi": 79,
          "name": "G5",
          "ticks": 18720,
          "time": 34.0114125,
          "velocity": 0.937007874015748
        },
        {
          "duration": 0.27979473958333045,
          "durationTicks": 154,
          "midi": 67,
          "name": "G4",
          "ticks": 18728,
          "time": 34.02594729166667,
          "velocity": 0.8976377952755905
        },
        {
          "duration": 0.2652599479166611,
          "durationTicks": 146,
          "midi": 70,
          "name": "A#4",
          "ticks": 18734,
          "time": 34.03684838541667,
          "velocity": 0.889763779527559
        },
        {
          "duration": 0.10901093750000257,
          "durationTicks": 60,
          "midi": 67,
          "name": "G4",
          "ticks": 18912,
          "time": 34.3602475,
          "velocity": 0.8582677165354331
        },
        {
          "duration": 0.07994135416667092,
          "durationTicks": 44,
          "midi": 70,
          "name": "A#4",
          "ticks": 18912,
          "time": 34.3602475,
          "velocity": 0.7952755905511811
        },
        {
          "duration": 0.12717942708332686,
          "durationTicks": 70,
          "midi": 67,
          "name": "G4",
          "ticks": 19008,
          "time": 34.534665000000004,
          "velocity": 0.937007874015748
        },
        {
          "duration": 0.12354572916667195,
          "durationTicks": 68,
          "midi": 70,
          "name": "A#4",
          "ticks": 19020,
          "time": 34.5564671875,
          "velocity": 0.9133858267716536
        },
        {
          "duration": 0.13808052083333422,
          "durationTicks": 76,
          "midi": 74,
          "name": "D5",
          "ticks": 19020,
          "time": 34.5564671875,
          "velocity": 0.937007874015748
        },
        {
          "duration": 0.1526153124999965,
          "durationTicks": 84,
          "midi": 70,
          "name": "A#4",
          "ticks": 19104,
          "time": 34.7090825,
          "velocity": 0.7637795275590551
        },
        {
          "duration": 0.13808052083333422,
          "durationTicks": 76,
          "midi": 74,
          "name": "D5",
          "ticks": 19104,
          "time": 34.7090825,
          "velocity": 0.8582677165354331
        },
        {
          "duration": 0.34156760416667,
          "durationTicks": 188,
          "midi": 79,
          "name": "G5",
          "ticks": 19104,
          "time": 34.7090825,
          "velocity": 0.8582677165354331
        },
        {
          "duration": 0.22528927083333627,
          "durationTicks": 124,
          "midi": 70,
          "name": "A#4",
          "ticks": 19200,
          "time": 34.8835,
          "velocity": 0.9133858267716536
        },
        {
          "duration": 0.2834284374999996,
          "durationTicks": 156,
          "midi": 74,
          "name": "D5",
          "ticks": 19200,
          "time": 34.8835,
          "velocity": 0.8582677165354331
        },
        {
          "duration": 0.4433111458333343,
          "durationTicks": 244,
          "midi": 67,
          "name": "G4",
          "ticks": 19206,
          "time": 34.89440109375,
          "velocity": 0.905511811023622
        },
        {
          "duration": 0.16715010416666587,
          "durationTicks": 92,
          "midi": 69,
          "name": "A4",
          "ticks": 19296,
          "time": 35.0579175,
          "velocity": 0.9212598425196851
        },
        {
          "duration": 0.13808052083333422,
          "durationTicks": 76,
          "midi": 70,
          "name": "A#4",
          "ticks": 19388,
          "time": 35.22506760416667,
          "velocity": 0.9448818897637795
        },
        {
          "duration": 0.10901093750000257,
          "durationTicks": 60,
          "midi": 74,
          "name": "D5",
          "ticks": 19400,
          "time": 35.24686979166667,
          "velocity": 0.9763779527559056
        },
        {
          "duration": 0.09447614583333319,
          "durationTicks": 52,
          "midi": 79,
          "name": "G5",
          "ticks": 19400,
          "time": 35.24686979166667,
          "velocity": 0.6299212598425197
        },
        {
          "duration": 0.3124980208333312,
          "durationTicks": 172,
          "midi": 67,
          "name": "G4",
          "ticks": 19488,
          "time": 35.4067525,
          "velocity": 0.7637795275590551
        },
        {
          "duration": 0.2107544791666669,
          "durationTicks": 116,
          "midi": 70,
          "name": "A#4",
          "ticks": 19488,
          "time": 35.4067525,
          "velocity": 0.8661417322834646
        },
        {
          "duration": 0.2107544791666669,
          "durationTicks": 116,
          "midi": 74,
          "name": "D5",
          "ticks": 19488,
          "time": 35.4067525,
          "velocity": 0.8976377952755905
        },
        {
          "duration": 0.31613171875000035,
          "durationTicks": 174,
          "midi": 79,
          "name": "G5",
          "ticks": 19488,
          "time": 35.4067525,
          "velocity": 0.937007874015748
        },
        {
          "duration": 0.23982406249999855,
          "durationTicks": 132,
          "midi": 69,
          "name": "A4",
          "ticks": 19604,
          "time": 35.61750697916667,
          "velocity": 0.9763779527559056
        },
        {
          "duration": 0.10901093750000257,
          "durationTicks": 60,
          "midi": 67,
          "name": "G4",
          "ticks": 19680,
          "time": 35.7555875,
          "velocity": 0.8582677165354331
        },
        {
          "duration": 0.09447614583333319,
          "durationTicks": 52,
          "midi": 70,
          "name": "A#4",
          "ticks": 19680,
          "time": 35.7555875,
          "velocity": 0.8503937007874016
        },
        {
          "duration": 0.29796322916666895,
          "durationTicks": 164,
          "midi": 67,
          "name": "G4",
          "ticks": 19768,
          "time": 35.91547020833333,
          "velocity": 0.984251968503937
        },
        {
          "duration": 0.12354572916666484,
          "durationTicks": 68,
          "midi": 70,
          "name": "A#4",
          "ticks": 19784,
          "time": 35.94453979166667,
          "velocity": 0.9291338582677166
        },
        {
          "duration": 0.16351640624999675,
          "durationTicks": 90,
          "midi": 74,
          "name": "D5",
          "ticks": 19786,
          "time": 35.94817348958333,
          "velocity": 0.937007874015748
        },
        {
          "duration": 0.1526153125000036,
          "durationTicks": 84,
          "midi": 70,
          "name": "A#4",
          "ticks": 19880,
          "time": 36.11895729166667,
          "velocity": 0.7637795275590551
        },
        {
          "duration": 0.13808052083333422,
          "durationTicks": 76,
          "midi": 74,
          "name": "D5",
          "ticks": 19880,
          "time": 36.11895729166667,
          "velocity": 0.8582677165354331
        },
        {
          "duration": 0.29796322916666185,
          "durationTicks": 164,
          "midi": 79,
          "name": "G5",
          "ticks": 19880,
          "time": 36.11895729166667,
          "velocity": 0.8582677165354331
        },
        {
          "duration": 0.2543588541666679,
          "durationTicks": 140,
          "midi": 70,
          "name": "A#4",
          "ticks": 19968,
          "time": 36.27884,
          "velocity": 0.9133858267716536
        },
        {
          "duration": 0.48691552083332823,
          "durationTicks": 268,
          "midi": 67,
          "name": "G4",
          "ticks": 19974,
          "time": 36.28974109375,
          "velocity": 0.952755905511811
        },
        {
          "duration": 0.16715010416667297,
          "durationTicks": 92,
          "midi": 69,
          "name": "A4",
          "ticks": 20064,
          "time": 36.4532575,
          "velocity": 0.9212598425196851
        },
        {
          "duration": 0.1526153124999965,
          "durationTicks": 84,
          "midi": 70,
          "name": "A#4",
          "ticks": 20158,
          "time": 36.624041302083334,
          "velocity": 0.952755905511811
        },
        {
          "duration": 0.09447614583333319,
          "durationTicks": 52,
          "midi": 79,
          "name": "G5",
          "ticks": 20164,
          "time": 36.634942395833335,
          "velocity": 0.6141732283464567
        },
        {
          "duration": 0.14898161458332737,
          "durationTicks": 82,
          "midi": 74,
          "name": "D5",
          "ticks": 20166,
          "time": 36.638576093750004,
          "velocity": 0.9763779527559056
        },
        {
          "duration": 0.3124980208333312,
          "durationTicks": 172,
          "midi": 74,
          "name": "D5",
          "ticks": 20256,
          "time": 36.8020925,
          "velocity": 0.8976377952755905
        },
        {
          "duration": 0.3124980208333312,
          "durationTicks": 172,
          "midi": 79,
          "name": "G5",
          "ticks": 20256,
          "time": 36.8020925,
          "velocity": 0.8976377952755905
        },
        {
          "duration": 0.27979473958333045,
          "durationTicks": 154,
          "midi": 67,
          "name": "G4",
          "ticks": 20264,
          "time": 36.81662729166667,
          "velocity": 0.8976377952755905
        },
        {
          "duration": 0.2652599479166611,
          "durationTicks": 146,
          "midi": 70,
          "name": "A#4",
          "ticks": 20270,
          "time": 36.82752838541667,
          "velocity": 0.889763779527559
        },
        {
          "duration": 0.10901093749999546,
          "durationTicks": 60,
          "midi": 67,
          "name": "G4",
          "ticks": 20448,
          "time": 37.1509275,
          "velocity": 0.8582677165354331
        },
        {
          "duration": 0.07994135416666381,
          "durationTicks": 44,
          "midi": 70,
          "name": "A#4",
          "ticks": 20448,
          "time": 37.1509275,
          "velocity": 0.7952755905511811
        },
        {
          "duration": 0.12717942708333396,
          "durationTicks": 70,
          "midi": 67,
          "name": "G4",
          "ticks": 20544,
          "time": 37.325345,
          "velocity": 0.937007874015748
        },
        {
          "duration": 0.12354572916667195,
          "durationTicks": 68,
          "midi": 70,
          "name": "A#4",
          "ticks": 20556,
          "time": 37.3471471875,
          "velocity": 0.9133858267716536
        },
        {
          "duration": 0.13808052083333422,
          "durationTicks": 76,
          "midi": 74,
          "name": "D5",
          "ticks": 20556,
          "time": 37.3471471875,
          "velocity": 0.937007874015748
        },
        {
          "duration": 0.1526153124999965,
          "durationTicks": 84,
          "midi": 70,
          "name": "A#4",
          "ticks": 20640,
          "time": 37.4997625,
          "velocity": 0.7637795275590551
        },
        {
          "duration": 0.13808052083332711,
          "durationTicks": 76,
          "midi": 74,
          "name": "D5",
          "ticks": 20640,
          "time": 37.4997625,
          "velocity": 0.8582677165354331
        },
        {
          "duration": 0.3124980208333312,
          "durationTicks": 172,
          "midi": 79,
          "name": "G5",
          "ticks": 20640,
          "time": 37.4997625,
          "velocity": 0.8740157480314961
        },
        {
          "duration": 0.2834284374999996,
          "durationTicks": 156,
          "midi": 70,
          "name": "A#4",
          "ticks": 20736,
          "time": 37.67418,
          "velocity": 0.7637795275590551
        },
        {
          "duration": 0.2834284374999996,
          "durationTicks": 156,
          "midi": 74,
          "name": "D5",
          "ticks": 20736,
          "time": 37.67418,
          "velocity": 0.8582677165354331
        },
        {
          "duration": 0.4433111458333343,
          "durationTicks": 244,
          "midi": 67,
          "name": "G4",
          "ticks": 20742,
          "time": 37.68508109375,
          "velocity": 0.905511811023622
        },
        {
          "duration": 0.16715010416666587,
          "durationTicks": 92,
          "midi": 69,
          "name": "A4",
          "ticks": 20834,
          "time": 37.852231197916666,
          "velocity": 0.9212598425196851
        },
        {
          "duration": 0.13808052083333422,
          "durationTicks": 76,
          "midi": 70,
          "name": "A#4",
          "ticks": 20924,
          "time": 38.01574760416667,
          "velocity": 0.9448818897637795
        },
        {
          "duration": 0.10901093749999546,
          "durationTicks": 60,
          "midi": 74,
          "name": "D5",
          "ticks": 20936,
          "time": 38.03754979166667,
          "velocity": 0.9763779527559056
        },
        {
          "duration": 0.10901093749999546,
          "durationTicks": 60,
          "midi": 79,
          "name": "G5",
          "ticks": 20936,
          "time": 38.03754979166667,
          "velocity": 0.6220472440944882
        },
        {
          "duration": 0.4433111458333343,
          "durationTicks": 244,
          "midi": 67,
          "name": "G4",
          "ticks": 21024,
          "time": 38.1974325,
          "velocity": 0.7637795275590551
        },
        {
          "duration": 0.13808052083333422,
          "durationTicks": 76,
          "midi": 70,
          "name": "A#4",
          "ticks": 21024,
          "time": 38.1974325,
          "velocity": 0.8661417322834646
        },
        {
          "duration": 0.41424156250000266,
          "durationTicks": 228,
          "midi": 74,
          "name": "D5",
          "ticks": 21024,
          "time": 38.1974325,
          "velocity": 0.8976377952755905
        },
        {
          "duration": 0.4578459375000037,
          "durationTicks": 252,
          "midi": 79,
          "name": "G5",
          "ticks": 21024,
          "time": 38.1974325,
          "velocity": 0.8976377952755905
        },
        {
          "duration": 0.2543588541666679,
          "durationTicks": 140,
          "midi": 70,
          "name": "A#4",
          "ticks": 21138,
          "time": 38.40455328125,
          "velocity": 0.968503937007874
        },
        {
          "duration": 0.27979473958333045,
          "durationTicks": 154,
          "midi": 67,
          "name": "G4",
          "ticks": 21314,
          "time": 38.72431869791667,
          "velocity": 0.937007874015748
        },
        {
          "duration": 0.2688936458333302,
          "durationTicks": 148,
          "midi": 70,
          "name": "A#4",
          "ticks": 21320,
          "time": 38.73521979166667,
          "velocity": 0.9291338582677166
        },
        {
          "duration": 0.2652599479166682,
          "durationTicks": 146,
          "midi": 74,
          "name": "D5",
          "ticks": 21322,
          "time": 38.738853489583335,
          "velocity": 0.937007874015748
        },
        {
          "duration": 0.2652599479166682,
          "durationTicks": 146,
          "midi": 79,
          "name": "G5",
          "ticks": 21322,
          "time": 38.738853489583335,
          "velocity": 0.937007874015748
        },
        {
          "duration": 0.5450546874999986,
          "durationTicks": 300,
          "midi": 69,
          "name": "A4",
          "ticks": 21334,
          "time": 38.760655677083335,
          "velocity": 0.952755905511811
        },
        {
          "duration": 0.48691552083333534,
          "durationTicks": 268,
          "midi": 65,
          "name": "F4",
          "ticks": 21510,
          "time": 39.08042109375,
          "velocity": 0.952755905511811
        },
        {
          "duration": 0.1526153125000036,
          "durationTicks": 84,
          "midi": 69,
          "name": "A4",
          "ticks": 21694,
          "time": 39.41472130208333,
          "velocity": 0.952755905511811
        },
        {
          "duration": 0.14898161458333448,
          "durationTicks": 82,
          "midi": 72,
          "name": "C5",
          "ticks": 21702,
          "time": 39.42925609375,
          "velocity": 0.9763779527559056
        },
        {
          "duration": 0.3124980208333312,
          "durationTicks": 172,
          "midi": 72,
          "name": "C5",
          "ticks": 21792,
          "time": 39.5927725,
          "velocity": 0.8976377952755905
        },
        {
          "duration": 0.3124980208333312,
          "durationTicks": 172,
          "midi": 77,
          "name": "F5",
          "ticks": 21792,
          "time": 39.5927725,
          "velocity": 0.937007874015748
        },
        {
          "duration": 0.27979473958333045,
          "durationTicks": 154,
          "midi": 65,
          "name": "F4",
          "ticks": 21800,
          "time": 39.60730729166667,
          "velocity": 0.8976377952755905
        },
        {
          "duration": 0.2652599479166611,
          "durationTicks": 146,
          "midi": 69,
          "name": "A4",
          "ticks": 21806,
          "time": 39.61820838541667,
          "velocity": 0.889763779527559
        },
        {
          "duration": 0.10901093749999546,
          "durationTicks": 60,
          "midi": 65,
          "name": "F4",
          "ticks": 21984,
          "time": 39.9416075,
          "velocity": 0.8582677165354331
        },
        {
          "duration": 0.07994135416666381,
          "durationTicks": 44,
          "midi": 69,
          "name": "A4",
          "ticks": 21984,
          "time": 39.9416075,
          "velocity": 0.7952755905511811
        },
        {
          "duration": 0.12717942708333396,
          "durationTicks": 70,
          "midi": 65,
          "name": "F4",
          "ticks": 22080,
          "time": 40.116025,
          "velocity": 0.937007874015748
        },
        {
          "duration": 0.12354572916666484,
          "durationTicks": 68,
          "midi": 69,
          "name": "A4",
          "ticks": 22092,
          "time": 40.1378271875,
          "velocity": 0.9133858267716536
        },
        {
          "duration": 0.13808052083333422,
          "durationTicks": 76,
          "midi": 72,
          "name": "C5",
          "ticks": 22092,
          "time": 40.1378271875,
          "velocity": 0.937007874015748
        },
        {
          "duration": 0.1526153125000036,
          "durationTicks": 84,
          "midi": 69,
          "name": "A4",
          "ticks": 22176,
          "time": 40.2904425,
          "velocity": 0.7637795275590551
        },
        {
          "duration": 0.13808052083333422,
          "durationTicks": 76,
          "midi": 72,
          "name": "C5",
          "ticks": 22176,
          "time": 40.2904425,
          "velocity": 0.8582677165354331
        },
        {
          "duration": 0.34156760416667,
          "durationTicks": 188,
          "midi": 77,
          "name": "F5",
          "ticks": 22176,
          "time": 40.2904425,
          "velocity": 0.8582677165354331
        },
        {
          "duration": 0.22528927083332917,
          "durationTicks": 124,
          "midi": 69,
          "name": "A4",
          "ticks": 22272,
          "time": 40.46486,
          "velocity": 0.9133858267716536
        },
        {
          "duration": 0.2834284374999996,
          "durationTicks": 156,
          "midi": 72,
          "name": "C5",
          "ticks": 22272,
          "time": 40.46486,
          "velocity": 0.8582677165354331
        },
        {
          "duration": 0.4433111458333272,
          "durationTicks": 244,
          "midi": 65,
          "name": "F4",
          "ticks": 22278,
          "time": 40.47576109375,
          "velocity": 0.905511811023622
        },
        {
          "duration": 0.13808052083332711,
          "durationTicks": 76,
          "midi": 69,
          "name": "A4",
          "ticks": 22460,
          "time": 40.80642760416667,
          "velocity": 0.9448818897637795
        },
        {
          "duration": 0.10901093749999546,
          "durationTicks": 60,
          "midi": 72,
          "name": "C5",
          "ticks": 22472,
          "time": 40.82822979166667,
          "velocity": 0.9763779527559056
        },
        {
          "duration": 0.09447614583332609,
          "durationTicks": 52,
          "midi": 77,
          "name": "F5",
          "ticks": 22472,
          "time": 40.82822979166667,
          "velocity": 0.6299212598425197
        },
        {
          "duration": 0.3124980208333312,
          "durationTicks": 172,
          "midi": 65,
          "name": "F4",
          "ticks": 22560,
          "time": 40.9881125,
          "velocity": 0.7637795275590551
        },
        {
          "duration": 0.3124980208333312,
          "durationTicks": 172,
          "midi": 69,
          "name": "A4",
          "ticks": 22560,
          "time": 40.9881125,
          "velocity": 0.8661417322834646
        },
        {
          "duration": 0.29796322916666895,
          "durationTicks": 164,
          "midi": 72,
          "name": "C5",
          "ticks": 22560,
          "time": 40.9881125,
          "velocity": 0.8976377952755905
        },
        {
          "duration": 0.31613171875000035,
          "durationTicks": 174,
          "midi": 77,
          "name": "F5",
          "ticks": 22560,
          "time": 40.9881125,
          "velocity": 0.937007874015748
        },
        {
          "duration": 0.10901093750000257,
          "durationTicks": 60,
          "midi": 65,
          "name": "F4",
          "ticks": 22752,
          "time": 41.3369475,
          "velocity": 0.8582677165354331
        },
        {
          "duration": 0.12354572916666484,
          "durationTicks": 68,
          "midi": 69,
          "name": "A4",
          "ticks": 22752,
          "time": 41.3369475,
          "velocity": 0.8503937007874016
        },
        {
          "duration": 0.18168489583333525,
          "durationTicks": 100,
          "midi": 65,
          "name": "F4",
          "ticks": 22850,
          "time": 41.51499869791667,
          "velocity": 0.937007874015748
        },
        {
          "duration": 0.12354572916666484,
          "durationTicks": 68,
          "midi": 69,
          "name": "A4",
          "ticks": 22856,
          "time": 41.52589979166667,
          "velocity": 0.9291338582677166
        },
        {
          "duration": 0.16351640625000385,
          "durationTicks": 90,
          "midi": 72,
          "name": "C5",
          "ticks": 22858,
          "time": 41.52953348958333,
          "velocity": 0.937007874015748
        },
        {
          "duration": 0.1526153124999965,
          "durationTicks": 84,
          "midi": 69,
          "name": "A4",
          "ticks": 22952,
          "time": 41.70031729166667,
          "velocity": 0.7637795275590551
        },
        {
          "duration": 0.1526153124999965,
          "durationTicks": 84,
          "midi": 72,
          "name": "C5",
          "ticks": 22952,
          "time": 41.70031729166667,
          "velocity": 0.8582677165354331
        },
        {
          "duration": 0.29796322916666185,
          "durationTicks": 164,
          "midi": 77,
          "name": "F5",
          "ticks": 22952,
          "time": 41.70031729166667,
          "velocity": 0.8582677165354331
        },
        {
          "duration": 0.2543588541666679,
          "durationTicks": 140,
          "midi": 74,
          "name": "D5",
          "ticks": 23040,
          "time": 41.8602,
          "velocity": 0.9133858267716536
        },
        {
          "duration": 0.48691552083333534,
          "durationTicks": 268,
          "midi": 69,
          "name": "A4",
          "ticks": 23046,
          "time": 41.87110109375,
          "velocity": 0.952755905511811
        },
        {
          "duration": 0.1526153125000036,
          "durationTicks": 84,
          "midi": 74,
          "name": "D5",
          "ticks": 23230,
          "time": 42.20540130208333,
          "velocity": 0.952755905511811
        },
        {
          "duration": 0.0944761458333403,
          "durationTicks": 52,
          "midi": 66,
          "name": "F#4",
          "ticks": 23236,
          "time": 42.21630239583333,
          "velocity": 0.6141732283464567
        },
        {
          "duration": 0.14898161458333448,
          "durationTicks": 82,
          "midi": 78,
          "name": "F#5",
          "ticks": 23238,
          "time": 42.21993609375,
          "velocity": 0.9763779527559056
        },
        {
          "duration": 0.3124980208333312,
          "durationTicks": 172,
          "midi": 66,
          "name": "F#4",
          "ticks": 23328,
          "time": 42.383452500000004,
          "velocity": 0.8976377952755905
        },
        {
          "duration": 0.3124980208333312,
          "durationTicks": 172,
          "midi": 78,
          "name": "F#5",
          "ticks": 23328,
          "time": 42.383452500000004,
          "velocity": 0.8976377952755905
        },
        {
          "duration": 0.27979473958333756,
          "durationTicks": 154,
          "midi": 69,
          "name": "A4",
          "ticks": 23336,
          "time": 42.39798729166667,
          "velocity": 0.8976377952755905
        },
        {
          "duration": 0.2652599479166682,
          "durationTicks": 146,
          "midi": 74,
          "name": "D5",
          "ticks": 23342,
          "time": 42.40888838541667,
          "velocity": 0.889763779527559
        },
        {
          "duration": 0.10901093750000257,
          "durationTicks": 60,
          "midi": 69,
          "name": "A4",
          "ticks": 23520,
          "time": 42.7322875,
          "velocity": 0.8582677165354331
        },
        {
          "duration": 0.07994135416667092,
          "durationTicks": 44,
          "midi": 74,
          "name": "D5",
          "ticks": 23520,
          "time": 42.7322875,
          "velocity": 0.7952755905511811
        },
        {
          "duration": 0.35246869791667024,
          "durationTicks": 194,
          "midi": 70,
          "name": "A#4",
          "ticks": 23608,
          "time": 42.89217020833333,
          "velocity": 0.9212598425196851
        },
        {
          "duration": 0.12354572916666484,
          "durationTicks": 68,
          "midi": 74,
          "name": "D5",
          "ticks": 23628,
          "time": 42.9285071875,
          "velocity": 0.9133858267716536
        },
        {
          "duration": 0.13808052083332711,
          "durationTicks": 76,
          "midi": 78,
          "name": "F#5",
          "ticks": 23628,
          "time": 42.9285071875,
          "velocity": 0.937007874015748
        },
        {
          "duration": 0.3124980208333312,
          "durationTicks": 172,
          "midi": 66,
          "name": "F#4",
          "ticks": 23712,
          "time": 43.0811225,
          "velocity": 0.8740157480314961
        },
        {
          "duration": 0.1526153125000036,
          "durationTicks": 84,
          "midi": 74,
          "name": "D5",
          "ticks": 23712,
          "time": 43.0811225,
          "velocity": 0.7637795275590551
        },
        {
          "duration": 0.13808052083333422,
          "durationTicks": 76,
          "midi": 78,
          "name": "F#5",
          "ticks": 23712,
          "time": 43.0811225,
          "velocity": 0.8582677165354331
        },
        {
          "duration": 0.2834284374999996,
          "durationTicks": 156,
          "midi": 74,
          "name": "D5",
          "ticks": 23808,
          "time": 43.25554,
          "velocity": 0.7637795275590551
        },
        {
          "duration": 0.2834284374999996,
          "durationTicks": 156,
          "midi": 78,
          "name": "F#5",
          "ticks": 23808,
          "time": 43.25554,
          "velocity": 0.8582677165354331
        },
        {
          "duration": 0.7049373958333263,
          "durationTicks": 388,
          "midi": 72,
          "name": "C5",
          "ticks": 23814,
          "time": 43.266441093750004,
          "velocity": 0.952755905511811
        },
        {
          "duration": 0.31249802083333833,
          "durationTicks": 172,
          "midi": 69,
          "name": "A4",
          "ticks": 23816,
          "time": 43.270074791666666,
          "velocity": 0.952755905511811
        },
        {
          "duration": 0.13808052083333422,
          "durationTicks": 76,
          "midi": 74,
          "name": "D5",
          "ticks": 23996,
          "time": 43.597107604166666,
          "velocity": 0.9448818897637795
        },
        {
          "duration": 0.10901093750000257,
          "durationTicks": 60,
          "midi": 66,
          "name": "F#4",
          "ticks": 24008,
          "time": 43.61890979166667,
          "velocity": 0.6220472440944882
        },
        {
          "duration": 0.10901093750000257,
          "durationTicks": 60,
          "midi": 78,
          "name": "F#5",
          "ticks": 24008,
          "time": 43.61890979166667,
          "velocity": 0.9763779527559056
        },
        {
          "duration": 0.31613171875000035,
          "durationTicks": 174,
          "midi": 66,
          "name": "F#4",
          "ticks": 24096,
          "time": 43.7787925,
          "velocity": 0.8976377952755905
        },
        {
          "duration": 0.3124980208333312,
          "durationTicks": 172,
          "midi": 69,
          "name": "A4",
          "ticks": 24096,
          "time": 43.7787925,
          "velocity": 0.7637795275590551
        },
        {
          "duration": 0.3124980208333312,
          "durationTicks": 172,
          "midi": 74,
          "name": "D5",
          "ticks": 24096,
          "time": 43.7787925,
          "velocity": 0.8661417322834646
        },
        {
          "duration": 0.29796322916666895,
          "durationTicks": 164,
          "midi": 78,
          "name": "F#5",
          "ticks": 24096,
          "time": 43.7787925,
          "velocity": 0.8976377952755905
        },
        {
          "duration": 0.33793390625000086,
          "durationTicks": 186,
          "midi": 70,
          "name": "A#4",
          "ticks": 24210,
          "time": 43.98591328125,
          "velocity": 0.937007874015748
        },
        {
          "duration": 0.10901093749999546,
          "durationTicks": 60,
          "midi": 69,
          "name": "A4",
          "ticks": 24288,
          "time": 44.1276275,
          "velocity": 0.8582677165354331
        },
        {
          "duration": 0.12354572916666484,
          "durationTicks": 68,
          "midi": 74,
          "name": "D5",
          "ticks": 24288,
          "time": 44.1276275,
          "velocity": 0.8503937007874016
        },
        {
          "duration": 0.27979473958333045,
          "durationTicks": 154,
          "midi": 69,
          "name": "A4",
          "ticks": 24386,
          "time": 44.30567869791667,
          "velocity": 0.952755905511811
        },
        {
          "duration": 0.29796322916666185,
          "durationTicks": 164,
          "midi": 74,
          "name": "D5",
          "ticks": 24392,
          "time": 44.31657979166667,
          "velocity": 0.9291338582677166
        },
        {
          "duration": 0.29796322916666895,
          "durationTicks": 164,
          "midi": 66,
          "name": "F#4",
          "ticks": 24394,
          "time": 44.32021348958333,
          "velocity": 0.937007874015748
        },
        {
          "duration": 0.29796322916666895,
          "durationTicks": 164,
          "midi": 78,
          "name": "F#5",
          "ticks": 24394,
          "time": 44.32021348958333,
          "velocity": 0.937007874015748
        },
        {
          "duration": 0.2543588541666608,
          "durationTicks": 140,
          "midi": 70,
          "name": "A#4",
          "ticks": 24576,
          "time": 44.65088,
          "velocity": 0.7401574803149606
        },
        {
          "duration": 0.48691552083333534,
          "durationTicks": 268,
          "midi": 67,
          "name": "G4",
          "ticks": 24582,
          "time": 44.66178109375,
          "velocity": 0.952755905511811
        },
        {
          "duration": 0.1526153124999965,
          "durationTicks": 84,
          "midi": 70,
          "name": "A#4",
          "ticks": 24766,
          "time": 44.99608130208334,
          "velocity": 0.952755905511811
        },
        {
          "duration": 0.14898161458333448,
          "durationTicks": 82,
          "midi": 74,
          "name": "D5",
          "ticks": 24774,
          "time": 45.01061609375,
          "velocity": 0.9763779527559056
        },
        {
          "duration": 0.31249802083333833,
          "durationTicks": 172,
          "midi": 74,
          "name": "D5",
          "ticks": 24864,
          "time": 45.1741325,
          "velocity": 0.8976377952755905
        },
        {
          "duration": 0.31249802083333833,
          "durationTicks": 172,
          "midi": 79,
          "name": "G5",
          "ticks": 24864,
          "time": 45.1741325,
          "velocity": 0.937007874015748
        },
        {
          "duration": 0.27979473958333756,
          "durationTicks": 154,
          "midi": 67,
          "name": "G4",
          "ticks": 24872,
          "time": 45.18866729166666,
          "velocity": 0.8976377952755905
        },
        {
          "duration": 0.2652599479166753,
          "durationTicks": 146,
          "midi": 70,
          "name": "A#4",
          "ticks": 24878,
          "time": 45.19956838541666,
          "velocity": 0.889763779527559
        },
        {
          "duration": 0.10901093750000257,
          "durationTicks": 60,
          "midi": 67,
          "name": "G4",
          "ticks": 25056,
          "time": 45.5229675,
          "velocity": 0.8582677165354331
        },
        {
          "duration": 0.07994135416666381,
          "durationTicks": 44,
          "midi": 70,
          "name": "A#4",
          "ticks": 25056,
          "time": 45.5229675,
          "velocity": 0.7952755905511811
        },
        {
          "duration": 0.12717942708333396,
          "durationTicks": 70,
          "midi": 67,
          "name": "G4",
          "ticks": 25152,
          "time": 45.697385000000004,
          "velocity": 0.937007874015748
        },
        {
          "duration": 0.12354572916666484,
          "durationTicks": 68,
          "midi": 70,
          "name": "A#4",
          "ticks": 25164,
          "time": 45.7191871875,
          "velocity": 0.9133858267716536
        },
        {
          "duration": 0.13808052083334132,
          "durationTicks": 76,
          "midi": 74,
          "name": "D5",
          "ticks": 25164,
          "time": 45.7191871875,
          "velocity": 0.937007874015748
        },
        {
          "duration": 0.1526153124999965,
          "durationTicks": 84,
          "midi": 70,
          "name": "A#4",
          "ticks": 25248,
          "time": 45.8718025,
          "velocity": 0.7637795275590551
        },
        {
          "duration": 0.13808052083333422,
          "durationTicks": 76,
          "midi": 74,
          "name": "D5",
          "ticks": 25248,
          "time": 45.8718025,
          "velocity": 0.8582677165354331
        },
        {
          "duration": 0.3415676041666629,
          "durationTicks": 188,
          "midi": 79,
          "name": "G5",
          "ticks": 25248,
          "time": 45.8718025,
          "velocity": 0.8582677165354331
        },
        {
          "duration": 0.22528927083333627,
          "durationTicks": 124,
          "midi": 70,
          "name": "A#4",
          "ticks": 25344,
          "time": 46.04622,
          "velocity": 0.9133858267716536
        },
        {
          "duration": 0.2834284374999996,
          "durationTicks": 156,
          "midi": 74,
          "name": "D5",
          "ticks": 25344,
          "time": 46.04622,
          "velocity": 0.8582677165354331
        },
        {
          "duration": 0.4433111458333414,
          "durationTicks": 244,
          "midi": 67,
          "name": "G4",
          "ticks": 25350,
          "time": 46.05712109375,
          "velocity": 0.905511811023622
        },
        {
          "duration": 0.16715010416665876,
          "durationTicks": 92,
          "midi": 69,
          "name": "A4",
          "ticks": 25440,
          "time": 46.2206375,
          "velocity": 0.9212598425196851
        },
        {
          "duration": 0.13808052083334132,
          "durationTicks": 76,
          "midi": 70,
          "name": "A#4",
          "ticks": 25532,
          "time": 46.38778760416666,
          "velocity": 0.9448818897637795
        },
        {
          "duration": 0.10901093750000257,
          "durationTicks": 60,
          "midi": 74,
          "name": "D5",
          "ticks": 25544,
          "time": 46.40958979166666,
          "velocity": 0.9763779527559056
        },
        {
          "duration": 0.0944761458333403,
          "durationTicks": 52,
          "midi": 79,
          "name": "G5",
          "ticks": 25544,
          "time": 46.40958979166666,
          "velocity": 0.6299212598425197
        },
        {
          "duration": 0.3124980208333312,
          "durationTicks": 172,
          "midi": 67,
          "name": "G4",
          "ticks": 25632,
          "time": 46.5694725,
          "velocity": 0.7637795275590551
        },
        {
          "duration": 0.2107544791666598,
          "durationTicks": 116,
          "midi": 70,
          "name": "A#4",
          "ticks": 25632,
          "time": 46.5694725,
          "velocity": 0.8661417322834646
        },
        {
          "duration": 0.2107544791666598,
          "durationTicks": 116,
          "midi": 74,
          "name": "D5",
          "ticks": 25632,
          "time": 46.5694725,
          "velocity": 0.8976377952755905
        },
        {
          "duration": 0.31613171875000035,
          "durationTicks": 174,
          "midi": 79,
          "name": "G5",
          "ticks": 25632,
          "time": 46.5694725,
          "velocity": 0.937007874015748
        },
        {
          "duration": 0.23982406249999855,
          "durationTicks": 132,
          "midi": 69,
          "name": "A4",
          "ticks": 25748,
          "time": 46.78022697916666,
          "velocity": 0.9763779527559056
        },
        {
          "duration": 0.10901093750000257,
          "durationTicks": 60,
          "midi": 67,
          "name": "G4",
          "ticks": 25824,
          "time": 46.9183075,
          "velocity": 0.8582677165354331
        },
        {
          "duration": 0.0944761458333403,
          "durationTicks": 52,
          "midi": 70,
          "name": "A#4",
          "ticks": 25824,
          "time": 46.9183075,
          "velocity": 0.8503937007874016
        },
        {
          "duration": 0.29796322916666185,
          "durationTicks": 164,
          "midi": 67,
          "name": "G4",
          "ticks": 25912,
          "time": 47.07819020833334,
          "velocity": 0.984251968503937
        },
        {
          "duration": 0.12354572916667195,
          "durationTicks": 68,
          "midi": 70,
          "name": "A#4",
          "ticks": 25928,
          "time": 47.107259791666664,
          "velocity": 0.9291338582677166
        },
        {
          "duration": 0.16351640624999675,
          "durationTicks": 90,
          "midi": 74,
          "name": "D5",
          "ticks": 25930,
          "time": 47.11089348958334,
          "velocity": 0.937007874015748
        },
        {
          "duration": 0.1526153125000036,
          "durationTicks": 84,
          "midi": 70,
          "name": "A#4",
          "ticks": 26024,
          "time": 47.28167729166666,
          "velocity": 0.7637795275590551
        },
        {
          "duration": 0.13808052083334132,
          "durationTicks": 76,
          "midi": 74,
          "name": "D5",
          "ticks": 26024,
          "time": 47.28167729166666,
          "velocity": 0.8582677165354331
        },
        {
          "duration": 0.29796322916667606,
          "durationTicks": 164,
          "midi": 79,
          "name": "G5",
          "ticks": 26024,
          "time": 47.28167729166666,
          "velocity": 0.8582677165354331
        },
        {
          "duration": 0.2543588541666608,
          "durationTicks": 140,
          "midi": 70,
          "name": "A#4",
          "ticks": 26112,
          "time": 47.44156,
          "velocity": 0.9133858267716536
        },
        {
          "duration": 0.48691552083333534,
          "durationTicks": 268,
          "midi": 67,
          "name": "G4",
          "ticks": 26118,
          "time": 47.45246109375,
          "velocity": 0.952755905511811
        },
        {
          "duration": 0.16715010416666587,
          "durationTicks": 92,
          "midi": 69,
          "name": "A4",
          "ticks": 26208,
          "time": 47.6159775,
          "velocity": 0.9212598425196851
        },
        {
          "duration": 0.1526153125000036,
          "durationTicks": 84,
          "midi": 70,
          "name": "A#4",
          "ticks": 26302,
          "time": 47.786761302083335,
          "velocity": 0.952755905511811
        },
        {
          "duration": 0.09447614583332609,
          "durationTicks": 52,
          "midi": 79,
          "name": "G5",
          "ticks": 26308,
          "time": 47.797662395833335,
          "velocity": 0.6141732283464567
        },
        {
          "duration": 0.14898161458333448,
          "durationTicks": 82,
          "midi": 74,
          "name": "D5",
          "ticks": 26310,
          "time": 47.801296093750004,
          "velocity": 0.9763779527559056
        },
        {
          "duration": 0.31249802083333833,
          "durationTicks": 172,
          "midi": 74,
          "name": "D5",
          "ticks": 26400,
          "time": 47.9648125,
          "velocity": 0.8976377952755905
        },
        {
          "duration": 0.31249802083333833,
          "durationTicks": 172,
          "midi": 79,
          "name": "G5",
          "ticks": 26400,
          "time": 47.9648125,
          "velocity": 0.8976377952755905
        },
        {
          "duration": 0.27979473958333756,
          "durationTicks": 154,
          "midi": 67,
          "name": "G4",
          "ticks": 26408,
          "time": 47.97934729166666,
          "velocity": 0.8976377952755905
        },
        {
          "duration": 0.2652599479166753,
          "durationTicks": 146,
          "midi": 70,
          "name": "A#4",
          "ticks": 26414,
          "time": 47.99024838541666,
          "velocity": 0.889763779527559
        },
        {
          "duration": 0.10901093749999546,
          "durationTicks": 60,
          "midi": 67,
          "name": "G4",
          "ticks": 26592,
          "time": 48.3136475,
          "velocity": 0.8582677165354331
        },
        {
          "duration": 0.07994135416666381,
          "durationTicks": 44,
          "midi": 70,
          "name": "A#4",
          "ticks": 26592,
          "time": 48.3136475,
          "velocity": 0.7952755905511811
        },
        {
          "duration": 0.12717942708334107,
          "durationTicks": 70,
          "midi": 67,
          "name": "G4",
          "ticks": 26688,
          "time": 48.488065,
          "velocity": 0.937007874015748
        },
        {
          "duration": 0.12354572916666484,
          "durationTicks": 68,
          "midi": 70,
          "name": "A#4",
          "ticks": 26700,
          "time": 48.5098671875,
          "velocity": 0.9133858267716536
        },
        {
          "duration": 0.13808052083334132,
          "durationTicks": 76,
          "midi": 74,
          "name": "D5",
          "ticks": 26700,
          "time": 48.5098671875,
          "velocity": 0.937007874015748
        },
        {
          "duration": 0.1526153124999965,
          "durationTicks": 84,
          "midi": 70,
          "name": "A#4",
          "ticks": 26784,
          "time": 48.6624825,
          "velocity": 0.7637795275590551
        },
        {
          "duration": 0.13808052083333422,
          "durationTicks": 76,
          "midi": 74,
          "name": "D5",
          "ticks": 26784,
          "time": 48.6624825,
          "velocity": 0.8582677165354331
        },
        {
          "duration": 0.3124980208333312,
          "durationTicks": 172,
          "midi": 79,
          "name": "G5",
          "ticks": 26784,
          "time": 48.6624825,
          "velocity": 0.8740157480314961
        },
        {
          "duration": 0.2834284374999996,
          "durationTicks": 156,
          "midi": 70,
          "name": "A#4",
          "ticks": 26880,
          "time": 48.8369,
          "velocity": 0.7637795275590551
        },
        {
          "duration": 0.2834284374999996,
          "durationTicks": 156,
          "midi": 74,
          "name": "D5",
          "ticks": 26880,
          "time": 48.8369,
          "velocity": 0.8582677165354331
        },
        {
          "duration": 0.4433111458333343,
          "durationTicks": 244,
          "midi": 67,
          "name": "G4",
          "ticks": 26886,
          "time": 48.84780109375,
          "velocity": 0.905511811023622
        },
        {
          "duration": 0.16715010416667297,
          "durationTicks": 92,
          "midi": 69,
          "name": "A4",
          "ticks": 26978,
          "time": 49.014951197916666,
          "velocity": 0.9212598425196851
        },
        {
          "duration": 0.13808052083334132,
          "durationTicks": 76,
          "midi": 70,
          "name": "A#4",
          "ticks": 27068,
          "time": 49.17846760416666,
          "velocity": 0.9448818897637795
        },
        {
          "duration": 0.10901093750000257,
          "durationTicks": 60,
          "midi": 74,
          "name": "D5",
          "ticks": 27080,
          "time": 49.20026979166666,
          "velocity": 0.9763779527559056
        },
        {
          "duration": 0.10901093750000257,
          "durationTicks": 60,
          "midi": 79,
          "name": "G5",
          "ticks": 27080,
          "time": 49.20026979166666,
          "velocity": 0.6220472440944882
        },
        {
          "duration": 0.3997067708333404,
          "durationTicks": 220,
          "midi": 67,
          "name": "G4",
          "ticks": 27168,
          "time": 49.3601525,
          "velocity": 0.7637795275590551
        },
        {
          "duration": 0.13808052083334132,
          "durationTicks": 76,
          "midi": 70,
          "name": "A#4",
          "ticks": 27168,
          "time": 49.3601525,
          "velocity": 0.8661417322834646
        },
        {
          "duration": 0.48691552083334244,
          "durationTicks": 268,
          "midi": 74,
          "name": "D5",
          "ticks": 27168,
          "time": 49.3601525,
          "velocity": 0.8976377952755905
        },
        {
          "duration": 0.4578459375000037,
          "durationTicks": 252,
          "midi": 79,
          "name": "G5",
          "ticks": 27168,
          "time": 49.3601525,
          "velocity": 0.8976377952755905
        },
        {
          "duration": 0.23619036458333653,
          "durationTicks": 130,
          "midi": 60,
          "name": "C4",
          "ticks": 27258,
          "time": 49.52366890625,
          "velocity": 0.952755905511811
        },
        {
          "duration": 0.24709145833332968,
          "durationTicks": 136,
          "midi": 58,
          "name": "A#3",
          "ticks": 27454,
          "time": 49.879771302083334,
          "velocity": 0.937007874015748
        },
        {
          "duration": 0.27979473958333756,
          "durationTicks": 154,
          "midi": 67,
          "name": "G4",
          "ticks": 27458,
          "time": 49.887038697916665,
          "velocity": 0.937007874015748
        },
        {
          "duration": 0.2688936458333373,
          "durationTicks": 148,
          "midi": 70,
          "name": "A#4",
          "ticks": 27464,
          "time": 49.897939791666666,
          "velocity": 0.9291338582677166
        },
        {
          "duration": 0.2652599479166682,
          "durationTicks": 146,
          "midi": 74,
          "name": "D5",
          "ticks": 27466,
          "time": 49.901573489583335,
          "velocity": 0.937007874015748
        },
        {
          "duration": 0.2652599479166682,
          "durationTicks": 146,
          "midi": 79,
          "name": "G5",
          "ticks": 27466,
          "time": 49.901573489583335,
          "velocity": 0.937007874015748
        },
        {
          "duration": 0.6613330208333323,
          "durationTicks": 364,
          "midi": 60,
          "name": "C4",
          "ticks": 27646,
          "time": 50.228606302083335,
          "velocity": 0.8740157480314961
        },
        {
          "duration": 0.48691552083334244,
          "durationTicks": 268,
          "midi": 65,
          "name": "F4",
          "ticks": 27654,
          "time": 50.24314109375,
          "velocity": 0.952755905511811
        },
        {
          "duration": 0.1526153125000036,
          "durationTicks": 84,
          "midi": 69,
          "name": "A4",
          "ticks": 27838,
          "time": 50.577441302083336,
          "velocity": 0.952755905511811
        },
        {
          "duration": 0.14898161458334158,
          "durationTicks": 82,
          "midi": 72,
          "name": "C5",
          "ticks": 27846,
          "time": 50.59197609375,
          "velocity": 0.9763779527559056
        },
        {
          "duration": 0.31249802083333833,
          "durationTicks": 172,
          "midi": 72,
          "name": "C5",
          "ticks": 27936,
          "time": 50.7554925,
          "velocity": 0.8976377952755905
        },
        {
          "duration": 0.31249802083333833,
          "durationTicks": 172,
          "midi": 77,
          "name": "F5",
          "ticks": 27936,
          "time": 50.7554925,
          "velocity": 0.937007874015748
        },
        {
          "duration": 0.27979473958333756,
          "durationTicks": 154,
          "midi": 65,
          "name": "F4",
          "ticks": 27944,
          "time": 50.770027291666665,
          "velocity": 0.8976377952755905
        },
        {
          "duration": 0.2652599479166753,
          "durationTicks": 146,
          "midi": 69,
          "name": "A4",
          "ticks": 27950,
          "time": 50.780928385416665,
          "velocity": 0.889763779527559
        },
        {
          "duration": 0.10901093749999546,
          "durationTicks": 60,
          "midi": 65,
          "name": "F4",
          "ticks": 28128,
          "time": 51.104327500000004,
          "velocity": 0.8582677165354331
        },
        {
          "duration": 0.07994135416666381,
          "durationTicks": 44,
          "midi": 69,
          "name": "A4",
          "ticks": 28128,
          "time": 51.104327500000004,
          "velocity": 0.7952755905511811
        },
        {
          "duration": 0.12717942708333396,
          "durationTicks": 70,
          "midi": 65,
          "name": "F4",
          "ticks": 28224,
          "time": 51.278745,
          "velocity": 0.937007874015748
        },
        {
          "duration": 0.12354572916666484,
          "durationTicks": 68,
          "midi": 69,
          "name": "A4",
          "ticks": 28236,
          "time": 51.3005471875,
          "velocity": 0.9133858267716536
        },
        {
          "duration": 0.13808052083333422,
          "durationTicks": 76,
          "midi": 72,
          "name": "C5",
          "ticks": 28236,
          "time": 51.3005471875,
          "velocity": 0.937007874015748
        },
        {
          "duration": 0.1526153125000036,
          "durationTicks": 84,
          "midi": 69,
          "name": "A4",
          "ticks": 28320,
          "time": 51.4531625,
          "velocity": 0.7637795275590551
        },
        {
          "duration": 0.13808052083334132,
          "durationTicks": 76,
          "midi": 72,
          "name": "C5",
          "ticks": 28320,
          "time": 51.4531625,
          "velocity": 0.8582677165354331
        },
        {
          "duration": 0.34156760416667,
          "durationTicks": 188,
          "midi": 77,
          "name": "F5",
          "ticks": 28320,
          "time": 51.4531625,
          "velocity": 0.8582677165354331
        },
        {
          "duration": 0.5414209895833366,
          "durationTicks": 298,
          "midi": 60,
          "name": "C4",
          "ticks": 28410,
          "time": 51.61667890625,
          "velocity": 1
        },
        {
          "duration": 0.22528927083333627,
          "durationTicks": 124,
          "midi": 69,
          "name": "A4",
          "ticks": 28416,
          "time": 51.62758,
          "velocity": 0.9133858267716536
        },
        {
          "duration": 0.2834284374999996,
          "durationTicks": 156,
          "midi": 72,
          "name": "C5",
          "ticks": 28416,
          "time": 51.62758,
          "velocity": 0.8582677165354331
        },
        {
          "duration": 0.4433111458333343,
          "durationTicks": 244,
          "midi": 65,
          "name": "F4",
          "ticks": 28422,
          "time": 51.63848109375,
          "velocity": 0.905511811023622
        },
        {
          "duration": 0.13808052083333422,
          "durationTicks": 76,
          "midi": 69,
          "name": "A4",
          "ticks": 28604,
          "time": 51.969147604166665,
          "velocity": 0.9448818897637795
        },
        {
          "duration": 0.10901093750000257,
          "durationTicks": 60,
          "midi": 72,
          "name": "C5",
          "ticks": 28616,
          "time": 51.990949791666665,
          "velocity": 0.9763779527559056
        },
        {
          "duration": 0.09447614583333319,
          "durationTicks": 52,
          "midi": 77,
          "name": "F5",
          "ticks": 28616,
          "time": 51.990949791666665,
          "velocity": 0.6299212598425197
        },
        {
          "duration": 0.31249802083333833,
          "durationTicks": 172,
          "midi": 65,
          "name": "F4",
          "ticks": 28704,
          "time": 52.1508325,
          "velocity": 0.7637795275590551
        },
        {
          "duration": 0.31249802083333833,
          "durationTicks": 172,
          "midi": 69,
          "name": "A4",
          "ticks": 28704,
          "time": 52.1508325,
          "velocity": 0.8661417322834646
        },
        {
          "duration": 0.29796322916666185,
          "durationTicks": 164,
          "midi": 72,
          "name": "C5",
          "ticks": 28704,
          "time": 52.1508325,
          "velocity": 0.8976377952755905
        },
        {
          "duration": 0.31613171875000035,
          "durationTicks": 174,
          "midi": 77,
          "name": "F5",
          "ticks": 28704,
          "time": 52.1508325,
          "velocity": 0.937007874015748
        },
        {
          "duration": 0.18168489583333525,
          "durationTicks": 100,
          "midi": 58,
          "name": "A#3",
          "ticks": 28796,
          "time": 52.317982604166666,
          "velocity": 0.968503937007874
        },
        {
          "duration": 0.10901093750000257,
          "durationTicks": 60,
          "midi": 65,
          "name": "F4",
          "ticks": 28896,
          "time": 52.4996675,
          "velocity": 0.8582677165354331
        },
        {
          "duration": 0.12354572916666484,
          "durationTicks": 68,
          "midi": 69,
          "name": "A4",
          "ticks": 28896,
          "time": 52.4996675,
          "velocity": 0.8503937007874016
        },
        {
          "duration": 0.21802187499999803,
          "durationTicks": 120,
          "midi": 57,
          "name": "A3",
          "ticks": 28990,
          "time": 52.670451302083336,
          "velocity": 0.952755905511811
        },
        {
          "duration": 0.18168489583333525,
          "durationTicks": 100,
          "midi": 65,
          "name": "F4",
          "ticks": 28994,
          "time": 52.67771869791667,
          "velocity": 0.937007874015748
        },
        {
          "duration": 0.12354572916667195,
          "durationTicks": 68,
          "midi": 69,
          "name": "A4",
          "ticks": 29000,
          "time": 52.68861979166667,
          "velocity": 0.9291338582677166
        },
        {
          "duration": 0.16351640625000385,
          "durationTicks": 90,
          "midi": 72,
          "name": "C5",
          "ticks": 29002,
          "time": 52.69225348958334,
          "velocity": 0.937007874015748
        },
        {
          "duration": 0.1526153124999965,
          "durationTicks": 84,
          "midi": 69,
          "name": "A4",
          "ticks": 29096,
          "time": 52.863037291666664,
          "velocity": 0.7637795275590551
        },
        {
          "duration": 0.13808052083333422,
          "durationTicks": 76,
          "midi": 72,
          "name": "C5",
          "ticks": 29096,
          "time": 52.863037291666664,
          "velocity": 0.8582677165354331
        },
        {
          "duration": 0.29796322916667606,
          "durationTicks": 164,
          "midi": 77,
          "name": "F5",
          "ticks": 29096,
          "time": 52.863037291666664,
          "velocity": 0.8582677165354331
        },
        {
          "duration": 0.2543588541666679,
          "durationTicks": 140,
          "midi": 70,
          "name": "A#4",
          "ticks": 29184,
          "time": 53.02292,
          "velocity": 0.7401574803149606
        },
        {
          "duration": 0.48691552083333534,
          "durationTicks": 268,
          "midi": 67,
          "name": "G4",
          "ticks": 29190,
          "time": 53.03382109375,
          "velocity": 0.952755905511811
        },
        {
          "duration": 0.7085710937500025,
          "durationTicks": 390,
          "midi": 55,
          "name": "G3",
          "ticks": 29194,
          "time": 53.04108848958334,
          "velocity": 0.9212598425196851
        },
        {
          "duration": 0.1526153124999965,
          "durationTicks": 84,
          "midi": 70,
          "name": "A#4",
          "ticks": 29374,
          "time": 53.36812130208334,
          "velocity": 0.952755905511811
        },
        {
          "duration": 0.14898161458333448,
          "durationTicks": 82,
          "midi": 74,
          "name": "D5",
          "ticks": 29382,
          "time": 53.38265609375,
          "velocity": 0.9763779527559056
        },
        {
          "duration": 0.3124980208333312,
          "durationTicks": 172,
          "midi": 74,
          "name": "D5",
          "ticks": 29472,
          "time": 53.546172500000004,
          "velocity": 0.8976377952755905
        },
        {
          "duration": 0.3124980208333312,
          "durationTicks": 172,
          "midi": 79,
          "name": "G5",
          "ticks": 29472,
          "time": 53.546172500000004,
          "velocity": 0.937007874015748
        },
        {
          "duration": 0.27979473958333756,
          "durationTicks": 154,
          "midi": 67,
          "name": "G4",
          "ticks": 29480,
          "time": 53.56070729166667,
          "velocity": 0.8976377952755905
        },
        {
          "duration": 0.2652599479166682,
          "durationTicks": 146,
          "midi": 70,
          "name": "A#4",
          "ticks": 29486,
          "time": 53.57160838541667,
          "velocity": 0.889763779527559
        },
        {
          "duration": 0.10901093750000257,
          "durationTicks": 60,
          "midi": 67,
          "name": "G4",
          "ticks": 29664,
          "time": 53.8950075,
          "velocity": 0.8582677165354331
        },
        {
          "duration": 0.07994135416666381,
          "durationTicks": 44,
          "midi": 70,
          "name": "A#4",
          "ticks": 29664,
          "time": 53.8950075,
          "velocity": 0.7952755905511811
        },
        {
          "duration": 0.12717942708333396,
          "durationTicks": 70,
          "midi": 67,
          "name": "G4",
          "ticks": 29760,
          "time": 54.069425,
          "velocity": 0.937007874015748
        },
        {
          "duration": 0.12354572916666484,
          "durationTicks": 68,
          "midi": 70,
          "name": "A#4",
          "ticks": 29772,
          "time": 54.0912271875,
          "velocity": 0.9133858267716536
        },
        {
          "duration": 0.13808052083333422,
          "durationTicks": 76,
          "midi": 74,
          "name": "D5",
          "ticks": 29772,
          "time": 54.0912271875,
          "velocity": 0.937007874015748
        },
        {
          "duration": 0.1526153125000036,
          "durationTicks": 84,
          "midi": 70,
          "name": "A#4",
          "ticks": 29856,
          "time": 54.2438425,
          "velocity": 0.7637795275590551
        },
        {
          "duration": 0.13808052083334132,
          "durationTicks": 76,
          "midi": 74,
          "name": "D5",
          "ticks": 29856,
          "time": 54.2438425,
          "velocity": 0.8582677165354331
        },
        {
          "duration": 0.3415676041666629,
          "durationTicks": 188,
          "midi": 79,
          "name": "G5",
          "ticks": 29856,
          "time": 54.2438425,
          "velocity": 0.8582677165354331
        },
        {
          "duration": 0.22528927083333627,
          "durationTicks": 124,
          "midi": 70,
          "name": "A#4",
          "ticks": 29952,
          "time": 54.418260000000004,
          "velocity": 0.9133858267716536
        },
        {
          "duration": 0.2834284374999996,
          "durationTicks": 156,
          "midi": 74,
          "name": "D5",
          "ticks": 29952,
          "time": 54.418260000000004,
          "velocity": 0.8582677165354331
        },
        {
          "duration": 0.4433111458333343,
          "durationTicks": 244,
          "midi": 67,
          "name": "G4",
          "ticks": 29958,
          "time": 54.429161093750004,
          "velocity": 0.905511811023622
        },
        {
          "duration": 0.16715010416666587,
          "durationTicks": 92,
          "midi": 69,
          "name": "A4",
          "ticks": 30048,
          "time": 54.5926775,
          "velocity": 0.9212598425196851
        },
        {
          "duration": 0.13808052083333422,
          "durationTicks": 76,
          "midi": 70,
          "name": "A#4",
          "ticks": 30140,
          "time": 54.75982760416667,
          "velocity": 0.9448818897637795
        },
        {
          "duration": 0.10901093749999546,
          "durationTicks": 60,
          "midi": 74,
          "name": "D5",
          "ticks": 30152,
          "time": 54.78162979166667,
          "velocity": 0.9763779527559056
        },
        {
          "duration": 0.09447614583333319,
          "durationTicks": 52,
          "midi": 79,
          "name": "G5",
          "ticks": 30152,
          "time": 54.78162979166667,
          "velocity": 0.6299212598425197
        },
        {
          "duration": 0.31249802083333833,
          "durationTicks": 172,
          "midi": 67,
          "name": "G4",
          "ticks": 30240,
          "time": 54.9415125,
          "velocity": 0.7637795275590551
        },
        {
          "duration": 0.2107544791666598,
          "durationTicks": 116,
          "midi": 70,
          "name": "A#4",
          "ticks": 30240,
          "time": 54.9415125,
          "velocity": 0.8661417322834646
        },
        {
          "duration": 0.2107544791666598,
          "durationTicks": 116,
          "midi": 74,
          "name": "D5",
          "ticks": 30240,
          "time": 54.9415125,
          "velocity": 0.8976377952755905
        },
        {
          "duration": 0.31613171875000035,
          "durationTicks": 174,
          "midi": 79,
          "name": "G5",
          "ticks": 30240,
          "time": 54.9415125,
          "velocity": 0.937007874015748
        },
        {
          "duration": 0.10901093749999546,
          "durationTicks": 60,
          "midi": 67,
          "name": "G4",
          "ticks": 30432,
          "time": 55.2903475,
          "velocity": 0.8582677165354331
        },
        {
          "duration": 0.09447614583333319,
          "durationTicks": 52,
          "midi": 70,
          "name": "A#4",
          "ticks": 30432,
          "time": 55.2903475,
          "velocity": 0.8503937007874016
        },
        {
          "duration": 0.29796322916666185,
          "durationTicks": 164,
          "midi": 67,
          "name": "G4",
          "ticks": 30520,
          "time": 55.45023020833334,
          "velocity": 0.984251968503937
        },
        {
          "duration": 0.12354572916667195,
          "durationTicks": 68,
          "midi": 70,
          "name": "A#4",
          "ticks": 30536,
          "time": 55.47929979166666,
          "velocity": 0.9291338582677166
        },
        {
          "duration": 0.16351640624999675,
          "durationTicks": 90,
          "midi": 74,
          "name": "D5",
          "ticks": 30538,
          "time": 55.48293348958334,
          "velocity": 0.937007874015748
        },
        {
          "duration": 0.1526153124999965,
          "durationTicks": 84,
          "midi": 70,
          "name": "A#4",
          "ticks": 30632,
          "time": 55.653717291666666,
          "velocity": 0.7637795275590551
        },
        {
          "duration": 0.13808052083333422,
          "durationTicks": 76,
          "midi": 74,
          "name": "D5",
          "ticks": 30632,
          "time": 55.653717291666666,
          "velocity": 0.8582677165354331
        },
        {
          "duration": 0.29796322916666895,
          "durationTicks": 164,
          "midi": 79,
          "name": "G5",
          "ticks": 30632,
          "time": 55.653717291666666,
          "velocity": 0.8582677165354331
        },
        {
          "duration": 0.2543588541666608,
          "durationTicks": 140,
          "midi": 70,
          "name": "A#4",
          "ticks": 30720,
          "time": 55.8136,
          "velocity": 0.7401574803149606
        },
        {
          "duration": 0.48691552083333534,
          "durationTicks": 268,
          "midi": 67,
          "name": "G4",
          "ticks": 30726,
          "time": 55.82450109375,
          "velocity": 0.952755905511811
        },
        {
          "duration": 0.1526153124999965,
          "durationTicks": 84,
          "midi": 70,
          "name": "A#4",
          "ticks": 30910,
          "time": 56.15880130208334,
          "velocity": 0.952755905511811
        },
        {
          "duration": 0.14898161458333448,
          "durationTicks": 82,
          "midi": 74,
          "name": "D5",
          "ticks": 30918,
          "time": 56.17333609375,
          "velocity": 0.9763779527559056
        },
        {
          "duration": 0.31249802083333833,
          "durationTicks": 172,
          "midi": 74,
          "name": "D5",
          "ticks": 31008,
          "time": 56.3368525,
          "velocity": 0.8976377952755905
        },
        {
          "duration": 0.31249802083333833,
          "durationTicks": 172,
          "midi": 79,
          "name": "G5",
          "ticks": 31008,
          "time": 56.3368525,
          "velocity": 0.937007874015748
        },
        {
          "duration": 0.27979473958333756,
          "durationTicks": 154,
          "midi": 67,
          "name": "G4",
          "ticks": 31016,
          "time": 56.35138729166666,
          "velocity": 0.8976377952755905
        },
        {
          "duration": 0.2652599479166753,
          "durationTicks": 146,
          "midi": 70,
          "name": "A#4",
          "ticks": 31022,
          "time": 56.36228838541666,
          "velocity": 0.889763779527559
        },
        {
          "duration": 0.10901093750000257,
          "durationTicks": 60,
          "midi": 67,
          "name": "G4",
          "ticks": 31200,
          "time": 56.6856875,
          "velocity": 0.8582677165354331
        },
        {
          "duration": 0.07994135416666381,
          "durationTicks": 44,
          "midi": 70,
          "name": "A#4",
          "ticks": 31200,
          "time": 56.6856875,
          "velocity": 0.7952755905511811
        },
        {
          "duration": 0.12717942708333396,
          "durationTicks": 70,
          "midi": 67,
          "name": "G4",
          "ticks": 31296,
          "time": 56.860105000000004,
          "velocity": 0.937007874015748
        },
        {
          "duration": 0.12354572916666484,
          "durationTicks": 68,
          "midi": 70,
          "name": "A#4",
          "ticks": 31308,
          "time": 56.8819071875,
          "velocity": 0.9133858267716536
        },
        {
          "duration": 0.13808052083334132,
          "durationTicks": 76,
          "midi": 74,
          "name": "D5",
          "ticks": 31308,
          "time": 56.8819071875,
          "velocity": 0.937007874015748
        },
        {
          "duration": 0.1526153124999965,
          "durationTicks": 84,
          "midi": 70,
          "name": "A#4",
          "ticks": 31392,
          "time": 57.0345225,
          "velocity": 0.7637795275590551
        },
        {
          "duration": 0.13808052083333422,
          "durationTicks": 76,
          "midi": 74,
          "name": "D5",
          "ticks": 31392,
          "time": 57.0345225,
          "velocity": 0.8582677165354331
        },
        {
          "duration": 0.3415676041666629,
          "durationTicks": 188,
          "midi": 79,
          "name": "G5",
          "ticks": 31392,
          "time": 57.0345225,
          "velocity": 0.8582677165354331
        },
        {
          "duration": 0.22528927083333627,
          "durationTicks": 124,
          "midi": 70,
          "name": "A#4",
          "ticks": 31488,
          "time": 57.20894,
          "velocity": 0.9133858267716536
        },
        {
          "duration": 0.2834284374999996,
          "durationTicks": 156,
          "midi": 74,
          "name": "D5",
          "ticks": 31488,
          "time": 57.20894,
          "velocity": 0.8582677165354331
        },
        {
          "duration": 0.4433111458333414,
          "durationTicks": 244,
          "midi": 67,
          "name": "G4",
          "ticks": 31494,
          "time": 57.21984109375,
          "velocity": 0.905511811023622
        },
        {
          "duration": 0.16715010416665876,
          "durationTicks": 92,
          "midi": 69,
          "name": "A4",
          "ticks": 31584,
          "time": 57.3833575,
          "velocity": 0.9212598425196851
        },
        {
          "duration": 0.13808052083334132,
          "durationTicks": 76,
          "midi": 70,
          "name": "A#4",
          "ticks": 31676,
          "time": 57.55050760416666,
          "velocity": 0.9448818897637795
        },
        {
          "duration": 0.10901093750000257,
          "durationTicks": 60,
          "midi": 74,
          "name": "D5",
          "ticks": 31688,
          "time": 57.57230979166666,
          "velocity": 0.9763779527559056
        },
        {
          "duration": 0.0944761458333403,
          "durationTicks": 52,
          "midi": 79,
          "name": "G5",
          "ticks": 31688,
          "time": 57.57230979166666,
          "velocity": 0.6299212598425197
        },
        {
          "duration": 0.3124980208333312,
          "durationTicks": 172,
          "midi": 67,
          "name": "G4",
          "ticks": 31776,
          "time": 57.732192500000004,
          "velocity": 0.7637795275590551
        },
        {
          "duration": 0.2107544791666598,
          "durationTicks": 116,
          "midi": 70,
          "name": "A#4",
          "ticks": 31776,
          "time": 57.732192500000004,
          "velocity": 0.8661417322834646
        },
        {
          "duration": 0.2107544791666598,
          "durationTicks": 116,
          "midi": 74,
          "name": "D5",
          "ticks": 31776,
          "time": 57.732192500000004,
          "velocity": 0.8976377952755905
        },
        {
          "duration": 0.31613171875000035,
          "durationTicks": 174,
          "midi": 79,
          "name": "G5",
          "ticks": 31776,
          "time": 57.732192500000004,
          "velocity": 0.937007874015748
        },
        {
          "duration": 0.23982406249999855,
          "durationTicks": 132,
          "midi": 69,
          "name": "A4",
          "ticks": 31892,
          "time": 57.94294697916666,
          "velocity": 0.9763779527559056
        },
        {
          "duration": 0.10901093750000257,
          "durationTicks": 60,
          "midi": 67,
          "name": "G4",
          "ticks": 31968,
          "time": 58.0810275,
          "velocity": 0.8582677165354331
        },
        {
          "duration": 0.0944761458333403,
          "durationTicks": 52,
          "midi": 70,
          "name": "A#4",
          "ticks": 31968,
          "time": 58.0810275,
          "velocity": 0.8503937007874016
        },
        {
          "duration": 0.29796322916666185,
          "durationTicks": 164,
          "midi": 67,
          "name": "G4",
          "ticks": 32056,
          "time": 58.24091020833334,
          "velocity": 0.984251968503937
        },
        {
          "duration": 0.12354572916667195,
          "durationTicks": 68,
          "midi": 70,
          "name": "A#4",
          "ticks": 32072,
          "time": 58.269979791666664,
          "velocity": 0.9291338582677166
        },
        {
          "duration": 0.16351640624999675,
          "durationTicks": 90,
          "midi": 74,
          "name": "D5",
          "ticks": 32074,
          "time": 58.27361348958334,
          "velocity": 0.937007874015748
        },
        {
          "duration": 0.1526153125000036,
          "durationTicks": 84,
          "midi": 70,
          "name": "A#4",
          "ticks": 32168,
          "time": 58.44439729166666,
          "velocity": 0.7637795275590551
        },
        {
          "duration": 0.13808052083334132,
          "durationTicks": 76,
          "midi": 74,
          "name": "D5",
          "ticks": 32168,
          "time": 58.44439729166666,
          "velocity": 0.8582677165354331
        },
        {
          "duration": 0.29796322916667606,
          "durationTicks": 164,
          "midi": 79,
          "name": "G5",
          "ticks": 32168,
          "time": 58.44439729166666,
          "velocity": 0.8582677165354331
        },
        {
          "duration": 0.2543588541666608,
          "durationTicks": 140,
          "midi": 70,
          "name": "A#4",
          "ticks": 32256,
          "time": 58.60428,
          "velocity": 0.9133858267716536
        },
        {
          "duration": 0.48691552083333534,
          "durationTicks": 268,
          "midi": 67,
          "name": "G4",
          "ticks": 32262,
          "time": 58.61518109375,
          "velocity": 0.952755905511811
        },
        {
          "duration": 0.16715010416666587,
          "durationTicks": 92,
          "midi": 69,
          "name": "A4",
          "ticks": 32352,
          "time": 58.7786975,
          "velocity": 0.9212598425196851
        },
        {
          "duration": 0.1526153125000036,
          "durationTicks": 84,
          "midi": 70,
          "name": "A#4",
          "ticks": 32446,
          "time": 58.949481302083335,
          "velocity": 0.952755905511811
        },
        {
          "duration": 0.09447614583332609,
          "durationTicks": 52,
          "midi": 79,
          "name": "G5",
          "ticks": 32452,
          "time": 58.960382395833335,
          "velocity": 0.6141732283464567
        },
        {
          "duration": 0.14898161458333448,
          "durationTicks": 82,
          "midi": 74,
          "name": "D5",
          "ticks": 32454,
          "time": 58.964016093750004,
          "velocity": 0.9763779527559056
        },
        {
          "duration": 0.31249802083333833,
          "durationTicks": 172,
          "midi": 74,
          "name": "D5",
          "ticks": 32544,
          "time": 59.1275325,
          "velocity": 0.8976377952755905
        },
        {
          "duration": 0.31249802083333833,
          "durationTicks": 172,
          "midi": 79,
          "name": "G5",
          "ticks": 32544,
          "time": 59.1275325,
          "velocity": 0.8976377952755905
        },
        {
          "duration": 0.27979473958333756,
          "durationTicks": 154,
          "midi": 67,
          "name": "G4",
          "ticks": 32552,
          "time": 59.14206729166666,
          "velocity": 0.8976377952755905
        },
        {
          "duration": 0.2652599479166753,
          "durationTicks": 146,
          "midi": 70,
          "name": "A#4",
          "ticks": 32558,
          "time": 59.15296838541666,
          "velocity": 0.889763779527559
        },
        {
          "duration": 0.10901093749999546,
          "durationTicks": 60,
          "midi": 67,
          "name": "G4",
          "ticks": 32736,
          "time": 59.4763675,
          "velocity": 0.8582677165354331
        },
        {
          "duration": 0.07994135416666381,
          "durationTicks": 44,
          "midi": 70,
          "name": "A#4",
          "ticks": 32736,
          "time": 59.4763675,
          "velocity": 0.7952755905511811
        },
        {
          "duration": 0.12717942708334107,
          "durationTicks": 70,
          "midi": 67,
          "name": "G4",
          "ticks": 32832,
          "time": 59.650785,
          "velocity": 0.937007874015748
        },
        {
          "duration": 0.12354572916666484,
          "durationTicks": 68,
          "midi": 70,
          "name": "A#4",
          "ticks": 32844,
          "time": 59.6725871875,
          "velocity": 0.9133858267716536
        },
        {
          "duration": 0.13808052083334132,
          "durationTicks": 76,
          "midi": 74,
          "name": "D5",
          "ticks": 32844,
          "time": 59.6725871875,
          "velocity": 0.937007874015748
        },
        {
          "duration": 0.1526153124999965,
          "durationTicks": 84,
          "midi": 70,
          "name": "A#4",
          "ticks": 32928,
          "time": 59.8252025,
          "velocity": 0.7637795275590551
        },
        {
          "duration": 0.13808052083333422,
          "durationTicks": 76,
          "midi": 74,
          "name": "D5",
          "ticks": 32928,
          "time": 59.8252025,
          "velocity": 0.8582677165354331
        },
        {
          "duration": 0.3124980208333312,
          "durationTicks": 172,
          "midi": 79,
          "name": "G5",
          "ticks": 32928,
          "time": 59.8252025,
          "velocity": 0.8740157480314961
        },
        {
          "duration": 0.2834284374999996,
          "durationTicks": 156,
          "midi": 70,
          "name": "A#4",
          "ticks": 33024,
          "time": 59.99962,
          "velocity": 0.7637795275590551
        },
        {
          "duration": 0.2834284374999996,
          "durationTicks": 156,
          "midi": 74,
          "name": "D5",
          "ticks": 33024,
          "time": 59.99962,
          "velocity": 0.8582677165354331
        },
        {
          "duration": 0.4433111458333343,
          "durationTicks": 244,
          "midi": 67,
          "name": "G4",
          "ticks": 33030,
          "time": 60.01052109375,
          "velocity": 0.905511811023622
        },
        {
          "duration": 0.16715010416667297,
          "durationTicks": 92,
          "midi": 69,
          "name": "A4",
          "ticks": 33122,
          "time": 60.177671197916666,
          "velocity": 0.9212598425196851
        },
        {
          "duration": 0.13808052083334132,
          "durationTicks": 76,
          "midi": 70,
          "name": "A#4",
          "ticks": 33212,
          "time": 60.34118760416666,
          "velocity": 0.9448818897637795
        },
        {
          "duration": 0.10901093750000257,
          "durationTicks": 60,
          "midi": 74,
          "name": "D5",
          "ticks": 33224,
          "time": 60.362989791666664,
          "velocity": 0.9763779527559056
        },
        {
          "duration": 0.10901093750000257,
          "durationTicks": 60,
          "midi": 79,
          "name": "G5",
          "ticks": 33224,
          "time": 60.362989791666664,
          "velocity": 0.6220472440944882
        },
        {
          "duration": 0.4433111458333414,
          "durationTicks": 244,
          "midi": 67,
          "name": "G4",
          "ticks": 33312,
          "time": 60.5228725,
          "velocity": 0.7637795275590551
        },
        {
          "duration": 0.13808052083334132,
          "durationTicks": 76,
          "midi": 70,
          "name": "A#4",
          "ticks": 33312,
          "time": 60.5228725,
          "velocity": 0.8661417322834646
        },
        {
          "duration": 0.41424156250000266,
          "durationTicks": 228,
          "midi": 74,
          "name": "D5",
          "ticks": 33312,
          "time": 60.5228725,
          "velocity": 0.8976377952755905
        },
        {
          "duration": 0.4578459375000037,
          "durationTicks": 252,
          "midi": 79,
          "name": "G5",
          "ticks": 33312,
          "time": 60.5228725,
          "velocity": 0.8976377952755905
        },
        {
          "duration": 0.2325566666666603,
          "durationTicks": 128,
          "midi": 60,
          "name": "C4",
          "ticks": 33408,
          "time": 60.69729,
          "velocity": 0.968503937007874
        },
        {
          "duration": 0.2543588541666608,
          "durationTicks": 140,
          "midi": 70,
          "name": "A#4",
          "ticks": 33426,
          "time": 60.72999328125,
          "velocity": 0.968503937007874
        },
        {
          "duration": 0.2107544791666598,
          "durationTicks": 116,
          "midi": 58,
          "name": "A#3",
          "ticks": 33600,
          "time": 61.046125,
          "velocity": 0.968503937007874
        },
        {
          "duration": 0.27979473958333756,
          "durationTicks": 154,
          "midi": 67,
          "name": "G4",
          "ticks": 33602,
          "time": 61.049758697916666,
          "velocity": 0.937007874015748
        },
        {
          "duration": 0.2688936458333373,
          "durationTicks": 148,
          "midi": 70,
          "name": "A#4",
          "ticks": 33608,
          "time": 61.060659791666666,
          "velocity": 0.9291338582677166
        },
        {
          "duration": 0.2652599479166682,
          "durationTicks": 146,
          "midi": 74,
          "name": "D5",
          "ticks": 33610,
          "time": 61.064293489583335,
          "velocity": 0.937007874015748
        },
        {
          "duration": 0.2652599479166682,
          "durationTicks": 146,
          "midi": 79,
          "name": "G5",
          "ticks": 33610,
          "time": 61.064293489583335,
          "velocity": 0.937007874015748
        },
        {
          "duration": 0.5450546875000057,
          "durationTicks": 300,
          "midi": 69,
          "name": "A4",
          "ticks": 33622,
          "time": 61.086095677083335,
          "velocity": 0.952755905511811
        },
        {
          "duration": 0.48691552083334244,
          "durationTicks": 268,
          "midi": 65,
          "name": "F4",
          "ticks": 33798,
          "time": 61.40586109375,
          "velocity": 0.952755905511811
        },
        {
          "duration": 0.1526153125000036,
          "durationTicks": 84,
          "midi": 69,
          "name": "A4",
          "ticks": 33982,
          "time": 61.74016130208334,
          "velocity": 0.952755905511811
        },
        {
          "duration": 0.14898161458334158,
          "durationTicks": 82,
          "midi": 72,
          "name": "C5",
          "ticks": 33990,
          "time": 61.75469609375,
          "velocity": 0.9763779527559056
        },
        {
          "duration": 0.31249802083333833,
          "durationTicks": 172,
          "midi": 72,
          "name": "C5",
          "ticks": 34080,
          "time": 61.9182125,
          "velocity": 0.8976377952755905
        },
        {
          "duration": 0.31249802083333833,
          "durationTicks": 172,
          "midi": 77,
          "name": "F5",
          "ticks": 34080,
          "time": 61.9182125,
          "velocity": 0.937007874015748
        },
        {
          "duration": 0.27979473958333756,
          "durationTicks": 154,
          "midi": 65,
          "name": "F4",
          "ticks": 34088,
          "time": 61.932747291666665,
          "velocity": 0.8976377952755905
        },
        {
          "duration": 0.2652599479166753,
          "durationTicks": 146,
          "midi": 69,
          "name": "A4",
          "ticks": 34094,
          "time": 61.943648385416665,
          "velocity": 0.889763779527559
        },
        {
          "duration": 0.10901093749999546,
          "durationTicks": 60,
          "midi": 65,
          "name": "F4",
          "ticks": 34272,
          "time": 62.267047500000004,
          "velocity": 0.8582677165354331
        },
        {
          "duration": 0.07994135416666381,
          "durationTicks": 44,
          "midi": 69,
          "name": "A4",
          "ticks": 34272,
          "time": 62.267047500000004,
          "velocity": 0.7952755905511811
        },
        {
          "duration": 0.12717942708333396,
          "durationTicks": 70,
          "midi": 65,
          "name": "F4",
          "ticks": 34368,
          "time": 62.441465,
          "velocity": 0.937007874015748
        },
        {
          "duration": 0.12354572916666484,
          "durationTicks": 68,
          "midi": 69,
          "name": "A4",
          "ticks": 34380,
          "time": 62.4632671875,
          "velocity": 0.9133858267716536
        },
        {
          "duration": 0.13808052083333422,
          "durationTicks": 76,
          "midi": 72,
          "name": "C5",
          "ticks": 34380,
          "time": 62.4632671875,
          "velocity": 0.937007874015748
        },
        {
          "duration": 0.1526153125000036,
          "durationTicks": 84,
          "midi": 69,
          "name": "A4",
          "ticks": 34464,
          "time": 62.6158825,
          "velocity": 0.7637795275590551
        },
        {
          "duration": 0.13808052083334132,
          "durationTicks": 76,
          "midi": 72,
          "name": "C5",
          "ticks": 34464,
          "time": 62.6158825,
          "velocity": 0.8582677165354331
        },
        {
          "duration": 0.34156760416667,
          "durationTicks": 188,
          "midi": 77,
          "name": "F5",
          "ticks": 34464,
          "time": 62.6158825,
          "velocity": 0.8582677165354331
        },
        {
          "duration": 0.22528927083333627,
          "durationTicks": 124,
          "midi": 69,
          "name": "A4",
          "ticks": 34560,
          "time": 62.7903,
          "velocity": 0.9133858267716536
        },
        {
          "duration": 0.2834284374999996,
          "durationTicks": 156,
          "midi": 72,
          "name": "C5",
          "ticks": 34560,
          "time": 62.7903,
          "velocity": 0.8582677165354331
        },
        {
          "duration": 0.4433111458333343,
          "durationTicks": 244,
          "midi": 65,
          "name": "F4",
          "ticks": 34566,
          "time": 62.80120109375,
          "velocity": 0.905511811023622
        },
        {
          "duration": 0.13808052083333422,
          "durationTicks": 76,
          "midi": 69,
          "name": "A4",
          "ticks": 34748,
          "time": 63.131867604166665,
          "velocity": 0.9448818897637795
        },
        {
          "duration": 0.10901093750000257,
          "durationTicks": 60,
          "midi": 72,
          "name": "C5",
          "ticks": 34760,
          "time": 63.153669791666665,
          "velocity": 0.9763779527559056
        },
        {
          "duration": 0.09447614583333319,
          "durationTicks": 52,
          "midi": 77,
          "name": "F5",
          "ticks": 34760,
          "time": 63.153669791666665,
          "velocity": 0.6299212598425197
        },
        {
          "duration": 0.31249802083333833,
          "durationTicks": 172,
          "midi": 65,
          "name": "F4",
          "ticks": 34848,
          "time": 63.3135525,
          "velocity": 0.7637795275590551
        },
        {
          "duration": 0.31249802083333833,
          "durationTicks": 172,
          "midi": 69,
          "name": "A4",
          "ticks": 34848,
          "time": 63.3135525,
          "velocity": 0.8661417322834646
        },
        {
          "duration": 0.29796322916666185,
          "durationTicks": 164,
          "midi": 72,
          "name": "C5",
          "ticks": 34848,
          "time": 63.3135525,
          "velocity": 0.8976377952755905
        },
        {
          "duration": 0.31613171875000035,
          "durationTicks": 174,
          "midi": 77,
          "name": "F5",
          "ticks": 34848,
          "time": 63.3135525,
          "velocity": 0.937007874015748
        },
        {
          "duration": 0.10901093750000257,
          "durationTicks": 60,
          "midi": 65,
          "name": "F4",
          "ticks": 35040,
          "time": 63.6623875,
          "velocity": 0.8582677165354331
        },
        {
          "duration": 0.12354572916666484,
          "durationTicks": 68,
          "midi": 69,
          "name": "A4",
          "ticks": 35040,
          "time": 63.6623875,
          "velocity": 0.8503937007874016
        },
        {
          "duration": 0.18168489583332814,
          "durationTicks": 100,
          "midi": 65,
          "name": "F4",
          "ticks": 35138,
          "time": 63.84043869791667,
          "velocity": 0.937007874015748
        },
        {
          "duration": 0.12354572916667195,
          "durationTicks": 68,
          "midi": 69,
          "name": "A4",
          "ticks": 35144,
          "time": 63.85133979166667,
          "velocity": 0.9291338582677166
        },
        {
          "duration": 0.16351640625000385,
          "durationTicks": 90,
          "midi": 72,
          "name": "C5",
          "ticks": 35146,
          "time": 63.85497348958334,
          "velocity": 0.937007874015748
        },
        {
          "duration": 0.1526153125000036,
          "durationTicks": 84,
          "midi": 69,
          "name": "A4",
          "ticks": 35240,
          "time": 64.02575729166666,
          "velocity": 0.7637795275590551
        },
        {
          "duration": 0.1526153125000036,
          "durationTicks": 84,
          "midi": 72,
          "name": "C5",
          "ticks": 35240,
          "time": 64.02575729166666,
          "velocity": 0.8582677165354331
        },
        {
          "duration": 0.29796322916666895,
          "durationTicks": 164,
          "midi": 77,
          "name": "F5",
          "ticks": 35240,
          "time": 64.02575729166666,
          "velocity": 0.8582677165354331
        },
        {
          "duration": 0.2543588541666537,
          "durationTicks": 140,
          "midi": 74,
          "name": "D5",
          "ticks": 35328,
          "time": 64.18564,
          "velocity": 0.9133858267716536
        },
        {
          "duration": 0.48691552083333534,
          "durationTicks": 268,
          "midi": 69,
          "name": "A4",
          "ticks": 35334,
          "time": 64.19654109375,
          "velocity": 0.952755905511811
        },
        {
          "duration": 0.1526153125000036,
          "durationTicks": 84,
          "midi": 74,
          "name": "D5",
          "ticks": 35518,
          "time": 64.53084130208333,
          "velocity": 0.952755905511811
        },
        {
          "duration": 0.09447614583332609,
          "durationTicks": 52,
          "midi": 66,
          "name": "F#4",
          "ticks": 35524,
          "time": 64.54174239583334,
          "velocity": 0.6141732283464567
        },
        {
          "duration": 0.14898161458333448,
          "durationTicks": 82,
          "midi": 78,
          "name": "F#5",
          "ticks": 35526,
          "time": 64.54537609375001,
          "velocity": 0.9763779527559056
        },
        {
          "duration": 0.3124980208333312,
          "durationTicks": 172,
          "midi": 66,
          "name": "F#4",
          "ticks": 35616,
          "time": 64.7088925,
          "velocity": 0.8976377952755905
        },
        {
          "duration": 0.3124980208333312,
          "durationTicks": 172,
          "midi": 78,
          "name": "F#5",
          "ticks": 35616,
          "time": 64.7088925,
          "velocity": 0.8976377952755905
        },
        {
          "duration": 0.27979473958333756,
          "durationTicks": 154,
          "midi": 69,
          "name": "A4",
          "ticks": 35624,
          "time": 64.72342729166667,
          "velocity": 0.8976377952755905
        },
        {
          "duration": 0.2652599479166753,
          "durationTicks": 146,
          "midi": 74,
          "name": "D5",
          "ticks": 35630,
          "time": 64.73432838541666,
          "velocity": 0.889763779527559
        },
        {
          "duration": 0.10901093750000257,
          "durationTicks": 60,
          "midi": 69,
          "name": "A4",
          "ticks": 35808,
          "time": 65.0577275,
          "velocity": 0.8582677165354331
        },
        {
          "duration": 0.07994135416666381,
          "durationTicks": 44,
          "midi": 74,
          "name": "D5",
          "ticks": 35808,
          "time": 65.0577275,
          "velocity": 0.7952755905511811
        },
        {
          "duration": 0.35246869791666313,
          "durationTicks": 194,
          "midi": 70,
          "name": "A#4",
          "ticks": 35896,
          "time": 65.21761020833334,
          "velocity": 0.9212598425196851
        },
        {
          "duration": 0.12354572916666484,
          "durationTicks": 68,
          "midi": 74,
          "name": "D5",
          "ticks": 35916,
          "time": 65.2539471875,
          "velocity": 0.9133858267716536
        },
        {
          "duration": 0.13808052083334132,
          "durationTicks": 76,
          "midi": 78,
          "name": "F#5",
          "ticks": 35916,
          "time": 65.2539471875,
          "velocity": 0.937007874015748
        },
        {
          "duration": 0.3124980208333312,
          "durationTicks": 172,
          "midi": 66,
          "name": "F#4",
          "ticks": 36000,
          "time": 65.4065625,
          "velocity": 0.8740157480314961
        },
        {
          "duration": 0.1526153124999894,
          "durationTicks": 84,
          "midi": 74,
          "name": "D5",
          "ticks": 36000,
          "time": 65.4065625,
          "velocity": 0.7637795275590551
        },
        {
          "duration": 0.13808052083332711,
          "durationTicks": 76,
          "midi": 78,
          "name": "F#5",
          "ticks": 36000,
          "time": 65.4065625,
          "velocity": 0.8582677165354331
        },
        {
          "duration": 0.2834284375000067,
          "durationTicks": 156,
          "midi": 74,
          "name": "D5",
          "ticks": 36096,
          "time": 65.58098,
          "velocity": 0.7637795275590551
        },
        {
          "duration": 0.2834284375000067,
          "durationTicks": 156,
          "midi": 78,
          "name": "F#5",
          "ticks": 36096,
          "time": 65.58098,
          "velocity": 0.8582677165354331
        },
        {
          "duration": 0.7049373958333405,
          "durationTicks": 388,
          "midi": 72,
          "name": "C5",
          "ticks": 36102,
          "time": 65.59188109375,
          "velocity": 0.952755905511811
        },
        {
          "duration": 0.31249802083334544,
          "durationTicks": 172,
          "midi": 69,
          "name": "A4",
          "ticks": 36104,
          "time": 65.59551479166666,
          "velocity": 0.952755905511811
        },
        {
          "duration": 0.13808052083334132,
          "durationTicks": 76,
          "midi": 74,
          "name": "D5",
          "ticks": 36284,
          "time": 65.92254760416667,
          "velocity": 0.9448818897637795
        },
        {
          "duration": 0.10901093750000257,
          "durationTicks": 60,
          "midi": 66,
          "name": "F#4",
          "ticks": 36296,
          "time": 65.94434979166667,
          "velocity": 0.6220472440944882
        },
        {
          "duration": 0.10901093750000257,
          "durationTicks": 60,
          "midi": 78,
          "name": "F#5",
          "ticks": 36296,
          "time": 65.94434979166667,
          "velocity": 0.9763779527559056
        },
        {
          "duration": 0.31613171875000035,
          "durationTicks": 174,
          "midi": 66,
          "name": "F#4",
          "ticks": 36384,
          "time": 66.1042325,
          "velocity": 0.8976377952755905
        },
        {
          "duration": 0.31249802083334544,
          "durationTicks": 172,
          "midi": 69,
          "name": "A4",
          "ticks": 36384,
          "time": 66.1042325,
          "velocity": 0.7637795275590551
        },
        {
          "duration": 0.31249802083334544,
          "durationTicks": 172,
          "midi": 74,
          "name": "D5",
          "ticks": 36384,
          "time": 66.1042325,
          "velocity": 0.8661417322834646
        },
        {
          "duration": 0.29796322916666895,
          "durationTicks": 164,
          "midi": 78,
          "name": "F#5",
          "ticks": 36384,
          "time": 66.1042325,
          "velocity": 0.8976377952755905
        },
        {
          "duration": 0.33793390625000086,
          "durationTicks": 186,
          "midi": 70,
          "name": "A#4",
          "ticks": 36498,
          "time": 66.31135328125,
          "velocity": 0.937007874015748
        },
        {
          "duration": 0.10901093750000257,
          "durationTicks": 60,
          "midi": 69,
          "name": "A4",
          "ticks": 36576,
          "time": 66.4530675,
          "velocity": 0.8582677165354331
        },
        {
          "duration": 0.12354572916666484,
          "durationTicks": 68,
          "midi": 74,
          "name": "D5",
          "ticks": 36576,
          "time": 66.4530675,
          "velocity": 0.8503937007874016
        },
        {
          "duration": 0.27979473958333756,
          "durationTicks": 154,
          "midi": 69,
          "name": "A4",
          "ticks": 36674,
          "time": 66.63111869791666,
          "velocity": 0.952755905511811
        },
        {
          "duration": 0.29796322916666895,
          "durationTicks": 164,
          "midi": 74,
          "name": "D5",
          "ticks": 36680,
          "time": 66.64201979166667,
          "velocity": 0.9291338582677166
        },
        {
          "duration": 0.29796322916666895,
          "durationTicks": 164,
          "midi": 66,
          "name": "F#4",
          "ticks": 36682,
          "time": 66.64565348958334,
          "velocity": 0.937007874015748
        },
        {
          "duration": 0.29796322916666895,
          "durationTicks": 164,
          "midi": 78,
          "name": "F#5",
          "ticks": 36682,
          "time": 66.64565348958334,
          "velocity": 0.937007874015748
        },
        {
          "duration": 0.2543588541666679,
          "durationTicks": 140,
          "midi": 70,
          "name": "A#4",
          "ticks": 36864,
          "time": 66.97632,
          "velocity": 0.7401574803149606
        },
        {
          "duration": 0.48691552083334955,
          "durationTicks": 268,
          "midi": 67,
          "name": "G4",
          "ticks": 36870,
          "time": 66.98722109375,
          "velocity": 0.952755905511811
        },
        {
          "duration": 0.1526153125000036,
          "durationTicks": 84,
          "midi": 70,
          "name": "A#4",
          "ticks": 37054,
          "time": 67.32152130208334,
          "velocity": 0.952755905511811
        },
        {
          "duration": 0.14898161458333448,
          "durationTicks": 82,
          "midi": 74,
          "name": "D5",
          "ticks": 37062,
          "time": 67.33605609375,
          "velocity": 0.9763779527559056
        },
        {
          "duration": 0.31249802083334544,
          "durationTicks": 172,
          "midi": 74,
          "name": "D5",
          "ticks": 37152,
          "time": 67.4995725,
          "velocity": 0.8976377952755905
        },
        {
          "duration": 0.31249802083334544,
          "durationTicks": 172,
          "midi": 79,
          "name": "G5",
          "ticks": 37152,
          "time": 67.4995725,
          "velocity": 0.937007874015748
        },
        {
          "duration": 0.27979473958333756,
          "durationTicks": 154,
          "midi": 67,
          "name": "G4",
          "ticks": 37160,
          "time": 67.51410729166666,
          "velocity": 0.8976377952755905
        },
        {
          "duration": 0.2652599479166753,
          "durationTicks": 146,
          "midi": 70,
          "name": "A#4",
          "ticks": 37166,
          "time": 67.52500838541667,
          "velocity": 0.889763779527559
        },
        {
          "duration": 0.10901093749998836,
          "durationTicks": 60,
          "midi": 67,
          "name": "G4",
          "ticks": 37344,
          "time": 67.84840750000001,
          "velocity": 0.8582677165354331
        },
        {
          "duration": 0.07994135416666381,
          "durationTicks": 44,
          "midi": 70,
          "name": "A#4",
          "ticks": 37344,
          "time": 67.84840750000001,
          "velocity": 0.7952755905511811
        },
        {
          "duration": 0.12717942708333396,
          "durationTicks": 70,
          "midi": 67,
          "name": "G4",
          "ticks": 37440,
          "time": 68.022825,
          "velocity": 0.937007874015748
        },
        {
          "duration": 0.12354572916666484,
          "durationTicks": 68,
          "midi": 70,
          "name": "A#4",
          "ticks": 37452,
          "time": 68.0446271875,
          "velocity": 0.9133858267716536
        },
        {
          "duration": 0.13808052083334132,
          "durationTicks": 76,
          "midi": 74,
          "name": "D5",
          "ticks": 37452,
          "time": 68.0446271875,
          "velocity": 0.937007874015748
        },
        {
          "duration": 0.1526153125000036,
          "durationTicks": 84,
          "midi": 70,
          "name": "A#4",
          "ticks": 37536,
          "time": 68.1972425,
          "velocity": 0.7637795275590551
        },
        {
          "duration": 0.13808052083334132,
          "durationTicks": 76,
          "midi": 74,
          "name": "D5",
          "ticks": 37536,
          "time": 68.1972425,
          "velocity": 0.8582677165354331
        },
        {
          "duration": 0.34156760416667,
          "durationTicks": 188,
          "midi": 79,
          "name": "G5",
          "ticks": 37536,
          "time": 68.1972425,
          "velocity": 0.8582677165354331
        },
        {
          "duration": 0.22528927083332917,
          "durationTicks": 124,
          "midi": 70,
          "name": "A#4",
          "ticks": 37632,
          "time": 68.37166,
          "velocity": 0.9133858267716536
        },
        {
          "duration": 0.28342843749999247,
          "durationTicks": 156,
          "midi": 74,
          "name": "D5",
          "ticks": 37632,
          "time": 68.37166,
          "velocity": 0.8582677165354331
        },
        {
          "duration": 0.4433111458333343,
          "durationTicks": 244,
          "midi": 67,
          "name": "G4",
          "ticks": 37638,
          "time": 68.38256109375,
          "velocity": 0.905511811023622
        },
        {
          "duration": 0.16715010416666587,
          "durationTicks": 92,
          "midi": 69,
          "name": "A4",
          "ticks": 37728,
          "time": 68.5460775,
          "velocity": 0.9212598425196851
        },
        {
          "duration": 0.13808052083334132,
          "durationTicks": 76,
          "midi": 70,
          "name": "A#4",
          "ticks": 37820,
          "time": 68.71322760416666,
          "velocity": 0.9448818897637795
        },
        {
          "duration": 0.10901093750000257,
          "durationTicks": 60,
          "midi": 74,
          "name": "D5",
          "ticks": 37832,
          "time": 68.73502979166666,
          "velocity": 0.9763779527559056
        },
        {
          "duration": 0.0944761458333403,
          "durationTicks": 52,
          "midi": 79,
          "name": "G5",
          "ticks": 37832,
          "time": 68.73502979166666,
          "velocity": 0.6299212598425197
        },
        {
          "duration": 0.3124980208333312,
          "durationTicks": 172,
          "midi": 67,
          "name": "G4",
          "ticks": 37920,
          "time": 68.8949125,
          "velocity": 0.7637795275590551
        },
        {
          "duration": 0.2107544791666669,
          "durationTicks": 116,
          "midi": 70,
          "name": "A#4",
          "ticks": 37920,
          "time": 68.8949125,
          "velocity": 0.8661417322834646
        },
        {
          "duration": 0.2107544791666669,
          "durationTicks": 116,
          "midi": 74,
          "name": "D5",
          "ticks": 37920,
          "time": 68.8949125,
          "velocity": 0.8976377952755905
        },
        {
          "duration": 0.31613171875000035,
          "durationTicks": 174,
          "midi": 79,
          "name": "G5",
          "ticks": 37920,
          "time": 68.8949125,
          "velocity": 0.937007874015748
        },
        {
          "duration": 0.23982406249999144,
          "durationTicks": 132,
          "midi": 69,
          "name": "A4",
          "ticks": 38036,
          "time": 69.10566697916667,
          "velocity": 0.9763779527559056
        },
        {
          "duration": 0.10901093750000257,
          "durationTicks": 60,
          "midi": 67,
          "name": "G4",
          "ticks": 38112,
          "time": 69.2437475,
          "velocity": 0.8582677165354331
        },
        {
          "duration": 0.0944761458333403,
          "durationTicks": 52,
          "midi": 70,
          "name": "A#4",
          "ticks": 38112,
          "time": 69.2437475,
          "velocity": 0.8503937007874016
        },
        {
          "duration": 0.29796322916665474,
          "durationTicks": 164,
          "midi": 67,
          "name": "G4",
          "ticks": 38200,
          "time": 69.40363020833334,
          "velocity": 0.984251968503937
        },
        {
          "duration": 0.12354572916667905,
          "durationTicks": 68,
          "midi": 70,
          "name": "A#4",
          "ticks": 38216,
          "time": 69.43269979166666,
          "velocity": 0.9291338582677166
        },
        {
          "duration": 0.16351640625001096,
          "durationTicks": 90,
          "midi": 74,
          "name": "D5",
          "ticks": 38218,
          "time": 69.43633348958333,
          "velocity": 0.937007874015748
        },
        {
          "duration": 0.1526153124999894,
          "durationTicks": 84,
          "midi": 70,
          "name": "A#4",
          "ticks": 38312,
          "time": 69.60711729166667,
          "velocity": 0.7637795275590551
        },
        {
          "duration": 0.13808052083332711,
          "durationTicks": 76,
          "midi": 74,
          "name": "D5",
          "ticks": 38312,
          "time": 69.60711729166667,
          "velocity": 0.8582677165354331
        },
        {
          "duration": 0.29796322916666895,
          "durationTicks": 164,
          "midi": 79,
          "name": "G5",
          "ticks": 38312,
          "time": 69.60711729166667,
          "velocity": 0.8582677165354331
        },
        {
          "duration": 0.2543588541666679,
          "durationTicks": 140,
          "midi": 70,
          "name": "A#4",
          "ticks": 38400,
          "time": 69.767,
          "velocity": 0.9133858267716536
        },
        {
          "duration": 0.48691552083333534,
          "durationTicks": 268,
          "midi": 67,
          "name": "G4",
          "ticks": 38406,
          "time": 69.77790109375,
          "velocity": 0.952755905511811
        },
        {
          "duration": 0.16715010416666587,
          "durationTicks": 92,
          "midi": 69,
          "name": "A4",
          "ticks": 38496,
          "time": 69.9414175,
          "velocity": 0.9212598425196851
        },
        {
          "duration": 0.1526153125000036,
          "durationTicks": 84,
          "midi": 70,
          "name": "A#4",
          "ticks": 38590,
          "time": 70.11220130208334,
          "velocity": 0.952755905511811
        },
        {
          "duration": 0.09447614583332609,
          "durationTicks": 52,
          "midi": 79,
          "name": "G5",
          "ticks": 38596,
          "time": 70.12310239583334,
          "velocity": 0.6141732283464567
        },
        {
          "duration": 0.14898161458333448,
          "durationTicks": 82,
          "midi": 74,
          "name": "D5",
          "ticks": 38598,
          "time": 70.12673609375,
          "velocity": 0.9763779527559056
        },
        {
          "duration": 0.3124980208333312,
          "durationTicks": 172,
          "midi": 74,
          "name": "D5",
          "ticks": 38688,
          "time": 70.29025250000001,
          "velocity": 0.8976377952755905
        },
        {
          "duration": 0.3124980208333312,
          "durationTicks": 172,
          "midi": 79,
          "name": "G5",
          "ticks": 38688,
          "time": 70.29025250000001,
          "velocity": 0.8976377952755905
        },
        {
          "duration": 0.27979473958333756,
          "durationTicks": 154,
          "midi": 67,
          "name": "G4",
          "ticks": 38696,
          "time": 70.30478729166667,
          "velocity": 0.8976377952755905
        },
        {
          "duration": 0.2652599479166753,
          "durationTicks": 146,
          "midi": 70,
          "name": "A#4",
          "ticks": 38702,
          "time": 70.31568838541666,
          "velocity": 0.889763779527559
        },
        {
          "duration": 0.10901093750000257,
          "durationTicks": 60,
          "midi": 67,
          "name": "G4",
          "ticks": 38880,
          "time": 70.6390875,
          "velocity": 0.8582677165354331
        },
        {
          "duration": 0.07994135416666381,
          "durationTicks": 44,
          "midi": 70,
          "name": "A#4",
          "ticks": 38880,
          "time": 70.6390875,
          "velocity": 0.7952755905511811
        },
        {
          "duration": 0.12717942708333396,
          "durationTicks": 70,
          "midi": 67,
          "name": "G4",
          "ticks": 38976,
          "time": 70.813505,
          "velocity": 0.937007874015748
        },
        {
          "duration": 0.12354572916666484,
          "durationTicks": 68,
          "midi": 70,
          "name": "A#4",
          "ticks": 38988,
          "time": 70.8353071875,
          "velocity": 0.9133858267716536
        },
        {
          "duration": 0.13808052083332711,
          "durationTicks": 76,
          "midi": 74,
          "name": "D5",
          "ticks": 38988,
          "time": 70.8353071875,
          "velocity": 0.937007874015748
        },
        {
          "duration": 0.1526153125000036,
          "durationTicks": 84,
          "midi": 70,
          "name": "A#4",
          "ticks": 39072,
          "time": 70.9879225,
          "velocity": 0.7637795275590551
        },
        {
          "duration": 0.13808052083334132,
          "durationTicks": 76,
          "midi": 74,
          "name": "D5",
          "ticks": 39072,
          "time": 70.9879225,
          "velocity": 0.8582677165354331
        },
        {
          "duration": 0.31249802083334544,
          "durationTicks": 172,
          "midi": 79,
          "name": "G5",
          "ticks": 39072,
          "time": 70.9879225,
          "velocity": 0.8740157480314961
        },
        {
          "duration": 0.2834284375000067,
          "durationTicks": 156,
          "midi": 70,
          "name": "A#4",
          "ticks": 39168,
          "time": 71.16234,
          "velocity": 0.7637795275590551
        },
        {
          "duration": 0.2834284375000067,
          "durationTicks": 156,
          "midi": 74,
          "name": "D5",
          "ticks": 39168,
          "time": 71.16234,
          "velocity": 0.8582677165354331
        },
        {
          "duration": 0.4433111458333343,
          "durationTicks": 244,
          "midi": 67,
          "name": "G4",
          "ticks": 39174,
          "time": 71.17324109375001,
          "velocity": 0.905511811023622
        },
        {
          "duration": 0.16715010416668008,
          "durationTicks": 92,
          "midi": 69,
          "name": "A4",
          "ticks": 39266,
          "time": 71.34039119791666,
          "velocity": 0.9212598425196851
        },
        {
          "duration": 0.13808052083332711,
          "durationTicks": 76,
          "midi": 70,
          "name": "A#4",
          "ticks": 39356,
          "time": 71.50390760416667,
          "velocity": 0.9448818897637795
        },
        {
          "duration": 0.10901093749998836,
          "durationTicks": 60,
          "midi": 74,
          "name": "D5",
          "ticks": 39368,
          "time": 71.52570979166667,
          "velocity": 0.9763779527559056
        },
        {
          "duration": 0.10901093749998836,
          "durationTicks": 60,
          "midi": 79,
          "name": "G5",
          "ticks": 39368,
          "time": 71.52570979166667,
          "velocity": 0.6220472440944882
        },
        {
          "duration": 0.3997067708333333,
          "durationTicks": 220,
          "midi": 67,
          "name": "G4",
          "ticks": 39456,
          "time": 71.6855925,
          "velocity": 0.7637795275590551
        },
        {
          "duration": 0.13808052083334132,
          "durationTicks": 76,
          "midi": 70,
          "name": "A#4",
          "ticks": 39456,
          "time": 71.6855925,
          "velocity": 0.8661417322834646
        },
        {
          "duration": 0.48691552083333534,
          "durationTicks": 268,
          "midi": 74,
          "name": "D5",
          "ticks": 39456,
          "time": 71.6855925,
          "velocity": 0.8976377952755905
        },
        {
          "duration": 0.4578459374999966,
          "durationTicks": 252,
          "midi": 79,
          "name": "G5",
          "ticks": 39456,
          "time": 71.6855925,
          "velocity": 0.8976377952755905
        },
        {
          "duration": 0.23619036458333653,
          "durationTicks": 130,
          "midi": 60,
          "name": "C4",
          "ticks": 39546,
          "time": 71.84910890625,
          "velocity": 0.952755905511811
        },
        {
          "duration": 0.24709145833332968,
          "durationTicks": 136,
          "midi": 58,
          "name": "A#3",
          "ticks": 39742,
          "time": 72.20521130208334,
          "velocity": 0.937007874015748
        },
        {
          "duration": 0.27979473958333756,
          "durationTicks": 154,
          "midi": 67,
          "name": "G4",
          "ticks": 39746,
          "time": 72.21247869791667,
          "velocity": 0.937007874015748
        },
        {
          "duration": 0.2688936458333444,
          "durationTicks": 148,
          "midi": 70,
          "name": "A#4",
          "ticks": 39752,
          "time": 72.22337979166666,
          "velocity": 0.9291338582677166
        },
        {
          "duration": 0.2652599479166611,
          "durationTicks": 146,
          "midi": 74,
          "name": "D5",
          "ticks": 39754,
          "time": 72.22701348958334,
          "velocity": 0.937007874015748
        },
        {
          "duration": 0.2652599479166611,
          "durationTicks": 146,
          "midi": 79,
          "name": "G5",
          "ticks": 39754,
          "time": 72.22701348958334,
          "velocity": 0.937007874015748
        },
        {
          "duration": 0.6613330208333252,
          "durationTicks": 364,
          "midi": 60,
          "name": "C4",
          "ticks": 39934,
          "time": 72.55404630208334,
          "velocity": 0.8740157480314961
        },
        {
          "duration": 0.48691552083333534,
          "durationTicks": 268,
          "midi": 65,
          "name": "F4",
          "ticks": 39942,
          "time": 72.56858109375,
          "velocity": 0.952755905511811
        },
        {
          "duration": 0.1526153124999894,
          "durationTicks": 84,
          "midi": 69,
          "name": "A4",
          "ticks": 40126,
          "time": 72.90288130208334,
          "velocity": 0.952755905511811
        },
        {
          "duration": 0.14898161458333448,
          "durationTicks": 82,
          "midi": 72,
          "name": "C5",
          "ticks": 40134,
          "time": 72.91741609375,
          "velocity": 0.9763779527559056
        },
        {
          "duration": 0.3124980208333312,
          "durationTicks": 172,
          "midi": 72,
          "name": "C5",
          "ticks": 40224,
          "time": 73.0809325,
          "velocity": 0.8976377952755905
        },
        {
          "duration": 0.3124980208333312,
          "durationTicks": 172,
          "midi": 77,
          "name": "F5",
          "ticks": 40224,
          "time": 73.0809325,
          "velocity": 0.937007874015748
        },
        {
          "duration": 0.27979473958333756,
          "durationTicks": 154,
          "midi": 65,
          "name": "F4",
          "ticks": 40232,
          "time": 73.09546729166667,
          "velocity": 0.8976377952755905
        },
        {
          "duration": 0.2652599479166753,
          "durationTicks": 146,
          "midi": 69,
          "name": "A4",
          "ticks": 40238,
          "time": 73.10636838541666,
          "velocity": 0.889763779527559
        },
        {
          "duration": 0.10901093750000257,
          "durationTicks": 60,
          "midi": 65,
          "name": "F4",
          "ticks": 40416,
          "time": 73.4297675,
          "velocity": 0.8582677165354331
        },
        {
          "duration": 0.07994135416666381,
          "durationTicks": 44,
          "midi": 69,
          "name": "A4",
          "ticks": 40416,
          "time": 73.4297675,
          "velocity": 0.7952755905511811
        },
        {
          "duration": 0.12717942708333396,
          "durationTicks": 70,
          "midi": 65,
          "name": "F4",
          "ticks": 40512,
          "time": 73.604185,
          "velocity": 0.937007874015748
        },
        {
          "duration": 0.12354572916666484,
          "durationTicks": 68,
          "midi": 69,
          "name": "A4",
          "ticks": 40524,
          "time": 73.6259871875,
          "velocity": 0.9133858267716536
        },
        {
          "duration": 0.13808052083334132,
          "durationTicks": 76,
          "midi": 72,
          "name": "C5",
          "ticks": 40524,
          "time": 73.6259871875,
          "velocity": 0.937007874015748
        },
        {
          "duration": 0.1526153124999894,
          "durationTicks": 84,
          "midi": 69,
          "name": "A4",
          "ticks": 40608,
          "time": 73.7786025,
          "velocity": 0.7637795275590551
        },
        {
          "duration": 0.13808052083332711,
          "durationTicks": 76,
          "midi": 72,
          "name": "C5",
          "ticks": 40608,
          "time": 73.7786025,
          "velocity": 0.8582677165354331
        },
        {
          "duration": 0.34156760416665577,
          "durationTicks": 188,
          "midi": 77,
          "name": "F5",
          "ticks": 40608,
          "time": 73.7786025,
          "velocity": 0.8582677165354331
        },
        {
          "duration": 0.5414209895833295,
          "durationTicks": 298,
          "midi": 60,
          "name": "C4",
          "ticks": 40698,
          "time": 73.94211890625,
          "velocity": 1
        },
        {
          "duration": 0.22528927083334338,
          "durationTicks": 124,
          "midi": 69,
          "name": "A4",
          "ticks": 40704,
          "time": 73.95302,
          "velocity": 0.9133858267716536
        },
        {
          "duration": 0.2834284375000067,
          "durationTicks": 156,
          "midi": 72,
          "name": "C5",
          "ticks": 40704,
          "time": 73.95302,
          "velocity": 0.8582677165354331
        },
        {
          "duration": 0.4433111458333343,
          "durationTicks": 244,
          "midi": 65,
          "name": "F4",
          "ticks": 40710,
          "time": 73.96392109375,
          "velocity": 0.905511811023622
        },
        {
          "duration": 0.13808052083334132,
          "durationTicks": 76,
          "midi": 69,
          "name": "A4",
          "ticks": 40892,
          "time": 74.29458760416667,
          "velocity": 0.9448818897637795
        },
        {
          "duration": 0.10901093750000257,
          "durationTicks": 60,
          "midi": 72,
          "name": "C5",
          "ticks": 40904,
          "time": 74.31638979166667,
          "velocity": 0.9763779527559056
        },
        {
          "duration": 0.0944761458333403,
          "durationTicks": 52,
          "midi": 77,
          "name": "F5",
          "ticks": 40904,
          "time": 74.31638979166667,
          "velocity": 0.6299212598425197
        },
        {
          "duration": 0.3124980208333312,
          "durationTicks": 172,
          "midi": 65,
          "name": "F4",
          "ticks": 40992,
          "time": 74.47627250000001,
          "velocity": 0.7637795275590551
        },
        {
          "duration": 0.3124980208333312,
          "durationTicks": 172,
          "midi": 69,
          "name": "A4",
          "ticks": 40992,
          "time": 74.47627250000001,
          "velocity": 0.8661417322834646
        },
        {
          "duration": 0.29796322916665474,
          "durationTicks": 164,
          "midi": 72,
          "name": "C5",
          "ticks": 40992,
          "time": 74.47627250000001,
          "velocity": 0.8976377952755905
        },
        {
          "duration": 0.31613171875000035,
          "durationTicks": 174,
          "midi": 77,
          "name": "F5",
          "ticks": 40992,
          "time": 74.47627250000001,
          "velocity": 0.937007874015748
        },
        {
          "duration": 0.18168489583334235,
          "durationTicks": 100,
          "midi": 58,
          "name": "A#3",
          "ticks": 41084,
          "time": 74.64342260416666,
          "velocity": 0.968503937007874
        },
        {
          "duration": 0.10901093750000257,
          "durationTicks": 60,
          "midi": 65,
          "name": "F4",
          "ticks": 41184,
          "time": 74.8251075,
          "velocity": 0.8582677165354331
        },
        {
          "duration": 0.12354572916666484,
          "durationTicks": 68,
          "midi": 69,
          "name": "A4",
          "ticks": 41184,
          "time": 74.8251075,
          "velocity": 0.8503937007874016
        },
        {
          "duration": 0.21802187500000514,
          "durationTicks": 120,
          "midi": 57,
          "name": "A3",
          "ticks": 41278,
          "time": 74.99589130208334,
          "velocity": 0.952755905511811
        },
        {
          "duration": 0.18168489583334235,
          "durationTicks": 100,
          "midi": 65,
          "name": "F4",
          "ticks": 41282,
          "time": 75.00315869791666,
          "velocity": 0.937007874015748
        },
        {
          "duration": 0.12354572916666484,
          "durationTicks": 68,
          "midi": 69,
          "name": "A4",
          "ticks": 41288,
          "time": 75.01405979166667,
          "velocity": 0.9291338582677166
        },
        {
          "duration": 0.16351640624999675,
          "durationTicks": 90,
          "midi": 72,
          "name": "C5",
          "ticks": 41290,
          "time": 75.01769348958334,
          "velocity": 0.937007874015748
        },
        {
          "duration": 0.1526153125000036,
          "durationTicks": 84,
          "midi": 69,
          "name": "A4",
          "ticks": 41384,
          "time": 75.18847729166666,
          "velocity": 0.7637795275590551
        },
        {
          "duration": 0.13808052083334132,
          "durationTicks": 76,
          "midi": 72,
          "name": "C5",
          "ticks": 41384,
          "time": 75.18847729166666,
          "velocity": 0.8582677165354331
        },
        {
          "duration": 0.29796322916668316,
          "durationTicks": 164,
          "midi": 77,
          "name": "F5",
          "ticks": 41384,
          "time": 75.18847729166666,
          "velocity": 0.8582677165354331
        },
        {
          "duration": 0.2543588541666679,
          "durationTicks": 140,
          "midi": 70,
          "name": "A#4",
          "ticks": 41472,
          "time": 75.34836,
          "velocity": 0.7401574803149606
        },
        {
          "duration": 0.48691552083333534,
          "durationTicks": 268,
          "midi": 67,
          "name": "G4",
          "ticks": 41478,
          "time": 75.35926109375,
          "velocity": 0.952755905511811
        },
        {
          "duration": 0.7085710937500096,
          "durationTicks": 390,
          "midi": 55,
          "name": "G3",
          "ticks": 41482,
          "time": 75.36652848958333,
          "velocity": 0.9212598425196851
        },
        {
          "duration": 0.1526153125000036,
          "durationTicks": 84,
          "midi": 70,
          "name": "A#4",
          "ticks": 41662,
          "time": 75.69356130208334,
          "velocity": 0.952755905511811
        },
        {
          "duration": 0.14898161458333448,
          "durationTicks": 82,
          "midi": 74,
          "name": "D5",
          "ticks": 41670,
          "time": 75.70809609375,
          "velocity": 0.9763779527559056
        },
        {
          "duration": 0.31249802083334544,
          "durationTicks": 172,
          "midi": 74,
          "name": "D5",
          "ticks": 41760,
          "time": 75.8716125,
          "velocity": 0.8976377952755905
        },
        {
          "duration": 0.31249802083334544,
          "durationTicks": 172,
          "midi": 79,
          "name": "G5",
          "ticks": 41760,
          "time": 75.8716125,
          "velocity": 0.937007874015748
        },
        {
          "duration": 0.27979473958333756,
          "durationTicks": 154,
          "midi": 67,
          "name": "G4",
          "ticks": 41768,
          "time": 75.88614729166666,
          "velocity": 0.8976377952755905
        },
        {
          "duration": 0.2652599479166753,
          "durationTicks": 146,
          "midi": 70,
          "name": "A#4",
          "ticks": 41774,
          "time": 75.89704838541667,
          "velocity": 0.889763779527559
        },
        {
          "duration": 0.10901093749998836,
          "durationTicks": 60,
          "midi": 67,
          "name": "G4",
          "ticks": 41952,
          "time": 76.2204475,
          "velocity": 0.8582677165354331
        },
        {
          "duration": 0.07994135416666381,
          "durationTicks": 44,
          "midi": 70,
          "name": "A#4",
          "ticks": 41952,
          "time": 76.2204475,
          "velocity": 0.7952755905511811
        },
        {
          "duration": 0.12717942708334817,
          "durationTicks": 70,
          "midi": 67,
          "name": "G4",
          "ticks": 42048,
          "time": 76.394865,
          "velocity": 0.937007874015748
        },
        {
          "duration": 0.12354572916666484,
          "durationTicks": 68,
          "midi": 70,
          "name": "A#4",
          "ticks": 42060,
          "time": 76.4166671875,
          "velocity": 0.9133858267716536
        },
        {
          "duration": 0.13808052083334132,
          "durationTicks": 76,
          "midi": 74,
          "name": "D5",
          "ticks": 42060,
          "time": 76.4166671875,
          "velocity": 0.937007874015748
        },
        {
          "duration": 0.1526153125000036,
          "durationTicks": 84,
          "midi": 70,
          "name": "A#4",
          "ticks": 42144,
          "time": 76.5692825,
          "velocity": 0.7637795275590551
        },
        {
          "duration": 0.13808052083334132,
          "durationTicks": 76,
          "midi": 74,
          "name": "D5",
          "ticks": 42144,
          "time": 76.5692825,
          "velocity": 0.8582677165354331
        },
        {
          "duration": 0.34156760416667,
          "durationTicks": 188,
          "midi": 79,
          "name": "G5",
          "ticks": 42144,
          "time": 76.5692825,
          "velocity": 0.8582677165354331
        },
        {
          "duration": 0.22528927083332917,
          "durationTicks": 124,
          "midi": 70,
          "name": "A#4",
          "ticks": 42240,
          "time": 76.7437,
          "velocity": 0.9133858267716536
        },
        {
          "duration": 0.28342843749999247,
          "durationTicks": 156,
          "midi": 74,
          "name": "D5",
          "ticks": 42240,
          "time": 76.7437,
          "velocity": 0.8582677165354331
        },
        {
          "duration": 0.4433111458333343,
          "durationTicks": 244,
          "midi": 67,
          "name": "G4",
          "ticks": 42246,
          "time": 76.75460109375,
          "velocity": 0.905511811023622
        },
        {
          "duration": 0.16715010416665166,
          "durationTicks": 92,
          "midi": 69,
          "name": "A4",
          "ticks": 42336,
          "time": 76.91811750000001,
          "velocity": 0.9212598425196851
        },
        {
          "duration": 0.13808052083334132,
          "durationTicks": 76,
          "midi": 70,
          "name": "A#4",
          "ticks": 42428,
          "time": 77.08526760416666,
          "velocity": 0.9448818897637795
        },
        {
          "duration": 0.10901093750000257,
          "durationTicks": 60,
          "midi": 74,
          "name": "D5",
          "ticks": 42440,
          "time": 77.10706979166666,
          "velocity": 0.9763779527559056
        },
        {
          "duration": 0.0944761458333403,
          "durationTicks": 52,
          "midi": 79,
          "name": "G5",
          "ticks": 42440,
          "time": 77.10706979166666,
          "velocity": 0.6299212598425197
        },
        {
          "duration": 0.3124980208333312,
          "durationTicks": 172,
          "midi": 67,
          "name": "G4",
          "ticks": 42528,
          "time": 77.2669525,
          "velocity": 0.7637795275590551
        },
        {
          "duration": 0.2107544791666669,
          "durationTicks": 116,
          "midi": 70,
          "name": "A#4",
          "ticks": 42528,
          "time": 77.2669525,
          "velocity": 0.8661417322834646
        },
        {
          "duration": 0.2107544791666669,
          "durationTicks": 116,
          "midi": 74,
          "name": "D5",
          "ticks": 42528,
          "time": 77.2669525,
          "velocity": 0.8976377952755905
        },
        {
          "duration": 0.31613171875000035,
          "durationTicks": 174,
          "midi": 79,
          "name": "G5",
          "ticks": 42528,
          "time": 77.2669525,
          "velocity": 0.937007874015748
        },
        {
          "duration": 0.10901093750000257,
          "durationTicks": 60,
          "midi": 67,
          "name": "G4",
          "ticks": 42720,
          "time": 77.6157875,
          "velocity": 0.8582677165354331
        },
        {
          "duration": 0.0944761458333403,
          "durationTicks": 52,
          "midi": 70,
          "name": "A#4",
          "ticks": 42720,
          "time": 77.6157875,
          "velocity": 0.8503937007874016
        },
        {
          "duration": 0.29796322916666895,
          "durationTicks": 164,
          "midi": 67,
          "name": "G4",
          "ticks": 42808,
          "time": 77.77567020833334,
          "velocity": 0.984251968503937
        },
        {
          "duration": 0.12354572916667905,
          "durationTicks": 68,
          "midi": 70,
          "name": "A#4",
          "ticks": 42824,
          "time": 77.80473979166666,
          "velocity": 0.9291338582677166
        },
        {
          "duration": 0.16351640625001096,
          "durationTicks": 90,
          "midi": 74,
          "name": "D5",
          "ticks": 42826,
          "time": 77.80837348958333,
          "velocity": 0.937007874015748
        },
        {
          "duration": 0.1526153125000036,
          "durationTicks": 84,
          "midi": 70,
          "name": "A#4",
          "ticks": 42920,
          "time": 77.97915729166667,
          "velocity": 0.7637795275590551
        },
        {
          "duration": 0.13808052083334132,
          "durationTicks": 76,
          "midi": 74,
          "name": "D5",
          "ticks": 42920,
          "time": 77.97915729166667,
          "velocity": 0.8582677165354331
        },
        {
          "duration": 0.29796322916666895,
          "durationTicks": 164,
          "midi": 79,
          "name": "G5",
          "ticks": 42920,
          "time": 77.97915729166667,
          "velocity": 0.8582677165354331
        },
        {
          "duration": 0.2543588541666679,
          "durationTicks": 140,
          "midi": 69,
          "name": "A4",
          "ticks": 43008,
          "time": 78.13904,
          "velocity": 0.7401574803149606
        },
        {
          "duration": 0.48691552083333534,
          "durationTicks": 268,
          "midi": 65,
          "name": "F4",
          "ticks": 43014,
          "time": 78.14994109375,
          "velocity": 0.952755905511811
        },
        {
          "duration": 0.1526153125000036,
          "durationTicks": 84,
          "midi": 69,
          "name": "A4",
          "ticks": 43198,
          "time": 78.48424130208333,
          "velocity": 0.952755905511811
        },
        {
          "duration": 0.1489816145833487,
          "durationTicks": 82,
          "midi": 72,
          "name": "C5",
          "ticks": 43206,
          "time": 78.49877609375,
          "velocity": 0.9763779527559056
        },
        {
          "duration": 0.3124980208333312,
          "durationTicks": 172,
          "midi": 72,
          "name": "C5",
          "ticks": 43296,
          "time": 78.6622925,
          "velocity": 0.8976377952755905
        },
        {
          "duration": 0.3124980208333312,
          "durationTicks": 172,
          "midi": 77,
          "name": "F5",
          "ticks": 43296,
          "time": 78.6622925,
          "velocity": 0.937007874015748
        },
        {
          "duration": 0.27979473958333756,
          "durationTicks": 154,
          "midi": 65,
          "name": "F4",
          "ticks": 43304,
          "time": 78.67682729166667,
          "velocity": 0.8976377952755905
        },
        {
          "duration": 0.2652599479166753,
          "durationTicks": 146,
          "midi": 69,
          "name": "A4",
          "ticks": 43310,
          "time": 78.68772838541666,
          "velocity": 0.889763779527559
        },
        {
          "duration": 0.10901093750000257,
          "durationTicks": 60,
          "midi": 65,
          "name": "F4",
          "ticks": 43488,
          "time": 79.0111275,
          "velocity": 0.8582677165354331
        },
        {
          "duration": 0.07994135416666381,
          "durationTicks": 44,
          "midi": 69,
          "name": "A4",
          "ticks": 43488,
          "time": 79.0111275,
          "velocity": 0.7952755905511811
        },
        {
          "duration": 0.12717942708333396,
          "durationTicks": 70,
          "midi": 65,
          "name": "F4",
          "ticks": 43584,
          "time": 79.185545,
          "velocity": 0.937007874015748
        },
        {
          "duration": 0.12354572916666484,
          "durationTicks": 68,
          "midi": 69,
          "name": "A4",
          "ticks": 43596,
          "time": 79.2073471875,
          "velocity": 0.9133858267716536
        },
        {
          "duration": 0.13808052083332711,
          "durationTicks": 76,
          "midi": 72,
          "name": "C5",
          "ticks": 43596,
          "time": 79.2073471875,
          "velocity": 0.937007874015748
        },
        {
          "duration": 0.1526153125000036,
          "durationTicks": 84,
          "midi": 69,
          "name": "A4",
          "ticks": 43680,
          "time": 79.3599625,
          "velocity": 0.7637795275590551
        },
        {
          "duration": 0.13808052083334132,
          "durationTicks": 76,
          "midi": 72,
          "name": "C5",
          "ticks": 43680,
          "time": 79.3599625,
          "velocity": 0.8582677165354331
        },
        {
          "duration": 0.34156760416667,
          "durationTicks": 188,
          "midi": 77,
          "name": "F5",
          "ticks": 43680,
          "time": 79.3599625,
          "velocity": 0.8582677165354331
        },
        {
          "duration": 0.22528927083334338,
          "durationTicks": 124,
          "midi": 69,
          "name": "A4",
          "ticks": 43776,
          "time": 79.53438,
          "velocity": 0.9133858267716536
        },
        {
          "duration": 0.2834284375000067,
          "durationTicks": 156,
          "midi": 72,
          "name": "C5",
          "ticks": 43776,
          "time": 79.53438,
          "velocity": 0.8582677165354331
        },
        {
          "duration": 0.4433111458333343,
          "durationTicks": 244,
          "midi": 65,
          "name": "F4",
          "ticks": 43782,
          "time": 79.54528109375,
          "velocity": 0.905511811023622
        },
        {
          "duration": 0.16715010416666587,
          "durationTicks": 92,
          "midi": 77,
          "name": "F5",
          "ticks": 43872,
          "time": 79.7087975,
          "velocity": 0.9212598425196851
        },
        {
          "duration": 0.13808052083332711,
          "durationTicks": 76,
          "midi": 69,
          "name": "A4",
          "ticks": 43964,
          "time": 79.87594760416667,
          "velocity": 0.9448818897637795
        },
        {
          "duration": 0.10901093750000257,
          "durationTicks": 60,
          "midi": 72,
          "name": "C5",
          "ticks": 43976,
          "time": 79.89774979166667,
          "velocity": 0.9763779527559056
        },
        {
          "duration": 0.09447614583332609,
          "durationTicks": 52,
          "midi": 77,
          "name": "F5",
          "ticks": 43976,
          "time": 79.89774979166667,
          "velocity": 0.6299212598425197
        },
        {
          "duration": 0.31249802083334544,
          "durationTicks": 172,
          "midi": 65,
          "name": "F4",
          "ticks": 44064,
          "time": 80.0576325,
          "velocity": 0.7637795275590551
        },
        {
          "duration": 0.2107544791666669,
          "durationTicks": 116,
          "midi": 69,
          "name": "A4",
          "ticks": 44064,
          "time": 80.0576325,
          "velocity": 0.8661417322834646
        },
        {
          "duration": 0.2107544791666669,
          "durationTicks": 116,
          "midi": 72,
          "name": "C5",
          "ticks": 44064,
          "time": 80.0576325,
          "velocity": 0.8976377952755905
        },
        {
          "duration": 0.31613171875000035,
          "durationTicks": 174,
          "midi": 77,
          "name": "F5",
          "ticks": 44064,
          "time": 80.0576325,
          "velocity": 0.937007874015748
        },
        {
          "duration": 0.10901093750000257,
          "durationTicks": 60,
          "midi": 65,
          "name": "F4",
          "ticks": 44256,
          "time": 80.4064675,
          "velocity": 0.8582677165354331
        },
        {
          "duration": 0.09447614583332609,
          "durationTicks": 52,
          "midi": 69,
          "name": "A4",
          "ticks": 44256,
          "time": 80.4064675,
          "velocity": 0.8503937007874016
        },
        {
          "duration": 0.23982406249999144,
          "durationTicks": 132,
          "midi": 77,
          "name": "F5",
          "ticks": 44264,
          "time": 80.42100229166667,
          "velocity": 0.9763779527559056
        },
        {
          "duration": 0.29796322916666895,
          "durationTicks": 164,
          "midi": 65,
          "name": "F4",
          "ticks": 44344,
          "time": 80.56635020833333,
          "velocity": 0.984251968503937
        },
        {
          "duration": 0.12354572916666484,
          "durationTicks": 68,
          "midi": 69,
          "name": "A4",
          "ticks": 44360,
          "time": 80.59541979166667,
          "velocity": 0.9291338582677166
        },
        {
          "duration": 0.16351640624999675,
          "durationTicks": 90,
          "midi": 72,
          "name": "C5",
          "ticks": 44362,
          "time": 80.59905348958334,
          "velocity": 0.937007874015748
        },
        {
          "duration": 0.1526153125000036,
          "durationTicks": 84,
          "midi": 69,
          "name": "A4",
          "ticks": 44456,
          "time": 80.76983729166666,
          "velocity": 0.7637795275590551
        },
        {
          "duration": 0.13808052083334132,
          "durationTicks": 76,
          "midi": 72,
          "name": "C5",
          "ticks": 44456,
          "time": 80.76983729166666,
          "velocity": 0.8582677165354331
        },
        {
          "duration": 0.29796322916668316,
          "durationTicks": 164,
          "midi": 77,
          "name": "F5",
          "ticks": 44456,
          "time": 80.76983729166666,
          "velocity": 0.8582677165354331
        },
        {
          "duration": 0.2543588541666679,
          "durationTicks": 140,
          "midi": 69,
          "name": "A4",
          "ticks": 44544,
          "time": 80.92972,
          "velocity": 0.9133858267716536
        },
        {
          "duration": 0.48691552083333534,
          "durationTicks": 268,
          "midi": 66,
          "name": "F#4",
          "ticks": 44550,
          "time": 80.94062109375,
          "velocity": 0.952755905511811
        },
        {
          "duration": 0.1526153124999894,
          "durationTicks": 84,
          "midi": 69,
          "name": "A4",
          "ticks": 44734,
          "time": 81.27492130208334,
          "velocity": 0.952755905511811
        },
        {
          "duration": 0.09447614583332609,
          "durationTicks": 52,
          "midi": 78,
          "name": "F#5",
          "ticks": 44740,
          "time": 81.28582239583334,
          "velocity": 0.6141732283464567
        },
        {
          "duration": 0.14898161458333448,
          "durationTicks": 82,
          "midi": 74,
          "name": "D5",
          "ticks": 44742,
          "time": 81.28945609375,
          "velocity": 0.9763779527559056
        },
        {
          "duration": 0.3124980208333312,
          "durationTicks": 172,
          "midi": 74,
          "name": "D5",
          "ticks": 44832,
          "time": 81.4529725,
          "velocity": 0.8976377952755905
        },
        {
          "duration": 0.3124980208333312,
          "durationTicks": 172,
          "midi": 78,
          "name": "F#5",
          "ticks": 44832,
          "time": 81.4529725,
          "velocity": 0.8976377952755905
        },
        {
          "duration": 0.27979473958333756,
          "durationTicks": 154,
          "midi": 66,
          "name": "F#4",
          "ticks": 44840,
          "time": 81.46750729166666,
          "velocity": 0.8976377952755905
        },
        {
          "duration": 0.2652599479166611,
          "durationTicks": 146,
          "midi": 69,
          "name": "A4",
          "ticks": 44846,
          "time": 81.47840838541667,
          "velocity": 0.889763779527559
        },
        {
          "duration": 0.10901093750000257,
          "durationTicks": 60,
          "midi": 66,
          "name": "F#4",
          "ticks": 45024,
          "time": 81.8018075,
          "velocity": 0.8582677165354331
        },
        {
          "duration": 0.07994135416666381,
          "durationTicks": 44,
          "midi": 69,
          "name": "A4",
          "ticks": 45024,
          "time": 81.8018075,
          "velocity": 0.7952755905511811
        },
        {
          "duration": 0.12717942708333396,
          "durationTicks": 70,
          "midi": 66,
          "name": "F#4",
          "ticks": 45120,
          "time": 81.976225,
          "velocity": 0.937007874015748
        },
        {
          "duration": 0.12354572916666484,
          "durationTicks": 68,
          "midi": 69,
          "name": "A4",
          "ticks": 45132,
          "time": 81.9980271875,
          "velocity": 0.9133858267716536
        },
        {
          "duration": 0.13808052083334132,
          "durationTicks": 76,
          "midi": 74,
          "name": "D5",
          "ticks": 45132,
          "time": 81.9980271875,
          "velocity": 0.937007874015748
        },
        {
          "duration": 0.1526153125000036,
          "durationTicks": 84,
          "midi": 69,
          "name": "A4",
          "ticks": 45216,
          "time": 82.1506425,
          "velocity": 0.7637795275590551
        },
        {
          "duration": 0.13808052083334132,
          "durationTicks": 76,
          "midi": 74,
          "name": "D5",
          "ticks": 45216,
          "time": 82.1506425,
          "velocity": 0.8582677165354331
        },
        {
          "duration": 0.3124980208333312,
          "durationTicks": 172,
          "midi": 78,
          "name": "F#5",
          "ticks": 45216,
          "time": 82.1506425,
          "velocity": 0.8740157480314961
        },
        {
          "duration": 0.28342843749999247,
          "durationTicks": 156,
          "midi": 72,
          "name": "C5",
          "ticks": 45312,
          "time": 82.32506000000001,
          "velocity": 0.7637795275590551
        },
        {
          "duration": 0.28342843749999247,
          "durationTicks": 156,
          "midi": 74,
          "name": "D5",
          "ticks": 45312,
          "time": 82.32506000000001,
          "velocity": 0.8582677165354331
        },
        {
          "duration": 0.4433111458333343,
          "durationTicks": 244,
          "midi": 66,
          "name": "F#4",
          "ticks": 45318,
          "time": 82.33596109375,
          "velocity": 0.905511811023622
        },
        {
          "duration": 0.13808052083334132,
          "durationTicks": 76,
          "midi": 72,
          "name": "C5",
          "ticks": 45500,
          "time": 82.66662760416666,
          "velocity": 0.9448818897637795
        },
        {
          "duration": 0.10901093750000257,
          "durationTicks": 60,
          "midi": 74,
          "name": "D5",
          "ticks": 45512,
          "time": 82.68842979166666,
          "velocity": 0.9763779527559056
        },
        {
          "duration": 0.10901093750000257,
          "durationTicks": 60,
          "midi": 78,
          "name": "F#5",
          "ticks": 45512,
          "time": 82.68842979166666,
          "velocity": 0.6220472440944882
        },
        {
          "duration": 0.4433111458333343,
          "durationTicks": 244,
          "midi": 66,
          "name": "F#4",
          "ticks": 45600,
          "time": 82.8483125,
          "velocity": 0.7637795275590551
        },
        {
          "duration": 0.13808052083332711,
          "durationTicks": 76,
          "midi": 72,
          "name": "C5",
          "ticks": 45600,
          "time": 82.8483125,
          "velocity": 0.8661417322834646
        },
        {
          "duration": 0.41424156249999555,
          "durationTicks": 228,
          "midi": 74,
          "name": "D5",
          "ticks": 45600,
          "time": 82.8483125,
          "velocity": 0.8976377952755905
        },
        {
          "duration": 0.4578459374999966,
          "durationTicks": 252,
          "midi": 78,
          "name": "F#5",
          "ticks": 45600,
          "time": 82.8483125,
          "velocity": 0.8976377952755905
        },
        {
          "duration": 0.2543588541666679,
          "durationTicks": 140,
          "midi": 70,
          "name": "A#4",
          "ticks": 45714,
          "time": 83.05543328125,
          "velocity": 0.968503937007874
        },
        {
          "duration": 0.27979473958333756,
          "durationTicks": 154,
          "midi": 66,
          "name": "F#4",
          "ticks": 45890,
          "time": 83.37519869791666,
          "velocity": 0.937007874015748
        },
        {
          "duration": 0.2652599479166753,
          "durationTicks": 146,
          "midi": 69,
          "name": "A4",
          "ticks": 45896,
          "time": 83.38609979166667,
          "velocity": 0.9291338582677166
        },
        {
          "duration": 0.2652599479166611,
          "durationTicks": 146,
          "midi": 74,
          "name": "D5",
          "ticks": 45898,
          "time": 83.38973348958334,
          "velocity": 0.937007874015748
        },
        {
          "duration": 0.2652599479166611,
          "durationTicks": 146,
          "midi": 78,
          "name": "F#5",
          "ticks": 45898,
          "time": 83.38973348958334,
          "velocity": 0.937007874015748
        },
        {
          "duration": 0.48691552083333534,
          "durationTicks": 268,
          "midi": 67,
          "name": "G4",
          "ticks": 46086,
          "time": 83.73130109375,
          "velocity": 0.952755905511811
        },
        {
          "duration": 0.1526153124999894,
          "durationTicks": 84,
          "midi": 70,
          "name": "A#4",
          "ticks": 46272,
          "time": 84.069235,
          "velocity": 0.952755905511811
        },
        {
          "duration": 0.14898161458333448,
          "durationTicks": 82,
          "midi": 74,
          "name": "D5",
          "ticks": 46278,
          "time": 84.08013609375,
          "velocity": 0.9763779527559056
        },
        {
          "duration": 0.2652599479166753,
          "durationTicks": 146,
          "midi": 70,
          "name": "A#4",
          "ticks": 46368,
          "time": 84.2436525,
          "velocity": 0.889763779527559
        },
        {
          "duration": 0.31249802083334544,
          "durationTicks": 172,
          "midi": 74,
          "name": "D5",
          "ticks": 46368,
          "time": 84.2436525,
          "velocity": 0.8976377952755905
        },
        {
          "duration": 0.31249802083334544,
          "durationTicks": 172,
          "midi": 79,
          "name": "G5",
          "ticks": 46368,
          "time": 84.2436525,
          "velocity": 0.937007874015748
        },
        {
          "duration": 0.27979473958333756,
          "durationTicks": 154,
          "midi": 67,
          "name": "G4",
          "ticks": 46376,
          "time": 84.25818729166666,
          "velocity": 0.8976377952755905
        },
        {
          "duration": 0.10901093750000257,
          "durationTicks": 60,
          "midi": 67,
          "name": "G4",
          "ticks": 46560,
          "time": 84.5924875,
          "velocity": 0.8582677165354331
        },
        {
          "duration": 0.07994135416666381,
          "durationTicks": 44,
          "midi": 70,
          "name": "A#4",
          "ticks": 46560,
          "time": 84.5924875,
          "velocity": 0.7952755905511811
        },
        {
          "duration": 0.12717942708333396,
          "durationTicks": 70,
          "midi": 67,
          "name": "G4",
          "ticks": 46656,
          "time": 84.76690500000001,
          "velocity": 0.937007874015748
        },
        {
          "duration": 0.11991203124999572,
          "durationTicks": 66,
          "midi": 70,
          "name": "A#4",
          "ticks": 46656,
          "time": 84.76690500000001,
          "velocity": 0.9133858267716536
        },
        {
          "duration": 0.13808052083334132,
          "durationTicks": 76,
          "midi": 74,
          "name": "D5",
          "ticks": 46668,
          "time": 84.7887071875,
          "velocity": 0.937007874015748
        },
        {
          "duration": 0.1526153125000036,
          "durationTicks": 84,
          "midi": 70,
          "name": "A#4",
          "ticks": 46752,
          "time": 84.9413225,
          "velocity": 0.7637795275590551
        },
        {
          "duration": 0.13808052083334132,
          "durationTicks": 76,
          "midi": 74,
          "name": "D5",
          "ticks": 46752,
          "time": 84.9413225,
          "velocity": 0.8582677165354331
        },
        {
          "duration": 0.34156760416667,
          "durationTicks": 188,
          "midi": 79,
          "name": "G5",
          "ticks": 46752,
          "time": 84.9413225,
          "velocity": 0.8582677165354331
        },
        {
          "duration": 0.22528927083332917,
          "durationTicks": 124,
          "midi": 70,
          "name": "A#4",
          "ticks": 46848,
          "time": 85.11574,
          "velocity": 0.9133858267716536
        },
        {
          "duration": 0.28342843749999247,
          "durationTicks": 156,
          "midi": 74,
          "name": "D5",
          "ticks": 46848,
          "time": 85.11574,
          "velocity": 0.8582677165354331
        },
        {
          "duration": 0.4433111458333485,
          "durationTicks": 244,
          "midi": 67,
          "name": "G4",
          "ticks": 46854,
          "time": 85.12664109375,
          "velocity": 0.905511811023622
        },
        {
          "duration": 0.13808052083334132,
          "durationTicks": 76,
          "midi": 70,
          "name": "A#4",
          "ticks": 47040,
          "time": 85.464575,
          "velocity": 0.9448818897637795
        },
        {
          "duration": 0.10901093750000257,
          "durationTicks": 60,
          "midi": 74,
          "name": "D5",
          "ticks": 47048,
          "time": 85.47910979166666,
          "velocity": 0.9763779527559056
        },
        {
          "duration": 0.0944761458333403,
          "durationTicks": 52,
          "midi": 79,
          "name": "G5",
          "ticks": 47048,
          "time": 85.47910979166666,
          "velocity": 0.6299212598425197
        },
        {
          "duration": 0.3124980208333312,
          "durationTicks": 172,
          "midi": 67,
          "name": "G4",
          "ticks": 47136,
          "time": 85.6389925,
          "velocity": 0.7637795275590551
        },
        {
          "duration": 0.3124980208333312,
          "durationTicks": 172,
          "midi": 70,
          "name": "A#4",
          "ticks": 47136,
          "time": 85.6389925,
          "velocity": 0.8661417322834646
        },
        {
          "duration": 0.29796322916666895,
          "durationTicks": 164,
          "midi": 74,
          "name": "D5",
          "ticks": 47136,
          "time": 85.6389925,
          "velocity": 0.8976377952755905
        },
        {
          "duration": 0.31613171875000035,
          "durationTicks": 174,
          "midi": 79,
          "name": "G5",
          "ticks": 47136,
          "time": 85.6389925,
          "velocity": 0.937007874015748
        },
        {
          "duration": 0.10901093750000257,
          "durationTicks": 60,
          "midi": 67,
          "name": "G4",
          "ticks": 47328,
          "time": 85.9878275,
          "velocity": 0.8582677165354331
        },
        {
          "duration": 0.12354572916666484,
          "durationTicks": 68,
          "midi": 70,
          "name": "A#4",
          "ticks": 47328,
          "time": 85.9878275,
          "velocity": 0.8503937007874016
        },
        {
          "duration": 0.11991203125000993,
          "durationTicks": 66,
          "midi": 70,
          "name": "A#4",
          "ticks": 47424,
          "time": 86.162245,
          "velocity": 0.9291338582677166
        },
        {
          "duration": 0.18168489583332814,
          "durationTicks": 100,
          "midi": 67,
          "name": "G4",
          "ticks": 47426,
          "time": 86.16587869791667,
          "velocity": 0.937007874015748
        },
        {
          "duration": 0.16351640624999675,
          "durationTicks": 90,
          "midi": 74,
          "name": "D5",
          "ticks": 47434,
          "time": 86.18041348958334,
          "velocity": 0.937007874015748
        },
        {
          "duration": 0.1526153125000036,
          "durationTicks": 84,
          "midi": 70,
          "name": "A#4",
          "ticks": 47520,
          "time": 86.3366625,
          "velocity": 0.7637795275590551
        },
        {
          "duration": 0.1526153125000036,
          "durationTicks": 84,
          "midi": 74,
          "name": "D5",
          "ticks": 47528,
          "time": 86.35119729166667,
          "velocity": 0.8582677165354331
        },
        {
          "duration": 0.29796322916666895,
          "durationTicks": 164,
          "midi": 79,
          "name": "G5",
          "ticks": 47528,
          "time": 86.35119729166667,
          "velocity": 0.8582677165354331
        },
        {
          "duration": 0.2543588541666537,
          "durationTicks": 140,
          "midi": 72,
          "name": "C5",
          "ticks": 47616,
          "time": 86.51108,
          "velocity": 0.9133858267716536
        },
        {
          "duration": 0.48691552083333534,
          "durationTicks": 268,
          "midi": 64,
          "name": "E4",
          "ticks": 47622,
          "time": 86.52198109375,
          "velocity": 0.952755905511811
        },
        {
          "duration": 0.1526153125000036,
          "durationTicks": 84,
          "midi": 72,
          "name": "C5",
          "ticks": 47806,
          "time": 86.85628130208333,
          "velocity": 0.952755905511811
        },
        {
          "duration": 0.09447614583332609,
          "durationTicks": 52,
          "midi": 67,
          "name": "G4",
          "ticks": 47812,
          "time": 86.86718239583334,
          "velocity": 0.6141732283464567
        },
        {
          "duration": 0.14898161458333448,
          "durationTicks": 82,
          "midi": 76,
          "name": "E5",
          "ticks": 47814,
          "time": 86.87081609375001,
          "velocity": 0.9763779527559056
        },
        {
          "duration": 0.3124980208333312,
          "durationTicks": 172,
          "midi": 67,
          "name": "G4",
          "ticks": 47904,
          "time": 87.0343325,
          "velocity": 0.8976377952755905
        },
        {
          "duration": 0.3124980208333312,
          "durationTicks": 172,
          "midi": 76,
          "name": "E5",
          "ticks": 47904,
          "time": 87.0343325,
          "velocity": 0.8976377952755905
        },
        {
          "duration": 0.27979473958333756,
          "durationTicks": 154,
          "midi": 64,
          "name": "E4",
          "ticks": 47912,
          "time": 87.04886729166667,
          "velocity": 0.8976377952755905
        },
        {
          "duration": 0.2652599479166753,
          "durationTicks": 146,
          "midi": 72,
          "name": "C5",
          "ticks": 47918,
          "time": 87.05976838541666,
          "velocity": 0.889763779527559
        },
        {
          "duration": 0.10901093750000257,
          "durationTicks": 60,
          "midi": 64,
          "name": "E4",
          "ticks": 48096,
          "time": 87.3831675,
          "velocity": 0.8582677165354331
        },
        {
          "duration": 0.07994135416666381,
          "durationTicks": 44,
          "midi": 72,
          "name": "C5",
          "ticks": 48096,
          "time": 87.3831675,
          "velocity": 0.7952755905511811
        },
        {
          "duration": 0.14534791666666536,
          "durationTicks": 80,
          "midi": 67,
          "name": "G4",
          "ticks": 48184,
          "time": 87.54305020833334,
          "velocity": 0.9212598425196851
        },
        {
          "duration": 0.12354572916666484,
          "durationTicks": 68,
          "midi": 72,
          "name": "C5",
          "ticks": 48204,
          "time": 87.5793871875,
          "velocity": 0.9133858267716536
        },
        {
          "duration": 0.13808052083334132,
          "durationTicks": 76,
          "midi": 76,
          "name": "E5",
          "ticks": 48204,
          "time": 87.5793871875,
          "velocity": 0.937007874015748
        },
        {
          "duration": 0.12354572916665063,
          "durationTicks": 68,
          "midi": 67,
          "name": "G4",
          "ticks": 48288,
          "time": 87.73200250000001,
          "velocity": 0.8740157480314961
        },
        {
          "duration": 0.1526153124999894,
          "durationTicks": 84,
          "midi": 72,
          "name": "C5",
          "ticks": 48288,
          "time": 87.73200250000001,
          "velocity": 0.7637795275590551
        },
        {
          "duration": 0.13808052083332711,
          "durationTicks": 76,
          "midi": 76,
          "name": "E5",
          "ticks": 48288,
          "time": 87.73200250000001,
          "velocity": 0.8582677165354331
        },
        {
          "duration": 0.2834284375000067,
          "durationTicks": 156,
          "midi": 72,
          "name": "C5",
          "ticks": 48384,
          "time": 87.90642,
          "velocity": 0.7637795275590551
        },
        {
          "duration": 0.2834284375000067,
          "durationTicks": 156,
          "midi": 76,
          "name": "E5",
          "ticks": 48384,
          "time": 87.90642,
          "velocity": 0.8582677165354331
        },
        {
          "duration": 0.31249802083334544,
          "durationTicks": 172,
          "midi": 64,
          "name": "E4",
          "ticks": 48392,
          "time": 87.92095479166666,
          "velocity": 0.952755905511811
        },
        {
          "duration": 0.13808052083334132,
          "durationTicks": 76,
          "midi": 72,
          "name": "C5",
          "ticks": 48572,
          "time": 88.24798760416667,
          "velocity": 0.9448818897637795
        },
        {
          "duration": 0.10901093750000257,
          "durationTicks": 60,
          "midi": 67,
          "name": "G4",
          "ticks": 48584,
          "time": 88.26978979166667,
          "velocity": 0.6220472440944882
        },
        {
          "duration": 0.10901093750000257,
          "durationTicks": 60,
          "midi": 76,
          "name": "E5",
          "ticks": 48584,
          "time": 88.26978979166667,
          "velocity": 0.9763779527559056
        },
        {
          "duration": 0.31249802083334544,
          "durationTicks": 172,
          "midi": 64,
          "name": "E4",
          "ticks": 48672,
          "time": 88.4296725,
          "velocity": 0.7637795275590551
        },
        {
          "duration": 0.31613171875000035,
          "durationTicks": 174,
          "midi": 67,
          "name": "G4",
          "ticks": 48672,
          "time": 88.4296725,
          "velocity": 0.8976377952755905
        },
        {
          "duration": 0.31249802083334544,
          "durationTicks": 172,
          "midi": 72,
          "name": "C5",
          "ticks": 48672,
          "time": 88.4296725,
          "velocity": 0.8661417322834646
        },
        {
          "duration": 0.29796322916666895,
          "durationTicks": 164,
          "midi": 76,
          "name": "E5",
          "ticks": 48672,
          "time": 88.4296725,
          "velocity": 0.8976377952755905
        },
        {
          "duration": 0.10901093750000257,
          "durationTicks": 60,
          "midi": 64,
          "name": "E4",
          "ticks": 48864,
          "time": 88.7785075,
          "velocity": 0.8582677165354331
        },
        {
          "duration": 0.12354572916666484,
          "durationTicks": 68,
          "midi": 72,
          "name": "C5",
          "ticks": 48864,
          "time": 88.7785075,
          "velocity": 0.8503937007874016
        },
        {
          "duration": 0.27979473958333756,
          "durationTicks": 154,
          "midi": 64,
          "name": "E4",
          "ticks": 48962,
          "time": 88.95655869791666,
          "velocity": 0.952755905511811
        },
        {
          "duration": 0.29796322916666895,
          "durationTicks": 164,
          "midi": 72,
          "name": "C5",
          "ticks": 48968,
          "time": 88.96745979166667,
          "velocity": 0.9291338582677166
        },
        {
          "duration": 0.29796322916666895,
          "durationTicks": 164,
          "midi": 67,
          "name": "G4",
          "ticks": 48970,
          "time": 88.97109348958334,
          "velocity": 0.937007874015748
        },
        {
          "duration": 0.29796322916666895,
          "durationTicks": 164,
          "midi": 76,
          "name": "E5",
          "ticks": 48970,
          "time": 88.97109348958334,
          "velocity": 0.937007874015748
        },
        {
          "duration": 0.16715010416668008,
          "durationTicks": 92,
          "midi": 72,
          "name": "C5",
          "ticks": 49152,
          "time": 89.30176,
          "velocity": 0.7401574803149606
        },
        {
          "duration": 0.16715010416668008,
          "durationTicks": 92,
          "midi": 75,
          "name": "D#5",
          "ticks": 49152,
          "time": 89.30176,
          "velocity": 0.7322834645669292
        },
        {
          "duration": 0.16715010416668008,
          "durationTicks": 92,
          "midi": 79,
          "name": "G5",
          "ticks": 49152,
          "time": 89.30176,
          "velocity": 0.7401574803149606
        },
        {
          "duration": 0.16715010416668008,
          "durationTicks": 92,
          "midi": 84,
          "name": "C6",
          "ticks": 49152,
          "time": 89.30176,
          "velocity": 0.8031496062992126
        },
        {
          "duration": 0.1526153124999894,
          "durationTicks": 84,
          "midi": 75,
          "name": "D#5",
          "ticks": 49248,
          "time": 89.4761775,
          "velocity": 0.6062992125984252
        },
        {
          "duration": 0.13808052083332711,
          "durationTicks": 76,
          "midi": 79,
          "name": "G5",
          "ticks": 49248,
          "time": 89.4761775,
          "velocity": 0.7007874015748031
        },
        {
          "duration": 0.16715010416666587,
          "durationTicks": 92,
          "midi": 84,
          "name": "C6",
          "ticks": 49248,
          "time": 89.4761775,
          "velocity": 0.7244094488188977
        },
        {
          "duration": 0.16715010416668008,
          "durationTicks": 92,
          "midi": 72,
          "name": "C5",
          "ticks": 49344,
          "time": 89.650595,
          "velocity": 0.6456692913385826
        },
        {
          "duration": 0.16715010416668008,
          "durationTicks": 92,
          "midi": 75,
          "name": "D#5",
          "ticks": 49344,
          "time": 89.650595,
          "velocity": 0.7480314960629921
        },
        {
          "duration": 0.16715010416668008,
          "durationTicks": 92,
          "midi": 79,
          "name": "G5",
          "ticks": 49344,
          "time": 89.650595,
          "velocity": 0.7795275590551181
        },
        {
          "duration": 0.16715010416668008,
          "durationTicks": 92,
          "midi": 84,
          "name": "C6",
          "ticks": 49344,
          "time": 89.650595,
          "velocity": 0.84251968503937
        },
        {
          "duration": 0.13808052083332711,
          "durationTicks": 76,
          "midi": 75,
          "name": "D#5",
          "ticks": 49440,
          "time": 89.8250125,
          "velocity": 0.8267716535433071
        },
        {
          "duration": 0.16715010416668008,
          "durationTicks": 92,
          "midi": 79,
          "name": "G5",
          "ticks": 49452,
          "time": 89.8468146875,
          "velocity": 0.8582677165354331
        },
        {
          "duration": 0.16715010416668008,
          "durationTicks": 92,
          "midi": 84,
          "name": "C6",
          "ticks": 49452,
          "time": 89.8468146875,
          "velocity": 0.5354330708661418
        },
        {
          "duration": 0.16715010416666587,
          "durationTicks": 92,
          "midi": 72,
          "name": "C5",
          "ticks": 49536,
          "time": 89.99943,
          "velocity": 0.5433070866141733
        },
        {
          "duration": 0.12717942708331975,
          "durationTicks": 70,
          "midi": 75,
          "name": "D#5",
          "ticks": 49536,
          "time": 89.99943,
          "velocity": 0.8582677165354331
        },
        {
          "duration": 0.12354572916666484,
          "durationTicks": 68,
          "midi": 79,
          "name": "G5",
          "ticks": 49548,
          "time": 90.0212321875,
          "velocity": 0.8346456692913385
        },
        {
          "duration": 0.13808052083332711,
          "durationTicks": 76,
          "midi": 84,
          "name": "C6",
          "ticks": 49548,
          "time": 90.0212321875,
          "velocity": 0.8818897637795275
        },
        {
          "duration": 0.1526153124999894,
          "durationTicks": 84,
          "midi": 75,
          "name": "D#5",
          "ticks": 49632,
          "time": 90.17384750000001,
          "velocity": 0.6850393700787402
        },
        {
          "duration": 0.13808052083332711,
          "durationTicks": 76,
          "midi": 79,
          "name": "G5",
          "ticks": 49632,
          "time": 90.17384750000001,
          "velocity": 0.7795275590551181
        },
        {
          "duration": 0.16715010416666587,
          "durationTicks": 92,
          "midi": 84,
          "name": "C6",
          "ticks": 49632,
          "time": 90.17384750000001,
          "velocity": 0.8031496062992126
        },
        {
          "duration": 0.16715010416668008,
          "durationTicks": 92,
          "midi": 72,
          "name": "C5",
          "ticks": 49728,
          "time": 90.348265,
          "velocity": 0.7086614173228346
        },
        {
          "duration": 0.16715010416668008,
          "durationTicks": 92,
          "midi": 75,
          "name": "D#5",
          "ticks": 49728,
          "time": 90.348265,
          "velocity": 0.8110236220472441
        },
        {
          "duration": 0.16715010416668008,
          "durationTicks": 92,
          "midi": 79,
          "name": "G5",
          "ticks": 49728,
          "time": 90.348265,
          "velocity": 0.84251968503937
        },
        {
          "duration": 0.16715010416668008,
          "durationTicks": 92,
          "midi": 84,
          "name": "C6",
          "ticks": 49728,
          "time": 90.348265,
          "velocity": 0.905511811023622
        },
        {
          "duration": 0.036336979166677,
          "durationTicks": 20,
          "midi": 75,
          "name": "D#5",
          "ticks": 49824,
          "time": 90.5226825,
          "velocity": 0.889763779527559
        },
        {
          "duration": 0.14534791666666536,
          "durationTicks": 80,
          "midi": 79,
          "name": "G5",
          "ticks": 49836,
          "time": 90.5444846875,
          "velocity": 0.9212598425196851
        },
        {
          "duration": 0.14534791666666536,
          "durationTicks": 80,
          "midi": 84,
          "name": "C6",
          "ticks": 49836,
          "time": 90.5444846875,
          "velocity": 0.5984251968503937
        },
        {
          "duration": 0.014534791666662272,
          "durationTicks": 8,
          "midi": 79,
          "name": "G5",
          "ticks": 49920,
          "time": 90.6971,
          "velocity": 0.8582677165354331
        },
        {
          "duration": 0.014534791666662272,
          "durationTicks": 8,
          "midi": 84,
          "name": "C6",
          "ticks": 49920,
          "time": 90.6971,
          "velocity": 0.9212598425196851
        },
        {
          "duration": 0.16715010416666587,
          "durationTicks": 92,
          "midi": 72,
          "name": "C5",
          "ticks": 49928,
          "time": 90.71163479166667,
          "velocity": 0.8582677165354331
        },
        {
          "duration": 0.14171421874999623,
          "durationTicks": 78,
          "midi": 75,
          "name": "D#5",
          "ticks": 49934,
          "time": 90.72253588541668,
          "velocity": 0.8503937007874016
        },
        {
          "duration": 0.018168489583331393,
          "durationTicks": 10,
          "midi": 75,
          "name": "D#5",
          "ticks": 50016,
          "time": 90.8715175,
          "velocity": 0.7244094488188977
        },
        {
          "duration": 0.13808052083332711,
          "durationTicks": 76,
          "midi": 79,
          "name": "G5",
          "ticks": 50016,
          "time": 90.8715175,
          "velocity": 0.8188976377952756
        },
        {
          "duration": 0.16715010416668008,
          "durationTicks": 92,
          "midi": 84,
          "name": "C6",
          "ticks": 50016,
          "time": 90.8715175,
          "velocity": 0.84251968503937
        },
        {
          "duration": 0.16715010416668008,
          "durationTicks": 92,
          "midi": 72,
          "name": "C5",
          "ticks": 50112,
          "time": 91.045935,
          "velocity": 0.7244094488188977
        },
        {
          "duration": 0.16715010416668008,
          "durationTicks": 92,
          "midi": 75,
          "name": "D#5",
          "ticks": 50112,
          "time": 91.045935,
          "velocity": 0.8267716535433071
        },
        {
          "duration": 0.16715010416668008,
          "durationTicks": 92,
          "midi": 79,
          "name": "G5",
          "ticks": 50112,
          "time": 91.045935,
          "velocity": 0.8582677165354331
        },
        {
          "duration": 0.16715010416668008,
          "durationTicks": 92,
          "midi": 84,
          "name": "C6",
          "ticks": 50112,
          "time": 91.045935,
          "velocity": 0.9212598425196851
        },
        {
          "duration": 0.13808052083332711,
          "durationTicks": 76,
          "midi": 75,
          "name": "D#5",
          "ticks": 50208,
          "time": 91.2203525,
          "velocity": 0.905511811023622
        },
        {
          "duration": 0.16715010416666587,
          "durationTicks": 92,
          "midi": 79,
          "name": "G5",
          "ticks": 50220,
          "time": 91.2421546875,
          "velocity": 0.937007874015748
        },
        {
          "duration": 0.16715010416666587,
          "durationTicks": 92,
          "midi": 84,
          "name": "C6",
          "ticks": 50220,
          "time": 91.2421546875,
          "velocity": 0.6141732283464567
        },
        {
          "duration": 0.16715010416666587,
          "durationTicks": 92,
          "midi": 72,
          "name": "C5",
          "ticks": 50304,
          "time": 91.39477000000001,
          "velocity": 0.5826771653543307
        },
        {
          "duration": 0.12717942708331975,
          "durationTicks": 70,
          "midi": 75,
          "name": "D#5",
          "ticks": 50304,
          "time": 91.39477000000001,
          "velocity": 0.8976377952755905
        },
        {
          "duration": 0.12354572916667905,
          "durationTicks": 68,
          "midi": 79,
          "name": "G5",
          "ticks": 50316,
          "time": 91.4165721875,
          "velocity": 0.8740157480314961
        },
        {
          "duration": 0.13808052083332711,
          "durationTicks": 76,
          "midi": 84,
          "name": "C6",
          "ticks": 50316,
          "time": 91.4165721875,
          "velocity": 0.9212598425196851
        },
        {
          "duration": 0.1526153125000036,
          "durationTicks": 84,
          "midi": 75,
          "name": "D#5",
          "ticks": 50400,
          "time": 91.5691875,
          "velocity": 0.7244094488188977
        },
        {
          "duration": 0.13808052083332711,
          "durationTicks": 76,
          "midi": 79,
          "name": "G5",
          "ticks": 50400,
          "time": 91.5691875,
          "velocity": 0.8188976377952756
        },
        {
          "duration": 0.16715010416668008,
          "durationTicks": 92,
          "midi": 84,
          "name": "C6",
          "ticks": 50400,
          "time": 91.5691875,
          "velocity": 0.84251968503937
        },
        {
          "duration": 0.16715010416666587,
          "durationTicks": 92,
          "midi": 72,
          "name": "C5",
          "ticks": 50496,
          "time": 91.743605,
          "velocity": 0.7086614173228346
        },
        {
          "duration": 0.16715010416666587,
          "durationTicks": 92,
          "midi": 75,
          "name": "D#5",
          "ticks": 50496,
          "time": 91.743605,
          "velocity": 0.8110236220472441
        },
        {
          "duration": 0.16715010416666587,
          "durationTicks": 92,
          "midi": 79,
          "name": "G5",
          "ticks": 50496,
          "time": 91.743605,
          "velocity": 0.84251968503937
        },
        {
          "duration": 0.16715010416666587,
          "durationTicks": 92,
          "midi": 84,
          "name": "C6",
          "ticks": 50496,
          "time": 91.743605,
          "velocity": 0.905511811023622
        },
        {
          "duration": 0.036336979166662786,
          "durationTicks": 20,
          "midi": 75,
          "name": "D#5",
          "ticks": 50592,
          "time": 91.9180225,
          "velocity": 0.889763779527559
        },
        {
          "duration": 0.10901093749998836,
          "durationTicks": 60,
          "midi": 79,
          "name": "G5",
          "ticks": 50604,
          "time": 91.9398246875,
          "velocity": 0.9212598425196851
        },
        {
          "duration": 0.09447614583332609,
          "durationTicks": 52,
          "midi": 84,
          "name": "C6",
          "ticks": 50604,
          "time": 91.9398246875,
          "velocity": 0.5984251968503937
        },
        {
          "duration": 0.16715010416668008,
          "durationTicks": 92,
          "midi": 79,
          "name": "G5",
          "ticks": 50688,
          "time": 92.09244,
          "velocity": 0.7795275590551181
        },
        {
          "duration": 0.16715010416668008,
          "durationTicks": 92,
          "midi": 82,
          "name": "A#5",
          "ticks": 50688,
          "time": 92.09244,
          "velocity": 0.84251968503937
        },
        {
          "duration": 0.16715010416665166,
          "durationTicks": 92,
          "midi": 70,
          "name": "A#4",
          "ticks": 50696,
          "time": 92.10697479166667,
          "velocity": 0.7795275590551181
        },
        {
          "duration": 0.14171421874999623,
          "durationTicks": 78,
          "midi": 74,
          "name": "D5",
          "ticks": 50702,
          "time": 92.11787588541668,
          "velocity": 0.7716535433070866
        },
        {
          "duration": 0.018168489583331393,
          "durationTicks": 10,
          "midi": 74,
          "name": "D5",
          "ticks": 50784,
          "time": 92.2668575,
          "velocity": 0.6456692913385826
        },
        {
          "duration": 0.13808052083332711,
          "durationTicks": 76,
          "midi": 79,
          "name": "G5",
          "ticks": 50784,
          "time": 92.2668575,
          "velocity": 0.7401574803149606
        },
        {
          "duration": 0.16715010416668008,
          "durationTicks": 92,
          "midi": 82,
          "name": "A#5",
          "ticks": 50784,
          "time": 92.2668575,
          "velocity": 0.7637795275590551
        },
        {
          "duration": 0.16715010416666587,
          "durationTicks": 92,
          "midi": 70,
          "name": "A#4",
          "ticks": 50880,
          "time": 92.441275,
          "velocity": 0.6456692913385826
        },
        {
          "duration": 0.16715010416666587,
          "durationTicks": 92,
          "midi": 74,
          "name": "D5",
          "ticks": 50880,
          "time": 92.441275,
          "velocity": 0.7480314960629921
        },
        {
          "duration": 0.16715010416666587,
          "durationTicks": 92,
          "midi": 79,
          "name": "G5",
          "ticks": 50880,
          "time": 92.441275,
          "velocity": 0.7795275590551181
        },
        {
          "duration": 0.16715010416666587,
          "durationTicks": 92,
          "midi": 82,
          "name": "A#5",
          "ticks": 50880,
          "time": 92.441275,
          "velocity": 0.84251968503937
        },
        {
          "duration": 0.1380805208333129,
          "durationTicks": 76,
          "midi": 74,
          "name": "D5",
          "ticks": 50976,
          "time": 92.61569250000001,
          "velocity": 0.8267716535433071
        },
        {
          "duration": 0.16715010416668008,
          "durationTicks": 92,
          "midi": 79,
          "name": "G5",
          "ticks": 50988,
          "time": 92.6374946875,
          "velocity": 0.8582677165354331
        },
        {
          "duration": 0.16715010416668008,
          "durationTicks": 92,
          "midi": 82,
          "name": "A#5",
          "ticks": 50988,
          "time": 92.6374946875,
          "velocity": 0.5354330708661418
        },
        {
          "duration": 0.16715010416668008,
          "durationTicks": 92,
          "midi": 70,
          "name": "A#4",
          "ticks": 51072,
          "time": 92.79011,
          "velocity": 0.5039370078740157
        },
        {
          "duration": 0.12717942708333396,
          "durationTicks": 70,
          "midi": 74,
          "name": "D5",
          "ticks": 51072,
          "time": 92.79011,
          "velocity": 0.8188976377952756
        },
        {
          "duration": 0.12354572916667905,
          "durationTicks": 68,
          "midi": 79,
          "name": "G5",
          "ticks": 51084,
          "time": 92.8119121875,
          "velocity": 0.7952755905511811
        },
        {
          "duration": 0.13808052083332711,
          "durationTicks": 76,
          "midi": 82,
          "name": "A#5",
          "ticks": 51084,
          "time": 92.8119121875,
          "velocity": 0.84251968503937
        },
        {
          "duration": 0.1526153125000036,
          "durationTicks": 84,
          "midi": 74,
          "name": "D5",
          "ticks": 51168,
          "time": 92.9645275,
          "velocity": 0.6850393700787402
        },
        {
          "duration": 0.13808052083332711,
          "durationTicks": 76,
          "midi": 79,
          "name": "G5",
          "ticks": 51168,
          "time": 92.9645275,
          "velocity": 0.7795275590551181
        },
        {
          "duration": 0.16715010416666587,
          "durationTicks": 92,
          "midi": 82,
          "name": "A#5",
          "ticks": 51168,
          "time": 92.9645275,
          "velocity": 0.8031496062992126
        },
        {
          "duration": 0.16715010416666587,
          "durationTicks": 92,
          "midi": 70,
          "name": "A#4",
          "ticks": 51264,
          "time": 93.138945,
          "velocity": 0.7086614173228346
        },
        {
          "duration": 0.16715010416666587,
          "durationTicks": 92,
          "midi": 74,
          "name": "D5",
          "ticks": 51264,
          "time": 93.138945,
          "velocity": 0.8110236220472441
        },
        {
          "duration": 0.16715010416666587,
          "durationTicks": 92,
          "midi": 79,
          "name": "G5",
          "ticks": 51264,
          "time": 93.138945,
          "velocity": 0.84251968503937
        },
        {
          "duration": 0.16715010416666587,
          "durationTicks": 92,
          "midi": 82,
          "name": "A#5",
          "ticks": 51264,
          "time": 93.138945,
          "velocity": 0.905511811023622
        },
        {
          "duration": 0.036336979166677,
          "durationTicks": 20,
          "midi": 74,
          "name": "D5",
          "ticks": 51360,
          "time": 93.3133625,
          "velocity": 0.889763779527559
        },
        {
          "duration": 0.14534791666667957,
          "durationTicks": 80,
          "midi": 79,
          "name": "G5",
          "ticks": 51372,
          "time": 93.3351646875,
          "velocity": 0.9212598425196851
        },
        {
          "duration": 0.14534791666667957,
          "durationTicks": 80,
          "midi": 82,
          "name": "A#5",
          "ticks": 51372,
          "time": 93.3351646875,
          "velocity": 0.5984251968503937
        },
        {
          "duration": 0.014534791666676483,
          "durationTicks": 8,
          "midi": 79,
          "name": "G5",
          "ticks": 51456,
          "time": 93.48778,
          "velocity": 0.8582677165354331
        },
        {
          "duration": 0.014534791666676483,
          "durationTicks": 8,
          "midi": 82,
          "name": "A#5",
          "ticks": 51456,
          "time": 93.48778,
          "velocity": 0.9212598425196851
        },
        {
          "duration": 0.16715010416665166,
          "durationTicks": 92,
          "midi": 70,
          "name": "A#4",
          "ticks": 51464,
          "time": 93.50231479166668,
          "velocity": 0.8582677165354331
        },
        {
          "duration": 0.14171421875001045,
          "durationTicks": 78,
          "midi": 74,
          "name": "D5",
          "ticks": 51470,
          "time": 93.51321588541667,
          "velocity": 0.8503937007874016
        },
        {
          "duration": 0.018168489583317182,
          "durationTicks": 10,
          "midi": 74,
          "name": "D5",
          "ticks": 51552,
          "time": 93.6621975,
          "velocity": 0.7244094488188977
        },
        {
          "duration": 0.13808052083332711,
          "durationTicks": 76,
          "midi": 79,
          "name": "G5",
          "ticks": 51552,
          "time": 93.6621975,
          "velocity": 0.8188976377952756
        },
        {
          "duration": 0.16715010416666587,
          "durationTicks": 92,
          "midi": 82,
          "name": "A#5",
          "ticks": 51552,
          "time": 93.6621975,
          "velocity": 0.84251968503937
        },
        {
          "duration": 0.16715010416668008,
          "durationTicks": 92,
          "midi": 70,
          "name": "A#4",
          "ticks": 51648,
          "time": 93.836615,
          "velocity": 0.7244094488188977
        },
        {
          "duration": 0.16715010416668008,
          "durationTicks": 92,
          "midi": 74,
          "name": "D5",
          "ticks": 51648,
          "time": 93.836615,
          "velocity": 0.8267716535433071
        },
        {
          "duration": 0.16715010416668008,
          "durationTicks": 92,
          "midi": 79,
          "name": "G5",
          "ticks": 51648,
          "time": 93.836615,
          "velocity": 0.8582677165354331
        },
        {
          "duration": 0.16715010416668008,
          "durationTicks": 92,
          "midi": 82,
          "name": "A#5",
          "ticks": 51648,
          "time": 93.836615,
          "velocity": 0.9212598425196851
        },
        {
          "duration": 0.13808052083332711,
          "durationTicks": 76,
          "midi": 74,
          "name": "D5",
          "ticks": 51744,
          "time": 94.0110325,
          "velocity": 0.905511811023622
        },
        {
          "duration": 0.16715010416668008,
          "durationTicks": 92,
          "midi": 79,
          "name": "G5",
          "ticks": 51756,
          "time": 94.0328346875,
          "velocity": 0.937007874015748
        },
        {
          "duration": 0.16715010416668008,
          "durationTicks": 92,
          "midi": 82,
          "name": "A#5",
          "ticks": 51756,
          "time": 94.0328346875,
          "velocity": 0.6141732283464567
        },
        {
          "duration": 0.16715010416666587,
          "durationTicks": 92,
          "midi": 70,
          "name": "A#4",
          "ticks": 51840,
          "time": 94.18545,
          "velocity": 0.5826771653543307
        },
        {
          "duration": 0.12717942708331975,
          "durationTicks": 70,
          "midi": 74,
          "name": "D5",
          "ticks": 51840,
          "time": 94.18545,
          "velocity": 0.8976377952755905
        },
        {
          "duration": 0.12354572916666484,
          "durationTicks": 68,
          "midi": 79,
          "name": "G5",
          "ticks": 51852,
          "time": 94.2072521875,
          "velocity": 0.8740157480314961
        },
        {
          "duration": 0.13808052083332711,
          "durationTicks": 76,
          "midi": 82,
          "name": "A#5",
          "ticks": 51852,
          "time": 94.2072521875,
          "velocity": 0.9212598425196851
        },
        {
          "duration": 0.1526153124999894,
          "durationTicks": 84,
          "midi": 74,
          "name": "D5",
          "ticks": 51936,
          "time": 94.35986750000001,
          "velocity": 0.7244094488188977
        },
        {
          "duration": 0.13808052083332711,
          "durationTicks": 76,
          "midi": 79,
          "name": "G5",
          "ticks": 51936,
          "time": 94.35986750000001,
          "velocity": 0.8188976377952756
        },
        {
          "duration": 0.16715010416666587,
          "durationTicks": 92,
          "midi": 82,
          "name": "A#5",
          "ticks": 51936,
          "time": 94.35986750000001,
          "velocity": 0.84251968503937
        },
        {
          "duration": 0.16715010416668008,
          "durationTicks": 92,
          "midi": 70,
          "name": "A#4",
          "ticks": 52032,
          "time": 94.534285,
          "velocity": 0.7086614173228346
        },
        {
          "duration": 0.16715010416668008,
          "durationTicks": 92,
          "midi": 74,
          "name": "D5",
          "ticks": 52032,
          "time": 94.534285,
          "velocity": 0.8110236220472441
        },
        {
          "duration": 0.16715010416668008,
          "durationTicks": 92,
          "midi": 79,
          "name": "G5",
          "ticks": 52032,
          "time": 94.534285,
          "velocity": 0.84251968503937
        },
        {
          "duration": 0.16715010416668008,
          "durationTicks": 92,
          "midi": 82,
          "name": "A#5",
          "ticks": 52032,
          "time": 94.534285,
          "velocity": 0.905511811023622
        },
        {
          "duration": 0.036336979166677,
          "durationTicks": 20,
          "midi": 74,
          "name": "D5",
          "ticks": 52128,
          "time": 94.7087025,
          "velocity": 0.889763779527559
        },
        {
          "duration": 0.10901093750000257,
          "durationTicks": 60,
          "midi": 79,
          "name": "G5",
          "ticks": 52140,
          "time": 94.7305046875,
          "velocity": 0.9212598425196851
        },
        {
          "duration": 0.09447614583332609,
          "durationTicks": 52,
          "midi": 82,
          "name": "A#5",
          "ticks": 52140,
          "time": 94.7305046875,
          "velocity": 0.5984251968503937
        },
        {
          "duration": 0.16715010416666587,
          "durationTicks": 92,
          "midi": 76,
          "name": "E5",
          "ticks": 52224,
          "time": 94.88312,
          "velocity": 0.8188976377952756
        },
        {
          "duration": 0.16715010416666587,
          "durationTicks": 92,
          "midi": 81,
          "name": "A5",
          "ticks": 52224,
          "time": 94.88312,
          "velocity": 0.8818897637795275
        },
        {
          "duration": 0.16715010416665166,
          "durationTicks": 92,
          "midi": 67,
          "name": "G4",
          "ticks": 52232,
          "time": 94.89765479166668,
          "velocity": 0.8188976377952756
        },
        {
          "duration": 0.14171421874999623,
          "durationTicks": 78,
          "midi": 73,
          "name": "C#5",
          "ticks": 52238,
          "time": 94.90855588541667,
          "velocity": 0.8110236220472441
        },
        {
          "duration": 0.018168489583331393,
          "durationTicks": 10,
          "midi": 73,
          "name": "C#5",
          "ticks": 52320,
          "time": 95.0575375,
          "velocity": 0.6850393700787402
        },
        {
          "duration": 0.13808052083332711,
          "durationTicks": 76,
          "midi": 76,
          "name": "E5",
          "ticks": 52320,
          "time": 95.0575375,
          "velocity": 0.7795275590551181
        },
        {
          "duration": 0.16715010416668008,
          "durationTicks": 92,
          "midi": 81,
          "name": "A5",
          "ticks": 52320,
          "time": 95.0575375,
          "velocity": 0.8031496062992126
        },
        {
          "duration": 0.16715010416668008,
          "durationTicks": 92,
          "midi": 67,
          "name": "G4",
          "ticks": 52416,
          "time": 95.231955,
          "velocity": 0.6850393700787402
        },
        {
          "duration": 0.16715010416668008,
          "durationTicks": 92,
          "midi": 73,
          "name": "C#5",
          "ticks": 52416,
          "time": 95.231955,
          "velocity": 0.7874015748031497
        },
        {
          "duration": 0.16715010416668008,
          "durationTicks": 92,
          "midi": 76,
          "name": "E5",
          "ticks": 52416,
          "time": 95.231955,
          "velocity": 0.8188976377952756
        },
        {
          "duration": 0.16715010416668008,
          "durationTicks": 92,
          "midi": 81,
          "name": "A5",
          "ticks": 52416,
          "time": 95.231955,
          "velocity": 0.8818897637795275
        },
        {
          "duration": 0.13808052083332711,
          "durationTicks": 76,
          "midi": 73,
          "name": "C#5",
          "ticks": 52512,
          "time": 95.4063725,
          "velocity": 0.8661417322834646
        },
        {
          "duration": 0.16715010416666587,
          "durationTicks": 92,
          "midi": 76,
          "name": "E5",
          "ticks": 52524,
          "time": 95.4281746875,
          "velocity": 0.8976377952755905
        },
        {
          "duration": 0.16715010416666587,
          "durationTicks": 92,
          "midi": 81,
          "name": "A5",
          "ticks": 52524,
          "time": 95.4281746875,
          "velocity": 0.5748031496062992
        },
        {
          "duration": 0.16715010416666587,
          "durationTicks": 92,
          "midi": 67,
          "name": "G4",
          "ticks": 52608,
          "time": 95.58079000000001,
          "velocity": 0.5433070866141733
        },
        {
          "duration": 0.12717942708331975,
          "durationTicks": 70,
          "midi": 73,
          "name": "C#5",
          "ticks": 52608,
          "time": 95.58079000000001,
          "velocity": 0.8582677165354331
        },
        {
          "duration": 0.12354572916666484,
          "durationTicks": 68,
          "midi": 76,
          "name": "E5",
          "ticks": 52620,
          "time": 95.60259218750001,
          "velocity": 0.8346456692913385
        },
        {
          "duration": 0.13808052083332711,
          "durationTicks": 76,
          "midi": 81,
          "name": "A5",
          "ticks": 52620,
          "time": 95.60259218750001,
          "velocity": 0.8818897637795275
        },
        {
          "duration": 0.1526153125000036,
          "durationTicks": 84,
          "midi": 73,
          "name": "C#5",
          "ticks": 52704,
          "time": 95.7552075,
          "velocity": 0.6850393700787402
        },
        {
          "duration": 0.13808052083332711,
          "durationTicks": 76,
          "midi": 76,
          "name": "E5",
          "ticks": 52704,
          "time": 95.7552075,
          "velocity": 0.7795275590551181
        },
        {
          "duration": 0.16715010416668008,
          "durationTicks": 92,
          "midi": 81,
          "name": "A5",
          "ticks": 52704,
          "time": 95.7552075,
          "velocity": 0.8031496062992126
        },
        {
          "duration": 0.16715010416668008,
          "durationTicks": 92,
          "midi": 67,
          "name": "G4",
          "ticks": 52800,
          "time": 95.929625,
          "velocity": 0.7086614173228346
        },
        {
          "duration": 0.16715010416668008,
          "durationTicks": 92,
          "midi": 73,
          "name": "C#5",
          "ticks": 52800,
          "time": 95.929625,
          "velocity": 0.8110236220472441
        },
        {
          "duration": 0.16715010416668008,
          "durationTicks": 92,
          "midi": 76,
          "name": "E5",
          "ticks": 52800,
          "time": 95.929625,
          "velocity": 0.84251968503937
        },
        {
          "duration": 0.16715010416668008,
          "durationTicks": 92,
          "midi": 81,
          "name": "A5",
          "ticks": 52800,
          "time": 95.929625,
          "velocity": 0.905511811023622
        },
        {
          "duration": 0.036336979166662786,
          "durationTicks": 20,
          "midi": 73,
          "name": "C#5",
          "ticks": 52896,
          "time": 96.1040425,
          "velocity": 0.889763779527559
        },
        {
          "duration": 0.14534791666666536,
          "durationTicks": 80,
          "midi": 76,
          "name": "E5",
          "ticks": 52908,
          "time": 96.1258446875,
          "velocity": 0.9212598425196851
        },
        {
          "duration": 0.14534791666666536,
          "durationTicks": 80,
          "midi": 81,
          "name": "A5",
          "ticks": 52908,
          "time": 96.1258446875,
          "velocity": 0.5984251968503937
        },
        {
          "duration": 0.014534791666676483,
          "durationTicks": 8,
          "midi": 76,
          "name": "E5",
          "ticks": 52992,
          "time": 96.27846,
          "velocity": 0.8582677165354331
        },
        {
          "duration": 0.014534791666676483,
          "durationTicks": 8,
          "midi": 81,
          "name": "A5",
          "ticks": 52992,
          "time": 96.27846,
          "velocity": 0.9212598425196851
        },
        {
          "duration": 0.16715010416665166,
          "durationTicks": 92,
          "midi": 67,
          "name": "G4",
          "ticks": 53000,
          "time": 96.29299479166667,
          "velocity": 0.8582677165354331
        },
        {
          "duration": 0.14171421874999623,
          "durationTicks": 78,
          "midi": 73,
          "name": "C#5",
          "ticks": 53006,
          "time": 96.30389588541668,
          "velocity": 0.8503937007874016
        },
        {
          "duration": 0.018168489583331393,
          "durationTicks": 10,
          "midi": 73,
          "name": "C#5",
          "ticks": 53088,
          "time": 96.4528775,
          "velocity": 0.7244094488188977
        },
        {
          "duration": 0.13808052083332711,
          "durationTicks": 76,
          "midi": 76,
          "name": "E5",
          "ticks": 53088,
          "time": 96.4528775,
          "velocity": 0.8188976377952756
        },
        {
          "duration": 0.16715010416668008,
          "durationTicks": 92,
          "midi": 81,
          "name": "A5",
          "ticks": 53088,
          "time": 96.4528775,
          "velocity": 0.84251968503937
        },
        {
          "duration": 0.16715010416666587,
          "durationTicks": 92,
          "midi": 67,
          "name": "G4",
          "ticks": 53184,
          "time": 96.627295,
          "velocity": 0.7244094488188977
        },
        {
          "duration": 0.16715010416666587,
          "durationTicks": 92,
          "midi": 73,
          "name": "C#5",
          "ticks": 53184,
          "time": 96.627295,
          "velocity": 0.8267716535433071
        },
        {
          "duration": 0.16715010416666587,
          "durationTicks": 92,
          "midi": 76,
          "name": "E5",
          "ticks": 53184,
          "time": 96.627295,
          "velocity": 0.8582677165354331
        },
        {
          "duration": 0.16715010416666587,
          "durationTicks": 92,
          "midi": 81,
          "name": "A5",
          "ticks": 53184,
          "time": 96.627295,
          "velocity": 0.9212598425196851
        },
        {
          "duration": 0.13808052083332711,
          "durationTicks": 76,
          "midi": 73,
          "name": "C#5",
          "ticks": 53280,
          "time": 96.80171250000001,
          "velocity": 0.905511811023622
        },
        {
          "duration": 0.16715010416666587,
          "durationTicks": 92,
          "midi": 76,
          "name": "E5",
          "ticks": 53292,
          "time": 96.82351468750001,
          "velocity": 0.937007874015748
        },
        {
          "duration": 0.16715010416666587,
          "durationTicks": 92,
          "midi": 81,
          "name": "A5",
          "ticks": 53292,
          "time": 96.82351468750001,
          "velocity": 0.6141732283464567
        },
        {
          "duration": 0.16715010416668008,
          "durationTicks": 92,
          "midi": 67,
          "name": "G4",
          "ticks": 53376,
          "time": 96.97613,
          "velocity": 0.5826771653543307
        },
        {
          "duration": 0.12717942708333396,
          "durationTicks": 70,
          "midi": 73,
          "name": "C#5",
          "ticks": 53376,
          "time": 96.97613,
          "velocity": 0.8976377952755905
        },
        {
          "duration": 0.12354572916667905,
          "durationTicks": 68,
          "midi": 76,
          "name": "E5",
          "ticks": 53388,
          "time": 96.9979321875,
          "velocity": 0.8740157480314961
        },
        {
          "duration": 0.13808052083332711,
          "durationTicks": 76,
          "midi": 81,
          "name": "A5",
          "ticks": 53388,
          "time": 96.9979321875,
          "velocity": 0.9212598425196851
        },
        {
          "duration": 0.1526153125000036,
          "durationTicks": 84,
          "midi": 73,
          "name": "C#5",
          "ticks": 53472,
          "time": 97.1505475,
          "velocity": 0.7244094488188977
        },
        {
          "duration": 0.13808052083332711,
          "durationTicks": 76,
          "midi": 76,
          "name": "E5",
          "ticks": 53472,
          "time": 97.1505475,
          "velocity": 0.8188976377952756
        },
        {
          "duration": 0.16715010416668008,
          "durationTicks": 92,
          "midi": 81,
          "name": "A5",
          "ticks": 53472,
          "time": 97.1505475,
          "velocity": 0.84251968503937
        },
        {
          "duration": 0.16715010416666587,
          "durationTicks": 92,
          "midi": 67,
          "name": "G4",
          "ticks": 53568,
          "time": 97.324965,
          "velocity": 0.7086614173228346
        },
        {
          "duration": 0.3270328124999935,
          "durationTicks": 180,
          "midi": 73,
          "name": "C#5",
          "ticks": 53568,
          "time": 97.324965,
          "velocity": 0.8110236220472441
        },
        {
          "duration": 0.34156760416667,
          "durationTicks": 188,
          "midi": 76,
          "name": "E5",
          "ticks": 53568,
          "time": 97.324965,
          "velocity": 0.84251968503937
        },
        {
          "duration": 0.29796322916666895,
          "durationTicks": 164,
          "midi": 81,
          "name": "A5",
          "ticks": 53568,
          "time": 97.324965,
          "velocity": 0.905511811023622
        },
        {
          "duration": 0.6613330208333252,
          "durationTicks": 364,
          "midi": 69,
          "name": "A4",
          "ticks": 53760,
          "time": 97.6738,
          "velocity": 0.8976377952755905
        },
        {
          "duration": 0.6613330208333252,
          "durationTicks": 364,
          "midi": 74,
          "name": "D5",
          "ticks": 53790,
          "time": 97.72830546875001,
          "velocity": 0.889763779527559
        },
        {
          "duration": 0.6031938541666761,
          "durationTicks": 332,
          "midi": 78,
          "name": "F#5",
          "ticks": 53800,
          "time": 97.74647395833333,
          "velocity": 0.8976377952755905
        },
        {
          "duration": 0.5886590624999997,
          "durationTicks": 324,
          "midi": 81,
          "name": "A5",
          "ticks": 53808,
          "time": 97.76100875,
          "velocity": 0.937007874015748
        },
        {
          "duration": 0.6613330208333252,
          "durationTicks": 364,
          "midi": 69,
          "name": "A4",
          "ticks": 54144,
          "time": 98.37147,
          "velocity": 0.8976377952755905
        },
        {
          "duration": 0.6613330208333252,
          "durationTicks": 364,
          "midi": 74,
          "name": "D5",
          "ticks": 54174,
          "time": 98.42597546875,
          "velocity": 0.889763779527559
        },
        {
          "duration": 0.6031938541666477,
          "durationTicks": 332,
          "midi": 78,
          "name": "F#5",
          "ticks": 54176,
          "time": 98.42960916666668,
          "velocity": 0.8976377952755905
        },
        {
          "duration": 0.5886590624999997,
          "durationTicks": 324,
          "midi": 81,
          "name": "A5",
          "ticks": 54184,
          "time": 98.44414395833333,
          "velocity": 0.937007874015748
        },
        {
          "duration": 0.6613330208333252,
          "durationTicks": 364,
          "midi": 70,
          "name": "A#4",
          "ticks": 54530,
          "time": 99.07277369791667,
          "velocity": 0.8976377952755905
        },
        {
          "duration": 0.6613330208333394,
          "durationTicks": 364,
          "midi": 74,
          "name": "D5",
          "ticks": 54544,
          "time": 99.09820958333333,
          "velocity": 0.889763779527559
        },
        {
          "duration": 0.6031938541666477,
          "durationTicks": 332,
          "midi": 78,
          "name": "F#5",
          "ticks": 54554,
          "time": 99.11637807291667,
          "velocity": 0.8976377952755905
        },
        {
          "duration": 0.5886590624999997,
          "durationTicks": 324,
          "midi": 82,
          "name": "A#5",
          "ticks": 54554,
          "time": 99.11637807291667,
          "velocity": 0.937007874015748
        },
        {
          "duration": 0.6613330208333252,
          "durationTicks": 364,
          "midi": 69,
          "name": "A4",
          "ticks": 54918,
          "time": 99.77771109375,
          "velocity": 0.8976377952755905
        },
        {
          "duration": 0.6613330208333252,
          "durationTicks": 364,
          "midi": 74,
          "name": "D5",
          "ticks": 54924,
          "time": 99.78861218750001,
          "velocity": 0.889763779527559
        },
        {
          "duration": 0.6031938541666761,
          "durationTicks": 332,
          "midi": 78,
          "name": "F#5",
          "ticks": 54942,
          "time": 99.82131546875,
          "velocity": 0.8976377952755905
        },
        {
          "duration": 0.5886590624999997,
          "durationTicks": 324,
          "midi": 81,
          "name": "A5",
          "ticks": 54950,
          "time": 99.83585026041668,
          "velocity": 0.937007874015748
        },
        {
          "duration": 0.2543588541666679,
          "durationTicks": 140,
          "midi": 70,
          "name": "A#4",
          "ticks": 55296,
          "time": 100.46448000000001,
          "velocity": 0.7401574803149606
        },
        {
          "duration": 0.4869155208333211,
          "durationTicks": 268,
          "midi": 67,
          "name": "G4",
          "ticks": 55302,
          "time": 100.47538109375,
          "velocity": 0.952755905511811
        },
        {
          "duration": 0.1526153124999894,
          "durationTicks": 84,
          "midi": 70,
          "name": "A#4",
          "ticks": 55486,
          "time": 100.80968130208333,
          "velocity": 0.952755905511811
        },
        {
          "duration": 0.14898161458333448,
          "durationTicks": 82,
          "midi": 74,
          "name": "D5",
          "ticks": 55494,
          "time": 100.82421609375,
          "velocity": 0.9763779527559056
        },
        {
          "duration": 0.312498020833317,
          "durationTicks": 172,
          "midi": 74,
          "name": "D5",
          "ticks": 55584,
          "time": 100.9877325,
          "velocity": 0.8976377952755905
        },
        {
          "duration": 0.312498020833317,
          "durationTicks": 172,
          "midi": 79,
          "name": "G5",
          "ticks": 55584,
          "time": 100.9877325,
          "velocity": 0.937007874015748
        },
        {
          "duration": 0.27979473958333756,
          "durationTicks": 154,
          "midi": 67,
          "name": "G4",
          "ticks": 55592,
          "time": 101.00226729166667,
          "velocity": 0.8976377952755905
        },
        {
          "duration": 0.26525994791664687,
          "durationTicks": 146,
          "midi": 70,
          "name": "A#4",
          "ticks": 55598,
          "time": 101.01316838541668,
          "velocity": 0.889763779527559
        },
        {
          "duration": 0.10901093750000257,
          "durationTicks": 60,
          "midi": 67,
          "name": "G4",
          "ticks": 55776,
          "time": 101.3365675,
          "velocity": 0.8582677165354331
        },
        {
          "duration": 0.07994135416667802,
          "durationTicks": 44,
          "midi": 70,
          "name": "A#4",
          "ticks": 55776,
          "time": 101.3365675,
          "velocity": 0.7952755905511811
        },
        {
          "duration": 0.12717942708331975,
          "durationTicks": 70,
          "midi": 67,
          "name": "G4",
          "ticks": 55872,
          "time": 101.510985,
          "velocity": 0.937007874015748
        },
        {
          "duration": 0.12354572916666484,
          "durationTicks": 68,
          "midi": 70,
          "name": "A#4",
          "ticks": 55884,
          "time": 101.5327871875,
          "velocity": 0.9133858267716536
        },
        {
          "duration": 0.13808052083332711,
          "durationTicks": 76,
          "midi": 74,
          "name": "D5",
          "ticks": 55884,
          "time": 101.5327871875,
          "velocity": 0.937007874015748
        },
        {
          "duration": 0.1526153125000036,
          "durationTicks": 84,
          "midi": 70,
          "name": "A#4",
          "ticks": 55968,
          "time": 101.6854025,
          "velocity": 0.7637795275590551
        },
        {
          "duration": 0.13808052083332711,
          "durationTicks": 76,
          "midi": 74,
          "name": "D5",
          "ticks": 55968,
          "time": 101.6854025,
          "velocity": 0.8582677165354331
        },
        {
          "duration": 0.3415676041666842,
          "durationTicks": 188,
          "midi": 79,
          "name": "G5",
          "ticks": 55968,
          "time": 101.6854025,
          "velocity": 0.8582677165354331
        },
        {
          "duration": 0.22528927083332917,
          "durationTicks": 124,
          "midi": 70,
          "name": "A#4",
          "ticks": 56064,
          "time": 101.85982,
          "velocity": 0.9133858267716536
        },
        {
          "duration": 0.2834284375000067,
          "durationTicks": 156,
          "midi": 74,
          "name": "D5",
          "ticks": 56064,
          "time": 101.85982,
          "velocity": 0.8582677165354331
        },
        {
          "duration": 0.4433111458333201,
          "durationTicks": 244,
          "midi": 67,
          "name": "G4",
          "ticks": 56070,
          "time": 101.87072109375,
          "velocity": 0.905511811023622
        },
        {
          "duration": 0.16715010416666587,
          "durationTicks": 92,
          "midi": 69,
          "name": "A4",
          "ticks": 56160,
          "time": 102.0342375,
          "velocity": 0.9212598425196851
        },
        {
          "duration": 0.13808052083332711,
          "durationTicks": 76,
          "midi": 70,
          "name": "A#4",
          "ticks": 56252,
          "time": 102.20138760416667,
          "velocity": 0.9448818897637795
        },
        {
          "duration": 0.10901093750000257,
          "durationTicks": 60,
          "midi": 74,
          "name": "D5",
          "ticks": 56264,
          "time": 102.22318979166667,
          "velocity": 0.9763779527559056
        },
        {
          "duration": 0.09447614583332609,
          "durationTicks": 52,
          "midi": 79,
          "name": "G5",
          "ticks": 56264,
          "time": 102.22318979166667,
          "velocity": 0.6299212598425197
        },
        {
          "duration": 0.3124980208333312,
          "durationTicks": 172,
          "midi": 67,
          "name": "G4",
          "ticks": 56352,
          "time": 102.3830725,
          "velocity": 0.7637795275590551
        },
        {
          "duration": 0.2107544791666811,
          "durationTicks": 116,
          "midi": 70,
          "name": "A#4",
          "ticks": 56352,
          "time": 102.3830725,
          "velocity": 0.8661417322834646
        },
        {
          "duration": 0.2107544791666811,
          "durationTicks": 116,
          "midi": 74,
          "name": "D5",
          "ticks": 56352,
          "time": 102.3830725,
          "velocity": 0.8976377952755905
        },
        {
          "duration": 0.31613171875000035,
          "durationTicks": 174,
          "midi": 79,
          "name": "G5",
          "ticks": 56352,
          "time": 102.3830725,
          "velocity": 0.937007874015748
        },
        {
          "duration": 0.23982406249999144,
          "durationTicks": 132,
          "midi": 69,
          "name": "A4",
          "ticks": 56468,
          "time": 102.59382697916668,
          "velocity": 0.9763779527559056
        },
        {
          "duration": 0.10901093750000257,
          "durationTicks": 60,
          "midi": 67,
          "name": "G4",
          "ticks": 56544,
          "time": 102.7319075,
          "velocity": 0.8582677165354331
        },
        {
          "duration": 0.09447614583332609,
          "durationTicks": 52,
          "midi": 70,
          "name": "A#4",
          "ticks": 56544,
          "time": 102.7319075,
          "velocity": 0.8503937007874016
        },
        {
          "duration": 0.29796322916666895,
          "durationTicks": 164,
          "midi": 67,
          "name": "G4",
          "ticks": 56632,
          "time": 102.89179020833333,
          "velocity": 0.984251968503937
        },
        {
          "duration": 0.12354572916665063,
          "durationTicks": 68,
          "midi": 70,
          "name": "A#4",
          "ticks": 56648,
          "time": 102.92085979166667,
          "velocity": 0.9291338582677166
        },
        {
          "duration": 0.16351640624999675,
          "durationTicks": 90,
          "midi": 74,
          "name": "D5",
          "ticks": 56650,
          "time": 102.92449348958333,
          "velocity": 0.937007874015748
        },
        {
          "duration": 0.1526153125000036,
          "durationTicks": 84,
          "midi": 70,
          "name": "A#4",
          "ticks": 56744,
          "time": 103.09527729166668,
          "velocity": 0.7637795275590551
        },
        {
          "duration": 0.13808052083332711,
          "durationTicks": 76,
          "midi": 74,
          "name": "D5",
          "ticks": 56744,
          "time": 103.09527729166668,
          "velocity": 0.8582677165354331
        },
        {
          "duration": 0.29796322916665474,
          "durationTicks": 164,
          "midi": 79,
          "name": "G5",
          "ticks": 56744,
          "time": 103.09527729166668,
          "velocity": 0.8582677165354331
        },
        {
          "duration": 0.2543588541666679,
          "durationTicks": 140,
          "midi": 70,
          "name": "A#4",
          "ticks": 56832,
          "time": 103.25516,
          "velocity": 0.9133858267716536
        },
        {
          "duration": 0.48691552083333534,
          "durationTicks": 268,
          "midi": 67,
          "name": "G4",
          "ticks": 56838,
          "time": 103.26606109375,
          "velocity": 0.952755905511811
        },
        {
          "duration": 0.16715010416666587,
          "durationTicks": 92,
          "midi": 69,
          "name": "A4",
          "ticks": 56928,
          "time": 103.42957750000001,
          "velocity": 0.9212598425196851
        },
        {
          "duration": 0.1526153125000036,
          "durationTicks": 84,
          "midi": 70,
          "name": "A#4",
          "ticks": 57022,
          "time": 103.60036130208333,
          "velocity": 0.952755905511811
        },
        {
          "duration": 0.09447614583335451,
          "durationTicks": 52,
          "midi": 79,
          "name": "G5",
          "ticks": 57028,
          "time": 103.61126239583332,
          "velocity": 0.6141732283464567
        },
        {
          "duration": 0.14898161458332027,
          "durationTicks": 82,
          "midi": 74,
          "name": "D5",
          "ticks": 57030,
          "time": 103.61489609375,
          "velocity": 0.9763779527559056
        },
        {
          "duration": 0.3124980208333312,
          "durationTicks": 172,
          "midi": 74,
          "name": "D5",
          "ticks": 57120,
          "time": 103.7784125,
          "velocity": 0.8976377952755905
        },
        {
          "duration": 0.3124980208333312,
          "durationTicks": 172,
          "midi": 79,
          "name": "G5",
          "ticks": 57120,
          "time": 103.7784125,
          "velocity": 0.8976377952755905
        },
        {
          "duration": 0.27979473958332335,
          "durationTicks": 154,
          "midi": 67,
          "name": "G4",
          "ticks": 57128,
          "time": 103.79294729166668,
          "velocity": 0.8976377952755905
        },
        {
          "duration": 0.2652599479166611,
          "durationTicks": 146,
          "midi": 70,
          "name": "A#4",
          "ticks": 57134,
          "time": 103.80384838541667,
          "velocity": 0.889763779527559
        },
        {
          "duration": 0.10901093750000257,
          "durationTicks": 60,
          "midi": 67,
          "name": "G4",
          "ticks": 57312,
          "time": 104.1272475,
          "velocity": 0.8582677165354331
        },
        {
          "duration": 0.07994135416667802,
          "durationTicks": 44,
          "midi": 70,
          "name": "A#4",
          "ticks": 57312,
          "time": 104.1272475,
          "velocity": 0.7952755905511811
        },
        {
          "duration": 0.12717942708333396,
          "durationTicks": 70,
          "midi": 67,
          "name": "G4",
          "ticks": 57408,
          "time": 104.301665,
          "velocity": 0.937007874015748
        },
        {
          "duration": 0.12354572916667905,
          "durationTicks": 68,
          "midi": 70,
          "name": "A#4",
          "ticks": 57420,
          "time": 104.3234671875,
          "velocity": 0.9133858267716536
        },
        {
          "duration": 0.13808052083332711,
          "durationTicks": 76,
          "midi": 74,
          "name": "D5",
          "ticks": 57420,
          "time": 104.3234671875,
          "velocity": 0.937007874015748
        },
        {
          "duration": 0.1526153125000036,
          "durationTicks": 84,
          "midi": 70,
          "name": "A#4",
          "ticks": 57504,
          "time": 104.4760825,
          "velocity": 0.7637795275590551
        },
        {
          "duration": 0.13808052083332711,
          "durationTicks": 76,
          "midi": 74,
          "name": "D5",
          "ticks": 57504,
          "time": 104.4760825,
          "velocity": 0.8582677165354331
        },
        {
          "duration": 0.3124980208333312,
          "durationTicks": 172,
          "midi": 79,
          "name": "G5",
          "ticks": 57504,
          "time": 104.4760825,
          "velocity": 0.8740157480314961
        },
        {
          "duration": 0.28342843749999247,
          "durationTicks": 156,
          "midi": 70,
          "name": "A#4",
          "ticks": 57600,
          "time": 104.65050000000001,
          "velocity": 0.7637795275590551
        },
        {
          "duration": 0.28342843749999247,
          "durationTicks": 156,
          "midi": 74,
          "name": "D5",
          "ticks": 57600,
          "time": 104.65050000000001,
          "velocity": 0.8582677165354331
        },
        {
          "duration": 0.4433111458333343,
          "durationTicks": 244,
          "midi": 67,
          "name": "G4",
          "ticks": 57606,
          "time": 104.66140109375,
          "velocity": 0.905511811023622
        },
        {
          "duration": 0.16715010416665166,
          "durationTicks": 92,
          "midi": 69,
          "name": "A4",
          "ticks": 57698,
          "time": 104.82855119791668,
          "velocity": 0.9212598425196851
        },
        {
          "duration": 0.13808052083332711,
          "durationTicks": 76,
          "midi": 70,
          "name": "A#4",
          "ticks": 57788,
          "time": 104.99206760416668,
          "velocity": 0.9448818897637795
        },
        {
          "duration": 0.10901093750000257,
          "durationTicks": 60,
          "midi": 74,
          "name": "D5",
          "ticks": 57800,
          "time": 105.01386979166668,
          "velocity": 0.9763779527559056
        },
        {
          "duration": 0.10901093750000257,
          "durationTicks": 60,
          "midi": 79,
          "name": "G5",
          "ticks": 57800,
          "time": 105.01386979166668,
          "velocity": 0.6220472440944882
        },
        {
          "duration": 0.4433111458333201,
          "durationTicks": 244,
          "midi": 67,
          "name": "G4",
          "ticks": 57888,
          "time": 105.1737525,
          "velocity": 0.7637795275590551
        },
        {
          "duration": 0.13808052083332711,
          "durationTicks": 76,
          "midi": 70,
          "name": "A#4",
          "ticks": 57888,
          "time": 105.1737525,
          "velocity": 0.8661417322834646
        },
        {
          "duration": 0.41424156249999555,
          "durationTicks": 228,
          "midi": 74,
          "name": "D5",
          "ticks": 57888,
          "time": 105.1737525,
          "velocity": 0.8976377952755905
        },
        {
          "duration": 0.4578459374999966,
          "durationTicks": 252,
          "midi": 79,
          "name": "G5",
          "ticks": 57888,
          "time": 105.1737525,
          "velocity": 0.8976377952755905
        },
        {
          "duration": 0.2543588541666679,
          "durationTicks": 140,
          "midi": 70,
          "name": "A#4",
          "ticks": 58002,
          "time": 105.38087328125,
          "velocity": 0.968503937007874
        },
        {
          "duration": 0.27979473958332335,
          "durationTicks": 154,
          "midi": 67,
          "name": "G4",
          "ticks": 58178,
          "time": 105.70063869791667,
          "velocity": 0.937007874015748
        },
        {
          "duration": 0.268893645833316,
          "durationTicks": 148,
          "midi": 70,
          "name": "A#4",
          "ticks": 58184,
          "time": 105.71153979166668,
          "velocity": 0.9291338582677166
        },
        {
          "duration": 0.2652599479166753,
          "durationTicks": 146,
          "midi": 74,
          "name": "D5",
          "ticks": 58186,
          "time": 105.71517348958332,
          "velocity": 0.937007874015748
        },
        {
          "duration": 0.2652599479166753,
          "durationTicks": 146,
          "midi": 79,
          "name": "G5",
          "ticks": 58186,
          "time": 105.71517348958332,
          "velocity": 0.937007874015748
        },
        {
          "duration": 0.5450546875000128,
          "durationTicks": 300,
          "midi": 69,
          "name": "A4",
          "ticks": 58198,
          "time": 105.73697567708332,
          "velocity": 0.952755905511811
        },
        {
          "duration": 0.4869155208333211,
          "durationTicks": 268,
          "midi": 65,
          "name": "F4",
          "ticks": 58374,
          "time": 106.05674109375,
          "velocity": 0.952755905511811
        },
        {
          "duration": 0.1526153125000036,
          "durationTicks": 84,
          "midi": 69,
          "name": "A4",
          "ticks": 58558,
          "time": 106.39104130208332,
          "velocity": 0.952755905511811
        },
        {
          "duration": 0.14898161458333448,
          "durationTicks": 82,
          "midi": 72,
          "name": "C5",
          "ticks": 58566,
          "time": 106.40557609375,
          "velocity": 0.9763779527559056
        },
        {
          "duration": 0.3124980208333312,
          "durationTicks": 172,
          "midi": 72,
          "name": "C5",
          "ticks": 58656,
          "time": 106.5690925,
          "velocity": 0.8976377952755905
        },
        {
          "duration": 0.3124980208333312,
          "durationTicks": 172,
          "midi": 77,
          "name": "F5",
          "ticks": 58656,
          "time": 106.5690925,
          "velocity": 0.937007874015748
        },
        {
          "duration": 0.27979473958332335,
          "durationTicks": 154,
          "midi": 65,
          "name": "F4",
          "ticks": 58664,
          "time": 106.58362729166667,
          "velocity": 0.8976377952755905
        },
        {
          "duration": 0.26525994791664687,
          "durationTicks": 146,
          "midi": 69,
          "name": "A4",
          "ticks": 58670,
          "time": 106.59452838541668,
          "velocity": 0.889763779527559
        },
        {
          "duration": 0.10901093750000257,
          "durationTicks": 60,
          "midi": 65,
          "name": "F4",
          "ticks": 58848,
          "time": 106.9179275,
          "velocity": 0.8582677165354331
        },
        {
          "duration": 0.07994135416666381,
          "durationTicks": 44,
          "midi": 69,
          "name": "A4",
          "ticks": 58848,
          "time": 106.9179275,
          "velocity": 0.7952755905511811
        },
        {
          "duration": 0.12717942708331975,
          "durationTicks": 70,
          "midi": 65,
          "name": "F4",
          "ticks": 58944,
          "time": 107.09234500000001,
          "velocity": 0.937007874015748
        },
        {
          "duration": 0.12354572916667905,
          "durationTicks": 68,
          "midi": 69,
          "name": "A4",
          "ticks": 58956,
          "time": 107.1141471875,
          "velocity": 0.9133858267716536
        },
        {
          "duration": 0.13808052083332711,
          "durationTicks": 76,
          "midi": 72,
          "name": "C5",
          "ticks": 58956,
          "time": 107.1141471875,
          "velocity": 0.937007874015748
        },
        {
          "duration": 0.1526153125000036,
          "durationTicks": 84,
          "midi": 69,
          "name": "A4",
          "ticks": 59040,
          "time": 107.2667625,
          "velocity": 0.7637795275590551
        },
        {
          "duration": 0.13808052083332711,
          "durationTicks": 76,
          "midi": 72,
          "name": "C5",
          "ticks": 59040,
          "time": 107.2667625,
          "velocity": 0.8582677165354331
        },
        {
          "duration": 0.13808052083332711,
          "durationTicks": 76,
          "midi": 77,
          "name": "F5",
          "ticks": 59040,
          "time": 107.2667625,
          "velocity": 0.8582677165354331
        },
        {
          "duration": 0.22528927083332917,
          "durationTicks": 124,
          "midi": 69,
          "name": "A4",
          "ticks": 59136,
          "time": 107.44118,
          "velocity": 0.9133858267716536
        },
        {
          "duration": 0.28342843749999247,
          "durationTicks": 156,
          "midi": 74,
          "name": "D5",
          "ticks": 59136,
          "time": 107.44118,
          "velocity": 0.8582677165354331
        },
        {
          "duration": 0.4433111458333343,
          "durationTicks": 244,
          "midi": 60,
          "name": "C4",
          "ticks": 59142,
          "time": 107.45208109375,
          "velocity": 0.937007874015748
        },
        {
          "duration": 0.19621968749999041,
          "durationTicks": 108,
          "midi": 78,
          "name": "F#5",
          "ticks": 59144,
          "time": 107.45571479166668,
          "velocity": 0.8661417322834646
        },
        {
          "duration": 0.13808052083332711,
          "durationTicks": 76,
          "midi": 69,
          "name": "A4",
          "ticks": 59324,
          "time": 107.78274760416667,
          "velocity": 0.9448818897637795
        },
        {
          "duration": 0.10901093750000257,
          "durationTicks": 60,
          "midi": 74,
          "name": "D5",
          "ticks": 59336,
          "time": 107.80454979166667,
          "velocity": 0.9763779527559056
        },
        {
          "duration": 0.09447614583332609,
          "durationTicks": 52,
          "midi": 78,
          "name": "F#5",
          "ticks": 59336,
          "time": 107.80454979166667,
          "velocity": 0.6299212598425197
        },
        {
          "duration": 0.3124980208333312,
          "durationTicks": 172,
          "midi": 69,
          "name": "A4",
          "ticks": 59424,
          "time": 107.9644325,
          "velocity": 0.8661417322834646
        },
        {
          "duration": 0.29796322916666895,
          "durationTicks": 164,
          "midi": 74,
          "name": "D5",
          "ticks": 59424,
          "time": 107.9644325,
          "velocity": 0.8976377952755905
        },
        {
          "duration": 0.31613171875000035,
          "durationTicks": 174,
          "midi": 78,
          "name": "F#5",
          "ticks": 59424,
          "time": 107.9644325,
          "velocity": 0.937007874015748
        },
        {
          "duration": 0.27979473958335177,
          "durationTicks": 154,
          "midi": 58,
          "name": "A#3",
          "ticks": 59530,
          "time": 108.15701848958332,
          "velocity": 0.9763779527559056
        },
        {
          "duration": 0.12354572916667905,
          "durationTicks": 68,
          "midi": 69,
          "name": "A4",
          "ticks": 59616,
          "time": 108.3132675,
          "velocity": 0.8503937007874016
        },
        {
          "duration": 0.3052306250000072,
          "durationTicks": 168,
          "midi": 57,
          "name": "A3",
          "ticks": 59712,
          "time": 108.487685,
          "velocity": 0.968503937007874
        },
        {
          "duration": 0.12354572916665063,
          "durationTicks": 68,
          "midi": 69,
          "name": "A4",
          "ticks": 59720,
          "time": 108.50221979166668,
          "velocity": 0.9291338582677166
        },
        {
          "duration": 0.16351640624999675,
          "durationTicks": 90,
          "midi": 74,
          "name": "D5",
          "ticks": 59722,
          "time": 108.50585348958333,
          "velocity": 0.937007874015748
        },
        {
          "duration": 0.1526153124999894,
          "durationTicks": 84,
          "midi": 69,
          "name": "A4",
          "ticks": 59816,
          "time": 108.67663729166668,
          "velocity": 0.7637795275590551
        },
        {
          "duration": 0.1526153124999894,
          "durationTicks": 84,
          "midi": 74,
          "name": "D5",
          "ticks": 59816,
          "time": 108.67663729166668,
          "velocity": 0.8582677165354331
        },
        {
          "duration": 0.29796322916665474,
          "durationTicks": 164,
          "midi": 78,
          "name": "F#5",
          "ticks": 59816,
          "time": 108.67663729166668,
          "velocity": 0.8582677165354331
        },
        {
          "duration": 0.3270328124999935,
          "durationTicks": 180,
          "midi": 55,
          "name": "G3",
          "ticks": 59896,
          "time": 108.82198520833333,
          "velocity": 0.9448818897637795
        },
        {
          "duration": 0.2543588541666679,
          "durationTicks": 140,
          "midi": 70,
          "name": "A#4",
          "ticks": 59904,
          "time": 108.83652000000001,
          "velocity": 0.7401574803149606
        },
        {
          "duration": 0.48691552083333534,
          "durationTicks": 268,
          "midi": 67,
          "name": "G4",
          "ticks": 59910,
          "time": 108.84742109375,
          "velocity": 0.952755905511811
        },
        {
          "duration": 0.1526153125000036,
          "durationTicks": 84,
          "midi": 70,
          "name": "A#4",
          "ticks": 60094,
          "time": 109.18172130208333,
          "velocity": 0.952755905511811
        },
        {
          "duration": 0.14898161458332027,
          "durationTicks": 82,
          "midi": 74,
          "name": "D5",
          "ticks": 60102,
          "time": 109.19625609375001,
          "velocity": 0.9763779527559056
        },
        {
          "duration": 0.312498020833317,
          "durationTicks": 172,
          "midi": 74,
          "name": "D5",
          "ticks": 60192,
          "time": 109.3597725,
          "velocity": 0.8976377952755905
        },
        {
          "duration": 0.312498020833317,
          "durationTicks": 172,
          "midi": 79,
          "name": "G5",
          "ticks": 60192,
          "time": 109.3597725,
          "velocity": 0.937007874015748
        },
        {
          "duration": 0.27979473958332335,
          "durationTicks": 154,
          "midi": 67,
          "name": "G4",
          "ticks": 60200,
          "time": 109.37430729166668,
          "velocity": 0.8976377952755905
        },
        {
          "duration": 0.26525994791664687,
          "durationTicks": 146,
          "midi": 70,
          "name": "A#4",
          "ticks": 60206,
          "time": 109.38520838541668,
          "velocity": 0.889763779527559
        },
        {
          "duration": 0.10901093750000257,
          "durationTicks": 60,
          "midi": 67,
          "name": "G4",
          "ticks": 60384,
          "time": 109.7086075,
          "velocity": 0.8582677165354331
        },
        {
          "duration": 0.07994135416667802,
          "durationTicks": 44,
          "midi": 70,
          "name": "A#4",
          "ticks": 60384,
          "time": 109.7086075,
          "velocity": 0.7952755905511811
        },
        {
          "duration": 0.12717942708331975,
          "durationTicks": 70,
          "midi": 67,
          "name": "G4",
          "ticks": 60480,
          "time": 109.883025,
          "velocity": 0.937007874015748
        },
        {
          "duration": 0.12354572916666484,
          "durationTicks": 68,
          "midi": 70,
          "name": "A#4",
          "ticks": 60492,
          "time": 109.9048271875,
          "velocity": 0.9133858267716536
        },
        {
          "duration": 0.13808052083332711,
          "durationTicks": 76,
          "midi": 74,
          "name": "D5",
          "ticks": 60492,
          "time": 109.9048271875,
          "velocity": 0.937007874015748
        },
        {
          "duration": 0.1526153124999894,
          "durationTicks": 84,
          "midi": 70,
          "name": "A#4",
          "ticks": 60576,
          "time": 110.05744250000001,
          "velocity": 0.7637795275590551
        },
        {
          "duration": 0.13808052083332711,
          "durationTicks": 76,
          "midi": 74,
          "name": "D5",
          "ticks": 60576,
          "time": 110.05744250000001,
          "velocity": 0.8582677165354331
        },
        {
          "duration": 0.34156760416667,
          "durationTicks": 188,
          "midi": 79,
          "name": "G5",
          "ticks": 60576,
          "time": 110.05744250000001,
          "velocity": 0.8582677165354331
        },
        {
          "duration": 0.22528927083332917,
          "durationTicks": 124,
          "midi": 70,
          "name": "A#4",
          "ticks": 60672,
          "time": 110.23186,
          "velocity": 0.9133858267716536
        },
        {
          "duration": 0.2834284375000067,
          "durationTicks": 156,
          "midi": 74,
          "name": "D5",
          "ticks": 60672,
          "time": 110.23186,
          "velocity": 0.8582677165354331
        },
        {
          "duration": 0.4433111458333201,
          "durationTicks": 244,
          "midi": 67,
          "name": "G4",
          "ticks": 60678,
          "time": 110.24276109375,
          "velocity": 0.905511811023622
        },
        {
          "duration": 0.16715010416668008,
          "durationTicks": 92,
          "midi": 69,
          "name": "A4",
          "ticks": 60768,
          "time": 110.4062775,
          "velocity": 0.9212598425196851
        },
        {
          "duration": 0.13808052083332711,
          "durationTicks": 76,
          "midi": 70,
          "name": "A#4",
          "ticks": 60860,
          "time": 110.57342760416668,
          "velocity": 0.9448818897637795
        },
        {
          "duration": 0.10901093749998836,
          "durationTicks": 60,
          "midi": 74,
          "name": "D5",
          "ticks": 60872,
          "time": 110.59522979166668,
          "velocity": 0.9763779527559056
        },
        {
          "duration": 0.09447614583332609,
          "durationTicks": 52,
          "midi": 79,
          "name": "G5",
          "ticks": 60872,
          "time": 110.59522979166668,
          "velocity": 0.6299212598425197
        },
        {
          "duration": 0.3124980208333312,
          "durationTicks": 172,
          "midi": 67,
          "name": "G4",
          "ticks": 60960,
          "time": 110.7551125,
          "velocity": 0.7637795275590551
        },
        {
          "duration": 0.2107544791666811,
          "durationTicks": 116,
          "midi": 70,
          "name": "A#4",
          "ticks": 60960,
          "time": 110.7551125,
          "velocity": 0.8661417322834646
        },
        {
          "duration": 0.2107544791666811,
          "durationTicks": 116,
          "midi": 74,
          "name": "D5",
          "ticks": 60960,
          "time": 110.7551125,
          "velocity": 0.8976377952755905
        },
        {
          "duration": 0.31613171875000035,
          "durationTicks": 174,
          "midi": 79,
          "name": "G5",
          "ticks": 60960,
          "time": 110.7551125,
          "velocity": 0.937007874015748
        },
        {
          "duration": 0.23982406249999144,
          "durationTicks": 132,
          "midi": 69,
          "name": "A4",
          "ticks": 61076,
          "time": 110.96586697916668,
          "velocity": 0.9763779527559056
        },
        {
          "duration": 0.10901093750000257,
          "durationTicks": 60,
          "midi": 67,
          "name": "G4",
          "ticks": 61152,
          "time": 111.1039475,
          "velocity": 0.8582677165354331
        },
        {
          "duration": 0.09447614583332609,
          "durationTicks": 52,
          "midi": 70,
          "name": "A#4",
          "ticks": 61152,
          "time": 111.1039475,
          "velocity": 0.8503937007874016
        },
        {
          "duration": 0.29796322916666895,
          "durationTicks": 164,
          "midi": 67,
          "name": "G4",
          "ticks": 61240,
          "time": 111.26383020833333,
          "velocity": 0.984251968503937
        },
        {
          "duration": 0.12354572916666484,
          "durationTicks": 68,
          "midi": 70,
          "name": "A#4",
          "ticks": 61256,
          "time": 111.29289979166667,
          "velocity": 0.9291338582677166
        },
        {
          "duration": 0.16351640624999675,
          "durationTicks": 90,
          "midi": 74,
          "name": "D5",
          "ticks": 61258,
          "time": 111.29653348958333,
          "velocity": 0.937007874015748
        },
        {
          "duration": 0.1526153125000036,
          "durationTicks": 84,
          "midi": 70,
          "name": "A#4",
          "ticks": 61352,
          "time": 111.46731729166667,
          "velocity": 0.7637795275590551
        },
        {
          "duration": 0.13808052083332711,
          "durationTicks": 76,
          "midi": 74,
          "name": "D5",
          "ticks": 61352,
          "time": 111.46731729166667,
          "velocity": 0.8582677165354331
        },
        {
          "duration": 0.29796322916665474,
          "durationTicks": 164,
          "midi": 79,
          "name": "G5",
          "ticks": 61352,
          "time": 111.46731729166667,
          "velocity": 0.8582677165354331
        },
        {
          "duration": 0.2543588541666679,
          "durationTicks": 140,
          "midi": 70,
          "name": "A#4",
          "ticks": 61440,
          "time": 111.6272,
          "velocity": 0.7401574803149606
        },
        {
          "duration": 0.48691552083333534,
          "durationTicks": 268,
          "midi": 67,
          "name": "G4",
          "ticks": 61446,
          "time": 111.63810109375,
          "velocity": 0.952755905511811
        },
        {
          "duration": 0.1526153125000036,
          "durationTicks": 84,
          "midi": 70,
          "name": "A#4",
          "ticks": 61630,
          "time": 111.97240130208333,
          "velocity": 0.952755905511811
        },
        {
          "duration": 0.14898161458332027,
          "durationTicks": 82,
          "midi": 74,
          "name": "D5",
          "ticks": 61638,
          "time": 111.98693609375,
          "velocity": 0.9763779527559056
        },
        {
          "duration": 0.3124980208333312,
          "durationTicks": 172,
          "midi": 74,
          "name": "D5",
          "ticks": 61728,
          "time": 112.1504525,
          "velocity": 0.8976377952755905
        },
        {
          "duration": 0.3124980208333312,
          "durationTicks": 172,
          "midi": 79,
          "name": "G5",
          "ticks": 61728,
          "time": 112.1504525,
          "velocity": 0.937007874015748
        },
        {
          "duration": 0.27979473958332335,
          "durationTicks": 154,
          "midi": 67,
          "name": "G4",
          "ticks": 61736,
          "time": 112.16498729166668,
          "velocity": 0.8976377952755905
        },
        {
          "duration": 0.2652599479166611,
          "durationTicks": 146,
          "midi": 70,
          "name": "A#4",
          "ticks": 61742,
          "time": 112.17588838541667,
          "velocity": 0.889763779527559
        },
        {
          "duration": 0.10901093749998836,
          "durationTicks": 60,
          "midi": 67,
          "name": "G4",
          "ticks": 61920,
          "time": 112.49928750000001,
          "velocity": 0.8582677165354331
        },
        {
          "duration": 0.07994135416666381,
          "durationTicks": 44,
          "midi": 70,
          "name": "A#4",
          "ticks": 61920,
          "time": 112.49928750000001,
          "velocity": 0.7952755905511811
        },
        {
          "duration": 0.12717942708333396,
          "durationTicks": 70,
          "midi": 67,
          "name": "G4",
          "ticks": 62016,
          "time": 112.673705,
          "velocity": 0.937007874015748
        },
        {
          "duration": 0.12354572916667905,
          "durationTicks": 68,
          "midi": 70,
          "name": "A#4",
          "ticks": 62028,
          "time": 112.6955071875,
          "velocity": 0.9133858267716536
        },
        {
          "duration": 0.13808052083332711,
          "durationTicks": 76,
          "midi": 74,
          "name": "D5",
          "ticks": 62028,
          "time": 112.6955071875,
          "velocity": 0.937007874015748
        },
        {
          "duration": 0.1526153125000036,
          "durationTicks": 84,
          "midi": 70,
          "name": "A#4",
          "ticks": 62112,
          "time": 112.8481225,
          "velocity": 0.7637795275590551
        },
        {
          "duration": 0.13808052083332711,
          "durationTicks": 76,
          "midi": 74,
          "name": "D5",
          "ticks": 62112,
          "time": 112.8481225,
          "velocity": 0.8582677165354331
        },
        {
          "duration": 0.34156760416667,
          "durationTicks": 188,
          "midi": 79,
          "name": "G5",
          "ticks": 62112,
          "time": 112.8481225,
          "velocity": 0.8582677165354331
        },
        {
          "duration": 0.22528927083332917,
          "durationTicks": 124,
          "midi": 70,
          "name": "A#4",
          "ticks": 62208,
          "time": 113.02254,
          "velocity": 0.9133858267716536
        },
        {
          "duration": 0.28342843749999247,
          "durationTicks": 156,
          "midi": 74,
          "name": "D5",
          "ticks": 62208,
          "time": 113.02254,
          "velocity": 0.8582677165354331
        },
        {
          "duration": 0.4433111458333343,
          "durationTicks": 244,
          "midi": 67,
          "name": "G4",
          "ticks": 62214,
          "time": 113.03344109375,
          "velocity": 0.905511811023622
        },
        {
          "duration": 0.16715010416668008,
          "durationTicks": 92,
          "midi": 69,
          "name": "A4",
          "ticks": 62304,
          "time": 113.1969575,
          "velocity": 0.9212598425196851
        },
        {
          "duration": 0.13808052083332711,
          "durationTicks": 76,
          "midi": 70,
          "name": "A#4",
          "ticks": 62396,
          "time": 113.36410760416668,
          "velocity": 0.9448818897637795
        },
        {
          "duration": 0.10901093750000257,
          "durationTicks": 60,
          "midi": 74,
          "name": "D5",
          "ticks": 62408,
          "time": 113.38590979166668,
          "velocity": 0.9763779527559056
        },
        {
          "duration": 0.09447614583332609,
          "durationTicks": 52,
          "midi": 79,
          "name": "G5",
          "ticks": 62408,
          "time": 113.38590979166668,
          "velocity": 0.6299212598425197
        },
        {
          "duration": 0.3124980208333312,
          "durationTicks": 172,
          "midi": 67,
          "name": "G4",
          "ticks": 62496,
          "time": 113.5457925,
          "velocity": 0.7637795275590551
        },
        {
          "duration": 0.2107544791666669,
          "durationTicks": 116,
          "midi": 70,
          "name": "A#4",
          "ticks": 62496,
          "time": 113.5457925,
          "velocity": 0.8661417322834646
        },
        {
          "duration": 0.2107544791666669,
          "durationTicks": 116,
          "midi": 74,
          "name": "D5",
          "ticks": 62496,
          "time": 113.5457925,
          "velocity": 0.8976377952755905
        },
        {
          "duration": 0.31613171875000035,
          "durationTicks": 174,
          "midi": 79,
          "name": "G5",
          "ticks": 62496,
          "time": 113.5457925,
          "velocity": 0.937007874015748
        },
        {
          "duration": 0.23982406250000565,
          "durationTicks": 132,
          "midi": 69,
          "name": "A4",
          "ticks": 62612,
          "time": 113.75654697916667,
          "velocity": 0.9763779527559056
        },
        {
          "duration": 0.10901093750000257,
          "durationTicks": 60,
          "midi": 67,
          "name": "G4",
          "ticks": 62688,
          "time": 113.8946275,
          "velocity": 0.8582677165354331
        },
        {
          "duration": 0.09447614583332609,
          "durationTicks": 52,
          "midi": 70,
          "name": "A#4",
          "ticks": 62688,
          "time": 113.8946275,
          "velocity": 0.8503937007874016
        },
        {
          "duration": 0.29796322916666895,
          "durationTicks": 164,
          "midi": 67,
          "name": "G4",
          "ticks": 62776,
          "time": 114.05451020833333,
          "velocity": 0.984251968503937
        },
        {
          "duration": 0.12354572916665063,
          "durationTicks": 68,
          "midi": 70,
          "name": "A#4",
          "ticks": 62792,
          "time": 114.08357979166668,
          "velocity": 0.9291338582677166
        },
        {
          "duration": 0.16351640624999675,
          "durationTicks": 90,
          "midi": 74,
          "name": "D5",
          "ticks": 62794,
          "time": 114.08721348958333,
          "velocity": 0.937007874015748
        },
        {
          "duration": 0.1526153125000036,
          "durationTicks": 84,
          "midi": 70,
          "name": "A#4",
          "ticks": 62888,
          "time": 114.25799729166667,
          "velocity": 0.7637795275590551
        },
        {
          "duration": 0.13808052083332711,
          "durationTicks": 76,
          "midi": 74,
          "name": "D5",
          "ticks": 62888,
          "time": 114.25799729166667,
          "velocity": 0.8582677165354331
        },
        {
          "duration": 0.29796322916665474,
          "durationTicks": 164,
          "midi": 79,
          "name": "G5",
          "ticks": 62888,
          "time": 114.25799729166667,
          "velocity": 0.8582677165354331
        },
        {
          "duration": 0.25435885416668214,
          "durationTicks": 140,
          "midi": 70,
          "name": "A#4",
          "ticks": 62976,
          "time": 114.41788,
          "velocity": 0.9133858267716536
        },
        {
          "duration": 0.4869155208333211,
          "durationTicks": 268,
          "midi": 67,
          "name": "G4",
          "ticks": 62982,
          "time": 114.42878109375,
          "velocity": 0.952755905511811
        },
        {
          "duration": 0.16715010416668008,
          "durationTicks": 92,
          "midi": 69,
          "name": "A4",
          "ticks": 63072,
          "time": 114.5922975,
          "velocity": 0.9212598425196851
        },
        {
          "duration": 0.1526153124999894,
          "durationTicks": 84,
          "midi": 70,
          "name": "A#4",
          "ticks": 63166,
          "time": 114.76308130208334,
          "velocity": 0.952755905511811
        },
        {
          "duration": 0.0944761458333403,
          "durationTicks": 52,
          "midi": 79,
          "name": "G5",
          "ticks": 63172,
          "time": 114.77398239583333,
          "velocity": 0.6141732283464567
        },
        {
          "duration": 0.14898161458333448,
          "durationTicks": 82,
          "midi": 74,
          "name": "D5",
          "ticks": 63174,
          "time": 114.77761609375,
          "velocity": 0.9763779527559056
        },
        {
          "duration": 0.312498020833317,
          "durationTicks": 172,
          "midi": 74,
          "name": "D5",
          "ticks": 63264,
          "time": 114.94113250000001,
          "velocity": 0.8976377952755905
        },
        {
          "duration": 0.312498020833317,
          "durationTicks": 172,
          "midi": 79,
          "name": "G5",
          "ticks": 63264,
          "time": 114.94113250000001,
          "velocity": 0.8976377952755905
        },
        {
          "duration": 0.27979473958333756,
          "durationTicks": 154,
          "midi": 67,
          "name": "G4",
          "ticks": 63272,
          "time": 114.95566729166667,
          "velocity": 0.8976377952755905
        },
        {
          "duration": 0.26525994791664687,
          "durationTicks": 146,
          "midi": 70,
          "name": "A#4",
          "ticks": 63278,
          "time": 114.96656838541668,
          "velocity": 0.889763779527559
        },
        {
          "duration": 0.10901093750000257,
          "durationTicks": 60,
          "midi": 67,
          "name": "G4",
          "ticks": 63456,
          "time": 115.2899675,
          "velocity": 0.8582677165354331
        },
        {
          "duration": 0.07994135416667802,
          "durationTicks": 44,
          "midi": 70,
          "name": "A#4",
          "ticks": 63456,
          "time": 115.2899675,
          "velocity": 0.7952755905511811
        },
        {
          "duration": 0.12717942708331975,
          "durationTicks": 70,
          "midi": 67,
          "name": "G4",
          "ticks": 63552,
          "time": 115.46438500000001,
          "velocity": 0.937007874015748
        },
        {
          "duration": 0.12354572916666484,
          "durationTicks": 68,
          "midi": 70,
          "name": "A#4",
          "ticks": 63564,
          "time": 115.48618718750001,
          "velocity": 0.9133858267716536
        },
        {
          "duration": 0.13808052083332711,
          "durationTicks": 76,
          "midi": 74,
          "name": "D5",
          "ticks": 63564,
          "time": 115.48618718750001,
          "velocity": 0.937007874015748
        },
        {
          "duration": 0.1526153125000036,
          "durationTicks": 84,
          "midi": 70,
          "name": "A#4",
          "ticks": 63648,
          "time": 115.6388025,
          "velocity": 0.7637795275590551
        },
        {
          "duration": 0.13808052083332711,
          "durationTicks": 76,
          "midi": 74,
          "name": "D5",
          "ticks": 63648,
          "time": 115.6388025,
          "velocity": 0.8582677165354331
        },
        {
          "duration": 0.3124980208333312,
          "durationTicks": 172,
          "midi": 79,
          "name": "G5",
          "ticks": 63648,
          "time": 115.6388025,
          "velocity": 0.8740157480314961
        },
        {
          "duration": 0.2834284375000067,
          "durationTicks": 156,
          "midi": 70,
          "name": "A#4",
          "ticks": 63744,
          "time": 115.81322,
          "velocity": 0.7637795275590551
        },
        {
          "duration": 0.2834284375000067,
          "durationTicks": 156,
          "midi": 74,
          "name": "D5",
          "ticks": 63744,
          "time": 115.81322,
          "velocity": 0.8582677165354331
        },
        {
          "duration": 0.4433111458333201,
          "durationTicks": 244,
          "midi": 67,
          "name": "G4",
          "ticks": 63750,
          "time": 115.82412109375001,
          "velocity": 0.905511811023622
        },
        {
          "duration": 0.16715010416665166,
          "durationTicks": 92,
          "midi": 69,
          "name": "A4",
          "ticks": 63842,
          "time": 115.99127119791667,
          "velocity": 0.9212598425196851
        },
        {
          "duration": 0.13808052083332711,
          "durationTicks": 76,
          "midi": 70,
          "name": "A#4",
          "ticks": 63932,
          "time": 116.15478760416667,
          "velocity": 0.9448818897637795
        },
        {
          "duration": 0.10901093750000257,
          "durationTicks": 60,
          "midi": 74,
          "name": "D5",
          "ticks": 63944,
          "time": 116.17658979166667,
          "velocity": 0.9763779527559056
        },
        {
          "duration": 0.10901093750000257,
          "durationTicks": 60,
          "midi": 79,
          "name": "G5",
          "ticks": 63944,
          "time": 116.17658979166667,
          "velocity": 0.6220472440944882
        },
        {
          "duration": 0.4433111458333343,
          "durationTicks": 244,
          "midi": 67,
          "name": "G4",
          "ticks": 64032,
          "time": 116.3364725,
          "velocity": 0.7637795275590551
        },
        {
          "duration": 0.13808052083332711,
          "durationTicks": 76,
          "midi": 70,
          "name": "A#4",
          "ticks": 64032,
          "time": 116.3364725,
          "velocity": 0.8661417322834646
        },
        {
          "duration": 0.41424156250000976,
          "durationTicks": 228,
          "midi": 74,
          "name": "D5",
          "ticks": 64032,
          "time": 116.3364725,
          "velocity": 0.8976377952755905
        },
        {
          "duration": 0.4578459374999966,
          "durationTicks": 252,
          "midi": 79,
          "name": "G5",
          "ticks": 64032,
          "time": 116.3364725,
          "velocity": 0.8976377952755905
        },
        {
          "duration": 0.25435885416668214,
          "durationTicks": 140,
          "midi": 70,
          "name": "A#4",
          "ticks": 64146,
          "time": 116.54359328125,
          "velocity": 0.968503937007874
        },
        {
          "duration": 0.27979473958332335,
          "durationTicks": 154,
          "midi": 67,
          "name": "G4",
          "ticks": 64322,
          "time": 116.86335869791668,
          "velocity": 0.937007874015748
        },
        {
          "duration": 0.2688936458333302,
          "durationTicks": 148,
          "midi": 70,
          "name": "A#4",
          "ticks": 64328,
          "time": 116.87425979166667,
          "velocity": 0.9291338582677166
        },
        {
          "duration": 0.2652599479166753,
          "durationTicks": 146,
          "midi": 74,
          "name": "D5",
          "ticks": 64330,
          "time": 116.87789348958333,
          "velocity": 0.937007874015748
        },
        {
          "duration": 0.2652599479166753,
          "durationTicks": 146,
          "midi": 79,
          "name": "G5",
          "ticks": 64330,
          "time": 116.87789348958333,
          "velocity": 0.937007874015748
        },
        {
          "duration": 0.5450546874999986,
          "durationTicks": 300,
          "midi": 69,
          "name": "A4",
          "ticks": 64342,
          "time": 116.89969567708333,
          "velocity": 0.952755905511811
        },
        {
          "duration": 0.48691552083333534,
          "durationTicks": 268,
          "midi": 65,
          "name": "F4",
          "ticks": 64518,
          "time": 117.21946109375,
          "velocity": 0.952755905511811
        },
        {
          "duration": 0.1526153125000036,
          "durationTicks": 84,
          "midi": 69,
          "name": "A4",
          "ticks": 64702,
          "time": 117.55376130208333,
          "velocity": 0.952755905511811
        },
        {
          "duration": 0.14898161458332027,
          "durationTicks": 82,
          "midi": 72,
          "name": "C5",
          "ticks": 64710,
          "time": 117.56829609375,
          "velocity": 0.9763779527559056
        },
        {
          "duration": 0.3124980208333312,
          "durationTicks": 172,
          "midi": 72,
          "name": "C5",
          "ticks": 64800,
          "time": 117.7318125,
          "velocity": 0.8976377952755905
        },
        {
          "duration": 0.3124980208333312,
          "durationTicks": 172,
          "midi": 77,
          "name": "F5",
          "ticks": 64800,
          "time": 117.7318125,
          "velocity": 0.937007874015748
        },
        {
          "duration": 0.27979473958332335,
          "durationTicks": 154,
          "midi": 65,
          "name": "F4",
          "ticks": 64808,
          "time": 117.74634729166668,
          "velocity": 0.8976377952755905
        },
        {
          "duration": 0.2652599479166611,
          "durationTicks": 146,
          "midi": 69,
          "name": "A4",
          "ticks": 64814,
          "time": 117.75724838541667,
          "velocity": 0.889763779527559
        },
        {
          "duration": 0.10901093750000257,
          "durationTicks": 60,
          "midi": 65,
          "name": "F4",
          "ticks": 64992,
          "time": 118.0806475,
          "velocity": 0.8582677165354331
        },
        {
          "duration": 0.07994135416667802,
          "durationTicks": 44,
          "midi": 69,
          "name": "A4",
          "ticks": 64992,
          "time": 118.0806475,
          "velocity": 0.7952755905511811
        },
        {
          "duration": 0.12717942708333396,
          "durationTicks": 70,
          "midi": 65,
          "name": "F4",
          "ticks": 65088,
          "time": 118.255065,
          "velocity": 0.937007874015748
        },
        {
          "duration": 0.12354572916667905,
          "durationTicks": 68,
          "midi": 69,
          "name": "A4",
          "ticks": 65100,
          "time": 118.2768671875,
          "velocity": 0.9133858267716536
        },
        {
          "duration": 0.13808052083332711,
          "durationTicks": 76,
          "midi": 72,
          "name": "C5",
          "ticks": 65100,
          "time": 118.2768671875,
          "velocity": 0.937007874015748
        },
        {
          "duration": 0.1526153124999894,
          "durationTicks": 84,
          "midi": 69,
          "name": "A4",
          "ticks": 65184,
          "time": 118.4294825,
          "velocity": 0.7637795275590551
        },
        {
          "duration": 0.13808052083332711,
          "durationTicks": 76,
          "midi": 72,
          "name": "C5",
          "ticks": 65184,
          "time": 118.4294825,
          "velocity": 0.8582677165354331
        },
        {
          "duration": 0.34156760416667,
          "durationTicks": 188,
          "midi": 77,
          "name": "F5",
          "ticks": 65184,
          "time": 118.4294825,
          "velocity": 0.8582677165354331
        },
        {
          "duration": 0.22528927083332917,
          "durationTicks": 124,
          "midi": 69,
          "name": "A4",
          "ticks": 65280,
          "time": 118.6039,
          "velocity": 0.9133858267716536
        },
        {
          "duration": 0.2834284375000067,
          "durationTicks": 156,
          "midi": 72,
          "name": "C5",
          "ticks": 65280,
          "time": 118.6039,
          "velocity": 0.8582677165354331
        },
        {
          "duration": 0.4433111458333201,
          "durationTicks": 244,
          "midi": 65,
          "name": "F4",
          "ticks": 65286,
          "time": 118.61480109375,
          "velocity": 0.905511811023622
        },
        {
          "duration": 0.13808052083332711,
          "durationTicks": 76,
          "midi": 69,
          "name": "A4",
          "ticks": 65468,
          "time": 118.94546760416668,
          "velocity": 0.9448818897637795
        },
        {
          "duration": 0.10901093749998836,
          "durationTicks": 60,
          "midi": 72,
          "name": "C5",
          "ticks": 65480,
          "time": 118.96726979166668,
          "velocity": 0.9763779527559056
        },
        {
          "duration": 0.09447614583332609,
          "durationTicks": 52,
          "midi": 77,
          "name": "F5",
          "ticks": 65480,
          "time": 118.96726979166668,
          "velocity": 0.6299212598425197
        },
        {
          "duration": 0.312498020833317,
          "durationTicks": 172,
          "midi": 65,
          "name": "F4",
          "ticks": 65568,
          "time": 119.12715250000001,
          "velocity": 0.7637795275590551
        },
        {
          "duration": 0.312498020833317,
          "durationTicks": 172,
          "midi": 69,
          "name": "A4",
          "ticks": 65568,
          "time": 119.12715250000001,
          "velocity": 0.8661417322834646
        },
        {
          "duration": 0.29796322916666895,
          "durationTicks": 164,
          "midi": 72,
          "name": "C5",
          "ticks": 65568,
          "time": 119.12715250000001,
          "velocity": 0.8976377952755905
        },
        {
          "duration": 0.31613171875000035,
          "durationTicks": 174,
          "midi": 77,
          "name": "F5",
          "ticks": 65568,
          "time": 119.12715250000001,
          "velocity": 0.937007874015748
        },
        {
          "duration": 0.10901093750000257,
          "durationTicks": 60,
          "midi": 65,
          "name": "F4",
          "ticks": 65760,
          "time": 119.4759875,
          "velocity": 0.8582677165354331
        },
        {
          "duration": 0.12354572916667905,
          "durationTicks": 68,
          "midi": 69,
          "name": "A4",
          "ticks": 65760,
          "time": 119.4759875,
          "velocity": 0.8503937007874016
        },
        {
          "duration": 0.18168489583332814,
          "durationTicks": 100,
          "midi": 65,
          "name": "F4",
          "ticks": 65858,
          "time": 119.65403869791668,
          "velocity": 0.937007874015748
        },
        {
          "duration": 0.12354572916666484,
          "durationTicks": 68,
          "midi": 69,
          "name": "A4",
          "ticks": 65864,
          "time": 119.66493979166667,
          "velocity": 0.9291338582677166
        },
        {
          "duration": 0.16351640625001096,
          "durationTicks": 90,
          "midi": 72,
          "name": "C5",
          "ticks": 65866,
          "time": 119.66857348958332,
          "velocity": 0.937007874015748
        },
        {
          "duration": 0.1526153125000036,
          "durationTicks": 84,
          "midi": 69,
          "name": "A4",
          "ticks": 65960,
          "time": 119.83935729166667,
          "velocity": 0.7637795275590551
        },
        {
          "duration": 0.1526153125000036,
          "durationTicks": 84,
          "midi": 72,
          "name": "C5",
          "ticks": 65960,
          "time": 119.83935729166667,
          "velocity": 0.8582677165354331
        },
        {
          "duration": 0.29796322916665474,
          "durationTicks": 164,
          "midi": 77,
          "name": "F5",
          "ticks": 65960,
          "time": 119.83935729166667,
          "velocity": 0.8582677165354331
        },
        {
          "duration": 0.25435885416668214,
          "durationTicks": 140,
          "midi": 74,
          "name": "D5",
          "ticks": 66048,
          "time": 119.99924,
          "velocity": 0.9133858267716536
        },
        {
          "duration": 0.4869155208333211,
          "durationTicks": 268,
          "midi": 69,
          "name": "A4",
          "ticks": 66054,
          "time": 120.01014109375001,
          "velocity": 0.952755905511811
        },
        {
          "duration": 0.1526153125000036,
          "durationTicks": 84,
          "midi": 74,
          "name": "D5",
          "ticks": 66238,
          "time": 120.34444130208333,
          "velocity": 0.952755905511811
        },
        {
          "duration": 0.0944761458333403,
          "durationTicks": 52,
          "midi": 66,
          "name": "F#4",
          "ticks": 66244,
          "time": 120.35534239583333,
          "velocity": 0.6141732283464567
        },
        {
          "duration": 0.14898161458332027,
          "durationTicks": 82,
          "midi": 78,
          "name": "F#5",
          "ticks": 66246,
          "time": 120.35897609375,
          "velocity": 0.9763779527559056
        },
        {
          "duration": 0.3124980208333312,
          "durationTicks": 172,
          "midi": 66,
          "name": "F#4",
          "ticks": 66336,
          "time": 120.5224925,
          "velocity": 0.8976377952755905
        },
        {
          "duration": 0.3124980208333312,
          "durationTicks": 172,
          "midi": 78,
          "name": "F#5",
          "ticks": 66336,
          "time": 120.5224925,
          "velocity": 0.8976377952755905
        },
        {
          "duration": 0.27979473958332335,
          "durationTicks": 154,
          "midi": 69,
          "name": "A4",
          "ticks": 66344,
          "time": 120.53702729166667,
          "velocity": 0.8976377952755905
        },
        {
          "duration": 0.26525994791664687,
          "durationTicks": 146,
          "midi": 74,
          "name": "D5",
          "ticks": 66350,
          "time": 120.54792838541668,
          "velocity": 0.889763779527559
        },
        {
          "duration": 0.10901093749998836,
          "durationTicks": 60,
          "midi": 69,
          "name": "A4",
          "ticks": 66528,
          "time": 120.8713275,
          "velocity": 0.8582677165354331
        },
        {
          "duration": 0.07994135416666381,
          "durationTicks": 44,
          "midi": 74,
          "name": "D5",
          "ticks": 66528,
          "time": 120.8713275,
          "velocity": 0.7952755905511811
        },
        {
          "duration": 0.35246869791666313,
          "durationTicks": 194,
          "midi": 70,
          "name": "A#4",
          "ticks": 66616,
          "time": 121.03121020833333,
          "velocity": 0.9212598425196851
        },
        {
          "duration": 0.12354572916667905,
          "durationTicks": 68,
          "midi": 74,
          "name": "D5",
          "ticks": 66636,
          "time": 121.0675471875,
          "velocity": 0.9133858267716536
        },
        {
          "duration": 0.13808052083332711,
          "durationTicks": 76,
          "midi": 78,
          "name": "F#5",
          "ticks": 66636,
          "time": 121.0675471875,
          "velocity": 0.937007874015748
        },
        {
          "duration": 0.3124980208333312,
          "durationTicks": 172,
          "midi": 66,
          "name": "F#4",
          "ticks": 66720,
          "time": 121.2201625,
          "velocity": 0.8740157480314961
        },
        {
          "duration": 0.1526153125000036,
          "durationTicks": 84,
          "midi": 74,
          "name": "D5",
          "ticks": 66720,
          "time": 121.2201625,
          "velocity": 0.7637795275590551
        },
        {
          "duration": 0.13808052083332711,
          "durationTicks": 76,
          "midi": 78,
          "name": "F#5",
          "ticks": 66720,
          "time": 121.2201625,
          "velocity": 0.8582677165354331
        },
        {
          "duration": 0.28342843749999247,
          "durationTicks": 156,
          "midi": 74,
          "name": "D5",
          "ticks": 66816,
          "time": 121.39458,
          "velocity": 0.7637795275590551
        },
        {
          "duration": 0.28342843749999247,
          "durationTicks": 156,
          "midi": 78,
          "name": "F#5",
          "ticks": 66816,
          "time": 121.39458,
          "velocity": 0.8582677165354331
        },
        {
          "duration": 0.7049373958333263,
          "durationTicks": 388,
          "midi": 72,
          "name": "C5",
          "ticks": 66822,
          "time": 121.40548109375,
          "velocity": 0.952755905511811
        },
        {
          "duration": 0.312498020833317,
          "durationTicks": 172,
          "midi": 69,
          "name": "A4",
          "ticks": 66824,
          "time": 121.40911479166668,
          "velocity": 0.952755905511811
        },
        {
          "duration": 0.13808052083332711,
          "durationTicks": 76,
          "midi": 74,
          "name": "D5",
          "ticks": 67004,
          "time": 121.73614760416667,
          "velocity": 0.9448818897637795
        },
        {
          "duration": 0.10901093750000257,
          "durationTicks": 60,
          "midi": 66,
          "name": "F#4",
          "ticks": 67016,
          "time": 121.75794979166668,
          "velocity": 0.6220472440944882
        },
        {
          "duration": 0.10901093750000257,
          "durationTicks": 60,
          "midi": 78,
          "name": "F#5",
          "ticks": 67016,
          "time": 121.75794979166668,
          "velocity": 0.9763779527559056
        },
        {
          "duration": 0.31613171875000035,
          "durationTicks": 174,
          "midi": 66,
          "name": "F#4",
          "ticks": 67104,
          "time": 121.9178325,
          "velocity": 0.8976377952755905
        },
        {
          "duration": 0.3124980208333312,
          "durationTicks": 172,
          "midi": 69,
          "name": "A4",
          "ticks": 67104,
          "time": 121.9178325,
          "velocity": 0.7637795275590551
        },
        {
          "duration": 0.3124980208333312,
          "durationTicks": 172,
          "midi": 74,
          "name": "D5",
          "ticks": 67104,
          "time": 121.9178325,
          "velocity": 0.8661417322834646
        },
        {
          "duration": 0.29796322916666895,
          "durationTicks": 164,
          "midi": 78,
          "name": "F#5",
          "ticks": 67104,
          "time": 121.9178325,
          "velocity": 0.8976377952755905
        },
        {
          "duration": 0.33793390625000086,
          "durationTicks": 186,
          "midi": 70,
          "name": "A#4",
          "ticks": 67218,
          "time": 122.12495328125,
          "velocity": 0.937007874015748
        },
        {
          "duration": 0.10901093750000257,
          "durationTicks": 60,
          "midi": 69,
          "name": "A4",
          "ticks": 67296,
          "time": 122.2666675,
          "velocity": 0.8582677165354331
        },
        {
          "duration": 0.12354572916667905,
          "durationTicks": 68,
          "midi": 74,
          "name": "D5",
          "ticks": 67296,
          "time": 122.2666675,
          "velocity": 0.8503937007874016
        },
        {
          "duration": 0.27979473958333756,
          "durationTicks": 154,
          "midi": 69,
          "name": "A4",
          "ticks": 67394,
          "time": 122.44471869791667,
          "velocity": 0.952755905511811
        },
        {
          "duration": 0.29796322916665474,
          "durationTicks": 164,
          "midi": 74,
          "name": "D5",
          "ticks": 67400,
          "time": 122.45561979166668,
          "velocity": 0.9291338582677166
        },
        {
          "duration": 0.29796322916666895,
          "durationTicks": 164,
          "midi": 66,
          "name": "F#4",
          "ticks": 67402,
          "time": 122.45925348958333,
          "velocity": 0.937007874015748
        },
        {
          "duration": 0.29796322916666895,
          "durationTicks": 164,
          "midi": 78,
          "name": "F#5",
          "ticks": 67402,
          "time": 122.45925348958333,
          "velocity": 0.937007874015748
        },
        {
          "duration": 0.25435885416668214,
          "durationTicks": 140,
          "midi": 70,
          "name": "A#4",
          "ticks": 67584,
          "time": 122.78992,
          "velocity": 0.7401574803149606
        },
        {
          "duration": 0.4869155208333211,
          "durationTicks": 268,
          "midi": 67,
          "name": "G4",
          "ticks": 67590,
          "time": 122.80082109375,
          "velocity": 0.952755905511811
        },
        {
          "duration": 0.1526153124999894,
          "durationTicks": 84,
          "midi": 70,
          "name": "A#4",
          "ticks": 67774,
          "time": 123.13512130208333,
          "velocity": 0.952755905511811
        },
        {
          "duration": 0.14898161458333448,
          "durationTicks": 82,
          "midi": 74,
          "name": "D5",
          "ticks": 67782,
          "time": 123.14965609375,
          "velocity": 0.9763779527559056
        },
        {
          "duration": 0.312498020833317,
          "durationTicks": 172,
          "midi": 74,
          "name": "D5",
          "ticks": 67872,
          "time": 123.31317250000001,
          "velocity": 0.8976377952755905
        },
        {
          "duration": 0.312498020833317,
          "durationTicks": 172,
          "midi": 79,
          "name": "G5",
          "ticks": 67872,
          "time": 123.31317250000001,
          "velocity": 0.937007874015748
        },
        {
          "duration": 0.27979473958333756,
          "durationTicks": 154,
          "midi": 67,
          "name": "G4",
          "ticks": 67880,
          "time": 123.32770729166667,
          "velocity": 0.8976377952755905
        },
        {
          "duration": 0.26525994791664687,
          "durationTicks": 146,
          "midi": 70,
          "name": "A#4",
          "ticks": 67886,
          "time": 123.33860838541668,
          "velocity": 0.889763779527559
        },
        {
          "duration": 0.10901093750000257,
          "durationTicks": 60,
          "midi": 67,
          "name": "G4",
          "ticks": 68064,
          "time": 123.6620075,
          "velocity": 0.8582677165354331
        },
        {
          "duration": 0.07994135416667802,
          "durationTicks": 44,
          "midi": 70,
          "name": "A#4",
          "ticks": 68064,
          "time": 123.6620075,
          "velocity": 0.7952755905511811
        },
        {
          "duration": 0.12717942708331975,
          "durationTicks": 70,
          "midi": 67,
          "name": "G4",
          "ticks": 68160,
          "time": 123.836425,
          "velocity": 0.937007874015748
        },
        {
          "duration": 0.12354572916666484,
          "durationTicks": 68,
          "midi": 70,
          "name": "A#4",
          "ticks": 68172,
          "time": 123.8582271875,
          "velocity": 0.9133858267716536
        },
        {
          "duration": 0.13808052083332711,
          "durationTicks": 76,
          "midi": 74,
          "name": "D5",
          "ticks": 68172,
          "time": 123.8582271875,
          "velocity": 0.937007874015748
        },
        {
          "duration": 0.1526153125000036,
          "durationTicks": 84,
          "midi": 70,
          "name": "A#4",
          "ticks": 68256,
          "time": 124.0108425,
          "velocity": 0.7637795275590551
        },
        {
          "duration": 0.13808052083332711,
          "durationTicks": 76,
          "midi": 74,
          "name": "D5",
          "ticks": 68256,
          "time": 124.0108425,
          "velocity": 0.8582677165354331
        },
        {
          "duration": 0.3415676041666842,
          "durationTicks": 188,
          "midi": 79,
          "name": "G5",
          "ticks": 68256,
          "time": 124.0108425,
          "velocity": 0.8582677165354331
        },
        {
          "duration": 0.22528927083332917,
          "durationTicks": 124,
          "midi": 70,
          "name": "A#4",
          "ticks": 68352,
          "time": 124.18526,
          "velocity": 0.9133858267716536
        },
        {
          "duration": 0.2834284375000067,
          "durationTicks": 156,
          "midi": 74,
          "name": "D5",
          "ticks": 68352,
          "time": 124.18526,
          "velocity": 0.8582677165354331
        },
        {
          "duration": 0.4433111458333201,
          "durationTicks": 244,
          "midi": 67,
          "name": "G4",
          "ticks": 68358,
          "time": 124.19616109375,
          "velocity": 0.905511811023622
        },
        {
          "duration": 0.16715010416666587,
          "durationTicks": 92,
          "midi": 69,
          "name": "A4",
          "ticks": 68448,
          "time": 124.3596775,
          "velocity": 0.9212598425196851
        },
        {
          "duration": 0.13808052083332711,
          "durationTicks": 76,
          "midi": 70,
          "name": "A#4",
          "ticks": 68540,
          "time": 124.52682760416667,
          "velocity": 0.9448818897637795
        },
        {
          "duration": 0.10901093750000257,
          "durationTicks": 60,
          "midi": 74,
          "name": "D5",
          "ticks": 68552,
          "time": 124.54862979166667,
          "velocity": 0.9763779527559056
        },
        {
          "duration": 0.09447614583332609,
          "durationTicks": 52,
          "midi": 79,
          "name": "G5",
          "ticks": 68552,
          "time": 124.54862979166667,
          "velocity": 0.6299212598425197
        },
        {
          "duration": 0.3124980208333312,
          "durationTicks": 172,
          "midi": 67,
          "name": "G4",
          "ticks": 68640,
          "time": 124.7085125,
          "velocity": 0.7637795275590551
        },
        {
          "duration": 0.2107544791666811,
          "durationTicks": 116,
          "midi": 70,
          "name": "A#4",
          "ticks": 68640,
          "time": 124.7085125,
          "velocity": 0.8661417322834646
        },
        {
          "duration": 0.2107544791666811,
          "durationTicks": 116,
          "midi": 74,
          "name": "D5",
          "ticks": 68640,
          "time": 124.7085125,
          "velocity": 0.8976377952755905
        },
        {
          "duration": 0.31613171875000035,
          "durationTicks": 174,
          "midi": 79,
          "name": "G5",
          "ticks": 68640,
          "time": 124.7085125,
          "velocity": 0.937007874015748
        },
        {
          "duration": 0.23982406249999144,
          "durationTicks": 132,
          "midi": 69,
          "name": "A4",
          "ticks": 68756,
          "time": 124.91926697916668,
          "velocity": 0.9763779527559056
        },
        {
          "duration": 0.10901093750000257,
          "durationTicks": 60,
          "midi": 67,
          "name": "G4",
          "ticks": 68832,
          "time": 125.0573475,
          "velocity": 0.8582677165354331
        },
        {
          "duration": 0.09447614583332609,
          "durationTicks": 52,
          "midi": 70,
          "name": "A#4",
          "ticks": 68832,
          "time": 125.0573475,
          "velocity": 0.8503937007874016
        },
        {
          "duration": 0.29796322916666895,
          "durationTicks": 164,
          "midi": 67,
          "name": "G4",
          "ticks": 68920,
          "time": 125.21723020833333,
          "velocity": 0.984251968503937
        },
        {
          "duration": 0.12354572916665063,
          "durationTicks": 68,
          "midi": 70,
          "name": "A#4",
          "ticks": 68936,
          "time": 125.24629979166667,
          "velocity": 0.9291338582677166
        },
        {
          "duration": 0.16351640624999675,
          "durationTicks": 90,
          "midi": 74,
          "name": "D5",
          "ticks": 68938,
          "time": 125.24993348958333,
          "velocity": 0.937007874015748
        },
        {
          "duration": 0.1526153125000036,
          "durationTicks": 84,
          "midi": 70,
          "name": "A#4",
          "ticks": 69032,
          "time": 125.42071729166668,
          "velocity": 0.7637795275590551
        },
        {
          "duration": 0.13808052083332711,
          "durationTicks": 76,
          "midi": 74,
          "name": "D5",
          "ticks": 69032,
          "time": 125.42071729166668,
          "velocity": 0.8582677165354331
        },
        {
          "duration": 0.29796322916665474,
          "durationTicks": 164,
          "midi": 79,
          "name": "G5",
          "ticks": 69032,
          "time": 125.42071729166668,
          "velocity": 0.8582677165354331
        },
        {
          "duration": 0.2543588541666679,
          "durationTicks": 140,
          "midi": 70,
          "name": "A#4",
          "ticks": 69120,
          "time": 125.5806,
          "velocity": 0.9133858267716536
        },
        {
          "duration": 0.48691552083333534,
          "durationTicks": 268,
          "midi": 67,
          "name": "G4",
          "ticks": 69126,
          "time": 125.59150109375,
          "velocity": 0.952755905511811
        },
        {
          "duration": 0.16715010416666587,
          "durationTicks": 92,
          "midi": 69,
          "name": "A4",
          "ticks": 69216,
          "time": 125.75501750000001,
          "velocity": 0.9212598425196851
        },
        {
          "duration": 0.1526153125000036,
          "durationTicks": 84,
          "midi": 70,
          "name": "A#4",
          "ticks": 69310,
          "time": 125.92580130208333,
          "velocity": 0.952755905511811
        },
        {
          "duration": 0.09447614583335451,
          "durationTicks": 52,
          "midi": 79,
          "name": "G5",
          "ticks": 69316,
          "time": 125.93670239583332,
          "velocity": 0.6141732283464567
        },
        {
          "duration": 0.14898161458332027,
          "durationTicks": 82,
          "midi": 74,
          "name": "D5",
          "ticks": 69318,
          "time": 125.94033609375,
          "velocity": 0.9763779527559056
        },
        {
          "duration": 0.3124980208333312,
          "durationTicks": 172,
          "midi": 74,
          "name": "D5",
          "ticks": 69408,
          "time": 126.1038525,
          "velocity": 0.8976377952755905
        },
        {
          "duration": 0.3124980208333312,
          "durationTicks": 172,
          "midi": 79,
          "name": "G5",
          "ticks": 69408,
          "time": 126.1038525,
          "velocity": 0.8976377952755905
        },
        {
          "duration": 0.27979473958332335,
          "durationTicks": 154,
          "midi": 67,
          "name": "G4",
          "ticks": 69416,
          "time": 126.11838729166668,
          "velocity": 0.8976377952755905
        },
        {
          "duration": 0.2652599479166611,
          "durationTicks": 146,
          "midi": 70,
          "name": "A#4",
          "ticks": 69422,
          "time": 126.12928838541667,
          "velocity": 0.889763779527559
        },
        {
          "duration": 0.10901093750000257,
          "durationTicks": 60,
          "midi": 67,
          "name": "G4",
          "ticks": 69600,
          "time": 126.4526875,
          "velocity": 0.8582677165354331
        },
        {
          "duration": 0.07994135416667802,
          "durationTicks": 44,
          "midi": 70,
          "name": "A#4",
          "ticks": 69600,
          "time": 126.4526875,
          "velocity": 0.7952755905511811
        },
        {
          "duration": 0.12717942708333396,
          "durationTicks": 70,
          "midi": 67,
          "name": "G4",
          "ticks": 69696,
          "time": 126.627105,
          "velocity": 0.937007874015748
        },
        {
          "duration": 0.12354572916667905,
          "durationTicks": 68,
          "midi": 70,
          "name": "A#4",
          "ticks": 69708,
          "time": 126.6489071875,
          "velocity": 0.9133858267716536
        },
        {
          "duration": 0.13808052083332711,
          "durationTicks": 76,
          "midi": 74,
          "name": "D5",
          "ticks": 69708,
          "time": 126.6489071875,
          "velocity": 0.937007874015748
        },
        {
          "duration": 0.1526153125000036,
          "durationTicks": 84,
          "midi": 70,
          "name": "A#4",
          "ticks": 69792,
          "time": 126.8015225,
          "velocity": 0.7637795275590551
        },
        {
          "duration": 0.13808052083332711,
          "durationTicks": 76,
          "midi": 74,
          "name": "D5",
          "ticks": 69792,
          "time": 126.8015225,
          "velocity": 0.8582677165354331
        },
        {
          "duration": 0.3124980208333312,
          "durationTicks": 172,
          "midi": 79,
          "name": "G5",
          "ticks": 69792,
          "time": 126.8015225,
          "velocity": 0.8740157480314961
        },
        {
          "duration": 0.28342843749999247,
          "durationTicks": 156,
          "midi": 70,
          "name": "A#4",
          "ticks": 69888,
          "time": 126.97594000000001,
          "velocity": 0.7637795275590551
        },
        {
          "duration": 0.28342843749999247,
          "durationTicks": 156,
          "midi": 74,
          "name": "D5",
          "ticks": 69888,
          "time": 126.97594000000001,
          "velocity": 0.8582677165354331
        },
        {
          "duration": 0.4433111458333343,
          "durationTicks": 244,
          "midi": 67,
          "name": "G4",
          "ticks": 69894,
          "time": 126.98684109375,
          "velocity": 0.905511811023622
        },
        {
          "duration": 0.16715010416665166,
          "durationTicks": 92,
          "midi": 69,
          "name": "A4",
          "ticks": 69986,
          "time": 127.15399119791668,
          "velocity": 0.9212598425196851
        },
        {
          "duration": 0.13808052083332711,
          "durationTicks": 76,
          "midi": 70,
          "name": "A#4",
          "ticks": 70076,
          "time": 127.31750760416668,
          "velocity": 0.9448818897637795
        },
        {
          "duration": 0.10901093750000257,
          "durationTicks": 60,
          "midi": 74,
          "name": "D5",
          "ticks": 70088,
          "time": 127.33930979166668,
          "velocity": 0.9763779527559056
        },
        {
          "duration": 0.10901093750000257,
          "durationTicks": 60,
          "midi": 79,
          "name": "G5",
          "ticks": 70088,
          "time": 127.33930979166668,
          "velocity": 0.6220472440944882
        },
        {
          "duration": 0.39970677083331907,
          "durationTicks": 220,
          "midi": 67,
          "name": "G4",
          "ticks": 70176,
          "time": 127.4991925,
          "velocity": 0.7637795275590551
        },
        {
          "duration": 0.13808052083332711,
          "durationTicks": 76,
          "midi": 70,
          "name": "A#4",
          "ticks": 70176,
          "time": 127.4991925,
          "velocity": 0.8661417322834646
        },
        {
          "duration": 0.4869155208333211,
          "durationTicks": 268,
          "midi": 74,
          "name": "D5",
          "ticks": 70176,
          "time": 127.4991925,
          "velocity": 0.8976377952755905
        },
        {
          "duration": 0.4578459374999966,
          "durationTicks": 252,
          "midi": 79,
          "name": "G5",
          "ticks": 70176,
          "time": 127.4991925,
          "velocity": 0.8976377952755905
        },
        {
          "duration": 0.23619036458332232,
          "durationTicks": 130,
          "midi": 60,
          "name": "C4",
          "ticks": 70266,
          "time": 127.66270890625,
          "velocity": 0.952755905511811
        },
        {
          "duration": 0.2470914583333581,
          "durationTicks": 136,
          "midi": 58,
          "name": "A#3",
          "ticks": 70462,
          "time": 128.01881130208332,
          "velocity": 0.937007874015748
        },
        {
          "duration": 0.27979473958330914,
          "durationTicks": 154,
          "midi": 67,
          "name": "G4",
          "ticks": 70466,
          "time": 128.0260786979167,
          "velocity": 0.937007874015748
        },
        {
          "duration": 0.268893645833316,
          "durationTicks": 148,
          "midi": 70,
          "name": "A#4",
          "ticks": 70472,
          "time": 128.03697979166668,
          "velocity": 0.9291338582677166
        },
        {
          "duration": 0.2652599479166611,
          "durationTicks": 146,
          "midi": 74,
          "name": "D5",
          "ticks": 70474,
          "time": 128.04061348958334,
          "velocity": 0.937007874015748
        },
        {
          "duration": 0.2652599479166611,
          "durationTicks": 146,
          "midi": 79,
          "name": "G5",
          "ticks": 70474,
          "time": 128.04061348958334,
          "velocity": 0.937007874015748
        },
        {
          "duration": 0.6613330208333537,
          "durationTicks": 364,
          "midi": 60,
          "name": "C4",
          "ticks": 70654,
          "time": 128.36764630208333,
          "velocity": 0.8740157480314961
        },
        {
          "duration": 0.4869155208333211,
          "durationTicks": 268,
          "midi": 65,
          "name": "F4",
          "ticks": 70662,
          "time": 128.38218109375,
          "velocity": 0.952755905511811
        },
        {
          "duration": 0.1526153124999894,
          "durationTicks": 84,
          "midi": 69,
          "name": "A4",
          "ticks": 70846,
          "time": 128.71648130208334,
          "velocity": 0.952755905511811
        },
        {
          "duration": 0.14898161458330605,
          "durationTicks": 82,
          "midi": 72,
          "name": "C5",
          "ticks": 70854,
          "time": 128.73101609375001,
          "velocity": 0.9763779527559056
        },
        {
          "duration": 0.31249802083334544,
          "durationTicks": 172,
          "midi": 72,
          "name": "C5",
          "ticks": 70944,
          "time": 128.8945325,
          "velocity": 0.8976377952755905
        },
        {
          "duration": 0.31249802083334544,
          "durationTicks": 172,
          "midi": 77,
          "name": "F5",
          "ticks": 70944,
          "time": 128.8945325,
          "velocity": 0.937007874015748
        },
        {
          "duration": 0.27979473958333756,
          "durationTicks": 154,
          "midi": 65,
          "name": "F4",
          "ticks": 70952,
          "time": 128.90906729166667,
          "velocity": 0.8976377952755905
        },
        {
          "duration": 0.2652599479166611,
          "durationTicks": 146,
          "midi": 69,
          "name": "A4",
          "ticks": 70958,
          "time": 128.91996838541667,
          "velocity": 0.889763779527559
        },
        {
          "duration": 0.10901093749998836,
          "durationTicks": 60,
          "midi": 65,
          "name": "F4",
          "ticks": 71136,
          "time": 129.2433675,
          "velocity": 0.8582677165354331
        },
        {
          "duration": 0.07994135416666381,
          "durationTicks": 44,
          "midi": 69,
          "name": "A4",
          "ticks": 71136,
          "time": 129.2433675,
          "velocity": 0.7952755905511811
        },
        {
          "duration": 0.12717942708331975,
          "durationTicks": 70,
          "midi": 65,
          "name": "F4",
          "ticks": 71232,
          "time": 129.417785,
          "velocity": 0.937007874015748
        },
        {
          "duration": 0.12354572916669326,
          "durationTicks": 68,
          "midi": 69,
          "name": "A4",
          "ticks": 71244,
          "time": 129.4395871875,
          "velocity": 0.9133858267716536
        },
        {
          "duration": 0.13808052083334132,
          "durationTicks": 76,
          "midi": 72,
          "name": "C5",
          "ticks": 71244,
          "time": 129.4395871875,
          "velocity": 0.937007874015748
        },
        {
          "duration": 0.1526153124999894,
          "durationTicks": 84,
          "midi": 69,
          "name": "A4",
          "ticks": 71328,
          "time": 129.5922025,
          "velocity": 0.7637795275590551
        },
        {
          "duration": 0.1380805208333129,
          "durationTicks": 76,
          "midi": 72,
          "name": "C5",
          "ticks": 71328,
          "time": 129.5922025,
          "velocity": 0.8582677165354331
        },
        {
          "duration": 0.1526153124999894,
          "durationTicks": 84,
          "midi": 77,
          "name": "F5",
          "ticks": 71328,
          "time": 129.5922025,
          "velocity": 0.8582677165354331
        },
        {
          "duration": 0.22528927083334338,
          "durationTicks": 124,
          "midi": 69,
          "name": "A4",
          "ticks": 71424,
          "time": 129.76662,
          "velocity": 0.9133858267716536
        },
        {
          "duration": 0.2834284375000209,
          "durationTicks": 156,
          "midi": 72,
          "name": "C5",
          "ticks": 71424,
          "time": 129.76662,
          "velocity": 0.8582677165354331
        },
        {
          "duration": 0.4433111458333201,
          "durationTicks": 244,
          "midi": 66,
          "name": "F#4",
          "ticks": 71430,
          "time": 129.77752109375,
          "velocity": 0.905511811023622
        },
        {
          "duration": 0.1380805208333129,
          "durationTicks": 76,
          "midi": 69,
          "name": "A4",
          "ticks": 71612,
          "time": 130.1081876041667,
          "velocity": 0.9448818897637795
        },
        {
          "duration": 0.10901093749998836,
          "durationTicks": 60,
          "midi": 72,
          "name": "C5",
          "ticks": 71624,
          "time": 130.12998979166667,
          "velocity": 0.9763779527559056
        },
        {
          "duration": 0.0944761458333403,
          "durationTicks": 52,
          "midi": 78,
          "name": "F#5",
          "ticks": 71624,
          "time": 130.12998979166667,
          "velocity": 0.6299212598425197
        },
        {
          "duration": 0.312498020833317,
          "durationTicks": 172,
          "midi": 66,
          "name": "F#4",
          "ticks": 71712,
          "time": 130.2898725,
          "velocity": 0.7637795275590551
        },
        {
          "duration": 0.312498020833317,
          "durationTicks": 172,
          "midi": 69,
          "name": "A4",
          "ticks": 71712,
          "time": 130.2898725,
          "velocity": 0.8661417322834646
        },
        {
          "duration": 0.29796322916666895,
          "durationTicks": 164,
          "midi": 72,
          "name": "C5",
          "ticks": 71712,
          "time": 130.2898725,
          "velocity": 0.8976377952755905
        },
        {
          "duration": 0.31613171875000035,
          "durationTicks": 174,
          "midi": 78,
          "name": "F#5",
          "ticks": 71712,
          "time": 130.2898725,
          "velocity": 0.937007874015748
        },
        {
          "duration": 0.10901093749998836,
          "durationTicks": 60,
          "midi": 66,
          "name": "F#4",
          "ticks": 71904,
          "time": 130.6387075,
          "velocity": 0.8582677165354331
        },
        {
          "duration": 0.12354572916666484,
          "durationTicks": 68,
          "midi": 69,
          "name": "A4",
          "ticks": 71904,
          "time": 130.6387075,
          "velocity": 0.8503937007874016
        },
        {
          "duration": 0.18168489583334235,
          "durationTicks": 100,
          "midi": 66,
          "name": "F#4",
          "ticks": 72002,
          "time": 130.81675869791667,
          "velocity": 0.937007874015748
        },
        {
          "duration": 0.12354572916666484,
          "durationTicks": 68,
          "midi": 69,
          "name": "A4",
          "ticks": 72008,
          "time": 130.82765979166666,
          "velocity": 0.9291338582677166
        },
        {
          "duration": 0.16351640625001096,
          "durationTicks": 90,
          "midi": 72,
          "name": "C5",
          "ticks": 72010,
          "time": 130.83129348958332,
          "velocity": 0.937007874015748
        },
        {
          "duration": 0.1526153125000178,
          "durationTicks": 84,
          "midi": 69,
          "name": "A4",
          "ticks": 72104,
          "time": 131.00207729166667,
          "velocity": 0.7637795275590551
        },
        {
          "duration": 0.13808052083334132,
          "durationTicks": 76,
          "midi": 72,
          "name": "C5",
          "ticks": 72104,
          "time": 131.00207729166667,
          "velocity": 0.8582677165354331
        },
        {
          "duration": 0.29796322916666895,
          "durationTicks": 164,
          "midi": 78,
          "name": "F#5",
          "ticks": 72104,
          "time": 131.00207729166667,
          "velocity": 0.8582677165354331
        },
        {
          "duration": 0.25435885416669635,
          "durationTicks": 140,
          "midi": 70,
          "name": "A#4",
          "ticks": 72192,
          "time": 131.16196,
          "velocity": 0.7401574803149606
        },
        {
          "duration": 0.4869155208333211,
          "durationTicks": 268,
          "midi": 67,
          "name": "G4",
          "ticks": 72198,
          "time": 131.17286109375002,
          "velocity": 0.952755905511811
        },
        {
          "duration": 0.1526153125000178,
          "durationTicks": 84,
          "midi": 70,
          "name": "A#4",
          "ticks": 72382,
          "time": 131.50716130208332,
          "velocity": 0.952755905511811
        },
        {
          "duration": 0.14898161458333448,
          "durationTicks": 82,
          "midi": 74,
          "name": "D5",
          "ticks": 72390,
          "time": 131.52169609375,
          "velocity": 0.9763779527559056
        },
        {
          "duration": 0.312498020833317,
          "durationTicks": 172,
          "midi": 74,
          "name": "D5",
          "ticks": 72480,
          "time": 131.6852125,
          "velocity": 0.8976377952755905
        },
        {
          "duration": 0.312498020833317,
          "durationTicks": 172,
          "midi": 79,
          "name": "G5",
          "ticks": 72480,
          "time": 131.6852125,
          "velocity": 0.937007874015748
        },
        {
          "duration": 0.27979473958330914,
          "durationTicks": 154,
          "midi": 67,
          "name": "G4",
          "ticks": 72488,
          "time": 131.69974729166668,
          "velocity": 0.8976377952755905
        },
        {
          "duration": 0.2652599479166611,
          "durationTicks": 146,
          "midi": 70,
          "name": "A#4",
          "ticks": 72494,
          "time": 131.71064838541668,
          "velocity": 0.889763779527559
        },
        {
          "duration": 0.10901093749998836,
          "durationTicks": 60,
          "midi": 67,
          "name": "G4",
          "ticks": 72672,
          "time": 132.0340475,
          "velocity": 0.8582677165354331
        },
        {
          "duration": 0.07994135416666381,
          "durationTicks": 44,
          "midi": 70,
          "name": "A#4",
          "ticks": 72672,
          "time": 132.0340475,
          "velocity": 0.7952755905511811
        },
        {
          "duration": 0.12717942708334817,
          "durationTicks": 70,
          "midi": 67,
          "name": "G4",
          "ticks": 72768,
          "time": 132.208465,
          "velocity": 0.937007874015748
        },
        {
          "duration": 0.12354572916666484,
          "durationTicks": 68,
          "midi": 70,
          "name": "A#4",
          "ticks": 72780,
          "time": 132.2302671875,
          "velocity": 0.9133858267716536
        },
        {
          "duration": 0.1380805208333129,
          "durationTicks": 76,
          "midi": 74,
          "name": "D5",
          "ticks": 72780,
          "time": 132.2302671875,
          "velocity": 0.937007874015748
        },
        {
          "duration": 0.1526153125000178,
          "durationTicks": 84,
          "midi": 70,
          "name": "A#4",
          "ticks": 72864,
          "time": 132.3828825,
          "velocity": 0.7637795275590551
        },
        {
          "duration": 0.13808052083334132,
          "durationTicks": 76,
          "midi": 74,
          "name": "D5",
          "ticks": 72864,
          "time": 132.3828825,
          "velocity": 0.8582677165354331
        },
        {
          "duration": 0.34156760416667,
          "durationTicks": 188,
          "midi": 79,
          "name": "G5",
          "ticks": 72864,
          "time": 132.3828825,
          "velocity": 0.8582677165354331
        },
        {
          "duration": 0.22528927083334338,
          "durationTicks": 124,
          "midi": 70,
          "name": "A#4",
          "ticks": 72960,
          "time": 132.5573,
          "velocity": 0.9133858267716536
        },
        {
          "duration": 0.28342843749999247,
          "durationTicks": 156,
          "midi": 74,
          "name": "D5",
          "ticks": 72960,
          "time": 132.5573,
          "velocity": 0.8582677165354331
        },
        {
          "duration": 0.4433111458333485,
          "durationTicks": 244,
          "midi": 67,
          "name": "G4",
          "ticks": 72966,
          "time": 132.56820109375,
          "velocity": 0.905511811023622
        },
        {
          "duration": 0.16715010416666587,
          "durationTicks": 92,
          "midi": 69,
          "name": "A4",
          "ticks": 73056,
          "time": 132.7317175,
          "velocity": 0.9212598425196851
        },
        {
          "duration": 0.13808052083334132,
          "durationTicks": 76,
          "midi": 70,
          "name": "A#4",
          "ticks": 73148,
          "time": 132.89886760416667,
          "velocity": 0.9448818897637795
        },
        {
          "duration": 0.10901093749998836,
          "durationTicks": 60,
          "midi": 74,
          "name": "D5",
          "ticks": 73160,
          "time": 132.92066979166668,
          "velocity": 0.9763779527559056
        },
        {
          "duration": 0.09447614583331188,
          "durationTicks": 52,
          "midi": 79,
          "name": "G5",
          "ticks": 73160,
          "time": 132.92066979166668,
          "velocity": 0.6299212598425197
        },
        {
          "duration": 0.312498020833317,
          "durationTicks": 172,
          "midi": 67,
          "name": "G4",
          "ticks": 73248,
          "time": 133.0805525,
          "velocity": 0.7637795275590551
        },
        {
          "duration": 0.2107544791666669,
          "durationTicks": 116,
          "midi": 70,
          "name": "A#4",
          "ticks": 73248,
          "time": 133.0805525,
          "velocity": 0.8661417322834646
        },
        {
          "duration": 0.2107544791666669,
          "durationTicks": 116,
          "midi": 74,
          "name": "D5",
          "ticks": 73248,
          "time": 133.0805525,
          "velocity": 0.8976377952755905
        },
        {
          "duration": 0.31613171875000035,
          "durationTicks": 174,
          "midi": 79,
          "name": "G5",
          "ticks": 73248,
          "time": 133.0805525,
          "velocity": 0.937007874015748
        },
        {
          "duration": 0.10901093750001678,
          "durationTicks": 60,
          "midi": 67,
          "name": "G4",
          "ticks": 73440,
          "time": 133.4293875,
          "velocity": 0.8582677165354331
        },
        {
          "duration": 0.0944761458333403,
          "durationTicks": 52,
          "midi": 70,
          "name": "A#4",
          "ticks": 73440,
          "time": 133.4293875,
          "velocity": 0.8503937007874016
        },
        {
          "duration": 0.2979632291666974,
          "durationTicks": 164,
          "midi": 67,
          "name": "G4",
          "ticks": 73528,
          "time": 133.58927020833332,
          "velocity": 0.984251968503937
        },
        {
          "duration": 0.12354572916666484,
          "durationTicks": 68,
          "midi": 70,
          "name": "A#4",
          "ticks": 73544,
          "time": 133.61833979166667,
          "velocity": 0.9291338582677166
        },
        {
          "duration": 0.16351640625001096,
          "durationTicks": 90,
          "midi": 74,
          "name": "D5",
          "ticks": 73546,
          "time": 133.62197348958333,
          "velocity": 0.937007874015748
        },
        {
          "duration": 0.1526153124999894,
          "durationTicks": 84,
          "midi": 70,
          "name": "A#4",
          "ticks": 73640,
          "time": 133.79275729166667,
          "velocity": 0.7637795275590551
        },
        {
          "duration": 0.13808052083334132,
          "durationTicks": 76,
          "midi": 74,
          "name": "D5",
          "ticks": 73640,
          "time": 133.79275729166667,
          "velocity": 0.8582677165354331
        },
        {
          "duration": 0.29796322916664053,
          "durationTicks": 164,
          "midi": 79,
          "name": "G5",
          "ticks": 73640,
          "time": 133.79275729166667,
          "velocity": 0.8582677165354331
        },
        {
          "duration": 0.2543588541666679,
          "durationTicks": 140,
          "midi": 69,
          "name": "A4",
          "ticks": 73728,
          "time": 133.95264,
          "velocity": 0.7401574803149606
        },
        {
          "duration": 0.4869155208333211,
          "durationTicks": 268,
          "midi": 65,
          "name": "F4",
          "ticks": 73734,
          "time": 133.96354109375,
          "velocity": 0.952755905511811
        },
        {
          "duration": 0.1526153124999894,
          "durationTicks": 84,
          "midi": 69,
          "name": "A4",
          "ticks": 73918,
          "time": 134.29784130208333,
          "velocity": 0.952755905511811
        },
        {
          "duration": 0.14898161458333448,
          "durationTicks": 82,
          "midi": 72,
          "name": "C5",
          "ticks": 73926,
          "time": 134.31237609375,
          "velocity": 0.9763779527559056
        },
        {
          "duration": 0.312498020833317,
          "durationTicks": 172,
          "midi": 72,
          "name": "C5",
          "ticks": 74016,
          "time": 134.47589250000001,
          "velocity": 0.8976377952755905
        },
        {
          "duration": 0.312498020833317,
          "durationTicks": 172,
          "midi": 77,
          "name": "F5",
          "ticks": 74016,
          "time": 134.47589250000001,
          "velocity": 0.937007874015748
        },
        {
          "duration": 0.27979473958333756,
          "durationTicks": 154,
          "midi": 65,
          "name": "F4",
          "ticks": 74024,
          "time": 134.49042729166666,
          "velocity": 0.8976377952755905
        },
        {
          "duration": 0.26525994791663265,
          "durationTicks": 146,
          "midi": 69,
          "name": "A4",
          "ticks": 74030,
          "time": 134.50132838541668,
          "velocity": 0.889763779527559
        },
        {
          "duration": 0.10901093750001678,
          "durationTicks": 60,
          "midi": 65,
          "name": "F4",
          "ticks": 74208,
          "time": 134.8247275,
          "velocity": 0.8582677165354331
        },
        {
          "duration": 0.07994135416669224,
          "durationTicks": 44,
          "midi": 69,
          "name": "A4",
          "ticks": 74208,
          "time": 134.8247275,
          "velocity": 0.7952755905511811
        },
        {
          "duration": 0.12717942708331975,
          "durationTicks": 70,
          "midi": 65,
          "name": "F4",
          "ticks": 74304,
          "time": 134.999145,
          "velocity": 0.937007874015748
        },
        {
          "duration": 0.12354572916666484,
          "durationTicks": 68,
          "midi": 69,
          "name": "A4",
          "ticks": 74316,
          "time": 135.0209471875,
          "velocity": 0.9133858267716536
        },
        {
          "duration": 0.1380805208333129,
          "durationTicks": 76,
          "midi": 72,
          "name": "C5",
          "ticks": 74316,
          "time": 135.0209471875,
          "velocity": 0.937007874015748
        },
        {
          "duration": 0.1526153124999894,
          "durationTicks": 84,
          "midi": 69,
          "name": "A4",
          "ticks": 74400,
          "time": 135.1735625,
          "velocity": 0.7637795275590551
        },
        {
          "duration": 0.1380805208333129,
          "durationTicks": 76,
          "midi": 72,
          "name": "C5",
          "ticks": 74400,
          "time": 135.1735625,
          "velocity": 0.8582677165354331
        },
        {
          "duration": 0.34156760416667,
          "durationTicks": 188,
          "midi": 77,
          "name": "F5",
          "ticks": 74400,
          "time": 135.1735625,
          "velocity": 0.8582677165354331
        },
        {
          "duration": 0.22528927083331496,
          "durationTicks": 124,
          "midi": 69,
          "name": "A4",
          "ticks": 74496,
          "time": 135.34798,
          "velocity": 0.9133858267716536
        },
        {
          "duration": 0.28342843749999247,
          "durationTicks": 156,
          "midi": 72,
          "name": "C5",
          "ticks": 74496,
          "time": 135.34798,
          "velocity": 0.8582677165354331
        },
        {
          "duration": 0.4433111458333201,
          "durationTicks": 244,
          "midi": 65,
          "name": "F4",
          "ticks": 74502,
          "time": 135.35888109375,
          "velocity": 0.905511811023622
        },
        {
          "duration": 0.16715010416666587,
          "durationTicks": 92,
          "midi": 77,
          "name": "F5",
          "ticks": 74592,
          "time": 135.5223975,
          "velocity": 0.9212598425196851
        },
        {
          "duration": 0.1380805208333129,
          "durationTicks": 76,
          "midi": 69,
          "name": "A4",
          "ticks": 74684,
          "time": 135.68954760416668,
          "velocity": 0.9448818897637795
        },
        {
          "duration": 0.10901093750001678,
          "durationTicks": 60,
          "midi": 72,
          "name": "C5",
          "ticks": 74696,
          "time": 135.71134979166666,
          "velocity": 0.9763779527559056
        },
        {
          "duration": 0.0944761458333403,
          "durationTicks": 52,
          "midi": 77,
          "name": "F5",
          "ticks": 74696,
          "time": 135.71134979166666,
          "velocity": 0.6299212598425197
        },
        {
          "duration": 0.31249802083334544,
          "durationTicks": 172,
          "midi": 65,
          "name": "F4",
          "ticks": 74784,
          "time": 135.8712325,
          "velocity": 0.7637795275590551
        },
        {
          "duration": 0.21075447916669532,
          "durationTicks": 116,
          "midi": 69,
          "name": "A4",
          "ticks": 74784,
          "time": 135.8712325,
          "velocity": 0.8661417322834646
        },
        {
          "duration": 0.21075447916669532,
          "durationTicks": 116,
          "midi": 72,
          "name": "C5",
          "ticks": 74784,
          "time": 135.8712325,
          "velocity": 0.8976377952755905
        },
        {
          "duration": 0.31613171875000035,
          "durationTicks": 174,
          "midi": 77,
          "name": "F5",
          "ticks": 74784,
          "time": 135.8712325,
          "velocity": 0.937007874015748
        },
        {
          "duration": 0.10901093750001678,
          "durationTicks": 60,
          "midi": 65,
          "name": "F4",
          "ticks": 74976,
          "time": 136.2200675,
          "velocity": 0.8582677165354331
        },
        {
          "duration": 0.0944761458333403,
          "durationTicks": 52,
          "midi": 69,
          "name": "A4",
          "ticks": 74976,
          "time": 136.2200675,
          "velocity": 0.8503937007874016
        },
        {
          "duration": 0.23982406249999144,
          "durationTicks": 132,
          "midi": 77,
          "name": "F5",
          "ticks": 74984,
          "time": 136.23460229166668,
          "velocity": 0.9763779527559056
        },
        {
          "duration": 0.29796322916666895,
          "durationTicks": 164,
          "midi": 65,
          "name": "F4",
          "ticks": 75064,
          "time": 136.37995020833333,
          "velocity": 0.984251968503937
        },
        {
          "duration": 0.12354572916663642,
          "durationTicks": 68,
          "midi": 69,
          "name": "A4",
          "ticks": 75080,
          "time": 136.40901979166668,
          "velocity": 0.9291338582677166
        },
        {
          "duration": 0.16351640624998254,
          "durationTicks": 90,
          "midi": 72,
          "name": "C5",
          "ticks": 75082,
          "time": 136.41265348958333,
          "velocity": 0.937007874015748
        },
        {
          "duration": 0.1526153124999894,
          "durationTicks": 84,
          "midi": 69,
          "name": "A4",
          "ticks": 75176,
          "time": 136.58343729166668,
          "velocity": 0.7637795275590551
        },
        {
          "duration": 0.1380805208333129,
          "durationTicks": 76,
          "midi": 72,
          "name": "C5",
          "ticks": 75176,
          "time": 136.58343729166668,
          "velocity": 0.8582677165354331
        },
        {
          "duration": 0.29796322916664053,
          "durationTicks": 164,
          "midi": 77,
          "name": "F5",
          "ticks": 75176,
          "time": 136.58343729166668,
          "velocity": 0.8582677165354331
        },
        {
          "duration": 0.2543588541666679,
          "durationTicks": 140,
          "midi": 69,
          "name": "A4",
          "ticks": 75264,
          "time": 136.74332,
          "velocity": 0.9133858267716536
        },
        {
          "duration": 0.4869155208333211,
          "durationTicks": 268,
          "midi": 66,
          "name": "F#4",
          "ticks": 75270,
          "time": 136.75422109375,
          "velocity": 0.952755905511811
        },
        {
          "duration": 0.1526153124999894,
          "durationTicks": 84,
          "midi": 69,
          "name": "A4",
          "ticks": 75454,
          "time": 137.08852130208334,
          "velocity": 0.952755905511811
        },
        {
          "duration": 0.0944761458333403,
          "durationTicks": 52,
          "midi": 78,
          "name": "F#5",
          "ticks": 75460,
          "time": 137.09942239583333,
          "velocity": 0.6141732283464567
        },
        {
          "duration": 0.14898161458330605,
          "durationTicks": 82,
          "midi": 74,
          "name": "D5",
          "ticks": 75462,
          "time": 137.10305609375,
          "velocity": 0.9763779527559056
        },
        {
          "duration": 0.31249802083334544,
          "durationTicks": 172,
          "midi": 74,
          "name": "D5",
          "ticks": 75552,
          "time": 137.2665725,
          "velocity": 0.8976377952755905
        },
        {
          "duration": 0.31249802083334544,
          "durationTicks": 172,
          "midi": 78,
          "name": "F#5",
          "ticks": 75552,
          "time": 137.2665725,
          "velocity": 0.8976377952755905
        },
        {
          "duration": 0.27979473958333756,
          "durationTicks": 154,
          "midi": 66,
          "name": "F#4",
          "ticks": 75560,
          "time": 137.28110729166667,
          "velocity": 0.8976377952755905
        },
        {
          "duration": 0.2652599479166611,
          "durationTicks": 146,
          "midi": 69,
          "name": "A4",
          "ticks": 75566,
          "time": 137.29200838541666,
          "velocity": 0.889763779527559
        },
        {
          "duration": 0.10901093749998836,
          "durationTicks": 60,
          "midi": 66,
          "name": "F#4",
          "ticks": 75744,
          "time": 137.6154075,
          "velocity": 0.8582677165354331
        },
        {
          "duration": 0.07994135416666381,
          "durationTicks": 44,
          "midi": 69,
          "name": "A4",
          "ticks": 75744,
          "time": 137.6154075,
          "velocity": 0.7952755905511811
        },
        {
          "duration": 0.12717942708331975,
          "durationTicks": 70,
          "midi": 66,
          "name": "F#4",
          "ticks": 75840,
          "time": 137.789825,
          "velocity": 0.937007874015748
        },
        {
          "duration": 0.12354572916669326,
          "durationTicks": 68,
          "midi": 69,
          "name": "A4",
          "ticks": 75852,
          "time": 137.8116271875,
          "velocity": 0.9133858267716536
        },
        {
          "duration": 0.13808052083334132,
          "durationTicks": 76,
          "midi": 74,
          "name": "D5",
          "ticks": 75852,
          "time": 137.8116271875,
          "velocity": 0.937007874015748
        },
        {
          "duration": 0.1526153124999894,
          "durationTicks": 84,
          "midi": 69,
          "name": "A4",
          "ticks": 75936,
          "time": 137.9642425,
          "velocity": 0.7637795275590551
        },
        {
          "duration": 0.1380805208333129,
          "durationTicks": 76,
          "midi": 74,
          "name": "D5",
          "ticks": 75936,
          "time": 137.9642425,
          "velocity": 0.8582677165354331
        },
        {
          "duration": 0.312498020833317,
          "durationTicks": 172,
          "midi": 78,
          "name": "F#5",
          "ticks": 75936,
          "time": 137.9642425,
          "velocity": 0.8740157480314961
        },
        {
          "duration": 0.28342843749999247,
          "durationTicks": 156,
          "midi": 72,
          "name": "C5",
          "ticks": 76032,
          "time": 138.13866000000002,
          "velocity": 0.7637795275590551
        },
        {
          "duration": 0.28342843749999247,
          "durationTicks": 156,
          "midi": 74,
          "name": "D5",
          "ticks": 76032,
          "time": 138.13866000000002,
          "velocity": 0.8582677165354331
        },
        {
          "duration": 0.4433111458333201,
          "durationTicks": 244,
          "midi": 66,
          "name": "F#4",
          "ticks": 76038,
          "time": 138.14956109375,
          "velocity": 0.905511811023622
        },
        {
          "duration": 0.1380805208333129,
          "durationTicks": 76,
          "midi": 72,
          "name": "C5",
          "ticks": 76220,
          "time": 138.48022760416669,
          "velocity": 0.9448818897637795
        },
        {
          "duration": 0.10901093750001678,
          "durationTicks": 60,
          "midi": 74,
          "name": "D5",
          "ticks": 76232,
          "time": 138.50202979166667,
          "velocity": 0.9763779527559056
        },
        {
          "duration": 0.10901093750001678,
          "durationTicks": 60,
          "midi": 78,
          "name": "F#5",
          "ticks": 76232,
          "time": 138.50202979166667,
          "velocity": 0.6220472440944882
        },
        {
          "duration": 0.4433111458333201,
          "durationTicks": 244,
          "midi": 66,
          "name": "F#4",
          "ticks": 76320,
          "time": 138.6619125,
          "velocity": 0.7637795275590551
        },
        {
          "duration": 0.13808052083334132,
          "durationTicks": 76,
          "midi": 72,
          "name": "C5",
          "ticks": 76320,
          "time": 138.6619125,
          "velocity": 0.8661417322834646
        },
        {
          "duration": 0.41424156249999555,
          "durationTicks": 228,
          "midi": 74,
          "name": "D5",
          "ticks": 76320,
          "time": 138.6619125,
          "velocity": 0.8976377952755905
        },
        {
          "duration": 0.4578459374999966,
          "durationTicks": 252,
          "midi": 78,
          "name": "F#5",
          "ticks": 76320,
          "time": 138.6619125,
          "velocity": 0.8976377952755905
        },
        {
          "duration": 0.2543588541666679,
          "durationTicks": 140,
          "midi": 70,
          "name": "A#4",
          "ticks": 76434,
          "time": 138.86903328125,
          "velocity": 0.968503937007874
        },
        {
          "duration": 0.27979473958333756,
          "durationTicks": 154,
          "midi": 66,
          "name": "F#4",
          "ticks": 76610,
          "time": 139.18879869791667,
          "velocity": 0.937007874015748
        },
        {
          "duration": 0.26525994791663265,
          "durationTicks": 146,
          "midi": 69,
          "name": "A4",
          "ticks": 76616,
          "time": 139.1996997916667,
          "velocity": 0.9291338582677166
        },
        {
          "duration": 0.2652599479166895,
          "durationTicks": 146,
          "midi": 74,
          "name": "D5",
          "ticks": 76618,
          "time": 139.20333348958331,
          "velocity": 0.937007874015748
        },
        {
          "duration": 0.2652599479166895,
          "durationTicks": 146,
          "midi": 78,
          "name": "F#5",
          "ticks": 76618,
          "time": 139.20333348958331,
          "velocity": 0.937007874015748
        },
        {
          "duration": 0.4869155208333211,
          "durationTicks": 268,
          "midi": 67,
          "name": "G4",
          "ticks": 76806,
          "time": 139.54490109375,
          "velocity": 0.952755905511811
        },
        {
          "duration": 0.1526153124999894,
          "durationTicks": 84,
          "midi": 70,
          "name": "A#4",
          "ticks": 76992,
          "time": 139.882835,
          "velocity": 0.952755905511811
        },
        {
          "duration": 0.14898161458333448,
          "durationTicks": 82,
          "midi": 74,
          "name": "D5",
          "ticks": 76998,
          "time": 139.89373609375,
          "velocity": 0.9763779527559056
        },
        {
          "duration": 0.2652599479166611,
          "durationTicks": 146,
          "midi": 70,
          "name": "A#4",
          "ticks": 77088,
          "time": 140.0572525,
          "velocity": 0.889763779527559
        },
        {
          "duration": 0.312498020833317,
          "durationTicks": 172,
          "midi": 74,
          "name": "D5",
          "ticks": 77088,
          "time": 140.0572525,
          "velocity": 0.8976377952755905
        },
        {
          "duration": 0.312498020833317,
          "durationTicks": 172,
          "midi": 79,
          "name": "G5",
          "ticks": 77088,
          "time": 140.0572525,
          "velocity": 0.937007874015748
        },
        {
          "duration": 0.27979473958330914,
          "durationTicks": 154,
          "midi": 67,
          "name": "G4",
          "ticks": 77096,
          "time": 140.07178729166668,
          "velocity": 0.8976377952755905
        },
        {
          "duration": 0.10901093749998836,
          "durationTicks": 60,
          "midi": 67,
          "name": "G4",
          "ticks": 77280,
          "time": 140.4060875,
          "velocity": 0.8582677165354331
        },
        {
          "duration": 0.07994135416666381,
          "durationTicks": 44,
          "midi": 70,
          "name": "A#4",
          "ticks": 77280,
          "time": 140.4060875,
          "velocity": 0.7952755905511811
        },
        {
          "duration": 0.12717942708331975,
          "durationTicks": 70,
          "midi": 67,
          "name": "G4",
          "ticks": 77376,
          "time": 140.58050500000002,
          "velocity": 0.937007874015748
        },
        {
          "duration": 0.11991203124998151,
          "durationTicks": 66,
          "midi": 70,
          "name": "A#4",
          "ticks": 77376,
          "time": 140.58050500000002,
          "velocity": 0.9133858267716536
        },
        {
          "duration": 0.1380805208333129,
          "durationTicks": 76,
          "midi": 74,
          "name": "D5",
          "ticks": 77388,
          "time": 140.6023071875,
          "velocity": 0.937007874015748
        },
        {
          "duration": 0.1526153125000178,
          "durationTicks": 84,
          "midi": 70,
          "name": "A#4",
          "ticks": 77472,
          "time": 140.7549225,
          "velocity": 0.7637795275590551
        },
        {
          "duration": 0.13808052083334132,
          "durationTicks": 76,
          "midi": 74,
          "name": "D5",
          "ticks": 77472,
          "time": 140.7549225,
          "velocity": 0.8582677165354331
        },
        {
          "duration": 0.34156760416667,
          "durationTicks": 188,
          "midi": 79,
          "name": "G5",
          "ticks": 77472,
          "time": 140.7549225,
          "velocity": 0.8582677165354331
        },
        {
          "duration": 0.22528927083334338,
          "durationTicks": 124,
          "midi": 70,
          "name": "A#4",
          "ticks": 77568,
          "time": 140.92934,
          "velocity": 0.9133858267716536
        },
        {
          "duration": 0.28342843749999247,
          "durationTicks": 156,
          "midi": 74,
          "name": "D5",
          "ticks": 77568,
          "time": 140.92934,
          "velocity": 0.8582677165354331
        },
        {
          "duration": 0.4433111458333485,
          "durationTicks": 244,
          "midi": 67,
          "name": "G4",
          "ticks": 77574,
          "time": 140.94024109375,
          "velocity": 0.905511811023622
        },
        {
          "duration": 0.1380805208333129,
          "durationTicks": 76,
          "midi": 70,
          "name": "A#4",
          "ticks": 77760,
          "time": 141.278175,
          "velocity": 0.9448818897637795
        },
        {
          "duration": 0.10901093749998836,
          "durationTicks": 60,
          "midi": 74,
          "name": "D5",
          "ticks": 77768,
          "time": 141.29270979166668,
          "velocity": 0.9763779527559056
        },
        {
          "duration": 0.09447614583331188,
          "durationTicks": 52,
          "midi": 79,
          "name": "G5",
          "ticks": 77768,
          "time": 141.29270979166668,
          "velocity": 0.6299212598425197
        },
        {
          "duration": 0.312498020833317,
          "durationTicks": 172,
          "midi": 67,
          "name": "G4",
          "ticks": 77856,
          "time": 141.4525925,
          "velocity": 0.7637795275590551
        },
        {
          "duration": 0.312498020833317,
          "durationTicks": 172,
          "midi": 70,
          "name": "A#4",
          "ticks": 77856,
          "time": 141.4525925,
          "velocity": 0.8661417322834646
        },
        {
          "duration": 0.29796322916666895,
          "durationTicks": 164,
          "midi": 74,
          "name": "D5",
          "ticks": 77856,
          "time": 141.4525925,
          "velocity": 0.8976377952755905
        },
        {
          "duration": 0.31613171875000035,
          "durationTicks": 174,
          "midi": 79,
          "name": "G5",
          "ticks": 77856,
          "time": 141.4525925,
          "velocity": 0.937007874015748
        },
        {
          "duration": 0.10901093750001678,
          "durationTicks": 60,
          "midi": 67,
          "name": "G4",
          "ticks": 78048,
          "time": 141.8014275,
          "velocity": 0.8582677165354331
        },
        {
          "duration": 0.12354572916669326,
          "durationTicks": 68,
          "midi": 70,
          "name": "A#4",
          "ticks": 78048,
          "time": 141.8014275,
          "velocity": 0.8503937007874016
        },
        {
          "duration": 0.11991203125000993,
          "durationTicks": 66,
          "midi": 70,
          "name": "A#4",
          "ticks": 78144,
          "time": 141.975845,
          "velocity": 0.9291338582677166
        },
        {
          "duration": 0.18168489583331393,
          "durationTicks": 100,
          "midi": 67,
          "name": "G4",
          "ticks": 78146,
          "time": 141.97947869791668,
          "velocity": 0.937007874015748
        },
        {
          "duration": 0.16351640625001096,
          "durationTicks": 90,
          "midi": 74,
          "name": "D5",
          "ticks": 78154,
          "time": 141.99401348958332,
          "velocity": 0.937007874015748
        },
        {
          "duration": 0.1526153125000178,
          "durationTicks": 84,
          "midi": 70,
          "name": "A#4",
          "ticks": 78240,
          "time": 142.1502625,
          "velocity": 0.7637795275590551
        },
        {
          "duration": 0.1526153124999894,
          "durationTicks": 84,
          "midi": 74,
          "name": "D5",
          "ticks": 78248,
          "time": 142.16479729166667,
          "velocity": 0.8582677165354331
        },
        {
          "duration": 0.29796322916666895,
          "durationTicks": 164,
          "midi": 79,
          "name": "G5",
          "ticks": 78248,
          "time": 142.16479729166667,
          "velocity": 0.8582677165354331
        },
        {
          "duration": 0.2543588541666679,
          "durationTicks": 140,
          "midi": 72,
          "name": "C5",
          "ticks": 78336,
          "time": 142.32468,
          "velocity": 0.9133858267716536
        },
        {
          "duration": 0.48691552083334955,
          "durationTicks": 268,
          "midi": 64,
          "name": "E4",
          "ticks": 78342,
          "time": 142.33558109375,
          "velocity": 0.952755905511811
        },
        {
          "duration": 0.1526153125000178,
          "durationTicks": 84,
          "midi": 72,
          "name": "C5",
          "ticks": 78526,
          "time": 142.66988130208333,
          "velocity": 0.952755905511811
        },
        {
          "duration": 0.09447614583336872,
          "durationTicks": 52,
          "midi": 67,
          "name": "G4",
          "ticks": 78532,
          "time": 142.68078239583332,
          "velocity": 0.6141732283464567
        },
        {
          "duration": 0.14898161458333448,
          "durationTicks": 82,
          "midi": 76,
          "name": "E5",
          "ticks": 78534,
          "time": 142.68441609375,
          "velocity": 0.9763779527559056
        },
        {
          "duration": 0.312498020833317,
          "durationTicks": 172,
          "midi": 67,
          "name": "G4",
          "ticks": 78624,
          "time": 142.8479325,
          "velocity": 0.8976377952755905
        },
        {
          "duration": 0.312498020833317,
          "durationTicks": 172,
          "midi": 76,
          "name": "E5",
          "ticks": 78624,
          "time": 142.8479325,
          "velocity": 0.8976377952755905
        },
        {
          "duration": 0.27979473958330914,
          "durationTicks": 154,
          "midi": 64,
          "name": "E4",
          "ticks": 78632,
          "time": 142.8624672916667,
          "velocity": 0.8976377952755905
        },
        {
          "duration": 0.26525994791663265,
          "durationTicks": 146,
          "midi": 72,
          "name": "C5",
          "ticks": 78638,
          "time": 142.87336838541668,
          "velocity": 0.889763779527559
        },
        {
          "duration": 0.10901093750001678,
          "durationTicks": 60,
          "midi": 64,
          "name": "E4",
          "ticks": 78816,
          "time": 143.1967675,
          "velocity": 0.8582677165354331
        },
        {
          "duration": 0.07994135416669224,
          "durationTicks": 44,
          "midi": 72,
          "name": "C5",
          "ticks": 78816,
          "time": 143.1967675,
          "velocity": 0.7952755905511811
        },
        {
          "duration": 0.14534791666667957,
          "durationTicks": 80,
          "midi": 67,
          "name": "G4",
          "ticks": 78904,
          "time": 143.35665020833332,
          "velocity": 0.9212598425196851
        },
        {
          "duration": 0.12354572916666484,
          "durationTicks": 68,
          "midi": 72,
          "name": "C5",
          "ticks": 78924,
          "time": 143.3929871875,
          "velocity": 0.9133858267716536
        },
        {
          "duration": 0.1380805208333129,
          "durationTicks": 76,
          "midi": 76,
          "name": "E5",
          "ticks": 78924,
          "time": 143.3929871875,
          "velocity": 0.937007874015748
        },
        {
          "duration": 0.12354572916666484,
          "durationTicks": 68,
          "midi": 67,
          "name": "G4",
          "ticks": 79008,
          "time": 143.5456025,
          "velocity": 0.8740157480314961
        },
        {
          "duration": 0.1526153124999894,
          "durationTicks": 84,
          "midi": 72,
          "name": "C5",
          "ticks": 79008,
          "time": 143.5456025,
          "velocity": 0.7637795275590551
        },
        {
          "duration": 0.13808052083334132,
          "durationTicks": 76,
          "midi": 76,
          "name": "E5",
          "ticks": 79008,
          "time": 143.5456025,
          "velocity": 0.8582677165354331
        },
        {
          "duration": 0.28342843749999247,
          "durationTicks": 156,
          "midi": 72,
          "name": "C5",
          "ticks": 79104,
          "time": 143.72002,
          "velocity": 0.7637795275590551
        },
        {
          "duration": 0.28342843749999247,
          "durationTicks": 156,
          "midi": 76,
          "name": "E5",
          "ticks": 79104,
          "time": 143.72002,
          "velocity": 0.8582677165354331
        },
        {
          "duration": 0.312498020833317,
          "durationTicks": 172,
          "midi": 64,
          "name": "E4",
          "ticks": 79112,
          "time": 143.73455479166668,
          "velocity": 0.952755905511811
        },
        {
          "duration": 0.13808052083334132,
          "durationTicks": 76,
          "midi": 72,
          "name": "C5",
          "ticks": 79292,
          "time": 144.06158760416668,
          "velocity": 0.9448818897637795
        },
        {
          "duration": 0.10901093749998836,
          "durationTicks": 60,
          "midi": 67,
          "name": "G4",
          "ticks": 79304,
          "time": 144.0833897916667,
          "velocity": 0.6220472440944882
        },
        {
          "duration": 0.10901093749998836,
          "durationTicks": 60,
          "midi": 76,
          "name": "E5",
          "ticks": 79304,
          "time": 144.0833897916667,
          "velocity": 0.9763779527559056
        },
        {
          "duration": 0.31249802083334544,
          "durationTicks": 172,
          "midi": 64,
          "name": "E4",
          "ticks": 79392,
          "time": 144.2432725,
          "velocity": 0.7637795275590551
        },
        {
          "duration": 0.31613171875000035,
          "durationTicks": 174,
          "midi": 67,
          "name": "G4",
          "ticks": 79392,
          "time": 144.2432725,
          "velocity": 0.8976377952755905
        },
        {
          "duration": 0.31249802083334544,
          "durationTicks": 172,
          "midi": 72,
          "name": "C5",
          "ticks": 79392,
          "time": 144.2432725,
          "velocity": 0.8661417322834646
        },
        {
          "duration": 0.2979632291666974,
          "durationTicks": 164,
          "midi": 76,
          "name": "E5",
          "ticks": 79392,
          "time": 144.2432725,
          "velocity": 0.8976377952755905
        },
        {
          "duration": 0.10901093750001678,
          "durationTicks": 60,
          "midi": 64,
          "name": "E4",
          "ticks": 79584,
          "time": 144.5921075,
          "velocity": 0.8582677165354331
        },
        {
          "duration": 0.12354572916666484,
          "durationTicks": 68,
          "midi": 72,
          "name": "C5",
          "ticks": 79584,
          "time": 144.5921075,
          "velocity": 0.8503937007874016
        },
        {
          "duration": 0.27979473958330914,
          "durationTicks": 154,
          "midi": 64,
          "name": "E4",
          "ticks": 79682,
          "time": 144.77015869791668,
          "velocity": 0.952755905511811
        },
        {
          "duration": 0.29796322916664053,
          "durationTicks": 164,
          "midi": 72,
          "name": "C5",
          "ticks": 79688,
          "time": 144.78105979166668,
          "velocity": 0.9291338582677166
        },
        {
          "duration": 0.29796322916666895,
          "durationTicks": 164,
          "midi": 67,
          "name": "G4",
          "ticks": 79690,
          "time": 144.78469348958333,
          "velocity": 0.937007874015748
        },
        {
          "duration": 0.29796322916666895,
          "durationTicks": 164,
          "midi": 76,
          "name": "E5",
          "ticks": 79690,
          "time": 144.78469348958333,
          "velocity": 0.937007874015748
        },
        {
          "duration": 0.16715010416666587,
          "durationTicks": 92,
          "midi": 72,
          "name": "C5",
          "ticks": 79872,
          "time": 145.11536,
          "velocity": 0.7401574803149606
        },
        {
          "duration": 0.16715010416666587,
          "durationTicks": 92,
          "midi": 75,
          "name": "D#5",
          "ticks": 79872,
          "time": 145.11536,
          "velocity": 0.7322834645669292
        },
        {
          "duration": 0.16715010416666587,
          "durationTicks": 92,
          "midi": 79,
          "name": "G5",
          "ticks": 79872,
          "time": 145.11536,
          "velocity": 0.7401574803149606
        },
        {
          "duration": 0.16715010416666587,
          "durationTicks": 92,
          "midi": 84,
          "name": "C6",
          "ticks": 79872,
          "time": 145.11536,
          "velocity": 0.8031496062992126
        },
        {
          "duration": 0.1526153124999894,
          "durationTicks": 84,
          "midi": 75,
          "name": "D#5",
          "ticks": 79968,
          "time": 145.2897775,
          "velocity": 0.6062992125984252
        },
        {
          "duration": 0.1380805208333129,
          "durationTicks": 76,
          "midi": 79,
          "name": "G5",
          "ticks": 79968,
          "time": 145.2897775,
          "velocity": 0.7007874015748031
        },
        {
          "duration": 0.16715010416666587,
          "durationTicks": 92,
          "midi": 84,
          "name": "C6",
          "ticks": 79968,
          "time": 145.2897775,
          "velocity": 0.7244094488188977
        },
        {
          "duration": 0.1671501041666943,
          "durationTicks": 92,
          "midi": 72,
          "name": "C5",
          "ticks": 80064,
          "time": 145.464195,
          "velocity": 0.6456692913385826
        },
        {
          "duration": 0.1671501041666943,
          "durationTicks": 92,
          "midi": 75,
          "name": "D#5",
          "ticks": 80064,
          "time": 145.464195,
          "velocity": 0.7480314960629921
        },
        {
          "duration": 0.1671501041666943,
          "durationTicks": 92,
          "midi": 79,
          "name": "G5",
          "ticks": 80064,
          "time": 145.464195,
          "velocity": 0.7795275590551181
        },
        {
          "duration": 0.1671501041666943,
          "durationTicks": 92,
          "midi": 84,
          "name": "C6",
          "ticks": 80064,
          "time": 145.464195,
          "velocity": 0.84251968503937
        },
        {
          "duration": 0.13808052083334132,
          "durationTicks": 76,
          "midi": 75,
          "name": "D#5",
          "ticks": 80160,
          "time": 145.6386125,
          "velocity": 0.8267716535433071
        },
        {
          "duration": 0.16715010416666587,
          "durationTicks": 92,
          "midi": 79,
          "name": "G5",
          "ticks": 80172,
          "time": 145.6604146875,
          "velocity": 0.8582677165354331
        },
        {
          "duration": 0.16715010416666587,
          "durationTicks": 92,
          "midi": 84,
          "name": "C6",
          "ticks": 80172,
          "time": 145.6604146875,
          "velocity": 0.5354330708661418
        },
        {
          "duration": 0.16715010416666587,
          "durationTicks": 92,
          "midi": 72,
          "name": "C5",
          "ticks": 80256,
          "time": 145.81303,
          "velocity": 0.5433070866141733
        },
        {
          "duration": 0.12717942708331975,
          "durationTicks": 70,
          "midi": 75,
          "name": "D#5",
          "ticks": 80256,
          "time": 145.81303,
          "velocity": 0.8582677165354331
        },
        {
          "duration": 0.12354572916666484,
          "durationTicks": 68,
          "midi": 79,
          "name": "G5",
          "ticks": 80268,
          "time": 145.8348321875,
          "velocity": 0.8346456692913385
        },
        {
          "duration": 0.1380805208333129,
          "durationTicks": 76,
          "midi": 84,
          "name": "C6",
          "ticks": 80268,
          "time": 145.8348321875,
          "velocity": 0.8818897637795275
        },
        {
          "duration": 0.1526153124999894,
          "durationTicks": 84,
          "midi": 75,
          "name": "D#5",
          "ticks": 80352,
          "time": 145.9874475,
          "velocity": 0.6850393700787402
        },
        {
          "duration": 0.13808052083334132,
          "durationTicks": 76,
          "midi": 79,
          "name": "G5",
          "ticks": 80352,
          "time": 145.9874475,
          "velocity": 0.7795275590551181
        },
        {
          "duration": 0.16715010416666587,
          "durationTicks": 92,
          "midi": 84,
          "name": "C6",
          "ticks": 80352,
          "time": 145.9874475,
          "velocity": 0.8031496062992126
        },
        {
          "duration": 0.16715010416666587,
          "durationTicks": 92,
          "midi": 72,
          "name": "C5",
          "ticks": 80448,
          "time": 146.161865,
          "velocity": 0.7086614173228346
        },
        {
          "duration": 0.16715010416666587,
          "durationTicks": 92,
          "midi": 75,
          "name": "D#5",
          "ticks": 80448,
          "time": 146.161865,
          "velocity": 0.8110236220472441
        },
        {
          "duration": 0.16715010416666587,
          "durationTicks": 92,
          "midi": 79,
          "name": "G5",
          "ticks": 80448,
          "time": 146.161865,
          "velocity": 0.84251968503937
        },
        {
          "duration": 0.16715010416666587,
          "durationTicks": 92,
          "midi": 84,
          "name": "C6",
          "ticks": 80448,
          "time": 146.161865,
          "velocity": 0.905511811023622
        },
        {
          "duration": 0.036336979166662786,
          "durationTicks": 20,
          "midi": 75,
          "name": "D#5",
          "ticks": 80544,
          "time": 146.3362825,
          "velocity": 0.889763779527559
        },
        {
          "duration": 0.14534791666667957,
          "durationTicks": 80,
          "midi": 79,
          "name": "G5",
          "ticks": 80556,
          "time": 146.3580846875,
          "velocity": 0.9212598425196851
        },
        {
          "duration": 0.14534791666667957,
          "durationTicks": 80,
          "midi": 84,
          "name": "C6",
          "ticks": 80556,
          "time": 146.3580846875,
          "velocity": 0.5984251968503937
        },
        {
          "duration": 0.014534791666648061,
          "durationTicks": 8,
          "midi": 79,
          "name": "G5",
          "ticks": 80640,
          "time": 146.5107,
          "velocity": 0.8582677165354331
        },
        {
          "duration": 0.014534791666648061,
          "durationTicks": 8,
          "midi": 84,
          "name": "C6",
          "ticks": 80640,
          "time": 146.5107,
          "velocity": 0.9212598425196851
        },
        {
          "duration": 0.16715010416666587,
          "durationTicks": 92,
          "midi": 72,
          "name": "C5",
          "ticks": 80648,
          "time": 146.52523479166666,
          "velocity": 0.8582677165354331
        },
        {
          "duration": 0.14171421874999623,
          "durationTicks": 78,
          "midi": 75,
          "name": "D#5",
          "ticks": 80654,
          "time": 146.53613588541668,
          "velocity": 0.8503937007874016
        },
        {
          "duration": 0.018168489583331393,
          "durationTicks": 10,
          "midi": 75,
          "name": "D#5",
          "ticks": 80736,
          "time": 146.6851175,
          "velocity": 0.7244094488188977
        },
        {
          "duration": 0.13808052083334132,
          "durationTicks": 76,
          "midi": 79,
          "name": "G5",
          "ticks": 80736,
          "time": 146.6851175,
          "velocity": 0.8188976377952756
        },
        {
          "duration": 0.1671501041666943,
          "durationTicks": 92,
          "midi": 84,
          "name": "C6",
          "ticks": 80736,
          "time": 146.6851175,
          "velocity": 0.84251968503937
        },
        {
          "duration": 0.1671501041666943,
          "durationTicks": 92,
          "midi": 72,
          "name": "C5",
          "ticks": 80832,
          "time": 146.859535,
          "velocity": 0.7244094488188977
        },
        {
          "duration": 0.1671501041666943,
          "durationTicks": 92,
          "midi": 75,
          "name": "D#5",
          "ticks": 80832,
          "time": 146.859535,
          "velocity": 0.8267716535433071
        },
        {
          "duration": 0.1671501041666943,
          "durationTicks": 92,
          "midi": 79,
          "name": "G5",
          "ticks": 80832,
          "time": 146.859535,
          "velocity": 0.8582677165354331
        },
        {
          "duration": 0.1671501041666943,
          "durationTicks": 92,
          "midi": 84,
          "name": "C6",
          "ticks": 80832,
          "time": 146.859535,
          "velocity": 0.9212598425196851
        },
        {
          "duration": 0.13808052083334132,
          "durationTicks": 76,
          "midi": 75,
          "name": "D#5",
          "ticks": 80928,
          "time": 147.0339525,
          "velocity": 0.905511811023622
        },
        {
          "duration": 0.16715010416666587,
          "durationTicks": 92,
          "midi": 79,
          "name": "G5",
          "ticks": 80940,
          "time": 147.0557546875,
          "velocity": 0.937007874015748
        },
        {
          "duration": 0.16715010416666587,
          "durationTicks": 92,
          "midi": 84,
          "name": "C6",
          "ticks": 80940,
          "time": 147.0557546875,
          "velocity": 0.6141732283464567
        },
        {
          "duration": 0.16715010416666587,
          "durationTicks": 92,
          "midi": 72,
          "name": "C5",
          "ticks": 81024,
          "time": 147.20837,
          "velocity": 0.5826771653543307
        },
        {
          "duration": 0.12717942708331975,
          "durationTicks": 70,
          "midi": 75,
          "name": "D#5",
          "ticks": 81024,
          "time": 147.20837,
          "velocity": 0.8976377952755905
        },
        {
          "duration": 0.12354572916669326,
          "durationTicks": 68,
          "midi": 79,
          "name": "G5",
          "ticks": 81036,
          "time": 147.2301721875,
          "velocity": 0.8740157480314961
        },
        {
          "duration": 0.13808052083334132,
          "durationTicks": 76,
          "midi": 84,
          "name": "C6",
          "ticks": 81036,
          "time": 147.2301721875,
          "velocity": 0.9212598425196851
        },
        {
          "duration": 0.1526153124999894,
          "durationTicks": 84,
          "midi": 75,
          "name": "D#5",
          "ticks": 81120,
          "time": 147.3827875,
          "velocity": 0.7244094488188977
        },
        {
          "duration": 0.1380805208333129,
          "durationTicks": 76,
          "midi": 79,
          "name": "G5",
          "ticks": 81120,
          "time": 147.3827875,
          "velocity": 0.8188976377952756
        },
        {
          "duration": 0.16715010416666587,
          "durationTicks": 92,
          "midi": 84,
          "name": "C6",
          "ticks": 81120,
          "time": 147.3827875,
          "velocity": 0.84251968503937
        },
        {
          "duration": 0.16715010416666587,
          "durationTicks": 92,
          "midi": 72,
          "name": "C5",
          "ticks": 81216,
          "time": 147.557205,
          "velocity": 0.7086614173228346
        },
        {
          "duration": 0.16715010416666587,
          "durationTicks": 92,
          "midi": 75,
          "name": "D#5",
          "ticks": 81216,
          "time": 147.557205,
          "velocity": 0.8110236220472441
        },
        {
          "duration": 0.16715010416666587,
          "durationTicks": 92,
          "midi": 79,
          "name": "G5",
          "ticks": 81216,
          "time": 147.557205,
          "velocity": 0.84251968503937
        },
        {
          "duration": 0.16715010416666587,
          "durationTicks": 92,
          "midi": 84,
          "name": "C6",
          "ticks": 81216,
          "time": 147.557205,
          "velocity": 0.905511811023622
        },
        {
          "duration": 0.036336979166662786,
          "durationTicks": 20,
          "midi": 75,
          "name": "D#5",
          "ticks": 81312,
          "time": 147.73162250000001,
          "velocity": 0.889763779527559
        },
        {
          "duration": 0.10901093749998836,
          "durationTicks": 60,
          "midi": 79,
          "name": "G5",
          "ticks": 81324,
          "time": 147.7534246875,
          "velocity": 0.9212598425196851
        },
        {
          "duration": 0.0944761458333403,
          "durationTicks": 52,
          "midi": 84,
          "name": "C6",
          "ticks": 81324,
          "time": 147.7534246875,
          "velocity": 0.5984251968503937
        },
        {
          "duration": 0.1671501041666943,
          "durationTicks": 92,
          "midi": 79,
          "name": "G5",
          "ticks": 81408,
          "time": 147.90604,
          "velocity": 0.7795275590551181
        },
        {
          "duration": 0.1671501041666943,
          "durationTicks": 92,
          "midi": 82,
          "name": "A#5",
          "ticks": 81408,
          "time": 147.90604,
          "velocity": 0.84251968503937
        },
        {
          "duration": 0.16715010416666587,
          "durationTicks": 92,
          "midi": 70,
          "name": "A#4",
          "ticks": 81416,
          "time": 147.92057479166667,
          "velocity": 0.7795275590551181
        },
        {
          "duration": 0.14171421874999623,
          "durationTicks": 78,
          "midi": 74,
          "name": "D5",
          "ticks": 81422,
          "time": 147.9314758854167,
          "velocity": 0.7716535433070866
        },
        {
          "duration": 0.018168489583331393,
          "durationTicks": 10,
          "midi": 74,
          "name": "D5",
          "ticks": 81504,
          "time": 148.0804575,
          "velocity": 0.6456692913385826
        },
        {
          "duration": 0.13808052083334132,
          "durationTicks": 76,
          "midi": 79,
          "name": "G5",
          "ticks": 81504,
          "time": 148.0804575,
          "velocity": 0.7401574803149606
        },
        {
          "duration": 0.1671501041666943,
          "durationTicks": 92,
          "midi": 82,
          "name": "A#5",
          "ticks": 81504,
          "time": 148.0804575,
          "velocity": 0.7637795275590551
        },
        {
          "duration": 0.16715010416666587,
          "durationTicks": 92,
          "midi": 70,
          "name": "A#4",
          "ticks": 81600,
          "time": 148.254875,
          "velocity": 0.6456692913385826
        },
        {
          "duration": 0.16715010416666587,
          "durationTicks": 92,
          "midi": 74,
          "name": "D5",
          "ticks": 81600,
          "time": 148.254875,
          "velocity": 0.7480314960629921
        },
        {
          "duration": 0.16715010416666587,
          "durationTicks": 92,
          "midi": 79,
          "name": "G5",
          "ticks": 81600,
          "time": 148.254875,
          "velocity": 0.7795275590551181
        },
        {
          "duration": 0.16715010416666587,
          "durationTicks": 92,
          "midi": 82,
          "name": "A#5",
          "ticks": 81600,
          "time": 148.254875,
          "velocity": 0.84251968503937
        },
        {
          "duration": 0.1380805208333129,
          "durationTicks": 76,
          "midi": 74,
          "name": "D5",
          "ticks": 81696,
          "time": 148.4292925,
          "velocity": 0.8267716535433071
        },
        {
          "duration": 0.1671501041666943,
          "durationTicks": 92,
          "midi": 79,
          "name": "G5",
          "ticks": 81708,
          "time": 148.4510946875,
          "velocity": 0.8582677165354331
        },
        {
          "duration": 0.1671501041666943,
          "durationTicks": 92,
          "midi": 82,
          "name": "A#5",
          "ticks": 81708,
          "time": 148.4510946875,
          "velocity": 0.5354330708661418
        },
        {
          "duration": 0.16715010416666587,
          "durationTicks": 92,
          "midi": 70,
          "name": "A#4",
          "ticks": 81792,
          "time": 148.60371,
          "velocity": 0.5039370078740157
        },
        {
          "duration": 0.12717942708331975,
          "durationTicks": 70,
          "midi": 74,
          "name": "D5",
          "ticks": 81792,
          "time": 148.60371,
          "velocity": 0.8188976377952756
        },
        {
          "duration": 0.12354572916669326,
          "durationTicks": 68,
          "midi": 79,
          "name": "G5",
          "ticks": 81804,
          "time": 148.6255121875,
          "velocity": 0.7952755905511811
        },
        {
          "duration": 0.13808052083334132,
          "durationTicks": 76,
          "midi": 82,
          "name": "A#5",
          "ticks": 81804,
          "time": 148.6255121875,
          "velocity": 0.84251968503937
        },
        {
          "duration": 0.1526153124999894,
          "durationTicks": 84,
          "midi": 74,
          "name": "D5",
          "ticks": 81888,
          "time": 148.7781275,
          "velocity": 0.6850393700787402
        },
        {
          "duration": 0.1380805208333129,
          "durationTicks": 76,
          "midi": 79,
          "name": "G5",
          "ticks": 81888,
          "time": 148.7781275,
          "velocity": 0.7795275590551181
        },
        {
          "duration": 0.16715010416666587,
          "durationTicks": 92,
          "midi": 82,
          "name": "A#5",
          "ticks": 81888,
          "time": 148.7781275,
          "velocity": 0.8031496062992126
        },
        {
          "duration": 0.16715010416666587,
          "durationTicks": 92,
          "midi": 70,
          "name": "A#4",
          "ticks": 81984,
          "time": 148.95254500000001,
          "velocity": 0.7086614173228346
        },
        {
          "duration": 0.16715010416666587,
          "durationTicks": 92,
          "midi": 74,
          "name": "D5",
          "ticks": 81984,
          "time": 148.95254500000001,
          "velocity": 0.8110236220472441
        },
        {
          "duration": 0.16715010416666587,
          "durationTicks": 92,
          "midi": 79,
          "name": "G5",
          "ticks": 81984,
          "time": 148.95254500000001,
          "velocity": 0.84251968503937
        },
        {
          "duration": 0.16715010416666587,
          "durationTicks": 92,
          "midi": 82,
          "name": "A#5",
          "ticks": 81984,
          "time": 148.95254500000001,
          "velocity": 0.905511811023622
        },
        {
          "duration": 0.03633697916669121,
          "durationTicks": 20,
          "midi": 74,
          "name": "D5",
          "ticks": 82080,
          "time": 149.1269625,
          "velocity": 0.889763779527559
        },
        {
          "duration": 0.14534791666667957,
          "durationTicks": 80,
          "midi": 79,
          "name": "G5",
          "ticks": 82092,
          "time": 149.1487646875,
          "velocity": 0.9212598425196851
        },
        {
          "duration": 0.14534791666667957,
          "durationTicks": 80,
          "midi": 82,
          "name": "A#5",
          "ticks": 82092,
          "time": 149.1487646875,
          "velocity": 0.5984251968503937
        },
        {
          "duration": 0.014534791666676483,
          "durationTicks": 8,
          "midi": 79,
          "name": "G5",
          "ticks": 82176,
          "time": 149.30138,
          "velocity": 0.8582677165354331
        },
        {
          "duration": 0.014534791666676483,
          "durationTicks": 8,
          "midi": 82,
          "name": "A#5",
          "ticks": 82176,
          "time": 149.30138,
          "velocity": 0.9212598425196851
        },
        {
          "duration": 0.16715010416666587,
          "durationTicks": 92,
          "midi": 70,
          "name": "A#4",
          "ticks": 82184,
          "time": 149.31591479166667,
          "velocity": 0.8582677165354331
        },
        {
          "duration": 0.14171421875002466,
          "durationTicks": 78,
          "midi": 74,
          "name": "D5",
          "ticks": 82190,
          "time": 149.32681588541666,
          "velocity": 0.8503937007874016
        },
        {
          "duration": 0.018168489583331393,
          "durationTicks": 10,
          "midi": 74,
          "name": "D5",
          "ticks": 82272,
          "time": 149.4757975,
          "velocity": 0.7244094488188977
        },
        {
          "duration": 0.13808052083334132,
          "durationTicks": 76,
          "midi": 79,
          "name": "G5",
          "ticks": 82272,
          "time": 149.4757975,
          "velocity": 0.8188976377952756
        },
        {
          "duration": 0.16715010416666587,
          "durationTicks": 92,
          "midi": 82,
          "name": "A#5",
          "ticks": 82272,
          "time": 149.4757975,
          "velocity": 0.84251968503937
        },
        {
          "duration": 0.16715010416666587,
          "durationTicks": 92,
          "midi": 70,
          "name": "A#4",
          "ticks": 82368,
          "time": 149.650215,
          "velocity": 0.7244094488188977
        },
        {
          "duration": 0.16715010416666587,
          "durationTicks": 92,
          "midi": 74,
          "name": "D5",
          "ticks": 82368,
          "time": 149.650215,
          "velocity": 0.8267716535433071
        },
        {
          "duration": 0.16715010416666587,
          "durationTicks": 92,
          "midi": 79,
          "name": "G5",
          "ticks": 82368,
          "time": 149.650215,
          "velocity": 0.8582677165354331
        },
        {
          "duration": 0.16715010416666587,
          "durationTicks": 92,
          "midi": 82,
          "name": "A#5",
          "ticks": 82368,
          "time": 149.650215,
          "velocity": 0.9212598425196851
        },
        {
          "duration": 0.1380805208333129,
          "durationTicks": 76,
          "midi": 74,
          "name": "D5",
          "ticks": 82464,
          "time": 149.8246325,
          "velocity": 0.905511811023622
        },
        {
          "duration": 0.1671501041666943,
          "durationTicks": 92,
          "midi": 79,
          "name": "G5",
          "ticks": 82476,
          "time": 149.8464346875,
          "velocity": 0.937007874015748
        },
        {
          "duration": 0.1671501041666943,
          "durationTicks": 92,
          "midi": 82,
          "name": "A#5",
          "ticks": 82476,
          "time": 149.8464346875,
          "velocity": 0.6141732283464567
        },
        {
          "duration": 0.16715010416666587,
          "durationTicks": 92,
          "midi": 70,
          "name": "A#4",
          "ticks": 82560,
          "time": 149.99905,
          "velocity": 0.5826771653543307
        },
        {
          "duration": 0.12717942708331975,
          "durationTicks": 70,
          "midi": 74,
          "name": "D5",
          "ticks": 82560,
          "time": 149.99905,
          "velocity": 0.8976377952755905
        },
        {
          "duration": 0.12354572916666484,
          "durationTicks": 68,
          "midi": 79,
          "name": "G5",
          "ticks": 82572,
          "time": 150.0208521875,
          "velocity": 0.8740157480314961
        },
        {
          "duration": 0.13808052083334132,
          "durationTicks": 76,
          "midi": 82,
          "name": "A#5",
          "ticks": 82572,
          "time": 150.0208521875,
          "velocity": 0.9212598425196851
        },
        {
          "duration": 0.1526153124999894,
          "durationTicks": 84,
          "midi": 74,
          "name": "D5",
          "ticks": 82656,
          "time": 150.17346750000002,
          "velocity": 0.7244094488188977
        },
        {
          "duration": 0.1380805208333129,
          "durationTicks": 76,
          "midi": 79,
          "name": "G5",
          "ticks": 82656,
          "time": 150.17346750000002,
          "velocity": 0.8188976377952756
        },
        {
          "duration": 0.16715010416666587,
          "durationTicks": 92,
          "midi": 82,
          "name": "A#5",
          "ticks": 82656,
          "time": 150.17346750000002,
          "velocity": 0.84251968503937
        },
        {
          "duration": 0.1671501041666943,
          "durationTicks": 92,
          "midi": 70,
          "name": "A#4",
          "ticks": 82752,
          "time": 150.347885,
          "velocity": 0.7086614173228346
        },
        {
          "duration": 0.1671501041666943,
          "durationTicks": 92,
          "midi": 74,
          "name": "D5",
          "ticks": 82752,
          "time": 150.347885,
          "velocity": 0.8110236220472441
        },
        {
          "duration": 0.1671501041666943,
          "durationTicks": 92,
          "midi": 79,
          "name": "G5",
          "ticks": 82752,
          "time": 150.347885,
          "velocity": 0.84251968503937
        },
        {
          "duration": 0.1671501041666943,
          "durationTicks": 92,
          "midi": 82,
          "name": "A#5",
          "ticks": 82752,
          "time": 150.347885,
          "velocity": 0.905511811023622
        },
        {
          "duration": 0.03633697916669121,
          "durationTicks": 20,
          "midi": 74,
          "name": "D5",
          "ticks": 82848,
          "time": 150.5223025,
          "velocity": 0.889763779527559
        },
        {
          "duration": 0.10901093749998836,
          "durationTicks": 60,
          "midi": 79,
          "name": "G5",
          "ticks": 82860,
          "time": 150.5441046875,
          "velocity": 0.9212598425196851
        },
        {
          "duration": 0.09447614583331188,
          "durationTicks": 52,
          "midi": 82,
          "name": "A#5",
          "ticks": 82860,
          "time": 150.5441046875,
          "velocity": 0.5984251968503937
        },
        {
          "duration": 0.16715010416666587,
          "durationTicks": 92,
          "midi": 76,
          "name": "E5",
          "ticks": 82944,
          "time": 150.69672,
          "velocity": 0.8188976377952756
        },
        {
          "duration": 0.16715010416666587,
          "durationTicks": 92,
          "midi": 81,
          "name": "A5",
          "ticks": 82944,
          "time": 150.69672,
          "velocity": 0.8818897637795275
        },
        {
          "duration": 0.16715010416666587,
          "durationTicks": 92,
          "midi": 67,
          "name": "G4",
          "ticks": 82952,
          "time": 150.71125479166668,
          "velocity": 0.8188976377952756
        },
        {
          "duration": 0.14171421874999623,
          "durationTicks": 78,
          "midi": 73,
          "name": "C#5",
          "ticks": 82958,
          "time": 150.72215588541667,
          "velocity": 0.8110236220472441
        },
        {
          "duration": 0.018168489583331393,
          "durationTicks": 10,
          "midi": 73,
          "name": "C#5",
          "ticks": 83040,
          "time": 150.8711375,
          "velocity": 0.6850393700787402
        },
        {
          "duration": 0.1380805208333129,
          "durationTicks": 76,
          "midi": 76,
          "name": "E5",
          "ticks": 83040,
          "time": 150.8711375,
          "velocity": 0.7795275590551181
        },
        {
          "duration": 0.16715010416666587,
          "durationTicks": 92,
          "midi": 81,
          "name": "A5",
          "ticks": 83040,
          "time": 150.8711375,
          "velocity": 0.8031496062992126
        },
        {
          "duration": 0.16715010416666587,
          "durationTicks": 92,
          "midi": 67,
          "name": "G4",
          "ticks": 83136,
          "time": 151.045555,
          "velocity": 0.6850393700787402
        },
        {
          "duration": 0.16715010416666587,
          "durationTicks": 92,
          "midi": 73,
          "name": "C#5",
          "ticks": 83136,
          "time": 151.045555,
          "velocity": 0.7874015748031497
        },
        {
          "duration": 0.16715010416666587,
          "durationTicks": 92,
          "midi": 76,
          "name": "E5",
          "ticks": 83136,
          "time": 151.045555,
          "velocity": 0.8188976377952756
        },
        {
          "duration": 0.16715010416666587,
          "durationTicks": 92,
          "midi": 81,
          "name": "A5",
          "ticks": 83136,
          "time": 151.045555,
          "velocity": 0.8818897637795275
        },
        {
          "duration": 0.1380805208333129,
          "durationTicks": 76,
          "midi": 73,
          "name": "C#5",
          "ticks": 83232,
          "time": 151.2199725,
          "velocity": 0.8661417322834646
        },
        {
          "duration": 0.16715010416666587,
          "durationTicks": 92,
          "midi": 76,
          "name": "E5",
          "ticks": 83244,
          "time": 151.2417746875,
          "velocity": 0.8976377952755905
        },
        {
          "duration": 0.16715010416666587,
          "durationTicks": 92,
          "midi": 81,
          "name": "A5",
          "ticks": 83244,
          "time": 151.2417746875,
          "velocity": 0.5748031496062992
        },
        {
          "duration": 0.16715010416666587,
          "durationTicks": 92,
          "midi": 67,
          "name": "G4",
          "ticks": 83328,
          "time": 151.39439000000002,
          "velocity": 0.5433070866141733
        },
        {
          "duration": 0.12717942708331975,
          "durationTicks": 70,
          "midi": 73,
          "name": "C#5",
          "ticks": 83328,
          "time": 151.39439000000002,
          "velocity": 0.8582677165354331
        },
        {
          "duration": 0.12354572916666484,
          "durationTicks": 68,
          "midi": 76,
          "name": "E5",
          "ticks": 83340,
          "time": 151.4161921875,
          "velocity": 0.8346456692913385
        },
        {
          "duration": 0.13808052083334132,
          "durationTicks": 76,
          "midi": 81,
          "name": "A5",
          "ticks": 83340,
          "time": 151.4161921875,
          "velocity": 0.8818897637795275
        },
        {
          "duration": 0.1526153125000178,
          "durationTicks": 84,
          "midi": 73,
          "name": "C#5",
          "ticks": 83424,
          "time": 151.5688075,
          "velocity": 0.6850393700787402
        },
        {
          "duration": 0.13808052083334132,
          "durationTicks": 76,
          "midi": 76,
          "name": "E5",
          "ticks": 83424,
          "time": 151.5688075,
          "velocity": 0.7795275590551181
        },
        {
          "duration": 0.1671501041666943,
          "durationTicks": 92,
          "midi": 81,
          "name": "A5",
          "ticks": 83424,
          "time": 151.5688075,
          "velocity": 0.8031496062992126
        },
        {
          "duration": 0.1671501041666943,
          "durationTicks": 92,
          "midi": 67,
          "name": "G4",
          "ticks": 83520,
          "time": 151.743225,
          "velocity": 0.7086614173228346
        },
        {
          "duration": 0.1671501041666943,
          "durationTicks": 92,
          "midi": 73,
          "name": "C#5",
          "ticks": 83520,
          "time": 151.743225,
          "velocity": 0.8110236220472441
        },
        {
          "duration": 0.1671501041666943,
          "durationTicks": 92,
          "midi": 76,
          "name": "E5",
          "ticks": 83520,
          "time": 151.743225,
          "velocity": 0.84251968503937
        },
        {
          "duration": 0.1671501041666943,
          "durationTicks": 92,
          "midi": 81,
          "name": "A5",
          "ticks": 83520,
          "time": 151.743225,
          "velocity": 0.905511811023622
        },
        {
          "duration": 0.036336979166662786,
          "durationTicks": 20,
          "midi": 73,
          "name": "C#5",
          "ticks": 83616,
          "time": 151.9176425,
          "velocity": 0.889763779527559
        },
        {
          "duration": 0.14534791666665114,
          "durationTicks": 80,
          "midi": 76,
          "name": "E5",
          "ticks": 83628,
          "time": 151.9394446875,
          "velocity": 0.9212598425196851
        },
        {
          "duration": 0.14534791666665114,
          "durationTicks": 80,
          "midi": 81,
          "name": "A5",
          "ticks": 83628,
          "time": 151.9394446875,
          "velocity": 0.5984251968503937
        },
        {
          "duration": 0.014534791666676483,
          "durationTicks": 8,
          "midi": 76,
          "name": "E5",
          "ticks": 83712,
          "time": 152.09206,
          "velocity": 0.8582677165354331
        },
        {
          "duration": 0.014534791666676483,
          "durationTicks": 8,
          "midi": 81,
          "name": "A5",
          "ticks": 83712,
          "time": 152.09206,
          "velocity": 0.9212598425196851
        },
        {
          "duration": 0.16715010416663745,
          "durationTicks": 92,
          "midi": 67,
          "name": "G4",
          "ticks": 83720,
          "time": 152.10659479166668,
          "velocity": 0.8582677165354331
        },
        {
          "duration": 0.14171421874999623,
          "durationTicks": 78,
          "midi": 73,
          "name": "C#5",
          "ticks": 83726,
          "time": 152.11749588541667,
          "velocity": 0.8503937007874016
        },
        {
          "duration": 0.018168489583331393,
          "durationTicks": 10,
          "midi": 73,
          "name": "C#5",
          "ticks": 83808,
          "time": 152.2664775,
          "velocity": 0.7244094488188977
        },
        {
          "duration": 0.1380805208333129,
          "durationTicks": 76,
          "midi": 76,
          "name": "E5",
          "ticks": 83808,
          "time": 152.2664775,
          "velocity": 0.8188976377952756
        },
        {
          "duration": 0.16715010416666587,
          "durationTicks": 92,
          "midi": 81,
          "name": "A5",
          "ticks": 83808,
          "time": 152.2664775,
          "velocity": 0.84251968503937
        },
        {
          "duration": 0.16715010416666587,
          "durationTicks": 92,
          "midi": 67,
          "name": "G4",
          "ticks": 83904,
          "time": 152.440895,
          "velocity": 0.7244094488188977
        },
        {
          "duration": 0.16715010416666587,
          "durationTicks": 92,
          "midi": 73,
          "name": "C#5",
          "ticks": 83904,
          "time": 152.440895,
          "velocity": 0.8267716535433071
        },
        {
          "duration": 0.16715010416666587,
          "durationTicks": 92,
          "midi": 76,
          "name": "E5",
          "ticks": 83904,
          "time": 152.440895,
          "velocity": 0.8582677165354331
        },
        {
          "duration": 0.16715010416666587,
          "durationTicks": 92,
          "midi": 81,
          "name": "A5",
          "ticks": 83904,
          "time": 152.440895,
          "velocity": 0.9212598425196851
        },
        {
          "duration": 0.1380805208333129,
          "durationTicks": 76,
          "midi": 73,
          "name": "C#5",
          "ticks": 84000,
          "time": 152.61531250000002,
          "velocity": 0.905511811023622
        },
        {
          "duration": 0.16715010416666587,
          "durationTicks": 92,
          "midi": 76,
          "name": "E5",
          "ticks": 84012,
          "time": 152.6371146875,
          "velocity": 0.937007874015748
        },
        {
          "duration": 0.16715010416666587,
          "durationTicks": 92,
          "midi": 81,
          "name": "A5",
          "ticks": 84012,
          "time": 152.6371146875,
          "velocity": 0.6141732283464567
        },
        {
          "duration": 0.1671501041666943,
          "durationTicks": 92,
          "midi": 67,
          "name": "G4",
          "ticks": 84096,
          "time": 152.78973,
          "velocity": 0.5826771653543307
        },
        {
          "duration": 0.12717942708334817,
          "durationTicks": 70,
          "midi": 73,
          "name": "C#5",
          "ticks": 84096,
          "time": 152.78973,
          "velocity": 0.8976377952755905
        },
        {
          "duration": 0.12354572916666484,
          "durationTicks": 68,
          "midi": 76,
          "name": "E5",
          "ticks": 84108,
          "time": 152.8115321875,
          "velocity": 0.8740157480314961
        },
        {
          "duration": 0.1380805208333129,
          "durationTicks": 76,
          "midi": 81,
          "name": "A5",
          "ticks": 84108,
          "time": 152.8115321875,
          "velocity": 0.9212598425196851
        },
        {
          "duration": 0.1526153125000178,
          "durationTicks": 84,
          "midi": 73,
          "name": "C#5",
          "ticks": 84192,
          "time": 152.9641475,
          "velocity": 0.7244094488188977
        },
        {
          "duration": 0.13808052083334132,
          "durationTicks": 76,
          "midi": 76,
          "name": "E5",
          "ticks": 84192,
          "time": 152.9641475,
          "velocity": 0.8188976377952756
        },
        {
          "duration": 0.1671501041666943,
          "durationTicks": 92,
          "midi": 81,
          "name": "A5",
          "ticks": 84192,
          "time": 152.9641475,
          "velocity": 0.84251968503937
        },
        {
          "duration": 0.16715010416666587,
          "durationTicks": 92,
          "midi": 67,
          "name": "G4",
          "ticks": 84288,
          "time": 153.138565,
          "velocity": 0.7086614173228346
        },
        {
          "duration": 0.3270328124999935,
          "durationTicks": 180,
          "midi": 73,
          "name": "C#5",
          "ticks": 84288,
          "time": 153.138565,
          "velocity": 0.8110236220472441
        },
        {
          "duration": 0.34156760416667,
          "durationTicks": 188,
          "midi": 76,
          "name": "E5",
          "ticks": 84288,
          "time": 153.138565,
          "velocity": 0.84251968503937
        },
        {
          "duration": 0.29796322916666895,
          "durationTicks": 164,
          "midi": 81,
          "name": "A5",
          "ticks": 84288,
          "time": 153.138565,
          "velocity": 0.905511811023622
        },
        {
          "duration": 0.6613330208333252,
          "durationTicks": 364,
          "midi": 69,
          "name": "A4",
          "ticks": 84480,
          "time": 153.4874,
          "velocity": 0.8976377952755905
        },
        {
          "duration": 0.6613330208333252,
          "durationTicks": 364,
          "midi": 74,
          "name": "D5",
          "ticks": 84510,
          "time": 153.54190546875,
          "velocity": 0.889763779527559
        },
        {
          "duration": 0.6031938541666761,
          "durationTicks": 332,
          "midi": 78,
          "name": "F#5",
          "ticks": 84520,
          "time": 153.56007395833333,
          "velocity": 0.8976377952755905
        },
        {
          "duration": 0.5886590624999997,
          "durationTicks": 324,
          "midi": 81,
          "name": "A5",
          "ticks": 84528,
          "time": 153.57460875,
          "velocity": 0.937007874015748
        },
        {
          "duration": 0.6613330208333252,
          "durationTicks": 364,
          "midi": 69,
          "name": "A4",
          "ticks": 84864,
          "time": 154.18507,
          "velocity": 0.8976377952755905
        },
        {
          "duration": 0.6613330208333252,
          "durationTicks": 364,
          "midi": 74,
          "name": "D5",
          "ticks": 84894,
          "time": 154.23957546875,
          "velocity": 0.889763779527559
        },
        {
          "duration": 0.6031938541666477,
          "durationTicks": 332,
          "midi": 78,
          "name": "F#5",
          "ticks": 84896,
          "time": 154.24320916666667,
          "velocity": 0.8976377952755905
        },
        {
          "duration": 0.5886590624999997,
          "durationTicks": 324,
          "midi": 81,
          "name": "A5",
          "ticks": 84904,
          "time": 154.25774395833332,
          "velocity": 0.937007874015748
        },
        {
          "duration": 0.6613330208333252,
          "durationTicks": 364,
          "midi": 70,
          "name": "A#4",
          "ticks": 85250,
          "time": 154.88637369791667,
          "velocity": 0.8976377952755905
        },
        {
          "duration": 0.6613330208333252,
          "durationTicks": 364,
          "midi": 74,
          "name": "D5",
          "ticks": 85264,
          "time": 154.91180958333334,
          "velocity": 0.889763779527559
        },
        {
          "duration": 0.6031938541666477,
          "durationTicks": 332,
          "midi": 78,
          "name": "F#5",
          "ticks": 85274,
          "time": 154.92997807291667,
          "velocity": 0.8976377952755905
        },
        {
          "duration": 0.5886590624999997,
          "durationTicks": 324,
          "midi": 82,
          "name": "A#5",
          "ticks": 85274,
          "time": 154.92997807291667,
          "velocity": 0.937007874015748
        },
        {
          "duration": 0.6613330208333252,
          "durationTicks": 364,
          "midi": 69,
          "name": "A4",
          "ticks": 85638,
          "time": 155.59131109375,
          "velocity": 0.8976377952755905
        },
        {
          "duration": 0.6613330208333252,
          "durationTicks": 364,
          "midi": 74,
          "name": "D5",
          "ticks": 85644,
          "time": 155.60221218750002,
          "velocity": 0.889763779527559
        },
        {
          "duration": 0.6031938541666761,
          "durationTicks": 332,
          "midi": 78,
          "name": "F#5",
          "ticks": 85662,
          "time": 155.63491546875,
          "velocity": 0.8976377952755905
        },
        {
          "duration": 0.5886590624999997,
          "durationTicks": 324,
          "midi": 81,
          "name": "A5",
          "ticks": 85670,
          "time": 155.64945026041667,
          "velocity": 0.937007874015748
        },
        {
          "duration": 0.25435885416669635,
          "durationTicks": 140,
          "midi": 70,
          "name": "A#4",
          "ticks": 86016,
          "time": 156.27808,
          "velocity": 0.7401574803149606
        },
        {
          "duration": 0.4869155208333211,
          "durationTicks": 268,
          "midi": 67,
          "name": "G4",
          "ticks": 86022,
          "time": 156.28898109375,
          "velocity": 0.952755905511811
        },
        {
          "duration": 0.1526153124999894,
          "durationTicks": 84,
          "midi": 70,
          "name": "A#4",
          "ticks": 86206,
          "time": 156.62328130208334,
          "velocity": 0.952755905511811
        },
        {
          "duration": 0.14898161458333448,
          "durationTicks": 82,
          "midi": 74,
          "name": "D5",
          "ticks": 86214,
          "time": 156.63781609375,
          "velocity": 0.9763779527559056
        },
        {
          "duration": 0.312498020833317,
          "durationTicks": 172,
          "midi": 74,
          "name": "D5",
          "ticks": 86304,
          "time": 156.8013325,
          "velocity": 0.8976377952755905
        },
        {
          "duration": 0.312498020833317,
          "durationTicks": 172,
          "midi": 79,
          "name": "G5",
          "ticks": 86304,
          "time": 156.8013325,
          "velocity": 0.937007874015748
        },
        {
          "duration": 0.27979473958333756,
          "durationTicks": 154,
          "midi": 67,
          "name": "G4",
          "ticks": 86312,
          "time": 156.81586729166668,
          "velocity": 0.8976377952755905
        },
        {
          "duration": 0.2652599479166611,
          "durationTicks": 146,
          "midi": 70,
          "name": "A#4",
          "ticks": 86318,
          "time": 156.82676838541667,
          "velocity": 0.889763779527559
        },
        {
          "duration": 0.10901093749998836,
          "durationTicks": 60,
          "midi": 67,
          "name": "G4",
          "ticks": 86496,
          "time": 157.1501675,
          "velocity": 0.8582677165354331
        },
        {
          "duration": 0.07994135416666381,
          "durationTicks": 44,
          "midi": 70,
          "name": "A#4",
          "ticks": 86496,
          "time": 157.1501675,
          "velocity": 0.7952755905511811
        },
        {
          "duration": 0.12717942708331975,
          "durationTicks": 70,
          "midi": 67,
          "name": "G4",
          "ticks": 86592,
          "time": 157.324585,
          "velocity": 0.937007874015748
        },
        {
          "duration": 0.12354572916666484,
          "durationTicks": 68,
          "midi": 70,
          "name": "A#4",
          "ticks": 86604,
          "time": 157.3463871875,
          "velocity": 0.9133858267716536
        },
        {
          "duration": 0.13808052083334132,
          "durationTicks": 76,
          "midi": 74,
          "name": "D5",
          "ticks": 86604,
          "time": 157.3463871875,
          "velocity": 0.937007874015748
        },
        {
          "duration": 0.1526153125000178,
          "durationTicks": 84,
          "midi": 70,
          "name": "A#4",
          "ticks": 86688,
          "time": 157.4990025,
          "velocity": 0.7637795275590551
        },
        {
          "duration": 0.13808052083334132,
          "durationTicks": 76,
          "midi": 74,
          "name": "D5",
          "ticks": 86688,
          "time": 157.4990025,
          "velocity": 0.8582677165354331
        },
        {
          "duration": 0.3415676041666984,
          "durationTicks": 188,
          "midi": 79,
          "name": "G5",
          "ticks": 86688,
          "time": 157.4990025,
          "velocity": 0.8582677165354331
        },
        {
          "duration": 0.22528927083334338,
          "durationTicks": 124,
          "midi": 70,
          "name": "A#4",
          "ticks": 86784,
          "time": 157.67342,
          "velocity": 0.9133858267716536
        },
        {
          "duration": 0.2834284375000209,
          "durationTicks": 156,
          "midi": 74,
          "name": "D5",
          "ticks": 86784,
          "time": 157.67342,
          "velocity": 0.8582677165354331
        },
        {
          "duration": 0.4433111458333201,
          "durationTicks": 244,
          "midi": 67,
          "name": "G4",
          "ticks": 86790,
          "time": 157.68432109375001,
          "velocity": 0.905511811023622
        },
        {
          "duration": 0.16715010416666587,
          "durationTicks": 92,
          "midi": 69,
          "name": "A4",
          "ticks": 86880,
          "time": 157.8478375,
          "velocity": 0.9212598425196851
        },
        {
          "duration": 0.13808052083334132,
          "durationTicks": 76,
          "midi": 70,
          "name": "A#4",
          "ticks": 86972,
          "time": 158.01498760416666,
          "velocity": 0.9448818897637795
        },
        {
          "duration": 0.10901093749998836,
          "durationTicks": 60,
          "midi": 74,
          "name": "D5",
          "ticks": 86984,
          "time": 158.03678979166668,
          "velocity": 0.9763779527559056
        },
        {
          "duration": 0.09447614583331188,
          "durationTicks": 52,
          "midi": 79,
          "name": "G5",
          "ticks": 86984,
          "time": 158.03678979166668,
          "velocity": 0.6299212598425197
        },
        {
          "duration": 0.312498020833317,
          "durationTicks": 172,
          "midi": 67,
          "name": "G4",
          "ticks": 87072,
          "time": 158.1966725,
          "velocity": 0.7637795275590551
        },
        {
          "duration": 0.2107544791666669,
          "durationTicks": 116,
          "midi": 70,
          "name": "A#4",
          "ticks": 87072,
          "time": 158.1966725,
          "velocity": 0.8661417322834646
        },
        {
          "duration": 0.2107544791666669,
          "durationTicks": 116,
          "midi": 74,
          "name": "D5",
          "ticks": 87072,
          "time": 158.1966725,
          "velocity": 0.8976377952755905
        },
        {
          "duration": 0.31613171875000035,
          "durationTicks": 174,
          "midi": 79,
          "name": "G5",
          "ticks": 87072,
          "time": 158.1966725,
          "velocity": 0.937007874015748
        },
        {
          "duration": 0.23982406249999144,
          "durationTicks": 132,
          "midi": 69,
          "name": "A4",
          "ticks": 87188,
          "time": 158.40742697916667,
          "velocity": 0.9763779527559056
        },
        {
          "duration": 0.10901093749998836,
          "durationTicks": 60,
          "midi": 67,
          "name": "G4",
          "ticks": 87264,
          "time": 158.5455075,
          "velocity": 0.8582677165354331
        },
        {
          "duration": 0.09447614583331188,
          "durationTicks": 52,
          "midi": 70,
          "name": "A#4",
          "ticks": 87264,
          "time": 158.5455075,
          "velocity": 0.8503937007874016
        },
        {
          "duration": 0.29796322916666895,
          "durationTicks": 164,
          "midi": 67,
          "name": "G4",
          "ticks": 87352,
          "time": 158.70539020833334,
          "velocity": 0.984251968503937
        },
        {
          "duration": 0.12354572916666484,
          "durationTicks": 68,
          "midi": 70,
          "name": "A#4",
          "ticks": 87368,
          "time": 158.73445979166667,
          "velocity": 0.9291338582677166
        },
        {
          "duration": 0.16351640625001096,
          "durationTicks": 90,
          "midi": 74,
          "name": "D5",
          "ticks": 87370,
          "time": 158.73809348958332,
          "velocity": 0.937007874015748
        },
        {
          "duration": 0.1526153125000178,
          "durationTicks": 84,
          "midi": 70,
          "name": "A#4",
          "ticks": 87464,
          "time": 158.90887729166667,
          "velocity": 0.7637795275590551
        },
        {
          "duration": 0.13808052083334132,
          "durationTicks": 76,
          "midi": 74,
          "name": "D5",
          "ticks": 87464,
          "time": 158.90887729166667,
          "velocity": 0.8582677165354331
        },
        {
          "duration": 0.29796322916666895,
          "durationTicks": 164,
          "midi": 79,
          "name": "G5",
          "ticks": 87464,
          "time": 158.90887729166667,
          "velocity": 0.8582677165354331
        },
        {
          "duration": 0.2543588541666679,
          "durationTicks": 140,
          "midi": 70,
          "name": "A#4",
          "ticks": 87552,
          "time": 159.06876,
          "velocity": 0.9133858267716536
        },
        {
          "duration": 0.48691552083334955,
          "durationTicks": 268,
          "midi": 67,
          "name": "G4",
          "ticks": 87558,
          "time": 159.07966109375,
          "velocity": 0.952755905511811
        },
        {
          "duration": 0.16715010416666587,
          "durationTicks": 92,
          "midi": 69,
          "name": "A4",
          "ticks": 87648,
          "time": 159.2431775,
          "velocity": 0.9212598425196851
        },
        {
          "duration": 0.1526153125000178,
          "durationTicks": 84,
          "midi": 70,
          "name": "A#4",
          "ticks": 87742,
          "time": 159.41396130208332,
          "velocity": 0.952755905511811
        },
        {
          "duration": 0.09447614583336872,
          "durationTicks": 52,
          "midi": 79,
          "name": "G5",
          "ticks": 87748,
          "time": 159.42486239583332,
          "velocity": 0.6141732283464567
        },
        {
          "duration": 0.14898161458333448,
          "durationTicks": 82,
          "midi": 74,
          "name": "D5",
          "ticks": 87750,
          "time": 159.42849609375,
          "velocity": 0.9763779527559056
        },
        {
          "duration": 0.312498020833317,
          "durationTicks": 172,
          "midi": 74,
          "name": "D5",
          "ticks": 87840,
          "time": 159.5920125,
          "velocity": 0.8976377952755905
        },
        {
          "duration": 0.312498020833317,
          "durationTicks": 172,
          "midi": 79,
          "name": "G5",
          "ticks": 87840,
          "time": 159.5920125,
          "velocity": 0.8976377952755905
        },
        {
          "duration": 0.27979473958330914,
          "durationTicks": 154,
          "midi": 67,
          "name": "G4",
          "ticks": 87848,
          "time": 159.6065472916667,
          "velocity": 0.8976377952755905
        },
        {
          "duration": 0.2652599479166611,
          "durationTicks": 146,
          "midi": 70,
          "name": "A#4",
          "ticks": 87854,
          "time": 159.61744838541668,
          "velocity": 0.889763779527559
        },
        {
          "duration": 0.10901093750001678,
          "durationTicks": 60,
          "midi": 67,
          "name": "G4",
          "ticks": 88032,
          "time": 159.9408475,
          "velocity": 0.8582677165354331
        },
        {
          "duration": 0.07994135416669224,
          "durationTicks": 44,
          "midi": 70,
          "name": "A#4",
          "ticks": 88032,
          "time": 159.9408475,
          "velocity": 0.7952755905511811
        },
        {
          "duration": 0.12717942708334817,
          "durationTicks": 70,
          "midi": 67,
          "name": "G4",
          "ticks": 88128,
          "time": 160.115265,
          "velocity": 0.937007874015748
        },
        {
          "duration": 0.12354572916666484,
          "durationTicks": 68,
          "midi": 70,
          "name": "A#4",
          "ticks": 88140,
          "time": 160.1370671875,
          "velocity": 0.9133858267716536
        },
        {
          "duration": 0.1380805208333129,
          "durationTicks": 76,
          "midi": 74,
          "name": "D5",
          "ticks": 88140,
          "time": 160.1370671875,
          "velocity": 0.937007874015748
        },
        {
          "duration": 0.1526153125000178,
          "durationTicks": 84,
          "midi": 70,
          "name": "A#4",
          "ticks": 88224,
          "time": 160.2896825,
          "velocity": 0.7637795275590551
        },
        {
          "duration": 0.13808052083334132,
          "durationTicks": 76,
          "midi": 74,
          "name": "D5",
          "ticks": 88224,
          "time": 160.2896825,
          "velocity": 0.8582677165354331
        },
        {
          "duration": 0.31249802083334544,
          "durationTicks": 172,
          "midi": 79,
          "name": "G5",
          "ticks": 88224,
          "time": 160.2896825,
          "velocity": 0.8740157480314961
        },
        {
          "duration": 0.28342843749999247,
          "durationTicks": 156,
          "midi": 70,
          "name": "A#4",
          "ticks": 88320,
          "time": 160.4641,
          "velocity": 0.7637795275590551
        },
        {
          "duration": 0.28342843749999247,
          "durationTicks": 156,
          "midi": 74,
          "name": "D5",
          "ticks": 88320,
          "time": 160.4641,
          "velocity": 0.8582677165354331
        },
        {
          "duration": 0.4433111458333485,
          "durationTicks": 244,
          "midi": 67,
          "name": "G4",
          "ticks": 88326,
          "time": 160.47500109375,
          "velocity": 0.905511811023622
        },
        {
          "duration": 0.16715010416663745,
          "durationTicks": 92,
          "midi": 69,
          "name": "A4",
          "ticks": 88418,
          "time": 160.6421511979167,
          "velocity": 0.9212598425196851
        },
        {
          "duration": 0.13808052083334132,
          "durationTicks": 76,
          "midi": 70,
          "name": "A#4",
          "ticks": 88508,
          "time": 160.80566760416667,
          "velocity": 0.9448818897637795
        },
        {
          "duration": 0.10901093749998836,
          "durationTicks": 60,
          "midi": 74,
          "name": "D5",
          "ticks": 88520,
          "time": 160.8274697916667,
          "velocity": 0.9763779527559056
        },
        {
          "duration": 0.10901093749998836,
          "durationTicks": 60,
          "midi": 79,
          "name": "G5",
          "ticks": 88520,
          "time": 160.8274697916667,
          "velocity": 0.6220472440944882
        },
        {
          "duration": 0.4433111458333201,
          "durationTicks": 244,
          "midi": 67,
          "name": "G4",
          "ticks": 88608,
          "time": 160.98735250000001,
          "velocity": 0.7637795275590551
        },
        {
          "duration": 0.1380805208333129,
          "durationTicks": 76,
          "midi": 70,
          "name": "A#4",
          "ticks": 88608,
          "time": 160.98735250000001,
          "velocity": 0.8661417322834646
        },
        {
          "duration": 0.41424156249999555,
          "durationTicks": 228,
          "midi": 74,
          "name": "D5",
          "ticks": 88608,
          "time": 160.98735250000001,
          "velocity": 0.8976377952755905
        },
        {
          "duration": 0.4578459374999966,
          "durationTicks": 252,
          "midi": 79,
          "name": "G5",
          "ticks": 88608,
          "time": 160.98735250000001,
          "velocity": 0.8976377952755905
        },
        {
          "duration": 0.2543588541666679,
          "durationTicks": 140,
          "midi": 70,
          "name": "A#4",
          "ticks": 88722,
          "time": 161.19447328125,
          "velocity": 0.968503937007874
        },
        {
          "duration": 0.27979473958330914,
          "durationTicks": 154,
          "midi": 67,
          "name": "G4",
          "ticks": 88898,
          "time": 161.51423869791668,
          "velocity": 0.937007874015748
        },
        {
          "duration": 0.268893645833316,
          "durationTicks": 148,
          "midi": 70,
          "name": "A#4",
          "ticks": 88904,
          "time": 161.52513979166667,
          "velocity": 0.9291338582677166
        },
        {
          "duration": 0.2652599479166611,
          "durationTicks": 146,
          "midi": 74,
          "name": "D5",
          "ticks": 88906,
          "time": 161.52877348958333,
          "velocity": 0.937007874015748
        },
        {
          "duration": 0.2652599479166611,
          "durationTicks": 146,
          "midi": 79,
          "name": "G5",
          "ticks": 88906,
          "time": 161.52877348958333,
          "velocity": 0.937007874015748
        },
        {
          "duration": 0.5450546875000271,
          "durationTicks": 300,
          "midi": 69,
          "name": "A4",
          "ticks": 88918,
          "time": 161.55057567708332,
          "velocity": 0.952755905511811
        },
        {
          "duration": 0.4869155208333211,
          "durationTicks": 268,
          "midi": 65,
          "name": "F4",
          "ticks": 89094,
          "time": 161.87034109375,
          "velocity": 0.952755905511811
        },
        {
          "duration": 0.1526153124999894,
          "durationTicks": 84,
          "midi": 69,
          "name": "A4",
          "ticks": 89278,
          "time": 162.20464130208333,
          "velocity": 0.952755905511811
        },
        {
          "duration": 0.14898161458333448,
          "durationTicks": 82,
          "midi": 72,
          "name": "C5",
          "ticks": 89286,
          "time": 162.21917609375,
          "velocity": 0.9763779527559056
        },
        {
          "duration": 0.31249802083334544,
          "durationTicks": 172,
          "midi": 72,
          "name": "C5",
          "ticks": 89376,
          "time": 162.3826925,
          "velocity": 0.8976377952755905
        },
        {
          "duration": 0.31249802083334544,
          "durationTicks": 172,
          "midi": 77,
          "name": "F5",
          "ticks": 89376,
          "time": 162.3826925,
          "velocity": 0.937007874015748
        },
        {
          "duration": 0.27979473958333756,
          "durationTicks": 154,
          "midi": 65,
          "name": "F4",
          "ticks": 89384,
          "time": 162.39722729166667,
          "velocity": 0.8976377952755905
        },
        {
          "duration": 0.26525994791663265,
          "durationTicks": 146,
          "midi": 69,
          "name": "A4",
          "ticks": 89390,
          "time": 162.4081283854167,
          "velocity": 0.889763779527559
        },
        {
          "duration": 0.10901093750001678,
          "durationTicks": 60,
          "midi": 65,
          "name": "F4",
          "ticks": 89568,
          "time": 162.7315275,
          "velocity": 0.8582677165354331
        },
        {
          "duration": 0.07994135416666381,
          "durationTicks": 44,
          "midi": 69,
          "name": "A4",
          "ticks": 89568,
          "time": 162.7315275,
          "velocity": 0.7952755905511811
        },
        {
          "duration": 0.12717942708331975,
          "durationTicks": 70,
          "midi": 65,
          "name": "F4",
          "ticks": 89664,
          "time": 162.905945,
          "velocity": 0.937007874015748
        },
        {
          "duration": 0.12354572916669326,
          "durationTicks": 68,
          "midi": 69,
          "name": "A4",
          "ticks": 89676,
          "time": 162.9277471875,
          "velocity": 0.9133858267716536
        },
        {
          "duration": 0.13808052083334132,
          "durationTicks": 76,
          "midi": 72,
          "name": "C5",
          "ticks": 89676,
          "time": 162.9277471875,
          "velocity": 0.937007874015748
        },
        {
          "duration": 0.1526153124999894,
          "durationTicks": 84,
          "midi": 69,
          "name": "A4",
          "ticks": 89760,
          "time": 163.0803625,
          "velocity": 0.7637795275590551
        },
        {
          "duration": 0.1380805208333129,
          "durationTicks": 76,
          "midi": 72,
          "name": "C5",
          "ticks": 89760,
          "time": 163.0803625,
          "velocity": 0.8582677165354331
        },
        {
          "duration": 0.1380805208333129,
          "durationTicks": 76,
          "midi": 77,
          "name": "F5",
          "ticks": 89760,
          "time": 163.0803625,
          "velocity": 0.8582677165354331
        },
        {
          "duration": 0.48691552083334955,
          "durationTicks": 268,
          "midi": 65,
          "name": "F4",
          "ticks": 89772,
          "time": 163.1021646875,
          "velocity": 0.952755905511811
        },
        {
          "duration": 0.22528927083331496,
          "durationTicks": 124,
          "midi": 69,
          "name": "A4",
          "ticks": 89856,
          "time": 163.25478,
          "velocity": 0.9133858267716536
        },
        {
          "duration": 0.28342843749999247,
          "durationTicks": 156,
          "midi": 72,
          "name": "C5",
          "ticks": 89856,
          "time": 163.25478,
          "velocity": 0.8582677165354331
        },
        {
          "duration": 0.19621968749999041,
          "durationTicks": 108,
          "midi": 77,
          "name": "F5",
          "ticks": 89864,
          "time": 163.2693147916667,
          "velocity": 0.8661417322834646
        },
        {
          "duration": 0.1380805208333129,
          "durationTicks": 76,
          "midi": 69,
          "name": "A4",
          "ticks": 90044,
          "time": 163.59634760416668,
          "velocity": 0.9448818897637795
        },
        {
          "duration": 0.10901093750001678,
          "durationTicks": 60,
          "midi": 72,
          "name": "C5",
          "ticks": 90056,
          "time": 163.61814979166667,
          "velocity": 0.9763779527559056
        },
        {
          "duration": 0.0944761458333403,
          "durationTicks": 52,
          "midi": 77,
          "name": "F5",
          "ticks": 90056,
          "time": 163.61814979166667,
          "velocity": 0.6299212598425197
        },
        {
          "duration": 0.27979473958330914,
          "durationTicks": 154,
          "midi": 65,
          "name": "F4",
          "ticks": 90062,
          "time": 163.6290508854167,
          "velocity": 0.8976377952755905
        },
        {
          "duration": 0.31249802083334544,
          "durationTicks": 172,
          "midi": 69,
          "name": "A4",
          "ticks": 90144,
          "time": 163.7780325,
          "velocity": 0.8661417322834646
        },
        {
          "duration": 0.29796322916666895,
          "durationTicks": 164,
          "midi": 72,
          "name": "C5",
          "ticks": 90144,
          "time": 163.7780325,
          "velocity": 0.8976377952755905
        },
        {
          "duration": 0.31613171875000035,
          "durationTicks": 174,
          "midi": 77,
          "name": "F5",
          "ticks": 90144,
          "time": 163.7780325,
          "velocity": 0.937007874015748
        },
        {
          "duration": 0.10901093750001678,
          "durationTicks": 60,
          "midi": 65,
          "name": "F4",
          "ticks": 90246,
          "time": 163.96335109375,
          "velocity": 0.8582677165354331
        },
        {
          "duration": 0.12354572916666484,
          "durationTicks": 68,
          "midi": 69,
          "name": "A4",
          "ticks": 90336,
          "time": 164.1268675,
          "velocity": 0.8503937007874016
        },
        {
          "duration": 0.12717942708331975,
          "durationTicks": 70,
          "midi": 65,
          "name": "F4",
          "ticks": 90342,
          "time": 164.13776859375,
          "velocity": 0.937007874015748
        },
        {
          "duration": 0.12354572916663642,
          "durationTicks": 68,
          "midi": 69,
          "name": "A4",
          "ticks": 90440,
          "time": 164.31581979166668,
          "velocity": 0.9291338582677166
        },
        {
          "duration": 0.16351640624998254,
          "durationTicks": 90,
          "midi": 72,
          "name": "C5",
          "ticks": 90442,
          "time": 164.31945348958334,
          "velocity": 0.937007874015748
        },
        {
          "duration": 0.1526153124999894,
          "durationTicks": 84,
          "midi": 69,
          "name": "A4",
          "ticks": 90536,
          "time": 164.4902372916667,
          "velocity": 0.7637795275590551
        },
        {
          "duration": 0.1526153124999894,
          "durationTicks": 84,
          "midi": 72,
          "name": "C5",
          "ticks": 90536,
          "time": 164.4902372916667,
          "velocity": 0.8582677165354331
        },
        {
          "duration": 0.29796322916664053,
          "durationTicks": 164,
          "midi": 77,
          "name": "F5",
          "ticks": 90536,
          "time": 164.4902372916667,
          "velocity": 0.8582677165354331
        },
        {
          "duration": 0.2543588541666679,
          "durationTicks": 140,
          "midi": 69,
          "name": "A4",
          "ticks": 90624,
          "time": 164.65012000000002,
          "velocity": 0.7401574803149606
        },
        {
          "duration": 0.4869155208333211,
          "durationTicks": 268,
          "midi": 66,
          "name": "F#4",
          "ticks": 90630,
          "time": 164.66102109375,
          "velocity": 0.952755905511811
        },
        {
          "duration": 0.1526153124999894,
          "durationTicks": 84,
          "midi": 69,
          "name": "A4",
          "ticks": 90814,
          "time": 164.99532130208334,
          "velocity": 0.952755905511811
        },
        {
          "duration": 0.14898161458330605,
          "durationTicks": 82,
          "midi": 72,
          "name": "C5",
          "ticks": 90822,
          "time": 165.00985609375002,
          "velocity": 0.9763779527559056
        },
        {
          "duration": 0.312498020833317,
          "durationTicks": 172,
          "midi": 72,
          "name": "C5",
          "ticks": 90912,
          "time": 165.1733725,
          "velocity": 0.8976377952755905
        },
        {
          "duration": 0.312498020833317,
          "durationTicks": 172,
          "midi": 78,
          "name": "F#5",
          "ticks": 90912,
          "time": 165.1733725,
          "velocity": 0.937007874015748
        },
        {
          "duration": 0.27979473958333756,
          "durationTicks": 154,
          "midi": 66,
          "name": "F#4",
          "ticks": 90920,
          "time": 165.18790729166668,
          "velocity": 0.8976377952755905
        },
        {
          "duration": 0.2652599479166611,
          "durationTicks": 146,
          "midi": 69,
          "name": "A4",
          "ticks": 90926,
          "time": 165.19880838541667,
          "velocity": 0.889763779527559
        },
        {
          "duration": 0.10901093749998836,
          "durationTicks": 60,
          "midi": 66,
          "name": "F#4",
          "ticks": 91104,
          "time": 165.5222075,
          "velocity": 0.8582677165354331
        },
        {
          "duration": 0.07994135416666381,
          "durationTicks": 44,
          "midi": 69,
          "name": "A4",
          "ticks": 91104,
          "time": 165.5222075,
          "velocity": 0.7952755905511811
        },
        {
          "duration": 0.12717942708331975,
          "durationTicks": 70,
          "midi": 66,
          "name": "F#4",
          "ticks": 91200,
          "time": 165.696625,
          "velocity": 0.937007874015748
        },
        {
          "duration": 0.12354572916666484,
          "durationTicks": 68,
          "midi": 69,
          "name": "A4",
          "ticks": 91212,
          "time": 165.7184271875,
          "velocity": 0.9133858267716536
        },
        {
          "duration": 0.13808052083334132,
          "durationTicks": 76,
          "midi": 72,
          "name": "C5",
          "ticks": 91212,
          "time": 165.7184271875,
          "velocity": 0.937007874015748
        },
        {
          "duration": 0.1526153124999894,
          "durationTicks": 84,
          "midi": 69,
          "name": "A4",
          "ticks": 91296,
          "time": 165.87104250000002,
          "velocity": 0.7637795275590551
        },
        {
          "duration": 0.1380805208333129,
          "durationTicks": 76,
          "midi": 72,
          "name": "C5",
          "ticks": 91296,
          "time": 165.87104250000002,
          "velocity": 0.8582677165354331
        },
        {
          "duration": 0.34156760416667,
          "durationTicks": 188,
          "midi": 78,
          "name": "F#5",
          "ticks": 91296,
          "time": 165.87104250000002,
          "velocity": 0.8582677165354331
        },
        {
          "duration": 0.22528927083334338,
          "durationTicks": 124,
          "midi": 69,
          "name": "A4",
          "ticks": 91392,
          "time": 166.04546,
          "velocity": 0.9133858267716536
        },
        {
          "duration": 0.2834284375000209,
          "durationTicks": 156,
          "midi": 72,
          "name": "C5",
          "ticks": 91392,
          "time": 166.04546,
          "velocity": 0.8582677165354331
        },
        {
          "duration": 0.4433111458333201,
          "durationTicks": 244,
          "midi": 66,
          "name": "F#4",
          "ticks": 91398,
          "time": 166.05636109375,
          "velocity": 0.905511811023622
        },
        {
          "duration": 0.1380805208333129,
          "durationTicks": 76,
          "midi": 69,
          "name": "A4",
          "ticks": 91580,
          "time": 166.3870276041667,
          "velocity": 0.9448818897637795
        },
        {
          "duration": 0.10901093749998836,
          "durationTicks": 60,
          "midi": 72,
          "name": "C5",
          "ticks": 91592,
          "time": 166.40882979166668,
          "velocity": 0.9763779527559056
        },
        {
          "duration": 0.0944761458333403,
          "durationTicks": 52,
          "midi": 78,
          "name": "F#5",
          "ticks": 91592,
          "time": 166.40882979166668,
          "velocity": 0.6299212598425197
        },
        {
          "duration": 0.312498020833317,
          "durationTicks": 172,
          "midi": 66,
          "name": "F#4",
          "ticks": 91680,
          "time": 166.5687125,
          "velocity": 0.7637795275590551
        },
        {
          "duration": 0.2107544791666669,
          "durationTicks": 116,
          "midi": 69,
          "name": "A4",
          "ticks": 91680,
          "time": 166.5687125,
          "velocity": 0.8661417322834646
        },
        {
          "duration": 0.2107544791666669,
          "durationTicks": 116,
          "midi": 72,
          "name": "C5",
          "ticks": 91680,
          "time": 166.5687125,
          "velocity": 0.8976377952755905
        },
        {
          "duration": 0.31613171875000035,
          "durationTicks": 174,
          "midi": 78,
          "name": "F#5",
          "ticks": 91680,
          "time": 166.5687125,
          "velocity": 0.937007874015748
        },
        {
          "duration": 0.10901093749998836,
          "durationTicks": 60,
          "midi": 66,
          "name": "F#4",
          "ticks": 91872,
          "time": 166.9175475,
          "velocity": 0.8582677165354331
        },
        {
          "duration": 0.09447614583331188,
          "durationTicks": 52,
          "midi": 69,
          "name": "A4",
          "ticks": 91872,
          "time": 166.9175475,
          "velocity": 0.8503937007874016
        },
        {
          "duration": 0.29796322916666895,
          "durationTicks": 164,
          "midi": 66,
          "name": "F#4",
          "ticks": 91960,
          "time": 167.07743020833334,
          "velocity": 0.984251968503937
        },
        {
          "duration": 0.12354572916666484,
          "durationTicks": 68,
          "midi": 69,
          "name": "A4",
          "ticks": 91976,
          "time": 167.10649979166666,
          "velocity": 0.9291338582677166
        },
        {
          "duration": 0.16351640625001096,
          "durationTicks": 90,
          "midi": 72,
          "name": "C5",
          "ticks": 91978,
          "time": 167.11013348958332,
          "velocity": 0.937007874015748
        },
        {
          "duration": 0.1526153125000178,
          "durationTicks": 84,
          "midi": 69,
          "name": "A4",
          "ticks": 92072,
          "time": 167.28091729166667,
          "velocity": 0.7637795275590551
        },
        {
          "duration": 0.13808052083334132,
          "durationTicks": 76,
          "midi": 72,
          "name": "C5",
          "ticks": 92072,
          "time": 167.28091729166667,
          "velocity": 0.8582677165354331
        },
        {
          "duration": 0.29796322916666895,
          "durationTicks": 164,
          "midi": 79,
          "name": "G5",
          "ticks": 92072,
          "time": 167.28091729166667,
          "velocity": 0.8582677165354331
        },
        {
          "duration": 0.2543588541666679,
          "durationTicks": 140,
          "midi": 70,
          "name": "A#4",
          "ticks": 92160,
          "time": 167.4408,
          "velocity": 0.7401574803149606
        },
        {
          "duration": 0.48691552083334955,
          "durationTicks": 268,
          "midi": 67,
          "name": "G4",
          "ticks": 92166,
          "time": 167.45170109375,
          "velocity": 0.952755905511811
        },
        {
          "duration": 0.1526153125000178,
          "durationTicks": 84,
          "midi": 70,
          "name": "A#4",
          "ticks": 92350,
          "time": 167.78600130208332,
          "velocity": 0.952755905511811
        },
        {
          "duration": 0.14898161458333448,
          "durationTicks": 82,
          "midi": 74,
          "name": "D5",
          "ticks": 92358,
          "time": 167.80053609375,
          "velocity": 0.9763779527559056
        },
        {
          "duration": 0.312498020833317,
          "durationTicks": 172,
          "midi": 74,
          "name": "D5",
          "ticks": 92448,
          "time": 167.9640525,
          "velocity": 0.8976377952755905
        },
        {
          "duration": 0.312498020833317,
          "durationTicks": 172,
          "midi": 79,
          "name": "G5",
          "ticks": 92448,
          "time": 167.9640525,
          "velocity": 0.937007874015748
        },
        {
          "duration": 0.27979473958330914,
          "durationTicks": 154,
          "midi": 67,
          "name": "G4",
          "ticks": 92456,
          "time": 167.97858729166668,
          "velocity": 0.8976377952755905
        },
        {
          "duration": 0.2652599479166611,
          "durationTicks": 146,
          "midi": 70,
          "name": "A#4",
          "ticks": 92462,
          "time": 167.98948838541668,
          "velocity": 0.889763779527559
        },
        {
          "duration": 0.10901093749998836,
          "durationTicks": 60,
          "midi": 67,
          "name": "G4",
          "ticks": 92640,
          "time": 168.31288750000002,
          "velocity": 0.8582677165354331
        },
        {
          "duration": 0.07994135416666381,
          "durationTicks": 44,
          "midi": 70,
          "name": "A#4",
          "ticks": 92640,
          "time": 168.31288750000002,
          "velocity": 0.7952755905511811
        },
        {
          "duration": 0.12717942708334817,
          "durationTicks": 70,
          "midi": 67,
          "name": "G4",
          "ticks": 92736,
          "time": 168.487305,
          "velocity": 0.937007874015748
        },
        {
          "duration": 0.12354572916666484,
          "durationTicks": 68,
          "midi": 70,
          "name": "A#4",
          "ticks": 92748,
          "time": 168.5091071875,
          "velocity": 0.9133858267716536
        },
        {
          "duration": 0.1380805208333129,
          "durationTicks": 76,
          "midi": 74,
          "name": "D5",
          "ticks": 92748,
          "time": 168.5091071875,
          "velocity": 0.937007874015748
        },
        {
          "duration": 0.1526153125000178,
          "durationTicks": 84,
          "midi": 70,
          "name": "A#4",
          "ticks": 92832,
          "time": 168.6617225,
          "velocity": 0.7637795275590551
        },
        {
          "duration": 0.13808052083334132,
          "durationTicks": 76,
          "midi": 74,
          "name": "D5",
          "ticks": 92832,
          "time": 168.6617225,
          "velocity": 0.8582677165354331
        },
        {
          "duration": 0.34156760416667,
          "durationTicks": 188,
          "midi": 79,
          "name": "G5",
          "ticks": 92832,
          "time": 168.6617225,
          "velocity": 0.8582677165354331
        },
        {
          "duration": 0.22528927083334338,
          "durationTicks": 124,
          "midi": 70,
          "name": "A#4",
          "ticks": 92928,
          "time": 168.83614,
          "velocity": 0.9133858267716536
        },
        {
          "duration": 0.28342843749999247,
          "durationTicks": 156,
          "midi": 74,
          "name": "D5",
          "ticks": 92928,
          "time": 168.83614,
          "velocity": 0.8582677165354331
        },
        {
          "duration": 0.4433111458333485,
          "durationTicks": 244,
          "midi": 67,
          "name": "G4",
          "ticks": 92934,
          "time": 168.84704109375,
          "velocity": 0.905511811023622
        },
        {
          "duration": 0.16715010416666587,
          "durationTicks": 92,
          "midi": 69,
          "name": "A4",
          "ticks": 93024,
          "time": 169.0105575,
          "velocity": 0.9212598425196851
        },
        {
          "duration": 0.13808052083334132,
          "durationTicks": 76,
          "midi": 70,
          "name": "A#4",
          "ticks": 93116,
          "time": 169.17770760416667,
          "velocity": 0.9448818897637795
        },
        {
          "duration": 0.10901093749998836,
          "durationTicks": 60,
          "midi": 74,
          "name": "D5",
          "ticks": 93128,
          "time": 169.19950979166669,
          "velocity": 0.9763779527559056
        },
        {
          "duration": 0.09447614583331188,
          "durationTicks": 52,
          "midi": 79,
          "name": "G5",
          "ticks": 93128,
          "time": 169.19950979166669,
          "velocity": 0.6299212598425197
        },
        {
          "duration": 0.312498020833317,
          "durationTicks": 172,
          "midi": 67,
          "name": "G4",
          "ticks": 93216,
          "time": 169.3593925,
          "velocity": 0.7637795275590551
        },
        {
          "duration": 0.2107544791666669,
          "durationTicks": 116,
          "midi": 70,
          "name": "A#4",
          "ticks": 93216,
          "time": 169.3593925,
          "velocity": 0.8661417322834646
        },
        {
          "duration": 0.2107544791666669,
          "durationTicks": 116,
          "midi": 74,
          "name": "D5",
          "ticks": 93216,
          "time": 169.3593925,
          "velocity": 0.8976377952755905
        },
        {
          "duration": 0.31613171875000035,
          "durationTicks": 174,
          "midi": 79,
          "name": "G5",
          "ticks": 93216,
          "time": 169.3593925,
          "velocity": 0.937007874015748
        },
        {
          "duration": 0.23982406249999144,
          "durationTicks": 132,
          "midi": 69,
          "name": "A4",
          "ticks": 93332,
          "time": 169.57014697916668,
          "velocity": 0.9763779527559056
        },
        {
          "duration": 0.10901093750001678,
          "durationTicks": 60,
          "midi": 67,
          "name": "G4",
          "ticks": 93408,
          "time": 169.7082275,
          "velocity": 0.8582677165354331
        },
        {
          "duration": 0.0944761458333403,
          "durationTicks": 52,
          "midi": 70,
          "name": "A#4",
          "ticks": 93408,
          "time": 169.7082275,
          "velocity": 0.8503937007874016
        },
        {
          "duration": 0.29796322916666895,
          "durationTicks": 164,
          "midi": 67,
          "name": "G4",
          "ticks": 93496,
          "time": 169.86811020833332,
          "velocity": 0.984251968503937
        },
        {
          "duration": 0.12354572916666484,
          "durationTicks": 68,
          "midi": 70,
          "name": "A#4",
          "ticks": 93512,
          "time": 169.89717979166667,
          "velocity": 0.9291338582677166
        },
        {
          "duration": 0.16351640625001096,
          "durationTicks": 90,
          "midi": 74,
          "name": "D5",
          "ticks": 93514,
          "time": 169.90081348958333,
          "velocity": 0.937007874015748
        },
        {
          "duration": 0.1526153124999894,
          "durationTicks": 84,
          "midi": 70,
          "name": "A#4",
          "ticks": 93608,
          "time": 170.07159729166668,
          "velocity": 0.7637795275590551
        },
        {
          "duration": 0.1380805208333129,
          "durationTicks": 76,
          "midi": 74,
          "name": "D5",
          "ticks": 93608,
          "time": 170.07159729166668,
          "velocity": 0.8582677165354331
        },
        {
          "duration": 0.29796322916664053,
          "durationTicks": 164,
          "midi": 79,
          "name": "G5",
          "ticks": 93608,
          "time": 170.07159729166668,
          "velocity": 0.8582677165354331
        },
        {
          "duration": 0.2543588541666679,
          "durationTicks": 140,
          "midi": 70,
          "name": "A#4",
          "ticks": 93696,
          "time": 170.23148,
          "velocity": 0.9133858267716536
        },
        {
          "duration": 0.4869155208333211,
          "durationTicks": 268,
          "midi": 67,
          "name": "G4",
          "ticks": 93702,
          "time": 170.24238109375,
          "velocity": 0.952755905511811
        },
        {
          "duration": 0.16715010416666587,
          "durationTicks": 92,
          "midi": 69,
          "name": "A4",
          "ticks": 93792,
          "time": 170.4058975,
          "velocity": 0.9212598425196851
        },
        {
          "duration": 0.1526153124999894,
          "durationTicks": 84,
          "midi": 70,
          "name": "A#4",
          "ticks": 93886,
          "time": 170.57668130208333,
          "velocity": 0.952755905511811
        },
        {
          "duration": 0.0944761458333403,
          "durationTicks": 52,
          "midi": 79,
          "name": "G5",
          "ticks": 93892,
          "time": 170.58758239583332,
          "velocity": 0.6141732283464567
        },
        {
          "duration": 0.14898161458333448,
          "durationTicks": 82,
          "midi": 74,
          "name": "D5",
          "ticks": 93894,
          "time": 170.59121609375,
          "velocity": 0.9763779527559056
        },
        {
          "duration": 0.312498020833317,
          "durationTicks": 172,
          "midi": 74,
          "name": "D5",
          "ticks": 93984,
          "time": 170.75473250000002,
          "velocity": 0.8976377952755905
        },
        {
          "duration": 0.312498020833317,
          "durationTicks": 172,
          "midi": 79,
          "name": "G5",
          "ticks": 93984,
          "time": 170.75473250000002,
          "velocity": 0.8976377952755905
        },
        {
          "duration": 0.27979473958333756,
          "durationTicks": 154,
          "midi": 67,
          "name": "G4",
          "ticks": 93992,
          "time": 170.76926729166667,
          "velocity": 0.8976377952755905
        },
        {
          "duration": 0.26525994791663265,
          "durationTicks": 146,
          "midi": 70,
          "name": "A#4",
          "ticks": 93998,
          "time": 170.7801683854167,
          "velocity": 0.889763779527559
        },
        {
          "duration": 0.10901093750001678,
          "durationTicks": 60,
          "midi": 67,
          "name": "G4",
          "ticks": 94176,
          "time": 171.1035675,
          "velocity": 0.8582677165354331
        },
        {
          "duration": 0.07994135416669224,
          "durationTicks": 44,
          "midi": 70,
          "name": "A#4",
          "ticks": 94176,
          "time": 171.1035675,
          "velocity": 0.7952755905511811
        },
        {
          "duration": 0.12717942708331975,
          "durationTicks": 70,
          "midi": 67,
          "name": "G4",
          "ticks": 94272,
          "time": 171.277985,
          "velocity": 0.937007874015748
        },
        {
          "duration": 0.12354572916666484,
          "durationTicks": 68,
          "midi": 70,
          "name": "A#4",
          "ticks": 94284,
          "time": 171.29978718750002,
          "velocity": 0.9133858267716536
        },
        {
          "duration": 0.1380805208333129,
          "durationTicks": 76,
          "midi": 74,
          "name": "D5",
          "ticks": 94284,
          "time": 171.29978718750002,
          "velocity": 0.937007874015748
        },
        {
          "duration": 0.1526153124999894,
          "durationTicks": 84,
          "midi": 70,
          "name": "A#4",
          "ticks": 94368,
          "time": 171.4524025,
          "velocity": 0.7637795275590551
        },
        {
          "duration": 0.1380805208333129,
          "durationTicks": 76,
          "midi": 74,
          "name": "D5",
          "ticks": 94368,
          "time": 171.4524025,
          "velocity": 0.8582677165354331
        },
        {
          "duration": 0.312498020833317,
          "durationTicks": 172,
          "midi": 79,
          "name": "G5",
          "ticks": 94368,
          "time": 171.4524025,
          "velocity": 0.8740157480314961
        },
        {
          "duration": 0.28342843749999247,
          "durationTicks": 156,
          "midi": 70,
          "name": "A#4",
          "ticks": 94464,
          "time": 171.62682,
          "velocity": 0.7637795275590551
        },
        {
          "duration": 0.28342843749999247,
          "durationTicks": 156,
          "midi": 74,
          "name": "D5",
          "ticks": 94464,
          "time": 171.62682,
          "velocity": 0.8582677165354331
        },
        {
          "duration": 0.4433111458333201,
          "durationTicks": 244,
          "midi": 67,
          "name": "G4",
          "ticks": 94470,
          "time": 171.63772109375,
          "velocity": 0.905511811023622
        },
        {
          "duration": 0.16715010416666587,
          "durationTicks": 92,
          "midi": 69,
          "name": "A4",
          "ticks": 94562,
          "time": 171.80487119791667,
          "velocity": 0.9212598425196851
        },
        {
          "duration": 0.1380805208333129,
          "durationTicks": 76,
          "midi": 70,
          "name": "A#4",
          "ticks": 94652,
          "time": 171.96838760416668,
          "velocity": 0.9448818897637795
        },
        {
          "duration": 0.10901093750001678,
          "durationTicks": 60,
          "midi": 74,
          "name": "D5",
          "ticks": 94664,
          "time": 171.99018979166667,
          "velocity": 0.9763779527559056
        },
        {
          "duration": 0.10901093750001678,
          "durationTicks": 60,
          "midi": 79,
          "name": "G5",
          "ticks": 94664,
          "time": 171.99018979166667,
          "velocity": 0.6220472440944882
        },
        {
          "duration": 0.4433111458333485,
          "durationTicks": 244,
          "midi": 67,
          "name": "G4",
          "ticks": 94752,
          "time": 172.1500725,
          "velocity": 0.7637795275590551
        },
        {
          "duration": 0.13808052083334132,
          "durationTicks": 76,
          "midi": 70,
          "name": "A#4",
          "ticks": 94752,
          "time": 172.1500725,
          "velocity": 0.8661417322834646
        },
        {
          "duration": 0.414241562500024,
          "durationTicks": 228,
          "midi": 74,
          "name": "D5",
          "ticks": 94752,
          "time": 172.1500725,
          "velocity": 0.8976377952755905
        },
        {
          "duration": 0.4578459374999966,
          "durationTicks": 252,
          "midi": 79,
          "name": "G5",
          "ticks": 94752,
          "time": 172.1500725,
          "velocity": 0.8976377952755905
        },
        {
          "duration": 0.2543588541666679,
          "durationTicks": 140,
          "midi": 70,
          "name": "A#4",
          "ticks": 94866,
          "time": 172.35719328125,
          "velocity": 0.968503937007874
        },
        {
          "duration": 0.27979473958330914,
          "durationTicks": 154,
          "midi": 67,
          "name": "G4",
          "ticks": 95042,
          "time": 172.6769586979167,
          "velocity": 0.937007874015748
        },
        {
          "duration": 0.268893645833316,
          "durationTicks": 148,
          "midi": 70,
          "name": "A#4",
          "ticks": 95048,
          "time": 172.68785979166668,
          "velocity": 0.9291338582677166
        },
        {
          "duration": 0.2652599479166611,
          "durationTicks": 146,
          "midi": 74,
          "name": "D5",
          "ticks": 95050,
          "time": 172.69149348958334,
          "velocity": 0.937007874015748
        },
        {
          "duration": 0.2652599479166611,
          "durationTicks": 146,
          "midi": 79,
          "name": "G5",
          "ticks": 95050,
          "time": 172.69149348958334,
          "velocity": 0.937007874015748
        },
        {
          "duration": 0.5450546874999986,
          "durationTicks": 300,
          "midi": 69,
          "name": "A4",
          "ticks": 95062,
          "time": 172.71329567708332,
          "velocity": 0.952755905511811
        },
        {
          "duration": 0.4869155208333211,
          "durationTicks": 268,
          "midi": 65,
          "name": "F4",
          "ticks": 95238,
          "time": 173.03306109375,
          "velocity": 0.952755905511811
        },
        {
          "duration": 0.1526153124999894,
          "durationTicks": 84,
          "midi": 69,
          "name": "A4",
          "ticks": 95422,
          "time": 173.36736130208334,
          "velocity": 0.952755905511811
        },
        {
          "duration": 0.14898161458330605,
          "durationTicks": 82,
          "midi": 72,
          "name": "C5",
          "ticks": 95430,
          "time": 173.38189609375002,
          "velocity": 0.9763779527559056
        },
        {
          "duration": 0.31249802083334544,
          "durationTicks": 172,
          "midi": 72,
          "name": "C5",
          "ticks": 95520,
          "time": 173.5454125,
          "velocity": 0.8976377952755905
        },
        {
          "duration": 0.31249802083334544,
          "durationTicks": 172,
          "midi": 77,
          "name": "F5",
          "ticks": 95520,
          "time": 173.5454125,
          "velocity": 0.937007874015748
        },
        {
          "duration": 0.27979473958333756,
          "durationTicks": 154,
          "midi": 65,
          "name": "F4",
          "ticks": 95528,
          "time": 173.55994729166667,
          "velocity": 0.8976377952755905
        },
        {
          "duration": 0.2652599479166611,
          "durationTicks": 146,
          "midi": 69,
          "name": "A4",
          "ticks": 95534,
          "time": 173.57084838541667,
          "velocity": 0.889763779527559
        },
        {
          "duration": 0.10901093749998836,
          "durationTicks": 60,
          "midi": 65,
          "name": "F4",
          "ticks": 95712,
          "time": 173.8942475,
          "velocity": 0.8582677165354331
        },
        {
          "duration": 0.07994135416666381,
          "durationTicks": 44,
          "midi": 69,
          "name": "A4",
          "ticks": 95712,
          "time": 173.8942475,
          "velocity": 0.7952755905511811
        },
        {
          "duration": 0.12717942708331975,
          "durationTicks": 70,
          "midi": 65,
          "name": "F4",
          "ticks": 95808,
          "time": 174.068665,
          "velocity": 0.937007874015748
        },
        {
          "duration": 0.12354572916669326,
          "durationTicks": 68,
          "midi": 69,
          "name": "A4",
          "ticks": 95820,
          "time": 174.0904671875,
          "velocity": 0.9133858267716536
        },
        {
          "duration": 0.13808052083334132,
          "durationTicks": 76,
          "midi": 72,
          "name": "C5",
          "ticks": 95820,
          "time": 174.0904671875,
          "velocity": 0.937007874015748
        },
        {
          "duration": 0.1526153124999894,
          "durationTicks": 84,
          "midi": 69,
          "name": "A4",
          "ticks": 95904,
          "time": 174.2430825,
          "velocity": 0.7637795275590551
        },
        {
          "duration": 0.1380805208333129,
          "durationTicks": 76,
          "midi": 72,
          "name": "C5",
          "ticks": 95904,
          "time": 174.2430825,
          "velocity": 0.8582677165354331
        },
        {
          "duration": 0.1380805208333129,
          "durationTicks": 76,
          "midi": 77,
          "name": "F5",
          "ticks": 95904,
          "time": 174.2430825,
          "velocity": 0.8582677165354331
        },
        {
          "duration": 0.4869155208333211,
          "durationTicks": 268,
          "midi": 65,
          "name": "F4",
          "ticks": 95910,
          "time": 174.25398359375,
          "velocity": 0.952755905511811
        },
        {
          "duration": 0.22528927083334338,
          "durationTicks": 124,
          "midi": 69,
          "name": "A4",
          "ticks": 96000,
          "time": 174.4175,
          "velocity": 0.9133858267716536
        },
        {
          "duration": 0.2834284375000209,
          "durationTicks": 156,
          "midi": 72,
          "name": "C5",
          "ticks": 96000,
          "time": 174.4175,
          "velocity": 0.8582677165354331
        },
        {
          "duration": 0.19621968750001884,
          "durationTicks": 108,
          "midi": 77,
          "name": "F5",
          "ticks": 96008,
          "time": 174.43203479166667,
          "velocity": 0.8661417322834646
        },
        {
          "duration": 0.1380805208333129,
          "durationTicks": 76,
          "midi": 69,
          "name": "A4",
          "ticks": 96188,
          "time": 174.7590676041667,
          "velocity": 0.9448818897637795
        },
        {
          "duration": 0.27979473958333756,
          "durationTicks": 154,
          "midi": 65,
          "name": "F4",
          "ticks": 96200,
          "time": 174.78086979166667,
          "velocity": 0.8976377952755905
        },
        {
          "duration": 0.10901093749998836,
          "durationTicks": 60,
          "midi": 72,
          "name": "C5",
          "ticks": 96200,
          "time": 174.78086979166667,
          "velocity": 0.9763779527559056
        },
        {
          "duration": 0.0944761458333403,
          "durationTicks": 52,
          "midi": 77,
          "name": "F5",
          "ticks": 96200,
          "time": 174.78086979166667,
          "velocity": 0.6299212598425197
        },
        {
          "duration": 0.312498020833317,
          "durationTicks": 172,
          "midi": 69,
          "name": "A4",
          "ticks": 96288,
          "time": 174.9407525,
          "velocity": 0.8661417322834646
        },
        {
          "duration": 0.29796322916666895,
          "durationTicks": 164,
          "midi": 72,
          "name": "C5",
          "ticks": 96288,
          "time": 174.9407525,
          "velocity": 0.8976377952755905
        },
        {
          "duration": 0.31613171875000035,
          "durationTicks": 174,
          "midi": 77,
          "name": "F5",
          "ticks": 96288,
          "time": 174.9407525,
          "velocity": 0.937007874015748
        },
        {
          "duration": 0.10901093749998836,
          "durationTicks": 60,
          "midi": 65,
          "name": "F4",
          "ticks": 96384,
          "time": 175.11517,
          "velocity": 0.8582677165354331
        },
        {
          "duration": 0.12717942708331975,
          "durationTicks": 70,
          "midi": 65,
          "name": "F4",
          "ticks": 96480,
          "time": 175.2895875,
          "velocity": 0.937007874015748
        },
        {
          "duration": 0.12354572916666484,
          "durationTicks": 68,
          "midi": 69,
          "name": "A4",
          "ticks": 96480,
          "time": 175.2895875,
          "velocity": 0.8503937007874016
        },
        {
          "duration": 0.12354572916666484,
          "durationTicks": 68,
          "midi": 69,
          "name": "A4",
          "ticks": 96584,
          "time": 175.47853979166666,
          "velocity": 0.9291338582677166
        },
        {
          "duration": 0.16351640625001096,
          "durationTicks": 90,
          "midi": 72,
          "name": "C5",
          "ticks": 96586,
          "time": 175.48217348958332,
          "velocity": 0.937007874015748
        },
        {
          "duration": 0.1526153125000178,
          "durationTicks": 84,
          "midi": 69,
          "name": "A4",
          "ticks": 96680,
          "time": 175.65295729166667,
          "velocity": 0.7637795275590551
        },
        {
          "duration": 0.1526153125000178,
          "durationTicks": 84,
          "midi": 72,
          "name": "C5",
          "ticks": 96680,
          "time": 175.65295729166667,
          "velocity": 0.8582677165354331
        },
        {
          "duration": 0.29796322916666895,
          "durationTicks": 164,
          "midi": 77,
          "name": "F5",
          "ticks": 96680,
          "time": 175.65295729166667,
          "velocity": 0.8582677165354331
        },
        {
          "duration": 0.25435885416669635,
          "durationTicks": 140,
          "midi": 70,
          "name": "A#4",
          "ticks": 96768,
          "time": 175.81284,
          "velocity": 0.7401574803149606
        },
        {
          "duration": 0.4869155208333211,
          "durationTicks": 268,
          "midi": 67,
          "name": "G4",
          "ticks": 96774,
          "time": 175.82374109375002,
          "velocity": 0.952755905511811
        },
        {
          "duration": 0.1526153125000178,
          "durationTicks": 84,
          "midi": 70,
          "name": "A#4",
          "ticks": 96958,
          "time": 176.15804130208332,
          "velocity": 0.952755905511811
        },
        {
          "duration": 0.14898161458333448,
          "durationTicks": 82,
          "midi": 74,
          "name": "D5",
          "ticks": 96966,
          "time": 176.17257609375,
          "velocity": 0.9763779527559056
        },
        {
          "duration": 0.312498020833317,
          "durationTicks": 172,
          "midi": 74,
          "name": "D5",
          "ticks": 97056,
          "time": 176.3360925,
          "velocity": 0.8976377952755905
        },
        {
          "duration": 0.312498020833317,
          "durationTicks": 172,
          "midi": 79,
          "name": "G5",
          "ticks": 97056,
          "time": 176.3360925,
          "velocity": 0.937007874015748
        },
        {
          "duration": 0.27979473958330914,
          "durationTicks": 154,
          "midi": 67,
          "name": "G4",
          "ticks": 97064,
          "time": 176.35062729166668,
          "velocity": 0.8976377952755905
        },
        {
          "duration": 0.2652599479166611,
          "durationTicks": 146,
          "midi": 70,
          "name": "A#4",
          "ticks": 97070,
          "time": 176.36152838541668,
          "velocity": 0.889763779527559
        },
        {
          "duration": 0.10901093749998836,
          "durationTicks": 60,
          "midi": 67,
          "name": "G4",
          "ticks": 97248,
          "time": 176.68492750000001,
          "velocity": 0.8582677165354331
        },
        {
          "duration": 0.07994135416666381,
          "durationTicks": 44,
          "midi": 70,
          "name": "A#4",
          "ticks": 97248,
          "time": 176.68492750000001,
          "velocity": 0.7952755905511811
        },
        {
          "duration": 0.12717942708334817,
          "durationTicks": 70,
          "midi": 67,
          "name": "G4",
          "ticks": 97344,
          "time": 176.859345,
          "velocity": 0.937007874015748
        },
        {
          "duration": 0.12354572916666484,
          "durationTicks": 68,
          "midi": 70,
          "name": "A#4",
          "ticks": 97356,
          "time": 176.8811471875,
          "velocity": 0.9133858267716536
        },
        {
          "duration": 0.1380805208333129,
          "durationTicks": 76,
          "midi": 74,
          "name": "D5",
          "ticks": 97356,
          "time": 176.8811471875,
          "velocity": 0.937007874015748
        },
        {
          "duration": 0.1526153125000178,
          "durationTicks": 84,
          "midi": 70,
          "name": "A#4",
          "ticks": 97440,
          "time": 177.0337625,
          "velocity": 0.7637795275590551
        },
        {
          "duration": 0.13808052083334132,
          "durationTicks": 76,
          "midi": 74,
          "name": "D5",
          "ticks": 97440,
          "time": 177.0337625,
          "velocity": 0.8582677165354331
        },
        {
          "duration": 0.34156760416667,
          "durationTicks": 188,
          "midi": 79,
          "name": "G5",
          "ticks": 97440,
          "time": 177.0337625,
          "velocity": 0.8582677165354331
        },
        {
          "duration": 0.22528927083334338,
          "durationTicks": 124,
          "midi": 70,
          "name": "A#4",
          "ticks": 97536,
          "time": 177.20818,
          "velocity": 0.9133858267716536
        },
        {
          "duration": 0.28342843749999247,
          "durationTicks": 156,
          "midi": 74,
          "name": "D5",
          "ticks": 97536,
          "time": 177.20818,
          "velocity": 0.8582677165354331
        },
        {
          "duration": 0.4433111458333485,
          "durationTicks": 244,
          "midi": 67,
          "name": "G4",
          "ticks": 97542,
          "time": 177.21908109375,
          "velocity": 0.905511811023622
        },
        {
          "duration": 0.16715010416666587,
          "durationTicks": 92,
          "midi": 69,
          "name": "A4",
          "ticks": 97632,
          "time": 177.3825975,
          "velocity": 0.9212598425196851
        },
        {
          "duration": 0.13808052083334132,
          "durationTicks": 76,
          "midi": 70,
          "name": "A#4",
          "ticks": 97724,
          "time": 177.54974760416667,
          "velocity": 0.9448818897637795
        },
        {
          "duration": 0.10901093749998836,
          "durationTicks": 60,
          "midi": 74,
          "name": "D5",
          "ticks": 97736,
          "time": 177.57154979166668,
          "velocity": 0.9763779527559056
        },
        {
          "duration": 0.09447614583331188,
          "durationTicks": 52,
          "midi": 79,
          "name": "G5",
          "ticks": 97736,
          "time": 177.57154979166668,
          "velocity": 0.6299212598425197
        },
        {
          "duration": 0.312498020833317,
          "durationTicks": 172,
          "midi": 67,
          "name": "G4",
          "ticks": 97824,
          "time": 177.7314325,
          "velocity": 0.7637795275590551
        },
        {
          "duration": 0.2107544791666669,
          "durationTicks": 116,
          "midi": 70,
          "name": "A#4",
          "ticks": 97824,
          "time": 177.7314325,
          "velocity": 0.8661417322834646
        },
        {
          "duration": 0.2107544791666669,
          "durationTicks": 116,
          "midi": 74,
          "name": "D5",
          "ticks": 97824,
          "time": 177.7314325,
          "velocity": 0.8976377952755905
        },
        {
          "duration": 0.31613171875000035,
          "durationTicks": 174,
          "midi": 79,
          "name": "G5",
          "ticks": 97824,
          "time": 177.7314325,
          "velocity": 0.937007874015748
        },
        {
          "duration": 0.23982406249999144,
          "durationTicks": 132,
          "midi": 69,
          "name": "A4",
          "ticks": 97940,
          "time": 177.94218697916668,
          "velocity": 0.9763779527559056
        },
        {
          "duration": 0.10901093750001678,
          "durationTicks": 60,
          "midi": 67,
          "name": "G4",
          "ticks": 98016,
          "time": 178.0802675,
          "velocity": 0.8582677165354331
        },
        {
          "duration": 0.0944761458333403,
          "durationTicks": 52,
          "midi": 70,
          "name": "A#4",
          "ticks": 98016,
          "time": 178.0802675,
          "velocity": 0.8503937007874016
        },
        {
          "duration": 0.2979632291666974,
          "durationTicks": 164,
          "midi": 67,
          "name": "G4",
          "ticks": 98104,
          "time": 178.24015020833332,
          "velocity": 0.984251968503937
        },
        {
          "duration": 0.12354572916666484,
          "durationTicks": 68,
          "midi": 70,
          "name": "A#4",
          "ticks": 98120,
          "time": 178.26921979166667,
          "velocity": 0.9291338582677166
        },
        {
          "duration": 0.16351640625001096,
          "durationTicks": 90,
          "midi": 74,
          "name": "D5",
          "ticks": 98122,
          "time": 178.27285348958333,
          "velocity": 0.937007874015748
        },
        {
          "duration": 0.1526153124999894,
          "durationTicks": 84,
          "midi": 70,
          "name": "A#4",
          "ticks": 98216,
          "time": 178.44363729166668,
          "velocity": 0.7637795275590551
        },
        {
          "duration": 0.13808052083334132,
          "durationTicks": 76,
          "midi": 74,
          "name": "D5",
          "ticks": 98216,
          "time": 178.44363729166668,
          "velocity": 0.8582677165354331
        },
        {
          "duration": 0.29796322916666895,
          "durationTicks": 164,
          "midi": 79,
          "name": "G5",
          "ticks": 98216,
          "time": 178.44363729166668,
          "velocity": 0.8582677165354331
        },
        {
          "duration": 0.48691552083334955,
          "durationTicks": 268,
          "midi": 65,
          "name": "F4",
          "ticks": 98310,
          "time": 178.61442109375,
          "velocity": 0.952755905511811
        },
        {
          "duration": 0.1526153124999894,
          "durationTicks": 84,
          "midi": 69,
          "name": "A4",
          "ticks": 98494,
          "time": 178.94872130208336,
          "velocity": 0.952755905511811
        },
        {
          "duration": 0.14898161458333448,
          "durationTicks": 82,
          "midi": 72,
          "name": "C5",
          "ticks": 98502,
          "time": 178.96325609375,
          "velocity": 0.9763779527559056
        },
        {
          "duration": 0.31249802083334544,
          "durationTicks": 172,
          "midi": 72,
          "name": "C5",
          "ticks": 98592,
          "time": 179.12677250000002,
          "velocity": 0.8976377952755905
        },
        {
          "duration": 0.31249802083334544,
          "durationTicks": 172,
          "midi": 77,
          "name": "F5",
          "ticks": 98592,
          "time": 179.12677250000002,
          "velocity": 0.937007874015748
        },
        {
          "duration": 0.27979473958333756,
          "durationTicks": 154,
          "midi": 65,
          "name": "F4",
          "ticks": 98600,
          "time": 179.14130729166666,
          "velocity": 0.8976377952755905
        },
        {
          "duration": 0.2652599479166895,
          "durationTicks": 146,
          "midi": 69,
          "name": "A4",
          "ticks": 98606,
          "time": 179.15220838541666,
          "velocity": 0.889763779527559
        },
        {
          "duration": 0.10901093750001678,
          "durationTicks": 60,
          "midi": 65,
          "name": "F4",
          "ticks": 98784,
          "time": 179.4756075,
          "velocity": 0.8582677165354331
        },
        {
          "duration": 0.07994135416666381,
          "durationTicks": 44,
          "midi": 69,
          "name": "A4",
          "ticks": 98784,
          "time": 179.4756075,
          "velocity": 0.7952755905511811
        },
        {
          "duration": 0.12717942708334817,
          "durationTicks": 70,
          "midi": 65,
          "name": "F4",
          "ticks": 98880,
          "time": 179.650025,
          "velocity": 0.937007874015748
        },
        {
          "duration": 0.12354572916663642,
          "durationTicks": 68,
          "midi": 69,
          "name": "A4",
          "ticks": 98892,
          "time": 179.6718271875,
          "velocity": 0.9133858267716536
        },
        {
          "duration": 0.13808052083334132,
          "durationTicks": 76,
          "midi": 72,
          "name": "C5",
          "ticks": 98892,
          "time": 179.6718271875,
          "velocity": 0.937007874015748
        },
        {
          "duration": 0.1526153124999894,
          "durationTicks": 84,
          "midi": 69,
          "name": "A4",
          "ticks": 98976,
          "time": 179.8244425,
          "velocity": 0.7637795275590551
        },
        {
          "duration": 0.13808052083334132,
          "durationTicks": 76,
          "midi": 72,
          "name": "C5",
          "ticks": 98976,
          "time": 179.8244425,
          "velocity": 0.8582677165354331
        },
        {
          "duration": 0.13808052083334132,
          "durationTicks": 76,
          "midi": 77,
          "name": "F5",
          "ticks": 98976,
          "time": 179.8244425,
          "velocity": 0.8582677165354331
        },
        {
          "duration": 0.22528927083334338,
          "durationTicks": 124,
          "midi": 69,
          "name": "A4",
          "ticks": 99072,
          "time": 179.99886,
          "velocity": 0.9133858267716536
        },
        {
          "duration": 0.28342843749999247,
          "durationTicks": 156,
          "midi": 74,
          "name": "D5",
          "ticks": 99072,
          "time": 179.99886,
          "velocity": 0.8582677165354331
        },
        {
          "duration": 0.4433111458333485,
          "durationTicks": 244,
          "midi": 60,
          "name": "C4",
          "ticks": 99078,
          "time": 180.00976109375,
          "velocity": 0.937007874015748
        },
        {
          "duration": 0.19621968749999041,
          "durationTicks": 108,
          "midi": 78,
          "name": "F#5",
          "ticks": 99080,
          "time": 180.01339479166666,
          "velocity": 0.8661417322834646
        },
        {
          "duration": 0.13808052083334132,
          "durationTicks": 76,
          "midi": 69,
          "name": "A4",
          "ticks": 99260,
          "time": 180.34042760416665,
          "velocity": 0.9448818897637795
        },
        {
          "duration": 0.10901093749998836,
          "durationTicks": 60,
          "midi": 74,
          "name": "D5",
          "ticks": 99272,
          "time": 180.36222979166666,
          "velocity": 0.9763779527559056
        },
        {
          "duration": 0.0944761458333403,
          "durationTicks": 52,
          "midi": 78,
          "name": "F#5",
          "ticks": 99272,
          "time": 180.36222979166666,
          "velocity": 0.6299212598425197
        },
        {
          "duration": 0.31249802083334544,
          "durationTicks": 172,
          "midi": 69,
          "name": "A4",
          "ticks": 99360,
          "time": 180.5221125,
          "velocity": 0.8661417322834646
        },
        {
          "duration": 0.29796322916666895,
          "durationTicks": 164,
          "midi": 74,
          "name": "D5",
          "ticks": 99360,
          "time": 180.5221125,
          "velocity": 0.8976377952755905
        },
        {
          "duration": 0.31613171875000035,
          "durationTicks": 174,
          "midi": 78,
          "name": "F#5",
          "ticks": 99360,
          "time": 180.5221125,
          "velocity": 0.937007874015748
        },
        {
          "duration": 0.27979473958330914,
          "durationTicks": 154,
          "midi": 58,
          "name": "A#3",
          "ticks": 99466,
          "time": 180.71469848958336,
          "velocity": 0.9763779527559056
        },
        {
          "duration": 0.12354572916666484,
          "durationTicks": 68,
          "midi": 69,
          "name": "A4",
          "ticks": 99552,
          "time": 180.8709475,
          "velocity": 0.8503937007874016
        },
        {
          "duration": 0.3052306250000072,
          "durationTicks": 168,
          "midi": 57,
          "name": "A3",
          "ticks": 99648,
          "time": 181.045365,
          "velocity": 0.968503937007874
        },
        {
          "duration": 0.12354572916669326,
          "durationTicks": 68,
          "midi": 69,
          "name": "A4",
          "ticks": 99656,
          "time": 181.05989979166665,
          "velocity": 0.9291338582677166
        },
        {
          "duration": 0.16351640624998254,
          "durationTicks": 90,
          "midi": 74,
          "name": "D5",
          "ticks": 99658,
          "time": 181.06353348958336,
          "velocity": 0.937007874015748
        },
        {
          "duration": 0.1526153124999894,
          "durationTicks": 84,
          "midi": 69,
          "name": "A4",
          "ticks": 99752,
          "time": 181.23431729166666,
          "velocity": 0.7637795275590551
        },
        {
          "duration": 0.1526153124999894,
          "durationTicks": 84,
          "midi": 74,
          "name": "D5",
          "ticks": 99752,
          "time": 181.23431729166666,
          "velocity": 0.8582677165354331
        },
        {
          "duration": 0.2979632291666974,
          "durationTicks": 164,
          "midi": 78,
          "name": "F#5",
          "ticks": 99752,
          "time": 181.23431729166666,
          "velocity": 0.8582677165354331
        },
        {
          "duration": 0.3270328125000219,
          "durationTicks": 180,
          "midi": 55,
          "name": "G3",
          "ticks": 99832,
          "time": 181.37966520833334,
          "velocity": 0.9448818897637795
        },
        {
          "duration": 0.2543588541666395,
          "durationTicks": 140,
          "midi": 70,
          "name": "A#4",
          "ticks": 99840,
          "time": 181.3942,
          "velocity": 0.7401574803149606
        },
        {
          "duration": 0.48691552083334955,
          "durationTicks": 268,
          "midi": 67,
          "name": "G4",
          "ticks": 99846,
          "time": 181.40510109375,
          "velocity": 0.952755905511811
        },
        {
          "duration": 0.1526153125000178,
          "durationTicks": 84,
          "midi": 70,
          "name": "A#4",
          "ticks": 100030,
          "time": 181.73940130208334,
          "velocity": 0.952755905511811
        },
        {
          "duration": 0.14898161458333448,
          "durationTicks": 82,
          "midi": 74,
          "name": "D5",
          "ticks": 100038,
          "time": 181.75393609375,
          "velocity": 0.9763779527559056
        },
        {
          "duration": 0.31249802083334544,
          "durationTicks": 172,
          "midi": 74,
          "name": "D5",
          "ticks": 100128,
          "time": 181.9174525,
          "velocity": 0.8976377952755905
        },
        {
          "duration": 0.31249802083334544,
          "durationTicks": 172,
          "midi": 79,
          "name": "G5",
          "ticks": 100128,
          "time": 181.9174525,
          "velocity": 0.937007874015748
        },
        {
          "duration": 0.279794739583366,
          "durationTicks": 154,
          "midi": 67,
          "name": "G4",
          "ticks": 100136,
          "time": 181.93198729166664,
          "velocity": 0.8976377952755905
        },
        {
          "duration": 0.2652599479166895,
          "durationTicks": 146,
          "midi": 70,
          "name": "A#4",
          "ticks": 100142,
          "time": 181.94288838541667,
          "velocity": 0.889763779527559
        },
        {
          "duration": 0.10901093749998836,
          "durationTicks": 60,
          "midi": 67,
          "name": "G4",
          "ticks": 100320,
          "time": 182.2662875,
          "velocity": 0.8582677165354331
        },
        {
          "duration": 0.07994135416666381,
          "durationTicks": 44,
          "midi": 70,
          "name": "A#4",
          "ticks": 100320,
          "time": 182.2662875,
          "velocity": 0.7952755905511811
        },
        {
          "duration": 0.12717942708334817,
          "durationTicks": 70,
          "midi": 67,
          "name": "G4",
          "ticks": 100416,
          "time": 182.440705,
          "velocity": 0.937007874015748
        },
        {
          "duration": 0.12354572916666484,
          "durationTicks": 68,
          "midi": 70,
          "name": "A#4",
          "ticks": 100428,
          "time": 182.4625071875,
          "velocity": 0.9133858267716536
        },
        {
          "duration": 0.13808052083334132,
          "durationTicks": 76,
          "midi": 74,
          "name": "D5",
          "ticks": 100428,
          "time": 182.4625071875,
          "velocity": 0.937007874015748
        },
        {
          "duration": 0.1526153124999894,
          "durationTicks": 84,
          "midi": 70,
          "name": "A#4",
          "ticks": 100512,
          "time": 182.6151225,
          "velocity": 0.7637795275590551
        },
        {
          "duration": 0.13808052083334132,
          "durationTicks": 76,
          "midi": 74,
          "name": "D5",
          "ticks": 100512,
          "time": 182.6151225,
          "velocity": 0.8582677165354331
        },
        {
          "duration": 0.34156760416664156,
          "durationTicks": 188,
          "midi": 79,
          "name": "G5",
          "ticks": 100512,
          "time": 182.6151225,
          "velocity": 0.8582677165354331
        },
        {
          "duration": 0.22528927083334338,
          "durationTicks": 124,
          "midi": 70,
          "name": "A#4",
          "ticks": 100608,
          "time": 182.78954000000002,
          "velocity": 0.9133858267716536
        },
        {
          "duration": 0.28342843749999247,
          "durationTicks": 156,
          "midi": 74,
          "name": "D5",
          "ticks": 100608,
          "time": 182.78954000000002,
          "velocity": 0.8582677165354331
        },
        {
          "duration": 0.4433111458333485,
          "durationTicks": 244,
          "midi": 67,
          "name": "G4",
          "ticks": 100614,
          "time": 182.80044109375,
          "velocity": 0.905511811023622
        },
        {
          "duration": 0.16715010416666587,
          "durationTicks": 92,
          "midi": 69,
          "name": "A4",
          "ticks": 100704,
          "time": 182.9639575,
          "velocity": 0.9212598425196851
        },
        {
          "duration": 0.13808052083334132,
          "durationTicks": 76,
          "midi": 70,
          "name": "A#4",
          "ticks": 100796,
          "time": 183.13110760416666,
          "velocity": 0.9448818897637795
        },
        {
          "duration": 0.10901093750001678,
          "durationTicks": 60,
          "midi": 74,
          "name": "D5",
          "ticks": 100808,
          "time": 183.15290979166664,
          "velocity": 0.9763779527559056
        },
        {
          "duration": 0.09447614583336872,
          "durationTicks": 52,
          "midi": 79,
          "name": "G5",
          "ticks": 100808,
          "time": 183.15290979166664,
          "velocity": 0.6299212598425197
        },
        {
          "duration": 0.31249802083334544,
          "durationTicks": 172,
          "midi": 67,
          "name": "G4",
          "ticks": 100896,
          "time": 183.3127925,
          "velocity": 0.7637795275590551
        },
        {
          "duration": 0.2107544791666669,
          "durationTicks": 116,
          "midi": 70,
          "name": "A#4",
          "ticks": 100896,
          "time": 183.3127925,
          "velocity": 0.8661417322834646
        },
        {
          "duration": 0.2107544791666669,
          "durationTicks": 116,
          "midi": 74,
          "name": "D5",
          "ticks": 100896,
          "time": 183.3127925,
          "velocity": 0.8976377952755905
        },
        {
          "duration": 0.31613171875000035,
          "durationTicks": 174,
          "midi": 79,
          "name": "G5",
          "ticks": 100896,
          "time": 183.3127925,
          "velocity": 0.937007874015748
        },
        {
          "duration": 0.23982406249999144,
          "durationTicks": 132,
          "midi": 69,
          "name": "A4",
          "ticks": 101012,
          "time": 183.52354697916667,
          "velocity": 0.9763779527559056
        },
        {
          "duration": 0.10901093749998836,
          "durationTicks": 60,
          "midi": 67,
          "name": "G4",
          "ticks": 101088,
          "time": 183.6616275,
          "velocity": 0.8582677165354331
        },
        {
          "duration": 0.0944761458333403,
          "durationTicks": 52,
          "midi": 70,
          "name": "A#4",
          "ticks": 101088,
          "time": 183.6616275,
          "velocity": 0.8503937007874016
        },
        {
          "duration": 0.29796322916666895,
          "durationTicks": 164,
          "midi": 67,
          "name": "G4",
          "ticks": 101176,
          "time": 183.82151020833334,
          "velocity": 0.984251968503937
        },
        {
          "duration": 0.12354572916669326,
          "durationTicks": 68,
          "midi": 70,
          "name": "A#4",
          "ticks": 101192,
          "time": 183.85057979166666,
          "velocity": 0.9291338582677166
        },
        {
          "duration": 0.16351640625001096,
          "durationTicks": 90,
          "midi": 74,
          "name": "D5",
          "ticks": 101194,
          "time": 183.85421348958334,
          "velocity": 0.937007874015748
        },
        {
          "duration": 0.1526153124999894,
          "durationTicks": 84,
          "midi": 70,
          "name": "A#4",
          "ticks": 101288,
          "time": 184.02499729166666,
          "velocity": 0.7637795275590551
        },
        {
          "duration": 0.13808052083334132,
          "durationTicks": 76,
          "midi": 74,
          "name": "D5",
          "ticks": 101288,
          "time": 184.02499729166666,
          "velocity": 0.8582677165354331
        },
        {
          "duration": 0.1671501041666943,
          "durationTicks": 92,
          "midi": 79,
          "name": "G5",
          "ticks": 101288,
          "time": 184.02499729166666,
          "velocity": 0.8582677165354331
        },
        {
          "duration": 0.33793390625001507,
          "durationTicks": 186,
          "midi": 69,
          "name": "A4",
          "ticks": 101376,
          "time": 184.18488,
          "velocity": 0.9448818897637795
        },
        {
          "duration": 0.48691552083334955,
          "durationTicks": 268,
          "midi": 62,
          "name": "D4",
          "ticks": 101382,
          "time": 184.19578109375,
          "velocity": 0.952755905511811
        },
        {
          "duration": 0.31976541666665526,
          "durationTicks": 176,
          "midi": 72,
          "name": "C5",
          "ticks": 101388,
          "time": 184.2066821875,
          "velocity": 0.9763779527559056
        },
        {
          "duration": 0.31976541666665526,
          "durationTicks": 176,
          "midi": 78,
          "name": "F#5",
          "ticks": 101388,
          "time": 184.2066821875,
          "velocity": 0.6299212598425197
        },
        {
          "duration": 0.00363369791665491,
          "durationTicks": 2,
          "midi": 69,
          "name": "A4",
          "ticks": 101566,
          "time": 184.53008130208335,
          "velocity": 0.952755905511811
        },
        {
          "duration": 0.1489816145833629,
          "durationTicks": 82,
          "midi": 72,
          "name": "C5",
          "ticks": 101574,
          "time": 184.54461609375,
          "velocity": 0.9763779527559056
        },
        {
          "duration": 0.31249802083334544,
          "durationTicks": 172,
          "midi": 72,
          "name": "C5",
          "ticks": 101664,
          "time": 184.7081325,
          "velocity": 0.8976377952755905
        },
        {
          "duration": 0.31249802083334544,
          "durationTicks": 172,
          "midi": 78,
          "name": "F#5",
          "ticks": 101664,
          "time": 184.7081325,
          "velocity": 0.937007874015748
        },
        {
          "duration": 0.27979473958333756,
          "durationTicks": 154,
          "midi": 62,
          "name": "D4",
          "ticks": 101672,
          "time": 184.72266729166665,
          "velocity": 0.8976377952755905
        },
        {
          "duration": 0.2652599479166895,
          "durationTicks": 146,
          "midi": 69,
          "name": "A4",
          "ticks": 101678,
          "time": 184.73356838541665,
          "velocity": 0.889763779527559
        },
        {
          "duration": 0.10901093749998836,
          "durationTicks": 60,
          "midi": 62,
          "name": "D4",
          "ticks": 101856,
          "time": 185.0569675,
          "velocity": 0.8582677165354331
        },
        {
          "duration": 0.07994135416663539,
          "durationTicks": 44,
          "midi": 69,
          "name": "A4",
          "ticks": 101856,
          "time": 185.0569675,
          "velocity": 0.7952755905511811
        },
        {
          "duration": 0.12717942708331975,
          "durationTicks": 70,
          "midi": 62,
          "name": "D4",
          "ticks": 101952,
          "time": 185.23138500000002,
          "velocity": 0.937007874015748
        },
        {
          "duration": 0.12354572916666484,
          "durationTicks": 68,
          "midi": 69,
          "name": "A4",
          "ticks": 101964,
          "time": 185.2531871875,
          "velocity": 0.9133858267716536
        },
        {
          "duration": 0.13808052083334132,
          "durationTicks": 76,
          "midi": 72,
          "name": "C5",
          "ticks": 101964,
          "time": 185.2531871875,
          "velocity": 0.937007874015748
        },
        {
          "duration": 0.1526153125000178,
          "durationTicks": 84,
          "midi": 69,
          "name": "A4",
          "ticks": 102048,
          "time": 185.4058025,
          "velocity": 0.7637795275590551
        },
        {
          "duration": 0.13808052083336975,
          "durationTicks": 76,
          "midi": 72,
          "name": "C5",
          "ticks": 102048,
          "time": 185.4058025,
          "velocity": 0.8582677165354331
        },
        {
          "duration": 0.13808052083336975,
          "durationTicks": 76,
          "midi": 78,
          "name": "F#5",
          "ticks": 102048,
          "time": 185.4058025,
          "velocity": 0.8582677165354331
        },
        {
          "duration": 0.22528927083334338,
          "durationTicks": 124,
          "midi": 69,
          "name": "A4",
          "ticks": 102144,
          "time": 185.58022,
          "velocity": 0.9133858267716536
        },
        {
          "duration": 0.28342843749999247,
          "durationTicks": 156,
          "midi": 72,
          "name": "C5",
          "ticks": 102144,
          "time": 185.58022,
          "velocity": 0.8582677165354331
        },
        {
          "duration": 0.4433111458333485,
          "durationTicks": 244,
          "midi": 60,
          "name": "C4",
          "ticks": 102150,
          "time": 185.59112109375,
          "velocity": 0.937007874015748
        },
        {
          "duration": 0.19621968750001884,
          "durationTicks": 108,
          "midi": 78,
          "name": "F#5",
          "ticks": 102152,
          "time": 185.59475479166665,
          "velocity": 0.8661417322834646
        },
        {
          "duration": 0.13808052083334132,
          "durationTicks": 76,
          "midi": 69,
          "name": "A4",
          "ticks": 102332,
          "time": 185.92178760416667,
          "velocity": 0.9448818897637795
        },
        {
          "duration": 0.10901093750001678,
          "durationTicks": 60,
          "midi": 72,
          "name": "C5",
          "ticks": 102344,
          "time": 185.94358979166665,
          "velocity": 0.9763779527559056
        },
        {
          "duration": 0.0944761458333403,
          "durationTicks": 52,
          "midi": 78,
          "name": "F#5",
          "ticks": 102344,
          "time": 185.94358979166665,
          "velocity": 0.6299212598425197
        },
        {
          "duration": 0.31249802083334544,
          "durationTicks": 172,
          "midi": 69,
          "name": "A4",
          "ticks": 102432,
          "time": 186.1034725,
          "velocity": 0.8661417322834646
        },
        {
          "duration": 0.29796322916664053,
          "durationTicks": 164,
          "midi": 72,
          "name": "C5",
          "ticks": 102432,
          "time": 186.1034725,
          "velocity": 0.8976377952755905
        },
        {
          "duration": 0.31613171875000035,
          "durationTicks": 174,
          "midi": 78,
          "name": "F#5",
          "ticks": 102432,
          "time": 186.1034725,
          "velocity": 0.937007874015748
        },
        {
          "duration": 0.27979473958330914,
          "durationTicks": 154,
          "midi": 58,
          "name": "A#3",
          "ticks": 102538,
          "time": 186.29605848958334,
          "velocity": 0.9763779527559056
        },
        {
          "duration": 0.12354572916666484,
          "durationTicks": 68,
          "midi": 69,
          "name": "A4",
          "ticks": 102624,
          "time": 186.4523075,
          "velocity": 0.8503937007874016
        },
        {
          "duration": 0.3052306250000072,
          "durationTicks": 168,
          "midi": 57,
          "name": "A3",
          "ticks": 102720,
          "time": 186.626725,
          "velocity": 0.968503937007874
        },
        {
          "duration": 0.12354572916669326,
          "durationTicks": 68,
          "midi": 69,
          "name": "A4",
          "ticks": 102728,
          "time": 186.64125979166667,
          "velocity": 0.9291338582677166
        },
        {
          "duration": 0.16351640624998254,
          "durationTicks": 90,
          "midi": 72,
          "name": "C5",
          "ticks": 102730,
          "time": 186.64489348958335,
          "velocity": 0.937007874015748
        },
        {
          "duration": 0.1526153125000178,
          "durationTicks": 84,
          "midi": 69,
          "name": "A4",
          "ticks": 102824,
          "time": 186.81567729166665,
          "velocity": 0.7637795275590551
        },
        {
          "duration": 0.1526153125000178,
          "durationTicks": 84,
          "midi": 72,
          "name": "C5",
          "ticks": 102824,
          "time": 186.81567729166665,
          "velocity": 0.8582677165354331
        },
        {
          "duration": 0.2979632291666974,
          "durationTicks": 164,
          "midi": 78,
          "name": "F#5",
          "ticks": 102824,
          "time": 186.81567729166665,
          "velocity": 0.8582677165354331
        },
        {
          "duration": 0.3270328124999935,
          "durationTicks": 180,
          "midi": 55,
          "name": "G3",
          "ticks": 102904,
          "time": 186.96102520833335,
          "velocity": 0.9448818897637795
        },
        {
          "duration": 0.2543588541666679,
          "durationTicks": 140,
          "midi": 70,
          "name": "A#4",
          "ticks": 102912,
          "time": 186.97556,
          "velocity": 0.7401574803149606
        },
        {
          "duration": 0.48691552083334955,
          "durationTicks": 268,
          "midi": 67,
          "name": "G4",
          "ticks": 102918,
          "time": 186.98646109375,
          "velocity": 0.952755905511811
        },
        {
          "duration": 0.1526153124999894,
          "durationTicks": 84,
          "midi": 70,
          "name": "A#4",
          "ticks": 103102,
          "time": 187.32076130208335,
          "velocity": 0.952755905511811
        },
        {
          "duration": 0.14898161458333448,
          "durationTicks": 82,
          "midi": 74,
          "name": "D5",
          "ticks": 103110,
          "time": 187.33529609375,
          "velocity": 0.9763779527559056
        },
        {
          "duration": 0.31249802083334544,
          "durationTicks": 172,
          "midi": 74,
          "name": "D5",
          "ticks": 103200,
          "time": 187.4988125,
          "velocity": 0.8976377952755905
        },
        {
          "duration": 0.31249802083334544,
          "durationTicks": 172,
          "midi": 79,
          "name": "G5",
          "ticks": 103200,
          "time": 187.4988125,
          "velocity": 0.937007874015748
        },
        {
          "duration": 0.27979473958333756,
          "durationTicks": 154,
          "midi": 67,
          "name": "G4",
          "ticks": 103208,
          "time": 187.51334729166666,
          "velocity": 0.8976377952755905
        },
        {
          "duration": 0.2652599479166895,
          "durationTicks": 146,
          "midi": 70,
          "name": "A#4",
          "ticks": 103214,
          "time": 187.52424838541666,
          "velocity": 0.889763779527559
        },
        {
          "duration": 0.10901093750001678,
          "durationTicks": 60,
          "midi": 67,
          "name": "G4",
          "ticks": 103392,
          "time": 187.8476475,
          "velocity": 0.8582677165354331
        },
        {
          "duration": 0.07994135416666381,
          "durationTicks": 44,
          "midi": 70,
          "name": "A#4",
          "ticks": 103392,
          "time": 187.8476475,
          "velocity": 0.7952755905511811
        },
        {
          "duration": 0.12717942708334817,
          "durationTicks": 70,
          "midi": 67,
          "name": "G4",
          "ticks": 103488,
          "time": 188.022065,
          "velocity": 0.937007874015748
        },
        {
          "duration": 0.12354572916663642,
          "durationTicks": 68,
          "midi": 70,
          "name": "A#4",
          "ticks": 103500,
          "time": 188.0438671875,
          "velocity": 0.9133858267716536
        },
        {
          "duration": 0.13808052083334132,
          "durationTicks": 76,
          "midi": 74,
          "name": "D5",
          "ticks": 103500,
          "time": 188.0438671875,
          "velocity": 0.937007874015748
        },
        {
          "duration": 0.1526153124999894,
          "durationTicks": 84,
          "midi": 70,
          "name": "A#4",
          "ticks": 103584,
          "time": 188.1964825,
          "velocity": 0.7637795275590551
        },
        {
          "duration": 0.13808052083334132,
          "durationTicks": 76,
          "midi": 74,
          "name": "D5",
          "ticks": 103584,
          "time": 188.1964825,
          "velocity": 0.8582677165354331
        },
        {
          "duration": 0.34156760416664156,
          "durationTicks": 188,
          "midi": 79,
          "name": "G5",
          "ticks": 103584,
          "time": 188.1964825,
          "velocity": 0.8582677165354331
        },
        {
          "duration": 0.22528927083334338,
          "durationTicks": 124,
          "midi": 70,
          "name": "A#4",
          "ticks": 103680,
          "time": 188.3709,
          "velocity": 0.9133858267716536
        },
        {
          "duration": 0.28342843749999247,
          "durationTicks": 156,
          "midi": 74,
          "name": "D5",
          "ticks": 103680,
          "time": 188.3709,
          "velocity": 0.8582677165354331
        },
        {
          "duration": 0.4433111458333485,
          "durationTicks": 244,
          "midi": 67,
          "name": "G4",
          "ticks": 103686,
          "time": 188.38180109375,
          "velocity": 0.905511811023622
        },
        {
          "duration": 0.16715010416663745,
          "durationTicks": 92,
          "midi": 69,
          "name": "A4",
          "ticks": 103776,
          "time": 188.5453175,
          "velocity": 0.9212598425196851
        },
        {
          "duration": 0.13808052083336975,
          "durationTicks": 76,
          "midi": 70,
          "name": "A#4",
          "ticks": 103868,
          "time": 188.71246760416665,
          "velocity": 0.9448818897637795
        },
        {
          "duration": 0.10901093749998836,
          "durationTicks": 60,
          "midi": 74,
          "name": "D5",
          "ticks": 103880,
          "time": 188.73426979166666,
          "velocity": 0.9763779527559056
        },
        {
          "duration": 0.0944761458333403,
          "durationTicks": 52,
          "midi": 79,
          "name": "G5",
          "ticks": 103880,
          "time": 188.73426979166666,
          "velocity": 0.6299212598425197
        },
        {
          "duration": 0.31249802083337386,
          "durationTicks": 172,
          "midi": 67,
          "name": "G4",
          "ticks": 103968,
          "time": 188.8941525,
          "velocity": 0.7637795275590551
        },
        {
          "duration": 0.2107544791666669,
          "durationTicks": 116,
          "midi": 70,
          "name": "A#4",
          "ticks": 103968,
          "time": 188.8941525,
          "velocity": 0.8661417322834646
        },
        {
          "duration": 0.2107544791666669,
          "durationTicks": 116,
          "midi": 74,
          "name": "D5",
          "ticks": 103968,
          "time": 188.8941525,
          "velocity": 0.8976377952755905
        },
        {
          "duration": 0.31613171875000035,
          "durationTicks": 174,
          "midi": 79,
          "name": "G5",
          "ticks": 103968,
          "time": 188.8941525,
          "velocity": 0.937007874015748
        },
        {
          "duration": 0.23982406249999144,
          "durationTicks": 132,
          "midi": 69,
          "name": "A4",
          "ticks": 104084,
          "time": 189.10490697916666,
          "velocity": 0.9763779527559056
        },
        {
          "duration": 0.10901093750001678,
          "durationTicks": 60,
          "midi": 67,
          "name": "G4",
          "ticks": 104160,
          "time": 189.2429875,
          "velocity": 0.8582677165354331
        },
        {
          "duration": 0.0944761458333403,
          "durationTicks": 52,
          "midi": 70,
          "name": "A#4",
          "ticks": 104160,
          "time": 189.2429875,
          "velocity": 0.8503937007874016
        },
        {
          "duration": 0.29796322916664053,
          "durationTicks": 164,
          "midi": 67,
          "name": "G4",
          "ticks": 104248,
          "time": 189.40287020833335,
          "velocity": 0.984251968503937
        },
        {
          "duration": 0.12354572916669326,
          "durationTicks": 68,
          "midi": 70,
          "name": "A#4",
          "ticks": 104264,
          "time": 189.43193979166665,
          "velocity": 0.9291338582677166
        },
        {
          "duration": 0.16351640624998254,
          "durationTicks": 90,
          "midi": 74,
          "name": "D5",
          "ticks": 104266,
          "time": 189.43557348958336,
          "velocity": 0.937007874015748
        },
        {
          "duration": 0.1526153124999894,
          "durationTicks": 84,
          "midi": 70,
          "name": "A#4",
          "ticks": 104360,
          "time": 189.60635729166665,
          "velocity": 0.7637795275590551
        },
        {
          "duration": 0.13808052083334132,
          "durationTicks": 76,
          "midi": 74,
          "name": "D5",
          "ticks": 104360,
          "time": 189.60635729166665,
          "velocity": 0.8582677165354331
        },
        {
          "duration": 0.1671501041666943,
          "durationTicks": 92,
          "midi": 79,
          "name": "G5",
          "ticks": 104360,
          "time": 189.60635729166665,
          "velocity": 0.8582677165354331
        },
        {
          "duration": 0.2543588541666395,
          "durationTicks": 140,
          "midi": 70,
          "name": "A#4",
          "ticks": 104448,
          "time": 189.76624,
          "velocity": 0.7401574803149606
        },
        {
          "duration": 0.48691552083334955,
          "durationTicks": 268,
          "midi": 67,
          "name": "G4",
          "ticks": 104454,
          "time": 189.77714109375,
          "velocity": 0.952755905511811
        },
        {
          "duration": 0.1526153124999894,
          "durationTicks": 84,
          "midi": 70,
          "name": "A#4",
          "ticks": 104638,
          "time": 190.11144130208336,
          "velocity": 0.952755905511811
        },
        {
          "duration": 0.14898161458333448,
          "durationTicks": 82,
          "midi": 74,
          "name": "D5",
          "ticks": 104646,
          "time": 190.12597609375,
          "velocity": 0.9763779527559056
        },
        {
          "duration": 0.31249802083334544,
          "durationTicks": 172,
          "midi": 74,
          "name": "D5",
          "ticks": 104736,
          "time": 190.2894925,
          "velocity": 0.8976377952755905
        },
        {
          "duration": 0.31249802083334544,
          "durationTicks": 172,
          "midi": 79,
          "name": "G5",
          "ticks": 104736,
          "time": 190.2894925,
          "velocity": 0.937007874015748
        },
        {
          "duration": 0.27979473958333756,
          "durationTicks": 154,
          "midi": 67,
          "name": "G4",
          "ticks": 104744,
          "time": 190.30402729166667,
          "velocity": 0.8976377952755905
        },
        {
          "duration": 0.2652599479166895,
          "durationTicks": 146,
          "midi": 70,
          "name": "A#4",
          "ticks": 104750,
          "time": 190.31492838541666,
          "velocity": 0.889763779527559
        },
        {
          "duration": 0.10901093749998836,
          "durationTicks": 60,
          "midi": 67,
          "name": "G4",
          "ticks": 104928,
          "time": 190.6383275,
          "velocity": 0.8582677165354331
        },
        {
          "duration": 0.07994135416666381,
          "durationTicks": 44,
          "midi": 70,
          "name": "A#4",
          "ticks": 104928,
          "time": 190.6383275,
          "velocity": 0.7952755905511811
        },
        {
          "duration": 0.12717942708334817,
          "durationTicks": 70,
          "midi": 67,
          "name": "G4",
          "ticks": 105024,
          "time": 190.812745,
          "velocity": 0.937007874015748
        },
        {
          "duration": 0.12354572916666484,
          "durationTicks": 68,
          "midi": 70,
          "name": "A#4",
          "ticks": 105036,
          "time": 190.8345471875,
          "velocity": 0.9133858267716536
        },
        {
          "duration": 0.13808052083336975,
          "durationTicks": 76,
          "midi": 74,
          "name": "D5",
          "ticks": 105036,
          "time": 190.8345471875,
          "velocity": 0.937007874015748
        },
        {
          "duration": 0.1526153124999894,
          "durationTicks": 84,
          "midi": 70,
          "name": "A#4",
          "ticks": 105120,
          "time": 190.9871625,
          "velocity": 0.7637795275590551
        },
        {
          "duration": 0.13808052083334132,
          "durationTicks": 76,
          "midi": 74,
          "name": "D5",
          "ticks": 105120,
          "time": 190.9871625,
          "velocity": 0.8582677165354331
        },
        {
          "duration": 0.34156760416664156,
          "durationTicks": 188,
          "midi": 79,
          "name": "G5",
          "ticks": 105120,
          "time": 190.9871625,
          "velocity": 0.8582677165354331
        },
        {
          "duration": 0.26525994791663265,
          "durationTicks": 146,
          "midi": 70,
          "name": "A#4",
          "ticks": 105216,
          "time": 191.16158000000001,
          "velocity": 0.9133858267716536
        },
        {
          "duration": 0.28342843749999247,
          "durationTicks": 156,
          "midi": 74,
          "name": "D5",
          "ticks": 105216,
          "time": 191.16158000000001,
          "velocity": 0.8582677165354331
        },
        {
          "duration": 0.24345776041664635,
          "durationTicks": 134,
          "midi": 67,
          "name": "G4",
          "ticks": 105222,
          "time": 191.17248109375,
          "velocity": 0.905511811023622
        },
        {
          "duration": 0.13808052083334132,
          "durationTicks": 76,
          "midi": 70,
          "name": "A#4",
          "ticks": 105404,
          "time": 191.50314760416666,
          "velocity": 0.9448818897637795
        },
        {
          "duration": 0.10901093750001678,
          "durationTicks": 60,
          "midi": 74,
          "name": "D5",
          "ticks": 105416,
          "time": 191.52494979166664,
          "velocity": 0.9763779527559056
        },
        {
          "duration": 0.09447614583336872,
          "durationTicks": 52,
          "midi": 79,
          "name": "G5",
          "ticks": 105416,
          "time": 191.52494979166664,
          "velocity": 0.6299212598425197
        },
        {
          "duration": 2.7834126041666423,
          "durationTicks": 1532,
          "midi": 67,
          "name": "G4",
          "ticks": 105600,
          "time": 191.85925,
          "velocity": 0.8031496062992126
        },
        {
          "duration": 2.7834126041666423,
          "durationTicks": 1532,
          "midi": 70,
          "name": "A#4",
          "ticks": 105600,
          "time": 191.85925,
          "velocity": 0.905511811023622
        },
        {
          "duration": 2.7834126041666423,
          "durationTicks": 1532,
          "midi": 74,
          "name": "D5",
          "ticks": 105600,
          "time": 191.85925,
          "velocity": 0.937007874015748
        },
        {
          "duration": 2.7834126041666423,
          "durationTicks": 1532,
          "midi": 79,
          "name": "G5",
          "ticks": 105600,
          "time": 191.85925,
          "velocity": 0.9763779527559056
        }
      ]
    },
    {
      "channel": 0,
      "controlChanges": {
        "0": [
          {
            "number": 0,
            "ticks": 1536,
            "time": 2.79068,
            "value": 0
          }
        ],
        "7": [
          {
            "number": 7,
            "ticks": 1536,
            "time": 2.79068,
            "value": 0.6377952755905512
          }
        ],
        "10": [
          {
            "number": 10,
            "ticks": 1536,
            "time": 2.79068,
            "value": 0.5039370078740157
          }
        ],
        "11": [
          {
            "number": 11,
            "ticks": 1536,
            "time": 2.79068,
            "value": 1
          }
        ],
        "91": [
          {
            "number": 91,
            "ticks": 1536,
            "time": 2.79068,
            "value": 0.3779527559055118
          }
        ],
        "93": [
          {
            "number": 93,
            "ticks": 1536,
            "time": 2.79068,
            "value": 0.5669291338582677
          }
        ],
        "121": [
          {
            "number": 121,
            "ticks": 1536,
            "time": 2.79068,
            "value": 0
          }
        ]
      },
      "pitchBends": [
        {
          "ticks": 1536,
          "time": 2.79068,
          "value": 0
        }
      ],
      "instrument": {
        "family": "piano",
        "name": "acoustic grand piano",
        "number": 0
      },
      "name": "Guitar",
      "notes": []
    },
    {
      "channel": 4,
      "controlChanges": {
        "120": [
          {
            "number": 120,
            "ticks": 107400,
            "time": 195.129578125,
            "value": 0
          }
        ],
        "123": [
          {
            "number": 123,
            "ticks": 107472,
            "time": 195.26039125,
            "value": 0
          }
        ]
      },
      "pitchBends": [
        {
          "ticks": 72020,
          "time": 130.84946197916668,
          "value": 0.2257080078125
        },
        {
          "ticks": 72042,
          "time": 130.88943265625,
          "value": 0.9998779296875
        },
        {
          "ticks": 72468,
          "time": 131.6634103125,
          "value": 0.2579345703125
        },
        {
          "ticks": 72488,
          "time": 131.69974729166668,
          "value": 0
        }
      ],
      "instrument": {
        "family": "guitar",
        "name": "acoustic guitar (nylon)",
        "number": 24
      },
      "name": "",
      "notes": [
        {
          "duration": 0.15988270833332763,
          "durationTicks": 88,
          "midi": 54,
          "name": "F#3",
          "ticks": 61176,
          "time": 111.147551875,
          "velocity": 1
        },
        {
          "duration": 0.10901093750000257,
          "durationTicks": 60,
          "midi": 55,
          "name": "G3",
          "ticks": 61250,
          "time": 111.28199869791668,
          "velocity": 0.84251968503937
        },
        {
          "duration": 0.19621968749999041,
          "durationTicks": 108,
          "midi": 57,
          "name": "A3",
          "ticks": 61346,
          "time": 111.45641619791668,
          "velocity": 0.937007874015748
        },
        {
          "duration": 0.33430020833333174,
          "durationTicks": 184,
          "midi": 58,
          "name": "A#3",
          "ticks": 61442,
          "time": 111.63083369791667,
          "velocity": 1
        },
        {
          "duration": 0.1526153125000036,
          "durationTicks": 84,
          "midi": 60,
          "name": "C4",
          "ticks": 61630,
          "time": 111.97240130208333,
          "velocity": 0.905511811023622
        },
        {
          "duration": 0.3488350000000082,
          "durationTicks": 192,
          "midi": 62,
          "name": "D4",
          "ticks": 61728,
          "time": 112.1504525,
          "velocity": 0.984251968503937
        },
        {
          "duration": 0.1925859895833355,
          "durationTicks": 106,
          "midi": 67,
          "name": "G4",
          "ticks": 61916,
          "time": 112.49202010416667,
          "velocity": 1
        },
        {
          "duration": 0.5050840104166809,
          "durationTicks": 278,
          "midi": 67,
          "name": "G4",
          "ticks": 62230,
          "time": 113.06251067708332,
          "velocity": 1
        },
        {
          "duration": 0.34156760416667,
          "durationTicks": 188,
          "midi": 69,
          "name": "A4",
          "ticks": 62500,
          "time": 113.55305989583333,
          "velocity": 0.984251968503937
        },
        {
          "duration": 0.17078380208332078,
          "durationTicks": 94,
          "midi": 70,
          "name": "A#4",
          "ticks": 62690,
          "time": 113.89826119791668,
          "velocity": 1
        },
        {
          "duration": 0.003633697916669121,
          "durationTicks": 2,
          "midi": 71,
          "name": "B4",
          "ticks": 62832,
          "time": 114.15625375,
          "velocity": 0.6929133858267716
        },
        {
          "duration": 0.003633697916669121,
          "durationTicks": 2,
          "midi": 72,
          "name": "C5",
          "ticks": 62860,
          "time": 114.20712552083333,
          "velocity": 0.7716535433070866
        },
        {
          "duration": 0.036336979166648575,
          "durationTicks": 20,
          "midi": 74,
          "name": "D5",
          "ticks": 62882,
          "time": 114.24709619791668,
          "velocity": 0.889763779527559
        },
        {
          "duration": 0.00363369791665491,
          "durationTicks": 2,
          "midi": 74,
          "name": "D5",
          "ticks": 62930,
          "time": 114.33430494791668,
          "velocity": 0.9606299212598425
        },
        {
          "duration": 0.439677447916651,
          "durationTicks": 242,
          "midi": 74,
          "name": "D5",
          "ticks": 62978,
          "time": 114.42151369791668,
          "velocity": 1
        },
        {
          "duration": 0.385171979166671,
          "durationTicks": 212,
          "midi": 69,
          "name": "A4",
          "ticks": 63262,
          "time": 114.93749880208333,
          "velocity": 1
        },
        {
          "duration": 0.22165557291664584,
          "durationTicks": 122,
          "midi": 70,
          "name": "A#4",
          "ticks": 63476,
          "time": 115.32630447916668,
          "velocity": 1
        },
        {
          "duration": 0.2507251562499988,
          "durationTicks": 138,
          "midi": 67,
          "name": "G4",
          "ticks": 63654,
          "time": 115.64970359375,
          "velocity": 1
        },
        {
          "duration": 0.1925859895833213,
          "durationTicks": 106,
          "midi": 69,
          "name": "A4",
          "ticks": 63842,
          "time": 115.99127119791667,
          "velocity": 0.9133858267716536
        },
        {
          "duration": 0.18168489583332814,
          "durationTicks": 100,
          "midi": 70,
          "name": "A#4",
          "ticks": 63932,
          "time": 116.15478760416667,
          "velocity": 0.889763779527559
        },
        {
          "duration": 0.1526153125000036,
          "durationTicks": 84,
          "midi": 72,
          "name": "C5",
          "ticks": 64032,
          "time": 116.3364725,
          "velocity": 0.937007874015748
        },
        {
          "duration": 0.2107544791666669,
          "durationTicks": 116,
          "midi": 74,
          "name": "D5",
          "ticks": 64126,
          "time": 116.50725630208333,
          "velocity": 1
        },
        {
          "duration": 0.2143881770833218,
          "durationTicks": 118,
          "midi": 70,
          "name": "A#4",
          "ticks": 64224,
          "time": 116.68530750000001,
          "velocity": 0.9606299212598425
        },
        {
          "duration": 0.14898161458333448,
          "durationTicks": 82,
          "midi": 69,
          "name": "A4",
          "ticks": 64320,
          "time": 116.859725,
          "velocity": 0.9606299212598425
        },
        {
          "duration": 0.1744175000000041,
          "durationTicks": 96,
          "midi": 70,
          "name": "A#4",
          "ticks": 64416,
          "time": 117.0341425,
          "velocity": 0.9291338582677166
        },
        {
          "duration": 0.003633697916669121,
          "durationTicks": 2,
          "midi": 71,
          "name": "B4",
          "ticks": 64488,
          "time": 117.164955625,
          "velocity": 0.9133858267716536
        },
        {
          "duration": 0.06540656250000154,
          "durationTicks": 36,
          "midi": 72,
          "name": "C5",
          "ticks": 64516,
          "time": 117.21582739583333,
          "velocity": 1
        },
        {
          "duration": 0.07994135416666381,
          "durationTicks": 44,
          "midi": 72,
          "name": "C5",
          "ticks": 64560,
          "time": 117.29576875000001,
          "velocity": 0.9448818897637795
        },
        {
          "duration": 0.07994135416667802,
          "durationTicks": 44,
          "midi": 72,
          "name": "C5",
          "ticks": 64608,
          "time": 117.3829775,
          "velocity": 0.9448818897637795
        },
        {
          "duration": 0.07994135416667802,
          "durationTicks": 44,
          "midi": 72,
          "name": "C5",
          "ticks": 64656,
          "time": 117.47018625,
          "velocity": 0.9133858267716536
        },
        {
          "duration": 0.07994135416667802,
          "durationTicks": 44,
          "midi": 72,
          "name": "C5",
          "ticks": 64704,
          "time": 117.557395,
          "velocity": 0.9133858267716536
        },
        {
          "duration": 0.07994135416667802,
          "durationTicks": 44,
          "midi": 72,
          "name": "C5",
          "ticks": 64752,
          "time": 117.64460375,
          "velocity": 0.889763779527559
        },
        {
          "duration": 0.06540656250000154,
          "durationTicks": 36,
          "midi": 72,
          "name": "C5",
          "ticks": 64800,
          "time": 117.7318125,
          "velocity": 0.9133858267716536
        },
        {
          "duration": 0.0799413541666496,
          "durationTicks": 44,
          "midi": 72,
          "name": "C5",
          "ticks": 64844,
          "time": 117.81175385416668,
          "velocity": 0.9133858267716536
        },
        {
          "duration": 0.18168489583332814,
          "durationTicks": 100,
          "midi": 72,
          "name": "C5",
          "ticks": 64892,
          "time": 117.89896260416667,
          "velocity": 0.9133858267716536
        },
        {
          "duration": 0.12717942708334817,
          "durationTicks": 70,
          "midi": 70,
          "name": "A#4",
          "ticks": 65038,
          "time": 118.16422255208333,
          "velocity": 0.9212598425196851
        },
        {
          "duration": 0.07994135416667802,
          "durationTicks": 44,
          "midi": 69,
          "name": "A4",
          "ticks": 65202,
          "time": 118.46218578125,
          "velocity": 0.952755905511811
        },
        {
          "duration": 0.10174354166667854,
          "durationTicks": 56,
          "midi": 69,
          "name": "A4",
          "ticks": 65304,
          "time": 118.647504375,
          "velocity": 0.952755905511811
        },
        {
          "duration": 0.09084244791667118,
          "durationTicks": 50,
          "midi": 70,
          "name": "A#4",
          "ticks": 65374,
          "time": 118.77468380208333,
          "velocity": 0.8031496062992126
        },
        {
          "duration": 0.05813916666667751,
          "durationTicks": 32,
          "midi": 69,
          "name": "A4",
          "ticks": 65428,
          "time": 118.87279364583333,
          "velocity": 0.8582677165354331
        },
        {
          "duration": 0.07994135416667802,
          "durationTicks": 44,
          "midi": 65,
          "name": "F4",
          "ticks": 65472,
          "time": 118.952735,
          "velocity": 0.9448818897637795
        },
        {
          "duration": 0.09447614583335451,
          "durationTicks": 52,
          "midi": 65,
          "name": "F4",
          "ticks": 65590,
          "time": 119.16712317708333,
          "velocity": 1
        },
        {
          "duration": 0.3633697916666563,
          "durationTicks": 200,
          "midi": 65,
          "name": "F4",
          "ticks": 65714,
          "time": 119.39241244791667,
          "velocity": 1
        },
        {
          "duration": 0.16715010416668008,
          "durationTicks": 92,
          "midi": 65,
          "name": "F4",
          "ticks": 65952,
          "time": 119.8248225,
          "velocity": 0.9448818897637795
        },
        {
          "duration": 0.13081312499998887,
          "durationTicks": 72,
          "midi": 66,
          "name": "F#4",
          "ticks": 66066,
          "time": 120.03194328125001,
          "velocity": 0.952755905511811
        },
        {
          "duration": 0.1126446354166859,
          "durationTicks": 62,
          "midi": 66,
          "name": "F#4",
          "ticks": 66190,
          "time": 120.25723255208332,
          "velocity": 0.9291338582677166
        },
        {
          "duration": 0.12354572916667905,
          "durationTicks": 68,
          "midi": 66,
          "name": "F#4",
          "ticks": 66334,
          "time": 120.51885880208333,
          "velocity": 0.9606299212598425
        },
        {
          "duration": 0.1344468229166722,
          "durationTicks": 74,
          "midi": 66,
          "name": "F#4",
          "ticks": 66456,
          "time": 120.740514375,
          "velocity": 0.937007874015748
        },
        {
          "duration": 0.12717942708331975,
          "durationTicks": 70,
          "midi": 67,
          "name": "G4",
          "ticks": 66594,
          "time": 120.99123953125,
          "velocity": 0.937007874015748
        },
        {
          "duration": 0.10537723958331924,
          "durationTicks": 58,
          "midi": 69,
          "name": "A4",
          "ticks": 66738,
          "time": 121.25286578125001,
          "velocity": 0.984251968503937
        },
        {
          "duration": 0.23982406250000565,
          "durationTicks": 132,
          "midi": 69,
          "name": "A4",
          "ticks": 66862,
          "time": 121.47815505208332,
          "velocity": 1
        },
        {
          "duration": 0.09084244791667118,
          "durationTicks": 50,
          "midi": 69,
          "name": "A4",
          "ticks": 67032,
          "time": 121.787019375,
          "velocity": 0.905511811023622
        },
        {
          "duration": 0.10901093750000257,
          "durationTicks": 60,
          "midi": 70,
          "name": "A#4",
          "ticks": 67128,
          "time": 121.961436875,
          "velocity": 0.889763779527559
        },
        {
          "duration": 0.13808052083332711,
          "durationTicks": 76,
          "midi": 74,
          "name": "D5",
          "ticks": 67200,
          "time": 122.09225,
          "velocity": 1
        },
        {
          "duration": 0.10537723958333345,
          "durationTicks": 58,
          "midi": 70,
          "name": "A#4",
          "ticks": 67300,
          "time": 122.27393489583334,
          "velocity": 0.9133858267716536
        },
        {
          "duration": 0.10901093750000257,
          "durationTicks": 60,
          "midi": 69,
          "name": "A4",
          "ticks": 67394,
          "time": 122.44471869791667,
          "velocity": 0.9212598425196851
        },
        {
          "duration": 0.10537723958331924,
          "durationTicks": 58,
          "midi": 70,
          "name": "A#4",
          "ticks": 67484,
          "time": 122.60823510416668,
          "velocity": 0.9606299212598425
        },
        {
          "duration": 0.07994135416667802,
          "durationTicks": 44,
          "midi": 70,
          "name": "A#4",
          "ticks": 67584,
          "time": 122.78992,
          "velocity": 0.8818897637795275
        },
        {
          "duration": 0.07994135416667802,
          "durationTicks": 44,
          "midi": 70,
          "name": "A#4",
          "ticks": 67632,
          "time": 122.87712875,
          "velocity": 0.8976377952755905
        },
        {
          "duration": 0.07994135416667802,
          "durationTicks": 44,
          "midi": 70,
          "name": "A#4",
          "ticks": 67680,
          "time": 122.9643375,
          "velocity": 0.9212598425196851
        },
        {
          "duration": 0.07994135416667802,
          "durationTicks": 44,
          "midi": 70,
          "name": "A#4",
          "ticks": 67728,
          "time": 123.05154625,
          "velocity": 0.8661417322834646
        },
        {
          "duration": 0.07994135416667802,
          "durationTicks": 44,
          "midi": 70,
          "name": "A#4",
          "ticks": 67776,
          "time": 123.138755,
          "velocity": 0.889763779527559
        },
        {
          "duration": 0.07994135416666381,
          "durationTicks": 44,
          "midi": 70,
          "name": "A#4",
          "ticks": 67824,
          "time": 123.22596375,
          "velocity": 0.8503937007874016
        },
        {
          "duration": 0.07994135416666381,
          "durationTicks": 44,
          "midi": 70,
          "name": "A#4",
          "ticks": 67872,
          "time": 123.31317250000001,
          "velocity": 0.905511811023622
        },
        {
          "duration": 0.036336979166677,
          "durationTicks": 20,
          "midi": 70,
          "name": "A#4",
          "ticks": 67920,
          "time": 123.40038125,
          "velocity": 0.905511811023622
        },
        {
          "duration": 0.07994135416667802,
          "durationTicks": 44,
          "midi": 70,
          "name": "A#4",
          "ticks": 67968,
          "time": 123.48759,
          "velocity": 0.889763779527559
        },
        {
          "duration": 0.07994135416667802,
          "durationTicks": 44,
          "midi": 70,
          "name": "A#4",
          "ticks": 68016,
          "time": 123.57479875,
          "velocity": 0.8503937007874016
        },
        {
          "duration": 0.07994135416667802,
          "durationTicks": 44,
          "midi": 70,
          "name": "A#4",
          "ticks": 68064,
          "time": 123.6620075,
          "velocity": 0.905511811023622
        },
        {
          "duration": 0.036336979166677,
          "durationTicks": 20,
          "midi": 70,
          "name": "A#4",
          "ticks": 68112,
          "time": 123.74921625,
          "velocity": 0.905511811023622
        },
        {
          "duration": 0.07994135416666381,
          "durationTicks": 44,
          "midi": 72,
          "name": "C5",
          "ticks": 68160,
          "time": 123.836425,
          "velocity": 0.9448818897637795
        },
        {
          "duration": 0.2543588541666679,
          "durationTicks": 140,
          "midi": 72,
          "name": "C5",
          "ticks": 68208,
          "time": 123.92363375000001,
          "velocity": 0.905511811023622
        },
        {
          "duration": 0.07994135416667802,
          "durationTicks": 44,
          "midi": 74,
          "name": "D5",
          "ticks": 68352,
          "time": 124.18526,
          "velocity": 0.8818897637795275
        },
        {
          "duration": 0.07994135416667802,
          "durationTicks": 44,
          "midi": 74,
          "name": "D5",
          "ticks": 68400,
          "time": 124.27246875,
          "velocity": 0.8976377952755905
        },
        {
          "duration": 0.07994135416667802,
          "durationTicks": 44,
          "midi": 74,
          "name": "D5",
          "ticks": 68448,
          "time": 124.3596775,
          "velocity": 0.9212598425196851
        },
        {
          "duration": 0.07994135416666381,
          "durationTicks": 44,
          "midi": 74,
          "name": "D5",
          "ticks": 68496,
          "time": 124.44688625,
          "velocity": 0.8661417322834646
        },
        {
          "duration": 0.07994135416666381,
          "durationTicks": 44,
          "midi": 74,
          "name": "D5",
          "ticks": 68544,
          "time": 124.53409500000001,
          "velocity": 0.889763779527559
        },
        {
          "duration": 0.07994135416667802,
          "durationTicks": 44,
          "midi": 74,
          "name": "D5",
          "ticks": 68592,
          "time": 124.62130375,
          "velocity": 0.8503937007874016
        },
        {
          "duration": 0.07994135416667802,
          "durationTicks": 44,
          "midi": 74,
          "name": "D5",
          "ticks": 68640,
          "time": 124.7085125,
          "velocity": 0.905511811023622
        },
        {
          "duration": 0.036336979166677,
          "durationTicks": 20,
          "midi": 74,
          "name": "D5",
          "ticks": 68688,
          "time": 124.79572125,
          "velocity": 0.905511811023622
        },
        {
          "duration": 0.07994135416667802,
          "durationTicks": 44,
          "midi": 72,
          "name": "C5",
          "ticks": 68736,
          "time": 124.88293,
          "velocity": 0.889763779527559
        },
        {
          "duration": 0.2543588541666679,
          "durationTicks": 140,
          "midi": 72,
          "name": "C5",
          "ticks": 68784,
          "time": 124.97013875,
          "velocity": 0.8503937007874016
        },
        {
          "duration": 0.07994135416667802,
          "durationTicks": 44,
          "midi": 70,
          "name": "A#4",
          "ticks": 68928,
          "time": 125.231765,
          "velocity": 0.8818897637795275
        },
        {
          "duration": 0.25435885416668214,
          "durationTicks": 140,
          "midi": 70,
          "name": "A#4",
          "ticks": 68976,
          "time": 125.31897375,
          "velocity": 0.8976377952755905
        },
        {
          "duration": 0.07994135416667802,
          "durationTicks": 44,
          "midi": 74,
          "name": "D5",
          "ticks": 69120,
          "time": 125.5806,
          "velocity": 0.8818897637795275
        },
        {
          "duration": 0.07994135416666381,
          "durationTicks": 44,
          "midi": 74,
          "name": "D5",
          "ticks": 69168,
          "time": 125.66780875,
          "velocity": 0.8976377952755905
        },
        {
          "duration": 0.07994135416666381,
          "durationTicks": 44,
          "midi": 74,
          "name": "D5",
          "ticks": 69216,
          "time": 125.75501750000001,
          "velocity": 0.9212598425196851
        },
        {
          "duration": 0.07994135416667802,
          "durationTicks": 44,
          "midi": 74,
          "name": "D5",
          "ticks": 69264,
          "time": 125.84222625,
          "velocity": 0.8661417322834646
        },
        {
          "duration": 0.07994135416667802,
          "durationTicks": 44,
          "midi": 74,
          "name": "D5",
          "ticks": 69312,
          "time": 125.929435,
          "velocity": 0.889763779527559
        },
        {
          "duration": 0.07994135416667802,
          "durationTicks": 44,
          "midi": 74,
          "name": "D5",
          "ticks": 69360,
          "time": 126.01664375,
          "velocity": 0.8503937007874016
        },
        {
          "duration": 0.07994135416667802,
          "durationTicks": 44,
          "midi": 74,
          "name": "D5",
          "ticks": 69408,
          "time": 126.1038525,
          "velocity": 0.905511811023622
        },
        {
          "duration": 0.036336979166677,
          "durationTicks": 20,
          "midi": 74,
          "name": "D5",
          "ticks": 69456,
          "time": 126.19106125,
          "velocity": 0.905511811023622
        },
        {
          "duration": 0.07994135416666381,
          "durationTicks": 44,
          "midi": 74,
          "name": "D5",
          "ticks": 69504,
          "time": 126.27827,
          "velocity": 0.889763779527559
        },
        {
          "duration": 0.07994135416666381,
          "durationTicks": 44,
          "midi": 74,
          "name": "D5",
          "ticks": 69552,
          "time": 126.36547875000001,
          "velocity": 0.8503937007874016
        },
        {
          "duration": 0.07994135416667802,
          "durationTicks": 44,
          "midi": 74,
          "name": "D5",
          "ticks": 69600,
          "time": 126.4526875,
          "velocity": 0.905511811023622
        },
        {
          "duration": 0.036336979166677,
          "durationTicks": 20,
          "midi": 74,
          "name": "D5",
          "ticks": 69648,
          "time": 126.53989625,
          "velocity": 0.905511811023622
        },
        {
          "duration": 0.07994135416667802,
          "durationTicks": 44,
          "midi": 75,
          "name": "D#5",
          "ticks": 69696,
          "time": 126.627105,
          "velocity": 0.8818897637795275
        },
        {
          "duration": 0.07994135416667802,
          "durationTicks": 44,
          "midi": 75,
          "name": "D#5",
          "ticks": 69744,
          "time": 126.71431375,
          "velocity": 0.8976377952755905
        },
        {
          "duration": 0.07994135416667802,
          "durationTicks": 44,
          "midi": 75,
          "name": "D#5",
          "ticks": 69792,
          "time": 126.8015225,
          "velocity": 0.9212598425196851
        },
        {
          "duration": 0.07994135416666381,
          "durationTicks": 44,
          "midi": 75,
          "name": "D#5",
          "ticks": 69840,
          "time": 126.88873125,
          "velocity": 0.8661417322834646
        },
        {
          "duration": 0.07994135416666381,
          "durationTicks": 44,
          "midi": 74,
          "name": "D5",
          "ticks": 69888,
          "time": 126.97594000000001,
          "velocity": 0.889763779527559
        },
        {
          "duration": 0.07994135416667802,
          "durationTicks": 44,
          "midi": 74,
          "name": "D5",
          "ticks": 69936,
          "time": 127.06314875,
          "velocity": 0.8503937007874016
        },
        {
          "duration": 0.07994135416667802,
          "durationTicks": 44,
          "midi": 74,
          "name": "D5",
          "ticks": 69984,
          "time": 127.1503575,
          "velocity": 0.905511811023622
        },
        {
          "duration": 0.07994135416667802,
          "durationTicks": 44,
          "midi": 74,
          "name": "D5",
          "ticks": 70032,
          "time": 127.23756625,
          "velocity": 0.905511811023622
        },
        {
          "duration": 0.07994135416667802,
          "durationTicks": 44,
          "midi": 74,
          "name": "D5",
          "ticks": 70080,
          "time": 127.324775,
          "velocity": 0.889763779527559
        },
        {
          "duration": 0.07994135416667802,
          "durationTicks": 44,
          "midi": 74,
          "name": "D5",
          "ticks": 70128,
          "time": 127.41198375,
          "velocity": 0.8503937007874016
        },
        {
          "duration": 0.07994135416666381,
          "durationTicks": 44,
          "midi": 74,
          "name": "D5",
          "ticks": 70176,
          "time": 127.4991925,
          "velocity": 0.905511811023622
        },
        {
          "duration": 0.036336979166662786,
          "durationTicks": 20,
          "midi": 74,
          "name": "D5",
          "ticks": 70224,
          "time": 127.58640125000001,
          "velocity": 0.905511811023622
        },
        {
          "duration": 0.34156760416667,
          "durationTicks": 188,
          "midi": 72,
          "name": "C5",
          "ticks": 70272,
          "time": 127.67361,
          "velocity": 0.8740157480314961
        },
        {
          "duration": 0.29796322916666895,
          "durationTicks": 164,
          "midi": 70,
          "name": "A#4",
          "ticks": 70464,
          "time": 128.022445,
          "velocity": 0.8503937007874016
        },
        {
          "duration": 0.07994135416666381,
          "durationTicks": 44,
          "midi": 69,
          "name": "A4",
          "ticks": 70656,
          "time": 128.37128,
          "velocity": 0.8818897637795275
        },
        {
          "duration": 0.07994135416666381,
          "durationTicks": 44,
          "midi": 69,
          "name": "A4",
          "ticks": 70704,
          "time": 128.45848875000001,
          "velocity": 0.8976377952755905
        },
        {
          "duration": 0.07994135416669224,
          "durationTicks": 44,
          "midi": 69,
          "name": "A4",
          "ticks": 70752,
          "time": 128.5456975,
          "velocity": 0.9212598425196851
        },
        {
          "duration": 0.07994135416669224,
          "durationTicks": 44,
          "midi": 69,
          "name": "A4",
          "ticks": 70800,
          "time": 128.63290625,
          "velocity": 0.8661417322834646
        },
        {
          "duration": 0.07994135416669224,
          "durationTicks": 44,
          "midi": 69,
          "name": "A4",
          "ticks": 70848,
          "time": 128.720115,
          "velocity": 0.889763779527559
        },
        {
          "duration": 0.07994135416669224,
          "durationTicks": 44,
          "midi": 69,
          "name": "A4",
          "ticks": 70896,
          "time": 128.80732375,
          "velocity": 0.8503937007874016
        },
        {
          "duration": 0.07994135416669224,
          "durationTicks": 44,
          "midi": 69,
          "name": "A4",
          "ticks": 70944,
          "time": 128.8945325,
          "velocity": 0.905511811023622
        },
        {
          "duration": 0.07994135416666381,
          "durationTicks": 44,
          "midi": 69,
          "name": "A4",
          "ticks": 70992,
          "time": 128.98174125,
          "velocity": 0.905511811023622
        },
        {
          "duration": 0.07994135416666381,
          "durationTicks": 44,
          "midi": 69,
          "name": "A4",
          "ticks": 71040,
          "time": 129.06895,
          "velocity": 0.889763779527559
        },
        {
          "duration": 0.07994135416666381,
          "durationTicks": 44,
          "midi": 69,
          "name": "A4",
          "ticks": 71088,
          "time": 129.15615875,
          "velocity": 0.8503937007874016
        },
        {
          "duration": 0.07994135416666381,
          "durationTicks": 44,
          "midi": 69,
          "name": "A4",
          "ticks": 71136,
          "time": 129.2433675,
          "velocity": 0.905511811023622
        },
        {
          "duration": 0.036336979166662786,
          "durationTicks": 20,
          "midi": 69,
          "name": "A4",
          "ticks": 71184,
          "time": 129.33057625,
          "velocity": 0.905511811023622
        },
        {
          "duration": 0.07994135416666381,
          "durationTicks": 44,
          "midi": 69,
          "name": "A4",
          "ticks": 71232,
          "time": 129.417785,
          "velocity": 0.84251968503937
        },
        {
          "duration": 0.07994135416666381,
          "durationTicks": 44,
          "midi": 69,
          "name": "A4",
          "ticks": 71280,
          "time": 129.50499375,
          "velocity": 0.8031496062992126
        },
        {
          "duration": 0.07994135416666381,
          "durationTicks": 44,
          "midi": 69,
          "name": "A4",
          "ticks": 71328,
          "time": 129.5922025,
          "velocity": 0.8582677165354331
        },
        {
          "duration": 0.07994135416666381,
          "durationTicks": 44,
          "midi": 69,
          "name": "A4",
          "ticks": 71376,
          "time": 129.67941125000002,
          "velocity": 0.8582677165354331
        },
        {
          "duration": 0.07994135416669224,
          "durationTicks": 44,
          "midi": 69,
          "name": "A4",
          "ticks": 71424,
          "time": 129.76662,
          "velocity": 0.8818897637795275
        },
        {
          "duration": 0.07994135416669224,
          "durationTicks": 44,
          "midi": 69,
          "name": "A4",
          "ticks": 71472,
          "time": 129.85382875,
          "velocity": 0.8976377952755905
        },
        {
          "duration": 0.07994135416669224,
          "durationTicks": 44,
          "midi": 69,
          "name": "A4",
          "ticks": 71520,
          "time": 129.9410375,
          "velocity": 0.9212598425196851
        },
        {
          "duration": 0.07994135416669224,
          "durationTicks": 44,
          "midi": 69,
          "name": "A4",
          "ticks": 71568,
          "time": 130.02824625,
          "velocity": 0.8661417322834646
        },
        {
          "duration": 0.07994135416669224,
          "durationTicks": 44,
          "midi": 69,
          "name": "A4",
          "ticks": 71616,
          "time": 130.115455,
          "velocity": 0.889763779527559
        },
        {
          "duration": 0.07994135416666381,
          "durationTicks": 44,
          "midi": 69,
          "name": "A4",
          "ticks": 71664,
          "time": 130.20266375,
          "velocity": 0.8503937007874016
        },
        {
          "duration": 0.07994135416666381,
          "durationTicks": 44,
          "midi": 69,
          "name": "A4",
          "ticks": 71712,
          "time": 130.2898725,
          "velocity": 0.905511811023622
        },
        {
          "duration": 0.036336979166662786,
          "durationTicks": 20,
          "midi": 69,
          "name": "A4",
          "ticks": 71760,
          "time": 130.37708125,
          "velocity": 0.905511811023622
        },
        {
          "duration": 0.07994135416666381,
          "durationTicks": 44,
          "midi": 70,
          "name": "A#4",
          "ticks": 71808,
          "time": 130.46429,
          "velocity": 0.889763779527559
        },
        {
          "duration": 0.24345776041667477,
          "durationTicks": 134,
          "midi": 70,
          "name": "A#4",
          "ticks": 71856,
          "time": 130.55149875,
          "velocity": 0.8503937007874016
        },
        {
          "duration": 0.0036336979166833316,
          "durationTicks": 2,
          "midi": 70,
          "name": "A#4",
          "ticks": 71994,
          "time": 130.80222390625,
          "velocity": 0.905511811023622
        },
        {
          "duration": 0.3706371874999945,
          "durationTicks": 204,
          "midi": 68,
          "name": "G#4",
          "ticks": 72194,
          "time": 131.16559369791668,
          "velocity": 0.9291338582677166
        },
        {
          "duration": 0.04360437500000103,
          "durationTicks": 24,
          "midi": 77,
          "name": "F5",
          "ticks": 72328,
          "time": 131.40905145833332,
          "velocity": 0.8818897637795275
        },
        {
          "duration": 0.05450546874999418,
          "durationTicks": 30,
          "midi": 77,
          "name": "F5",
          "ticks": 72378,
          "time": 131.49989390625,
          "velocity": 0.8818897637795275
        },
        {
          "duration": 0.0763076562500089,
          "durationTicks": 42,
          "midi": 77,
          "name": "F5",
          "ticks": 72428,
          "time": 131.59073635416667,
          "velocity": 0.8188976377952756
        },
        {
          "duration": 0.18531859374999726,
          "durationTicks": 102,
          "midi": 77,
          "name": "F5",
          "ticks": 72480,
          "time": 131.6852125,
          "velocity": 0.8818897637795275
        },
        {
          "duration": 0.11991203125000993,
          "durationTicks": 66,
          "midi": 74,
          "name": "D5",
          "ticks": 72578,
          "time": 131.86326369791666,
          "velocity": 0.9763779527559056
        },
        {
          "duration": 0.12354572916666484,
          "durationTicks": 68,
          "midi": 72,
          "name": "C5",
          "ticks": 72674,
          "time": 132.03768119791667,
          "velocity": 0.905511811023622
        },
        {
          "duration": 0.134446822916658,
          "durationTicks": 74,
          "midi": 70,
          "name": "A#4",
          "ticks": 72766,
          "time": 132.20483130208333,
          "velocity": 0.8740157480314961
        },
        {
          "duration": 0.134446822916658,
          "durationTicks": 74,
          "midi": 69,
          "name": "A4",
          "ticks": 72862,
          "time": 132.37924880208334,
          "velocity": 0.9212598425196851
        },
        {
          "duration": 0.1526153124999894,
          "durationTicks": 84,
          "midi": 67,
          "name": "G4",
          "ticks": 72956,
          "time": 132.5500326041667,
          "velocity": 0.9212598425196851
        },
        {
          "duration": 0.10901093749998836,
          "durationTicks": 60,
          "midi": 69,
          "name": "A4",
          "ticks": 73058,
          "time": 132.73535119791669,
          "velocity": 0.8188976377952756
        },
        {
          "duration": 0.16715010416666587,
          "durationTicks": 92,
          "midi": 70,
          "name": "A#4",
          "ticks": 73152,
          "time": 132.906135,
          "velocity": 0.889763779527559
        },
        {
          "duration": 0.1380805208333129,
          "durationTicks": 76,
          "midi": 72,
          "name": "C5",
          "ticks": 73248,
          "time": 133.0805525,
          "velocity": 0.9212598425196851
        },
        {
          "duration": 0.1380805208333129,
          "durationTicks": 76,
          "midi": 74,
          "name": "D5",
          "ticks": 73344,
          "time": 133.25497000000001,
          "velocity": 0.9448818897637795
        },
        {
          "duration": 0.19621968750001884,
          "durationTicks": 108,
          "midi": 70,
          "name": "A#4",
          "ticks": 73440,
          "time": 133.4293875,
          "velocity": 0.889763779527559
        },
        {
          "duration": 0.11991203124998151,
          "durationTicks": 66,
          "midi": 69,
          "name": "A4",
          "ticks": 73542,
          "time": 133.61470609375002,
          "velocity": 0.8346456692913385
        },
        {
          "duration": 0.12354572916669326,
          "durationTicks": 68,
          "midi": 70,
          "name": "A#4",
          "ticks": 73630,
          "time": 133.77458880208331,
          "velocity": 0.8503937007874016
        },
        {
          "duration": 0.8466516145833225,
          "durationTicks": 466,
          "midi": 72,
          "name": "C5",
          "ticks": 73730,
          "time": 133.95627369791669,
          "velocity": 0.8503937007874016
        }
      ]
    },
    {
      "channel": 0,
      "controlChanges": {
        "0": [
          {
            "number": 0,
            "ticks": 1536,
            "time": 2.79068,
            "value": 0
          }
        ],
        "7": [
          {
            "number": 7,
            "ticks": 1536,
            "time": 2.79068,
            "value": 0.5118110236220472
          }
        ],
        "10": [
          {
            "number": 10,
            "ticks": 1536,
            "time": 2.79068,
            "value": 0.8503937007874016
          }
        ],
        "11": [
          {
            "number": 11,
            "ticks": 1536,
            "time": 2.79068,
            "value": 1
          }
        ],
        "91": [
          {
            "number": 91,
            "ticks": 1536,
            "time": 2.79068,
            "value": 0.49606299212598426
          }
        ],
        "93": [
          {
            "number": 93,
            "ticks": 1536,
            "time": 2.79068,
            "value": 0.15748031496062992
          }
        ],
        "121": [
          {
            "number": 121,
            "ticks": 1536,
            "time": 2.79068,
            "value": 0
          }
        ]
      },
      "pitchBends": [
        {
          "ticks": 1536,
          "time": 2.79068,
          "value": 0
        }
      ],
      "instrument": {
        "family": "piano",
        "name": "acoustic grand piano",
        "number": 0
      },
      "name": "Guitar",
      "notes": []
    },
    {
      "channel": 5,
      "controlChanges": {
        "120": [
          {
            "number": 120,
            "ticks": 107400,
            "time": 195.129578125,
            "value": 0
          }
        ],
        "123": [
          {
            "number": 123,
            "ticks": 107448,
            "time": 195.216786875,
            "value": 0
          }
        ]
      },
      "pitchBends": [],
      "instrument": {
        "family": "guitar",
        "name": "acoustic guitar (steel)",
        "number": 25
      },
      "name": "",
      "notes": [
        {
          "duration": 0.25435885416666704,
          "durationTicks": 140,
          "midi": 58,
          "name": "A#3",
          "ticks": 3072,
          "time": 5.58136,
          "velocity": 0.7007874015748031
        },
        {
          "duration": 0.48691552083333267,
          "durationTicks": 268,
          "midi": 55,
          "name": "G3",
          "ticks": 3078,
          "time": 5.59226109375,
          "velocity": 0.952755905511811
        },
        {
          "duration": 0.15261531250000004,
          "durationTicks": 84,
          "midi": 58,
          "name": "A#3",
          "ticks": 3262,
          "time": 5.926561302083333,
          "velocity": 0.9133858267716536
        },
        {
          "duration": 0.13808052083333422,
          "durationTicks": 76,
          "midi": 67,
          "name": "G4",
          "ticks": 3268,
          "time": 5.937462395833333,
          "velocity": 0.9763779527559056
        },
        {
          "duration": 0.18531859375000082,
          "durationTicks": 102,
          "midi": 62,
          "name": "D4",
          "ticks": 3270,
          "time": 5.94109609375,
          "velocity": 0.9763779527559056
        },
        {
          "duration": 0.3124980208333339,
          "durationTicks": 172,
          "midi": 62,
          "name": "D4",
          "ticks": 3376,
          "time": 6.133682083333333,
          "velocity": 0.8582677165354331
        },
        {
          "duration": 0.3124980208333339,
          "durationTicks": 172,
          "midi": 67,
          "name": "G4",
          "ticks": 3376,
          "time": 6.133682083333333,
          "velocity": 0.8582677165354331
        },
        {
          "duration": 0.16715010416666676,
          "durationTicks": 92,
          "midi": 55,
          "name": "G3",
          "ticks": 3552,
          "time": 6.4534475,
          "velocity": 0.8582677165354331
        },
        {
          "duration": 0.16715010416666676,
          "durationTicks": 92,
          "midi": 58,
          "name": "A#3",
          "ticks": 3552,
          "time": 6.4534475,
          "velocity": 0.7559055118110236
        },
        {
          "duration": 0.12717942708333307,
          "durationTicks": 70,
          "midi": 55,
          "name": "G3",
          "ticks": 3648,
          "time": 6.627865,
          "velocity": 0.937007874015748
        },
        {
          "duration": 0.13808052083333422,
          "durationTicks": 76,
          "midi": 67,
          "name": "G4",
          "ticks": 3658,
          "time": 6.646033489583333,
          "velocity": 0.937007874015748
        },
        {
          "duration": 0.14534791666666713,
          "durationTicks": 80,
          "midi": 58,
          "name": "A#3",
          "ticks": 3660,
          "time": 6.6496671875,
          "velocity": 0.8740157480314961
        },
        {
          "duration": 0.14534791666666713,
          "durationTicks": 80,
          "midi": 62,
          "name": "D4",
          "ticks": 3660,
          "time": 6.6496671875,
          "velocity": 0.937007874015748
        },
        {
          "duration": 0.16715010416666676,
          "durationTicks": 92,
          "midi": 58,
          "name": "A#3",
          "ticks": 3744,
          "time": 6.8022825000000005,
          "velocity": 0.7637795275590551
        },
        {
          "duration": 0.16715010416666676,
          "durationTicks": 92,
          "midi": 62,
          "name": "D4",
          "ticks": 3744,
          "time": 6.8022825000000005,
          "velocity": 0.8976377952755905
        },
        {
          "duration": 0.16715010416666676,
          "durationTicks": 92,
          "midi": 67,
          "name": "G4",
          "ticks": 3744,
          "time": 6.8022825000000005,
          "velocity": 0.7952755905511811
        },
        {
          "duration": 0.2834284374999996,
          "durationTicks": 156,
          "midi": 58,
          "name": "A#3",
          "ticks": 3840,
          "time": 6.9767,
          "velocity": 0.7244094488188977
        },
        {
          "duration": 0.2834284374999996,
          "durationTicks": 156,
          "midi": 62,
          "name": "D4",
          "ticks": 3840,
          "time": 6.9767,
          "velocity": 0.8582677165354331
        },
        {
          "duration": 0.44331114583333253,
          "durationTicks": 244,
          "midi": 55,
          "name": "G3",
          "ticks": 3846,
          "time": 6.98760109375,
          "velocity": 0.905511811023622
        },
        {
          "duration": 0.13808052083333244,
          "durationTicks": 76,
          "midi": 58,
          "name": "A#3",
          "ticks": 4028,
          "time": 7.318267604166667,
          "velocity": 0.905511811023622
        },
        {
          "duration": 0.15261531250000004,
          "durationTicks": 84,
          "midi": 62,
          "name": "D4",
          "ticks": 4040,
          "time": 7.340069791666667,
          "velocity": 0.9763779527559056
        },
        {
          "duration": 0.15261531250000004,
          "durationTicks": 84,
          "midi": 67,
          "name": "G4",
          "ticks": 4040,
          "time": 7.340069791666667,
          "velocity": 0.9763779527559056
        },
        {
          "duration": 0.3415676041666673,
          "durationTicks": 188,
          "midi": 58,
          "name": "A#3",
          "ticks": 4128,
          "time": 7.4999525,
          "velocity": 0.7480314960629921
        },
        {
          "duration": 0.3415676041666673,
          "durationTicks": 188,
          "midi": 62,
          "name": "D4",
          "ticks": 4128,
          "time": 7.4999525,
          "velocity": 0.8188976377952756
        },
        {
          "duration": 0.3415676041666673,
          "durationTicks": 188,
          "midi": 67,
          "name": "G4",
          "ticks": 4128,
          "time": 7.4999525,
          "velocity": 0.8188976377952756
        },
        {
          "duration": 0.1707838020833332,
          "durationTicks": 94,
          "midi": 55,
          "name": "G3",
          "ticks": 4320,
          "time": 7.8487875,
          "velocity": 0.8582677165354331
        },
        {
          "duration": 0.1707838020833332,
          "durationTicks": 94,
          "midi": 58,
          "name": "A#3",
          "ticks": 4320,
          "time": 7.8487875,
          "velocity": 0.8110236220472441
        },
        {
          "duration": 0.279794739583334,
          "durationTicks": 154,
          "midi": 55,
          "name": "G3",
          "ticks": 4418,
          "time": 8.026838697916666,
          "velocity": 0.937007874015748
        },
        {
          "duration": 0.26889364583333375,
          "durationTicks": 148,
          "midi": 58,
          "name": "A#3",
          "ticks": 4424,
          "time": 8.037739791666667,
          "velocity": 0.889763779527559
        },
        {
          "duration": 0.32339911458333503,
          "durationTicks": 178,
          "midi": 62,
          "name": "D4",
          "ticks": 4426,
          "time": 8.041373489583332,
          "velocity": 0.937007874015748
        },
        {
          "duration": 0.32339911458333503,
          "durationTicks": 178,
          "midi": 67,
          "name": "G4",
          "ticks": 4426,
          "time": 8.041373489583332,
          "velocity": 0.937007874015748
        },
        {
          "duration": 0.48691552083333356,
          "durationTicks": 268,
          "midi": 55,
          "name": "G3",
          "ticks": 4608,
          "time": 8.37204,
          "velocity": 0.952755905511811
        },
        {
          "duration": 0.2543588541666679,
          "durationTicks": 140,
          "midi": 58,
          "name": "A#3",
          "ticks": 4608,
          "time": 8.37204,
          "velocity": 0.7007874015748031
        },
        {
          "duration": 0.15261531250000004,
          "durationTicks": 84,
          "midi": 60,
          "name": "C4",
          "ticks": 4792,
          "time": 8.706340208333334,
          "velocity": 0.9133858267716536
        },
        {
          "duration": 0.16715010416666587,
          "durationTicks": 92,
          "midi": 67,
          "name": "G4",
          "ticks": 4798,
          "time": 8.717241302083334,
          "velocity": 0.9763779527559056
        },
        {
          "duration": 0.16715010416666765,
          "durationTicks": 92,
          "midi": 63,
          "name": "D#4",
          "ticks": 4800,
          "time": 8.720875,
          "velocity": 0.9763779527559056
        },
        {
          "duration": 0.2979632291666672,
          "durationTicks": 164,
          "midi": 60,
          "name": "C4",
          "ticks": 4896,
          "time": 8.8952925,
          "velocity": 0.7716535433070866
        },
        {
          "duration": 0.3124980208333348,
          "durationTicks": 172,
          "midi": 63,
          "name": "D#4",
          "ticks": 4906,
          "time": 8.913460989583333,
          "velocity": 0.8188976377952756
        },
        {
          "duration": 0.3124980208333348,
          "durationTicks": 172,
          "midi": 67,
          "name": "G4",
          "ticks": 4906,
          "time": 8.913460989583333,
          "velocity": 0.8188976377952756
        },
        {
          "duration": 0.16715010416666587,
          "durationTicks": 92,
          "midi": 55,
          "name": "G3",
          "ticks": 5082,
          "time": 9.233226406250001,
          "velocity": 0.8582677165354331
        },
        {
          "duration": 0.16715010416666587,
          "durationTicks": 92,
          "midi": 60,
          "name": "C4",
          "ticks": 5082,
          "time": 9.233226406250001,
          "velocity": 0.7559055118110236
        },
        {
          "duration": 0.12717942708333396,
          "durationTicks": 70,
          "midi": 55,
          "name": "G3",
          "ticks": 5178,
          "time": 9.40764390625,
          "velocity": 0.937007874015748
        },
        {
          "duration": 0.13808052083333422,
          "durationTicks": 76,
          "midi": 67,
          "name": "G4",
          "ticks": 5188,
          "time": 9.425812395833333,
          "velocity": 0.937007874015748
        },
        {
          "duration": 0.14534791666666713,
          "durationTicks": 80,
          "midi": 60,
          "name": "C4",
          "ticks": 5190,
          "time": 9.42944609375,
          "velocity": 0.8740157480314961
        },
        {
          "duration": 0.14534791666666713,
          "durationTicks": 80,
          "midi": 63,
          "name": "D#4",
          "ticks": 5190,
          "time": 9.42944609375,
          "velocity": 0.937007874015748
        },
        {
          "duration": 0.16715010416666765,
          "durationTicks": 92,
          "midi": 60,
          "name": "C4",
          "ticks": 5274,
          "time": 9.58206140625,
          "velocity": 0.7637795275590551
        },
        {
          "duration": 0.16715010416666765,
          "durationTicks": 92,
          "midi": 63,
          "name": "D#4",
          "ticks": 5274,
          "time": 9.58206140625,
          "velocity": 0.8976377952755905
        },
        {
          "duration": 0.16715010416666765,
          "durationTicks": 92,
          "midi": 67,
          "name": "G4",
          "ticks": 5274,
          "time": 9.58206140625,
          "velocity": 0.7952755905511811
        },
        {
          "duration": 0.2834284374999996,
          "durationTicks": 156,
          "midi": 60,
          "name": "C4",
          "ticks": 5370,
          "time": 9.75647890625,
          "velocity": 0.7244094488188977
        },
        {
          "duration": 0.2834284374999996,
          "durationTicks": 156,
          "midi": 63,
          "name": "D#4",
          "ticks": 5370,
          "time": 9.75647890625,
          "velocity": 0.8582677165354331
        },
        {
          "duration": 0.4433111458333343,
          "durationTicks": 244,
          "midi": 55,
          "name": "G3",
          "ticks": 5376,
          "time": 9.76738,
          "velocity": 0.905511811023622
        },
        {
          "duration": 0.13808052083333244,
          "durationTicks": 76,
          "midi": 60,
          "name": "C4",
          "ticks": 5558,
          "time": 10.098046510416667,
          "velocity": 0.905511811023622
        },
        {
          "duration": 0.15261531250000004,
          "durationTicks": 84,
          "midi": 63,
          "name": "D#4",
          "ticks": 5570,
          "time": 10.119848697916668,
          "velocity": 0.9763779527559056
        },
        {
          "duration": 0.15261531250000004,
          "durationTicks": 84,
          "midi": 67,
          "name": "G4",
          "ticks": 5570,
          "time": 10.119848697916668,
          "velocity": 0.9763779527559056
        },
        {
          "duration": 0.3415676041666664,
          "durationTicks": 188,
          "midi": 60,
          "name": "C4",
          "ticks": 5658,
          "time": 10.27973140625,
          "velocity": 0.7480314960629921
        },
        {
          "duration": 0.3415676041666664,
          "durationTicks": 188,
          "midi": 63,
          "name": "D#4",
          "ticks": 5658,
          "time": 10.27973140625,
          "velocity": 0.8188976377952756
        },
        {
          "duration": 0.3415676041666664,
          "durationTicks": 188,
          "midi": 67,
          "name": "G4",
          "ticks": 5658,
          "time": 10.27973140625,
          "velocity": 0.8188976377952756
        },
        {
          "duration": 0.1707838020833332,
          "durationTicks": 94,
          "midi": 55,
          "name": "G3",
          "ticks": 5850,
          "time": 10.62856640625,
          "velocity": 0.8582677165354331
        },
        {
          "duration": 0.1707838020833332,
          "durationTicks": 94,
          "midi": 60,
          "name": "C4",
          "ticks": 5850,
          "time": 10.62856640625,
          "velocity": 0.8110236220472441
        },
        {
          "duration": 0.2906958333333325,
          "durationTicks": 160,
          "midi": 55,
          "name": "G3",
          "ticks": 5948,
          "time": 10.806617604166668,
          "velocity": 0.937007874015748
        },
        {
          "duration": 0.279794739583334,
          "durationTicks": 154,
          "midi": 60,
          "name": "C4",
          "ticks": 5954,
          "time": 10.817518697916666,
          "velocity": 0.889763779527559
        },
        {
          "duration": 0.3343002083333335,
          "durationTicks": 184,
          "midi": 63,
          "name": "D#4",
          "ticks": 5956,
          "time": 10.821152395833334,
          "velocity": 0.937007874015748
        },
        {
          "duration": 0.3343002083333335,
          "durationTicks": 184,
          "midi": 67,
          "name": "G4",
          "ticks": 5956,
          "time": 10.821152395833334,
          "velocity": 0.937007874015748
        },
        {
          "duration": 0.48691552083333356,
          "durationTicks": 268,
          "midi": 55,
          "name": "G3",
          "ticks": 6144,
          "time": 11.16272,
          "velocity": 0.952755905511811
        },
        {
          "duration": 0.25435885416666615,
          "durationTicks": 140,
          "midi": 58,
          "name": "A#3",
          "ticks": 6144,
          "time": 11.16272,
          "velocity": 0.7007874015748031
        },
        {
          "duration": 0.15261531250000004,
          "durationTicks": 84,
          "midi": 58,
          "name": "A#3",
          "ticks": 6328,
          "time": 11.497020208333334,
          "velocity": 0.9133858267716536
        },
        {
          "duration": 0.13808052083333244,
          "durationTicks": 76,
          "midi": 67,
          "name": "G4",
          "ticks": 6334,
          "time": 11.507921302083334,
          "velocity": 0.9763779527559056
        },
        {
          "duration": 0.16715010416666587,
          "durationTicks": 92,
          "midi": 62,
          "name": "D4",
          "ticks": 6336,
          "time": 11.511555,
          "velocity": 0.9763779527559056
        },
        {
          "duration": 0.33066651041666617,
          "durationTicks": 182,
          "midi": 58,
          "name": "A#3",
          "ticks": 6432,
          "time": 11.6859725,
          "velocity": 0.6456692913385826
        },
        {
          "duration": 0.3124980208333312,
          "durationTicks": 172,
          "midi": 62,
          "name": "D4",
          "ticks": 6442,
          "time": 11.704140989583335,
          "velocity": 0.8188976377952756
        },
        {
          "duration": 0.3124980208333312,
          "durationTicks": 172,
          "midi": 67,
          "name": "G4",
          "ticks": 6442,
          "time": 11.704140989583335,
          "velocity": 0.8188976377952756
        },
        {
          "duration": 0.16715010416666587,
          "durationTicks": 92,
          "midi": 55,
          "name": "G3",
          "ticks": 6618,
          "time": 12.023906406250001,
          "velocity": 0.8582677165354331
        },
        {
          "duration": 0.16715010416666587,
          "durationTicks": 92,
          "midi": 58,
          "name": "A#3",
          "ticks": 6618,
          "time": 12.023906406250001,
          "velocity": 0.7559055118110236
        },
        {
          "duration": 0.12717942708333396,
          "durationTicks": 70,
          "midi": 55,
          "name": "G3",
          "ticks": 6714,
          "time": 12.19832390625,
          "velocity": 0.9763779527559056
        },
        {
          "duration": 0.13808052083333067,
          "durationTicks": 76,
          "midi": 67,
          "name": "G4",
          "ticks": 6724,
          "time": 12.216492395833335,
          "velocity": 0.9763779527559056
        },
        {
          "duration": 0.14534791666666536,
          "durationTicks": 80,
          "midi": 58,
          "name": "A#3",
          "ticks": 6726,
          "time": 12.22012609375,
          "velocity": 0.9133858267716536
        },
        {
          "duration": 0.14534791666666536,
          "durationTicks": 80,
          "midi": 62,
          "name": "D4",
          "ticks": 6726,
          "time": 12.22012609375,
          "velocity": 0.9763779527559056
        },
        {
          "duration": 0.16715010416666587,
          "durationTicks": 92,
          "midi": 58,
          "name": "A#3",
          "ticks": 6810,
          "time": 12.37274140625,
          "velocity": 0.7637795275590551
        },
        {
          "duration": 0.16715010416666587,
          "durationTicks": 92,
          "midi": 62,
          "name": "D4",
          "ticks": 6810,
          "time": 12.37274140625,
          "velocity": 0.8976377952755905
        },
        {
          "duration": 0.16715010416666587,
          "durationTicks": 92,
          "midi": 67,
          "name": "G4",
          "ticks": 6810,
          "time": 12.37274140625,
          "velocity": 0.7952755905511811
        },
        {
          "duration": 0.2834284374999996,
          "durationTicks": 156,
          "midi": 58,
          "name": "A#3",
          "ticks": 6906,
          "time": 12.54715890625,
          "velocity": 0.7244094488188977
        },
        {
          "duration": 0.2834284374999996,
          "durationTicks": 156,
          "midi": 62,
          "name": "D4",
          "ticks": 6906,
          "time": 12.54715890625,
          "velocity": 0.8582677165354331
        },
        {
          "duration": 0.44331114583333253,
          "durationTicks": 244,
          "midi": 55,
          "name": "G3",
          "ticks": 6912,
          "time": 12.558060000000001,
          "velocity": 0.905511811023622
        },
        {
          "duration": 0.13808052083333422,
          "durationTicks": 76,
          "midi": 58,
          "name": "A#3",
          "ticks": 7094,
          "time": 12.888726510416666,
          "velocity": 0.905511811023622
        },
        {
          "duration": 0.15261531250000004,
          "durationTicks": 84,
          "midi": 62,
          "name": "D4",
          "ticks": 7106,
          "time": 12.910528697916666,
          "velocity": 0.9763779527559056
        },
        {
          "duration": 0.15261531250000004,
          "durationTicks": 84,
          "midi": 67,
          "name": "G4",
          "ticks": 7106,
          "time": 12.910528697916666,
          "velocity": 0.9763779527559056
        },
        {
          "duration": 0.34156760416666465,
          "durationTicks": 188,
          "midi": 58,
          "name": "A#3",
          "ticks": 7194,
          "time": 13.07041140625,
          "velocity": 0.7480314960629921
        },
        {
          "duration": 0.34156760416666465,
          "durationTicks": 188,
          "midi": 62,
          "name": "D4",
          "ticks": 7194,
          "time": 13.07041140625,
          "velocity": 0.8188976377952756
        },
        {
          "duration": 0.34156760416666465,
          "durationTicks": 188,
          "midi": 67,
          "name": "G4",
          "ticks": 7194,
          "time": 13.07041140625,
          "velocity": 0.8188976377952756
        },
        {
          "duration": 0.170783802083335,
          "durationTicks": 94,
          "midi": 55,
          "name": "G3",
          "ticks": 7386,
          "time": 13.41924640625,
          "velocity": 0.8582677165354331
        },
        {
          "duration": 0.170783802083335,
          "durationTicks": 94,
          "midi": 58,
          "name": "A#3",
          "ticks": 7386,
          "time": 13.41924640625,
          "velocity": 0.8110236220472441
        },
        {
          "duration": 0.29069583333333426,
          "durationTicks": 160,
          "midi": 55,
          "name": "G3",
          "ticks": 7484,
          "time": 13.597297604166666,
          "velocity": 0.937007874015748
        },
        {
          "duration": 0.279794739583334,
          "durationTicks": 154,
          "midi": 58,
          "name": "A#3",
          "ticks": 7490,
          "time": 13.608198697916666,
          "velocity": 0.889763779527559
        },
        {
          "duration": 0.33430020833333174,
          "durationTicks": 184,
          "midi": 62,
          "name": "D4",
          "ticks": 7492,
          "time": 13.611832395833334,
          "velocity": 0.937007874015748
        },
        {
          "duration": 0.33430020833333174,
          "durationTicks": 184,
          "midi": 67,
          "name": "G4",
          "ticks": 7492,
          "time": 13.611832395833334,
          "velocity": 0.937007874015748
        },
        {
          "duration": 0.48691552083333356,
          "durationTicks": 268,
          "midi": 52,
          "name": "E3",
          "ticks": 7680,
          "time": 13.9534,
          "velocity": 0.8582677165354331
        },
        {
          "duration": 0.25435885416666615,
          "durationTicks": 140,
          "midi": 57,
          "name": "A3",
          "ticks": 7680,
          "time": 13.9534,
          "velocity": 0.7007874015748031
        },
        {
          "duration": 0.15261531250000004,
          "durationTicks": 84,
          "midi": 57,
          "name": "A3",
          "ticks": 7864,
          "time": 14.287700208333334,
          "velocity": 0.9133858267716536
        },
        {
          "duration": 0.13808052083333244,
          "durationTicks": 76,
          "midi": 64,
          "name": "E4",
          "ticks": 7870,
          "time": 14.298601302083334,
          "velocity": 0.9763779527559056
        },
        {
          "duration": 0.18531859375000082,
          "durationTicks": 102,
          "midi": 61,
          "name": "C#4",
          "ticks": 7872,
          "time": 14.302235,
          "velocity": 0.9763779527559056
        },
        {
          "duration": 0.3124980208333312,
          "durationTicks": 172,
          "midi": 61,
          "name": "C#4",
          "ticks": 7978,
          "time": 14.494820989583335,
          "velocity": 0.8582677165354331
        },
        {
          "duration": 0.3124980208333312,
          "durationTicks": 172,
          "midi": 64,
          "name": "E4",
          "ticks": 7978,
          "time": 14.494820989583335,
          "velocity": 0.8582677165354331
        },
        {
          "duration": 0.16715010416666587,
          "durationTicks": 92,
          "midi": 52,
          "name": "E3",
          "ticks": 8154,
          "time": 14.814586406250001,
          "velocity": 0.8582677165354331
        },
        {
          "duration": 0.16715010416666587,
          "durationTicks": 92,
          "midi": 57,
          "name": "A3",
          "ticks": 8154,
          "time": 14.814586406250001,
          "velocity": 0.7559055118110236
        },
        {
          "duration": 0.12717942708333396,
          "durationTicks": 70,
          "midi": 52,
          "name": "E3",
          "ticks": 8250,
          "time": 14.98900390625,
          "velocity": 0.937007874015748
        },
        {
          "duration": 0.13808052083333067,
          "durationTicks": 76,
          "midi": 64,
          "name": "E4",
          "ticks": 8260,
          "time": 15.007172395833335,
          "velocity": 0.937007874015748
        },
        {
          "duration": 0.14534791666666536,
          "durationTicks": 80,
          "midi": 57,
          "name": "A3",
          "ticks": 8262,
          "time": 15.01080609375,
          "velocity": 0.8740157480314961
        },
        {
          "duration": 0.14534791666666536,
          "durationTicks": 80,
          "midi": 61,
          "name": "C#4",
          "ticks": 8262,
          "time": 15.01080609375,
          "velocity": 0.937007874015748
        },
        {
          "duration": 0.16715010416666587,
          "durationTicks": 92,
          "midi": 57,
          "name": "A3",
          "ticks": 8346,
          "time": 15.16342140625,
          "velocity": 0.7244094488188977
        },
        {
          "duration": 0.16715010416666587,
          "durationTicks": 92,
          "midi": 61,
          "name": "C#4",
          "ticks": 8346,
          "time": 15.16342140625,
          "velocity": 0.8582677165354331
        },
        {
          "duration": 0.16715010416666587,
          "durationTicks": 92,
          "midi": 64,
          "name": "E4",
          "ticks": 8346,
          "time": 15.16342140625,
          "velocity": 0.7559055118110236
        },
        {
          "duration": 0.2834284374999996,
          "durationTicks": 156,
          "midi": 57,
          "name": "A3",
          "ticks": 8442,
          "time": 15.337838906250001,
          "velocity": 0.7244094488188977
        },
        {
          "duration": 0.2834284374999996,
          "durationTicks": 156,
          "midi": 61,
          "name": "C#4",
          "ticks": 8442,
          "time": 15.337838906250001,
          "velocity": 0.8582677165354331
        },
        {
          "duration": 0.4433111458333343,
          "durationTicks": 244,
          "midi": 52,
          "name": "E3",
          "ticks": 8448,
          "time": 15.34874,
          "velocity": 0.905511811023622
        },
        {
          "duration": 0.13808052083333422,
          "durationTicks": 76,
          "midi": 57,
          "name": "A3",
          "ticks": 8630,
          "time": 15.679406510416666,
          "velocity": 0.905511811023622
        },
        {
          "duration": 0.15261531250000004,
          "durationTicks": 84,
          "midi": 61,
          "name": "C#4",
          "ticks": 8642,
          "time": 15.701208697916666,
          "velocity": 0.9763779527559056
        },
        {
          "duration": 0.15261531250000004,
          "durationTicks": 84,
          "midi": 64,
          "name": "E4",
          "ticks": 8642,
          "time": 15.701208697916666,
          "velocity": 0.9763779527559056
        },
        {
          "duration": 0.3415676041666664,
          "durationTicks": 188,
          "midi": 57,
          "name": "A3",
          "ticks": 8730,
          "time": 15.86109140625,
          "velocity": 0.7480314960629921
        },
        {
          "duration": 0.3415676041666664,
          "durationTicks": 188,
          "midi": 61,
          "name": "C#4",
          "ticks": 8730,
          "time": 15.86109140625,
          "velocity": 0.8188976377952756
        },
        {
          "duration": 0.3415676041666664,
          "durationTicks": 188,
          "midi": 64,
          "name": "E4",
          "ticks": 8730,
          "time": 15.86109140625,
          "velocity": 0.8188976377952756
        },
        {
          "duration": 0.17805119791666257,
          "durationTicks": 98,
          "midi": 52,
          "name": "E3",
          "ticks": 8922,
          "time": 16.209926406250002,
          "velocity": 0.8582677165354331
        },
        {
          "duration": 0.17805119791666257,
          "durationTicks": 98,
          "midi": 57,
          "name": "A3",
          "ticks": 8922,
          "time": 16.209926406250002,
          "velocity": 0.8110236220472441
        },
        {
          "duration": 0.18531859375000082,
          "durationTicks": 102,
          "midi": 52,
          "name": "E3",
          "ticks": 9024,
          "time": 16.395245,
          "velocity": 0.937007874015748
        },
        {
          "duration": 0.18531859375000082,
          "durationTicks": 102,
          "midi": 57,
          "name": "A3",
          "ticks": 9024,
          "time": 16.395245,
          "velocity": 0.889763779527559
        },
        {
          "duration": 0.18531859375000082,
          "durationTicks": 102,
          "midi": 61,
          "name": "C#4",
          "ticks": 9024,
          "time": 16.395245,
          "velocity": 0.937007874015748
        },
        {
          "duration": 0.18531859375000082,
          "durationTicks": 102,
          "midi": 64,
          "name": "E4",
          "ticks": 9024,
          "time": 16.395245,
          "velocity": 0.937007874015748
        },
        {
          "duration": 0.14898161458333092,
          "durationTicks": 82,
          "midi": 57,
          "name": "A3",
          "ticks": 9130,
          "time": 16.587830989583335,
          "velocity": 0.8110236220472441
        },
        {
          "duration": 0.14898161458333092,
          "durationTicks": 82,
          "midi": 61,
          "name": "C#4",
          "ticks": 9130,
          "time": 16.587830989583335,
          "velocity": 0.8582677165354331
        },
        {
          "duration": 0.14898161458333092,
          "durationTicks": 82,
          "midi": 64,
          "name": "E4",
          "ticks": 9130,
          "time": 16.587830989583335,
          "velocity": 0.8582677165354331
        },
        {
          "duration": 0.25435885416666437,
          "durationTicks": 140,
          "midi": 58,
          "name": "A#3",
          "ticks": 9216,
          "time": 16.74408,
          "velocity": 0.7007874015748031
        },
        {
          "duration": 0.48691552083333534,
          "durationTicks": 268,
          "midi": 55,
          "name": "G3",
          "ticks": 9222,
          "time": 16.75498109375,
          "velocity": 0.952755905511811
        },
        {
          "duration": 0.15261531250000004,
          "durationTicks": 84,
          "midi": 58,
          "name": "A#3",
          "ticks": 9406,
          "time": 17.089281302083336,
          "velocity": 0.9133858267716536
        },
        {
          "duration": 0.13808052083333067,
          "durationTicks": 76,
          "midi": 67,
          "name": "G4",
          "ticks": 9412,
          "time": 17.100182395833336,
          "velocity": 0.9763779527559056
        },
        {
          "duration": 0.18531859374999726,
          "durationTicks": 102,
          "midi": 62,
          "name": "D4",
          "ticks": 9414,
          "time": 17.10381609375,
          "velocity": 0.9763779527559056
        },
        {
          "duration": 0.3124980208333312,
          "durationTicks": 172,
          "midi": 62,
          "name": "D4",
          "ticks": 9520,
          "time": 17.296402083333334,
          "velocity": 0.8582677165354331
        },
        {
          "duration": 0.3124980208333312,
          "durationTicks": 172,
          "midi": 67,
          "name": "G4",
          "ticks": 9520,
          "time": 17.296402083333334,
          "velocity": 0.8582677165354331
        },
        {
          "duration": 0.16715010416666587,
          "durationTicks": 92,
          "midi": 55,
          "name": "G3",
          "ticks": 9696,
          "time": 17.6161675,
          "velocity": 0.8582677165354331
        },
        {
          "duration": 0.16715010416666587,
          "durationTicks": 92,
          "midi": 58,
          "name": "A#3",
          "ticks": 9696,
          "time": 17.6161675,
          "velocity": 0.7559055118110236
        },
        {
          "duration": 0.12717942708333396,
          "durationTicks": 70,
          "midi": 55,
          "name": "G3",
          "ticks": 9792,
          "time": 17.790585,
          "velocity": 0.937007874015748
        },
        {
          "duration": 0.13808052083333067,
          "durationTicks": 76,
          "midi": 67,
          "name": "G4",
          "ticks": 9802,
          "time": 17.808753489583335,
          "velocity": 0.937007874015748
        },
        {
          "duration": 0.14534791666666536,
          "durationTicks": 80,
          "midi": 58,
          "name": "A#3",
          "ticks": 9804,
          "time": 17.8123871875,
          "velocity": 0.8740157480314961
        },
        {
          "duration": 0.14534791666666536,
          "durationTicks": 80,
          "midi": 62,
          "name": "D4",
          "ticks": 9804,
          "time": 17.8123871875,
          "velocity": 0.937007874015748
        },
        {
          "duration": 0.16715010416666587,
          "durationTicks": 92,
          "midi": 58,
          "name": "A#3",
          "ticks": 9888,
          "time": 17.9650025,
          "velocity": 0.7637795275590551
        },
        {
          "duration": 0.16715010416666587,
          "durationTicks": 92,
          "midi": 62,
          "name": "D4",
          "ticks": 9888,
          "time": 17.9650025,
          "velocity": 0.8976377952755905
        },
        {
          "duration": 0.16715010416666587,
          "durationTicks": 92,
          "midi": 67,
          "name": "G4",
          "ticks": 9888,
          "time": 17.9650025,
          "velocity": 0.7952755905511811
        },
        {
          "duration": 0.2834284374999996,
          "durationTicks": 156,
          "midi": 58,
          "name": "A#3",
          "ticks": 9984,
          "time": 18.13942,
          "velocity": 0.7244094488188977
        },
        {
          "duration": 0.2834284374999996,
          "durationTicks": 156,
          "midi": 62,
          "name": "D4",
          "ticks": 9984,
          "time": 18.13942,
          "velocity": 0.8582677165354331
        },
        {
          "duration": 0.4433111458333343,
          "durationTicks": 244,
          "midi": 55,
          "name": "G3",
          "ticks": 9990,
          "time": 18.15032109375,
          "velocity": 0.905511811023622
        },
        {
          "duration": 0.13808052083333422,
          "durationTicks": 76,
          "midi": 58,
          "name": "A#3",
          "ticks": 10172,
          "time": 18.480987604166668,
          "velocity": 0.905511811023622
        },
        {
          "duration": 0.15261531250000004,
          "durationTicks": 84,
          "midi": 62,
          "name": "D4",
          "ticks": 10184,
          "time": 18.502789791666665,
          "velocity": 0.9763779527559056
        },
        {
          "duration": 0.15261531250000004,
          "durationTicks": 84,
          "midi": 67,
          "name": "G4",
          "ticks": 10184,
          "time": 18.502789791666665,
          "velocity": 0.9763779527559056
        },
        {
          "duration": 0.3415676041666664,
          "durationTicks": 188,
          "midi": 58,
          "name": "A#3",
          "ticks": 10272,
          "time": 18.6626725,
          "velocity": 0.7480314960629921
        },
        {
          "duration": 0.3415676041666664,
          "durationTicks": 188,
          "midi": 62,
          "name": "D4",
          "ticks": 10272,
          "time": 18.6626725,
          "velocity": 0.8188976377952756
        },
        {
          "duration": 0.3415676041666664,
          "durationTicks": 188,
          "midi": 67,
          "name": "G4",
          "ticks": 10272,
          "time": 18.6626725,
          "velocity": 0.8188976377952756
        },
        {
          "duration": 0.170783802083335,
          "durationTicks": 94,
          "midi": 55,
          "name": "G3",
          "ticks": 10464,
          "time": 19.0115075,
          "velocity": 0.8582677165354331
        },
        {
          "duration": 0.170783802083335,
          "durationTicks": 94,
          "midi": 58,
          "name": "A#3",
          "ticks": 10464,
          "time": 19.0115075,
          "velocity": 0.8110236220472441
        },
        {
          "duration": 0.279794739583334,
          "durationTicks": 154,
          "midi": 55,
          "name": "G3",
          "ticks": 10562,
          "time": 19.189558697916667,
          "velocity": 0.937007874015748
        },
        {
          "duration": 0.29796322916666895,
          "durationTicks": 164,
          "midi": 58,
          "name": "A#3",
          "ticks": 10568,
          "time": 19.200459791666667,
          "velocity": 0.889763779527559
        },
        {
          "duration": 0.3233991145833315,
          "durationTicks": 178,
          "midi": 62,
          "name": "D4",
          "ticks": 10570,
          "time": 19.204093489583336,
          "velocity": 0.937007874015748
        },
        {
          "duration": 0.3233991145833315,
          "durationTicks": 178,
          "midi": 67,
          "name": "G4",
          "ticks": 10570,
          "time": 19.204093489583336,
          "velocity": 0.937007874015748
        },
        {
          "duration": 0.48691552083333534,
          "durationTicks": 268,
          "midi": 55,
          "name": "G3",
          "ticks": 10752,
          "time": 19.53476,
          "velocity": 0.952755905511811
        },
        {
          "duration": 0.2543588541666679,
          "durationTicks": 140,
          "midi": 58,
          "name": "A#3",
          "ticks": 10752,
          "time": 19.53476,
          "velocity": 0.7007874015748031
        },
        {
          "duration": 0.15261531250000004,
          "durationTicks": 84,
          "midi": 60,
          "name": "C4",
          "ticks": 10936,
          "time": 19.869060208333334,
          "velocity": 0.9133858267716536
        },
        {
          "duration": 0.16715010416666587,
          "durationTicks": 92,
          "midi": 67,
          "name": "G4",
          "ticks": 10942,
          "time": 19.879961302083334,
          "velocity": 0.9763779527559056
        },
        {
          "duration": 0.16715010416666587,
          "durationTicks": 92,
          "midi": 63,
          "name": "D#4",
          "ticks": 10944,
          "time": 19.883595,
          "velocity": 0.9763779527559056
        },
        {
          "duration": 0.2979632291666654,
          "durationTicks": 164,
          "midi": 60,
          "name": "C4",
          "ticks": 11040,
          "time": 20.0580125,
          "velocity": 0.7716535433070866
        },
        {
          "duration": 0.3124980208333312,
          "durationTicks": 172,
          "midi": 63,
          "name": "D#4",
          "ticks": 11050,
          "time": 20.076180989583335,
          "velocity": 0.8188976377952756
        },
        {
          "duration": 0.3124980208333312,
          "durationTicks": 172,
          "midi": 67,
          "name": "G4",
          "ticks": 11050,
          "time": 20.076180989583335,
          "velocity": 0.8188976377952756
        },
        {
          "duration": 0.16715010416666587,
          "durationTicks": 92,
          "midi": 55,
          "name": "G3",
          "ticks": 11226,
          "time": 20.39594640625,
          "velocity": 0.8582677165354331
        },
        {
          "duration": 0.16715010416666587,
          "durationTicks": 92,
          "midi": 60,
          "name": "C4",
          "ticks": 11226,
          "time": 20.39594640625,
          "velocity": 0.7559055118110236
        },
        {
          "duration": 0.12717942708333396,
          "durationTicks": 70,
          "midi": 55,
          "name": "G3",
          "ticks": 11322,
          "time": 20.57036390625,
          "velocity": 0.937007874015748
        },
        {
          "duration": 0.13808052083333422,
          "durationTicks": 76,
          "midi": 67,
          "name": "G4",
          "ticks": 11332,
          "time": 20.588532395833333,
          "velocity": 0.937007874015748
        },
        {
          "duration": 0.1453479166666689,
          "durationTicks": 80,
          "midi": 60,
          "name": "C4",
          "ticks": 11334,
          "time": 20.59216609375,
          "velocity": 0.8740157480314961
        },
        {
          "duration": 0.1453479166666689,
          "durationTicks": 80,
          "midi": 63,
          "name": "D#4",
          "ticks": 11334,
          "time": 20.59216609375,
          "velocity": 0.937007874015748
        },
        {
          "duration": 0.16715010416666587,
          "durationTicks": 92,
          "midi": 60,
          "name": "C4",
          "ticks": 11418,
          "time": 20.74478140625,
          "velocity": 0.7637795275590551
        },
        {
          "duration": 0.16715010416666587,
          "durationTicks": 92,
          "midi": 63,
          "name": "D#4",
          "ticks": 11418,
          "time": 20.74478140625,
          "velocity": 0.8976377952755905
        },
        {
          "duration": 0.16715010416666587,
          "durationTicks": 92,
          "midi": 67,
          "name": "G4",
          "ticks": 11418,
          "time": 20.74478140625,
          "velocity": 0.7952755905511811
        },
        {
          "duration": 0.2834284374999996,
          "durationTicks": 156,
          "midi": 60,
          "name": "C4",
          "ticks": 11514,
          "time": 20.91919890625,
          "velocity": 0.7244094488188977
        },
        {
          "duration": 0.2834284374999996,
          "durationTicks": 156,
          "midi": 63,
          "name": "D#4",
          "ticks": 11514,
          "time": 20.91919890625,
          "velocity": 0.8582677165354331
        },
        {
          "duration": 0.4433111458333343,
          "durationTicks": 244,
          "midi": 55,
          "name": "G3",
          "ticks": 11520,
          "time": 20.9301,
          "velocity": 0.905511811023622
        },
        {
          "duration": 0.13808052083333422,
          "durationTicks": 76,
          "midi": 60,
          "name": "C4",
          "ticks": 11702,
          "time": 21.260766510416666,
          "velocity": 0.905511811023622
        },
        {
          "duration": 0.15261531250000004,
          "durationTicks": 84,
          "midi": 63,
          "name": "D#4",
          "ticks": 11714,
          "time": 21.282568697916666,
          "velocity": 0.9763779527559056
        },
        {
          "duration": 0.15261531250000004,
          "durationTicks": 84,
          "midi": 67,
          "name": "G4",
          "ticks": 11714,
          "time": 21.282568697916666,
          "velocity": 0.9763779527559056
        },
        {
          "duration": 0.3415676041666664,
          "durationTicks": 188,
          "midi": 60,
          "name": "C4",
          "ticks": 11802,
          "time": 21.44245140625,
          "velocity": 0.7480314960629921
        },
        {
          "duration": 0.3415676041666664,
          "durationTicks": 188,
          "midi": 63,
          "name": "D#4",
          "ticks": 11802,
          "time": 21.44245140625,
          "velocity": 0.8188976377952756
        },
        {
          "duration": 0.3415676041666664,
          "durationTicks": 188,
          "midi": 67,
          "name": "G4",
          "ticks": 11802,
          "time": 21.44245140625,
          "velocity": 0.8188976377952756
        },
        {
          "duration": 0.17078380208333144,
          "durationTicks": 94,
          "midi": 55,
          "name": "G3",
          "ticks": 11994,
          "time": 21.791286406250002,
          "velocity": 0.8582677165354331
        },
        {
          "duration": 0.17078380208333144,
          "durationTicks": 94,
          "midi": 60,
          "name": "C4",
          "ticks": 11994,
          "time": 21.791286406250002,
          "velocity": 0.8110236220472441
        },
        {
          "duration": 0.13808052083333422,
          "durationTicks": 76,
          "midi": 55,
          "name": "G3",
          "ticks": 12092,
          "time": 21.969337604166665,
          "velocity": 0.937007874015748
        },
        {
          "duration": 0.13808052083333422,
          "durationTicks": 76,
          "midi": 60,
          "name": "C4",
          "ticks": 12098,
          "time": 21.980238697916665,
          "velocity": 0.889763779527559
        },
        {
          "duration": 0.17805119791666613,
          "durationTicks": 98,
          "midi": 63,
          "name": "D#4",
          "ticks": 12100,
          "time": 21.983872395833334,
          "velocity": 0.937007874015748
        },
        {
          "duration": 0.17805119791666613,
          "durationTicks": 98,
          "midi": 67,
          "name": "G4",
          "ticks": 12100,
          "time": 21.983872395833334,
          "velocity": 0.937007874015748
        },
        {
          "duration": 0.14898161458333092,
          "durationTicks": 82,
          "midi": 60,
          "name": "C4",
          "ticks": 12202,
          "time": 22.169190989583335,
          "velocity": 0.8110236220472441
        },
        {
          "duration": 0.14898161458333092,
          "durationTicks": 82,
          "midi": 63,
          "name": "D#4",
          "ticks": 12202,
          "time": 22.169190989583335,
          "velocity": 0.8582677165354331
        },
        {
          "duration": 0.14898161458333092,
          "durationTicks": 82,
          "midi": 67,
          "name": "G4",
          "ticks": 12202,
          "time": 22.169190989583335,
          "velocity": 0.8582677165354331
        },
        {
          "duration": 0.4869155208333318,
          "durationTicks": 268,
          "midi": 55,
          "name": "G3",
          "ticks": 12288,
          "time": 22.32544,
          "velocity": 0.952755905511811
        },
        {
          "duration": 0.2543588541666679,
          "durationTicks": 140,
          "midi": 58,
          "name": "A#3",
          "ticks": 12288,
          "time": 22.32544,
          "velocity": 0.7007874015748031
        },
        {
          "duration": 0.15261531250000004,
          "durationTicks": 84,
          "midi": 58,
          "name": "A#3",
          "ticks": 12472,
          "time": 22.659740208333332,
          "velocity": 0.9133858267716536
        },
        {
          "duration": 0.13808052083333777,
          "durationTicks": 76,
          "midi": 67,
          "name": "G4",
          "ticks": 12478,
          "time": 22.670641302083332,
          "velocity": 0.9763779527559056
        },
        {
          "duration": 0.16715010416666587,
          "durationTicks": 92,
          "midi": 62,
          "name": "D4",
          "ticks": 12480,
          "time": 22.674275,
          "velocity": 0.9763779527559056
        },
        {
          "duration": 0.33066651041666617,
          "durationTicks": 182,
          "midi": 58,
          "name": "A#3",
          "ticks": 12576,
          "time": 22.848692500000002,
          "velocity": 0.6456692913385826
        },
        {
          "duration": 0.3124980208333348,
          "durationTicks": 172,
          "midi": 62,
          "name": "D4",
          "ticks": 12586,
          "time": 22.866860989583333,
          "velocity": 0.8188976377952756
        },
        {
          "duration": 0.3124980208333348,
          "durationTicks": 172,
          "midi": 67,
          "name": "G4",
          "ticks": 12586,
          "time": 22.866860989583333,
          "velocity": 0.8188976377952756
        },
        {
          "duration": 0.16715010416666942,
          "durationTicks": 92,
          "midi": 55,
          "name": "G3",
          "ticks": 12762,
          "time": 23.18662640625,
          "velocity": 0.8582677165354331
        },
        {
          "duration": 0.16715010416666942,
          "durationTicks": 92,
          "midi": 58,
          "name": "A#3",
          "ticks": 12762,
          "time": 23.18662640625,
          "velocity": 0.7559055118110236
        },
        {
          "duration": 0.1271794270833304,
          "durationTicks": 70,
          "midi": 55,
          "name": "G3",
          "ticks": 12858,
          "time": 23.36104390625,
          "velocity": 0.9763779527559056
        },
        {
          "duration": 0.13808052083333777,
          "durationTicks": 76,
          "midi": 67,
          "name": "G4",
          "ticks": 12868,
          "time": 23.37921239583333,
          "velocity": 0.9763779527559056
        },
        {
          "duration": 0.1453479166666689,
          "durationTicks": 80,
          "midi": 58,
          "name": "A#3",
          "ticks": 12870,
          "time": 23.38284609375,
          "velocity": 0.9133858267716536
        },
        {
          "duration": 0.1453479166666689,
          "durationTicks": 80,
          "midi": 62,
          "name": "D4",
          "ticks": 12870,
          "time": 23.38284609375,
          "velocity": 0.9763779527559056
        },
        {
          "duration": 0.16715010416666942,
          "durationTicks": 92,
          "midi": 58,
          "name": "A#3",
          "ticks": 12954,
          "time": 23.53546140625,
          "velocity": 0.7637795275590551
        },
        {
          "duration": 0.16715010416666942,
          "durationTicks": 92,
          "midi": 62,
          "name": "D4",
          "ticks": 12954,
          "time": 23.53546140625,
          "velocity": 0.8976377952755905
        },
        {
          "duration": 0.16715010416666942,
          "durationTicks": 92,
          "midi": 67,
          "name": "G4",
          "ticks": 12954,
          "time": 23.53546140625,
          "velocity": 0.7952755905511811
        },
        {
          "duration": 0.2834284374999996,
          "durationTicks": 156,
          "midi": 58,
          "name": "A#3",
          "ticks": 13050,
          "time": 23.70987890625,
          "velocity": 0.7244094488188977
        },
        {
          "duration": 0.2834284374999996,
          "durationTicks": 156,
          "midi": 62,
          "name": "D4",
          "ticks": 13050,
          "time": 23.70987890625,
          "velocity": 0.8582677165354331
        },
        {
          "duration": 0.44331114583333076,
          "durationTicks": 244,
          "midi": 55,
          "name": "G3",
          "ticks": 13056,
          "time": 23.72078,
          "velocity": 0.905511811023622
        },
        {
          "duration": 0.13808052083333422,
          "durationTicks": 76,
          "midi": 58,
          "name": "A#3",
          "ticks": 13238,
          "time": 24.051446510416667,
          "velocity": 0.905511811023622
        },
        {
          "duration": 0.15261531250000004,
          "durationTicks": 84,
          "midi": 62,
          "name": "D4",
          "ticks": 13250,
          "time": 24.073248697916668,
          "velocity": 0.9763779527559056
        },
        {
          "duration": 0.15261531250000004,
          "durationTicks": 84,
          "midi": 67,
          "name": "G4",
          "ticks": 13250,
          "time": 24.073248697916668,
          "velocity": 0.9763779527559056
        },
        {
          "duration": 0.34156760416667,
          "durationTicks": 188,
          "midi": 58,
          "name": "A#3",
          "ticks": 13338,
          "time": 24.23313140625,
          "velocity": 0.7480314960629921
        },
        {
          "duration": 0.34156760416667,
          "durationTicks": 188,
          "midi": 62,
          "name": "D4",
          "ticks": 13338,
          "time": 24.23313140625,
          "velocity": 0.8188976377952756
        },
        {
          "duration": 0.34156760416667,
          "durationTicks": 188,
          "midi": 67,
          "name": "G4",
          "ticks": 13338,
          "time": 24.23313140625,
          "velocity": 0.8188976377952756
        },
        {
          "duration": 0.17078380208333144,
          "durationTicks": 94,
          "midi": 55,
          "name": "G3",
          "ticks": 13530,
          "time": 24.58196640625,
          "velocity": 0.8582677165354331
        },
        {
          "duration": 0.17078380208333144,
          "durationTicks": 94,
          "midi": 58,
          "name": "A#3",
          "ticks": 13530,
          "time": 24.58196640625,
          "velocity": 0.8110236220472441
        },
        {
          "duration": 0.31976541666666236,
          "durationTicks": 176,
          "midi": 55,
          "name": "G3",
          "ticks": 13628,
          "time": 24.76001760416667,
          "velocity": 0.937007874015748
        },
        {
          "duration": 0.3088643229166621,
          "durationTicks": 170,
          "midi": 58,
          "name": "A#3",
          "ticks": 13634,
          "time": 24.77091869791667,
          "velocity": 0.889763779527559
        },
        {
          "duration": 0.3343002083333353,
          "durationTicks": 184,
          "midi": 62,
          "name": "D4",
          "ticks": 13636,
          "time": 24.774552395833332,
          "velocity": 0.937007874015748
        },
        {
          "duration": 0.3343002083333353,
          "durationTicks": 184,
          "midi": 67,
          "name": "G4",
          "ticks": 13636,
          "time": 24.774552395833332,
          "velocity": 0.937007874015748
        },
        {
          "duration": 0.48691552083332823,
          "durationTicks": 268,
          "midi": 52,
          "name": "E3",
          "ticks": 13824,
          "time": 25.116120000000002,
          "velocity": 0.8582677165354331
        },
        {
          "duration": 0.2543588541666679,
          "durationTicks": 140,
          "midi": 57,
          "name": "A3",
          "ticks": 13824,
          "time": 25.116120000000002,
          "velocity": 0.7007874015748031
        },
        {
          "duration": 0.15261531250000004,
          "durationTicks": 84,
          "midi": 57,
          "name": "A3",
          "ticks": 14008,
          "time": 25.45042020833333,
          "velocity": 0.9133858267716536
        },
        {
          "duration": 0.13808052083333777,
          "durationTicks": 76,
          "midi": 64,
          "name": "E4",
          "ticks": 14014,
          "time": 25.46132130208333,
          "velocity": 0.9763779527559056
        },
        {
          "duration": 0.18531859375000082,
          "durationTicks": 102,
          "midi": 61,
          "name": "C#4",
          "ticks": 14016,
          "time": 25.464955,
          "velocity": 0.9763779527559056
        },
        {
          "duration": 0.31249802083333833,
          "durationTicks": 172,
          "midi": 61,
          "name": "C#4",
          "ticks": 14122,
          "time": 25.65754098958333,
          "velocity": 0.8582677165354331
        },
        {
          "duration": 0.31249802083333833,
          "durationTicks": 172,
          "midi": 64,
          "name": "E4",
          "ticks": 14122,
          "time": 25.65754098958333,
          "velocity": 0.8582677165354331
        },
        {
          "duration": 0.16715010416666587,
          "durationTicks": 92,
          "midi": 52,
          "name": "E3",
          "ticks": 14298,
          "time": 25.97730640625,
          "velocity": 0.8582677165354331
        },
        {
          "duration": 0.16715010416666587,
          "durationTicks": 92,
          "midi": 57,
          "name": "A3",
          "ticks": 14298,
          "time": 25.97730640625,
          "velocity": 0.7559055118110236
        },
        {
          "duration": 0.1271794270833304,
          "durationTicks": 70,
          "midi": 52,
          "name": "E3",
          "ticks": 14394,
          "time": 26.15172390625,
          "velocity": 0.937007874015748
        },
        {
          "duration": 0.13808052083333422,
          "durationTicks": 76,
          "midi": 64,
          "name": "E4",
          "ticks": 14404,
          "time": 26.169892395833333,
          "velocity": 0.937007874015748
        },
        {
          "duration": 0.1453479166666689,
          "durationTicks": 80,
          "midi": 57,
          "name": "A3",
          "ticks": 14406,
          "time": 26.17352609375,
          "velocity": 0.8740157480314961
        },
        {
          "duration": 0.1453479166666689,
          "durationTicks": 80,
          "midi": 61,
          "name": "C#4",
          "ticks": 14406,
          "time": 26.17352609375,
          "velocity": 0.937007874015748
        },
        {
          "duration": 0.16715010416666942,
          "durationTicks": 92,
          "midi": 57,
          "name": "A3",
          "ticks": 14490,
          "time": 26.32614140625,
          "velocity": 0.7244094488188977
        },
        {
          "duration": 0.16715010416666942,
          "durationTicks": 92,
          "midi": 61,
          "name": "C#4",
          "ticks": 14490,
          "time": 26.32614140625,
          "velocity": 0.8582677165354331
        },
        {
          "duration": 0.16715010416666942,
          "durationTicks": 92,
          "midi": 64,
          "name": "E4",
          "ticks": 14490,
          "time": 26.32614140625,
          "velocity": 0.7559055118110236
        },
        {
          "duration": 0.2834284374999996,
          "durationTicks": 156,
          "midi": 57,
          "name": "A3",
          "ticks": 14586,
          "time": 26.50055890625,
          "velocity": 0.7244094488188977
        },
        {
          "duration": 0.2834284374999996,
          "durationTicks": 156,
          "midi": 61,
          "name": "C#4",
          "ticks": 14586,
          "time": 26.50055890625,
          "velocity": 0.8582677165354331
        },
        {
          "duration": 0.4433111458333343,
          "durationTicks": 244,
          "midi": 52,
          "name": "E3",
          "ticks": 14592,
          "time": 26.51146,
          "velocity": 0.905511811023622
        },
        {
          "duration": 0.13808052083333067,
          "durationTicks": 76,
          "midi": 57,
          "name": "A3",
          "ticks": 14774,
          "time": 26.84212651041667,
          "velocity": 0.905511811023622
        },
        {
          "duration": 0.15261531250000004,
          "durationTicks": 84,
          "midi": 61,
          "name": "C#4",
          "ticks": 14786,
          "time": 26.86392869791667,
          "velocity": 0.9763779527559056
        },
        {
          "duration": 0.15261531250000004,
          "durationTicks": 84,
          "midi": 64,
          "name": "E4",
          "ticks": 14786,
          "time": 26.86392869791667,
          "velocity": 0.9763779527559056
        },
        {
          "duration": 0.3415676041666664,
          "durationTicks": 188,
          "midi": 57,
          "name": "A3",
          "ticks": 14874,
          "time": 27.02381140625,
          "velocity": 0.7480314960629921
        },
        {
          "duration": 0.3415676041666664,
          "durationTicks": 188,
          "midi": 61,
          "name": "C#4",
          "ticks": 14874,
          "time": 27.02381140625,
          "velocity": 0.8188976377952756
        },
        {
          "duration": 0.3415676041666664,
          "durationTicks": 188,
          "midi": 64,
          "name": "E4",
          "ticks": 14874,
          "time": 27.02381140625,
          "velocity": 0.8188976377952756
        },
        {
          "duration": 0.17805119791666613,
          "durationTicks": 98,
          "midi": 52,
          "name": "E3",
          "ticks": 15066,
          "time": 27.372646406250002,
          "velocity": 0.8582677165354331
        },
        {
          "duration": 0.17805119791666613,
          "durationTicks": 98,
          "midi": 57,
          "name": "A3",
          "ticks": 15066,
          "time": 27.372646406250002,
          "velocity": 0.8110236220472441
        },
        {
          "duration": 0.34156760416667,
          "durationTicks": 188,
          "midi": 52,
          "name": "E3",
          "ticks": 15168,
          "time": 27.557965,
          "velocity": 0.937007874015748
        },
        {
          "duration": 0.34156760416667,
          "durationTicks": 188,
          "midi": 57,
          "name": "A3",
          "ticks": 15168,
          "time": 27.557965,
          "velocity": 0.889763779527559
        },
        {
          "duration": 0.34156760416667,
          "durationTicks": 188,
          "midi": 61,
          "name": "C#4",
          "ticks": 15168,
          "time": 27.557965,
          "velocity": 0.937007874015748
        },
        {
          "duration": 0.34156760416667,
          "durationTicks": 188,
          "midi": 64,
          "name": "E4",
          "ticks": 15168,
          "time": 27.557965,
          "velocity": 0.937007874015748
        },
        {
          "duration": 0.2543588541666679,
          "durationTicks": 140,
          "midi": 58,
          "name": "A#3",
          "ticks": 15360,
          "time": 27.9068,
          "velocity": 0.7007874015748031
        },
        {
          "duration": 0.4869155208333318,
          "durationTicks": 268,
          "midi": 55,
          "name": "G3",
          "ticks": 15366,
          "time": 27.91770109375,
          "velocity": 0.952755905511811
        },
        {
          "duration": 0.15261531250000004,
          "durationTicks": 84,
          "midi": 58,
          "name": "A#3",
          "ticks": 15550,
          "time": 28.252001302083332,
          "velocity": 0.9133858267716536
        },
        {
          "duration": 0.13808052083333777,
          "durationTicks": 76,
          "midi": 67,
          "name": "G4",
          "ticks": 15556,
          "time": 28.262902395833333,
          "velocity": 0.9763779527559056
        },
        {
          "duration": 0.1562490104166656,
          "durationTicks": 86,
          "midi": 62,
          "name": "D4",
          "ticks": 15558,
          "time": 28.266536093750002,
          "velocity": 0.9763779527559056
        },
        {
          "duration": 0.3124980208333312,
          "durationTicks": 172,
          "midi": 62,
          "name": "D4",
          "ticks": 15648,
          "time": 28.430052500000002,
          "velocity": 0.8976377952755905
        },
        {
          "duration": 0.3124980208333312,
          "durationTicks": 172,
          "midi": 67,
          "name": "G4",
          "ticks": 15648,
          "time": 28.430052500000002,
          "velocity": 0.8976377952755905
        },
        {
          "duration": 0.279794739583334,
          "durationTicks": 154,
          "midi": 55,
          "name": "G3",
          "ticks": 15656,
          "time": 28.444587291666668,
          "velocity": 0.8976377952755905
        },
        {
          "duration": 0.31613171875000035,
          "durationTicks": 174,
          "midi": 58,
          "name": "A#3",
          "ticks": 15662,
          "time": 28.45548838541667,
          "velocity": 0.8503937007874016
        },
        {
          "duration": 0.16715010416666942,
          "durationTicks": 92,
          "midi": 55,
          "name": "G3",
          "ticks": 15840,
          "time": 28.7788875,
          "velocity": 0.8582677165354331
        },
        {
          "duration": 0.16715010416666942,
          "durationTicks": 92,
          "midi": 58,
          "name": "A#3",
          "ticks": 15840,
          "time": 28.7788875,
          "velocity": 0.7559055118110236
        },
        {
          "duration": 0.1271794270833304,
          "durationTicks": 70,
          "midi": 55,
          "name": "G3",
          "ticks": 15936,
          "time": 28.953305,
          "velocity": 0.937007874015748
        },
        {
          "duration": 0.13808052083333777,
          "durationTicks": 76,
          "midi": 67,
          "name": "G4",
          "ticks": 15946,
          "time": 28.97147348958333,
          "velocity": 0.937007874015748
        },
        {
          "duration": 0.1453479166666689,
          "durationTicks": 80,
          "midi": 58,
          "name": "A#3",
          "ticks": 15948,
          "time": 28.9751071875,
          "velocity": 0.8740157480314961
        },
        {
          "duration": 0.1453479166666689,
          "durationTicks": 80,
          "midi": 62,
          "name": "D4",
          "ticks": 15948,
          "time": 28.9751071875,
          "velocity": 0.937007874015748
        },
        {
          "duration": 0.16715010416666942,
          "durationTicks": 92,
          "midi": 58,
          "name": "A#3",
          "ticks": 16032,
          "time": 29.1277225,
          "velocity": 0.7244094488188977
        },
        {
          "duration": 0.16715010416666942,
          "durationTicks": 92,
          "midi": 62,
          "name": "D4",
          "ticks": 16032,
          "time": 29.1277225,
          "velocity": 0.8582677165354331
        },
        {
          "duration": 0.16715010416666942,
          "durationTicks": 92,
          "midi": 67,
          "name": "G4",
          "ticks": 16032,
          "time": 29.1277225,
          "velocity": 0.7559055118110236
        },
        {
          "duration": 0.2834284374999996,
          "durationTicks": 156,
          "midi": 58,
          "name": "A#3",
          "ticks": 16128,
          "time": 29.30214,
          "velocity": 0.7244094488188977
        },
        {
          "duration": 0.2834284374999996,
          "durationTicks": 156,
          "midi": 62,
          "name": "D4",
          "ticks": 16128,
          "time": 29.30214,
          "velocity": 0.8582677165354331
        },
        {
          "duration": 0.44331114583333076,
          "durationTicks": 244,
          "midi": 55,
          "name": "G3",
          "ticks": 16134,
          "time": 29.31304109375,
          "velocity": 0.905511811023622
        },
        {
          "duration": 0.13808052083333422,
          "durationTicks": 76,
          "midi": 58,
          "name": "A#3",
          "ticks": 16316,
          "time": 29.643707604166668,
          "velocity": 0.905511811023622
        },
        {
          "duration": 0.15261531250000004,
          "durationTicks": 84,
          "midi": 62,
          "name": "D4",
          "ticks": 16328,
          "time": 29.66550979166667,
          "velocity": 0.9763779527559056
        },
        {
          "duration": 0.15261531250000004,
          "durationTicks": 84,
          "midi": 67,
          "name": "G4",
          "ticks": 16328,
          "time": 29.66550979166667,
          "velocity": 0.9763779527559056
        },
        {
          "duration": 0.34156760416667,
          "durationTicks": 188,
          "midi": 55,
          "name": "G3",
          "ticks": 16416,
          "time": 29.8253925,
          "velocity": 0.7637795275590551
        },
        {
          "duration": 0.34156760416667,
          "durationTicks": 188,
          "midi": 58,
          "name": "A#3",
          "ticks": 16416,
          "time": 29.8253925,
          "velocity": 0.8267716535433071
        },
        {
          "duration": 0.34156760416667,
          "durationTicks": 188,
          "midi": 62,
          "name": "D4",
          "ticks": 16416,
          "time": 29.8253925,
          "velocity": 0.8976377952755905
        },
        {
          "duration": 0.34156760416667,
          "durationTicks": 188,
          "midi": 67,
          "name": "G4",
          "ticks": 16416,
          "time": 29.8253925,
          "velocity": 0.8976377952755905
        },
        {
          "duration": 0.17078380208333144,
          "durationTicks": 94,
          "midi": 55,
          "name": "G3",
          "ticks": 16608,
          "time": 30.1742275,
          "velocity": 0.8582677165354331
        },
        {
          "duration": 0.17078380208333144,
          "durationTicks": 94,
          "midi": 58,
          "name": "A#3",
          "ticks": 16608,
          "time": 30.1742275,
          "velocity": 0.8110236220472441
        },
        {
          "duration": 0.27979473958333045,
          "durationTicks": 154,
          "midi": 55,
          "name": "G3",
          "ticks": 16706,
          "time": 30.35227869791667,
          "velocity": 0.937007874015748
        },
        {
          "duration": 0.2688936458333302,
          "durationTicks": 148,
          "midi": 58,
          "name": "A#3",
          "ticks": 16712,
          "time": 30.36317979166667,
          "velocity": 0.889763779527559
        },
        {
          "duration": 0.32339911458333503,
          "durationTicks": 178,
          "midi": 62,
          "name": "D4",
          "ticks": 16714,
          "time": 30.366813489583333,
          "velocity": 0.937007874015748
        },
        {
          "duration": 0.32339911458333503,
          "durationTicks": 178,
          "midi": 67,
          "name": "G4",
          "ticks": 16714,
          "time": 30.366813489583333,
          "velocity": 0.937007874015748
        },
        {
          "duration": 0.2543588541666715,
          "durationTicks": 140,
          "midi": 58,
          "name": "A#3",
          "ticks": 16896,
          "time": 30.69748,
          "velocity": 0.7007874015748031
        },
        {
          "duration": 0.4869155208333318,
          "durationTicks": 268,
          "midi": 55,
          "name": "G3",
          "ticks": 16902,
          "time": 30.70838109375,
          "velocity": 0.952755905511811
        },
        {
          "duration": 0.15261531250000004,
          "durationTicks": 84,
          "midi": 58,
          "name": "A#3",
          "ticks": 17086,
          "time": 31.04268130208333,
          "velocity": 0.9133858267716536
        },
        {
          "duration": 0.13808052083333777,
          "durationTicks": 76,
          "midi": 67,
          "name": "G4",
          "ticks": 17092,
          "time": 31.05358239583333,
          "velocity": 0.9763779527559056
        },
        {
          "duration": 0.15624901041666917,
          "durationTicks": 86,
          "midi": 62,
          "name": "D4",
          "ticks": 17094,
          "time": 31.05721609375,
          "velocity": 0.9763779527559056
        },
        {
          "duration": 0.3124980208333312,
          "durationTicks": 172,
          "midi": 62,
          "name": "D4",
          "ticks": 17184,
          "time": 31.2207325,
          "velocity": 0.8976377952755905
        },
        {
          "duration": 0.3124980208333312,
          "durationTicks": 172,
          "midi": 67,
          "name": "G4",
          "ticks": 17184,
          "time": 31.2207325,
          "velocity": 0.8976377952755905
        },
        {
          "duration": 0.27979473958333045,
          "durationTicks": 154,
          "midi": 55,
          "name": "G3",
          "ticks": 17192,
          "time": 31.23526729166667,
          "velocity": 0.8976377952755905
        },
        {
          "duration": 0.31613171875000035,
          "durationTicks": 174,
          "midi": 58,
          "name": "A#3",
          "ticks": 17198,
          "time": 31.24616838541667,
          "velocity": 0.8503937007874016
        },
        {
          "duration": 0.16715010416666587,
          "durationTicks": 92,
          "midi": 55,
          "name": "G3",
          "ticks": 17376,
          "time": 31.5695675,
          "velocity": 0.8582677165354331
        },
        {
          "duration": 0.16715010416666587,
          "durationTicks": 92,
          "midi": 58,
          "name": "A#3",
          "ticks": 17376,
          "time": 31.5695675,
          "velocity": 0.7559055118110236
        },
        {
          "duration": 0.1271794270833304,
          "durationTicks": 70,
          "midi": 55,
          "name": "G3",
          "ticks": 17472,
          "time": 31.743985000000002,
          "velocity": 0.937007874015748
        },
        {
          "duration": 0.13808052083333422,
          "durationTicks": 76,
          "midi": 67,
          "name": "G4",
          "ticks": 17482,
          "time": 31.762153489583334,
          "velocity": 0.937007874015748
        },
        {
          "duration": 0.1453479166666689,
          "durationTicks": 80,
          "midi": 58,
          "name": "A#3",
          "ticks": 17484,
          "time": 31.7657871875,
          "velocity": 0.8740157480314961
        },
        {
          "duration": 0.1453479166666689,
          "durationTicks": 80,
          "midi": 62,
          "name": "D4",
          "ticks": 17484,
          "time": 31.7657871875,
          "velocity": 0.937007874015748
        },
        {
          "duration": 0.16715010416667297,
          "durationTicks": 92,
          "midi": 58,
          "name": "A#3",
          "ticks": 17568,
          "time": 31.9184025,
          "velocity": 0.7244094488188977
        },
        {
          "duration": 0.16715010416667297,
          "durationTicks": 92,
          "midi": 62,
          "name": "D4",
          "ticks": 17568,
          "time": 31.9184025,
          "velocity": 0.8582677165354331
        },
        {
          "duration": 0.16715010416667297,
          "durationTicks": 92,
          "midi": 67,
          "name": "G4",
          "ticks": 17568,
          "time": 31.9184025,
          "velocity": 0.7559055118110236
        },
        {
          "duration": 0.2834284374999996,
          "durationTicks": 156,
          "midi": 58,
          "name": "A#3",
          "ticks": 17664,
          "time": 32.09282,
          "velocity": 0.7244094488188977
        },
        {
          "duration": 0.2834284374999996,
          "durationTicks": 156,
          "midi": 62,
          "name": "D4",
          "ticks": 17664,
          "time": 32.09282,
          "velocity": 0.8582677165354331
        },
        {
          "duration": 0.4433111458333272,
          "durationTicks": 244,
          "midi": 55,
          "name": "G3",
          "ticks": 17670,
          "time": 32.10372109375,
          "velocity": 0.905511811023622
        },
        {
          "duration": 0.13808052083333422,
          "durationTicks": 76,
          "midi": 58,
          "name": "A#3",
          "ticks": 17852,
          "time": 32.434387604166666,
          "velocity": 0.905511811023622
        },
        {
          "duration": 0.1526153125000036,
          "durationTicks": 84,
          "midi": 62,
          "name": "D4",
          "ticks": 17864,
          "time": 32.45618979166667,
          "velocity": 0.9763779527559056
        },
        {
          "duration": 0.1526153125000036,
          "durationTicks": 84,
          "midi": 67,
          "name": "G4",
          "ticks": 17864,
          "time": 32.45618979166667,
          "velocity": 0.9763779527559056
        },
        {
          "duration": 0.34156760416667,
          "durationTicks": 188,
          "midi": 55,
          "name": "G3",
          "ticks": 17952,
          "time": 32.6160725,
          "velocity": 0.7637795275590551
        },
        {
          "duration": 0.34156760416667,
          "durationTicks": 188,
          "midi": 58,
          "name": "A#3",
          "ticks": 17952,
          "time": 32.6160725,
          "velocity": 0.8267716535433071
        },
        {
          "duration": 0.34156760416667,
          "durationTicks": 188,
          "midi": 62,
          "name": "D4",
          "ticks": 17952,
          "time": 32.6160725,
          "velocity": 0.8976377952755905
        },
        {
          "duration": 0.34156760416667,
          "durationTicks": 188,
          "midi": 67,
          "name": "G4",
          "ticks": 17952,
          "time": 32.6160725,
          "velocity": 0.8976377952755905
        },
        {
          "duration": 0.17078380208332788,
          "durationTicks": 94,
          "midi": 55,
          "name": "G3",
          "ticks": 18144,
          "time": 32.9649075,
          "velocity": 0.8582677165354331
        },
        {
          "duration": 0.17078380208332788,
          "durationTicks": 94,
          "midi": 58,
          "name": "A#3",
          "ticks": 18144,
          "time": 32.9649075,
          "velocity": 0.8110236220472441
        },
        {
          "duration": 0.27979473958333045,
          "durationTicks": 154,
          "midi": 55,
          "name": "G3",
          "ticks": 18242,
          "time": 33.14295869791667,
          "velocity": 0.937007874015748
        },
        {
          "duration": 0.2688936458333302,
          "durationTicks": 148,
          "midi": 58,
          "name": "A#3",
          "ticks": 18248,
          "time": 33.15385979166667,
          "velocity": 0.889763779527559
        },
        {
          "duration": 0.3233991145833386,
          "durationTicks": 178,
          "midi": 62,
          "name": "D4",
          "ticks": 18250,
          "time": 33.15749348958333,
          "velocity": 0.937007874015748
        },
        {
          "duration": 0.3233991145833386,
          "durationTicks": 178,
          "midi": 67,
          "name": "G4",
          "ticks": 18250,
          "time": 33.15749348958333,
          "velocity": 0.937007874015748
        },
        {
          "duration": 0.48691552083332823,
          "durationTicks": 268,
          "midi": 55,
          "name": "G3",
          "ticks": 18432,
          "time": 33.48816,
          "velocity": 0.952755905511811
        },
        {
          "duration": 0.2543588541666679,
          "durationTicks": 140,
          "midi": 58,
          "name": "A#3",
          "ticks": 18432,
          "time": 33.48816,
          "velocity": 0.7007874015748031
        },
        {
          "duration": 0.1526153124999965,
          "durationTicks": 84,
          "midi": 58,
          "name": "A#3",
          "ticks": 18616,
          "time": 33.82246020833333,
          "velocity": 0.9133858267716536
        },
        {
          "duration": 0.13808052083333422,
          "durationTicks": 76,
          "midi": 67,
          "name": "G4",
          "ticks": 18622,
          "time": 33.83336130208333,
          "velocity": 0.9763779527559056
        },
        {
          "duration": 0.16715010416666587,
          "durationTicks": 92,
          "midi": 62,
          "name": "D4",
          "ticks": 18624,
          "time": 33.836995,
          "velocity": 0.9763779527559056
        },
        {
          "duration": 0.3306665104166697,
          "durationTicks": 182,
          "midi": 58,
          "name": "A#3",
          "ticks": 18720,
          "time": 34.0114125,
          "velocity": 0.6456692913385826
        },
        {
          "duration": 0.31249802083333833,
          "durationTicks": 172,
          "midi": 62,
          "name": "D4",
          "ticks": 18730,
          "time": 34.02958098958333,
          "velocity": 0.8188976377952756
        },
        {
          "duration": 0.31249802083333833,
          "durationTicks": 172,
          "midi": 67,
          "name": "G4",
          "ticks": 18730,
          "time": 34.02958098958333,
          "velocity": 0.8188976377952756
        },
        {
          "duration": 0.16715010416666587,
          "durationTicks": 92,
          "midi": 55,
          "name": "G3",
          "ticks": 18906,
          "time": 34.34934640625,
          "velocity": 0.8582677165354331
        },
        {
          "duration": 0.16715010416666587,
          "durationTicks": 92,
          "midi": 58,
          "name": "A#3",
          "ticks": 18906,
          "time": 34.34934640625,
          "velocity": 0.7559055118110236
        },
        {
          "duration": 0.12717942708332686,
          "durationTicks": 70,
          "midi": 55,
          "name": "G3",
          "ticks": 19002,
          "time": 34.523763906250004,
          "velocity": 0.9763779527559056
        },
        {
          "duration": 0.13808052083333422,
          "durationTicks": 76,
          "midi": 67,
          "name": "G4",
          "ticks": 19012,
          "time": 34.541932395833335,
          "velocity": 0.9763779527559056
        },
        {
          "duration": 0.14534791666667246,
          "durationTicks": 80,
          "midi": 58,
          "name": "A#3",
          "ticks": 19014,
          "time": 34.54556609375,
          "velocity": 0.9133858267716536
        },
        {
          "duration": 0.14534791666667246,
          "durationTicks": 80,
          "midi": 62,
          "name": "D4",
          "ticks": 19014,
          "time": 34.54556609375,
          "velocity": 0.9763779527559056
        },
        {
          "duration": 0.16715010416666587,
          "durationTicks": 92,
          "midi": 58,
          "name": "A#3",
          "ticks": 19098,
          "time": 34.69818140625,
          "velocity": 0.7637795275590551
        },
        {
          "duration": 0.16715010416666587,
          "durationTicks": 92,
          "midi": 62,
          "name": "D4",
          "ticks": 19098,
          "time": 34.69818140625,
          "velocity": 0.8976377952755905
        },
        {
          "duration": 0.16715010416666587,
          "durationTicks": 92,
          "midi": 67,
          "name": "G4",
          "ticks": 19098,
          "time": 34.69818140625,
          "velocity": 0.7952755905511811
        },
        {
          "duration": 0.2834284374999996,
          "durationTicks": 156,
          "midi": 58,
          "name": "A#3",
          "ticks": 19194,
          "time": 34.87259890625,
          "velocity": 0.7244094488188977
        },
        {
          "duration": 0.2834284374999996,
          "durationTicks": 156,
          "midi": 62,
          "name": "D4",
          "ticks": 19194,
          "time": 34.87259890625,
          "velocity": 0.8582677165354331
        },
        {
          "duration": 0.4433111458333343,
          "durationTicks": 244,
          "midi": 55,
          "name": "G3",
          "ticks": 19200,
          "time": 34.8835,
          "velocity": 0.905511811023622
        },
        {
          "duration": 0.13808052083333422,
          "durationTicks": 76,
          "midi": 58,
          "name": "A#3",
          "ticks": 19382,
          "time": 35.21416651041667,
          "velocity": 0.905511811023622
        },
        {
          "duration": 0.1526153125000036,
          "durationTicks": 84,
          "midi": 62,
          "name": "D4",
          "ticks": 19394,
          "time": 35.23596869791667,
          "velocity": 0.9763779527559056
        },
        {
          "duration": 0.1526153125000036,
          "durationTicks": 84,
          "midi": 67,
          "name": "G4",
          "ticks": 19394,
          "time": 35.23596869791667,
          "velocity": 0.9763779527559056
        },
        {
          "duration": 0.3415676041666629,
          "durationTicks": 188,
          "midi": 58,
          "name": "A#3",
          "ticks": 19482,
          "time": 35.39585140625,
          "velocity": 0.7480314960629921
        },
        {
          "duration": 0.3415676041666629,
          "durationTicks": 188,
          "midi": 62,
          "name": "D4",
          "ticks": 19482,
          "time": 35.39585140625,
          "velocity": 0.8188976377952756
        },
        {
          "duration": 0.3415676041666629,
          "durationTicks": 188,
          "midi": 67,
          "name": "G4",
          "ticks": 19482,
          "time": 35.39585140625,
          "velocity": 0.8188976377952756
        },
        {
          "duration": 0.17078380208332788,
          "durationTicks": 94,
          "midi": 55,
          "name": "G3",
          "ticks": 19674,
          "time": 35.744686406250004,
          "velocity": 0.8582677165354331
        },
        {
          "duration": 0.17078380208332788,
          "durationTicks": 94,
          "midi": 58,
          "name": "A#3",
          "ticks": 19674,
          "time": 35.744686406250004,
          "velocity": 0.8110236220472441
        },
        {
          "duration": 0.2906958333333307,
          "durationTicks": 160,
          "midi": 55,
          "name": "G3",
          "ticks": 19772,
          "time": 35.92273760416667,
          "velocity": 0.937007874015748
        },
        {
          "duration": 0.27979473958333045,
          "durationTicks": 154,
          "midi": 58,
          "name": "A#3",
          "ticks": 19778,
          "time": 35.93363869791667,
          "velocity": 0.889763779527559
        },
        {
          "duration": 0.33430020833333884,
          "durationTicks": 184,
          "midi": 62,
          "name": "D4",
          "ticks": 19780,
          "time": 35.93727239583333,
          "velocity": 0.937007874015748
        },
        {
          "duration": 0.33430020833333884,
          "durationTicks": 184,
          "midi": 67,
          "name": "G4",
          "ticks": 19780,
          "time": 35.93727239583333,
          "velocity": 0.937007874015748
        },
        {
          "duration": 0.2543588541666679,
          "durationTicks": 140,
          "midi": 58,
          "name": "A#3",
          "ticks": 19968,
          "time": 36.27884,
          "velocity": 0.7007874015748031
        },
        {
          "duration": 0.48691552083332823,
          "durationTicks": 268,
          "midi": 55,
          "name": "G3",
          "ticks": 19974,
          "time": 36.28974109375,
          "velocity": 0.952755905511811
        },
        {
          "duration": 0.1526153124999965,
          "durationTicks": 84,
          "midi": 58,
          "name": "A#3",
          "ticks": 20158,
          "time": 36.624041302083334,
          "velocity": 0.9133858267716536
        },
        {
          "duration": 0.13808052083333422,
          "durationTicks": 76,
          "midi": 67,
          "name": "G4",
          "ticks": 20164,
          "time": 36.634942395833335,
          "velocity": 0.9763779527559056
        },
        {
          "duration": 0.1562490104166656,
          "durationTicks": 86,
          "midi": 62,
          "name": "D4",
          "ticks": 20166,
          "time": 36.638576093750004,
          "velocity": 0.9763779527559056
        },
        {
          "duration": 0.3124980208333312,
          "durationTicks": 172,
          "midi": 62,
          "name": "D4",
          "ticks": 20256,
          "time": 36.8020925,
          "velocity": 0.8976377952755905
        },
        {
          "duration": 0.3124980208333312,
          "durationTicks": 172,
          "midi": 67,
          "name": "G4",
          "ticks": 20256,
          "time": 36.8020925,
          "velocity": 0.8976377952755905
        },
        {
          "duration": 0.27979473958333045,
          "durationTicks": 154,
          "midi": 55,
          "name": "G3",
          "ticks": 20264,
          "time": 36.81662729166667,
          "velocity": 0.8976377952755905
        },
        {
          "duration": 0.31613171875000035,
          "durationTicks": 174,
          "midi": 58,
          "name": "A#3",
          "ticks": 20270,
          "time": 36.82752838541667,
          "velocity": 0.8503937007874016
        },
        {
          "duration": 0.16715010416666587,
          "durationTicks": 92,
          "midi": 55,
          "name": "G3",
          "ticks": 20448,
          "time": 37.1509275,
          "velocity": 0.8582677165354331
        },
        {
          "duration": 0.16715010416666587,
          "durationTicks": 92,
          "midi": 58,
          "name": "A#3",
          "ticks": 20448,
          "time": 37.1509275,
          "velocity": 0.7559055118110236
        },
        {
          "duration": 0.12717942708333396,
          "durationTicks": 70,
          "midi": 55,
          "name": "G3",
          "ticks": 20544,
          "time": 37.325345,
          "velocity": 0.937007874015748
        },
        {
          "duration": 0.13808052083334132,
          "durationTicks": 76,
          "midi": 67,
          "name": "G4",
          "ticks": 20554,
          "time": 37.34351348958333,
          "velocity": 0.937007874015748
        },
        {
          "duration": 0.14534791666667246,
          "durationTicks": 80,
          "midi": 58,
          "name": "A#3",
          "ticks": 20556,
          "time": 37.3471471875,
          "velocity": 0.8740157480314961
        },
        {
          "duration": 0.14534791666667246,
          "durationTicks": 80,
          "midi": 62,
          "name": "D4",
          "ticks": 20556,
          "time": 37.3471471875,
          "velocity": 0.937007874015748
        },
        {
          "duration": 0.16715010416666587,
          "durationTicks": 92,
          "midi": 58,
          "name": "A#3",
          "ticks": 20640,
          "time": 37.4997625,
          "velocity": 0.7244094488188977
        },
        {
          "duration": 0.16715010416666587,
          "durationTicks": 92,
          "midi": 62,
          "name": "D4",
          "ticks": 20640,
          "time": 37.4997625,
          "velocity": 0.8582677165354331
        },
        {
          "duration": 0.16715010416666587,
          "durationTicks": 92,
          "midi": 67,
          "name": "G4",
          "ticks": 20640,
          "time": 37.4997625,
          "velocity": 0.7559055118110236
        },
        {
          "duration": 0.2834284374999996,
          "durationTicks": 156,
          "midi": 58,
          "name": "A#3",
          "ticks": 20736,
          "time": 37.67418,
          "velocity": 0.7244094488188977
        },
        {
          "duration": 0.2834284374999996,
          "durationTicks": 156,
          "midi": 62,
          "name": "D4",
          "ticks": 20736,
          "time": 37.67418,
          "velocity": 0.8582677165354331
        },
        {
          "duration": 0.4433111458333343,
          "durationTicks": 244,
          "midi": 55,
          "name": "G3",
          "ticks": 20742,
          "time": 37.68508109375,
          "velocity": 0.905511811023622
        },
        {
          "duration": 0.13808052083333422,
          "durationTicks": 76,
          "midi": 58,
          "name": "A#3",
          "ticks": 20924,
          "time": 38.01574760416667,
          "velocity": 0.905511811023622
        },
        {
          "duration": 0.1526153124999965,
          "durationTicks": 84,
          "midi": 62,
          "name": "D4",
          "ticks": 20936,
          "time": 38.03754979166667,
          "velocity": 0.9763779527559056
        },
        {
          "duration": 0.1526153124999965,
          "durationTicks": 84,
          "midi": 67,
          "name": "G4",
          "ticks": 20936,
          "time": 38.03754979166667,
          "velocity": 0.9763779527559056
        },
        {
          "duration": 0.34156760416667,
          "durationTicks": 188,
          "midi": 55,
          "name": "G3",
          "ticks": 21024,
          "time": 38.1974325,
          "velocity": 0.7637795275590551
        },
        {
          "duration": 0.34156760416667,
          "durationTicks": 188,
          "midi": 58,
          "name": "A#3",
          "ticks": 21024,
          "time": 38.1974325,
          "velocity": 0.8267716535433071
        },
        {
          "duration": 0.34156760416667,
          "durationTicks": 188,
          "midi": 62,
          "name": "D4",
          "ticks": 21024,
          "time": 38.1974325,
          "velocity": 0.8976377952755905
        },
        {
          "duration": 0.34156760416667,
          "durationTicks": 188,
          "midi": 67,
          "name": "G4",
          "ticks": 21024,
          "time": 38.1974325,
          "velocity": 0.8976377952755905
        },
        {
          "duration": 0.170783802083335,
          "durationTicks": 94,
          "midi": 55,
          "name": "G3",
          "ticks": 21216,
          "time": 38.5462675,
          "velocity": 0.8582677165354331
        },
        {
          "duration": 0.170783802083335,
          "durationTicks": 94,
          "midi": 58,
          "name": "A#3",
          "ticks": 21216,
          "time": 38.5462675,
          "velocity": 0.8110236220472441
        },
        {
          "duration": 0.27979473958333045,
          "durationTicks": 154,
          "midi": 55,
          "name": "G3",
          "ticks": 21314,
          "time": 38.72431869791667,
          "velocity": 0.937007874015748
        },
        {
          "duration": 0.2688936458333302,
          "durationTicks": 148,
          "midi": 58,
          "name": "A#3",
          "ticks": 21320,
          "time": 38.73521979166667,
          "velocity": 0.889763779527559
        },
        {
          "duration": 0.3233991145833315,
          "durationTicks": 178,
          "midi": 62,
          "name": "D4",
          "ticks": 21322,
          "time": 38.738853489583335,
          "velocity": 0.937007874015748
        },
        {
          "duration": 0.3233991145833315,
          "durationTicks": 178,
          "midi": 67,
          "name": "G4",
          "ticks": 21322,
          "time": 38.738853489583335,
          "velocity": 0.937007874015748
        },
        {
          "duration": 0.25435885416667503,
          "durationTicks": 140,
          "midi": 57,
          "name": "A3",
          "ticks": 21504,
          "time": 39.06952,
          "velocity": 0.7007874015748031
        },
        {
          "duration": 0.48691552083333534,
          "durationTicks": 268,
          "midi": 53,
          "name": "F3",
          "ticks": 21510,
          "time": 39.08042109375,
          "velocity": 0.952755905511811
        },
        {
          "duration": 0.1526153125000036,
          "durationTicks": 84,
          "midi": 57,
          "name": "A3",
          "ticks": 21696,
          "time": 39.418355,
          "velocity": 0.9133858267716536
        },
        {
          "duration": 0.13808052083334132,
          "durationTicks": 76,
          "midi": 65,
          "name": "F4",
          "ticks": 21700,
          "time": 39.42562239583333,
          "velocity": 0.9763779527559056
        },
        {
          "duration": 0.15624901041667272,
          "durationTicks": 86,
          "midi": 60,
          "name": "C4",
          "ticks": 21702,
          "time": 39.42925609375,
          "velocity": 0.9763779527559056
        },
        {
          "duration": 0.2652599479166682,
          "durationTicks": 146,
          "midi": 57,
          "name": "A3",
          "ticks": 21792,
          "time": 39.5927725,
          "velocity": 0.8503937007874016
        },
        {
          "duration": 0.3124980208333312,
          "durationTicks": 172,
          "midi": 60,
          "name": "C4",
          "ticks": 21792,
          "time": 39.5927725,
          "velocity": 0.8976377952755905
        },
        {
          "duration": 0.3124980208333312,
          "durationTicks": 172,
          "midi": 65,
          "name": "F4",
          "ticks": 21792,
          "time": 39.5927725,
          "velocity": 0.8976377952755905
        },
        {
          "duration": 0.3270328125000006,
          "durationTicks": 180,
          "midi": 53,
          "name": "F3",
          "ticks": 21800,
          "time": 39.60730729166667,
          "velocity": 0.8976377952755905
        },
        {
          "duration": 0.16715010416666587,
          "durationTicks": 92,
          "midi": 53,
          "name": "F3",
          "ticks": 21984,
          "time": 39.9416075,
          "velocity": 0.8582677165354331
        },
        {
          "duration": 0.16715010416666587,
          "durationTicks": 92,
          "midi": 57,
          "name": "A3",
          "ticks": 21984,
          "time": 39.9416075,
          "velocity": 0.7559055118110236
        },
        {
          "duration": 0.12717942708333396,
          "durationTicks": 70,
          "midi": 53,
          "name": "F3",
          "ticks": 22080,
          "time": 40.116025,
          "velocity": 0.937007874015748
        },
        {
          "duration": 0.11991203125000283,
          "durationTicks": 66,
          "midi": 57,
          "name": "A3",
          "ticks": 22080,
          "time": 40.116025,
          "velocity": 0.8740157480314961
        },
        {
          "duration": 0.13808052083333422,
          "durationTicks": 76,
          "midi": 65,
          "name": "F4",
          "ticks": 22090,
          "time": 40.13419348958333,
          "velocity": 0.937007874015748
        },
        {
          "duration": 0.14534791666666536,
          "durationTicks": 80,
          "midi": 60,
          "name": "C4",
          "ticks": 22092,
          "time": 40.1378271875,
          "velocity": 0.937007874015748
        },
        {
          "duration": 0.16715010416667297,
          "durationTicks": 92,
          "midi": 57,
          "name": "A3",
          "ticks": 22176,
          "time": 40.2904425,
          "velocity": 0.7244094488188977
        },
        {
          "duration": 0.16715010416667297,
          "durationTicks": 92,
          "midi": 60,
          "name": "C4",
          "ticks": 22176,
          "time": 40.2904425,
          "velocity": 0.8582677165354331
        },
        {
          "duration": 0.16715010416667297,
          "durationTicks": 92,
          "midi": 65,
          "name": "F4",
          "ticks": 22176,
          "time": 40.2904425,
          "velocity": 0.7559055118110236
        },
        {
          "duration": 0.2834284374999996,
          "durationTicks": 156,
          "midi": 57,
          "name": "A3",
          "ticks": 22272,
          "time": 40.46486,
          "velocity": 0.7244094488188977
        },
        {
          "duration": 0.2834284374999996,
          "durationTicks": 156,
          "midi": 60,
          "name": "C4",
          "ticks": 22272,
          "time": 40.46486,
          "velocity": 0.8582677165354331
        },
        {
          "duration": 0.4433111458333272,
          "durationTicks": 244,
          "midi": 53,
          "name": "F3",
          "ticks": 22278,
          "time": 40.47576109375,
          "velocity": 0.905511811023622
        },
        {
          "duration": 0.13808052083332711,
          "durationTicks": 76,
          "midi": 57,
          "name": "A3",
          "ticks": 22464,
          "time": 40.813695,
          "velocity": 0.905511811023622
        },
        {
          "duration": 0.1526153124999965,
          "durationTicks": 84,
          "midi": 60,
          "name": "C4",
          "ticks": 22472,
          "time": 40.82822979166667,
          "velocity": 0.9763779527559056
        },
        {
          "duration": 0.1526153124999965,
          "durationTicks": 84,
          "midi": 65,
          "name": "F4",
          "ticks": 22472,
          "time": 40.82822979166667,
          "velocity": 0.9763779527559056
        },
        {
          "duration": 0.34156760416667,
          "durationTicks": 188,
          "midi": 53,
          "name": "F3",
          "ticks": 22560,
          "time": 40.9881125,
          "velocity": 0.7637795275590551
        },
        {
          "duration": 0.34156760416667,
          "durationTicks": 188,
          "midi": 57,
          "name": "A3",
          "ticks": 22560,
          "time": 40.9881125,
          "velocity": 0.8267716535433071
        },
        {
          "duration": 0.34156760416667,
          "durationTicks": 188,
          "midi": 60,
          "name": "C4",
          "ticks": 22560,
          "time": 40.9881125,
          "velocity": 0.8976377952755905
        },
        {
          "duration": 0.34156760416667,
          "durationTicks": 188,
          "midi": 65,
          "name": "F4",
          "ticks": 22560,
          "time": 40.9881125,
          "velocity": 0.8976377952755905
        },
        {
          "duration": 0.16715010416666587,
          "durationTicks": 92,
          "midi": 53,
          "name": "F3",
          "ticks": 22752,
          "time": 41.3369475,
          "velocity": 0.8582677165354331
        },
        {
          "duration": 0.16715010416666587,
          "durationTicks": 92,
          "midi": 57,
          "name": "A3",
          "ticks": 22752,
          "time": 41.3369475,
          "velocity": 0.8110236220472441
        },
        {
          "duration": 0.2652599479166682,
          "durationTicks": 146,
          "midi": 57,
          "name": "A3",
          "ticks": 22848,
          "time": 41.511365,
          "velocity": 0.889763779527559
        },
        {
          "duration": 0.27979473958333045,
          "durationTicks": 154,
          "midi": 53,
          "name": "F3",
          "ticks": 22850,
          "time": 41.51499869791667,
          "velocity": 0.937007874015748
        },
        {
          "duration": 0.3233991145833386,
          "durationTicks": 178,
          "midi": 60,
          "name": "C4",
          "ticks": 22858,
          "time": 41.52953348958333,
          "velocity": 0.937007874015748
        },
        {
          "duration": 0.3233991145833386,
          "durationTicks": 178,
          "midi": 65,
          "name": "F4",
          "ticks": 22858,
          "time": 41.52953348958333,
          "velocity": 0.937007874015748
        },
        {
          "duration": 0.2543588541666679,
          "durationTicks": 140,
          "midi": 62,
          "name": "D4",
          "ticks": 23040,
          "time": 41.8602,
          "velocity": 0.7007874015748031
        },
        {
          "duration": 0.48691552083333534,
          "durationTicks": 268,
          "midi": 57,
          "name": "A3",
          "ticks": 23046,
          "time": 41.87110109375,
          "velocity": 0.952755905511811
        },
        {
          "duration": 0.1526153125000036,
          "durationTicks": 84,
          "midi": 62,
          "name": "D4",
          "ticks": 23230,
          "time": 42.20540130208333,
          "velocity": 0.9133858267716536
        },
        {
          "duration": 0.13808052083334132,
          "durationTicks": 76,
          "midi": 69,
          "name": "A4",
          "ticks": 23236,
          "time": 42.21630239583333,
          "velocity": 0.9763779527559056
        },
        {
          "duration": 0.1562490104166656,
          "durationTicks": 86,
          "midi": 66,
          "name": "F#4",
          "ticks": 23238,
          "time": 42.21993609375,
          "velocity": 0.9763779527559056
        },
        {
          "duration": 0.3124980208333312,
          "durationTicks": 172,
          "midi": 66,
          "name": "F#4",
          "ticks": 23328,
          "time": 42.383452500000004,
          "velocity": 0.8976377952755905
        },
        {
          "duration": 0.3124980208333312,
          "durationTicks": 172,
          "midi": 69,
          "name": "A4",
          "ticks": 23328,
          "time": 42.383452500000004,
          "velocity": 0.8976377952755905
        },
        {
          "duration": 0.27979473958333756,
          "durationTicks": 154,
          "midi": 57,
          "name": "A3",
          "ticks": 23336,
          "time": 42.39798729166667,
          "velocity": 0.8976377952755905
        },
        {
          "duration": 0.31613171875000035,
          "durationTicks": 174,
          "midi": 62,
          "name": "D4",
          "ticks": 23342,
          "time": 42.40888838541667,
          "velocity": 0.8503937007874016
        },
        {
          "duration": 0.16715010416667297,
          "durationTicks": 92,
          "midi": 57,
          "name": "A3",
          "ticks": 23520,
          "time": 42.7322875,
          "velocity": 0.8582677165354331
        },
        {
          "duration": 0.16715010416667297,
          "durationTicks": 92,
          "midi": 62,
          "name": "D4",
          "ticks": 23520,
          "time": 42.7322875,
          "velocity": 0.7559055118110236
        },
        {
          "duration": 0.12717942708332686,
          "durationTicks": 70,
          "midi": 57,
          "name": "A3",
          "ticks": 23616,
          "time": 42.906705,
          "velocity": 0.937007874015748
        },
        {
          "duration": 0.13808052083333422,
          "durationTicks": 76,
          "midi": 69,
          "name": "A4",
          "ticks": 23626,
          "time": 42.924873489583334,
          "velocity": 0.937007874015748
        },
        {
          "duration": 0.14534791666666536,
          "durationTicks": 80,
          "midi": 62,
          "name": "D4",
          "ticks": 23628,
          "time": 42.9285071875,
          "velocity": 0.8740157480314961
        },
        {
          "duration": 0.14534791666666536,
          "durationTicks": 80,
          "midi": 66,
          "name": "F#4",
          "ticks": 23628,
          "time": 42.9285071875,
          "velocity": 0.937007874015748
        },
        {
          "duration": 0.16715010416667297,
          "durationTicks": 92,
          "midi": 62,
          "name": "D4",
          "ticks": 23712,
          "time": 43.0811225,
          "velocity": 0.7244094488188977
        },
        {
          "duration": 0.16715010416667297,
          "durationTicks": 92,
          "midi": 66,
          "name": "F#4",
          "ticks": 23712,
          "time": 43.0811225,
          "velocity": 0.8582677165354331
        },
        {
          "duration": 0.16715010416667297,
          "durationTicks": 92,
          "midi": 69,
          "name": "A4",
          "ticks": 23712,
          "time": 43.0811225,
          "velocity": 0.7559055118110236
        },
        {
          "duration": 0.2834284374999996,
          "durationTicks": 156,
          "midi": 62,
          "name": "D4",
          "ticks": 23808,
          "time": 43.25554,
          "velocity": 0.7244094488188977
        },
        {
          "duration": 0.2834284374999996,
          "durationTicks": 156,
          "midi": 66,
          "name": "F#4",
          "ticks": 23808,
          "time": 43.25554,
          "velocity": 0.8582677165354331
        },
        {
          "duration": 0.4433111458333272,
          "durationTicks": 244,
          "midi": 57,
          "name": "A3",
          "ticks": 23814,
          "time": 43.266441093750004,
          "velocity": 0.905511811023622
        },
        {
          "duration": 0.13808052083333422,
          "durationTicks": 76,
          "midi": 62,
          "name": "D4",
          "ticks": 23996,
          "time": 43.597107604166666,
          "velocity": 0.905511811023622
        },
        {
          "duration": 0.1526153125000036,
          "durationTicks": 84,
          "midi": 66,
          "name": "F#4",
          "ticks": 24008,
          "time": 43.61890979166667,
          "velocity": 0.9763779527559056
        },
        {
          "duration": 0.1526153125000036,
          "durationTicks": 84,
          "midi": 69,
          "name": "A4",
          "ticks": 24008,
          "time": 43.61890979166667,
          "velocity": 0.9763779527559056
        },
        {
          "duration": 0.34156760416667,
          "durationTicks": 188,
          "midi": 57,
          "name": "A3",
          "ticks": 24096,
          "time": 43.7787925,
          "velocity": 0.7637795275590551
        },
        {
          "duration": 0.34156760416667,
          "durationTicks": 188,
          "midi": 62,
          "name": "D4",
          "ticks": 24096,
          "time": 43.7787925,
          "velocity": 0.8267716535433071
        },
        {
          "duration": 0.34156760416667,
          "durationTicks": 188,
          "midi": 66,
          "name": "F#4",
          "ticks": 24096,
          "time": 43.7787925,
          "velocity": 0.8976377952755905
        },
        {
          "duration": 0.34156760416667,
          "durationTicks": 188,
          "midi": 69,
          "name": "A4",
          "ticks": 24096,
          "time": 43.7787925,
          "velocity": 0.8976377952755905
        },
        {
          "duration": 0.17078380208332788,
          "durationTicks": 94,
          "midi": 57,
          "name": "A3",
          "ticks": 24288,
          "time": 44.1276275,
          "velocity": 0.8582677165354331
        },
        {
          "duration": 0.17078380208332788,
          "durationTicks": 94,
          "midi": 62,
          "name": "D4",
          "ticks": 24288,
          "time": 44.1276275,
          "velocity": 0.8110236220472441
        },
        {
          "duration": 0.27979473958333045,
          "durationTicks": 154,
          "midi": 57,
          "name": "A3",
          "ticks": 24386,
          "time": 44.30567869791667,
          "velocity": 0.937007874015748
        },
        {
          "duration": 0.2688936458333302,
          "durationTicks": 148,
          "midi": 62,
          "name": "D4",
          "ticks": 24392,
          "time": 44.31657979166667,
          "velocity": 0.889763779527559
        },
        {
          "duration": 0.3233991145833386,
          "durationTicks": 178,
          "midi": 66,
          "name": "F#4",
          "ticks": 24394,
          "time": 44.32021348958333,
          "velocity": 0.937007874015748
        },
        {
          "duration": 0.3233991145833386,
          "durationTicks": 178,
          "midi": 69,
          "name": "A4",
          "ticks": 24394,
          "time": 44.32021348958333,
          "velocity": 0.937007874015748
        },
        {
          "duration": 0.48691552083333534,
          "durationTicks": 268,
          "midi": 55,
          "name": "G3",
          "ticks": 24576,
          "time": 44.65088,
          "velocity": 0.952755905511811
        },
        {
          "duration": 0.2543588541666608,
          "durationTicks": 140,
          "midi": 58,
          "name": "A#3",
          "ticks": 24576,
          "time": 44.65088,
          "velocity": 0.7007874015748031
        },
        {
          "duration": 0.1526153124999965,
          "durationTicks": 84,
          "midi": 58,
          "name": "A#3",
          "ticks": 24760,
          "time": 44.98518020833334,
          "velocity": 0.9133858267716536
        },
        {
          "duration": 0.13808052083332711,
          "durationTicks": 76,
          "midi": 67,
          "name": "G4",
          "ticks": 24766,
          "time": 44.99608130208334,
          "velocity": 0.9763779527559056
        },
        {
          "duration": 0.16715010416665876,
          "durationTicks": 92,
          "midi": 62,
          "name": "D4",
          "ticks": 24768,
          "time": 44.999715,
          "velocity": 0.9763779527559056
        },
        {
          "duration": 0.3306665104166626,
          "durationTicks": 182,
          "midi": 58,
          "name": "A#3",
          "ticks": 24864,
          "time": 45.1741325,
          "velocity": 0.6456692913385826
        },
        {
          "duration": 0.3124980208333241,
          "durationTicks": 172,
          "midi": 62,
          "name": "D4",
          "ticks": 24874,
          "time": 45.19230098958334,
          "velocity": 0.8188976377952756
        },
        {
          "duration": 0.3124980208333241,
          "durationTicks": 172,
          "midi": 67,
          "name": "G4",
          "ticks": 24874,
          "time": 45.19230098958334,
          "velocity": 0.8188976377952756
        },
        {
          "duration": 0.16715010416666587,
          "durationTicks": 92,
          "midi": 55,
          "name": "G3",
          "ticks": 25050,
          "time": 45.51206640625,
          "velocity": 0.8582677165354331
        },
        {
          "duration": 0.16715010416666587,
          "durationTicks": 92,
          "midi": 58,
          "name": "A#3",
          "ticks": 25050,
          "time": 45.51206640625,
          "velocity": 0.7559055118110236
        },
        {
          "duration": 0.12717942708333396,
          "durationTicks": 70,
          "midi": 55,
          "name": "G3",
          "ticks": 25146,
          "time": 45.686483906250004,
          "velocity": 0.9763779527559056
        },
        {
          "duration": 0.13808052083332711,
          "durationTicks": 76,
          "midi": 67,
          "name": "G4",
          "ticks": 25156,
          "time": 45.704652395833335,
          "velocity": 0.9763779527559056
        },
        {
          "duration": 0.14534791666666536,
          "durationTicks": 80,
          "midi": 58,
          "name": "A#3",
          "ticks": 25158,
          "time": 45.70828609375,
          "velocity": 0.9133858267716536
        },
        {
          "duration": 0.14534791666666536,
          "durationTicks": 80,
          "midi": 62,
          "name": "D4",
          "ticks": 25158,
          "time": 45.70828609375,
          "velocity": 0.9763779527559056
        },
        {
          "duration": 0.16715010416666587,
          "durationTicks": 92,
          "midi": 58,
          "name": "A#3",
          "ticks": 25242,
          "time": 45.86090140625,
          "velocity": 0.7637795275590551
        },
        {
          "duration": 0.16715010416666587,
          "durationTicks": 92,
          "midi": 62,
          "name": "D4",
          "ticks": 25242,
          "time": 45.86090140625,
          "velocity": 0.8976377952755905
        },
        {
          "duration": 0.16715010416666587,
          "durationTicks": 92,
          "midi": 67,
          "name": "G4",
          "ticks": 25242,
          "time": 45.86090140625,
          "velocity": 0.7952755905511811
        },
        {
          "duration": 0.2834284374999996,
          "durationTicks": 156,
          "midi": 58,
          "name": "A#3",
          "ticks": 25338,
          "time": 46.03531890625,
          "velocity": 0.7244094488188977
        },
        {
          "duration": 0.2834284374999996,
          "durationTicks": 156,
          "midi": 62,
          "name": "D4",
          "ticks": 25338,
          "time": 46.03531890625,
          "velocity": 0.8582677165354331
        },
        {
          "duration": 0.4433111458333414,
          "durationTicks": 244,
          "midi": 55,
          "name": "G3",
          "ticks": 25344,
          "time": 46.04622,
          "velocity": 0.905511811023622
        },
        {
          "duration": 0.13808052083334132,
          "durationTicks": 76,
          "midi": 58,
          "name": "A#3",
          "ticks": 25526,
          "time": 46.37688651041666,
          "velocity": 0.905511811023622
        },
        {
          "duration": 0.1526153125000036,
          "durationTicks": 84,
          "midi": 62,
          "name": "D4",
          "ticks": 25538,
          "time": 46.39868869791666,
          "velocity": 0.9763779527559056
        },
        {
          "duration": 0.1526153125000036,
          "durationTicks": 84,
          "midi": 67,
          "name": "G4",
          "ticks": 25538,
          "time": 46.39868869791666,
          "velocity": 0.9763779527559056
        },
        {
          "duration": 0.3415676041666629,
          "durationTicks": 188,
          "midi": 58,
          "name": "A#3",
          "ticks": 25626,
          "time": 46.55857140625,
          "velocity": 0.7480314960629921
        },
        {
          "duration": 0.3415676041666629,
          "durationTicks": 188,
          "midi": 62,
          "name": "D4",
          "ticks": 25626,
          "time": 46.55857140625,
          "velocity": 0.8188976377952756
        },
        {
          "duration": 0.3415676041666629,
          "durationTicks": 188,
          "midi": 67,
          "name": "G4",
          "ticks": 25626,
          "time": 46.55857140625,
          "velocity": 0.8188976377952756
        },
        {
          "duration": 0.170783802083335,
          "durationTicks": 94,
          "midi": 55,
          "name": "G3",
          "ticks": 25818,
          "time": 46.907406406250004,
          "velocity": 0.8582677165354331
        },
        {
          "duration": 0.170783802083335,
          "durationTicks": 94,
          "midi": 58,
          "name": "A#3",
          "ticks": 25818,
          "time": 46.907406406250004,
          "velocity": 0.8110236220472441
        },
        {
          "duration": 0.2906958333333378,
          "durationTicks": 160,
          "midi": 55,
          "name": "G3",
          "ticks": 25916,
          "time": 47.08545760416666,
          "velocity": 0.937007874015748
        },
        {
          "duration": 0.27979473958333756,
          "durationTicks": 154,
          "midi": 58,
          "name": "A#3",
          "ticks": 25922,
          "time": 47.09635869791666,
          "velocity": 0.889763779527559
        },
        {
          "duration": 0.33430020833332463,
          "durationTicks": 184,
          "midi": 62,
          "name": "D4",
          "ticks": 25924,
          "time": 47.09999239583334,
          "velocity": 0.937007874015748
        },
        {
          "duration": 0.33430020833332463,
          "durationTicks": 184,
          "midi": 67,
          "name": "G4",
          "ticks": 25924,
          "time": 47.09999239583334,
          "velocity": 0.937007874015748
        },
        {
          "duration": 0.2543588541666608,
          "durationTicks": 140,
          "midi": 58,
          "name": "A#3",
          "ticks": 26112,
          "time": 47.44156,
          "velocity": 0.7007874015748031
        },
        {
          "duration": 0.48691552083333534,
          "durationTicks": 268,
          "midi": 55,
          "name": "G3",
          "ticks": 26118,
          "time": 47.45246109375,
          "velocity": 0.952755905511811
        },
        {
          "duration": 0.1526153125000036,
          "durationTicks": 84,
          "midi": 58,
          "name": "A#3",
          "ticks": 26302,
          "time": 47.786761302083335,
          "velocity": 0.9133858267716536
        },
        {
          "duration": 0.13808052083332711,
          "durationTicks": 76,
          "midi": 67,
          "name": "G4",
          "ticks": 26308,
          "time": 47.797662395833335,
          "velocity": 0.9763779527559056
        },
        {
          "duration": 0.1562490104166585,
          "durationTicks": 86,
          "midi": 62,
          "name": "D4",
          "ticks": 26310,
          "time": 47.801296093750004,
          "velocity": 0.9763779527559056
        },
        {
          "duration": 0.31249802083333833,
          "durationTicks": 172,
          "midi": 62,
          "name": "D4",
          "ticks": 26400,
          "time": 47.9648125,
          "velocity": 0.8976377952755905
        },
        {
          "duration": 0.31249802083333833,
          "durationTicks": 172,
          "midi": 67,
          "name": "G4",
          "ticks": 26400,
          "time": 47.9648125,
          "velocity": 0.8976377952755905
        },
        {
          "duration": 0.27979473958333756,
          "durationTicks": 154,
          "midi": 55,
          "name": "G3",
          "ticks": 26408,
          "time": 47.97934729166666,
          "velocity": 0.8976377952755905
        },
        {
          "duration": 0.31613171875000035,
          "durationTicks": 174,
          "midi": 58,
          "name": "A#3",
          "ticks": 26414,
          "time": 47.99024838541666,
          "velocity": 0.8503937007874016
        },
        {
          "duration": 0.16715010416666587,
          "durationTicks": 92,
          "midi": 55,
          "name": "G3",
          "ticks": 26592,
          "time": 48.3136475,
          "velocity": 0.8582677165354331
        },
        {
          "duration": 0.16715010416666587,
          "durationTicks": 92,
          "midi": 58,
          "name": "A#3",
          "ticks": 26592,
          "time": 48.3136475,
          "velocity": 0.7559055118110236
        },
        {
          "duration": 0.12717942708334107,
          "durationTicks": 70,
          "midi": 55,
          "name": "G3",
          "ticks": 26688,
          "time": 48.488065,
          "velocity": 0.937007874015748
        },
        {
          "duration": 0.13808052083332711,
          "durationTicks": 76,
          "midi": 67,
          "name": "G4",
          "ticks": 26698,
          "time": 48.50623348958334,
          "velocity": 0.937007874015748
        },
        {
          "duration": 0.14534791666666536,
          "durationTicks": 80,
          "midi": 58,
          "name": "A#3",
          "ticks": 26700,
          "time": 48.5098671875,
          "velocity": 0.8740157480314961
        },
        {
          "duration": 0.14534791666666536,
          "durationTicks": 80,
          "midi": 62,
          "name": "D4",
          "ticks": 26700,
          "time": 48.5098671875,
          "velocity": 0.937007874015748
        },
        {
          "duration": 0.16715010416665876,
          "durationTicks": 92,
          "midi": 58,
          "name": "A#3",
          "ticks": 26784,
          "time": 48.6624825,
          "velocity": 0.7244094488188977
        },
        {
          "duration": 0.16715010416665876,
          "durationTicks": 92,
          "midi": 62,
          "name": "D4",
          "ticks": 26784,
          "time": 48.6624825,
          "velocity": 0.8582677165354331
        },
        {
          "duration": 0.16715010416665876,
          "durationTicks": 92,
          "midi": 67,
          "name": "G4",
          "ticks": 26784,
          "time": 48.6624825,
          "velocity": 0.7559055118110236
        },
        {
          "duration": 0.2834284374999996,
          "durationTicks": 156,
          "midi": 58,
          "name": "A#3",
          "ticks": 26880,
          "time": 48.8369,
          "velocity": 0.7244094488188977
        },
        {
          "duration": 0.2834284374999996,
          "durationTicks": 156,
          "midi": 62,
          "name": "D4",
          "ticks": 26880,
          "time": 48.8369,
          "velocity": 0.8582677165354331
        },
        {
          "duration": 0.4433111458333343,
          "durationTicks": 244,
          "midi": 55,
          "name": "G3",
          "ticks": 26886,
          "time": 48.84780109375,
          "velocity": 0.905511811023622
        },
        {
          "duration": 0.13808052083334132,
          "durationTicks": 76,
          "midi": 58,
          "name": "A#3",
          "ticks": 27068,
          "time": 49.17846760416666,
          "velocity": 0.905511811023622
        },
        {
          "duration": 0.1526153125000036,
          "durationTicks": 84,
          "midi": 62,
          "name": "D4",
          "ticks": 27080,
          "time": 49.20026979166666,
          "velocity": 0.9763779527559056
        },
        {
          "duration": 0.1526153125000036,
          "durationTicks": 84,
          "midi": 67,
          "name": "G4",
          "ticks": 27080,
          "time": 49.20026979166666,
          "velocity": 0.9763779527559056
        },
        {
          "duration": 0.3415676041666629,
          "durationTicks": 188,
          "midi": 55,
          "name": "G3",
          "ticks": 27168,
          "time": 49.3601525,
          "velocity": 0.7637795275590551
        },
        {
          "duration": 0.3415676041666629,
          "durationTicks": 188,
          "midi": 58,
          "name": "A#3",
          "ticks": 27168,
          "time": 49.3601525,
          "velocity": 0.8267716535433071
        },
        {
          "duration": 0.3415676041666629,
          "durationTicks": 188,
          "midi": 62,
          "name": "D4",
          "ticks": 27168,
          "time": 49.3601525,
          "velocity": 0.8976377952755905
        },
        {
          "duration": 0.3415676041666629,
          "durationTicks": 188,
          "midi": 67,
          "name": "G4",
          "ticks": 27168,
          "time": 49.3601525,
          "velocity": 0.8976377952755905
        },
        {
          "duration": 0.170783802083335,
          "durationTicks": 94,
          "midi": 55,
          "name": "G3",
          "ticks": 27360,
          "time": 49.7089875,
          "velocity": 0.8582677165354331
        },
        {
          "duration": 0.170783802083335,
          "durationTicks": 94,
          "midi": 58,
          "name": "A#3",
          "ticks": 27360,
          "time": 49.7089875,
          "velocity": 0.8110236220472441
        },
        {
          "duration": 0.27979473958333756,
          "durationTicks": 154,
          "midi": 55,
          "name": "G3",
          "ticks": 27458,
          "time": 49.887038697916665,
          "velocity": 0.937007874015748
        },
        {
          "duration": 0.2688936458333373,
          "durationTicks": 148,
          "midi": 58,
          "name": "A#3",
          "ticks": 27464,
          "time": 49.897939791666666,
          "velocity": 0.889763779527559
        },
        {
          "duration": 0.3233991145833315,
          "durationTicks": 178,
          "midi": 62,
          "name": "D4",
          "ticks": 27466,
          "time": 49.901573489583335,
          "velocity": 0.937007874015748
        },
        {
          "duration": 0.3233991145833315,
          "durationTicks": 178,
          "midi": 67,
          "name": "G4",
          "ticks": 27466,
          "time": 49.901573489583335,
          "velocity": 0.937007874015748
        },
        {
          "duration": 0.2543588541666608,
          "durationTicks": 140,
          "midi": 57,
          "name": "A3",
          "ticks": 27648,
          "time": 50.232240000000004,
          "velocity": 0.7007874015748031
        },
        {
          "duration": 0.48691552083334244,
          "durationTicks": 268,
          "midi": 53,
          "name": "F3",
          "ticks": 27654,
          "time": 50.24314109375,
          "velocity": 0.952755905511811
        },
        {
          "duration": 0.1526153125000036,
          "durationTicks": 84,
          "midi": 57,
          "name": "A3",
          "ticks": 27840,
          "time": 50.581075,
          "velocity": 0.9133858267716536
        },
        {
          "duration": 0.13808052083332711,
          "durationTicks": 76,
          "midi": 65,
          "name": "F4",
          "ticks": 27844,
          "time": 50.58834239583334,
          "velocity": 0.9763779527559056
        },
        {
          "duration": 0.1562490104166656,
          "durationTicks": 86,
          "midi": 60,
          "name": "C4",
          "ticks": 27846,
          "time": 50.59197609375,
          "velocity": 0.9763779527559056
        },
        {
          "duration": 0.2652599479166611,
          "durationTicks": 146,
          "midi": 57,
          "name": "A3",
          "ticks": 27936,
          "time": 50.7554925,
          "velocity": 0.8503937007874016
        },
        {
          "duration": 0.31249802083333833,
          "durationTicks": 172,
          "midi": 60,
          "name": "C4",
          "ticks": 27936,
          "time": 50.7554925,
          "velocity": 0.8976377952755905
        },
        {
          "duration": 0.31249802083333833,
          "durationTicks": 172,
          "midi": 65,
          "name": "F4",
          "ticks": 27936,
          "time": 50.7554925,
          "velocity": 0.8976377952755905
        },
        {
          "duration": 0.3270328125000006,
          "durationTicks": 180,
          "midi": 53,
          "name": "F3",
          "ticks": 27944,
          "time": 50.770027291666665,
          "velocity": 0.8976377952755905
        },
        {
          "duration": 0.16715010416665876,
          "durationTicks": 92,
          "midi": 53,
          "name": "F3",
          "ticks": 28128,
          "time": 51.104327500000004,
          "velocity": 0.8582677165354331
        },
        {
          "duration": 0.16715010416665876,
          "durationTicks": 92,
          "midi": 57,
          "name": "A3",
          "ticks": 28128,
          "time": 51.104327500000004,
          "velocity": 0.7559055118110236
        },
        {
          "duration": 0.12717942708333396,
          "durationTicks": 70,
          "midi": 53,
          "name": "F3",
          "ticks": 28224,
          "time": 51.278745,
          "velocity": 0.937007874015748
        },
        {
          "duration": 0.11991203125000283,
          "durationTicks": 66,
          "midi": 57,
          "name": "A3",
          "ticks": 28224,
          "time": 51.278745,
          "velocity": 0.8740157480314961
        },
        {
          "duration": 0.13808052083332711,
          "durationTicks": 76,
          "midi": 65,
          "name": "F4",
          "ticks": 28234,
          "time": 51.29691348958334,
          "velocity": 0.937007874015748
        },
        {
          "duration": 0.14534791666666536,
          "durationTicks": 80,
          "midi": 60,
          "name": "C4",
          "ticks": 28236,
          "time": 51.3005471875,
          "velocity": 0.937007874015748
        },
        {
          "duration": 0.16715010416666587,
          "durationTicks": 92,
          "midi": 57,
          "name": "A3",
          "ticks": 28320,
          "time": 51.4531625,
          "velocity": 0.7244094488188977
        },
        {
          "duration": 0.16715010416666587,
          "durationTicks": 92,
          "midi": 60,
          "name": "C4",
          "ticks": 28320,
          "time": 51.4531625,
          "velocity": 0.8582677165354331
        },
        {
          "duration": 0.16715010416666587,
          "durationTicks": 92,
          "midi": 65,
          "name": "F4",
          "ticks": 28320,
          "time": 51.4531625,
          "velocity": 0.7559055118110236
        },
        {
          "duration": 0.2834284374999996,
          "durationTicks": 156,
          "midi": 57,
          "name": "A3",
          "ticks": 28416,
          "time": 51.62758,
          "velocity": 0.7244094488188977
        },
        {
          "duration": 0.2834284374999996,
          "durationTicks": 156,
          "midi": 60,
          "name": "C4",
          "ticks": 28416,
          "time": 51.62758,
          "velocity": 0.8582677165354331
        },
        {
          "duration": 0.4433111458333343,
          "durationTicks": 244,
          "midi": 53,
          "name": "F3",
          "ticks": 28422,
          "time": 51.63848109375,
          "velocity": 0.905511811023622
        },
        {
          "duration": 0.13808052083333422,
          "durationTicks": 76,
          "midi": 57,
          "name": "A3",
          "ticks": 28608,
          "time": 51.976415,
          "velocity": 0.905511811023622
        },
        {
          "duration": 0.1526153124999965,
          "durationTicks": 84,
          "midi": 60,
          "name": "C4",
          "ticks": 28616,
          "time": 51.990949791666665,
          "velocity": 0.9763779527559056
        },
        {
          "duration": 0.1526153124999965,
          "durationTicks": 84,
          "midi": 65,
          "name": "F4",
          "ticks": 28616,
          "time": 51.990949791666665,
          "velocity": 0.9763779527559056
        },
        {
          "duration": 0.3415676041666629,
          "durationTicks": 188,
          "midi": 53,
          "name": "F3",
          "ticks": 28704,
          "time": 52.1508325,
          "velocity": 0.7637795275590551
        },
        {
          "duration": 0.3415676041666629,
          "durationTicks": 188,
          "midi": 57,
          "name": "A3",
          "ticks": 28704,
          "time": 52.1508325,
          "velocity": 0.8267716535433071
        },
        {
          "duration": 0.3415676041666629,
          "durationTicks": 188,
          "midi": 60,
          "name": "C4",
          "ticks": 28704,
          "time": 52.1508325,
          "velocity": 0.8976377952755905
        },
        {
          "duration": 0.3415676041666629,
          "durationTicks": 188,
          "midi": 65,
          "name": "F4",
          "ticks": 28704,
          "time": 52.1508325,
          "velocity": 0.8976377952755905
        },
        {
          "duration": 0.16715010416666587,
          "durationTicks": 92,
          "midi": 53,
          "name": "F3",
          "ticks": 28896,
          "time": 52.4996675,
          "velocity": 0.8582677165354331
        },
        {
          "duration": 0.16715010416666587,
          "durationTicks": 92,
          "midi": 57,
          "name": "A3",
          "ticks": 28896,
          "time": 52.4996675,
          "velocity": 0.8110236220472441
        },
        {
          "duration": 0.2652599479166682,
          "durationTicks": 146,
          "midi": 57,
          "name": "A3",
          "ticks": 28992,
          "time": 52.674085,
          "velocity": 0.889763779527559
        },
        {
          "duration": 0.27979473958333045,
          "durationTicks": 154,
          "midi": 53,
          "name": "F3",
          "ticks": 28994,
          "time": 52.67771869791667,
          "velocity": 0.937007874015748
        },
        {
          "duration": 0.3233991145833244,
          "durationTicks": 178,
          "midi": 60,
          "name": "C4",
          "ticks": 29002,
          "time": 52.69225348958334,
          "velocity": 0.937007874015748
        },
        {
          "duration": 0.3233991145833244,
          "durationTicks": 178,
          "midi": 65,
          "name": "F4",
          "ticks": 29002,
          "time": 52.69225348958334,
          "velocity": 0.937007874015748
        },
        {
          "duration": 0.2543588541666679,
          "durationTicks": 140,
          "midi": 58,
          "name": "A#3",
          "ticks": 29184,
          "time": 53.02292,
          "velocity": 0.7007874015748031
        },
        {
          "duration": 0.48691552083333534,
          "durationTicks": 268,
          "midi": 55,
          "name": "G3",
          "ticks": 29190,
          "time": 53.03382109375,
          "velocity": 0.952755905511811
        },
        {
          "duration": 0.1526153124999965,
          "durationTicks": 84,
          "midi": 58,
          "name": "A#3",
          "ticks": 29374,
          "time": 53.36812130208334,
          "velocity": 0.9133858267716536
        },
        {
          "duration": 0.13808052083332711,
          "durationTicks": 76,
          "midi": 67,
          "name": "G4",
          "ticks": 29380,
          "time": 53.37902239583334,
          "velocity": 0.9763779527559056
        },
        {
          "duration": 0.1562490104166656,
          "durationTicks": 86,
          "midi": 62,
          "name": "D4",
          "ticks": 29382,
          "time": 53.38265609375,
          "velocity": 0.9763779527559056
        },
        {
          "duration": 0.3124980208333312,
          "durationTicks": 172,
          "midi": 62,
          "name": "D4",
          "ticks": 29472,
          "time": 53.546172500000004,
          "velocity": 0.8976377952755905
        },
        {
          "duration": 0.3124980208333312,
          "durationTicks": 172,
          "midi": 67,
          "name": "G4",
          "ticks": 29472,
          "time": 53.546172500000004,
          "velocity": 0.8976377952755905
        },
        {
          "duration": 0.27979473958333756,
          "durationTicks": 154,
          "midi": 55,
          "name": "G3",
          "ticks": 29480,
          "time": 53.56070729166667,
          "velocity": 0.8976377952755905
        },
        {
          "duration": 0.31613171875000035,
          "durationTicks": 174,
          "midi": 58,
          "name": "A#3",
          "ticks": 29486,
          "time": 53.57160838541667,
          "velocity": 0.8503937007874016
        },
        {
          "duration": 0.16715010416666587,
          "durationTicks": 92,
          "midi": 55,
          "name": "G3",
          "ticks": 29664,
          "time": 53.8950075,
          "velocity": 0.8582677165354331
        },
        {
          "duration": 0.16715010416666587,
          "durationTicks": 92,
          "midi": 58,
          "name": "A#3",
          "ticks": 29664,
          "time": 53.8950075,
          "velocity": 0.7559055118110236
        },
        {
          "duration": 0.12717942708333396,
          "durationTicks": 70,
          "midi": 55,
          "name": "G3",
          "ticks": 29760,
          "time": 54.069425,
          "velocity": 0.937007874015748
        },
        {
          "duration": 0.13808052083332,
          "durationTicks": 76,
          "midi": 67,
          "name": "G4",
          "ticks": 29770,
          "time": 54.08759348958334,
          "velocity": 0.937007874015748
        },
        {
          "duration": 0.14534791666665825,
          "durationTicks": 80,
          "midi": 58,
          "name": "A#3",
          "ticks": 29772,
          "time": 54.0912271875,
          "velocity": 0.8740157480314961
        },
        {
          "duration": 0.14534791666665825,
          "durationTicks": 80,
          "midi": 62,
          "name": "D4",
          "ticks": 29772,
          "time": 54.0912271875,
          "velocity": 0.937007874015748
        },
        {
          "duration": 0.16715010416666587,
          "durationTicks": 92,
          "midi": 58,
          "name": "A#3",
          "ticks": 29856,
          "time": 54.2438425,
          "velocity": 0.7244094488188977
        },
        {
          "duration": 0.16715010416666587,
          "durationTicks": 92,
          "midi": 62,
          "name": "D4",
          "ticks": 29856,
          "time": 54.2438425,
          "velocity": 0.8582677165354331
        },
        {
          "duration": 0.16715010416666587,
          "durationTicks": 92,
          "midi": 67,
          "name": "G4",
          "ticks": 29856,
          "time": 54.2438425,
          "velocity": 0.7559055118110236
        },
        {
          "duration": 0.2834284374999996,
          "durationTicks": 156,
          "midi": 58,
          "name": "A#3",
          "ticks": 29952,
          "time": 54.418260000000004,
          "velocity": 0.7244094488188977
        },
        {
          "duration": 0.2834284374999996,
          "durationTicks": 156,
          "midi": 62,
          "name": "D4",
          "ticks": 29952,
          "time": 54.418260000000004,
          "velocity": 0.8582677165354331
        },
        {
          "duration": 0.4433111458333343,
          "durationTicks": 244,
          "midi": 55,
          "name": "G3",
          "ticks": 29958,
          "time": 54.429161093750004,
          "velocity": 0.905511811023622
        },
        {
          "duration": 0.13808052083333422,
          "durationTicks": 76,
          "midi": 58,
          "name": "A#3",
          "ticks": 30140,
          "time": 54.75982760416667,
          "velocity": 0.905511811023622
        },
        {
          "duration": 0.1526153124999965,
          "durationTicks": 84,
          "midi": 62,
          "name": "D4",
          "ticks": 30152,
          "time": 54.78162979166667,
          "velocity": 0.9763779527559056
        },
        {
          "duration": 0.1526153124999965,
          "durationTicks": 84,
          "midi": 67,
          "name": "G4",
          "ticks": 30152,
          "time": 54.78162979166667,
          "velocity": 0.9763779527559056
        },
        {
          "duration": 0.3415676041666629,
          "durationTicks": 188,
          "midi": 55,
          "name": "G3",
          "ticks": 30240,
          "time": 54.9415125,
          "velocity": 0.7637795275590551
        },
        {
          "duration": 0.3415676041666629,
          "durationTicks": 188,
          "midi": 58,
          "name": "A#3",
          "ticks": 30240,
          "time": 54.9415125,
          "velocity": 0.8267716535433071
        },
        {
          "duration": 0.3415676041666629,
          "durationTicks": 188,
          "midi": 62,
          "name": "D4",
          "ticks": 30240,
          "time": 54.9415125,
          "velocity": 0.8976377952755905
        },
        {
          "duration": 0.3415676041666629,
          "durationTicks": 188,
          "midi": 67,
          "name": "G4",
          "ticks": 30240,
          "time": 54.9415125,
          "velocity": 0.8976377952755905
        },
        {
          "duration": 0.170783802083335,
          "durationTicks": 94,
          "midi": 55,
          "name": "G3",
          "ticks": 30432,
          "time": 55.2903475,
          "velocity": 0.8582677165354331
        },
        {
          "duration": 0.170783802083335,
          "durationTicks": 94,
          "midi": 58,
          "name": "A#3",
          "ticks": 30432,
          "time": 55.2903475,
          "velocity": 0.8110236220472441
        },
        {
          "duration": 0.27979473958333756,
          "durationTicks": 154,
          "midi": 55,
          "name": "G3",
          "ticks": 30530,
          "time": 55.46839869791666,
          "velocity": 0.937007874015748
        },
        {
          "duration": 0.2688936458333373,
          "durationTicks": 148,
          "midi": 58,
          "name": "A#3",
          "ticks": 30536,
          "time": 55.47929979166666,
          "velocity": 0.889763779527559
        },
        {
          "duration": 0.3233991145833244,
          "durationTicks": 178,
          "midi": 62,
          "name": "D4",
          "ticks": 30538,
          "time": 55.48293348958334,
          "velocity": 0.937007874015748
        },
        {
          "duration": 0.3233991145833244,
          "durationTicks": 178,
          "midi": 67,
          "name": "G4",
          "ticks": 30538,
          "time": 55.48293348958334,
          "velocity": 0.937007874015748
        },
        {
          "duration": 0.48691552083333534,
          "durationTicks": 268,
          "midi": 55,
          "name": "G3",
          "ticks": 30720,
          "time": 55.8136,
          "velocity": 0.952755905511811
        },
        {
          "duration": 0.2543588541666608,
          "durationTicks": 140,
          "midi": 58,
          "name": "A#3",
          "ticks": 30720,
          "time": 55.8136,
          "velocity": 0.7007874015748031
        },
        {
          "duration": 0.1526153124999965,
          "durationTicks": 84,
          "midi": 58,
          "name": "A#3",
          "ticks": 30904,
          "time": 56.14790020833334,
          "velocity": 0.9133858267716536
        },
        {
          "duration": 0.13808052083332711,
          "durationTicks": 76,
          "midi": 67,
          "name": "G4",
          "ticks": 30910,
          "time": 56.15880130208334,
          "velocity": 0.9763779527559056
        },
        {
          "duration": 0.16715010416665876,
          "durationTicks": 92,
          "midi": 62,
          "name": "D4",
          "ticks": 30912,
          "time": 56.162435,
          "velocity": 0.9763779527559056
        },
        {
          "duration": 0.3306665104166626,
          "durationTicks": 182,
          "midi": 58,
          "name": "A#3",
          "ticks": 31008,
          "time": 56.3368525,
          "velocity": 0.6456692913385826
        },
        {
          "duration": 0.3124980208333241,
          "durationTicks": 172,
          "midi": 62,
          "name": "D4",
          "ticks": 31018,
          "time": 56.35502098958334,
          "velocity": 0.8188976377952756
        },
        {
          "duration": 0.3124980208333241,
          "durationTicks": 172,
          "midi": 67,
          "name": "G4",
          "ticks": 31018,
          "time": 56.35502098958334,
          "velocity": 0.8188976377952756
        },
        {
          "duration": 0.16715010416666587,
          "durationTicks": 92,
          "midi": 55,
          "name": "G3",
          "ticks": 31194,
          "time": 56.67478640625,
          "velocity": 0.8582677165354331
        },
        {
          "duration": 0.16715010416666587,
          "durationTicks": 92,
          "midi": 58,
          "name": "A#3",
          "ticks": 31194,
          "time": 56.67478640625,
          "velocity": 0.7559055118110236
        },
        {
          "duration": 0.12717942708333396,
          "durationTicks": 70,
          "midi": 55,
          "name": "G3",
          "ticks": 31290,
          "time": 56.849203906250004,
          "velocity": 0.9763779527559056
        },
        {
          "duration": 0.13808052083332711,
          "durationTicks": 76,
          "midi": 67,
          "name": "G4",
          "ticks": 31300,
          "time": 56.867372395833335,
          "velocity": 0.9763779527559056
        },
        {
          "duration": 0.14534791666666536,
          "durationTicks": 80,
          "midi": 58,
          "name": "A#3",
          "ticks": 31302,
          "time": 56.87100609375,
          "velocity": 0.9133858267716536
        },
        {
          "duration": 0.14534791666666536,
          "durationTicks": 80,
          "midi": 62,
          "name": "D4",
          "ticks": 31302,
          "time": 56.87100609375,
          "velocity": 0.9763779527559056
        },
        {
          "duration": 0.16715010416666587,
          "durationTicks": 92,
          "midi": 58,
          "name": "A#3",
          "ticks": 31386,
          "time": 57.02362140625,
          "velocity": 0.7637795275590551
        },
        {
          "duration": 0.16715010416666587,
          "durationTicks": 92,
          "midi": 62,
          "name": "D4",
          "ticks": 31386,
          "time": 57.02362140625,
          "velocity": 0.8976377952755905
        },
        {
          "duration": 0.16715010416666587,
          "durationTicks": 92,
          "midi": 67,
          "name": "G4",
          "ticks": 31386,
          "time": 57.02362140625,
          "velocity": 0.7952755905511811
        },
        {
          "duration": 0.2834284374999996,
          "durationTicks": 156,
          "midi": 58,
          "name": "A#3",
          "ticks": 31482,
          "time": 57.19803890625,
          "velocity": 0.7244094488188977
        },
        {
          "duration": 0.2834284374999996,
          "durationTicks": 156,
          "midi": 62,
          "name": "D4",
          "ticks": 31482,
          "time": 57.19803890625,
          "velocity": 0.8582677165354331
        },
        {
          "duration": 0.4433111458333414,
          "durationTicks": 244,
          "midi": 55,
          "name": "G3",
          "ticks": 31488,
          "time": 57.20894,
          "velocity": 0.905511811023622
        },
        {
          "duration": 0.13808052083334132,
          "durationTicks": 76,
          "midi": 58,
          "name": "A#3",
          "ticks": 31670,
          "time": 57.53960651041666,
          "velocity": 0.905511811023622
        },
        {
          "duration": 0.1526153125000036,
          "durationTicks": 84,
          "midi": 62,
          "name": "D4",
          "ticks": 31682,
          "time": 57.56140869791666,
          "velocity": 0.9763779527559056
        },
        {
          "duration": 0.1526153125000036,
          "durationTicks": 84,
          "midi": 67,
          "name": "G4",
          "ticks": 31682,
          "time": 57.56140869791666,
          "velocity": 0.9763779527559056
        },
        {
          "duration": 0.3415676041666629,
          "durationTicks": 188,
          "midi": 58,
          "name": "A#3",
          "ticks": 31770,
          "time": 57.72129140625,
          "velocity": 0.7480314960629921
        },
        {
          "duration": 0.3415676041666629,
          "durationTicks": 188,
          "midi": 62,
          "name": "D4",
          "ticks": 31770,
          "time": 57.72129140625,
          "velocity": 0.8188976377952756
        },
        {
          "duration": 0.3415676041666629,
          "durationTicks": 188,
          "midi": 67,
          "name": "G4",
          "ticks": 31770,
          "time": 57.72129140625,
          "velocity": 0.8188976377952756
        },
        {
          "duration": 0.170783802083335,
          "durationTicks": 94,
          "midi": 55,
          "name": "G3",
          "ticks": 31962,
          "time": 58.070126406250004,
          "velocity": 0.8582677165354331
        },
        {
          "duration": 0.170783802083335,
          "durationTicks": 94,
          "midi": 58,
          "name": "A#3",
          "ticks": 31962,
          "time": 58.070126406250004,
          "velocity": 0.8110236220472441
        },
        {
          "duration": 0.2906958333333378,
          "durationTicks": 160,
          "midi": 55,
          "name": "G3",
          "ticks": 32060,
          "time": 58.24817760416666,
          "velocity": 0.937007874015748
        },
        {
          "duration": 0.27979473958333756,
          "durationTicks": 154,
          "midi": 58,
          "name": "A#3",
          "ticks": 32066,
          "time": 58.259078697916664,
          "velocity": 0.889763779527559
        },
        {
          "duration": 0.33430020833332463,
          "durationTicks": 184,
          "midi": 62,
          "name": "D4",
          "ticks": 32068,
          "time": 58.26271239583334,
          "velocity": 0.937007874015748
        },
        {
          "duration": 0.33430020833332463,
          "durationTicks": 184,
          "midi": 67,
          "name": "G4",
          "ticks": 32068,
          "time": 58.26271239583334,
          "velocity": 0.937007874015748
        },
        {
          "duration": 0.2543588541666608,
          "durationTicks": 140,
          "midi": 58,
          "name": "A#3",
          "ticks": 32256,
          "time": 58.60428,
          "velocity": 0.7007874015748031
        },
        {
          "duration": 0.48691552083333534,
          "durationTicks": 268,
          "midi": 55,
          "name": "G3",
          "ticks": 32262,
          "time": 58.61518109375,
          "velocity": 0.952755905511811
        },
        {
          "duration": 0.1526153125000036,
          "durationTicks": 84,
          "midi": 58,
          "name": "A#3",
          "ticks": 32446,
          "time": 58.949481302083335,
          "velocity": 0.9133858267716536
        },
        {
          "duration": 0.13808052083332711,
          "durationTicks": 76,
          "midi": 67,
          "name": "G4",
          "ticks": 32452,
          "time": 58.960382395833335,
          "velocity": 0.9763779527559056
        },
        {
          "duration": 0.1562490104166585,
          "durationTicks": 86,
          "midi": 62,
          "name": "D4",
          "ticks": 32454,
          "time": 58.964016093750004,
          "velocity": 0.9763779527559056
        },
        {
          "duration": 0.31249802083333833,
          "durationTicks": 172,
          "midi": 62,
          "name": "D4",
          "ticks": 32544,
          "time": 59.1275325,
          "velocity": 0.8976377952755905
        },
        {
          "duration": 0.31249802083333833,
          "durationTicks": 172,
          "midi": 67,
          "name": "G4",
          "ticks": 32544,
          "time": 59.1275325,
          "velocity": 0.8976377952755905
        },
        {
          "duration": 0.27979473958333756,
          "durationTicks": 154,
          "midi": 55,
          "name": "G3",
          "ticks": 32552,
          "time": 59.14206729166666,
          "velocity": 0.8976377952755905
        },
        {
          "duration": 0.31613171875000035,
          "durationTicks": 174,
          "midi": 58,
          "name": "A#3",
          "ticks": 32558,
          "time": 59.15296838541666,
          "velocity": 0.8503937007874016
        },
        {
          "duration": 0.16715010416666587,
          "durationTicks": 92,
          "midi": 55,
          "name": "G3",
          "ticks": 32736,
          "time": 59.4763675,
          "velocity": 0.8582677165354331
        },
        {
          "duration": 0.16715010416666587,
          "durationTicks": 92,
          "midi": 58,
          "name": "A#3",
          "ticks": 32736,
          "time": 59.4763675,
          "velocity": 0.7559055118110236
        },
        {
          "duration": 0.12717942708334107,
          "durationTicks": 70,
          "midi": 55,
          "name": "G3",
          "ticks": 32832,
          "time": 59.650785,
          "velocity": 0.937007874015748
        },
        {
          "duration": 0.13808052083332711,
          "durationTicks": 76,
          "midi": 67,
          "name": "G4",
          "ticks": 32842,
          "time": 59.66895348958334,
          "velocity": 0.937007874015748
        },
        {
          "duration": 0.14534791666666536,
          "durationTicks": 80,
          "midi": 58,
          "name": "A#3",
          "ticks": 32844,
          "time": 59.6725871875,
          "velocity": 0.8740157480314961
        },
        {
          "duration": 0.14534791666666536,
          "durationTicks": 80,
          "midi": 62,
          "name": "D4",
          "ticks": 32844,
          "time": 59.6725871875,
          "velocity": 0.937007874015748
        },
        {
          "duration": 0.16715010416665876,
          "durationTicks": 92,
          "midi": 58,
          "name": "A#3",
          "ticks": 32928,
          "time": 59.8252025,
          "velocity": 0.7244094488188977
        },
        {
          "duration": 0.16715010416665876,
          "durationTicks": 92,
          "midi": 62,
          "name": "D4",
          "ticks": 32928,
          "time": 59.8252025,
          "velocity": 0.8582677165354331
        },
        {
          "duration": 0.16715010416665876,
          "durationTicks": 92,
          "midi": 67,
          "name": "G4",
          "ticks": 32928,
          "time": 59.8252025,
          "velocity": 0.7559055118110236
        },
        {
          "duration": 0.2834284374999996,
          "durationTicks": 156,
          "midi": 58,
          "name": "A#3",
          "ticks": 33024,
          "time": 59.99962,
          "velocity": 0.7244094488188977
        },
        {
          "duration": 0.2834284374999996,
          "durationTicks": 156,
          "midi": 62,
          "name": "D4",
          "ticks": 33024,
          "time": 59.99962,
          "velocity": 0.8582677165354331
        },
        {
          "duration": 0.4433111458333343,
          "durationTicks": 244,
          "midi": 55,
          "name": "G3",
          "ticks": 33030,
          "time": 60.01052109375,
          "velocity": 0.905511811023622
        },
        {
          "duration": 0.13808052083334132,
          "durationTicks": 76,
          "midi": 58,
          "name": "A#3",
          "ticks": 33212,
          "time": 60.34118760416666,
          "velocity": 0.905511811023622
        },
        {
          "duration": 0.1526153125000036,
          "durationTicks": 84,
          "midi": 62,
          "name": "D4",
          "ticks": 33224,
          "time": 60.362989791666664,
          "velocity": 0.9763779527559056
        },
        {
          "duration": 0.1526153125000036,
          "durationTicks": 84,
          "midi": 67,
          "name": "G4",
          "ticks": 33224,
          "time": 60.362989791666664,
          "velocity": 0.9763779527559056
        },
        {
          "duration": 0.3415676041666629,
          "durationTicks": 188,
          "midi": 55,
          "name": "G3",
          "ticks": 33312,
          "time": 60.5228725,
          "velocity": 0.7637795275590551
        },
        {
          "duration": 0.3415676041666629,
          "durationTicks": 188,
          "midi": 58,
          "name": "A#3",
          "ticks": 33312,
          "time": 60.5228725,
          "velocity": 0.8267716535433071
        },
        {
          "duration": 0.3415676041666629,
          "durationTicks": 188,
          "midi": 62,
          "name": "D4",
          "ticks": 33312,
          "time": 60.5228725,
          "velocity": 0.8976377952755905
        },
        {
          "duration": 0.3415676041666629,
          "durationTicks": 188,
          "midi": 67,
          "name": "G4",
          "ticks": 33312,
          "time": 60.5228725,
          "velocity": 0.8976377952755905
        },
        {
          "duration": 0.170783802083335,
          "durationTicks": 94,
          "midi": 55,
          "name": "G3",
          "ticks": 33504,
          "time": 60.8717075,
          "velocity": 0.8582677165354331
        },
        {
          "duration": 0.170783802083335,
          "durationTicks": 94,
          "midi": 58,
          "name": "A#3",
          "ticks": 33504,
          "time": 60.8717075,
          "velocity": 0.8110236220472441
        },
        {
          "duration": 0.27979473958333756,
          "durationTicks": 154,
          "midi": 55,
          "name": "G3",
          "ticks": 33602,
          "time": 61.049758697916666,
          "velocity": 0.937007874015748
        },
        {
          "duration": 0.2688936458333373,
          "durationTicks": 148,
          "midi": 58,
          "name": "A#3",
          "ticks": 33608,
          "time": 61.060659791666666,
          "velocity": 0.889763779527559
        },
        {
          "duration": 0.3233991145833315,
          "durationTicks": 178,
          "midi": 62,
          "name": "D4",
          "ticks": 33610,
          "time": 61.064293489583335,
          "velocity": 0.937007874015748
        },
        {
          "duration": 0.3233991145833315,
          "durationTicks": 178,
          "midi": 67,
          "name": "G4",
          "ticks": 33610,
          "time": 61.064293489583335,
          "velocity": 0.937007874015748
        },
        {
          "duration": 0.2543588541666679,
          "durationTicks": 140,
          "midi": 57,
          "name": "A3",
          "ticks": 33792,
          "time": 61.39496,
          "velocity": 0.7007874015748031
        },
        {
          "duration": 0.48691552083334244,
          "durationTicks": 268,
          "midi": 53,
          "name": "F3",
          "ticks": 33798,
          "time": 61.40586109375,
          "velocity": 0.952755905511811
        },
        {
          "duration": 0.1526153125000036,
          "durationTicks": 84,
          "midi": 57,
          "name": "A3",
          "ticks": 33984,
          "time": 61.743795,
          "velocity": 0.9133858267716536
        },
        {
          "duration": 0.13808052083332711,
          "durationTicks": 76,
          "midi": 65,
          "name": "F4",
          "ticks": 33988,
          "time": 61.75106239583334,
          "velocity": 0.9763779527559056
        },
        {
          "duration": 0.1562490104166656,
          "durationTicks": 86,
          "midi": 60,
          "name": "C4",
          "ticks": 33990,
          "time": 61.75469609375,
          "velocity": 0.9763779527559056
        },
        {
          "duration": 0.2652599479166611,
          "durationTicks": 146,
          "midi": 57,
          "name": "A3",
          "ticks": 34080,
          "time": 61.9182125,
          "velocity": 0.8503937007874016
        },
        {
          "duration": 0.31249802083333833,
          "durationTicks": 172,
          "midi": 60,
          "name": "C4",
          "ticks": 34080,
          "time": 61.9182125,
          "velocity": 0.8976377952755905
        },
        {
          "duration": 0.31249802083333833,
          "durationTicks": 172,
          "midi": 65,
          "name": "F4",
          "ticks": 34080,
          "time": 61.9182125,
          "velocity": 0.8976377952755905
        },
        {
          "duration": 0.3270328125000006,
          "durationTicks": 180,
          "midi": 53,
          "name": "F3",
          "ticks": 34088,
          "time": 61.932747291666665,
          "velocity": 0.8976377952755905
        },
        {
          "duration": 0.16715010416665876,
          "durationTicks": 92,
          "midi": 53,
          "name": "F3",
          "ticks": 34272,
          "time": 62.267047500000004,
          "velocity": 0.8582677165354331
        },
        {
          "duration": 0.16715010416665876,
          "durationTicks": 92,
          "midi": 57,
          "name": "A3",
          "ticks": 34272,
          "time": 62.267047500000004,
          "velocity": 0.7559055118110236
        },
        {
          "duration": 0.12717942708333396,
          "durationTicks": 70,
          "midi": 53,
          "name": "F3",
          "ticks": 34368,
          "time": 62.441465,
          "velocity": 0.937007874015748
        },
        {
          "duration": 0.11991203125000283,
          "durationTicks": 66,
          "midi": 57,
          "name": "A3",
          "ticks": 34368,
          "time": 62.441465,
          "velocity": 0.8740157480314961
        },
        {
          "duration": 0.13808052083332711,
          "durationTicks": 76,
          "midi": 65,
          "name": "F4",
          "ticks": 34378,
          "time": 62.45963348958334,
          "velocity": 0.937007874015748
        },
        {
          "duration": 0.14534791666666536,
          "durationTicks": 80,
          "midi": 60,
          "name": "C4",
          "ticks": 34380,
          "time": 62.4632671875,
          "velocity": 0.937007874015748
        },
        {
          "duration": 0.16715010416666587,
          "durationTicks": 92,
          "midi": 57,
          "name": "A3",
          "ticks": 34464,
          "time": 62.6158825,
          "velocity": 0.7244094488188977
        },
        {
          "duration": 0.16715010416666587,
          "durationTicks": 92,
          "midi": 60,
          "name": "C4",
          "ticks": 34464,
          "time": 62.6158825,
          "velocity": 0.8582677165354331
        },
        {
          "duration": 0.16715010416666587,
          "durationTicks": 92,
          "midi": 65,
          "name": "F4",
          "ticks": 34464,
          "time": 62.6158825,
          "velocity": 0.7559055118110236
        },
        {
          "duration": 0.2834284374999996,
          "durationTicks": 156,
          "midi": 57,
          "name": "A3",
          "ticks": 34560,
          "time": 62.7903,
          "velocity": 0.7244094488188977
        },
        {
          "duration": 0.2834284374999996,
          "durationTicks": 156,
          "midi": 60,
          "name": "C4",
          "ticks": 34560,
          "time": 62.7903,
          "velocity": 0.8582677165354331
        },
        {
          "duration": 0.4433111458333343,
          "durationTicks": 244,
          "midi": 53,
          "name": "F3",
          "ticks": 34566,
          "time": 62.80120109375,
          "velocity": 0.905511811023622
        },
        {
          "duration": 0.13808052083333422,
          "durationTicks": 76,
          "midi": 57,
          "name": "A3",
          "ticks": 34752,
          "time": 63.139135,
          "velocity": 0.905511811023622
        },
        {
          "duration": 0.1526153124999965,
          "durationTicks": 84,
          "midi": 60,
          "name": "C4",
          "ticks": 34760,
          "time": 63.153669791666665,
          "velocity": 0.9763779527559056
        },
        {
          "duration": 0.1526153124999965,
          "durationTicks": 84,
          "midi": 65,
          "name": "F4",
          "ticks": 34760,
          "time": 63.153669791666665,
          "velocity": 0.9763779527559056
        },
        {
          "duration": 0.3415676041666629,
          "durationTicks": 188,
          "midi": 53,
          "name": "F3",
          "ticks": 34848,
          "time": 63.3135525,
          "velocity": 0.7637795275590551
        },
        {
          "duration": 0.3415676041666629,
          "durationTicks": 188,
          "midi": 57,
          "name": "A3",
          "ticks": 34848,
          "time": 63.3135525,
          "velocity": 0.8267716535433071
        },
        {
          "duration": 0.3415676041666629,
          "durationTicks": 188,
          "midi": 60,
          "name": "C4",
          "ticks": 34848,
          "time": 63.3135525,
          "velocity": 0.8976377952755905
        },
        {
          "duration": 0.3415676041666629,
          "durationTicks": 188,
          "midi": 65,
          "name": "F4",
          "ticks": 34848,
          "time": 63.3135525,
          "velocity": 0.8976377952755905
        },
        {
          "duration": 0.16715010416666587,
          "durationTicks": 92,
          "midi": 53,
          "name": "F3",
          "ticks": 35040,
          "time": 63.6623875,
          "velocity": 0.8582677165354331
        },
        {
          "duration": 0.16715010416666587,
          "durationTicks": 92,
          "midi": 57,
          "name": "A3",
          "ticks": 35040,
          "time": 63.6623875,
          "velocity": 0.8110236220472441
        },
        {
          "duration": 0.2652599479166611,
          "durationTicks": 146,
          "midi": 57,
          "name": "A3",
          "ticks": 35136,
          "time": 63.836805,
          "velocity": 0.889763779527559
        },
        {
          "duration": 0.27979473958333756,
          "durationTicks": 154,
          "midi": 53,
          "name": "F3",
          "ticks": 35138,
          "time": 63.84043869791667,
          "velocity": 0.937007874015748
        },
        {
          "duration": 0.3233991145833315,
          "durationTicks": 178,
          "midi": 60,
          "name": "C4",
          "ticks": 35146,
          "time": 63.85497348958334,
          "velocity": 0.937007874015748
        },
        {
          "duration": 0.3233991145833315,
          "durationTicks": 178,
          "midi": 65,
          "name": "F4",
          "ticks": 35146,
          "time": 63.85497348958334,
          "velocity": 0.937007874015748
        },
        {
          "duration": 0.2543588541666537,
          "durationTicks": 140,
          "midi": 62,
          "name": "D4",
          "ticks": 35328,
          "time": 64.18564,
          "velocity": 0.7007874015748031
        },
        {
          "duration": 0.48691552083333534,
          "durationTicks": 268,
          "midi": 57,
          "name": "A3",
          "ticks": 35334,
          "time": 64.19654109375,
          "velocity": 0.952755905511811
        },
        {
          "duration": 0.1526153125000036,
          "durationTicks": 84,
          "midi": 62,
          "name": "D4",
          "ticks": 35518,
          "time": 64.53084130208333,
          "velocity": 0.9133858267716536
        },
        {
          "duration": 0.13808052083332711,
          "durationTicks": 76,
          "midi": 69,
          "name": "A4",
          "ticks": 35524,
          "time": 64.54174239583334,
          "velocity": 0.9763779527559056
        },
        {
          "duration": 0.1562490104166585,
          "durationTicks": 86,
          "midi": 66,
          "name": "F#4",
          "ticks": 35526,
          "time": 64.54537609375001,
          "velocity": 0.9763779527559056
        },
        {
          "duration": 0.3124980208333312,
          "durationTicks": 172,
          "midi": 66,
          "name": "F#4",
          "ticks": 35616,
          "time": 64.7088925,
          "velocity": 0.8976377952755905
        },
        {
          "duration": 0.3124980208333312,
          "durationTicks": 172,
          "midi": 69,
          "name": "A4",
          "ticks": 35616,
          "time": 64.7088925,
          "velocity": 0.8976377952755905
        },
        {
          "duration": 0.27979473958333756,
          "durationTicks": 154,
          "midi": 57,
          "name": "A3",
          "ticks": 35624,
          "time": 64.72342729166667,
          "velocity": 0.8976377952755905
        },
        {
          "duration": 0.31613171875000035,
          "durationTicks": 174,
          "midi": 62,
          "name": "D4",
          "ticks": 35630,
          "time": 64.73432838541666,
          "velocity": 0.8503937007874016
        },
        {
          "duration": 0.16715010416666587,
          "durationTicks": 92,
          "midi": 57,
          "name": "A3",
          "ticks": 35808,
          "time": 65.0577275,
          "velocity": 0.8582677165354331
        },
        {
          "duration": 0.16715010416666587,
          "durationTicks": 92,
          "midi": 62,
          "name": "D4",
          "ticks": 35808,
          "time": 65.0577275,
          "velocity": 0.7559055118110236
        },
        {
          "duration": 0.12717942708333396,
          "durationTicks": 70,
          "midi": 57,
          "name": "A3",
          "ticks": 35904,
          "time": 65.232145,
          "velocity": 0.937007874015748
        },
        {
          "duration": 0.13808052083332711,
          "durationTicks": 76,
          "midi": 69,
          "name": "A4",
          "ticks": 35914,
          "time": 65.25031348958333,
          "velocity": 0.937007874015748
        },
        {
          "duration": 0.14534791666666536,
          "durationTicks": 80,
          "midi": 62,
          "name": "D4",
          "ticks": 35916,
          "time": 65.2539471875,
          "velocity": 0.8740157480314961
        },
        {
          "duration": 0.14534791666666536,
          "durationTicks": 80,
          "midi": 66,
          "name": "F#4",
          "ticks": 35916,
          "time": 65.2539471875,
          "velocity": 0.937007874015748
        },
        {
          "duration": 0.16715010416665166,
          "durationTicks": 92,
          "midi": 62,
          "name": "D4",
          "ticks": 36000,
          "time": 65.4065625,
          "velocity": 0.7244094488188977
        },
        {
          "duration": 0.16715010416665166,
          "durationTicks": 92,
          "midi": 66,
          "name": "F#4",
          "ticks": 36000,
          "time": 65.4065625,
          "velocity": 0.8582677165354331
        },
        {
          "duration": 0.16715010416665166,
          "durationTicks": 92,
          "midi": 69,
          "name": "A4",
          "ticks": 36000,
          "time": 65.4065625,
          "velocity": 0.7559055118110236
        },
        {
          "duration": 0.2834284375000067,
          "durationTicks": 156,
          "midi": 62,
          "name": "D4",
          "ticks": 36096,
          "time": 65.58098,
          "velocity": 0.7244094488188977
        },
        {
          "duration": 0.2834284375000067,
          "durationTicks": 156,
          "midi": 66,
          "name": "F#4",
          "ticks": 36096,
          "time": 65.58098,
          "velocity": 0.8582677165354331
        },
        {
          "duration": 0.4433111458333343,
          "durationTicks": 244,
          "midi": 57,
          "name": "A3",
          "ticks": 36102,
          "time": 65.59188109375,
          "velocity": 0.905511811023622
        },
        {
          "duration": 0.13808052083334132,
          "durationTicks": 76,
          "midi": 62,
          "name": "D4",
          "ticks": 36284,
          "time": 65.92254760416667,
          "velocity": 0.905511811023622
        },
        {
          "duration": 0.1526153125000036,
          "durationTicks": 84,
          "midi": 66,
          "name": "F#4",
          "ticks": 36296,
          "time": 65.94434979166667,
          "velocity": 0.9763779527559056
        },
        {
          "duration": 0.1526153125000036,
          "durationTicks": 84,
          "midi": 69,
          "name": "A4",
          "ticks": 36296,
          "time": 65.94434979166667,
          "velocity": 0.9763779527559056
        },
        {
          "duration": 0.34156760416667,
          "durationTicks": 188,
          "midi": 57,
          "name": "A3",
          "ticks": 36384,
          "time": 66.1042325,
          "velocity": 0.7637795275590551
        },
        {
          "duration": 0.34156760416667,
          "durationTicks": 188,
          "midi": 62,
          "name": "D4",
          "ticks": 36384,
          "time": 66.1042325,
          "velocity": 0.8267716535433071
        },
        {
          "duration": 0.34156760416667,
          "durationTicks": 188,
          "midi": 66,
          "name": "F#4",
          "ticks": 36384,
          "time": 66.1042325,
          "velocity": 0.8976377952755905
        },
        {
          "duration": 0.34156760416667,
          "durationTicks": 188,
          "midi": 69,
          "name": "A4",
          "ticks": 36384,
          "time": 66.1042325,
          "velocity": 0.8976377952755905
        },
        {
          "duration": 0.170783802083335,
          "durationTicks": 94,
          "midi": 57,
          "name": "A3",
          "ticks": 36576,
          "time": 66.4530675,
          "velocity": 0.8582677165354331
        },
        {
          "duration": 0.170783802083335,
          "durationTicks": 94,
          "midi": 62,
          "name": "D4",
          "ticks": 36576,
          "time": 66.4530675,
          "velocity": 0.8110236220472441
        },
        {
          "duration": 0.27979473958333756,
          "durationTicks": 154,
          "midi": 57,
          "name": "A3",
          "ticks": 36674,
          "time": 66.63111869791666,
          "velocity": 0.937007874015748
        },
        {
          "duration": 0.2688936458333302,
          "durationTicks": 148,
          "midi": 62,
          "name": "D4",
          "ticks": 36680,
          "time": 66.64201979166667,
          "velocity": 0.889763779527559
        },
        {
          "duration": 0.3233991145833244,
          "durationTicks": 178,
          "midi": 66,
          "name": "F#4",
          "ticks": 36682,
          "time": 66.64565348958334,
          "velocity": 0.937007874015748
        },
        {
          "duration": 0.3233991145833244,
          "durationTicks": 178,
          "midi": 69,
          "name": "A4",
          "ticks": 36682,
          "time": 66.64565348958334,
          "velocity": 0.937007874015748
        },
        {
          "duration": 0.48691552083333534,
          "durationTicks": 268,
          "midi": 55,
          "name": "G3",
          "ticks": 36864,
          "time": 66.97632,
          "velocity": 0.952755905511811
        },
        {
          "duration": 0.2543588541666679,
          "durationTicks": 140,
          "midi": 58,
          "name": "A#3",
          "ticks": 36864,
          "time": 66.97632,
          "velocity": 0.7007874015748031
        },
        {
          "duration": 0.1526153125000036,
          "durationTicks": 84,
          "midi": 58,
          "name": "A#3",
          "ticks": 37048,
          "time": 67.31062020833333,
          "velocity": 0.9133858267716536
        },
        {
          "duration": 0.13808052083332711,
          "durationTicks": 76,
          "midi": 67,
          "name": "G4",
          "ticks": 37054,
          "time": 67.32152130208334,
          "velocity": 0.9763779527559056
        },
        {
          "duration": 0.16715010416666587,
          "durationTicks": 92,
          "midi": 62,
          "name": "D4",
          "ticks": 37056,
          "time": 67.325155,
          "velocity": 0.9763779527559056
        },
        {
          "duration": 0.3306665104166626,
          "durationTicks": 182,
          "midi": 58,
          "name": "A#3",
          "ticks": 37152,
          "time": 67.4995725,
          "velocity": 0.6456692913385826
        },
        {
          "duration": 0.312498020833317,
          "durationTicks": 172,
          "midi": 62,
          "name": "D4",
          "ticks": 37162,
          "time": 67.51774098958334,
          "velocity": 0.8188976377952756
        },
        {
          "duration": 0.312498020833317,
          "durationTicks": 172,
          "midi": 67,
          "name": "G4",
          "ticks": 37162,
          "time": 67.51774098958334,
          "velocity": 0.8188976377952756
        },
        {
          "duration": 0.16715010416666587,
          "durationTicks": 92,
          "midi": 55,
          "name": "G3",
          "ticks": 37338,
          "time": 67.83750640625,
          "velocity": 0.8582677165354331
        },
        {
          "duration": 0.16715010416666587,
          "durationTicks": 92,
          "midi": 58,
          "name": "A#3",
          "ticks": 37338,
          "time": 67.83750640625,
          "velocity": 0.7559055118110236
        },
        {
          "duration": 0.12717942708333396,
          "durationTicks": 70,
          "midi": 55,
          "name": "G3",
          "ticks": 37434,
          "time": 68.01192390625,
          "velocity": 0.9763779527559056
        },
        {
          "duration": 0.13808052083332711,
          "durationTicks": 76,
          "midi": 67,
          "name": "G4",
          "ticks": 37444,
          "time": 68.03009239583334,
          "velocity": 0.9763779527559056
        },
        {
          "duration": 0.14534791666666536,
          "durationTicks": 80,
          "midi": 58,
          "name": "A#3",
          "ticks": 37446,
          "time": 68.03372609375,
          "velocity": 0.9133858267716536
        },
        {
          "duration": 0.14534791666666536,
          "durationTicks": 80,
          "midi": 62,
          "name": "D4",
          "ticks": 37446,
          "time": 68.03372609375,
          "velocity": 0.9763779527559056
        },
        {
          "duration": 0.16715010416666587,
          "durationTicks": 92,
          "midi": 58,
          "name": "A#3",
          "ticks": 37530,
          "time": 68.18634140625,
          "velocity": 0.7637795275590551
        },
        {
          "duration": 0.16715010416666587,
          "durationTicks": 92,
          "midi": 62,
          "name": "D4",
          "ticks": 37530,
          "time": 68.18634140625,
          "velocity": 0.8976377952755905
        },
        {
          "duration": 0.16715010416666587,
          "durationTicks": 92,
          "midi": 67,
          "name": "G4",
          "ticks": 37530,
          "time": 68.18634140625,
          "velocity": 0.7952755905511811
        },
        {
          "duration": 0.2834284375000067,
          "durationTicks": 156,
          "midi": 58,
          "name": "A#3",
          "ticks": 37626,
          "time": 68.36075890625,
          "velocity": 0.7244094488188977
        },
        {
          "duration": 0.2834284375000067,
          "durationTicks": 156,
          "midi": 62,
          "name": "D4",
          "ticks": 37626,
          "time": 68.36075890625,
          "velocity": 0.8582677165354331
        },
        {
          "duration": 0.4433111458333343,
          "durationTicks": 244,
          "midi": 55,
          "name": "G3",
          "ticks": 37632,
          "time": 68.37166,
          "velocity": 0.905511811023622
        },
        {
          "duration": 0.13808052083332711,
          "durationTicks": 76,
          "midi": 58,
          "name": "A#3",
          "ticks": 37814,
          "time": 68.70232651041667,
          "velocity": 0.905511811023622
        },
        {
          "duration": 0.1526153124999894,
          "durationTicks": 84,
          "midi": 62,
          "name": "D4",
          "ticks": 37826,
          "time": 68.72412869791667,
          "velocity": 0.9763779527559056
        },
        {
          "duration": 0.1526153124999894,
          "durationTicks": 84,
          "midi": 67,
          "name": "G4",
          "ticks": 37826,
          "time": 68.72412869791667,
          "velocity": 0.9763779527559056
        },
        {
          "duration": 0.34156760416667,
          "durationTicks": 188,
          "midi": 58,
          "name": "A#3",
          "ticks": 37914,
          "time": 68.88401140625,
          "velocity": 0.7480314960629921
        },
        {
          "duration": 0.34156760416667,
          "durationTicks": 188,
          "midi": 62,
          "name": "D4",
          "ticks": 37914,
          "time": 68.88401140625,
          "velocity": 0.8188976377952756
        },
        {
          "duration": 0.34156760416667,
          "durationTicks": 188,
          "midi": 67,
          "name": "G4",
          "ticks": 37914,
          "time": 68.88401140625,
          "velocity": 0.8188976377952756
        },
        {
          "duration": 0.170783802083335,
          "durationTicks": 94,
          "midi": 55,
          "name": "G3",
          "ticks": 38106,
          "time": 69.23284640625,
          "velocity": 0.8582677165354331
        },
        {
          "duration": 0.170783802083335,
          "durationTicks": 94,
          "midi": 58,
          "name": "A#3",
          "ticks": 38106,
          "time": 69.23284640625,
          "velocity": 0.8110236220472441
        },
        {
          "duration": 0.2906958333333307,
          "durationTicks": 160,
          "midi": 55,
          "name": "G3",
          "ticks": 38204,
          "time": 69.41089760416666,
          "velocity": 0.937007874015748
        },
        {
          "duration": 0.27979473958332335,
          "durationTicks": 154,
          "midi": 58,
          "name": "A#3",
          "ticks": 38210,
          "time": 69.42179869791667,
          "velocity": 0.889763779527559
        },
        {
          "duration": 0.33430020833331753,
          "durationTicks": 184,
          "midi": 62,
          "name": "D4",
          "ticks": 38212,
          "time": 69.42543239583334,
          "velocity": 0.937007874015748
        },
        {
          "duration": 0.33430020833331753,
          "durationTicks": 184,
          "midi": 67,
          "name": "G4",
          "ticks": 38212,
          "time": 69.42543239583334,
          "velocity": 0.937007874015748
        },
        {
          "duration": 0.2543588541666679,
          "durationTicks": 140,
          "midi": 58,
          "name": "A#3",
          "ticks": 38400,
          "time": 69.767,
          "velocity": 0.7007874015748031
        },
        {
          "duration": 0.48691552083333534,
          "durationTicks": 268,
          "midi": 55,
          "name": "G3",
          "ticks": 38406,
          "time": 69.77790109375,
          "velocity": 0.952755905511811
        },
        {
          "duration": 0.1526153125000036,
          "durationTicks": 84,
          "midi": 58,
          "name": "A#3",
          "ticks": 38590,
          "time": 70.11220130208334,
          "velocity": 0.9133858267716536
        },
        {
          "duration": 0.13808052083332711,
          "durationTicks": 76,
          "midi": 67,
          "name": "G4",
          "ticks": 38596,
          "time": 70.12310239583334,
          "velocity": 0.9763779527559056
        },
        {
          "duration": 0.15624901041667272,
          "durationTicks": 86,
          "midi": 62,
          "name": "D4",
          "ticks": 38598,
          "time": 70.12673609375,
          "velocity": 0.9763779527559056
        },
        {
          "duration": 0.3124980208333312,
          "durationTicks": 172,
          "midi": 62,
          "name": "D4",
          "ticks": 38688,
          "time": 70.29025250000001,
          "velocity": 0.8976377952755905
        },
        {
          "duration": 0.3124980208333312,
          "durationTicks": 172,
          "midi": 67,
          "name": "G4",
          "ticks": 38688,
          "time": 70.29025250000001,
          "velocity": 0.8976377952755905
        },
        {
          "duration": 0.27979473958333756,
          "durationTicks": 154,
          "midi": 55,
          "name": "G3",
          "ticks": 38696,
          "time": 70.30478729166667,
          "velocity": 0.8976377952755905
        },
        {
          "duration": 0.31613171875000035,
          "durationTicks": 174,
          "midi": 58,
          "name": "A#3",
          "ticks": 38702,
          "time": 70.31568838541666,
          "velocity": 0.8503937007874016
        },
        {
          "duration": 0.16715010416666587,
          "durationTicks": 92,
          "midi": 55,
          "name": "G3",
          "ticks": 38880,
          "time": 70.6390875,
          "velocity": 0.8582677165354331
        },
        {
          "duration": 0.16715010416666587,
          "durationTicks": 92,
          "midi": 58,
          "name": "A#3",
          "ticks": 38880,
          "time": 70.6390875,
          "velocity": 0.7559055118110236
        },
        {
          "duration": 0.12717942708333396,
          "durationTicks": 70,
          "midi": 55,
          "name": "G3",
          "ticks": 38976,
          "time": 70.813505,
          "velocity": 0.937007874015748
        },
        {
          "duration": 0.13808052083332711,
          "durationTicks": 76,
          "midi": 67,
          "name": "G4",
          "ticks": 38986,
          "time": 70.83167348958334,
          "velocity": 0.937007874015748
        },
        {
          "duration": 0.14534791666665114,
          "durationTicks": 80,
          "midi": 58,
          "name": "A#3",
          "ticks": 38988,
          "time": 70.8353071875,
          "velocity": 0.8740157480314961
        },
        {
          "duration": 0.14534791666665114,
          "durationTicks": 80,
          "midi": 62,
          "name": "D4",
          "ticks": 38988,
          "time": 70.8353071875,
          "velocity": 0.937007874015748
        },
        {
          "duration": 0.16715010416666587,
          "durationTicks": 92,
          "midi": 58,
          "name": "A#3",
          "ticks": 39072,
          "time": 70.9879225,
          "velocity": 0.7244094488188977
        },
        {
          "duration": 0.16715010416666587,
          "durationTicks": 92,
          "midi": 62,
          "name": "D4",
          "ticks": 39072,
          "time": 70.9879225,
          "velocity": 0.8582677165354331
        },
        {
          "duration": 0.16715010416666587,
          "durationTicks": 92,
          "midi": 67,
          "name": "G4",
          "ticks": 39072,
          "time": 70.9879225,
          "velocity": 0.7559055118110236
        },
        {
          "duration": 0.2834284375000067,
          "durationTicks": 156,
          "midi": 58,
          "name": "A#3",
          "ticks": 39168,
          "time": 71.16234,
          "velocity": 0.7244094488188977
        },
        {
          "duration": 0.2834284375000067,
          "durationTicks": 156,
          "midi": 62,
          "name": "D4",
          "ticks": 39168,
          "time": 71.16234,
          "velocity": 0.8582677165354331
        },
        {
          "duration": 0.4433111458333343,
          "durationTicks": 244,
          "midi": 55,
          "name": "G3",
          "ticks": 39174,
          "time": 71.17324109375001,
          "velocity": 0.905511811023622
        },
        {
          "duration": 0.13808052083332711,
          "durationTicks": 76,
          "midi": 58,
          "name": "A#3",
          "ticks": 39356,
          "time": 71.50390760416667,
          "velocity": 0.905511811023622
        },
        {
          "duration": 0.1526153124999894,
          "durationTicks": 84,
          "midi": 62,
          "name": "D4",
          "ticks": 39368,
          "time": 71.52570979166667,
          "velocity": 0.9763779527559056
        },
        {
          "duration": 0.1526153124999894,
          "durationTicks": 84,
          "midi": 67,
          "name": "G4",
          "ticks": 39368,
          "time": 71.52570979166667,
          "velocity": 0.9763779527559056
        },
        {
          "duration": 0.34156760416667,
          "durationTicks": 188,
          "midi": 55,
          "name": "G3",
          "ticks": 39456,
          "time": 71.6855925,
          "velocity": 0.7637795275590551
        },
        {
          "duration": 0.34156760416667,
          "durationTicks": 188,
          "midi": 58,
          "name": "A#3",
          "ticks": 39456,
          "time": 71.6855925,
          "velocity": 0.8267716535433071
        },
        {
          "duration": 0.34156760416667,
          "durationTicks": 188,
          "midi": 62,
          "name": "D4",
          "ticks": 39456,
          "time": 71.6855925,
          "velocity": 0.8976377952755905
        },
        {
          "duration": 0.34156760416667,
          "durationTicks": 188,
          "midi": 67,
          "name": "G4",
          "ticks": 39456,
          "time": 71.6855925,
          "velocity": 0.8976377952755905
        },
        {
          "duration": 0.170783802083335,
          "durationTicks": 94,
          "midi": 55,
          "name": "G3",
          "ticks": 39648,
          "time": 72.0344275,
          "velocity": 0.8582677165354331
        },
        {
          "duration": 0.170783802083335,
          "durationTicks": 94,
          "midi": 58,
          "name": "A#3",
          "ticks": 39648,
          "time": 72.0344275,
          "velocity": 0.8110236220472441
        },
        {
          "duration": 0.27979473958333756,
          "durationTicks": 154,
          "midi": 55,
          "name": "G3",
          "ticks": 39746,
          "time": 72.21247869791667,
          "velocity": 0.937007874015748
        },
        {
          "duration": 0.2688936458333444,
          "durationTicks": 148,
          "midi": 58,
          "name": "A#3",
          "ticks": 39752,
          "time": 72.22337979166666,
          "velocity": 0.889763779527559
        },
        {
          "duration": 0.3233991145833244,
          "durationTicks": 178,
          "midi": 62,
          "name": "D4",
          "ticks": 39754,
          "time": 72.22701348958334,
          "velocity": 0.937007874015748
        },
        {
          "duration": 0.3233991145833244,
          "durationTicks": 178,
          "midi": 67,
          "name": "G4",
          "ticks": 39754,
          "time": 72.22701348958334,
          "velocity": 0.937007874015748
        },
        {
          "duration": 0.2543588541666537,
          "durationTicks": 140,
          "midi": 57,
          "name": "A3",
          "ticks": 39936,
          "time": 72.55768,
          "velocity": 0.7007874015748031
        },
        {
          "duration": 0.48691552083333534,
          "durationTicks": 268,
          "midi": 53,
          "name": "F3",
          "ticks": 39942,
          "time": 72.56858109375,
          "velocity": 0.952755905511811
        },
        {
          "duration": 0.1526153125000036,
          "durationTicks": 84,
          "midi": 57,
          "name": "A3",
          "ticks": 40128,
          "time": 72.906515,
          "velocity": 0.9133858267716536
        },
        {
          "duration": 0.13808052083332711,
          "durationTicks": 76,
          "midi": 65,
          "name": "F4",
          "ticks": 40132,
          "time": 72.91378239583334,
          "velocity": 0.9763779527559056
        },
        {
          "duration": 0.1562490104166585,
          "durationTicks": 86,
          "midi": 60,
          "name": "C4",
          "ticks": 40134,
          "time": 72.91741609375,
          "velocity": 0.9763779527559056
        },
        {
          "duration": 0.2652599479166611,
          "durationTicks": 146,
          "midi": 57,
          "name": "A3",
          "ticks": 40224,
          "time": 73.0809325,
          "velocity": 0.8503937007874016
        },
        {
          "duration": 0.3124980208333312,
          "durationTicks": 172,
          "midi": 60,
          "name": "C4",
          "ticks": 40224,
          "time": 73.0809325,
          "velocity": 0.8976377952755905
        },
        {
          "duration": 0.3124980208333312,
          "durationTicks": 172,
          "midi": 65,
          "name": "F4",
          "ticks": 40224,
          "time": 73.0809325,
          "velocity": 0.8976377952755905
        },
        {
          "duration": 0.3270328124999935,
          "durationTicks": 180,
          "midi": 53,
          "name": "F3",
          "ticks": 40232,
          "time": 73.09546729166667,
          "velocity": 0.8976377952755905
        },
        {
          "duration": 0.16715010416666587,
          "durationTicks": 92,
          "midi": 53,
          "name": "F3",
          "ticks": 40416,
          "time": 73.4297675,
          "velocity": 0.8582677165354331
        },
        {
          "duration": 0.16715010416666587,
          "durationTicks": 92,
          "midi": 57,
          "name": "A3",
          "ticks": 40416,
          "time": 73.4297675,
          "velocity": 0.7559055118110236
        },
        {
          "duration": 0.12717942708333396,
          "durationTicks": 70,
          "midi": 53,
          "name": "F3",
          "ticks": 40512,
          "time": 73.604185,
          "velocity": 0.937007874015748
        },
        {
          "duration": 0.11991203124999572,
          "durationTicks": 66,
          "midi": 57,
          "name": "A3",
          "ticks": 40512,
          "time": 73.604185,
          "velocity": 0.8740157480314961
        },
        {
          "duration": 0.13808052083332711,
          "durationTicks": 76,
          "midi": 65,
          "name": "F4",
          "ticks": 40522,
          "time": 73.62235348958333,
          "velocity": 0.937007874015748
        },
        {
          "duration": 0.14534791666666536,
          "durationTicks": 80,
          "midi": 60,
          "name": "C4",
          "ticks": 40524,
          "time": 73.6259871875,
          "velocity": 0.937007874015748
        },
        {
          "duration": 0.16715010416666587,
          "durationTicks": 92,
          "midi": 57,
          "name": "A3",
          "ticks": 40608,
          "time": 73.7786025,
          "velocity": 0.7244094488188977
        },
        {
          "duration": 0.16715010416666587,
          "durationTicks": 92,
          "midi": 60,
          "name": "C4",
          "ticks": 40608,
          "time": 73.7786025,
          "velocity": 0.8582677165354331
        },
        {
          "duration": 0.16715010416666587,
          "durationTicks": 92,
          "midi": 65,
          "name": "F4",
          "ticks": 40608,
          "time": 73.7786025,
          "velocity": 0.7559055118110236
        },
        {
          "duration": 0.2834284375000067,
          "durationTicks": 156,
          "midi": 57,
          "name": "A3",
          "ticks": 40704,
          "time": 73.95302,
          "velocity": 0.7244094488188977
        },
        {
          "duration": 0.2834284375000067,
          "durationTicks": 156,
          "midi": 60,
          "name": "C4",
          "ticks": 40704,
          "time": 73.95302,
          "velocity": 0.8582677165354331
        },
        {
          "duration": 0.4433111458333343,
          "durationTicks": 244,
          "midi": 53,
          "name": "F3",
          "ticks": 40710,
          "time": 73.96392109375,
          "velocity": 0.905511811023622
        },
        {
          "duration": 0.13808052083334132,
          "durationTicks": 76,
          "midi": 57,
          "name": "A3",
          "ticks": 40896,
          "time": 74.301855,
          "velocity": 0.905511811023622
        },
        {
          "duration": 0.1526153125000036,
          "durationTicks": 84,
          "midi": 60,
          "name": "C4",
          "ticks": 40904,
          "time": 74.31638979166667,
          "velocity": 0.9763779527559056
        },
        {
          "duration": 0.1526153125000036,
          "durationTicks": 84,
          "midi": 65,
          "name": "F4",
          "ticks": 40904,
          "time": 74.31638979166667,
          "velocity": 0.9763779527559056
        },
        {
          "duration": 0.34156760416665577,
          "durationTicks": 188,
          "midi": 53,
          "name": "F3",
          "ticks": 40992,
          "time": 74.47627250000001,
          "velocity": 0.7637795275590551
        },
        {
          "duration": 0.34156760416665577,
          "durationTicks": 188,
          "midi": 57,
          "name": "A3",
          "ticks": 40992,
          "time": 74.47627250000001,
          "velocity": 0.8267716535433071
        },
        {
          "duration": 0.34156760416665577,
          "durationTicks": 188,
          "midi": 60,
          "name": "C4",
          "ticks": 40992,
          "time": 74.47627250000001,
          "velocity": 0.8976377952755905
        },
        {
          "duration": 0.34156760416665577,
          "durationTicks": 188,
          "midi": 65,
          "name": "F4",
          "ticks": 40992,
          "time": 74.47627250000001,
          "velocity": 0.8976377952755905
        },
        {
          "duration": 0.16715010416666587,
          "durationTicks": 92,
          "midi": 53,
          "name": "F3",
          "ticks": 41184,
          "time": 74.8251075,
          "velocity": 0.8582677165354331
        },
        {
          "duration": 0.16715010416666587,
          "durationTicks": 92,
          "midi": 57,
          "name": "A3",
          "ticks": 41184,
          "time": 74.8251075,
          "velocity": 0.8110236220472441
        },
        {
          "duration": 0.2652599479166611,
          "durationTicks": 146,
          "midi": 57,
          "name": "A3",
          "ticks": 41280,
          "time": 74.999525,
          "velocity": 0.889763779527559
        },
        {
          "duration": 0.27979473958333756,
          "durationTicks": 154,
          "midi": 53,
          "name": "F3",
          "ticks": 41282,
          "time": 75.00315869791666,
          "velocity": 0.937007874015748
        },
        {
          "duration": 0.3233991145833244,
          "durationTicks": 178,
          "midi": 60,
          "name": "C4",
          "ticks": 41290,
          "time": 75.01769348958334,
          "velocity": 0.937007874015748
        },
        {
          "duration": 0.3233991145833244,
          "durationTicks": 178,
          "midi": 65,
          "name": "F4",
          "ticks": 41290,
          "time": 75.01769348958334,
          "velocity": 0.937007874015748
        },
        {
          "duration": 0.2543588541666679,
          "durationTicks": 140,
          "midi": 58,
          "name": "A#3",
          "ticks": 41472,
          "time": 75.34836,
          "velocity": 0.7007874015748031
        },
        {
          "duration": 0.48691552083333534,
          "durationTicks": 268,
          "midi": 55,
          "name": "G3",
          "ticks": 41478,
          "time": 75.35926109375,
          "velocity": 0.952755905511811
        },
        {
          "duration": 0.1526153125000036,
          "durationTicks": 84,
          "midi": 58,
          "name": "A#3",
          "ticks": 41662,
          "time": 75.69356130208334,
          "velocity": 0.9133858267716536
        },
        {
          "duration": 0.13808052083332711,
          "durationTicks": 76,
          "midi": 67,
          "name": "G4",
          "ticks": 41668,
          "time": 75.70446239583333,
          "velocity": 0.9763779527559056
        },
        {
          "duration": 0.1562490104166585,
          "durationTicks": 86,
          "midi": 62,
          "name": "D4",
          "ticks": 41670,
          "time": 75.70809609375,
          "velocity": 0.9763779527559056
        },
        {
          "duration": 0.31249802083334544,
          "durationTicks": 172,
          "midi": 62,
          "name": "D4",
          "ticks": 41760,
          "time": 75.8716125,
          "velocity": 0.8976377952755905
        },
        {
          "duration": 0.31249802083334544,
          "durationTicks": 172,
          "midi": 67,
          "name": "G4",
          "ticks": 41760,
          "time": 75.8716125,
          "velocity": 0.8976377952755905
        },
        {
          "duration": 0.27979473958333756,
          "durationTicks": 154,
          "midi": 55,
          "name": "G3",
          "ticks": 41768,
          "time": 75.88614729166666,
          "velocity": 0.8976377952755905
        },
        {
          "duration": 0.31613171875000035,
          "durationTicks": 174,
          "midi": 58,
          "name": "A#3",
          "ticks": 41774,
          "time": 75.89704838541667,
          "velocity": 0.8503937007874016
        },
        {
          "duration": 0.16715010416666587,
          "durationTicks": 92,
          "midi": 55,
          "name": "G3",
          "ticks": 41952,
          "time": 76.2204475,
          "velocity": 0.8582677165354331
        },
        {
          "duration": 0.16715010416666587,
          "durationTicks": 92,
          "midi": 58,
          "name": "A#3",
          "ticks": 41952,
          "time": 76.2204475,
          "velocity": 0.7559055118110236
        },
        {
          "duration": 0.12717942708334817,
          "durationTicks": 70,
          "midi": 55,
          "name": "G3",
          "ticks": 42048,
          "time": 76.394865,
          "velocity": 0.937007874015748
        },
        {
          "duration": 0.13808052083332711,
          "durationTicks": 76,
          "midi": 67,
          "name": "G4",
          "ticks": 42058,
          "time": 76.41303348958334,
          "velocity": 0.937007874015748
        },
        {
          "duration": 0.14534791666666536,
          "durationTicks": 80,
          "midi": 58,
          "name": "A#3",
          "ticks": 42060,
          "time": 76.4166671875,
          "velocity": 0.8740157480314961
        },
        {
          "duration": 0.14534791666666536,
          "durationTicks": 80,
          "midi": 62,
          "name": "D4",
          "ticks": 42060,
          "time": 76.4166671875,
          "velocity": 0.937007874015748
        },
        {
          "duration": 0.16715010416666587,
          "durationTicks": 92,
          "midi": 58,
          "name": "A#3",
          "ticks": 42144,
          "time": 76.5692825,
          "velocity": 0.7244094488188977
        },
        {
          "duration": 0.16715010416666587,
          "durationTicks": 92,
          "midi": 62,
          "name": "D4",
          "ticks": 42144,
          "time": 76.5692825,
          "velocity": 0.8582677165354331
        },
        {
          "duration": 0.16715010416666587,
          "durationTicks": 92,
          "midi": 67,
          "name": "G4",
          "ticks": 42144,
          "time": 76.5692825,
          "velocity": 0.7559055118110236
        },
        {
          "duration": 0.28342843749999247,
          "durationTicks": 156,
          "midi": 58,
          "name": "A#3",
          "ticks": 42240,
          "time": 76.7437,
          "velocity": 0.7244094488188977
        },
        {
          "duration": 0.28342843749999247,
          "durationTicks": 156,
          "midi": 62,
          "name": "D4",
          "ticks": 42240,
          "time": 76.7437,
          "velocity": 0.8582677165354331
        },
        {
          "duration": 0.4433111458333343,
          "durationTicks": 244,
          "midi": 55,
          "name": "G3",
          "ticks": 42246,
          "time": 76.75460109375,
          "velocity": 0.905511811023622
        },
        {
          "duration": 0.13808052083334132,
          "durationTicks": 76,
          "midi": 58,
          "name": "A#3",
          "ticks": 42428,
          "time": 77.08526760416666,
          "velocity": 0.905511811023622
        },
        {
          "duration": 0.1526153125000036,
          "durationTicks": 84,
          "midi": 62,
          "name": "D4",
          "ticks": 42440,
          "time": 77.10706979166666,
          "velocity": 0.9763779527559056
        },
        {
          "duration": 0.1526153125000036,
          "durationTicks": 84,
          "midi": 67,
          "name": "G4",
          "ticks": 42440,
          "time": 77.10706979166666,
          "velocity": 0.9763779527559056
        },
        {
          "duration": 0.34156760416665577,
          "durationTicks": 188,
          "midi": 55,
          "name": "G3",
          "ticks": 42528,
          "time": 77.2669525,
          "velocity": 0.7637795275590551
        },
        {
          "duration": 0.34156760416665577,
          "durationTicks": 188,
          "midi": 58,
          "name": "A#3",
          "ticks": 42528,
          "time": 77.2669525,
          "velocity": 0.8267716535433071
        },
        {
          "duration": 0.34156760416665577,
          "durationTicks": 188,
          "midi": 62,
          "name": "D4",
          "ticks": 42528,
          "time": 77.2669525,
          "velocity": 0.8976377952755905
        },
        {
          "duration": 0.34156760416665577,
          "durationTicks": 188,
          "midi": 67,
          "name": "G4",
          "ticks": 42528,
          "time": 77.2669525,
          "velocity": 0.8976377952755905
        },
        {
          "duration": 0.170783802083335,
          "durationTicks": 94,
          "midi": 55,
          "name": "G3",
          "ticks": 42720,
          "time": 77.6157875,
          "velocity": 0.8582677165354331
        },
        {
          "duration": 0.170783802083335,
          "durationTicks": 94,
          "midi": 58,
          "name": "A#3",
          "ticks": 42720,
          "time": 77.6157875,
          "velocity": 0.8110236220472441
        },
        {
          "duration": 0.27979473958333756,
          "durationTicks": 154,
          "midi": 55,
          "name": "G3",
          "ticks": 42818,
          "time": 77.79383869791667,
          "velocity": 0.937007874015748
        },
        {
          "duration": 0.2688936458333444,
          "durationTicks": 148,
          "midi": 58,
          "name": "A#3",
          "ticks": 42824,
          "time": 77.80473979166666,
          "velocity": 0.889763779527559
        },
        {
          "duration": 0.3233991145833386,
          "durationTicks": 178,
          "midi": 62,
          "name": "D4",
          "ticks": 42826,
          "time": 77.80837348958333,
          "velocity": 0.937007874015748
        },
        {
          "duration": 0.3233991145833386,
          "durationTicks": 178,
          "midi": 67,
          "name": "G4",
          "ticks": 42826,
          "time": 77.80837348958333,
          "velocity": 0.937007874015748
        },
        {
          "duration": 0.48691552083334955,
          "durationTicks": 268,
          "midi": 53,
          "name": "F3",
          "ticks": 43008,
          "time": 78.13904,
          "velocity": 0.952755905511811
        },
        {
          "duration": 0.2543588541666679,
          "durationTicks": 140,
          "midi": 57,
          "name": "A3",
          "ticks": 43008,
          "time": 78.13904,
          "velocity": 0.7007874015748031
        },
        {
          "duration": 0.1526153125000036,
          "durationTicks": 84,
          "midi": 57,
          "name": "A3",
          "ticks": 43192,
          "time": 78.47334020833334,
          "velocity": 0.9133858267716536
        },
        {
          "duration": 0.13808052083332711,
          "durationTicks": 76,
          "midi": 65,
          "name": "F4",
          "ticks": 43198,
          "time": 78.48424130208333,
          "velocity": 0.9763779527559056
        },
        {
          "duration": 0.16715010416666587,
          "durationTicks": 92,
          "midi": 60,
          "name": "C4",
          "ticks": 43200,
          "time": 78.487875,
          "velocity": 0.9763779527559056
        },
        {
          "duration": 0.3306665104166626,
          "durationTicks": 182,
          "midi": 57,
          "name": "A3",
          "ticks": 43296,
          "time": 78.6622925,
          "velocity": 0.6456692913385826
        },
        {
          "duration": 0.3124980208333312,
          "durationTicks": 172,
          "midi": 60,
          "name": "C4",
          "ticks": 43306,
          "time": 78.68046098958334,
          "velocity": 0.8188976377952756
        },
        {
          "duration": 0.3124980208333312,
          "durationTicks": 172,
          "midi": 65,
          "name": "F4",
          "ticks": 43306,
          "time": 78.68046098958334,
          "velocity": 0.8188976377952756
        },
        {
          "duration": 0.16715010416665166,
          "durationTicks": 92,
          "midi": 53,
          "name": "F3",
          "ticks": 43482,
          "time": 79.00022640625001,
          "velocity": 0.8582677165354331
        },
        {
          "duration": 0.16715010416665166,
          "durationTicks": 92,
          "midi": 57,
          "name": "A3",
          "ticks": 43482,
          "time": 79.00022640625001,
          "velocity": 0.7559055118110236
        },
        {
          "duration": 0.12717942708333396,
          "durationTicks": 70,
          "midi": 53,
          "name": "F3",
          "ticks": 43578,
          "time": 79.17464390625,
          "velocity": 0.9763779527559056
        },
        {
          "duration": 0.13808052083332711,
          "durationTicks": 76,
          "midi": 65,
          "name": "F4",
          "ticks": 43588,
          "time": 79.19281239583334,
          "velocity": 0.9763779527559056
        },
        {
          "duration": 0.14534791666666536,
          "durationTicks": 80,
          "midi": 57,
          "name": "A3",
          "ticks": 43590,
          "time": 79.19644609375,
          "velocity": 0.9133858267716536
        },
        {
          "duration": 0.14534791666666536,
          "durationTicks": 80,
          "midi": 60,
          "name": "C4",
          "ticks": 43590,
          "time": 79.19644609375,
          "velocity": 0.9763779527559056
        },
        {
          "duration": 0.16715010416666587,
          "durationTicks": 92,
          "midi": 57,
          "name": "A3",
          "ticks": 43674,
          "time": 79.34906140625,
          "velocity": 0.7637795275590551
        },
        {
          "duration": 0.16715010416666587,
          "durationTicks": 92,
          "midi": 60,
          "name": "C4",
          "ticks": 43674,
          "time": 79.34906140625,
          "velocity": 0.8976377952755905
        },
        {
          "duration": 0.16715010416666587,
          "durationTicks": 92,
          "midi": 65,
          "name": "F4",
          "ticks": 43674,
          "time": 79.34906140625,
          "velocity": 0.7952755905511811
        },
        {
          "duration": 0.28342843749999247,
          "durationTicks": 156,
          "midi": 57,
          "name": "A3",
          "ticks": 43770,
          "time": 79.52347890625,
          "velocity": 0.7244094488188977
        },
        {
          "duration": 0.28342843749999247,
          "durationTicks": 156,
          "midi": 60,
          "name": "C4",
          "ticks": 43770,
          "time": 79.52347890625,
          "velocity": 0.8582677165354331
        },
        {
          "duration": 0.4433111458333343,
          "durationTicks": 244,
          "midi": 53,
          "name": "F3",
          "ticks": 43776,
          "time": 79.53438,
          "velocity": 0.905511811023622
        },
        {
          "duration": 0.13808052083334132,
          "durationTicks": 76,
          "midi": 57,
          "name": "A3",
          "ticks": 43958,
          "time": 79.86504651041666,
          "velocity": 0.905511811023622
        },
        {
          "duration": 0.1526153125000036,
          "durationTicks": 84,
          "midi": 60,
          "name": "C4",
          "ticks": 43970,
          "time": 79.88684869791666,
          "velocity": 0.9763779527559056
        },
        {
          "duration": 0.1526153125000036,
          "durationTicks": 84,
          "midi": 65,
          "name": "F4",
          "ticks": 43970,
          "time": 79.88684869791666,
          "velocity": 0.9763779527559056
        },
        {
          "duration": 0.34156760416665577,
          "durationTicks": 188,
          "midi": 57,
          "name": "A3",
          "ticks": 44058,
          "time": 80.04673140625,
          "velocity": 0.7480314960629921
        },
        {
          "duration": 0.34156760416665577,
          "durationTicks": 188,
          "midi": 60,
          "name": "C4",
          "ticks": 44058,
          "time": 80.04673140625,
          "velocity": 0.8188976377952756
        },
        {
          "duration": 0.34156760416665577,
          "durationTicks": 188,
          "midi": 65,
          "name": "F4",
          "ticks": 44058,
          "time": 80.04673140625,
          "velocity": 0.8188976377952756
        },
        {
          "duration": 0.170783802083335,
          "durationTicks": 94,
          "midi": 53,
          "name": "F3",
          "ticks": 44250,
          "time": 80.39556640625,
          "velocity": 0.8582677165354331
        },
        {
          "duration": 0.170783802083335,
          "durationTicks": 94,
          "midi": 57,
          "name": "A3",
          "ticks": 44250,
          "time": 80.39556640625,
          "velocity": 0.8110236220472441
        },
        {
          "duration": 0.2906958333333307,
          "durationTicks": 160,
          "midi": 53,
          "name": "F3",
          "ticks": 44348,
          "time": 80.57361760416667,
          "velocity": 0.937007874015748
        },
        {
          "duration": 0.27979473958333756,
          "durationTicks": 154,
          "midi": 57,
          "name": "A3",
          "ticks": 44354,
          "time": 80.58451869791666,
          "velocity": 0.889763779527559
        },
        {
          "duration": 0.33430020833333174,
          "durationTicks": 184,
          "midi": 60,
          "name": "C4",
          "ticks": 44356,
          "time": 80.58815239583333,
          "velocity": 0.937007874015748
        },
        {
          "duration": 0.33430020833333174,
          "durationTicks": 184,
          "midi": 65,
          "name": "F4",
          "ticks": 44356,
          "time": 80.58815239583333,
          "velocity": 0.937007874015748
        },
        {
          "duration": 0.2543588541666679,
          "durationTicks": 140,
          "midi": 57,
          "name": "A3",
          "ticks": 44544,
          "time": 80.92972,
          "velocity": 0.7007874015748031
        },
        {
          "duration": 0.48691552083333534,
          "durationTicks": 268,
          "midi": 50,
          "name": "D3",
          "ticks": 44550,
          "time": 80.94062109375,
          "velocity": 0.952755905511811
        },
        {
          "duration": 0.1526153124999894,
          "durationTicks": 84,
          "midi": 57,
          "name": "A3",
          "ticks": 44734,
          "time": 81.27492130208334,
          "velocity": 0.9133858267716536
        },
        {
          "duration": 0.13808052083332711,
          "durationTicks": 76,
          "midi": 66,
          "name": "F#4",
          "ticks": 44740,
          "time": 81.28582239583334,
          "velocity": 0.9763779527559056
        },
        {
          "duration": 0.1562490104166585,
          "durationTicks": 86,
          "midi": 62,
          "name": "D4",
          "ticks": 44742,
          "time": 81.28945609375,
          "velocity": 0.9763779527559056
        },
        {
          "duration": 0.3124980208333312,
          "durationTicks": 172,
          "midi": 62,
          "name": "D4",
          "ticks": 44832,
          "time": 81.4529725,
          "velocity": 0.8976377952755905
        },
        {
          "duration": 0.3124980208333312,
          "durationTicks": 172,
          "midi": 66,
          "name": "F#4",
          "ticks": 44832,
          "time": 81.4529725,
          "velocity": 0.8976377952755905
        },
        {
          "duration": 0.27979473958333756,
          "durationTicks": 154,
          "midi": 50,
          "name": "D3",
          "ticks": 44840,
          "time": 81.46750729166666,
          "velocity": 0.8976377952755905
        },
        {
          "duration": 0.31613171875000035,
          "durationTicks": 174,
          "midi": 57,
          "name": "A3",
          "ticks": 44846,
          "time": 81.47840838541667,
          "velocity": 0.8503937007874016
        },
        {
          "duration": 0.16715010416666587,
          "durationTicks": 92,
          "midi": 50,
          "name": "D3",
          "ticks": 45024,
          "time": 81.8018075,
          "velocity": 0.8582677165354331
        },
        {
          "duration": 0.16715010416666587,
          "durationTicks": 92,
          "midi": 57,
          "name": "A3",
          "ticks": 45024,
          "time": 81.8018075,
          "velocity": 0.7559055118110236
        },
        {
          "duration": 0.12717942708333396,
          "durationTicks": 70,
          "midi": 50,
          "name": "D3",
          "ticks": 45120,
          "time": 81.976225,
          "velocity": 0.937007874015748
        },
        {
          "duration": 0.1380805208333129,
          "durationTicks": 76,
          "midi": 66,
          "name": "F#4",
          "ticks": 45130,
          "time": 81.99439348958335,
          "velocity": 0.937007874015748
        },
        {
          "duration": 0.14534791666666536,
          "durationTicks": 80,
          "midi": 57,
          "name": "A3",
          "ticks": 45132,
          "time": 81.9980271875,
          "velocity": 0.8740157480314961
        },
        {
          "duration": 0.14534791666666536,
          "durationTicks": 80,
          "midi": 62,
          "name": "D4",
          "ticks": 45132,
          "time": 81.9980271875,
          "velocity": 0.937007874015748
        },
        {
          "duration": 0.16715010416666587,
          "durationTicks": 92,
          "midi": 57,
          "name": "A3",
          "ticks": 45216,
          "time": 82.1506425,
          "velocity": 0.7244094488188977
        },
        {
          "duration": 0.16715010416666587,
          "durationTicks": 92,
          "midi": 62,
          "name": "D4",
          "ticks": 45216,
          "time": 82.1506425,
          "velocity": 0.8582677165354331
        },
        {
          "duration": 0.16715010416666587,
          "durationTicks": 92,
          "midi": 66,
          "name": "F#4",
          "ticks": 45216,
          "time": 82.1506425,
          "velocity": 0.7559055118110236
        },
        {
          "duration": 0.28342843749999247,
          "durationTicks": 156,
          "midi": 57,
          "name": "A3",
          "ticks": 45312,
          "time": 82.32506000000001,
          "velocity": 0.7244094488188977
        },
        {
          "duration": 0.28342843749999247,
          "durationTicks": 156,
          "midi": 62,
          "name": "D4",
          "ticks": 45312,
          "time": 82.32506000000001,
          "velocity": 0.8582677165354331
        },
        {
          "duration": 0.4433111458333343,
          "durationTicks": 244,
          "midi": 50,
          "name": "D3",
          "ticks": 45318,
          "time": 82.33596109375,
          "velocity": 0.905511811023622
        },
        {
          "duration": 0.13808052083334132,
          "durationTicks": 76,
          "midi": 57,
          "name": "A3",
          "ticks": 45500,
          "time": 82.66662760416666,
          "velocity": 0.905511811023622
        },
        {
          "duration": 0.1526153125000036,
          "durationTicks": 84,
          "midi": 62,
          "name": "D4",
          "ticks": 45512,
          "time": 82.68842979166666,
          "velocity": 0.9763779527559056
        },
        {
          "duration": 0.1526153125000036,
          "durationTicks": 84,
          "midi": 66,
          "name": "F#4",
          "ticks": 45512,
          "time": 82.68842979166666,
          "velocity": 0.9763779527559056
        },
        {
          "duration": 0.34156760416665577,
          "durationTicks": 188,
          "midi": 50,
          "name": "D3",
          "ticks": 45600,
          "time": 82.8483125,
          "velocity": 0.7637795275590551
        },
        {
          "duration": 0.34156760416665577,
          "durationTicks": 188,
          "midi": 57,
          "name": "A3",
          "ticks": 45600,
          "time": 82.8483125,
          "velocity": 0.8267716535433071
        },
        {
          "duration": 0.34156760416665577,
          "durationTicks": 188,
          "midi": 62,
          "name": "D4",
          "ticks": 45600,
          "time": 82.8483125,
          "velocity": 0.8976377952755905
        },
        {
          "duration": 0.34156760416665577,
          "durationTicks": 188,
          "midi": 66,
          "name": "F#4",
          "ticks": 45600,
          "time": 82.8483125,
          "velocity": 0.8976377952755905
        },
        {
          "duration": 0.170783802083335,
          "durationTicks": 94,
          "midi": 50,
          "name": "D3",
          "ticks": 45792,
          "time": 83.1971475,
          "velocity": 0.8582677165354331
        },
        {
          "duration": 0.170783802083335,
          "durationTicks": 94,
          "midi": 57,
          "name": "A3",
          "ticks": 45792,
          "time": 83.1971475,
          "velocity": 0.8110236220472441
        },
        {
          "duration": 0.27979473958333756,
          "durationTicks": 154,
          "midi": 50,
          "name": "D3",
          "ticks": 45890,
          "time": 83.37519869791666,
          "velocity": 0.937007874015748
        },
        {
          "duration": 0.2688936458333302,
          "durationTicks": 148,
          "midi": 57,
          "name": "A3",
          "ticks": 45896,
          "time": 83.38609979166667,
          "velocity": 0.889763779527559
        },
        {
          "duration": 0.3233991145833244,
          "durationTicks": 178,
          "midi": 62,
          "name": "D4",
          "ticks": 45898,
          "time": 83.38973348958334,
          "velocity": 0.937007874015748
        },
        {
          "duration": 0.3233991145833244,
          "durationTicks": 178,
          "midi": 66,
          "name": "F#4",
          "ticks": 45898,
          "time": 83.38973348958334,
          "velocity": 0.937007874015748
        },
        {
          "duration": 0.2543588541666679,
          "durationTicks": 140,
          "midi": 58,
          "name": "A#3",
          "ticks": 46080,
          "time": 83.7204,
          "velocity": 0.7007874015748031
        },
        {
          "duration": 0.48691552083333534,
          "durationTicks": 268,
          "midi": 55,
          "name": "G3",
          "ticks": 46086,
          "time": 83.73130109375,
          "velocity": 0.952755905511811
        },
        {
          "duration": 0.1526153124999894,
          "durationTicks": 84,
          "midi": 58,
          "name": "A#3",
          "ticks": 46272,
          "time": 84.069235,
          "velocity": 0.9133858267716536
        },
        {
          "duration": 0.13808052083332711,
          "durationTicks": 76,
          "midi": 67,
          "name": "G4",
          "ticks": 46276,
          "time": 84.07650239583334,
          "velocity": 0.9763779527559056
        },
        {
          "duration": 0.1562490104166585,
          "durationTicks": 86,
          "midi": 62,
          "name": "D4",
          "ticks": 46278,
          "time": 84.08013609375,
          "velocity": 0.9763779527559056
        },
        {
          "duration": 0.2652599479166753,
          "durationTicks": 146,
          "midi": 58,
          "name": "A#3",
          "ticks": 46368,
          "time": 84.2436525,
          "velocity": 0.8503937007874016
        },
        {
          "duration": 0.31249802083334544,
          "durationTicks": 172,
          "midi": 62,
          "name": "D4",
          "ticks": 46368,
          "time": 84.2436525,
          "velocity": 0.8976377952755905
        },
        {
          "duration": 0.31249802083334544,
          "durationTicks": 172,
          "midi": 67,
          "name": "G4",
          "ticks": 46368,
          "time": 84.2436525,
          "velocity": 0.8976377952755905
        },
        {
          "duration": 0.3270328125000077,
          "durationTicks": 180,
          "midi": 55,
          "name": "G3",
          "ticks": 46376,
          "time": 84.25818729166666,
          "velocity": 0.8976377952755905
        },
        {
          "duration": 0.16715010416666587,
          "durationTicks": 92,
          "midi": 55,
          "name": "G3",
          "ticks": 46560,
          "time": 84.5924875,
          "velocity": 0.8582677165354331
        },
        {
          "duration": 0.16715010416666587,
          "durationTicks": 92,
          "midi": 58,
          "name": "A#3",
          "ticks": 46560,
          "time": 84.5924875,
          "velocity": 0.7559055118110236
        },
        {
          "duration": 0.12717942708333396,
          "durationTicks": 70,
          "midi": 55,
          "name": "G3",
          "ticks": 46656,
          "time": 84.76690500000001,
          "velocity": 0.937007874015748
        },
        {
          "duration": 0.11991203124999572,
          "durationTicks": 66,
          "midi": 58,
          "name": "A#3",
          "ticks": 46656,
          "time": 84.76690500000001,
          "velocity": 0.8740157480314961
        },
        {
          "duration": 0.13808052083332711,
          "durationTicks": 76,
          "midi": 67,
          "name": "G4",
          "ticks": 46666,
          "time": 84.78507348958334,
          "velocity": 0.937007874015748
        },
        {
          "duration": 0.14534791666666536,
          "durationTicks": 80,
          "midi": 62,
          "name": "D4",
          "ticks": 46668,
          "time": 84.7887071875,
          "velocity": 0.937007874015748
        },
        {
          "duration": 0.16715010416666587,
          "durationTicks": 92,
          "midi": 58,
          "name": "A#3",
          "ticks": 46752,
          "time": 84.9413225,
          "velocity": 0.7244094488188977
        },
        {
          "duration": 0.16715010416666587,
          "durationTicks": 92,
          "midi": 62,
          "name": "D4",
          "ticks": 46752,
          "time": 84.9413225,
          "velocity": 0.8582677165354331
        },
        {
          "duration": 0.16715010416666587,
          "durationTicks": 92,
          "midi": 67,
          "name": "G4",
          "ticks": 46752,
          "time": 84.9413225,
          "velocity": 0.7559055118110236
        },
        {
          "duration": 0.28342843749999247,
          "durationTicks": 156,
          "midi": 58,
          "name": "A#3",
          "ticks": 46848,
          "time": 85.11574,
          "velocity": 0.7244094488188977
        },
        {
          "duration": 0.28342843749999247,
          "durationTicks": 156,
          "midi": 62,
          "name": "D4",
          "ticks": 46848,
          "time": 85.11574,
          "velocity": 0.8582677165354331
        },
        {
          "duration": 0.4433111458333485,
          "durationTicks": 244,
          "midi": 55,
          "name": "G3",
          "ticks": 46854,
          "time": 85.12664109375,
          "velocity": 0.905511811023622
        },
        {
          "duration": 0.13808052083334132,
          "durationTicks": 76,
          "midi": 58,
          "name": "A#3",
          "ticks": 47040,
          "time": 85.464575,
          "velocity": 0.905511811023622
        },
        {
          "duration": 0.1526153125000036,
          "durationTicks": 84,
          "midi": 62,
          "name": "D4",
          "ticks": 47048,
          "time": 85.47910979166666,
          "velocity": 0.9763779527559056
        },
        {
          "duration": 0.1526153125000036,
          "durationTicks": 84,
          "midi": 67,
          "name": "G4",
          "ticks": 47048,
          "time": 85.47910979166666,
          "velocity": 0.9763779527559056
        },
        {
          "duration": 0.34156760416667,
          "durationTicks": 188,
          "midi": 55,
          "name": "G3",
          "ticks": 47136,
          "time": 85.6389925,
          "velocity": 0.7637795275590551
        },
        {
          "duration": 0.34156760416667,
          "durationTicks": 188,
          "midi": 58,
          "name": "A#3",
          "ticks": 47136,
          "time": 85.6389925,
          "velocity": 0.8267716535433071
        },
        {
          "duration": 0.34156760416667,
          "durationTicks": 188,
          "midi": 62,
          "name": "D4",
          "ticks": 47136,
          "time": 85.6389925,
          "velocity": 0.8976377952755905
        },
        {
          "duration": 0.34156760416667,
          "durationTicks": 188,
          "midi": 67,
          "name": "G4",
          "ticks": 47136,
          "time": 85.6389925,
          "velocity": 0.8976377952755905
        },
        {
          "duration": 0.16715010416666587,
          "durationTicks": 92,
          "midi": 55,
          "name": "G3",
          "ticks": 47328,
          "time": 85.9878275,
          "velocity": 0.8582677165354331
        },
        {
          "duration": 0.16715010416666587,
          "durationTicks": 92,
          "midi": 58,
          "name": "A#3",
          "ticks": 47328,
          "time": 85.9878275,
          "velocity": 0.8110236220472441
        },
        {
          "duration": 0.2652599479166611,
          "durationTicks": 146,
          "midi": 58,
          "name": "A#3",
          "ticks": 47424,
          "time": 86.162245,
          "velocity": 0.889763779527559
        },
        {
          "duration": 0.27979473958333756,
          "durationTicks": 154,
          "midi": 55,
          "name": "G3",
          "ticks": 47426,
          "time": 86.16587869791667,
          "velocity": 0.937007874015748
        },
        {
          "duration": 0.3233991145833244,
          "durationTicks": 178,
          "midi": 62,
          "name": "D4",
          "ticks": 47434,
          "time": 86.18041348958334,
          "velocity": 0.937007874015748
        },
        {
          "duration": 0.3233991145833244,
          "durationTicks": 178,
          "midi": 67,
          "name": "G4",
          "ticks": 47434,
          "time": 86.18041348958334,
          "velocity": 0.937007874015748
        },
        {
          "duration": 0.2543588541666537,
          "durationTicks": 140,
          "midi": 60,
          "name": "C4",
          "ticks": 47616,
          "time": 86.51108,
          "velocity": 0.7007874015748031
        },
        {
          "duration": 0.48691552083333534,
          "durationTicks": 268,
          "midi": 55,
          "name": "G3",
          "ticks": 47622,
          "time": 86.52198109375,
          "velocity": 0.952755905511811
        },
        {
          "duration": 0.1526153125000036,
          "durationTicks": 84,
          "midi": 60,
          "name": "C4",
          "ticks": 47806,
          "time": 86.85628130208333,
          "velocity": 0.9133858267716536
        },
        {
          "duration": 0.13808052083332711,
          "durationTicks": 76,
          "midi": 67,
          "name": "G4",
          "ticks": 47812,
          "time": 86.86718239583334,
          "velocity": 0.9763779527559056
        },
        {
          "duration": 0.1562490104166585,
          "durationTicks": 86,
          "midi": 64,
          "name": "E4",
          "ticks": 47814,
          "time": 86.87081609375001,
          "velocity": 0.9763779527559056
        },
        {
          "duration": 0.3124980208333312,
          "durationTicks": 172,
          "midi": 64,
          "name": "E4",
          "ticks": 47904,
          "time": 87.0343325,
          "velocity": 0.8976377952755905
        },
        {
          "duration": 0.3124980208333312,
          "durationTicks": 172,
          "midi": 67,
          "name": "G4",
          "ticks": 47904,
          "time": 87.0343325,
          "velocity": 0.8976377952755905
        },
        {
          "duration": 0.27979473958333756,
          "durationTicks": 154,
          "midi": 55,
          "name": "G3",
          "ticks": 47912,
          "time": 87.04886729166667,
          "velocity": 0.8976377952755905
        },
        {
          "duration": 0.31613171875000035,
          "durationTicks": 174,
          "midi": 60,
          "name": "C4",
          "ticks": 47918,
          "time": 87.05976838541666,
          "velocity": 0.8503937007874016
        },
        {
          "duration": 0.16715010416666587,
          "durationTicks": 92,
          "midi": 55,
          "name": "G3",
          "ticks": 48096,
          "time": 87.3831675,
          "velocity": 0.8582677165354331
        },
        {
          "duration": 0.16715010416666587,
          "durationTicks": 92,
          "midi": 60,
          "name": "C4",
          "ticks": 48096,
          "time": 87.3831675,
          "velocity": 0.7559055118110236
        },
        {
          "duration": 0.12717942708333396,
          "durationTicks": 70,
          "midi": 55,
          "name": "G3",
          "ticks": 48192,
          "time": 87.557585,
          "velocity": 0.937007874015748
        },
        {
          "duration": 0.13808052083332711,
          "durationTicks": 76,
          "midi": 67,
          "name": "G4",
          "ticks": 48202,
          "time": 87.57575348958333,
          "velocity": 0.937007874015748
        },
        {
          "duration": 0.14534791666666536,
          "durationTicks": 80,
          "midi": 60,
          "name": "C4",
          "ticks": 48204,
          "time": 87.5793871875,
          "velocity": 0.8740157480314961
        },
        {
          "duration": 0.14534791666666536,
          "durationTicks": 80,
          "midi": 64,
          "name": "E4",
          "ticks": 48204,
          "time": 87.5793871875,
          "velocity": 0.937007874015748
        },
        {
          "duration": 0.16715010416665166,
          "durationTicks": 92,
          "midi": 60,
          "name": "C4",
          "ticks": 48288,
          "time": 87.73200250000001,
          "velocity": 0.7244094488188977
        },
        {
          "duration": 0.16715010416665166,
          "durationTicks": 92,
          "midi": 64,
          "name": "E4",
          "ticks": 48288,
          "time": 87.73200250000001,
          "velocity": 0.8582677165354331
        },
        {
          "duration": 0.16715010416665166,
          "durationTicks": 92,
          "midi": 67,
          "name": "G4",
          "ticks": 48288,
          "time": 87.73200250000001,
          "velocity": 0.7559055118110236
        },
        {
          "duration": 0.2834284375000067,
          "durationTicks": 156,
          "midi": 60,
          "name": "C4",
          "ticks": 48384,
          "time": 87.90642,
          "velocity": 0.7244094488188977
        },
        {
          "duration": 0.2834284375000067,
          "durationTicks": 156,
          "midi": 64,
          "name": "E4",
          "ticks": 48384,
          "time": 87.90642,
          "velocity": 0.8582677165354331
        },
        {
          "duration": 0.4433111458333343,
          "durationTicks": 244,
          "midi": 55,
          "name": "G3",
          "ticks": 48390,
          "time": 87.91732109375,
          "velocity": 0.905511811023622
        },
        {
          "duration": 0.13808052083334132,
          "durationTicks": 76,
          "midi": 60,
          "name": "C4",
          "ticks": 48572,
          "time": 88.24798760416667,
          "velocity": 0.905511811023622
        },
        {
          "duration": 0.1526153125000036,
          "durationTicks": 84,
          "midi": 64,
          "name": "E4",
          "ticks": 48584,
          "time": 88.26978979166667,
          "velocity": 0.9763779527559056
        },
        {
          "duration": 0.1526153125000036,
          "durationTicks": 84,
          "midi": 67,
          "name": "G4",
          "ticks": 48584,
          "time": 88.26978979166667,
          "velocity": 0.9763779527559056
        },
        {
          "duration": 0.34156760416667,
          "durationTicks": 188,
          "midi": 55,
          "name": "G3",
          "ticks": 48672,
          "time": 88.4296725,
          "velocity": 0.7637795275590551
        },
        {
          "duration": 0.34156760416667,
          "durationTicks": 188,
          "midi": 60,
          "name": "C4",
          "ticks": 48672,
          "time": 88.4296725,
          "velocity": 0.8267716535433071
        },
        {
          "duration": 0.34156760416667,
          "durationTicks": 188,
          "midi": 64,
          "name": "E4",
          "ticks": 48672,
          "time": 88.4296725,
          "velocity": 0.8976377952755905
        },
        {
          "duration": 0.34156760416667,
          "durationTicks": 188,
          "midi": 67,
          "name": "G4",
          "ticks": 48672,
          "time": 88.4296725,
          "velocity": 0.8976377952755905
        },
        {
          "duration": 0.170783802083335,
          "durationTicks": 94,
          "midi": 55,
          "name": "G3",
          "ticks": 48864,
          "time": 88.7785075,
          "velocity": 0.8582677165354331
        },
        {
          "duration": 0.170783802083335,
          "durationTicks": 94,
          "midi": 60,
          "name": "C4",
          "ticks": 48864,
          "time": 88.7785075,
          "velocity": 0.8110236220472441
        },
        {
          "duration": 0.27979473958333756,
          "durationTicks": 154,
          "midi": 55,
          "name": "G3",
          "ticks": 48962,
          "time": 88.95655869791666,
          "velocity": 0.937007874015748
        },
        {
          "duration": 0.2688936458333302,
          "durationTicks": 148,
          "midi": 60,
          "name": "C4",
          "ticks": 48968,
          "time": 88.96745979166667,
          "velocity": 0.889763779527559
        },
        {
          "duration": 0.3233991145833244,
          "durationTicks": 178,
          "midi": 64,
          "name": "E4",
          "ticks": 48970,
          "time": 88.97109348958334,
          "velocity": 0.937007874015748
        },
        {
          "duration": 0.3233991145833244,
          "durationTicks": 178,
          "midi": 67,
          "name": "G4",
          "ticks": 48970,
          "time": 88.97109348958334,
          "velocity": 0.937007874015748
        },
        {
          "duration": 0.4869155208333211,
          "durationTicks": 268,
          "midi": 55,
          "name": "G3",
          "ticks": 49152,
          "time": 89.30176,
          "velocity": 0.952755905511811
        },
        {
          "duration": 0.2543588541666679,
          "durationTicks": 140,
          "midi": 60,
          "name": "C4",
          "ticks": 49152,
          "time": 89.30176,
          "velocity": 0.7007874015748031
        },
        {
          "duration": 0.13808052083334132,
          "durationTicks": 76,
          "midi": 67,
          "name": "G4",
          "ticks": 49342,
          "time": 89.64696130208333,
          "velocity": 0.9763779527559056
        },
        {
          "duration": 0.16715010416668008,
          "durationTicks": 92,
          "midi": 60,
          "name": "C4",
          "ticks": 49344,
          "time": 89.650595,
          "velocity": 0.9133858267716536
        },
        {
          "duration": 0.16715010416668008,
          "durationTicks": 92,
          "midi": 63,
          "name": "D#4",
          "ticks": 49344,
          "time": 89.650595,
          "velocity": 0.9763779527559056
        },
        {
          "duration": 0.33066651041667683,
          "durationTicks": 182,
          "midi": 60,
          "name": "C4",
          "ticks": 49440,
          "time": 89.8250125,
          "velocity": 0.6456692913385826
        },
        {
          "duration": 0.31249802083334544,
          "durationTicks": 172,
          "midi": 63,
          "name": "D#4",
          "ticks": 49450,
          "time": 89.84318098958333,
          "velocity": 0.8188976377952756
        },
        {
          "duration": 0.31249802083334544,
          "durationTicks": 172,
          "midi": 67,
          "name": "G4",
          "ticks": 49450,
          "time": 89.84318098958333,
          "velocity": 0.8188976377952756
        },
        {
          "duration": 0.10901093750000257,
          "durationTicks": 60,
          "midi": 55,
          "name": "G3",
          "ticks": 49626,
          "time": 90.16294640625,
          "velocity": 0.8582677165354331
        },
        {
          "duration": 0.15624901041667272,
          "durationTicks": 86,
          "midi": 60,
          "name": "C4",
          "ticks": 49632,
          "time": 90.17384750000001,
          "velocity": 0.7559055118110236
        },
        {
          "duration": 0.12717942708331975,
          "durationTicks": 70,
          "midi": 55,
          "name": "G3",
          "ticks": 49722,
          "time": 90.33736390625,
          "velocity": 0.9763779527559056
        },
        {
          "duration": 0.11991203125000993,
          "durationTicks": 66,
          "midi": 60,
          "name": "C4",
          "ticks": 49728,
          "time": 90.348265,
          "velocity": 0.9133858267716536
        },
        {
          "duration": 0.13808052083335554,
          "durationTicks": 76,
          "midi": 67,
          "name": "G4",
          "ticks": 49732,
          "time": 90.35553239583332,
          "velocity": 0.9763779527559056
        },
        {
          "duration": 0.14534791666666536,
          "durationTicks": 80,
          "midi": 63,
          "name": "D#4",
          "ticks": 49734,
          "time": 90.35916609375,
          "velocity": 0.9763779527559056
        },
        {
          "duration": 0.13808052083332711,
          "durationTicks": 76,
          "midi": 63,
          "name": "D#4",
          "ticks": 49818,
          "time": 90.51178140625,
          "velocity": 0.8976377952755905
        },
        {
          "duration": 0.13808052083332711,
          "durationTicks": 76,
          "midi": 67,
          "name": "G4",
          "ticks": 49818,
          "time": 90.51178140625,
          "velocity": 0.7952755905511811
        },
        {
          "duration": 0.15624901041667272,
          "durationTicks": 86,
          "midi": 60,
          "name": "C4",
          "ticks": 49824,
          "time": 90.5226825,
          "velocity": 0.7637795275590551
        },
        {
          "duration": 0.2834284375000067,
          "durationTicks": 156,
          "midi": 63,
          "name": "D#4",
          "ticks": 49914,
          "time": 90.68619890625,
          "velocity": 0.8582677165354331
        },
        {
          "duration": 0.4433111458333201,
          "durationTicks": 244,
          "midi": 55,
          "name": "G3",
          "ticks": 49920,
          "time": 90.6971,
          "velocity": 0.905511811023622
        },
        {
          "duration": 0.28342843749999247,
          "durationTicks": 156,
          "midi": 60,
          "name": "C4",
          "ticks": 49920,
          "time": 90.6971,
          "velocity": 0.7244094488188977
        },
        {
          "duration": 0.13808052083332711,
          "durationTicks": 76,
          "midi": 60,
          "name": "C4",
          "ticks": 50112,
          "time": 91.045935,
          "velocity": 0.905511811023622
        },
        {
          "duration": 0.1526153125000036,
          "durationTicks": 84,
          "midi": 63,
          "name": "D#4",
          "ticks": 50114,
          "time": 91.04956869791667,
          "velocity": 0.9763779527559056
        },
        {
          "duration": 0.1526153125000036,
          "durationTicks": 84,
          "midi": 67,
          "name": "G4",
          "ticks": 50114,
          "time": 91.04956869791667,
          "velocity": 0.9763779527559056
        },
        {
          "duration": 0.29796322916668316,
          "durationTicks": 164,
          "midi": 63,
          "name": "D#4",
          "ticks": 50202,
          "time": 91.20945140625,
          "velocity": 0.8188976377952756
        },
        {
          "duration": 0.31613171875000035,
          "durationTicks": 174,
          "midi": 67,
          "name": "G4",
          "ticks": 50202,
          "time": 91.20945140625,
          "velocity": 0.8188976377952756
        },
        {
          "duration": 0.33066651041667683,
          "durationTicks": 182,
          "midi": 60,
          "name": "C4",
          "ticks": 50208,
          "time": 91.2203525,
          "velocity": 0.7480314960629921
        },
        {
          "duration": 0.10901093750000257,
          "durationTicks": 60,
          "midi": 55,
          "name": "G3",
          "ticks": 50394,
          "time": 91.55828640625,
          "velocity": 0.8582677165354331
        },
        {
          "duration": 0.15988270833332763,
          "durationTicks": 88,
          "midi": 60,
          "name": "C4",
          "ticks": 50400,
          "time": 91.5691875,
          "velocity": 0.8110236220472441
        },
        {
          "duration": 0.2906958333333165,
          "durationTicks": 160,
          "midi": 55,
          "name": "G3",
          "ticks": 50492,
          "time": 91.73633760416668,
          "velocity": 0.937007874015748
        },
        {
          "duration": 0.27616104166666844,
          "durationTicks": 152,
          "midi": 60,
          "name": "C4",
          "ticks": 50496,
          "time": 91.743605,
          "velocity": 0.889763779527559
        },
        {
          "duration": 0.33430020833334595,
          "durationTicks": 184,
          "midi": 63,
          "name": "D#4",
          "ticks": 50500,
          "time": 91.75087239583333,
          "velocity": 0.937007874015748
        },
        {
          "duration": 0.33430020833334595,
          "durationTicks": 184,
          "midi": 67,
          "name": "G4",
          "ticks": 50500,
          "time": 91.75087239583333,
          "velocity": 0.937007874015748
        },
        {
          "duration": 0.25435885416668214,
          "durationTicks": 140,
          "midi": 58,
          "name": "A#3",
          "ticks": 50688,
          "time": 92.09244,
          "velocity": 0.7007874015748031
        },
        {
          "duration": 0.4869155208333211,
          "durationTicks": 268,
          "midi": 55,
          "name": "G3",
          "ticks": 50694,
          "time": 92.10334109375,
          "velocity": 0.952755905511811
        },
        {
          "duration": 0.1526153124999894,
          "durationTicks": 84,
          "midi": 58,
          "name": "A#3",
          "ticks": 50878,
          "time": 92.43764130208334,
          "velocity": 0.9133858267716536
        },
        {
          "duration": 0.13808052083334132,
          "durationTicks": 76,
          "midi": 67,
          "name": "G4",
          "ticks": 50884,
          "time": 92.44854239583333,
          "velocity": 0.9763779527559056
        },
        {
          "duration": 0.15624901041667272,
          "durationTicks": 86,
          "midi": 62,
          "name": "D4",
          "ticks": 50886,
          "time": 92.45217609375,
          "velocity": 0.9763779527559056
        },
        {
          "duration": 0.312498020833317,
          "durationTicks": 172,
          "midi": 62,
          "name": "D4",
          "ticks": 50976,
          "time": 92.61569250000001,
          "velocity": 0.8976377952755905
        },
        {
          "duration": 0.312498020833317,
          "durationTicks": 172,
          "midi": 67,
          "name": "G4",
          "ticks": 50976,
          "time": 92.61569250000001,
          "velocity": 0.8976377952755905
        },
        {
          "duration": 0.27979473958333756,
          "durationTicks": 154,
          "midi": 55,
          "name": "G3",
          "ticks": 50984,
          "time": 92.63022729166667,
          "velocity": 0.8976377952755905
        },
        {
          "duration": 0.31613171875000035,
          "durationTicks": 174,
          "midi": 58,
          "name": "A#3",
          "ticks": 50990,
          "time": 92.64112838541668,
          "velocity": 0.8503937007874016
        },
        {
          "duration": 0.16715010416666587,
          "durationTicks": 92,
          "midi": 55,
          "name": "G3",
          "ticks": 51168,
          "time": 92.9645275,
          "velocity": 0.8582677165354331
        },
        {
          "duration": 0.16715010416666587,
          "durationTicks": 92,
          "midi": 58,
          "name": "A#3",
          "ticks": 51168,
          "time": 92.9645275,
          "velocity": 0.7559055118110236
        },
        {
          "duration": 0.12717942708331975,
          "durationTicks": 70,
          "midi": 55,
          "name": "G3",
          "ticks": 51264,
          "time": 93.138945,
          "velocity": 0.937007874015748
        },
        {
          "duration": 0.13808052083335554,
          "durationTicks": 76,
          "midi": 67,
          "name": "G4",
          "ticks": 51274,
          "time": 93.15711348958332,
          "velocity": 0.937007874015748
        },
        {
          "duration": 0.14534791666666536,
          "durationTicks": 80,
          "midi": 58,
          "name": "A#3",
          "ticks": 51276,
          "time": 93.16074718750001,
          "velocity": 0.8740157480314961
        },
        {
          "duration": 0.14534791666666536,
          "durationTicks": 80,
          "midi": 62,
          "name": "D4",
          "ticks": 51276,
          "time": 93.16074718750001,
          "velocity": 0.937007874015748
        },
        {
          "duration": 0.16715010416668008,
          "durationTicks": 92,
          "midi": 58,
          "name": "A#3",
          "ticks": 51360,
          "time": 93.3133625,
          "velocity": 0.7244094488188977
        },
        {
          "duration": 0.16715010416668008,
          "durationTicks": 92,
          "midi": 62,
          "name": "D4",
          "ticks": 51360,
          "time": 93.3133625,
          "velocity": 0.8582677165354331
        },
        {
          "duration": 0.16715010416668008,
          "durationTicks": 92,
          "midi": 67,
          "name": "G4",
          "ticks": 51360,
          "time": 93.3133625,
          "velocity": 0.7559055118110236
        },
        {
          "duration": 0.2834284375000067,
          "durationTicks": 156,
          "midi": 58,
          "name": "A#3",
          "ticks": 51456,
          "time": 93.48778,
          "velocity": 0.7244094488188977
        },
        {
          "duration": 0.2834284375000067,
          "durationTicks": 156,
          "midi": 62,
          "name": "D4",
          "ticks": 51456,
          "time": 93.48778,
          "velocity": 0.8582677165354331
        },
        {
          "duration": 0.4433111458333201,
          "durationTicks": 244,
          "midi": 55,
          "name": "G3",
          "ticks": 51462,
          "time": 93.49868109375001,
          "velocity": 0.905511811023622
        },
        {
          "duration": 0.13808052083332711,
          "durationTicks": 76,
          "midi": 58,
          "name": "A#3",
          "ticks": 51644,
          "time": 93.82934760416667,
          "velocity": 0.905511811023622
        },
        {
          "duration": 0.1526153125000036,
          "durationTicks": 84,
          "midi": 62,
          "name": "D4",
          "ticks": 51656,
          "time": 93.85114979166667,
          "velocity": 0.9763779527559056
        },
        {
          "duration": 0.1526153125000036,
          "durationTicks": 84,
          "midi": 67,
          "name": "G4",
          "ticks": 51656,
          "time": 93.85114979166667,
          "velocity": 0.9763779527559056
        },
        {
          "duration": 0.34156760416667,
          "durationTicks": 188,
          "midi": 55,
          "name": "G3",
          "ticks": 51744,
          "time": 94.0110325,
          "velocity": 0.7637795275590551
        },
        {
          "duration": 0.34156760416667,
          "durationTicks": 188,
          "midi": 58,
          "name": "A#3",
          "ticks": 51744,
          "time": 94.0110325,
          "velocity": 0.8267716535433071
        },
        {
          "duration": 0.34156760416667,
          "durationTicks": 188,
          "midi": 62,
          "name": "D4",
          "ticks": 51744,
          "time": 94.0110325,
          "velocity": 0.8976377952755905
        },
        {
          "duration": 0.34156760416667,
          "durationTicks": 188,
          "midi": 67,
          "name": "G4",
          "ticks": 51744,
          "time": 94.0110325,
          "velocity": 0.8976377952755905
        },
        {
          "duration": 0.17078380208332078,
          "durationTicks": 94,
          "midi": 55,
          "name": "G3",
          "ticks": 51936,
          "time": 94.35986750000001,
          "velocity": 0.8582677165354331
        },
        {
          "duration": 0.17078380208332078,
          "durationTicks": 94,
          "midi": 58,
          "name": "A#3",
          "ticks": 51936,
          "time": 94.35986750000001,
          "velocity": 0.8110236220472441
        },
        {
          "duration": 0.27979473958332335,
          "durationTicks": 154,
          "midi": 55,
          "name": "G3",
          "ticks": 52034,
          "time": 94.53791869791668,
          "velocity": 0.937007874015748
        },
        {
          "duration": 0.2688936458333302,
          "durationTicks": 148,
          "midi": 58,
          "name": "A#3",
          "ticks": 52040,
          "time": 94.54881979166667,
          "velocity": 0.889763779527559
        },
        {
          "duration": 0.3233991145833528,
          "durationTicks": 178,
          "midi": 62,
          "name": "D4",
          "ticks": 52042,
          "time": 94.55245348958333,
          "velocity": 0.937007874015748
        },
        {
          "duration": 0.3233991145833528,
          "durationTicks": 178,
          "midi": 67,
          "name": "G4",
          "ticks": 52042,
          "time": 94.55245348958333,
          "velocity": 0.937007874015748
        },
        {
          "duration": 0.2543588541666679,
          "durationTicks": 140,
          "midi": 57,
          "name": "A3",
          "ticks": 52224,
          "time": 94.88312,
          "velocity": 0.7007874015748031
        },
        {
          "duration": 0.48691552083333534,
          "durationTicks": 268,
          "midi": 55,
          "name": "G3",
          "ticks": 52230,
          "time": 94.89402109375,
          "velocity": 0.952755905511811
        },
        {
          "duration": 0.1526153125000036,
          "durationTicks": 84,
          "midi": 57,
          "name": "A3",
          "ticks": 52416,
          "time": 95.231955,
          "velocity": 0.9133858267716536
        },
        {
          "duration": 0.13808052083335554,
          "durationTicks": 76,
          "midi": 64,
          "name": "E4",
          "ticks": 52420,
          "time": 95.23922239583332,
          "velocity": 0.9763779527559056
        },
        {
          "duration": 0.15624901041667272,
          "durationTicks": 86,
          "midi": 61,
          "name": "C#4",
          "ticks": 52422,
          "time": 95.24285609375,
          "velocity": 0.9763779527559056
        },
        {
          "duration": 0.2652599479166753,
          "durationTicks": 146,
          "midi": 57,
          "name": "A3",
          "ticks": 52512,
          "time": 95.4063725,
          "velocity": 0.8503937007874016
        },
        {
          "duration": 0.3124980208333312,
          "durationTicks": 172,
          "midi": 61,
          "name": "C#4",
          "ticks": 52512,
          "time": 95.4063725,
          "velocity": 0.8976377952755905
        },
        {
          "duration": 0.3124980208333312,
          "durationTicks": 172,
          "midi": 64,
          "name": "E4",
          "ticks": 52512,
          "time": 95.4063725,
          "velocity": 0.8976377952755905
        },
        {
          "duration": 0.3270328124999935,
          "durationTicks": 180,
          "midi": 55,
          "name": "G3",
          "ticks": 52520,
          "time": 95.42090729166668,
          "velocity": 0.8976377952755905
        },
        {
          "duration": 0.16715010416668008,
          "durationTicks": 92,
          "midi": 55,
          "name": "G3",
          "ticks": 52704,
          "time": 95.7552075,
          "velocity": 0.8582677165354331
        },
        {
          "duration": 0.16715010416668008,
          "durationTicks": 92,
          "midi": 57,
          "name": "A3",
          "ticks": 52704,
          "time": 95.7552075,
          "velocity": 0.7559055118110236
        },
        {
          "duration": 0.12717942708333396,
          "durationTicks": 70,
          "midi": 55,
          "name": "G3",
          "ticks": 52800,
          "time": 95.929625,
          "velocity": 0.937007874015748
        },
        {
          "duration": 0.11991203124999572,
          "durationTicks": 66,
          "midi": 57,
          "name": "A3",
          "ticks": 52800,
          "time": 95.929625,
          "velocity": 0.8740157480314961
        },
        {
          "duration": 0.13808052083334132,
          "durationTicks": 76,
          "midi": 64,
          "name": "E4",
          "ticks": 52810,
          "time": 95.94779348958333,
          "velocity": 0.937007874015748
        },
        {
          "duration": 0.14534791666667957,
          "durationTicks": 80,
          "midi": 61,
          "name": "C#4",
          "ticks": 52812,
          "time": 95.9514271875,
          "velocity": 0.937007874015748
        },
        {
          "duration": 0.16715010416666587,
          "durationTicks": 92,
          "midi": 57,
          "name": "A3",
          "ticks": 52896,
          "time": 96.1040425,
          "velocity": 0.7244094488188977
        },
        {
          "duration": 0.16715010416666587,
          "durationTicks": 92,
          "midi": 61,
          "name": "C#4",
          "ticks": 52896,
          "time": 96.1040425,
          "velocity": 0.8582677165354331
        },
        {
          "duration": 0.16715010416666587,
          "durationTicks": 92,
          "midi": 64,
          "name": "E4",
          "ticks": 52896,
          "time": 96.1040425,
          "velocity": 0.7559055118110236
        },
        {
          "duration": 0.2834284375000067,
          "durationTicks": 156,
          "midi": 57,
          "name": "A3",
          "ticks": 52992,
          "time": 96.27846,
          "velocity": 0.7244094488188977
        },
        {
          "duration": 0.2834284375000067,
          "durationTicks": 156,
          "midi": 61,
          "name": "C#4",
          "ticks": 52992,
          "time": 96.27846,
          "velocity": 0.8582677165354331
        },
        {
          "duration": 0.4433111458333201,
          "durationTicks": 244,
          "midi": 55,
          "name": "G3",
          "ticks": 52998,
          "time": 96.28936109375,
          "velocity": 0.905511811023622
        },
        {
          "duration": 0.13808052083332711,
          "durationTicks": 76,
          "midi": 57,
          "name": "A3",
          "ticks": 53184,
          "time": 96.627295,
          "velocity": 0.905511811023622
        },
        {
          "duration": 0.1526153124999894,
          "durationTicks": 84,
          "midi": 61,
          "name": "C#4",
          "ticks": 53192,
          "time": 96.64182979166668,
          "velocity": 0.9763779527559056
        },
        {
          "duration": 0.1526153124999894,
          "durationTicks": 84,
          "midi": 64,
          "name": "E4",
          "ticks": 53192,
          "time": 96.64182979166668,
          "velocity": 0.9763779527559056
        },
        {
          "duration": 0.34156760416667,
          "durationTicks": 188,
          "midi": 55,
          "name": "G3",
          "ticks": 53280,
          "time": 96.80171250000001,
          "velocity": 0.7637795275590551
        },
        {
          "duration": 0.34156760416667,
          "durationTicks": 188,
          "midi": 57,
          "name": "A3",
          "ticks": 53280,
          "time": 96.80171250000001,
          "velocity": 0.8267716535433071
        },
        {
          "duration": 0.34156760416667,
          "durationTicks": 188,
          "midi": 61,
          "name": "C#4",
          "ticks": 53280,
          "time": 96.80171250000001,
          "velocity": 0.8976377952755905
        },
        {
          "duration": 0.34156760416667,
          "durationTicks": 188,
          "midi": 64,
          "name": "E4",
          "ticks": 53280,
          "time": 96.80171250000001,
          "velocity": 0.8976377952755905
        },
        {
          "duration": 0.16715010416668008,
          "durationTicks": 92,
          "midi": 55,
          "name": "G3",
          "ticks": 53472,
          "time": 97.1505475,
          "velocity": 0.8582677165354331
        },
        {
          "duration": 0.16715010416668008,
          "durationTicks": 92,
          "midi": 57,
          "name": "A3",
          "ticks": 53472,
          "time": 97.1505475,
          "velocity": 0.8110236220472441
        },
        {
          "duration": 0.2652599479166753,
          "durationTicks": 146,
          "midi": 57,
          "name": "A3",
          "ticks": 53568,
          "time": 97.324965,
          "velocity": 0.889763779527559
        },
        {
          "duration": 0.27979473958332335,
          "durationTicks": 154,
          "midi": 55,
          "name": "G3",
          "ticks": 53570,
          "time": 97.32859869791668,
          "velocity": 0.937007874015748
        },
        {
          "duration": 0.3597360937500014,
          "durationTicks": 198,
          "midi": 61,
          "name": "C#4",
          "ticks": 53578,
          "time": 97.34313348958332,
          "velocity": 0.937007874015748
        },
        {
          "duration": 0.3597360937500014,
          "durationTicks": 198,
          "midi": 64,
          "name": "E4",
          "ticks": 53578,
          "time": 97.34313348958332,
          "velocity": 0.937007874015748
        },
        {
          "duration": 2.249259010416651,
          "durationTicks": 1238,
          "midi": 57,
          "name": "A3",
          "ticks": 53780,
          "time": 97.71013697916668,
          "velocity": 0.952755905511811
        },
        {
          "duration": 2.2601601041666726,
          "durationTicks": 1244,
          "midi": 62,
          "name": "D4",
          "ticks": 53784,
          "time": 97.717404375,
          "velocity": 0.9133858267716536
        },
        {
          "duration": 2.202020937499995,
          "durationTicks": 1212,
          "midi": 66,
          "name": "F#4",
          "ticks": 53792,
          "time": 97.73193916666668,
          "velocity": 0.9763779527559056
        },
        {
          "duration": 2.202020937499995,
          "durationTicks": 1212,
          "midi": 69,
          "name": "A4",
          "ticks": 53792,
          "time": 97.73193916666668,
          "velocity": 0.9763779527559056
        },
        {
          "duration": 0.4869155208333211,
          "durationTicks": 268,
          "midi": 55,
          "name": "G3",
          "ticks": 55296,
          "time": 100.46448000000001,
          "velocity": 0.952755905511811
        },
        {
          "duration": 0.2543588541666679,
          "durationTicks": 140,
          "midi": 58,
          "name": "A#3",
          "ticks": 55296,
          "time": 100.46448000000001,
          "velocity": 0.7007874015748031
        },
        {
          "duration": 0.1526153125000036,
          "durationTicks": 84,
          "midi": 58,
          "name": "A#3",
          "ticks": 55480,
          "time": 100.79878020833333,
          "velocity": 0.9133858267716536
        },
        {
          "duration": 0.13808052083334132,
          "durationTicks": 76,
          "midi": 67,
          "name": "G4",
          "ticks": 55486,
          "time": 100.80968130208333,
          "velocity": 0.9763779527559056
        },
        {
          "duration": 0.16715010416666587,
          "durationTicks": 92,
          "midi": 62,
          "name": "D4",
          "ticks": 55488,
          "time": 100.813315,
          "velocity": 0.9763779527559056
        },
        {
          "duration": 0.3306665104166626,
          "durationTicks": 182,
          "midi": 58,
          "name": "A#3",
          "ticks": 55584,
          "time": 100.9877325,
          "velocity": 0.6456692913385826
        },
        {
          "duration": 0.31249802083334544,
          "durationTicks": 172,
          "midi": 62,
          "name": "D4",
          "ticks": 55594,
          "time": 101.00590098958332,
          "velocity": 0.8188976377952756
        },
        {
          "duration": 0.31249802083334544,
          "durationTicks": 172,
          "midi": 67,
          "name": "G4",
          "ticks": 55594,
          "time": 101.00590098958332,
          "velocity": 0.8188976377952756
        },
        {
          "duration": 0.16715010416666587,
          "durationTicks": 92,
          "midi": 55,
          "name": "G3",
          "ticks": 55770,
          "time": 101.32566640625001,
          "velocity": 0.8582677165354331
        },
        {
          "duration": 0.16715010416666587,
          "durationTicks": 92,
          "midi": 58,
          "name": "A#3",
          "ticks": 55770,
          "time": 101.32566640625001,
          "velocity": 0.7559055118110236
        },
        {
          "duration": 0.12717942708333396,
          "durationTicks": 70,
          "midi": 55,
          "name": "G3",
          "ticks": 55866,
          "time": 101.50008390625,
          "velocity": 0.9763779527559056
        },
        {
          "duration": 0.13808052083334132,
          "durationTicks": 76,
          "midi": 67,
          "name": "G4",
          "ticks": 55876,
          "time": 101.51825239583333,
          "velocity": 0.9763779527559056
        },
        {
          "duration": 0.14534791666667957,
          "durationTicks": 80,
          "midi": 58,
          "name": "A#3",
          "ticks": 55878,
          "time": 101.52188609375,
          "velocity": 0.9133858267716536
        },
        {
          "duration": 0.14534791666667957,
          "durationTicks": 80,
          "midi": 62,
          "name": "D4",
          "ticks": 55878,
          "time": 101.52188609375,
          "velocity": 0.9763779527559056
        },
        {
          "duration": 0.16715010416668008,
          "durationTicks": 92,
          "midi": 58,
          "name": "A#3",
          "ticks": 55962,
          "time": 101.67450140625,
          "velocity": 0.7637795275590551
        },
        {
          "duration": 0.16715010416668008,
          "durationTicks": 92,
          "midi": 62,
          "name": "D4",
          "ticks": 55962,
          "time": 101.67450140625,
          "velocity": 0.8976377952755905
        },
        {
          "duration": 0.16715010416668008,
          "durationTicks": 92,
          "midi": 67,
          "name": "G4",
          "ticks": 55962,
          "time": 101.67450140625,
          "velocity": 0.7952755905511811
        },
        {
          "duration": 0.28342843749999247,
          "durationTicks": 156,
          "midi": 58,
          "name": "A#3",
          "ticks": 56058,
          "time": 101.84891890625,
          "velocity": 0.7244094488188977
        },
        {
          "duration": 0.28342843749999247,
          "durationTicks": 156,
          "midi": 62,
          "name": "D4",
          "ticks": 56058,
          "time": 101.84891890625,
          "velocity": 0.8582677165354331
        },
        {
          "duration": 0.4433111458333343,
          "durationTicks": 244,
          "midi": 55,
          "name": "G3",
          "ticks": 56064,
          "time": 101.85982,
          "velocity": 0.905511811023622
        },
        {
          "duration": 0.13808052083332711,
          "durationTicks": 76,
          "midi": 58,
          "name": "A#3",
          "ticks": 56246,
          "time": 102.19048651041668,
          "velocity": 0.905511811023622
        },
        {
          "duration": 0.1526153125000036,
          "durationTicks": 84,
          "midi": 62,
          "name": "D4",
          "ticks": 56258,
          "time": 102.21228869791668,
          "velocity": 0.9763779527559056
        },
        {
          "duration": 0.1526153125000036,
          "durationTicks": 84,
          "midi": 67,
          "name": "G4",
          "ticks": 56258,
          "time": 102.21228869791668,
          "velocity": 0.9763779527559056
        },
        {
          "duration": 0.34156760416667,
          "durationTicks": 188,
          "midi": 58,
          "name": "A#3",
          "ticks": 56346,
          "time": 102.37217140625,
          "velocity": 0.7480314960629921
        },
        {
          "duration": 0.34156760416667,
          "durationTicks": 188,
          "midi": 62,
          "name": "D4",
          "ticks": 56346,
          "time": 102.37217140625,
          "velocity": 0.8188976377952756
        },
        {
          "duration": 0.34156760416667,
          "durationTicks": 188,
          "midi": 67,
          "name": "G4",
          "ticks": 56346,
          "time": 102.37217140625,
          "velocity": 0.8188976377952756
        },
        {
          "duration": 0.170783802083335,
          "durationTicks": 94,
          "midi": 55,
          "name": "G3",
          "ticks": 56538,
          "time": 102.72100640625,
          "velocity": 0.8582677165354331
        },
        {
          "duration": 0.170783802083335,
          "durationTicks": 94,
          "midi": 58,
          "name": "A#3",
          "ticks": 56538,
          "time": 102.72100640625,
          "velocity": 0.8110236220472441
        },
        {
          "duration": 0.2906958333333307,
          "durationTicks": 160,
          "midi": 55,
          "name": "G3",
          "ticks": 56636,
          "time": 102.89905760416667,
          "velocity": 0.937007874015748
        },
        {
          "duration": 0.27979473958332335,
          "durationTicks": 154,
          "midi": 58,
          "name": "A#3",
          "ticks": 56642,
          "time": 102.90995869791668,
          "velocity": 0.889763779527559
        },
        {
          "duration": 0.33430020833334595,
          "durationTicks": 184,
          "midi": 62,
          "name": "D4",
          "ticks": 56644,
          "time": 102.91359239583333,
          "velocity": 0.937007874015748
        },
        {
          "duration": 0.33430020833334595,
          "durationTicks": 184,
          "midi": 67,
          "name": "G4",
          "ticks": 56644,
          "time": 102.91359239583333,
          "velocity": 0.937007874015748
        },
        {
          "duration": 0.2543588541666679,
          "durationTicks": 140,
          "midi": 58,
          "name": "A#3",
          "ticks": 56832,
          "time": 103.25516,
          "velocity": 0.7007874015748031
        },
        {
          "duration": 0.48691552083333534,
          "durationTicks": 268,
          "midi": 55,
          "name": "G3",
          "ticks": 56838,
          "time": 103.26606109375,
          "velocity": 0.952755905511811
        },
        {
          "duration": 0.1526153125000036,
          "durationTicks": 84,
          "midi": 58,
          "name": "A#3",
          "ticks": 57022,
          "time": 103.60036130208333,
          "velocity": 0.9133858267716536
        },
        {
          "duration": 0.13808052083335554,
          "durationTicks": 76,
          "midi": 67,
          "name": "G4",
          "ticks": 57028,
          "time": 103.61126239583332,
          "velocity": 0.9763779527559056
        },
        {
          "duration": 0.15624901041667272,
          "durationTicks": 86,
          "midi": 62,
          "name": "D4",
          "ticks": 57030,
          "time": 103.61489609375,
          "velocity": 0.9763779527559056
        },
        {
          "duration": 0.3124980208333312,
          "durationTicks": 172,
          "midi": 62,
          "name": "D4",
          "ticks": 57120,
          "time": 103.7784125,
          "velocity": 0.8976377952755905
        },
        {
          "duration": 0.3124980208333312,
          "durationTicks": 172,
          "midi": 67,
          "name": "G4",
          "ticks": 57120,
          "time": 103.7784125,
          "velocity": 0.8976377952755905
        },
        {
          "duration": 0.27979473958332335,
          "durationTicks": 154,
          "midi": 55,
          "name": "G3",
          "ticks": 57128,
          "time": 103.79294729166668,
          "velocity": 0.8976377952755905
        },
        {
          "duration": 0.31613171875000035,
          "durationTicks": 174,
          "midi": 58,
          "name": "A#3",
          "ticks": 57134,
          "time": 103.80384838541667,
          "velocity": 0.8503937007874016
        },
        {
          "duration": 0.16715010416668008,
          "durationTicks": 92,
          "midi": 55,
          "name": "G3",
          "ticks": 57312,
          "time": 104.1272475,
          "velocity": 0.8582677165354331
        },
        {
          "duration": 0.16715010416668008,
          "durationTicks": 92,
          "midi": 58,
          "name": "A#3",
          "ticks": 57312,
          "time": 104.1272475,
          "velocity": 0.7559055118110236
        },
        {
          "duration": 0.12717942708333396,
          "durationTicks": 70,
          "midi": 55,
          "name": "G3",
          "ticks": 57408,
          "time": 104.301665,
          "velocity": 0.937007874015748
        },
        {
          "duration": 0.13808052083334132,
          "durationTicks": 76,
          "midi": 67,
          "name": "G4",
          "ticks": 57418,
          "time": 104.31983348958333,
          "velocity": 0.937007874015748
        },
        {
          "duration": 0.14534791666667957,
          "durationTicks": 80,
          "midi": 58,
          "name": "A#3",
          "ticks": 57420,
          "time": 104.3234671875,
          "velocity": 0.8740157480314961
        },
        {
          "duration": 0.14534791666667957,
          "durationTicks": 80,
          "midi": 62,
          "name": "D4",
          "ticks": 57420,
          "time": 104.3234671875,
          "velocity": 0.937007874015748
        },
        {
          "duration": 0.16715010416666587,
          "durationTicks": 92,
          "midi": 58,
          "name": "A#3",
          "ticks": 57504,
          "time": 104.4760825,
          "velocity": 0.7244094488188977
        },
        {
          "duration": 0.16715010416666587,
          "durationTicks": 92,
          "midi": 62,
          "name": "D4",
          "ticks": 57504,
          "time": 104.4760825,
          "velocity": 0.8582677165354331
        },
        {
          "duration": 0.16715010416666587,
          "durationTicks": 92,
          "midi": 67,
          "name": "G4",
          "ticks": 57504,
          "time": 104.4760825,
          "velocity": 0.7559055118110236
        },
        {
          "duration": 0.28342843749999247,
          "durationTicks": 156,
          "midi": 58,
          "name": "A#3",
          "ticks": 57600,
          "time": 104.65050000000001,
          "velocity": 0.7244094488188977
        },
        {
          "duration": 0.28342843749999247,
          "durationTicks": 156,
          "midi": 62,
          "name": "D4",
          "ticks": 57600,
          "time": 104.65050000000001,
          "velocity": 0.8582677165354331
        },
        {
          "duration": 0.4433111458333343,
          "durationTicks": 244,
          "midi": 55,
          "name": "G3",
          "ticks": 57606,
          "time": 104.66140109375,
          "velocity": 0.905511811023622
        },
        {
          "duration": 0.13808052083332711,
          "durationTicks": 76,
          "midi": 58,
          "name": "A#3",
          "ticks": 57788,
          "time": 104.99206760416668,
          "velocity": 0.905511811023622
        },
        {
          "duration": 0.1526153125000036,
          "durationTicks": 84,
          "midi": 62,
          "name": "D4",
          "ticks": 57800,
          "time": 105.01386979166668,
          "velocity": 0.9763779527559056
        },
        {
          "duration": 0.1526153125000036,
          "durationTicks": 84,
          "midi": 67,
          "name": "G4",
          "ticks": 57800,
          "time": 105.01386979166668,
          "velocity": 0.9763779527559056
        },
        {
          "duration": 0.34156760416667,
          "durationTicks": 188,
          "midi": 55,
          "name": "G3",
          "ticks": 57888,
          "time": 105.1737525,
          "velocity": 0.7637795275590551
        },
        {
          "duration": 0.34156760416667,
          "durationTicks": 188,
          "midi": 58,
          "name": "A#3",
          "ticks": 57888,
          "time": 105.1737525,
          "velocity": 0.8267716535433071
        },
        {
          "duration": 0.34156760416667,
          "durationTicks": 188,
          "midi": 62,
          "name": "D4",
          "ticks": 57888,
          "time": 105.1737525,
          "velocity": 0.8976377952755905
        },
        {
          "duration": 0.34156760416667,
          "durationTicks": 188,
          "midi": 67,
          "name": "G4",
          "ticks": 57888,
          "time": 105.1737525,
          "velocity": 0.8976377952755905
        },
        {
          "duration": 0.170783802083335,
          "durationTicks": 94,
          "midi": 55,
          "name": "G3",
          "ticks": 58080,
          "time": 105.5225875,
          "velocity": 0.8582677165354331
        },
        {
          "duration": 0.170783802083335,
          "durationTicks": 94,
          "midi": 58,
          "name": "A#3",
          "ticks": 58080,
          "time": 105.5225875,
          "velocity": 0.8110236220472441
        },
        {
          "duration": 0.27979473958332335,
          "durationTicks": 154,
          "midi": 55,
          "name": "G3",
          "ticks": 58178,
          "time": 105.70063869791667,
          "velocity": 0.937007874015748
        },
        {
          "duration": 0.268893645833316,
          "durationTicks": 148,
          "midi": 58,
          "name": "A#3",
          "ticks": 58184,
          "time": 105.71153979166668,
          "velocity": 0.889763779527559
        },
        {
          "duration": 0.3233991145833528,
          "durationTicks": 178,
          "midi": 62,
          "name": "D4",
          "ticks": 58186,
          "time": 105.71517348958332,
          "velocity": 0.937007874015748
        },
        {
          "duration": 0.3233991145833528,
          "durationTicks": 178,
          "midi": 67,
          "name": "G4",
          "ticks": 58186,
          "time": 105.71517348958332,
          "velocity": 0.937007874015748
        },
        {
          "duration": 0.25435885416668214,
          "durationTicks": 140,
          "midi": 57,
          "name": "A3",
          "ticks": 58368,
          "time": 106.04584,
          "velocity": 0.7007874015748031
        },
        {
          "duration": 0.4869155208333211,
          "durationTicks": 268,
          "midi": 53,
          "name": "F3",
          "ticks": 58374,
          "time": 106.05674109375,
          "velocity": 0.952755905511811
        },
        {
          "duration": 0.1526153124999894,
          "durationTicks": 84,
          "midi": 57,
          "name": "A3",
          "ticks": 58560,
          "time": 106.394675,
          "velocity": 0.9133858267716536
        },
        {
          "duration": 0.13808052083334132,
          "durationTicks": 76,
          "midi": 65,
          "name": "F4",
          "ticks": 58564,
          "time": 106.40194239583333,
          "velocity": 0.9763779527559056
        },
        {
          "duration": 0.15624901041667272,
          "durationTicks": 86,
          "midi": 60,
          "name": "C4",
          "ticks": 58566,
          "time": 106.40557609375,
          "velocity": 0.9763779527559056
        },
        {
          "duration": 0.2652599479166753,
          "durationTicks": 146,
          "midi": 57,
          "name": "A3",
          "ticks": 58656,
          "time": 106.5690925,
          "velocity": 0.8503937007874016
        },
        {
          "duration": 0.3124980208333312,
          "durationTicks": 172,
          "midi": 60,
          "name": "C4",
          "ticks": 58656,
          "time": 106.5690925,
          "velocity": 0.8976377952755905
        },
        {
          "duration": 0.3124980208333312,
          "durationTicks": 172,
          "midi": 65,
          "name": "F4",
          "ticks": 58656,
          "time": 106.5690925,
          "velocity": 0.8976377952755905
        },
        {
          "duration": 0.3270328125000077,
          "durationTicks": 180,
          "midi": 53,
          "name": "F3",
          "ticks": 58664,
          "time": 106.58362729166667,
          "velocity": 0.8976377952755905
        },
        {
          "duration": 0.16715010416666587,
          "durationTicks": 92,
          "midi": 53,
          "name": "F3",
          "ticks": 58848,
          "time": 106.9179275,
          "velocity": 0.8582677165354331
        },
        {
          "duration": 0.16715010416666587,
          "durationTicks": 92,
          "midi": 57,
          "name": "A3",
          "ticks": 58848,
          "time": 106.9179275,
          "velocity": 0.7559055118110236
        },
        {
          "duration": 0.12717942708331975,
          "durationTicks": 70,
          "midi": 53,
          "name": "F3",
          "ticks": 58944,
          "time": 107.09234500000001,
          "velocity": 0.937007874015748
        },
        {
          "duration": 0.11991203124999572,
          "durationTicks": 66,
          "midi": 57,
          "name": "A3",
          "ticks": 58944,
          "time": 107.09234500000001,
          "velocity": 0.8740157480314961
        },
        {
          "duration": 0.13808052083335554,
          "durationTicks": 76,
          "midi": 65,
          "name": "F4",
          "ticks": 58954,
          "time": 107.11051348958333,
          "velocity": 0.937007874015748
        },
        {
          "duration": 0.14534791666667957,
          "durationTicks": 80,
          "midi": 60,
          "name": "C4",
          "ticks": 58956,
          "time": 107.1141471875,
          "velocity": 0.937007874015748
        },
        {
          "duration": 0.16715010416668008,
          "durationTicks": 92,
          "midi": 57,
          "name": "A3",
          "ticks": 59040,
          "time": 107.2667625,
          "velocity": 0.7244094488188977
        },
        {
          "duration": 0.16715010416668008,
          "durationTicks": 92,
          "midi": 60,
          "name": "C4",
          "ticks": 59040,
          "time": 107.2667625,
          "velocity": 0.8582677165354331
        },
        {
          "duration": 0.16715010416668008,
          "durationTicks": 92,
          "midi": 65,
          "name": "F4",
          "ticks": 59040,
          "time": 107.2667625,
          "velocity": 0.7559055118110236
        },
        {
          "duration": 0.28342843749999247,
          "durationTicks": 156,
          "midi": 57,
          "name": "A3",
          "ticks": 59136,
          "time": 107.44118,
          "velocity": 0.7244094488188977
        },
        {
          "duration": 0.28342843749999247,
          "durationTicks": 156,
          "midi": 60,
          "name": "C4",
          "ticks": 59136,
          "time": 107.44118,
          "velocity": 0.8582677165354331
        },
        {
          "duration": 0.4433111458333343,
          "durationTicks": 244,
          "midi": 54,
          "name": "F#3",
          "ticks": 59142,
          "time": 107.45208109375,
          "velocity": 0.905511811023622
        },
        {
          "duration": 0.13808052083332711,
          "durationTicks": 76,
          "midi": 57,
          "name": "A3",
          "ticks": 59328,
          "time": 107.790015,
          "velocity": 0.905511811023622
        },
        {
          "duration": 0.1526153125000036,
          "durationTicks": 84,
          "midi": 60,
          "name": "C4",
          "ticks": 59336,
          "time": 107.80454979166667,
          "velocity": 0.9763779527559056
        },
        {
          "duration": 0.1526153125000036,
          "durationTicks": 84,
          "midi": 66,
          "name": "F#4",
          "ticks": 59336,
          "time": 107.80454979166667,
          "velocity": 0.9763779527559056
        },
        {
          "duration": 0.34156760416667,
          "durationTicks": 188,
          "midi": 54,
          "name": "F#3",
          "ticks": 59424,
          "time": 107.9644325,
          "velocity": 0.7637795275590551
        },
        {
          "duration": 0.34156760416667,
          "durationTicks": 188,
          "midi": 57,
          "name": "A3",
          "ticks": 59424,
          "time": 107.9644325,
          "velocity": 0.8267716535433071
        },
        {
          "duration": 0.34156760416667,
          "durationTicks": 188,
          "midi": 60,
          "name": "C4",
          "ticks": 59424,
          "time": 107.9644325,
          "velocity": 0.8976377952755905
        },
        {
          "duration": 0.34156760416667,
          "durationTicks": 188,
          "midi": 66,
          "name": "F#4",
          "ticks": 59424,
          "time": 107.9644325,
          "velocity": 0.8976377952755905
        },
        {
          "duration": 0.16715010416668008,
          "durationTicks": 92,
          "midi": 54,
          "name": "F#3",
          "ticks": 59616,
          "time": 108.3132675,
          "velocity": 0.8582677165354331
        },
        {
          "duration": 0.16715010416668008,
          "durationTicks": 92,
          "midi": 57,
          "name": "A3",
          "ticks": 59616,
          "time": 108.3132675,
          "velocity": 0.8110236220472441
        },
        {
          "duration": 0.2652599479166753,
          "durationTicks": 146,
          "midi": 57,
          "name": "A3",
          "ticks": 59712,
          "time": 108.487685,
          "velocity": 0.889763779527559
        },
        {
          "duration": 0.27979473958333756,
          "durationTicks": 154,
          "midi": 54,
          "name": "F#3",
          "ticks": 59714,
          "time": 108.49131869791667,
          "velocity": 0.937007874015748
        },
        {
          "duration": 0.3233991145833386,
          "durationTicks": 178,
          "midi": 60,
          "name": "C4",
          "ticks": 59722,
          "time": 108.50585348958333,
          "velocity": 0.937007874015748
        },
        {
          "duration": 0.3233991145833386,
          "durationTicks": 178,
          "midi": 66,
          "name": "F#4",
          "ticks": 59722,
          "time": 108.50585348958333,
          "velocity": 0.937007874015748
        },
        {
          "duration": 0.4869155208333211,
          "durationTicks": 268,
          "midi": 55,
          "name": "G3",
          "ticks": 59904,
          "time": 108.83652000000001,
          "velocity": 0.952755905511811
        },
        {
          "duration": 0.2543588541666679,
          "durationTicks": 140,
          "midi": 58,
          "name": "A#3",
          "ticks": 59904,
          "time": 108.83652000000001,
          "velocity": 0.7007874015748031
        },
        {
          "duration": 0.1526153125000036,
          "durationTicks": 84,
          "midi": 58,
          "name": "A#3",
          "ticks": 60088,
          "time": 109.17082020833332,
          "velocity": 0.9133858267716536
        },
        {
          "duration": 0.13808052083334132,
          "durationTicks": 76,
          "midi": 67,
          "name": "G4",
          "ticks": 60094,
          "time": 109.18172130208333,
          "velocity": 0.9763779527559056
        },
        {
          "duration": 0.16715010416668008,
          "durationTicks": 92,
          "midi": 62,
          "name": "D4",
          "ticks": 60096,
          "time": 109.185355,
          "velocity": 0.9763779527559056
        },
        {
          "duration": 0.33066651041667683,
          "durationTicks": 182,
          "midi": 58,
          "name": "A#3",
          "ticks": 60192,
          "time": 109.3597725,
          "velocity": 0.6456692913385826
        },
        {
          "duration": 0.31249802083335965,
          "durationTicks": 172,
          "midi": 62,
          "name": "D4",
          "ticks": 60202,
          "time": 109.37794098958332,
          "velocity": 0.8188976377952756
        },
        {
          "duration": 0.31249802083335965,
          "durationTicks": 172,
          "midi": 67,
          "name": "G4",
          "ticks": 60202,
          "time": 109.37794098958332,
          "velocity": 0.8188976377952756
        },
        {
          "duration": 0.16715010416666587,
          "durationTicks": 92,
          "midi": 55,
          "name": "G3",
          "ticks": 60378,
          "time": 109.69770640625,
          "velocity": 0.8582677165354331
        },
        {
          "duration": 0.16715010416666587,
          "durationTicks": 92,
          "midi": 58,
          "name": "A#3",
          "ticks": 60378,
          "time": 109.69770640625,
          "velocity": 0.7559055118110236
        },
        {
          "duration": 0.12717942708333396,
          "durationTicks": 70,
          "midi": 55,
          "name": "G3",
          "ticks": 60474,
          "time": 109.87212390625,
          "velocity": 0.9763779527559056
        },
        {
          "duration": 0.13808052083334132,
          "durationTicks": 76,
          "midi": 67,
          "name": "G4",
          "ticks": 60484,
          "time": 109.89029239583333,
          "velocity": 0.9763779527559056
        },
        {
          "duration": 0.14534791666667957,
          "durationTicks": 80,
          "midi": 58,
          "name": "A#3",
          "ticks": 60486,
          "time": 109.89392609375,
          "velocity": 0.9133858267716536
        },
        {
          "duration": 0.14534791666667957,
          "durationTicks": 80,
          "midi": 62,
          "name": "D4",
          "ticks": 60486,
          "time": 109.89392609375,
          "velocity": 0.9763779527559056
        },
        {
          "duration": 0.16715010416668008,
          "durationTicks": 92,
          "midi": 58,
          "name": "A#3",
          "ticks": 60570,
          "time": 110.04654140625,
          "velocity": 0.7637795275590551
        },
        {
          "duration": 0.16715010416668008,
          "durationTicks": 92,
          "midi": 62,
          "name": "D4",
          "ticks": 60570,
          "time": 110.04654140625,
          "velocity": 0.8976377952755905
        },
        {
          "duration": 0.16715010416668008,
          "durationTicks": 92,
          "midi": 67,
          "name": "G4",
          "ticks": 60570,
          "time": 110.04654140625,
          "velocity": 0.7952755905511811
        },
        {
          "duration": 0.28342843749999247,
          "durationTicks": 156,
          "midi": 58,
          "name": "A#3",
          "ticks": 60666,
          "time": 110.22095890625,
          "velocity": 0.7244094488188977
        },
        {
          "duration": 0.28342843749999247,
          "durationTicks": 156,
          "midi": 62,
          "name": "D4",
          "ticks": 60666,
          "time": 110.22095890625,
          "velocity": 0.8582677165354331
        },
        {
          "duration": 0.4433111458333343,
          "durationTicks": 244,
          "midi": 55,
          "name": "G3",
          "ticks": 60672,
          "time": 110.23186,
          "velocity": 0.905511811023622
        },
        {
          "duration": 0.13808052083332711,
          "durationTicks": 76,
          "midi": 58,
          "name": "A#3",
          "ticks": 60854,
          "time": 110.56252651041667,
          "velocity": 0.905511811023622
        },
        {
          "duration": 0.1526153125000036,
          "durationTicks": 84,
          "midi": 62,
          "name": "D4",
          "ticks": 60866,
          "time": 110.58432869791667,
          "velocity": 0.9763779527559056
        },
        {
          "duration": 0.1526153125000036,
          "durationTicks": 84,
          "midi": 67,
          "name": "G4",
          "ticks": 60866,
          "time": 110.58432869791667,
          "velocity": 0.9763779527559056
        },
        {
          "duration": 0.34156760416667,
          "durationTicks": 188,
          "midi": 58,
          "name": "A#3",
          "ticks": 60954,
          "time": 110.74421140625,
          "velocity": 0.7480314960629921
        },
        {
          "duration": 0.34156760416667,
          "durationTicks": 188,
          "midi": 62,
          "name": "D4",
          "ticks": 60954,
          "time": 110.74421140625,
          "velocity": 0.8188976377952756
        },
        {
          "duration": 0.34156760416667,
          "durationTicks": 188,
          "midi": 67,
          "name": "G4",
          "ticks": 60954,
          "time": 110.74421140625,
          "velocity": 0.8188976377952756
        },
        {
          "duration": 0.170783802083335,
          "durationTicks": 94,
          "midi": 55,
          "name": "G3",
          "ticks": 61146,
          "time": 111.09304640625,
          "velocity": 0.8582677165354331
        },
        {
          "duration": 0.170783802083335,
          "durationTicks": 94,
          "midi": 58,
          "name": "A#3",
          "ticks": 61146,
          "time": 111.09304640625,
          "velocity": 0.8110236220472441
        },
        {
          "duration": 0.2906958333333307,
          "durationTicks": 160,
          "midi": 55,
          "name": "G3",
          "ticks": 61244,
          "time": 111.27109760416667,
          "velocity": 0.937007874015748
        },
        {
          "duration": 0.27979473958332335,
          "durationTicks": 154,
          "midi": 58,
          "name": "A#3",
          "ticks": 61250,
          "time": 111.28199869791668,
          "velocity": 0.889763779527559
        },
        {
          "duration": 0.33430020833334595,
          "durationTicks": 184,
          "midi": 62,
          "name": "D4",
          "ticks": 61252,
          "time": 111.28563239583333,
          "velocity": 0.937007874015748
        },
        {
          "duration": 0.33430020833334595,
          "durationTicks": 184,
          "midi": 67,
          "name": "G4",
          "ticks": 61252,
          "time": 111.28563239583333,
          "velocity": 0.937007874015748
        },
        {
          "duration": 0.4869155208333211,
          "durationTicks": 268,
          "midi": 55,
          "name": "G3",
          "ticks": 61440,
          "time": 111.6272,
          "velocity": 0.952755905511811
        },
        {
          "duration": 0.2543588541666679,
          "durationTicks": 140,
          "midi": 58,
          "name": "A#3",
          "ticks": 61440,
          "time": 111.6272,
          "velocity": 0.7007874015748031
        },
        {
          "duration": 0.1526153124999894,
          "durationTicks": 84,
          "midi": 58,
          "name": "A#3",
          "ticks": 61624,
          "time": 111.96150020833333,
          "velocity": 0.9133858267716536
        },
        {
          "duration": 0.13808052083334132,
          "durationTicks": 76,
          "midi": 67,
          "name": "G4",
          "ticks": 61630,
          "time": 111.97240130208333,
          "velocity": 0.9763779527559056
        },
        {
          "duration": 0.16715010416668008,
          "durationTicks": 92,
          "midi": 62,
          "name": "D4",
          "ticks": 61632,
          "time": 111.976035,
          "velocity": 0.9763779527559056
        },
        {
          "duration": 0.33066651041667683,
          "durationTicks": 182,
          "midi": 58,
          "name": "A#3",
          "ticks": 61728,
          "time": 112.1504525,
          "velocity": 0.6456692913385826
        },
        {
          "duration": 0.31249802083334544,
          "durationTicks": 172,
          "midi": 62,
          "name": "D4",
          "ticks": 61738,
          "time": 112.16862098958333,
          "velocity": 0.8188976377952756
        },
        {
          "duration": 0.31249802083334544,
          "durationTicks": 172,
          "midi": 67,
          "name": "G4",
          "ticks": 61738,
          "time": 112.16862098958333,
          "velocity": 0.8188976377952756
        },
        {
          "duration": 0.16715010416668008,
          "durationTicks": 92,
          "midi": 55,
          "name": "G3",
          "ticks": 61914,
          "time": 112.48838640625,
          "velocity": 0.8582677165354331
        },
        {
          "duration": 0.16715010416668008,
          "durationTicks": 92,
          "midi": 58,
          "name": "A#3",
          "ticks": 61914,
          "time": 112.48838640625,
          "velocity": 0.7559055118110236
        },
        {
          "duration": 0.12717942708331975,
          "durationTicks": 70,
          "midi": 55,
          "name": "G3",
          "ticks": 62010,
          "time": 112.66280390625,
          "velocity": 0.9763779527559056
        },
        {
          "duration": 0.13808052083335554,
          "durationTicks": 76,
          "midi": 67,
          "name": "G4",
          "ticks": 62020,
          "time": 112.68097239583332,
          "velocity": 0.9763779527559056
        },
        {
          "duration": 0.14534791666666536,
          "durationTicks": 80,
          "midi": 58,
          "name": "A#3",
          "ticks": 62022,
          "time": 112.68460609375,
          "velocity": 0.9133858267716536
        },
        {
          "duration": 0.14534791666666536,
          "durationTicks": 80,
          "midi": 62,
          "name": "D4",
          "ticks": 62022,
          "time": 112.68460609375,
          "velocity": 0.9763779527559056
        },
        {
          "duration": 0.16715010416668008,
          "durationTicks": 92,
          "midi": 58,
          "name": "A#3",
          "ticks": 62106,
          "time": 112.83722140625,
          "velocity": 0.7637795275590551
        },
        {
          "duration": 0.16715010416668008,
          "durationTicks": 92,
          "midi": 62,
          "name": "D4",
          "ticks": 62106,
          "time": 112.83722140625,
          "velocity": 0.8976377952755905
        },
        {
          "duration": 0.16715010416668008,
          "durationTicks": 92,
          "midi": 67,
          "name": "G4",
          "ticks": 62106,
          "time": 112.83722140625,
          "velocity": 0.7952755905511811
        },
        {
          "duration": 0.2834284375000067,
          "durationTicks": 156,
          "midi": 58,
          "name": "A#3",
          "ticks": 62202,
          "time": 113.01163890625,
          "velocity": 0.7244094488188977
        },
        {
          "duration": 0.2834284375000067,
          "durationTicks": 156,
          "midi": 62,
          "name": "D4",
          "ticks": 62202,
          "time": 113.01163890625,
          "velocity": 0.8582677165354331
        },
        {
          "duration": 0.4433111458333201,
          "durationTicks": 244,
          "midi": 55,
          "name": "G3",
          "ticks": 62208,
          "time": 113.02254,
          "velocity": 0.905511811023622
        },
        {
          "duration": 0.13808052083332711,
          "durationTicks": 76,
          "midi": 58,
          "name": "A#3",
          "ticks": 62390,
          "time": 113.35320651041667,
          "velocity": 0.905511811023622
        },
        {
          "duration": 0.1526153125000036,
          "durationTicks": 84,
          "midi": 62,
          "name": "D4",
          "ticks": 62402,
          "time": 113.37500869791667,
          "velocity": 0.9763779527559056
        },
        {
          "duration": 0.1526153125000036,
          "durationTicks": 84,
          "midi": 67,
          "name": "G4",
          "ticks": 62402,
          "time": 113.37500869791667,
          "velocity": 0.9763779527559056
        },
        {
          "duration": 0.3415676041666842,
          "durationTicks": 188,
          "midi": 58,
          "name": "A#3",
          "ticks": 62490,
          "time": 113.53489140625,
          "velocity": 0.7480314960629921
        },
        {
          "duration": 0.3415676041666842,
          "durationTicks": 188,
          "midi": 62,
          "name": "D4",
          "ticks": 62490,
          "time": 113.53489140625,
          "velocity": 0.8188976377952756
        },
        {
          "duration": 0.3415676041666842,
          "durationTicks": 188,
          "midi": 67,
          "name": "G4",
          "ticks": 62490,
          "time": 113.53489140625,
          "velocity": 0.8188976377952756
        },
        {
          "duration": 0.17078380208332078,
          "durationTicks": 94,
          "midi": 55,
          "name": "G3",
          "ticks": 62682,
          "time": 113.88372640625,
          "velocity": 0.8582677165354331
        },
        {
          "duration": 0.17078380208332078,
          "durationTicks": 94,
          "midi": 58,
          "name": "A#3",
          "ticks": 62682,
          "time": 113.88372640625,
          "velocity": 0.8110236220472441
        },
        {
          "duration": 0.2906958333333165,
          "durationTicks": 160,
          "midi": 55,
          "name": "G3",
          "ticks": 62780,
          "time": 114.06177760416668,
          "velocity": 0.937007874015748
        },
        {
          "duration": 0.27979473958332335,
          "durationTicks": 154,
          "midi": 58,
          "name": "A#3",
          "ticks": 62786,
          "time": 114.07267869791667,
          "velocity": 0.889763779527559
        },
        {
          "duration": 0.33430020833334595,
          "durationTicks": 184,
          "midi": 62,
          "name": "D4",
          "ticks": 62788,
          "time": 114.07631239583333,
          "velocity": 0.937007874015748
        },
        {
          "duration": 0.33430020833334595,
          "durationTicks": 184,
          "midi": 67,
          "name": "G4",
          "ticks": 62788,
          "time": 114.07631239583333,
          "velocity": 0.937007874015748
        },
        {
          "duration": 0.25435885416668214,
          "durationTicks": 140,
          "midi": 58,
          "name": "A#3",
          "ticks": 62976,
          "time": 114.41788,
          "velocity": 0.7007874015748031
        },
        {
          "duration": 0.4869155208333211,
          "durationTicks": 268,
          "midi": 55,
          "name": "G3",
          "ticks": 62982,
          "time": 114.42878109375,
          "velocity": 0.952755905511811
        },
        {
          "duration": 0.1526153124999894,
          "durationTicks": 84,
          "midi": 58,
          "name": "A#3",
          "ticks": 63166,
          "time": 114.76308130208334,
          "velocity": 0.9133858267716536
        },
        {
          "duration": 0.13808052083334132,
          "durationTicks": 76,
          "midi": 67,
          "name": "G4",
          "ticks": 63172,
          "time": 114.77398239583333,
          "velocity": 0.9763779527559056
        },
        {
          "duration": 0.15624901041667272,
          "durationTicks": 86,
          "midi": 62,
          "name": "D4",
          "ticks": 63174,
          "time": 114.77761609375,
          "velocity": 0.9763779527559056
        },
        {
          "duration": 0.312498020833317,
          "durationTicks": 172,
          "midi": 62,
          "name": "D4",
          "ticks": 63264,
          "time": 114.94113250000001,
          "velocity": 0.8976377952755905
        },
        {
          "duration": 0.312498020833317,
          "durationTicks": 172,
          "midi": 67,
          "name": "G4",
          "ticks": 63264,
          "time": 114.94113250000001,
          "velocity": 0.8976377952755905
        },
        {
          "duration": 0.27979473958333756,
          "durationTicks": 154,
          "midi": 55,
          "name": "G3",
          "ticks": 63272,
          "time": 114.95566729166667,
          "velocity": 0.8976377952755905
        },
        {
          "duration": 0.31613171875000035,
          "durationTicks": 174,
          "midi": 58,
          "name": "A#3",
          "ticks": 63278,
          "time": 114.96656838541668,
          "velocity": 0.8503937007874016
        },
        {
          "duration": 0.16715010416666587,
          "durationTicks": 92,
          "midi": 55,
          "name": "G3",
          "ticks": 63456,
          "time": 115.2899675,
          "velocity": 0.8582677165354331
        },
        {
          "duration": 0.16715010416666587,
          "durationTicks": 92,
          "midi": 58,
          "name": "A#3",
          "ticks": 63456,
          "time": 115.2899675,
          "velocity": 0.7559055118110236
        },
        {
          "duration": 0.12717942708331975,
          "durationTicks": 70,
          "midi": 55,
          "name": "G3",
          "ticks": 63552,
          "time": 115.46438500000001,
          "velocity": 0.937007874015748
        },
        {
          "duration": 0.13808052083335554,
          "durationTicks": 76,
          "midi": 67,
          "name": "G4",
          "ticks": 63562,
          "time": 115.48255348958332,
          "velocity": 0.937007874015748
        },
        {
          "duration": 0.14534791666666536,
          "durationTicks": 80,
          "midi": 58,
          "name": "A#3",
          "ticks": 63564,
          "time": 115.48618718750001,
          "velocity": 0.8740157480314961
        },
        {
          "duration": 0.14534791666666536,
          "durationTicks": 80,
          "midi": 62,
          "name": "D4",
          "ticks": 63564,
          "time": 115.48618718750001,
          "velocity": 0.937007874015748
        },
        {
          "duration": 0.16715010416668008,
          "durationTicks": 92,
          "midi": 58,
          "name": "A#3",
          "ticks": 63648,
          "time": 115.6388025,
          "velocity": 0.7244094488188977
        },
        {
          "duration": 0.16715010416668008,
          "durationTicks": 92,
          "midi": 62,
          "name": "D4",
          "ticks": 63648,
          "time": 115.6388025,
          "velocity": 0.8582677165354331
        },
        {
          "duration": 0.16715010416668008,
          "durationTicks": 92,
          "midi": 67,
          "name": "G4",
          "ticks": 63648,
          "time": 115.6388025,
          "velocity": 0.7559055118110236
        },
        {
          "duration": 0.2834284375000067,
          "durationTicks": 156,
          "midi": 58,
          "name": "A#3",
          "ticks": 63744,
          "time": 115.81322,
          "velocity": 0.7244094488188977
        },
        {
          "duration": 0.2834284375000067,
          "durationTicks": 156,
          "midi": 62,
          "name": "D4",
          "ticks": 63744,
          "time": 115.81322,
          "velocity": 0.8582677165354331
        },
        {
          "duration": 0.4433111458333201,
          "durationTicks": 244,
          "midi": 55,
          "name": "G3",
          "ticks": 63750,
          "time": 115.82412109375001,
          "velocity": 0.905511811023622
        },
        {
          "duration": 0.13808052083332711,
          "durationTicks": 76,
          "midi": 58,
          "name": "A#3",
          "ticks": 63932,
          "time": 116.15478760416667,
          "velocity": 0.905511811023622
        },
        {
          "duration": 0.1526153125000036,
          "durationTicks": 84,
          "midi": 62,
          "name": "D4",
          "ticks": 63944,
          "time": 116.17658979166667,
          "velocity": 0.9763779527559056
        },
        {
          "duration": 0.1526153125000036,
          "durationTicks": 84,
          "midi": 67,
          "name": "G4",
          "ticks": 63944,
          "time": 116.17658979166667,
          "velocity": 0.9763779527559056
        },
        {
          "duration": 0.34156760416667,
          "durationTicks": 188,
          "midi": 55,
          "name": "G3",
          "ticks": 64032,
          "time": 116.3364725,
          "velocity": 0.7637795275590551
        },
        {
          "duration": 0.34156760416667,
          "durationTicks": 188,
          "midi": 58,
          "name": "A#3",
          "ticks": 64032,
          "time": 116.3364725,
          "velocity": 0.8267716535433071
        },
        {
          "duration": 0.34156760416667,
          "durationTicks": 188,
          "midi": 62,
          "name": "D4",
          "ticks": 64032,
          "time": 116.3364725,
          "velocity": 0.8976377952755905
        },
        {
          "duration": 0.34156760416667,
          "durationTicks": 188,
          "midi": 67,
          "name": "G4",
          "ticks": 64032,
          "time": 116.3364725,
          "velocity": 0.8976377952755905
        },
        {
          "duration": 0.17078380208332078,
          "durationTicks": 94,
          "midi": 55,
          "name": "G3",
          "ticks": 64224,
          "time": 116.68530750000001,
          "velocity": 0.8582677165354331
        },
        {
          "duration": 0.17078380208332078,
          "durationTicks": 94,
          "midi": 58,
          "name": "A#3",
          "ticks": 64224,
          "time": 116.68530750000001,
          "velocity": 0.8110236220472441
        },
        {
          "duration": 0.27979473958332335,
          "durationTicks": 154,
          "midi": 55,
          "name": "G3",
          "ticks": 64322,
          "time": 116.86335869791668,
          "velocity": 0.937007874015748
        },
        {
          "duration": 0.2688936458333302,
          "durationTicks": 148,
          "midi": 58,
          "name": "A#3",
          "ticks": 64328,
          "time": 116.87425979166667,
          "velocity": 0.889763779527559
        },
        {
          "duration": 0.3233991145833528,
          "durationTicks": 178,
          "midi": 62,
          "name": "D4",
          "ticks": 64330,
          "time": 116.87789348958333,
          "velocity": 0.937007874015748
        },
        {
          "duration": 0.3233991145833528,
          "durationTicks": 178,
          "midi": 67,
          "name": "G4",
          "ticks": 64330,
          "time": 116.87789348958333,
          "velocity": 0.937007874015748
        },
        {
          "duration": 0.2543588541666679,
          "durationTicks": 140,
          "midi": 57,
          "name": "A3",
          "ticks": 64512,
          "time": 117.20856,
          "velocity": 0.7007874015748031
        },
        {
          "duration": 0.48691552083333534,
          "durationTicks": 268,
          "midi": 53,
          "name": "F3",
          "ticks": 64518,
          "time": 117.21946109375,
          "velocity": 0.952755905511811
        },
        {
          "duration": 0.1526153125000036,
          "durationTicks": 84,
          "midi": 57,
          "name": "A3",
          "ticks": 64704,
          "time": 117.557395,
          "velocity": 0.9133858267716536
        },
        {
          "duration": 0.13808052083335554,
          "durationTicks": 76,
          "midi": 65,
          "name": "F4",
          "ticks": 64708,
          "time": 117.56466239583332,
          "velocity": 0.9763779527559056
        },
        {
          "duration": 0.15624901041667272,
          "durationTicks": 86,
          "midi": 60,
          "name": "C4",
          "ticks": 64710,
          "time": 117.56829609375,
          "velocity": 0.9763779527559056
        },
        {
          "duration": 0.2652599479166753,
          "durationTicks": 146,
          "midi": 57,
          "name": "A3",
          "ticks": 64800,
          "time": 117.7318125,
          "velocity": 0.8503937007874016
        },
        {
          "duration": 0.3124980208333312,
          "durationTicks": 172,
          "midi": 60,
          "name": "C4",
          "ticks": 64800,
          "time": 117.7318125,
          "velocity": 0.8976377952755905
        },
        {
          "duration": 0.3124980208333312,
          "durationTicks": 172,
          "midi": 65,
          "name": "F4",
          "ticks": 64800,
          "time": 117.7318125,
          "velocity": 0.8976377952755905
        },
        {
          "duration": 0.3270328124999935,
          "durationTicks": 180,
          "midi": 53,
          "name": "F3",
          "ticks": 64808,
          "time": 117.74634729166668,
          "velocity": 0.8976377952755905
        },
        {
          "duration": 0.16715010416668008,
          "durationTicks": 92,
          "midi": 53,
          "name": "F3",
          "ticks": 64992,
          "time": 118.0806475,
          "velocity": 0.8582677165354331
        },
        {
          "duration": 0.16715010416668008,
          "durationTicks": 92,
          "midi": 57,
          "name": "A3",
          "ticks": 64992,
          "time": 118.0806475,
          "velocity": 0.7559055118110236
        },
        {
          "duration": 0.12717942708333396,
          "durationTicks": 70,
          "midi": 53,
          "name": "F3",
          "ticks": 65088,
          "time": 118.255065,
          "velocity": 0.937007874015748
        },
        {
          "duration": 0.11991203124999572,
          "durationTicks": 66,
          "midi": 57,
          "name": "A3",
          "ticks": 65088,
          "time": 118.255065,
          "velocity": 0.8740157480314961
        },
        {
          "duration": 0.13808052083334132,
          "durationTicks": 76,
          "midi": 65,
          "name": "F4",
          "ticks": 65098,
          "time": 118.27323348958333,
          "velocity": 0.937007874015748
        },
        {
          "duration": 0.14534791666667957,
          "durationTicks": 80,
          "midi": 60,
          "name": "C4",
          "ticks": 65100,
          "time": 118.2768671875,
          "velocity": 0.937007874015748
        },
        {
          "duration": 0.16715010416666587,
          "durationTicks": 92,
          "midi": 57,
          "name": "A3",
          "ticks": 65184,
          "time": 118.4294825,
          "velocity": 0.7244094488188977
        },
        {
          "duration": 0.16715010416666587,
          "durationTicks": 92,
          "midi": 60,
          "name": "C4",
          "ticks": 65184,
          "time": 118.4294825,
          "velocity": 0.8582677165354331
        },
        {
          "duration": 0.16715010416666587,
          "durationTicks": 92,
          "midi": 65,
          "name": "F4",
          "ticks": 65184,
          "time": 118.4294825,
          "velocity": 0.7559055118110236
        },
        {
          "duration": 0.2834284375000067,
          "durationTicks": 156,
          "midi": 57,
          "name": "A3",
          "ticks": 65280,
          "time": 118.6039,
          "velocity": 0.7244094488188977
        },
        {
          "duration": 0.2834284375000067,
          "durationTicks": 156,
          "midi": 60,
          "name": "C4",
          "ticks": 65280,
          "time": 118.6039,
          "velocity": 0.8582677165354331
        },
        {
          "duration": 0.4433111458333201,
          "durationTicks": 244,
          "midi": 53,
          "name": "F3",
          "ticks": 65286,
          "time": 118.61480109375,
          "velocity": 0.905511811023622
        },
        {
          "duration": 0.13808052083332711,
          "durationTicks": 76,
          "midi": 57,
          "name": "A3",
          "ticks": 65472,
          "time": 118.952735,
          "velocity": 0.905511811023622
        },
        {
          "duration": 0.1526153124999894,
          "durationTicks": 84,
          "midi": 60,
          "name": "C4",
          "ticks": 65480,
          "time": 118.96726979166668,
          "velocity": 0.9763779527559056
        },
        {
          "duration": 0.1526153124999894,
          "durationTicks": 84,
          "midi": 65,
          "name": "F4",
          "ticks": 65480,
          "time": 118.96726979166668,
          "velocity": 0.9763779527559056
        },
        {
          "duration": 0.34156760416667,
          "durationTicks": 188,
          "midi": 53,
          "name": "F3",
          "ticks": 65568,
          "time": 119.12715250000001,
          "velocity": 0.7637795275590551
        },
        {
          "duration": 0.34156760416667,
          "durationTicks": 188,
          "midi": 57,
          "name": "A3",
          "ticks": 65568,
          "time": 119.12715250000001,
          "velocity": 0.8267716535433071
        },
        {
          "duration": 0.34156760416667,
          "durationTicks": 188,
          "midi": 60,
          "name": "C4",
          "ticks": 65568,
          "time": 119.12715250000001,
          "velocity": 0.8976377952755905
        },
        {
          "duration": 0.34156760416667,
          "durationTicks": 188,
          "midi": 65,
          "name": "F4",
          "ticks": 65568,
          "time": 119.12715250000001,
          "velocity": 0.8976377952755905
        },
        {
          "duration": 0.16715010416668008,
          "durationTicks": 92,
          "midi": 53,
          "name": "F3",
          "ticks": 65760,
          "time": 119.4759875,
          "velocity": 0.8582677165354331
        },
        {
          "duration": 0.16715010416668008,
          "durationTicks": 92,
          "midi": 57,
          "name": "A3",
          "ticks": 65760,
          "time": 119.4759875,
          "velocity": 0.8110236220472441
        },
        {
          "duration": 0.2652599479166753,
          "durationTicks": 146,
          "midi": 57,
          "name": "A3",
          "ticks": 65856,
          "time": 119.650405,
          "velocity": 0.889763779527559
        },
        {
          "duration": 0.27979473958332335,
          "durationTicks": 154,
          "midi": 53,
          "name": "F3",
          "ticks": 65858,
          "time": 119.65403869791668,
          "velocity": 0.937007874015748
        },
        {
          "duration": 0.3233991145833528,
          "durationTicks": 178,
          "midi": 60,
          "name": "C4",
          "ticks": 65866,
          "time": 119.66857348958332,
          "velocity": 0.937007874015748
        },
        {
          "duration": 0.3233991145833528,
          "durationTicks": 178,
          "midi": 65,
          "name": "F4",
          "ticks": 65866,
          "time": 119.66857348958332,
          "velocity": 0.937007874015748
        },
        {
          "duration": 0.25435885416668214,
          "durationTicks": 140,
          "midi": 62,
          "name": "D4",
          "ticks": 66048,
          "time": 119.99924,
          "velocity": 0.7007874015748031
        },
        {
          "duration": 0.4869155208333211,
          "durationTicks": 268,
          "midi": 57,
          "name": "A3",
          "ticks": 66054,
          "time": 120.01014109375001,
          "velocity": 0.952755905511811
        },
        {
          "duration": 0.1526153125000036,
          "durationTicks": 84,
          "midi": 62,
          "name": "D4",
          "ticks": 66238,
          "time": 120.34444130208333,
          "velocity": 0.9133858267716536
        },
        {
          "duration": 0.13808052083334132,
          "durationTicks": 76,
          "midi": 69,
          "name": "A4",
          "ticks": 66244,
          "time": 120.35534239583333,
          "velocity": 0.9763779527559056
        },
        {
          "duration": 0.15624901041667272,
          "durationTicks": 86,
          "midi": 66,
          "name": "F#4",
          "ticks": 66246,
          "time": 120.35897609375,
          "velocity": 0.9763779527559056
        },
        {
          "duration": 0.3124980208333312,
          "durationTicks": 172,
          "midi": 66,
          "name": "F#4",
          "ticks": 66336,
          "time": 120.5224925,
          "velocity": 0.8976377952755905
        },
        {
          "duration": 0.3124980208333312,
          "durationTicks": 172,
          "midi": 69,
          "name": "A4",
          "ticks": 66336,
          "time": 120.5224925,
          "velocity": 0.8976377952755905
        },
        {
          "duration": 0.27979473958332335,
          "durationTicks": 154,
          "midi": 57,
          "name": "A3",
          "ticks": 66344,
          "time": 120.53702729166667,
          "velocity": 0.8976377952755905
        },
        {
          "duration": 0.31613171874998613,
          "durationTicks": 174,
          "midi": 62,
          "name": "D4",
          "ticks": 66350,
          "time": 120.54792838541668,
          "velocity": 0.8503937007874016
        },
        {
          "duration": 0.16715010416666587,
          "durationTicks": 92,
          "midi": 57,
          "name": "A3",
          "ticks": 66528,
          "time": 120.8713275,
          "velocity": 0.8582677165354331
        },
        {
          "duration": 0.16715010416666587,
          "durationTicks": 92,
          "midi": 62,
          "name": "D4",
          "ticks": 66528,
          "time": 120.8713275,
          "velocity": 0.7559055118110236
        },
        {
          "duration": 0.12717942708333396,
          "durationTicks": 70,
          "midi": 57,
          "name": "A3",
          "ticks": 66624,
          "time": 121.045745,
          "velocity": 0.937007874015748
        },
        {
          "duration": 0.13808052083334132,
          "durationTicks": 76,
          "midi": 69,
          "name": "A4",
          "ticks": 66634,
          "time": 121.06391348958333,
          "velocity": 0.937007874015748
        },
        {
          "duration": 0.14534791666667957,
          "durationTicks": 80,
          "midi": 62,
          "name": "D4",
          "ticks": 66636,
          "time": 121.0675471875,
          "velocity": 0.8740157480314961
        },
        {
          "duration": 0.14534791666667957,
          "durationTicks": 80,
          "midi": 66,
          "name": "F#4",
          "ticks": 66636,
          "time": 121.0675471875,
          "velocity": 0.937007874015748
        },
        {
          "duration": 0.16715010416668008,
          "durationTicks": 92,
          "midi": 62,
          "name": "D4",
          "ticks": 66720,
          "time": 121.2201625,
          "velocity": 0.7244094488188977
        },
        {
          "duration": 0.16715010416668008,
          "durationTicks": 92,
          "midi": 66,
          "name": "F#4",
          "ticks": 66720,
          "time": 121.2201625,
          "velocity": 0.8582677165354331
        },
        {
          "duration": 0.16715010416668008,
          "durationTicks": 92,
          "midi": 69,
          "name": "A4",
          "ticks": 66720,
          "time": 121.2201625,
          "velocity": 0.7559055118110236
        },
        {
          "duration": 0.28342843749999247,
          "durationTicks": 156,
          "midi": 62,
          "name": "D4",
          "ticks": 66816,
          "time": 121.39458,
          "velocity": 0.7244094488188977
        },
        {
          "duration": 0.28342843749999247,
          "durationTicks": 156,
          "midi": 66,
          "name": "F#4",
          "ticks": 66816,
          "time": 121.39458,
          "velocity": 0.8582677165354331
        },
        {
          "duration": 0.4433111458333343,
          "durationTicks": 244,
          "midi": 57,
          "name": "A3",
          "ticks": 66822,
          "time": 121.40548109375,
          "velocity": 0.905511811023622
        },
        {
          "duration": 0.13808052083332711,
          "durationTicks": 76,
          "midi": 62,
          "name": "D4",
          "ticks": 67004,
          "time": 121.73614760416667,
          "velocity": 0.905511811023622
        },
        {
          "duration": 0.1526153125000036,
          "durationTicks": 84,
          "midi": 66,
          "name": "F#4",
          "ticks": 67016,
          "time": 121.75794979166668,
          "velocity": 0.9763779527559056
        },
        {
          "duration": 0.1526153125000036,
          "durationTicks": 84,
          "midi": 69,
          "name": "A4",
          "ticks": 67016,
          "time": 121.75794979166668,
          "velocity": 0.9763779527559056
        },
        {
          "duration": 0.34156760416667,
          "durationTicks": 188,
          "midi": 57,
          "name": "A3",
          "ticks": 67104,
          "time": 121.9178325,
          "velocity": 0.7637795275590551
        },
        {
          "duration": 0.34156760416667,
          "durationTicks": 188,
          "midi": 62,
          "name": "D4",
          "ticks": 67104,
          "time": 121.9178325,
          "velocity": 0.8267716535433071
        },
        {
          "duration": 0.34156760416667,
          "durationTicks": 188,
          "midi": 66,
          "name": "F#4",
          "ticks": 67104,
          "time": 121.9178325,
          "velocity": 0.8976377952755905
        },
        {
          "duration": 0.34156760416667,
          "durationTicks": 188,
          "midi": 69,
          "name": "A4",
          "ticks": 67104,
          "time": 121.9178325,
          "velocity": 0.8976377952755905
        },
        {
          "duration": 0.170783802083335,
          "durationTicks": 94,
          "midi": 57,
          "name": "A3",
          "ticks": 67296,
          "time": 122.2666675,
          "velocity": 0.8582677165354331
        },
        {
          "duration": 0.170783802083335,
          "durationTicks": 94,
          "midi": 62,
          "name": "D4",
          "ticks": 67296,
          "time": 122.2666675,
          "velocity": 0.8110236220472441
        },
        {
          "duration": 0.27979473958333756,
          "durationTicks": 154,
          "midi": 57,
          "name": "A3",
          "ticks": 67394,
          "time": 122.44471869791667,
          "velocity": 0.937007874015748
        },
        {
          "duration": 0.2688936458333302,
          "durationTicks": 148,
          "midi": 62,
          "name": "D4",
          "ticks": 67400,
          "time": 122.45561979166668,
          "velocity": 0.889763779527559
        },
        {
          "duration": 0.3233991145833386,
          "durationTicks": 178,
          "midi": 66,
          "name": "F#4",
          "ticks": 67402,
          "time": 122.45925348958333,
          "velocity": 0.937007874015748
        },
        {
          "duration": 0.3233991145833386,
          "durationTicks": 178,
          "midi": 69,
          "name": "A4",
          "ticks": 67402,
          "time": 122.45925348958333,
          "velocity": 0.937007874015748
        },
        {
          "duration": 0.48691552083333534,
          "durationTicks": 268,
          "midi": 55,
          "name": "G3",
          "ticks": 67584,
          "time": 122.78992,
          "velocity": 0.952755905511811
        },
        {
          "duration": 0.25435885416668214,
          "durationTicks": 140,
          "midi": 58,
          "name": "A#3",
          "ticks": 67584,
          "time": 122.78992,
          "velocity": 0.7007874015748031
        },
        {
          "duration": 0.1526153125000036,
          "durationTicks": 84,
          "midi": 58,
          "name": "A#3",
          "ticks": 67768,
          "time": 123.12422020833333,
          "velocity": 0.9133858267716536
        },
        {
          "duration": 0.13808052083334132,
          "durationTicks": 76,
          "midi": 67,
          "name": "G4",
          "ticks": 67774,
          "time": 123.13512130208333,
          "velocity": 0.9763779527559056
        },
        {
          "duration": 0.16715010416666587,
          "durationTicks": 92,
          "midi": 62,
          "name": "D4",
          "ticks": 67776,
          "time": 123.138755,
          "velocity": 0.9763779527559056
        },
        {
          "duration": 0.3306665104166626,
          "durationTicks": 182,
          "midi": 58,
          "name": "A#3",
          "ticks": 67872,
          "time": 123.31317250000001,
          "velocity": 0.6456692913385826
        },
        {
          "duration": 0.31249802083334544,
          "durationTicks": 172,
          "midi": 62,
          "name": "D4",
          "ticks": 67882,
          "time": 123.33134098958332,
          "velocity": 0.8188976377952756
        },
        {
          "duration": 0.31249802083334544,
          "durationTicks": 172,
          "midi": 67,
          "name": "G4",
          "ticks": 67882,
          "time": 123.33134098958332,
          "velocity": 0.8188976377952756
        },
        {
          "duration": 0.16715010416666587,
          "durationTicks": 92,
          "midi": 55,
          "name": "G3",
          "ticks": 68058,
          "time": 123.65110640625001,
          "velocity": 0.8582677165354331
        },
        {
          "duration": 0.16715010416666587,
          "durationTicks": 92,
          "midi": 58,
          "name": "A#3",
          "ticks": 68058,
          "time": 123.65110640625001,
          "velocity": 0.7559055118110236
        },
        {
          "duration": 0.12717942708333396,
          "durationTicks": 70,
          "midi": 55,
          "name": "G3",
          "ticks": 68154,
          "time": 123.82552390625,
          "velocity": 0.9763779527559056
        },
        {
          "duration": 0.13808052083334132,
          "durationTicks": 76,
          "midi": 67,
          "name": "G4",
          "ticks": 68164,
          "time": 123.84369239583333,
          "velocity": 0.9763779527559056
        },
        {
          "duration": 0.14534791666667957,
          "durationTicks": 80,
          "midi": 58,
          "name": "A#3",
          "ticks": 68166,
          "time": 123.84732609375,
          "velocity": 0.9133858267716536
        },
        {
          "duration": 0.14534791666667957,
          "durationTicks": 80,
          "midi": 62,
          "name": "D4",
          "ticks": 68166,
          "time": 123.84732609375,
          "velocity": 0.9763779527559056
        },
        {
          "duration": 0.16715010416668008,
          "durationTicks": 92,
          "midi": 58,
          "name": "A#3",
          "ticks": 68250,
          "time": 123.99994140625,
          "velocity": 0.7637795275590551
        },
        {
          "duration": 0.16715010416668008,
          "durationTicks": 92,
          "midi": 62,
          "name": "D4",
          "ticks": 68250,
          "time": 123.99994140625,
          "velocity": 0.8976377952755905
        },
        {
          "duration": 0.16715010416668008,
          "durationTicks": 92,
          "midi": 67,
          "name": "G4",
          "ticks": 68250,
          "time": 123.99994140625,
          "velocity": 0.7952755905511811
        },
        {
          "duration": 0.28342843749999247,
          "durationTicks": 156,
          "midi": 58,
          "name": "A#3",
          "ticks": 68346,
          "time": 124.17435890625,
          "velocity": 0.7244094488188977
        },
        {
          "duration": 0.28342843749999247,
          "durationTicks": 156,
          "midi": 62,
          "name": "D4",
          "ticks": 68346,
          "time": 124.17435890625,
          "velocity": 0.8582677165354331
        },
        {
          "duration": 0.4433111458333343,
          "durationTicks": 244,
          "midi": 55,
          "name": "G3",
          "ticks": 68352,
          "time": 124.18526,
          "velocity": 0.905511811023622
        },
        {
          "duration": 0.13808052083332711,
          "durationTicks": 76,
          "midi": 58,
          "name": "A#3",
          "ticks": 68534,
          "time": 124.51592651041668,
          "velocity": 0.905511811023622
        },
        {
          "duration": 0.1526153125000036,
          "durationTicks": 84,
          "midi": 62,
          "name": "D4",
          "ticks": 68546,
          "time": 124.53772869791668,
          "velocity": 0.9763779527559056
        },
        {
          "duration": 0.1526153125000036,
          "durationTicks": 84,
          "midi": 67,
          "name": "G4",
          "ticks": 68546,
          "time": 124.53772869791668,
          "velocity": 0.9763779527559056
        },
        {
          "duration": 0.34156760416667,
          "durationTicks": 188,
          "midi": 58,
          "name": "A#3",
          "ticks": 68634,
          "time": 124.69761140625,
          "velocity": 0.7480314960629921
        },
        {
          "duration": 0.34156760416667,
          "durationTicks": 188,
          "midi": 62,
          "name": "D4",
          "ticks": 68634,
          "time": 124.69761140625,
          "velocity": 0.8188976377952756
        },
        {
          "duration": 0.34156760416667,
          "durationTicks": 188,
          "midi": 67,
          "name": "G4",
          "ticks": 68634,
          "time": 124.69761140625,
          "velocity": 0.8188976377952756
        },
        {
          "duration": 0.170783802083335,
          "durationTicks": 94,
          "midi": 55,
          "name": "G3",
          "ticks": 68826,
          "time": 125.04644640625,
          "velocity": 0.8582677165354331
        },
        {
          "duration": 0.170783802083335,
          "durationTicks": 94,
          "midi": 58,
          "name": "A#3",
          "ticks": 68826,
          "time": 125.04644640625,
          "velocity": 0.8110236220472441
        },
        {
          "duration": 0.2906958333333307,
          "durationTicks": 160,
          "midi": 55,
          "name": "G3",
          "ticks": 68924,
          "time": 125.22449760416667,
          "velocity": 0.937007874015748
        },
        {
          "duration": 0.27979473958332335,
          "durationTicks": 154,
          "midi": 58,
          "name": "A#3",
          "ticks": 68930,
          "time": 125.23539869791668,
          "velocity": 0.889763779527559
        },
        {
          "duration": 0.33430020833334595,
          "durationTicks": 184,
          "midi": 62,
          "name": "D4",
          "ticks": 68932,
          "time": 125.23903239583333,
          "velocity": 0.937007874015748
        },
        {
          "duration": 0.33430020833334595,
          "durationTicks": 184,
          "midi": 67,
          "name": "G4",
          "ticks": 68932,
          "time": 125.23903239583333,
          "velocity": 0.937007874015748
        },
        {
          "duration": 0.2543588541666679,
          "durationTicks": 140,
          "midi": 58,
          "name": "A#3",
          "ticks": 69120,
          "time": 125.5806,
          "velocity": 0.7007874015748031
        },
        {
          "duration": 0.48691552083333534,
          "durationTicks": 268,
          "midi": 55,
          "name": "G3",
          "ticks": 69126,
          "time": 125.59150109375,
          "velocity": 0.952755905511811
        },
        {
          "duration": 0.1526153125000036,
          "durationTicks": 84,
          "midi": 58,
          "name": "A#3",
          "ticks": 69310,
          "time": 125.92580130208333,
          "velocity": 0.9133858267716536
        },
        {
          "duration": 0.13808052083335554,
          "durationTicks": 76,
          "midi": 67,
          "name": "G4",
          "ticks": 69316,
          "time": 125.93670239583332,
          "velocity": 0.9763779527559056
        },
        {
          "duration": 0.15624901041667272,
          "durationTicks": 86,
          "midi": 62,
          "name": "D4",
          "ticks": 69318,
          "time": 125.94033609375,
          "velocity": 0.9763779527559056
        },
        {
          "duration": 0.3124980208333312,
          "durationTicks": 172,
          "midi": 62,
          "name": "D4",
          "ticks": 69408,
          "time": 126.1038525,
          "velocity": 0.8976377952755905
        },
        {
          "duration": 0.3124980208333312,
          "durationTicks": 172,
          "midi": 67,
          "name": "G4",
          "ticks": 69408,
          "time": 126.1038525,
          "velocity": 0.8976377952755905
        },
        {
          "duration": 0.27979473958332335,
          "durationTicks": 154,
          "midi": 55,
          "name": "G3",
          "ticks": 69416,
          "time": 126.11838729166668,
          "velocity": 0.8976377952755905
        },
        {
          "duration": 0.31613171875000035,
          "durationTicks": 174,
          "midi": 58,
          "name": "A#3",
          "ticks": 69422,
          "time": 126.12928838541667,
          "velocity": 0.8503937007874016
        },
        {
          "duration": 0.16715010416668008,
          "durationTicks": 92,
          "midi": 55,
          "name": "G3",
          "ticks": 69600,
          "time": 126.4526875,
          "velocity": 0.8582677165354331
        },
        {
          "duration": 0.16715010416668008,
          "durationTicks": 92,
          "midi": 58,
          "name": "A#3",
          "ticks": 69600,
          "time": 126.4526875,
          "velocity": 0.7559055118110236
        },
        {
          "duration": 0.12717942708333396,
          "durationTicks": 70,
          "midi": 55,
          "name": "G3",
          "ticks": 69696,
          "time": 126.627105,
          "velocity": 0.937007874015748
        },
        {
          "duration": 0.13808052083334132,
          "durationTicks": 76,
          "midi": 67,
          "name": "G4",
          "ticks": 69706,
          "time": 126.64527348958333,
          "velocity": 0.937007874015748
        },
        {
          "duration": 0.14534791666667957,
          "durationTicks": 80,
          "midi": 58,
          "name": "A#3",
          "ticks": 69708,
          "time": 126.6489071875,
          "velocity": 0.8740157480314961
        },
        {
          "duration": 0.14534791666667957,
          "durationTicks": 80,
          "midi": 62,
          "name": "D4",
          "ticks": 69708,
          "time": 126.6489071875,
          "velocity": 0.937007874015748
        },
        {
          "duration": 0.16715010416666587,
          "durationTicks": 92,
          "midi": 58,
          "name": "A#3",
          "ticks": 69792,
          "time": 126.8015225,
          "velocity": 0.7244094488188977
        },
        {
          "duration": 0.16715010416666587,
          "durationTicks": 92,
          "midi": 62,
          "name": "D4",
          "ticks": 69792,
          "time": 126.8015225,
          "velocity": 0.8582677165354331
        },
        {
          "duration": 0.16715010416666587,
          "durationTicks": 92,
          "midi": 67,
          "name": "G4",
          "ticks": 69792,
          "time": 126.8015225,
          "velocity": 0.7559055118110236
        },
        {
          "duration": 0.28342843749999247,
          "durationTicks": 156,
          "midi": 58,
          "name": "A#3",
          "ticks": 69888,
          "time": 126.97594000000001,
          "velocity": 0.7244094488188977
        },
        {
          "duration": 0.28342843749999247,
          "durationTicks": 156,
          "midi": 62,
          "name": "D4",
          "ticks": 69888,
          "time": 126.97594000000001,
          "velocity": 0.8582677165354331
        },
        {
          "duration": 0.4433111458333343,
          "durationTicks": 244,
          "midi": 55,
          "name": "G3",
          "ticks": 69894,
          "time": 126.98684109375,
          "velocity": 0.905511811023622
        },
        {
          "duration": 0.13808052083332711,
          "durationTicks": 76,
          "midi": 58,
          "name": "A#3",
          "ticks": 70076,
          "time": 127.31750760416668,
          "velocity": 0.905511811023622
        },
        {
          "duration": 0.1526153125000036,
          "durationTicks": 84,
          "midi": 62,
          "name": "D4",
          "ticks": 70088,
          "time": 127.33930979166668,
          "velocity": 0.9763779527559056
        },
        {
          "duration": 0.1526153125000036,
          "durationTicks": 84,
          "midi": 67,
          "name": "G4",
          "ticks": 70088,
          "time": 127.33930979166668,
          "velocity": 0.9763779527559056
        },
        {
          "duration": 0.34156760416667,
          "durationTicks": 188,
          "midi": 55,
          "name": "G3",
          "ticks": 70176,
          "time": 127.4991925,
          "velocity": 0.7637795275590551
        },
        {
          "duration": 0.34156760416667,
          "durationTicks": 188,
          "midi": 58,
          "name": "A#3",
          "ticks": 70176,
          "time": 127.4991925,
          "velocity": 0.8267716535433071
        },
        {
          "duration": 0.34156760416667,
          "durationTicks": 188,
          "midi": 62,
          "name": "D4",
          "ticks": 70176,
          "time": 127.4991925,
          "velocity": 0.8976377952755905
        },
        {
          "duration": 0.34156760416667,
          "durationTicks": 188,
          "midi": 67,
          "name": "G4",
          "ticks": 70176,
          "time": 127.4991925,
          "velocity": 0.8976377952755905
        },
        {
          "duration": 0.17078380208332078,
          "durationTicks": 94,
          "midi": 55,
          "name": "G3",
          "ticks": 70368,
          "time": 127.8480275,
          "velocity": 0.8582677165354331
        },
        {
          "duration": 0.17078380208332078,
          "durationTicks": 94,
          "midi": 58,
          "name": "A#3",
          "ticks": 70368,
          "time": 127.8480275,
          "velocity": 0.8110236220472441
        },
        {
          "duration": 0.27979473958330914,
          "durationTicks": 154,
          "midi": 55,
          "name": "G3",
          "ticks": 70466,
          "time": 128.0260786979167,
          "velocity": 0.937007874015748
        },
        {
          "duration": 0.268893645833316,
          "durationTicks": 148,
          "midi": 58,
          "name": "A#3",
          "ticks": 70472,
          "time": 128.03697979166668,
          "velocity": 0.889763779527559
        },
        {
          "duration": 0.3233991145833386,
          "durationTicks": 178,
          "midi": 62,
          "name": "D4",
          "ticks": 70474,
          "time": 128.04061348958334,
          "velocity": 0.937007874015748
        },
        {
          "duration": 0.3233991145833386,
          "durationTicks": 178,
          "midi": 67,
          "name": "G4",
          "ticks": 70474,
          "time": 128.04061348958334,
          "velocity": 0.937007874015748
        },
        {
          "duration": 0.2543588541666679,
          "durationTicks": 140,
          "midi": 57,
          "name": "A3",
          "ticks": 70656,
          "time": 128.37128,
          "velocity": 0.7007874015748031
        },
        {
          "duration": 0.4869155208333211,
          "durationTicks": 268,
          "midi": 53,
          "name": "F3",
          "ticks": 70662,
          "time": 128.38218109375,
          "velocity": 0.952755905511811
        },
        {
          "duration": 0.1526153125000178,
          "durationTicks": 84,
          "midi": 57,
          "name": "A3",
          "ticks": 70848,
          "time": 128.720115,
          "velocity": 0.9133858267716536
        },
        {
          "duration": 0.13808052083334132,
          "durationTicks": 76,
          "midi": 65,
          "name": "F4",
          "ticks": 70852,
          "time": 128.72738239583333,
          "velocity": 0.9763779527559056
        },
        {
          "duration": 0.15624901041667272,
          "durationTicks": 86,
          "midi": 60,
          "name": "C4",
          "ticks": 70854,
          "time": 128.73101609375001,
          "velocity": 0.9763779527559056
        },
        {
          "duration": 0.2652599479166895,
          "durationTicks": 146,
          "midi": 57,
          "name": "A3",
          "ticks": 70944,
          "time": 128.8945325,
          "velocity": 0.8503937007874016
        },
        {
          "duration": 0.31249802083334544,
          "durationTicks": 172,
          "midi": 60,
          "name": "C4",
          "ticks": 70944,
          "time": 128.8945325,
          "velocity": 0.8976377952755905
        },
        {
          "duration": 0.31249802083334544,
          "durationTicks": 172,
          "midi": 65,
          "name": "F4",
          "ticks": 70944,
          "time": 128.8945325,
          "velocity": 0.8976377952755905
        },
        {
          "duration": 0.3270328124999935,
          "durationTicks": 180,
          "midi": 53,
          "name": "F3",
          "ticks": 70952,
          "time": 128.90906729166667,
          "velocity": 0.8976377952755905
        },
        {
          "duration": 0.16715010416666587,
          "durationTicks": 92,
          "midi": 53,
          "name": "F3",
          "ticks": 71136,
          "time": 129.2433675,
          "velocity": 0.8582677165354331
        },
        {
          "duration": 0.16715010416666587,
          "durationTicks": 92,
          "midi": 57,
          "name": "A3",
          "ticks": 71136,
          "time": 129.2433675,
          "velocity": 0.7559055118110236
        },
        {
          "duration": 0.12717942708331975,
          "durationTicks": 70,
          "midi": 53,
          "name": "F3",
          "ticks": 71232,
          "time": 129.417785,
          "velocity": 0.937007874015748
        },
        {
          "duration": 0.11991203124998151,
          "durationTicks": 66,
          "midi": 57,
          "name": "A3",
          "ticks": 71232,
          "time": 129.417785,
          "velocity": 0.8740157480314961
        },
        {
          "duration": 0.13808052083334132,
          "durationTicks": 76,
          "midi": 65,
          "name": "F4",
          "ticks": 71242,
          "time": 129.43595348958334,
          "velocity": 0.937007874015748
        },
        {
          "duration": 0.14534791666667957,
          "durationTicks": 80,
          "midi": 60,
          "name": "C4",
          "ticks": 71244,
          "time": 129.4395871875,
          "velocity": 0.937007874015748
        },
        {
          "duration": 0.16715010416666587,
          "durationTicks": 92,
          "midi": 57,
          "name": "A3",
          "ticks": 71328,
          "time": 129.5922025,
          "velocity": 0.7244094488188977
        },
        {
          "duration": 0.16715010416666587,
          "durationTicks": 92,
          "midi": 60,
          "name": "C4",
          "ticks": 71328,
          "time": 129.5922025,
          "velocity": 0.8582677165354331
        },
        {
          "duration": 0.16715010416666587,
          "durationTicks": 92,
          "midi": 65,
          "name": "F4",
          "ticks": 71328,
          "time": 129.5922025,
          "velocity": 0.7559055118110236
        },
        {
          "duration": 0.2834284375000209,
          "durationTicks": 156,
          "midi": 57,
          "name": "A3",
          "ticks": 71424,
          "time": 129.76662,
          "velocity": 0.7244094488188977
        },
        {
          "duration": 0.2834284375000209,
          "durationTicks": 156,
          "midi": 60,
          "name": "C4",
          "ticks": 71424,
          "time": 129.76662,
          "velocity": 0.8582677165354331
        },
        {
          "duration": 0.4433111458333201,
          "durationTicks": 244,
          "midi": 54,
          "name": "F#3",
          "ticks": 71430,
          "time": 129.77752109375,
          "velocity": 0.905511811023622
        },
        {
          "duration": 0.13808052083334132,
          "durationTicks": 76,
          "midi": 57,
          "name": "A3",
          "ticks": 71616,
          "time": 130.115455,
          "velocity": 0.905511811023622
        },
        {
          "duration": 0.1526153124999894,
          "durationTicks": 84,
          "midi": 60,
          "name": "C4",
          "ticks": 71624,
          "time": 130.12998979166667,
          "velocity": 0.9763779527559056
        },
        {
          "duration": 0.1526153124999894,
          "durationTicks": 84,
          "midi": 66,
          "name": "F#4",
          "ticks": 71624,
          "time": 130.12998979166667,
          "velocity": 0.9763779527559056
        },
        {
          "duration": 0.34156760416667,
          "durationTicks": 188,
          "midi": 54,
          "name": "F#3",
          "ticks": 71712,
          "time": 130.2898725,
          "velocity": 0.7637795275590551
        },
        {
          "duration": 0.34156760416667,
          "durationTicks": 188,
          "midi": 57,
          "name": "A3",
          "ticks": 71712,
          "time": 130.2898725,
          "velocity": 0.8267716535433071
        },
        {
          "duration": 0.34156760416667,
          "durationTicks": 188,
          "midi": 60,
          "name": "C4",
          "ticks": 71712,
          "time": 130.2898725,
          "velocity": 0.8976377952755905
        },
        {
          "duration": 0.34156760416667,
          "durationTicks": 188,
          "midi": 66,
          "name": "F#4",
          "ticks": 71712,
          "time": 130.2898725,
          "velocity": 0.8976377952755905
        },
        {
          "duration": 0.16715010416666587,
          "durationTicks": 92,
          "midi": 54,
          "name": "F#3",
          "ticks": 71904,
          "time": 130.6387075,
          "velocity": 0.8582677165354331
        },
        {
          "duration": 0.16715010416666587,
          "durationTicks": 92,
          "midi": 57,
          "name": "A3",
          "ticks": 71904,
          "time": 130.6387075,
          "velocity": 0.8110236220472441
        },
        {
          "duration": 0.2652599479166611,
          "durationTicks": 146,
          "midi": 57,
          "name": "A3",
          "ticks": 72000,
          "time": 130.813125,
          "velocity": 0.889763779527559
        },
        {
          "duration": 0.27979473958333756,
          "durationTicks": 154,
          "midi": 54,
          "name": "F#3",
          "ticks": 72002,
          "time": 130.81675869791667,
          "velocity": 0.937007874015748
        },
        {
          "duration": 0.323399114583367,
          "durationTicks": 178,
          "midi": 60,
          "name": "C4",
          "ticks": 72010,
          "time": 130.83129348958332,
          "velocity": 0.937007874015748
        },
        {
          "duration": 0.323399114583367,
          "durationTicks": 178,
          "midi": 66,
          "name": "F#4",
          "ticks": 72010,
          "time": 130.83129348958332,
          "velocity": 0.937007874015748
        },
        {
          "duration": 0.25435885416669635,
          "durationTicks": 140,
          "midi": 58,
          "name": "A#3",
          "ticks": 72192,
          "time": 131.16196,
          "velocity": 0.7007874015748031
        },
        {
          "duration": 0.4869155208333211,
          "durationTicks": 268,
          "midi": 55,
          "name": "G3",
          "ticks": 72198,
          "time": 131.17286109375002,
          "velocity": 0.952755905511811
        },
        {
          "duration": 0.1526153125000178,
          "durationTicks": 84,
          "midi": 58,
          "name": "A#3",
          "ticks": 72382,
          "time": 131.50716130208332,
          "velocity": 0.9133858267716536
        },
        {
          "duration": 0.13808052083334132,
          "durationTicks": 76,
          "midi": 67,
          "name": "G4",
          "ticks": 72388,
          "time": 131.51806239583334,
          "velocity": 0.9763779527559056
        },
        {
          "duration": 0.15624901041667272,
          "durationTicks": 86,
          "midi": 62,
          "name": "D4",
          "ticks": 72390,
          "time": 131.52169609375,
          "velocity": 0.9763779527559056
        },
        {
          "duration": 0.312498020833317,
          "durationTicks": 172,
          "midi": 62,
          "name": "D4",
          "ticks": 72480,
          "time": 131.6852125,
          "velocity": 0.8976377952755905
        },
        {
          "duration": 0.312498020833317,
          "durationTicks": 172,
          "midi": 67,
          "name": "G4",
          "ticks": 72480,
          "time": 131.6852125,
          "velocity": 0.8976377952755905
        },
        {
          "duration": 0.27979473958330914,
          "durationTicks": 154,
          "midi": 55,
          "name": "G3",
          "ticks": 72488,
          "time": 131.69974729166668,
          "velocity": 0.8976377952755905
        },
        {
          "duration": 0.31613171875000035,
          "durationTicks": 174,
          "midi": 58,
          "name": "A#3",
          "ticks": 72494,
          "time": 131.71064838541668,
          "velocity": 0.8503937007874016
        },
        {
          "duration": 0.16715010416666587,
          "durationTicks": 92,
          "midi": 55,
          "name": "G3",
          "ticks": 72672,
          "time": 132.0340475,
          "velocity": 0.8582677165354331
        },
        {
          "duration": 0.16715010416666587,
          "durationTicks": 92,
          "midi": 58,
          "name": "A#3",
          "ticks": 72672,
          "time": 132.0340475,
          "velocity": 0.7559055118110236
        },
        {
          "duration": 0.12717942708334817,
          "durationTicks": 70,
          "midi": 55,
          "name": "G3",
          "ticks": 72768,
          "time": 132.208465,
          "velocity": 0.937007874015748
        },
        {
          "duration": 0.13808052083334132,
          "durationTicks": 76,
          "midi": 67,
          "name": "G4",
          "ticks": 72778,
          "time": 132.22663348958332,
          "velocity": 0.937007874015748
        },
        {
          "duration": 0.14534791666667957,
          "durationTicks": 80,
          "midi": 58,
          "name": "A#3",
          "ticks": 72780,
          "time": 132.2302671875,
          "velocity": 0.8740157480314961
        },
        {
          "duration": 0.14534791666667957,
          "durationTicks": 80,
          "midi": 62,
          "name": "D4",
          "ticks": 72780,
          "time": 132.2302671875,
          "velocity": 0.937007874015748
        },
        {
          "duration": 0.1671501041666943,
          "durationTicks": 92,
          "midi": 58,
          "name": "A#3",
          "ticks": 72864,
          "time": 132.3828825,
          "velocity": 0.7244094488188977
        },
        {
          "duration": 0.1671501041666943,
          "durationTicks": 92,
          "midi": 62,
          "name": "D4",
          "ticks": 72864,
          "time": 132.3828825,
          "velocity": 0.8582677165354331
        },
        {
          "duration": 0.1671501041666943,
          "durationTicks": 92,
          "midi": 67,
          "name": "G4",
          "ticks": 72864,
          "time": 132.3828825,
          "velocity": 0.7559055118110236
        },
        {
          "duration": 0.28342843749999247,
          "durationTicks": 156,
          "midi": 58,
          "name": "A#3",
          "ticks": 72960,
          "time": 132.5573,
          "velocity": 0.7244094488188977
        },
        {
          "duration": 0.28342843749999247,
          "durationTicks": 156,
          "midi": 62,
          "name": "D4",
          "ticks": 72960,
          "time": 132.5573,
          "velocity": 0.8582677165354331
        },
        {
          "duration": 0.4433111458333485,
          "durationTicks": 244,
          "midi": 55,
          "name": "G3",
          "ticks": 72966,
          "time": 132.56820109375,
          "velocity": 0.905511811023622
        },
        {
          "duration": 0.13808052083334132,
          "durationTicks": 76,
          "midi": 58,
          "name": "A#3",
          "ticks": 73148,
          "time": 132.89886760416667,
          "velocity": 0.905511811023622
        },
        {
          "duration": 0.1526153124999894,
          "durationTicks": 84,
          "midi": 62,
          "name": "D4",
          "ticks": 73160,
          "time": 132.92066979166668,
          "velocity": 0.9763779527559056
        },
        {
          "duration": 0.1526153124999894,
          "durationTicks": 84,
          "midi": 67,
          "name": "G4",
          "ticks": 73160,
          "time": 132.92066979166668,
          "velocity": 0.9763779527559056
        },
        {
          "duration": 0.34156760416667,
          "durationTicks": 188,
          "midi": 55,
          "name": "G3",
          "ticks": 73248,
          "time": 133.0805525,
          "velocity": 0.7637795275590551
        },
        {
          "duration": 0.34156760416667,
          "durationTicks": 188,
          "midi": 58,
          "name": "A#3",
          "ticks": 73248,
          "time": 133.0805525,
          "velocity": 0.8267716535433071
        },
        {
          "duration": 0.34156760416667,
          "durationTicks": 188,
          "midi": 62,
          "name": "D4",
          "ticks": 73248,
          "time": 133.0805525,
          "velocity": 0.8976377952755905
        },
        {
          "duration": 0.34156760416667,
          "durationTicks": 188,
          "midi": 67,
          "name": "G4",
          "ticks": 73248,
          "time": 133.0805525,
          "velocity": 0.8976377952755905
        },
        {
          "duration": 0.1707838020833492,
          "durationTicks": 94,
          "midi": 55,
          "name": "G3",
          "ticks": 73440,
          "time": 133.4293875,
          "velocity": 0.8582677165354331
        },
        {
          "duration": 0.1707838020833492,
          "durationTicks": 94,
          "midi": 58,
          "name": "A#3",
          "ticks": 73440,
          "time": 133.4293875,
          "velocity": 0.8110236220472441
        },
        {
          "duration": 0.27979473958333756,
          "durationTicks": 154,
          "midi": 55,
          "name": "G3",
          "ticks": 73538,
          "time": 133.60743869791668,
          "velocity": 0.937007874015748
        },
        {
          "duration": 0.2688936458333444,
          "durationTicks": 148,
          "midi": 58,
          "name": "A#3",
          "ticks": 73544,
          "time": 133.61833979166667,
          "velocity": 0.889763779527559
        },
        {
          "duration": 0.3233991145833386,
          "durationTicks": 178,
          "midi": 62,
          "name": "D4",
          "ticks": 73546,
          "time": 133.62197348958333,
          "velocity": 0.937007874015748
        },
        {
          "duration": 0.3233991145833386,
          "durationTicks": 178,
          "midi": 67,
          "name": "G4",
          "ticks": 73546,
          "time": 133.62197348958333,
          "velocity": 0.937007874015748
        },
        {
          "duration": 0.4869155208333211,
          "durationTicks": 268,
          "midi": 53,
          "name": "F3",
          "ticks": 73728,
          "time": 133.95264,
          "velocity": 0.952755905511811
        },
        {
          "duration": 0.2543588541666679,
          "durationTicks": 140,
          "midi": 57,
          "name": "A3",
          "ticks": 73728,
          "time": 133.95264,
          "velocity": 0.7007874015748031
        },
        {
          "duration": 0.1526153124999894,
          "durationTicks": 84,
          "midi": 57,
          "name": "A3",
          "ticks": 73912,
          "time": 134.28694020833333,
          "velocity": 0.9133858267716536
        },
        {
          "duration": 0.13808052083334132,
          "durationTicks": 76,
          "midi": 65,
          "name": "F4",
          "ticks": 73918,
          "time": 134.29784130208333,
          "velocity": 0.9763779527559056
        },
        {
          "duration": 0.16715010416666587,
          "durationTicks": 92,
          "midi": 60,
          "name": "C4",
          "ticks": 73920,
          "time": 134.301475,
          "velocity": 0.9763779527559056
        },
        {
          "duration": 0.3306665104166484,
          "durationTicks": 182,
          "midi": 57,
          "name": "A3",
          "ticks": 74016,
          "time": 134.47589250000001,
          "velocity": 0.6456692913385826
        },
        {
          "duration": 0.31249802083334544,
          "durationTicks": 172,
          "midi": 60,
          "name": "C4",
          "ticks": 74026,
          "time": 134.49406098958332,
          "velocity": 0.8188976377952756
        },
        {
          "duration": 0.31249802083334544,
          "durationTicks": 172,
          "midi": 65,
          "name": "F4",
          "ticks": 74026,
          "time": 134.49406098958332,
          "velocity": 0.8188976377952756
        },
        {
          "duration": 0.16715010416666587,
          "durationTicks": 92,
          "midi": 53,
          "name": "F3",
          "ticks": 74202,
          "time": 134.81382640625,
          "velocity": 0.8582677165354331
        },
        {
          "duration": 0.16715010416666587,
          "durationTicks": 92,
          "midi": 57,
          "name": "A3",
          "ticks": 74202,
          "time": 134.81382640625,
          "velocity": 0.7559055118110236
        },
        {
          "duration": 0.12717942708331975,
          "durationTicks": 70,
          "midi": 53,
          "name": "F3",
          "ticks": 74298,
          "time": 134.98824390625,
          "velocity": 0.9763779527559056
        },
        {
          "duration": 0.13808052083334132,
          "durationTicks": 76,
          "midi": 65,
          "name": "F4",
          "ticks": 74308,
          "time": 135.00641239583334,
          "velocity": 0.9763779527559056
        },
        {
          "duration": 0.14534791666667957,
          "durationTicks": 80,
          "midi": 57,
          "name": "A3",
          "ticks": 74310,
          "time": 135.01004609375,
          "velocity": 0.9133858267716536
        },
        {
          "duration": 0.14534791666667957,
          "durationTicks": 80,
          "midi": 60,
          "name": "C4",
          "ticks": 74310,
          "time": 135.01004609375,
          "velocity": 0.9763779527559056
        },
        {
          "duration": 0.16715010416666587,
          "durationTicks": 92,
          "midi": 57,
          "name": "A3",
          "ticks": 74394,
          "time": 135.16266140625,
          "velocity": 0.7637795275590551
        },
        {
          "duration": 0.16715010416666587,
          "durationTicks": 92,
          "midi": 60,
          "name": "C4",
          "ticks": 74394,
          "time": 135.16266140625,
          "velocity": 0.8976377952755905
        },
        {
          "duration": 0.16715010416666587,
          "durationTicks": 92,
          "midi": 65,
          "name": "F4",
          "ticks": 74394,
          "time": 135.16266140625,
          "velocity": 0.7952755905511811
        },
        {
          "duration": 0.28342843749999247,
          "durationTicks": 156,
          "midi": 57,
          "name": "A3",
          "ticks": 74490,
          "time": 135.33707890625,
          "velocity": 0.7244094488188977
        },
        {
          "duration": 0.28342843749999247,
          "durationTicks": 156,
          "midi": 60,
          "name": "C4",
          "ticks": 74490,
          "time": 135.33707890625,
          "velocity": 0.8582677165354331
        },
        {
          "duration": 0.4433111458333201,
          "durationTicks": 244,
          "midi": 53,
          "name": "F3",
          "ticks": 74496,
          "time": 135.34798,
          "velocity": 0.905511811023622
        },
        {
          "duration": 0.1380805208333129,
          "durationTicks": 76,
          "midi": 57,
          "name": "A3",
          "ticks": 74678,
          "time": 135.67864651041668,
          "velocity": 0.905511811023622
        },
        {
          "duration": 0.1526153125000178,
          "durationTicks": 84,
          "midi": 60,
          "name": "C4",
          "ticks": 74690,
          "time": 135.70044869791667,
          "velocity": 0.9763779527559056
        },
        {
          "duration": 0.1526153125000178,
          "durationTicks": 84,
          "midi": 65,
          "name": "F4",
          "ticks": 74690,
          "time": 135.70044869791667,
          "velocity": 0.9763779527559056
        },
        {
          "duration": 0.34156760416667,
          "durationTicks": 188,
          "midi": 57,
          "name": "A3",
          "ticks": 74778,
          "time": 135.86033140625,
          "velocity": 0.7480314960629921
        },
        {
          "duration": 0.34156760416667,
          "durationTicks": 188,
          "midi": 60,
          "name": "C4",
          "ticks": 74778,
          "time": 135.86033140625,
          "velocity": 0.8188976377952756
        },
        {
          "duration": 0.34156760416667,
          "durationTicks": 188,
          "midi": 65,
          "name": "F4",
          "ticks": 74778,
          "time": 135.86033140625,
          "velocity": 0.8188976377952756
        },
        {
          "duration": 0.17078380208332078,
          "durationTicks": 94,
          "midi": 53,
          "name": "F3",
          "ticks": 74970,
          "time": 136.20916640625,
          "velocity": 0.8582677165354331
        },
        {
          "duration": 0.17078380208332078,
          "durationTicks": 94,
          "midi": 57,
          "name": "A3",
          "ticks": 74970,
          "time": 136.20916640625,
          "velocity": 0.8110236220472441
        },
        {
          "duration": 0.2906958333333307,
          "durationTicks": 160,
          "midi": 53,
          "name": "F3",
          "ticks": 75068,
          "time": 136.38721760416666,
          "velocity": 0.937007874015748
        },
        {
          "duration": 0.27979473958330914,
          "durationTicks": 154,
          "midi": 57,
          "name": "A3",
          "ticks": 75074,
          "time": 136.3981186979167,
          "velocity": 0.889763779527559
        },
        {
          "duration": 0.33430020833333174,
          "durationTicks": 184,
          "midi": 60,
          "name": "C4",
          "ticks": 75076,
          "time": 136.40175239583334,
          "velocity": 0.937007874015748
        },
        {
          "duration": 0.33430020833333174,
          "durationTicks": 184,
          "midi": 65,
          "name": "F4",
          "ticks": 75076,
          "time": 136.40175239583334,
          "velocity": 0.937007874015748
        },
        {
          "duration": 0.2543588541666679,
          "durationTicks": 140,
          "midi": 57,
          "name": "A3",
          "ticks": 75264,
          "time": 136.74332,
          "velocity": 0.7007874015748031
        },
        {
          "duration": 0.4869155208333211,
          "durationTicks": 268,
          "midi": 50,
          "name": "D3",
          "ticks": 75270,
          "time": 136.75422109375,
          "velocity": 0.952755905511811
        },
        {
          "duration": 0.1526153124999894,
          "durationTicks": 84,
          "midi": 57,
          "name": "A3",
          "ticks": 75454,
          "time": 137.08852130208334,
          "velocity": 0.9133858267716536
        },
        {
          "duration": 0.13808052083334132,
          "durationTicks": 76,
          "midi": 66,
          "name": "F#4",
          "ticks": 75460,
          "time": 137.09942239583333,
          "velocity": 0.9763779527559056
        },
        {
          "duration": 0.15624901041667272,
          "durationTicks": 86,
          "midi": 62,
          "name": "D4",
          "ticks": 75462,
          "time": 137.10305609375,
          "velocity": 0.9763779527559056
        },
        {
          "duration": 0.31249802083334544,
          "durationTicks": 172,
          "midi": 62,
          "name": "D4",
          "ticks": 75552,
          "time": 137.2665725,
          "velocity": 0.8976377952755905
        },
        {
          "duration": 0.31249802083334544,
          "durationTicks": 172,
          "midi": 66,
          "name": "F#4",
          "ticks": 75552,
          "time": 137.2665725,
          "velocity": 0.8976377952755905
        },
        {
          "duration": 0.27979473958333756,
          "durationTicks": 154,
          "midi": 50,
          "name": "D3",
          "ticks": 75560,
          "time": 137.28110729166667,
          "velocity": 0.8976377952755905
        },
        {
          "duration": 0.31613171875000035,
          "durationTicks": 174,
          "midi": 57,
          "name": "A3",
          "ticks": 75566,
          "time": 137.29200838541666,
          "velocity": 0.8503937007874016
        },
        {
          "duration": 0.16715010416666587,
          "durationTicks": 92,
          "midi": 50,
          "name": "D3",
          "ticks": 75744,
          "time": 137.6154075,
          "velocity": 0.8582677165354331
        },
        {
          "duration": 0.16715010416666587,
          "durationTicks": 92,
          "midi": 57,
          "name": "A3",
          "ticks": 75744,
          "time": 137.6154075,
          "velocity": 0.7559055118110236
        },
        {
          "duration": 0.12717942708331975,
          "durationTicks": 70,
          "midi": 50,
          "name": "D3",
          "ticks": 75840,
          "time": 137.789825,
          "velocity": 0.937007874015748
        },
        {
          "duration": 0.13808052083334132,
          "durationTicks": 76,
          "midi": 66,
          "name": "F#4",
          "ticks": 75850,
          "time": 137.80799348958334,
          "velocity": 0.937007874015748
        },
        {
          "duration": 0.14534791666667957,
          "durationTicks": 80,
          "midi": 57,
          "name": "A3",
          "ticks": 75852,
          "time": 137.8116271875,
          "velocity": 0.8740157480314961
        },
        {
          "duration": 0.14534791666667957,
          "durationTicks": 80,
          "midi": 62,
          "name": "D4",
          "ticks": 75852,
          "time": 137.8116271875,
          "velocity": 0.937007874015748
        },
        {
          "duration": 0.16715010416666587,
          "durationTicks": 92,
          "midi": 57,
          "name": "A3",
          "ticks": 75936,
          "time": 137.9642425,
          "velocity": 0.7244094488188977
        },
        {
          "duration": 0.16715010416666587,
          "durationTicks": 92,
          "midi": 62,
          "name": "D4",
          "ticks": 75936,
          "time": 137.9642425,
          "velocity": 0.8582677165354331
        },
        {
          "duration": 0.16715010416666587,
          "durationTicks": 92,
          "midi": 66,
          "name": "F#4",
          "ticks": 75936,
          "time": 137.9642425,
          "velocity": 0.7559055118110236
        },
        {
          "duration": 0.28342843749999247,
          "durationTicks": 156,
          "midi": 57,
          "name": "A3",
          "ticks": 76032,
          "time": 138.13866000000002,
          "velocity": 0.7244094488188977
        },
        {
          "duration": 0.28342843749999247,
          "durationTicks": 156,
          "midi": 62,
          "name": "D4",
          "ticks": 76032,
          "time": 138.13866000000002,
          "velocity": 0.8582677165354331
        },
        {
          "duration": 0.4433111458333201,
          "durationTicks": 244,
          "midi": 50,
          "name": "D3",
          "ticks": 76038,
          "time": 138.14956109375,
          "velocity": 0.905511811023622
        },
        {
          "duration": 0.1380805208333129,
          "durationTicks": 76,
          "midi": 57,
          "name": "A3",
          "ticks": 76220,
          "time": 138.48022760416669,
          "velocity": 0.905511811023622
        },
        {
          "duration": 0.1526153125000178,
          "durationTicks": 84,
          "midi": 62,
          "name": "D4",
          "ticks": 76232,
          "time": 138.50202979166667,
          "velocity": 0.9763779527559056
        },
        {
          "duration": 0.1526153125000178,
          "durationTicks": 84,
          "midi": 66,
          "name": "F#4",
          "ticks": 76232,
          "time": 138.50202979166667,
          "velocity": 0.9763779527559056
        },
        {
          "duration": 0.34156760416667,
          "durationTicks": 188,
          "midi": 50,
          "name": "D3",
          "ticks": 76320,
          "time": 138.6619125,
          "velocity": 0.7637795275590551
        },
        {
          "duration": 0.34156760416667,
          "durationTicks": 188,
          "midi": 57,
          "name": "A3",
          "ticks": 76320,
          "time": 138.6619125,
          "velocity": 0.8267716535433071
        },
        {
          "duration": 0.34156760416667,
          "durationTicks": 188,
          "midi": 62,
          "name": "D4",
          "ticks": 76320,
          "time": 138.6619125,
          "velocity": 0.8976377952755905
        },
        {
          "duration": 0.34156760416667,
          "durationTicks": 188,
          "midi": 66,
          "name": "F#4",
          "ticks": 76320,
          "time": 138.6619125,
          "velocity": 0.8976377952755905
        },
        {
          "duration": 0.17078380208332078,
          "durationTicks": 94,
          "midi": 50,
          "name": "D3",
          "ticks": 76512,
          "time": 139.0107475,
          "velocity": 0.8582677165354331
        },
        {
          "duration": 0.17078380208332078,
          "durationTicks": 94,
          "midi": 57,
          "name": "A3",
          "ticks": 76512,
          "time": 139.0107475,
          "velocity": 0.8110236220472441
        },
        {
          "duration": 0.27979473958333756,
          "durationTicks": 154,
          "midi": 50,
          "name": "D3",
          "ticks": 76610,
          "time": 139.18879869791667,
          "velocity": 0.937007874015748
        },
        {
          "duration": 0.268893645833316,
          "durationTicks": 148,
          "midi": 57,
          "name": "A3",
          "ticks": 76616,
          "time": 139.1996997916667,
          "velocity": 0.889763779527559
        },
        {
          "duration": 0.323399114583367,
          "durationTicks": 178,
          "midi": 62,
          "name": "D4",
          "ticks": 76618,
          "time": 139.20333348958331,
          "velocity": 0.937007874015748
        },
        {
          "duration": 0.323399114583367,
          "durationTicks": 178,
          "midi": 66,
          "name": "F#4",
          "ticks": 76618,
          "time": 139.20333348958331,
          "velocity": 0.937007874015748
        },
        {
          "duration": 0.25435885416669635,
          "durationTicks": 140,
          "midi": 58,
          "name": "A#3",
          "ticks": 76800,
          "time": 139.534,
          "velocity": 0.7007874015748031
        },
        {
          "duration": 0.4869155208333211,
          "durationTicks": 268,
          "midi": 55,
          "name": "G3",
          "ticks": 76806,
          "time": 139.54490109375,
          "velocity": 0.952755905511811
        },
        {
          "duration": 0.1526153124999894,
          "durationTicks": 84,
          "midi": 58,
          "name": "A#3",
          "ticks": 76992,
          "time": 139.882835,
          "velocity": 0.9133858267716536
        },
        {
          "duration": 0.13808052083334132,
          "durationTicks": 76,
          "midi": 67,
          "name": "G4",
          "ticks": 76996,
          "time": 139.89010239583334,
          "velocity": 0.9763779527559056
        },
        {
          "duration": 0.15624901041667272,
          "durationTicks": 86,
          "midi": 62,
          "name": "D4",
          "ticks": 76998,
          "time": 139.89373609375,
          "velocity": 0.9763779527559056
        },
        {
          "duration": 0.2652599479166611,
          "durationTicks": 146,
          "midi": 58,
          "name": "A#3",
          "ticks": 77088,
          "time": 140.0572525,
          "velocity": 0.8503937007874016
        },
        {
          "duration": 0.312498020833317,
          "durationTicks": 172,
          "midi": 62,
          "name": "D4",
          "ticks": 77088,
          "time": 140.0572525,
          "velocity": 0.8976377952755905
        },
        {
          "duration": 0.312498020833317,
          "durationTicks": 172,
          "midi": 67,
          "name": "G4",
          "ticks": 77088,
          "time": 140.0572525,
          "velocity": 0.8976377952755905
        },
        {
          "duration": 0.3270328124999935,
          "durationTicks": 180,
          "midi": 55,
          "name": "G3",
          "ticks": 77096,
          "time": 140.07178729166668,
          "velocity": 0.8976377952755905
        },
        {
          "duration": 0.16715010416666587,
          "durationTicks": 92,
          "midi": 55,
          "name": "G3",
          "ticks": 77280,
          "time": 140.4060875,
          "velocity": 0.8582677165354331
        },
        {
          "duration": 0.16715010416666587,
          "durationTicks": 92,
          "midi": 58,
          "name": "A#3",
          "ticks": 77280,
          "time": 140.4060875,
          "velocity": 0.7559055118110236
        },
        {
          "duration": 0.12717942708331975,
          "durationTicks": 70,
          "midi": 55,
          "name": "G3",
          "ticks": 77376,
          "time": 140.58050500000002,
          "velocity": 0.937007874015748
        },
        {
          "duration": 0.11991203124998151,
          "durationTicks": 66,
          "midi": 58,
          "name": "A#3",
          "ticks": 77376,
          "time": 140.58050500000002,
          "velocity": 0.8740157480314961
        },
        {
          "duration": 0.13808052083336975,
          "durationTicks": 76,
          "midi": 67,
          "name": "G4",
          "ticks": 77386,
          "time": 140.59867348958332,
          "velocity": 0.937007874015748
        },
        {
          "duration": 0.14534791666667957,
          "durationTicks": 80,
          "midi": 62,
          "name": "D4",
          "ticks": 77388,
          "time": 140.6023071875,
          "velocity": 0.937007874015748
        },
        {
          "duration": 0.1671501041666943,
          "durationTicks": 92,
          "midi": 58,
          "name": "A#3",
          "ticks": 77472,
          "time": 140.7549225,
          "velocity": 0.7244094488188977
        },
        {
          "duration": 0.1671501041666943,
          "durationTicks": 92,
          "midi": 62,
          "name": "D4",
          "ticks": 77472,
          "time": 140.7549225,
          "velocity": 0.8582677165354331
        },
        {
          "duration": 0.1671501041666943,
          "durationTicks": 92,
          "midi": 67,
          "name": "G4",
          "ticks": 77472,
          "time": 140.7549225,
          "velocity": 0.7559055118110236
        },
        {
          "duration": 0.28342843749999247,
          "durationTicks": 156,
          "midi": 58,
          "name": "A#3",
          "ticks": 77568,
          "time": 140.92934,
          "velocity": 0.7244094488188977
        },
        {
          "duration": 0.28342843749999247,
          "durationTicks": 156,
          "midi": 62,
          "name": "D4",
          "ticks": 77568,
          "time": 140.92934,
          "velocity": 0.8582677165354331
        },
        {
          "duration": 0.4433111458333485,
          "durationTicks": 244,
          "midi": 55,
          "name": "G3",
          "ticks": 77574,
          "time": 140.94024109375,
          "velocity": 0.905511811023622
        },
        {
          "duration": 0.1380805208333129,
          "durationTicks": 76,
          "midi": 58,
          "name": "A#3",
          "ticks": 77760,
          "time": 141.278175,
          "velocity": 0.905511811023622
        },
        {
          "duration": 0.1526153124999894,
          "durationTicks": 84,
          "midi": 62,
          "name": "D4",
          "ticks": 77768,
          "time": 141.29270979166668,
          "velocity": 0.9763779527559056
        },
        {
          "duration": 0.1526153124999894,
          "durationTicks": 84,
          "midi": 67,
          "name": "G4",
          "ticks": 77768,
          "time": 141.29270979166668,
          "velocity": 0.9763779527559056
        },
        {
          "duration": 0.34156760416667,
          "durationTicks": 188,
          "midi": 55,
          "name": "G3",
          "ticks": 77856,
          "time": 141.4525925,
          "velocity": 0.7637795275590551
        },
        {
          "duration": 0.34156760416667,
          "durationTicks": 188,
          "midi": 58,
          "name": "A#3",
          "ticks": 77856,
          "time": 141.4525925,
          "velocity": 0.8267716535433071
        },
        {
          "duration": 0.34156760416667,
          "durationTicks": 188,
          "midi": 62,
          "name": "D4",
          "ticks": 77856,
          "time": 141.4525925,
          "velocity": 0.8976377952755905
        },
        {
          "duration": 0.34156760416667,
          "durationTicks": 188,
          "midi": 67,
          "name": "G4",
          "ticks": 77856,
          "time": 141.4525925,
          "velocity": 0.8976377952755905
        },
        {
          "duration": 0.1671501041666943,
          "durationTicks": 92,
          "midi": 55,
          "name": "G3",
          "ticks": 78048,
          "time": 141.8014275,
          "velocity": 0.8582677165354331
        },
        {
          "duration": 0.1671501041666943,
          "durationTicks": 92,
          "midi": 58,
          "name": "A#3",
          "ticks": 78048,
          "time": 141.8014275,
          "velocity": 0.8110236220472441
        },
        {
          "duration": 0.2652599479166895,
          "durationTicks": 146,
          "midi": 58,
          "name": "A#3",
          "ticks": 78144,
          "time": 141.975845,
          "velocity": 0.889763779527559
        },
        {
          "duration": 0.27979473958333756,
          "durationTicks": 154,
          "midi": 55,
          "name": "G3",
          "ticks": 78146,
          "time": 141.97947869791668,
          "velocity": 0.937007874015748
        },
        {
          "duration": 0.3233991145833386,
          "durationTicks": 178,
          "midi": 62,
          "name": "D4",
          "ticks": 78154,
          "time": 141.99401348958332,
          "velocity": 0.937007874015748
        },
        {
          "duration": 0.3233991145833386,
          "durationTicks": 178,
          "midi": 67,
          "name": "G4",
          "ticks": 78154,
          "time": 141.99401348958332,
          "velocity": 0.937007874015748
        },
        {
          "duration": 0.2543588541666679,
          "durationTicks": 140,
          "midi": 60,
          "name": "C4",
          "ticks": 78336,
          "time": 142.32468,
          "velocity": 0.7007874015748031
        },
        {
          "duration": 0.48691552083334955,
          "durationTicks": 268,
          "midi": 55,
          "name": "G3",
          "ticks": 78342,
          "time": 142.33558109375,
          "velocity": 0.952755905511811
        },
        {
          "duration": 0.1526153125000178,
          "durationTicks": 84,
          "midi": 60,
          "name": "C4",
          "ticks": 78526,
          "time": 142.66988130208333,
          "velocity": 0.9133858267716536
        },
        {
          "duration": 0.13808052083336975,
          "durationTicks": 76,
          "midi": 67,
          "name": "G4",
          "ticks": 78532,
          "time": 142.68078239583332,
          "velocity": 0.9763779527559056
        },
        {
          "duration": 0.15624901041667272,
          "durationTicks": 86,
          "midi": 64,
          "name": "E4",
          "ticks": 78534,
          "time": 142.68441609375,
          "velocity": 0.9763779527559056
        },
        {
          "duration": 0.312498020833317,
          "durationTicks": 172,
          "midi": 64,
          "name": "E4",
          "ticks": 78624,
          "time": 142.8479325,
          "velocity": 0.8976377952755905
        },
        {
          "duration": 0.312498020833317,
          "durationTicks": 172,
          "midi": 67,
          "name": "G4",
          "ticks": 78624,
          "time": 142.8479325,
          "velocity": 0.8976377952755905
        },
        {
          "duration": 0.27979473958330914,
          "durationTicks": 154,
          "midi": 55,
          "name": "G3",
          "ticks": 78632,
          "time": 142.8624672916667,
          "velocity": 0.8976377952755905
        },
        {
          "duration": 0.31613171875000035,
          "durationTicks": 174,
          "midi": 60,
          "name": "C4",
          "ticks": 78638,
          "time": 142.87336838541668,
          "velocity": 0.8503937007874016
        },
        {
          "duration": 0.1671501041666943,
          "durationTicks": 92,
          "midi": 55,
          "name": "G3",
          "ticks": 78816,
          "time": 143.1967675,
          "velocity": 0.8582677165354331
        },
        {
          "duration": 0.1671501041666943,
          "durationTicks": 92,
          "midi": 60,
          "name": "C4",
          "ticks": 78816,
          "time": 143.1967675,
          "velocity": 0.7559055118110236
        },
        {
          "duration": 0.12717942708331975,
          "durationTicks": 70,
          "midi": 55,
          "name": "G3",
          "ticks": 78912,
          "time": 143.371185,
          "velocity": 0.937007874015748
        },
        {
          "duration": 0.13808052083334132,
          "durationTicks": 76,
          "midi": 67,
          "name": "G4",
          "ticks": 78922,
          "time": 143.38935348958333,
          "velocity": 0.937007874015748
        },
        {
          "duration": 0.14534791666665114,
          "durationTicks": 80,
          "midi": 60,
          "name": "C4",
          "ticks": 78924,
          "time": 143.3929871875,
          "velocity": 0.8740157480314961
        },
        {
          "duration": 0.14534791666665114,
          "durationTicks": 80,
          "midi": 64,
          "name": "E4",
          "ticks": 78924,
          "time": 143.3929871875,
          "velocity": 0.937007874015748
        },
        {
          "duration": 0.16715010416666587,
          "durationTicks": 92,
          "midi": 60,
          "name": "C4",
          "ticks": 79008,
          "time": 143.5456025,
          "velocity": 0.7244094488188977
        },
        {
          "duration": 0.16715010416666587,
          "durationTicks": 92,
          "midi": 64,
          "name": "E4",
          "ticks": 79008,
          "time": 143.5456025,
          "velocity": 0.8582677165354331
        },
        {
          "duration": 0.16715010416666587,
          "durationTicks": 92,
          "midi": 67,
          "name": "G4",
          "ticks": 79008,
          "time": 143.5456025,
          "velocity": 0.7559055118110236
        },
        {
          "duration": 0.28342843749999247,
          "durationTicks": 156,
          "midi": 60,
          "name": "C4",
          "ticks": 79104,
          "time": 143.72002,
          "velocity": 0.7244094488188977
        },
        {
          "duration": 0.28342843749999247,
          "durationTicks": 156,
          "midi": 64,
          "name": "E4",
          "ticks": 79104,
          "time": 143.72002,
          "velocity": 0.8582677165354331
        },
        {
          "duration": 0.4433111458333201,
          "durationTicks": 244,
          "midi": 55,
          "name": "G3",
          "ticks": 79110,
          "time": 143.73092109375,
          "velocity": 0.905511811023622
        },
        {
          "duration": 0.13808052083334132,
          "durationTicks": 76,
          "midi": 60,
          "name": "C4",
          "ticks": 79292,
          "time": 144.06158760416668,
          "velocity": 0.905511811023622
        },
        {
          "duration": 0.1526153124999894,
          "durationTicks": 84,
          "midi": 64,
          "name": "E4",
          "ticks": 79304,
          "time": 144.0833897916667,
          "velocity": 0.9763779527559056
        },
        {
          "duration": 0.1526153124999894,
          "durationTicks": 84,
          "midi": 67,
          "name": "G4",
          "ticks": 79304,
          "time": 144.0833897916667,
          "velocity": 0.9763779527559056
        },
        {
          "duration": 0.3415676041666984,
          "durationTicks": 188,
          "midi": 55,
          "name": "G3",
          "ticks": 79392,
          "time": 144.2432725,
          "velocity": 0.7637795275590551
        },
        {
          "duration": 0.3415676041666984,
          "durationTicks": 188,
          "midi": 60,
          "name": "C4",
          "ticks": 79392,
          "time": 144.2432725,
          "velocity": 0.8267716535433071
        },
        {
          "duration": 0.3415676041666984,
          "durationTicks": 188,
          "midi": 64,
          "name": "E4",
          "ticks": 79392,
          "time": 144.2432725,
          "velocity": 0.8976377952755905
        },
        {
          "duration": 0.3415676041666984,
          "durationTicks": 188,
          "midi": 67,
          "name": "G4",
          "ticks": 79392,
          "time": 144.2432725,
          "velocity": 0.8976377952755905
        },
        {
          "duration": 0.17078380208332078,
          "durationTicks": 94,
          "midi": 55,
          "name": "G3",
          "ticks": 79584,
          "time": 144.5921075,
          "velocity": 0.8582677165354331
        },
        {
          "duration": 0.17078380208332078,
          "durationTicks": 94,
          "midi": 60,
          "name": "C4",
          "ticks": 79584,
          "time": 144.5921075,
          "velocity": 0.8110236220472441
        },
        {
          "duration": 0.27979473958330914,
          "durationTicks": 154,
          "midi": 55,
          "name": "G3",
          "ticks": 79682,
          "time": 144.77015869791668,
          "velocity": 0.937007874015748
        },
        {
          "duration": 0.268893645833316,
          "durationTicks": 148,
          "midi": 60,
          "name": "C4",
          "ticks": 79688,
          "time": 144.78105979166668,
          "velocity": 0.889763779527559
        },
        {
          "duration": 0.3233991145833386,
          "durationTicks": 178,
          "midi": 64,
          "name": "E4",
          "ticks": 79690,
          "time": 144.78469348958333,
          "velocity": 0.937007874015748
        },
        {
          "duration": 0.3233991145833386,
          "durationTicks": 178,
          "midi": 67,
          "name": "G4",
          "ticks": 79690,
          "time": 144.78469348958333,
          "velocity": 0.937007874015748
        },
        {
          "duration": 0.4869155208333211,
          "durationTicks": 268,
          "midi": 55,
          "name": "G3",
          "ticks": 79872,
          "time": 145.11536,
          "velocity": 0.952755905511811
        },
        {
          "duration": 0.2543588541666679,
          "durationTicks": 140,
          "midi": 60,
          "name": "C4",
          "ticks": 79872,
          "time": 145.11536,
          "velocity": 0.7007874015748031
        },
        {
          "duration": 0.13808052083334132,
          "durationTicks": 76,
          "midi": 67,
          "name": "G4",
          "ticks": 80062,
          "time": 145.46056130208333,
          "velocity": 0.9763779527559056
        },
        {
          "duration": 0.1671501041666943,
          "durationTicks": 92,
          "midi": 60,
          "name": "C4",
          "ticks": 80064,
          "time": 145.464195,
          "velocity": 0.9133858267716536
        },
        {
          "duration": 0.1671501041666943,
          "durationTicks": 92,
          "midi": 63,
          "name": "D#4",
          "ticks": 80064,
          "time": 145.464195,
          "velocity": 0.9763779527559056
        },
        {
          "duration": 0.33066651041667683,
          "durationTicks": 182,
          "midi": 60,
          "name": "C4",
          "ticks": 80160,
          "time": 145.6386125,
          "velocity": 0.6456692913385826
        },
        {
          "duration": 0.31249802083334544,
          "durationTicks": 172,
          "midi": 63,
          "name": "D#4",
          "ticks": 80170,
          "time": 145.65678098958332,
          "velocity": 0.8188976377952756
        },
        {
          "duration": 0.31249802083334544,
          "durationTicks": 172,
          "midi": 67,
          "name": "G4",
          "ticks": 80170,
          "time": 145.65678098958332,
          "velocity": 0.8188976377952756
        },
        {
          "duration": 0.10901093749998836,
          "durationTicks": 60,
          "midi": 55,
          "name": "G3",
          "ticks": 80346,
          "time": 145.97654640625,
          "velocity": 0.8582677165354331
        },
        {
          "duration": 0.15624901041667272,
          "durationTicks": 86,
          "midi": 60,
          "name": "C4",
          "ticks": 80352,
          "time": 145.9874475,
          "velocity": 0.7559055118110236
        },
        {
          "duration": 0.12717942708331975,
          "durationTicks": 70,
          "midi": 55,
          "name": "G3",
          "ticks": 80442,
          "time": 146.15096390625,
          "velocity": 0.9763779527559056
        },
        {
          "duration": 0.11991203125000993,
          "durationTicks": 66,
          "midi": 60,
          "name": "C4",
          "ticks": 80448,
          "time": 146.161865,
          "velocity": 0.9133858267716536
        },
        {
          "duration": 0.13808052083336975,
          "durationTicks": 76,
          "midi": 67,
          "name": "G4",
          "ticks": 80452,
          "time": 146.16913239583332,
          "velocity": 0.9763779527559056
        },
        {
          "duration": 0.14534791666667957,
          "durationTicks": 80,
          "midi": 63,
          "name": "D#4",
          "ticks": 80454,
          "time": 146.17276609375,
          "velocity": 0.9763779527559056
        },
        {
          "duration": 0.13808052083334132,
          "durationTicks": 76,
          "midi": 63,
          "name": "D#4",
          "ticks": 80538,
          "time": 146.32538140625,
          "velocity": 0.8976377952755905
        },
        {
          "duration": 0.13808052083334132,
          "durationTicks": 76,
          "midi": 67,
          "name": "G4",
          "ticks": 80538,
          "time": 146.32538140625,
          "velocity": 0.7952755905511811
        },
        {
          "duration": 0.15624901041667272,
          "durationTicks": 86,
          "midi": 60,
          "name": "C4",
          "ticks": 80544,
          "time": 146.3362825,
          "velocity": 0.7637795275590551
        },
        {
          "duration": 0.2834284375000209,
          "durationTicks": 156,
          "midi": 63,
          "name": "D#4",
          "ticks": 80634,
          "time": 146.49979890625,
          "velocity": 0.8582677165354331
        },
        {
          "duration": 0.4433111458333201,
          "durationTicks": 244,
          "midi": 55,
          "name": "G3",
          "ticks": 80640,
          "time": 146.5107,
          "velocity": 0.905511811023622
        },
        {
          "duration": 0.28342843749999247,
          "durationTicks": 156,
          "midi": 60,
          "name": "C4",
          "ticks": 80640,
          "time": 146.5107,
          "velocity": 0.7244094488188977
        },
        {
          "duration": 0.13808052083334132,
          "durationTicks": 76,
          "midi": 60,
          "name": "C4",
          "ticks": 80832,
          "time": 146.859535,
          "velocity": 0.905511811023622
        },
        {
          "duration": 0.1526153124999894,
          "durationTicks": 84,
          "midi": 63,
          "name": "D#4",
          "ticks": 80834,
          "time": 146.86316869791668,
          "velocity": 0.9763779527559056
        },
        {
          "duration": 0.1526153124999894,
          "durationTicks": 84,
          "midi": 67,
          "name": "G4",
          "ticks": 80834,
          "time": 146.86316869791668,
          "velocity": 0.9763779527559056
        },
        {
          "duration": 0.29796322916666895,
          "durationTicks": 164,
          "midi": 63,
          "name": "D#4",
          "ticks": 80922,
          "time": 147.02305140625,
          "velocity": 0.8188976377952756
        },
        {
          "duration": 0.31613171875000035,
          "durationTicks": 174,
          "midi": 67,
          "name": "G4",
          "ticks": 80922,
          "time": 147.02305140625,
          "velocity": 0.8188976377952756
        },
        {
          "duration": 0.33066651041667683,
          "durationTicks": 182,
          "midi": 60,
          "name": "C4",
          "ticks": 80928,
          "time": 147.0339525,
          "velocity": 0.7480314960629921
        },
        {
          "duration": 0.10901093749998836,
          "durationTicks": 60,
          "midi": 55,
          "name": "G3",
          "ticks": 81114,
          "time": 147.37188640625,
          "velocity": 0.8582677165354331
        },
        {
          "duration": 0.15988270833332763,
          "durationTicks": 88,
          "midi": 60,
          "name": "C4",
          "ticks": 81120,
          "time": 147.3827875,
          "velocity": 0.8110236220472441
        },
        {
          "duration": 0.2906958333333307,
          "durationTicks": 160,
          "midi": 55,
          "name": "G3",
          "ticks": 81212,
          "time": 147.54993760416667,
          "velocity": 0.937007874015748
        },
        {
          "duration": 0.27616104166665423,
          "durationTicks": 152,
          "midi": 60,
          "name": "C4",
          "ticks": 81216,
          "time": 147.557205,
          "velocity": 0.889763779527559
        },
        {
          "duration": 0.33430020833336016,
          "durationTicks": 184,
          "midi": 63,
          "name": "D#4",
          "ticks": 81220,
          "time": 147.56447239583332,
          "velocity": 0.937007874015748
        },
        {
          "duration": 0.33430020833336016,
          "durationTicks": 184,
          "midi": 67,
          "name": "G4",
          "ticks": 81220,
          "time": 147.56447239583332,
          "velocity": 0.937007874015748
        },
        {
          "duration": 0.25435885416669635,
          "durationTicks": 140,
          "midi": 58,
          "name": "A#3",
          "ticks": 81408,
          "time": 147.90604,
          "velocity": 0.7007874015748031
        },
        {
          "duration": 0.4869155208333211,
          "durationTicks": 268,
          "midi": 55,
          "name": "G3",
          "ticks": 81414,
          "time": 147.91694109375,
          "velocity": 0.952755905511811
        },
        {
          "duration": 0.1526153124999894,
          "durationTicks": 84,
          "midi": 58,
          "name": "A#3",
          "ticks": 81598,
          "time": 148.25124130208334,
          "velocity": 0.9133858267716536
        },
        {
          "duration": 0.13808052083334132,
          "durationTicks": 76,
          "midi": 67,
          "name": "G4",
          "ticks": 81604,
          "time": 148.26214239583334,
          "velocity": 0.9763779527559056
        },
        {
          "duration": 0.15624901041667272,
          "durationTicks": 86,
          "midi": 62,
          "name": "D4",
          "ticks": 81606,
          "time": 148.26577609375,
          "velocity": 0.9763779527559056
        },
        {
          "duration": 0.312498020833317,
          "durationTicks": 172,
          "midi": 62,
          "name": "D4",
          "ticks": 81696,
          "time": 148.4292925,
          "velocity": 0.8976377952755905
        },
        {
          "duration": 0.312498020833317,
          "durationTicks": 172,
          "midi": 67,
          "name": "G4",
          "ticks": 81696,
          "time": 148.4292925,
          "velocity": 0.8976377952755905
        },
        {
          "duration": 0.27979473958333756,
          "durationTicks": 154,
          "midi": 55,
          "name": "G3",
          "ticks": 81704,
          "time": 148.44382729166668,
          "velocity": 0.8976377952755905
        },
        {
          "duration": 0.31613171875000035,
          "durationTicks": 174,
          "midi": 58,
          "name": "A#3",
          "ticks": 81710,
          "time": 148.45472838541667,
          "velocity": 0.8503937007874016
        },
        {
          "duration": 0.16715010416666587,
          "durationTicks": 92,
          "midi": 55,
          "name": "G3",
          "ticks": 81888,
          "time": 148.7781275,
          "velocity": 0.8582677165354331
        },
        {
          "duration": 0.16715010416666587,
          "durationTicks": 92,
          "midi": 58,
          "name": "A#3",
          "ticks": 81888,
          "time": 148.7781275,
          "velocity": 0.7559055118110236
        },
        {
          "duration": 0.12717942708331975,
          "durationTicks": 70,
          "midi": 55,
          "name": "G3",
          "ticks": 81984,
          "time": 148.95254500000001,
          "velocity": 0.937007874015748
        },
        {
          "duration": 0.13808052083336975,
          "durationTicks": 76,
          "midi": 67,
          "name": "G4",
          "ticks": 81994,
          "time": 148.97071348958332,
          "velocity": 0.937007874015748
        },
        {
          "duration": 0.14534791666667957,
          "durationTicks": 80,
          "midi": 58,
          "name": "A#3",
          "ticks": 81996,
          "time": 148.9743471875,
          "velocity": 0.8740157480314961
        },
        {
          "duration": 0.14534791666667957,
          "durationTicks": 80,
          "midi": 62,
          "name": "D4",
          "ticks": 81996,
          "time": 148.9743471875,
          "velocity": 0.937007874015748
        },
        {
          "duration": 0.1671501041666943,
          "durationTicks": 92,
          "midi": 58,
          "name": "A#3",
          "ticks": 82080,
          "time": 149.1269625,
          "velocity": 0.7244094488188977
        },
        {
          "duration": 0.1671501041666943,
          "durationTicks": 92,
          "midi": 62,
          "name": "D4",
          "ticks": 82080,
          "time": 149.1269625,
          "velocity": 0.8582677165354331
        },
        {
          "duration": 0.1671501041666943,
          "durationTicks": 92,
          "midi": 67,
          "name": "G4",
          "ticks": 82080,
          "time": 149.1269625,
          "velocity": 0.7559055118110236
        },
        {
          "duration": 0.2834284375000209,
          "durationTicks": 156,
          "midi": 58,
          "name": "A#3",
          "ticks": 82176,
          "time": 149.30138,
          "velocity": 0.7244094488188977
        },
        {
          "duration": 0.2834284375000209,
          "durationTicks": 156,
          "midi": 62,
          "name": "D4",
          "ticks": 82176,
          "time": 149.30138,
          "velocity": 0.8582677165354331
        },
        {
          "duration": 0.4433111458333201,
          "durationTicks": 244,
          "midi": 55,
          "name": "G3",
          "ticks": 82182,
          "time": 149.31228109375002,
          "velocity": 0.905511811023622
        },
        {
          "duration": 0.13808052083334132,
          "durationTicks": 76,
          "midi": 58,
          "name": "A#3",
          "ticks": 82364,
          "time": 149.64294760416666,
          "velocity": 0.905511811023622
        },
        {
          "duration": 0.1526153124999894,
          "durationTicks": 84,
          "midi": 62,
          "name": "D4",
          "ticks": 82376,
          "time": 149.66474979166668,
          "velocity": 0.9763779527559056
        },
        {
          "duration": 0.1526153124999894,
          "durationTicks": 84,
          "midi": 67,
          "name": "G4",
          "ticks": 82376,
          "time": 149.66474979166668,
          "velocity": 0.9763779527559056
        },
        {
          "duration": 0.34156760416667,
          "durationTicks": 188,
          "midi": 55,
          "name": "G3",
          "ticks": 82464,
          "time": 149.8246325,
          "velocity": 0.7637795275590551
        },
        {
          "duration": 0.34156760416667,
          "durationTicks": 188,
          "midi": 58,
          "name": "A#3",
          "ticks": 82464,
          "time": 149.8246325,
          "velocity": 0.8267716535433071
        },
        {
          "duration": 0.34156760416667,
          "durationTicks": 188,
          "midi": 62,
          "name": "D4",
          "ticks": 82464,
          "time": 149.8246325,
          "velocity": 0.8976377952755905
        },
        {
          "duration": 0.34156760416667,
          "durationTicks": 188,
          "midi": 67,
          "name": "G4",
          "ticks": 82464,
          "time": 149.8246325,
          "velocity": 0.8976377952755905
        },
        {
          "duration": 0.17078380208332078,
          "durationTicks": 94,
          "midi": 55,
          "name": "G3",
          "ticks": 82656,
          "time": 150.17346750000002,
          "velocity": 0.8582677165354331
        },
        {
          "duration": 0.17078380208332078,
          "durationTicks": 94,
          "midi": 58,
          "name": "A#3",
          "ticks": 82656,
          "time": 150.17346750000002,
          "velocity": 0.8110236220472441
        },
        {
          "duration": 0.27979473958333756,
          "durationTicks": 154,
          "midi": 55,
          "name": "G3",
          "ticks": 82754,
          "time": 150.35151869791667,
          "velocity": 0.937007874015748
        },
        {
          "duration": 0.2688936458333444,
          "durationTicks": 148,
          "midi": 58,
          "name": "A#3",
          "ticks": 82760,
          "time": 150.36241979166667,
          "velocity": 0.889763779527559
        },
        {
          "duration": 0.323399114583367,
          "durationTicks": 178,
          "midi": 62,
          "name": "D4",
          "ticks": 82762,
          "time": 150.36605348958332,
          "velocity": 0.937007874015748
        },
        {
          "duration": 0.323399114583367,
          "durationTicks": 178,
          "midi": 67,
          "name": "G4",
          "ticks": 82762,
          "time": 150.36605348958332,
          "velocity": 0.937007874015748
        },
        {
          "duration": 0.2543588541666679,
          "durationTicks": 140,
          "midi": 57,
          "name": "A3",
          "ticks": 82944,
          "time": 150.69672,
          "velocity": 0.7007874015748031
        },
        {
          "duration": 0.48691552083334955,
          "durationTicks": 268,
          "midi": 55,
          "name": "G3",
          "ticks": 82950,
          "time": 150.70762109375,
          "velocity": 0.952755905511811
        },
        {
          "duration": 0.1526153124999894,
          "durationTicks": 84,
          "midi": 57,
          "name": "A3",
          "ticks": 83136,
          "time": 151.045555,
          "velocity": 0.9133858267716536
        },
        {
          "duration": 0.13808052083336975,
          "durationTicks": 76,
          "midi": 64,
          "name": "E4",
          "ticks": 83140,
          "time": 151.05282239583332,
          "velocity": 0.9763779527559056
        },
        {
          "duration": 0.15624901041667272,
          "durationTicks": 86,
          "midi": 61,
          "name": "C#4",
          "ticks": 83142,
          "time": 151.05645609375,
          "velocity": 0.9763779527559056
        },
        {
          "duration": 0.2652599479166611,
          "durationTicks": 146,
          "midi": 57,
          "name": "A3",
          "ticks": 83232,
          "time": 151.2199725,
          "velocity": 0.8503937007874016
        },
        {
          "duration": 0.312498020833317,
          "durationTicks": 172,
          "midi": 61,
          "name": "C#4",
          "ticks": 83232,
          "time": 151.2199725,
          "velocity": 0.8976377952755905
        },
        {
          "duration": 0.312498020833317,
          "durationTicks": 172,
          "midi": 64,
          "name": "E4",
          "ticks": 83232,
          "time": 151.2199725,
          "velocity": 0.8976377952755905
        },
        {
          "duration": 0.3270328124999935,
          "durationTicks": 180,
          "midi": 55,
          "name": "G3",
          "ticks": 83240,
          "time": 151.2345072916667,
          "velocity": 0.8976377952755905
        },
        {
          "duration": 0.1671501041666943,
          "durationTicks": 92,
          "midi": 55,
          "name": "G3",
          "ticks": 83424,
          "time": 151.5688075,
          "velocity": 0.8582677165354331
        },
        {
          "duration": 0.1671501041666943,
          "durationTicks": 92,
          "midi": 57,
          "name": "A3",
          "ticks": 83424,
          "time": 151.5688075,
          "velocity": 0.7559055118110236
        },
        {
          "duration": 0.12717942708334817,
          "durationTicks": 70,
          "midi": 55,
          "name": "G3",
          "ticks": 83520,
          "time": 151.743225,
          "velocity": 0.937007874015748
        },
        {
          "duration": 0.11991203125000993,
          "durationTicks": 66,
          "midi": 57,
          "name": "A3",
          "ticks": 83520,
          "time": 151.743225,
          "velocity": 0.8740157480314961
        },
        {
          "duration": 0.13808052083334132,
          "durationTicks": 76,
          "midi": 64,
          "name": "E4",
          "ticks": 83530,
          "time": 151.76139348958333,
          "velocity": 0.937007874015748
        },
        {
          "duration": 0.14534791666667957,
          "durationTicks": 80,
          "midi": 61,
          "name": "C#4",
          "ticks": 83532,
          "time": 151.7650271875,
          "velocity": 0.937007874015748
        },
        {
          "duration": 0.16715010416666587,
          "durationTicks": 92,
          "midi": 57,
          "name": "A3",
          "ticks": 83616,
          "time": 151.9176425,
          "velocity": 0.7244094488188977
        },
        {
          "duration": 0.16715010416666587,
          "durationTicks": 92,
          "midi": 61,
          "name": "C#4",
          "ticks": 83616,
          "time": 151.9176425,
          "velocity": 0.8582677165354331
        },
        {
          "duration": 0.16715010416666587,
          "durationTicks": 92,
          "midi": 64,
          "name": "E4",
          "ticks": 83616,
          "time": 151.9176425,
          "velocity": 0.7559055118110236
        },
        {
          "duration": 0.28342843749999247,
          "durationTicks": 156,
          "midi": 57,
          "name": "A3",
          "ticks": 83712,
          "time": 152.09206,
          "velocity": 0.7244094488188977
        },
        {
          "duration": 0.28342843749999247,
          "durationTicks": 156,
          "midi": 61,
          "name": "C#4",
          "ticks": 83712,
          "time": 152.09206,
          "velocity": 0.8582677165354331
        },
        {
          "duration": 0.4433111458333201,
          "durationTicks": 244,
          "midi": 55,
          "name": "G3",
          "ticks": 83718,
          "time": 152.10296109375,
          "velocity": 0.905511811023622
        },
        {
          "duration": 0.1380805208333129,
          "durationTicks": 76,
          "midi": 57,
          "name": "A3",
          "ticks": 83904,
          "time": 152.440895,
          "velocity": 0.905511811023622
        },
        {
          "duration": 0.1526153124999894,
          "durationTicks": 84,
          "midi": 61,
          "name": "C#4",
          "ticks": 83912,
          "time": 152.4554297916667,
          "velocity": 0.9763779527559056
        },
        {
          "duration": 0.1526153124999894,
          "durationTicks": 84,
          "midi": 64,
          "name": "E4",
          "ticks": 83912,
          "time": 152.4554297916667,
          "velocity": 0.9763779527559056
        },
        {
          "duration": 0.34156760416667,
          "durationTicks": 188,
          "midi": 55,
          "name": "G3",
          "ticks": 84000,
          "time": 152.61531250000002,
          "velocity": 0.7637795275590551
        },
        {
          "duration": 0.34156760416667,
          "durationTicks": 188,
          "midi": 57,
          "name": "A3",
          "ticks": 84000,
          "time": 152.61531250000002,
          "velocity": 0.8267716535433071
        },
        {
          "duration": 0.34156760416667,
          "durationTicks": 188,
          "midi": 61,
          "name": "C#4",
          "ticks": 84000,
          "time": 152.61531250000002,
          "velocity": 0.8976377952755905
        },
        {
          "duration": 0.34156760416667,
          "durationTicks": 188,
          "midi": 64,
          "name": "E4",
          "ticks": 84000,
          "time": 152.61531250000002,
          "velocity": 0.8976377952755905
        },
        {
          "duration": 0.1671501041666943,
          "durationTicks": 92,
          "midi": 55,
          "name": "G3",
          "ticks": 84192,
          "time": 152.9641475,
          "velocity": 0.8582677165354331
        },
        {
          "duration": 0.1671501041666943,
          "durationTicks": 92,
          "midi": 57,
          "name": "A3",
          "ticks": 84192,
          "time": 152.9641475,
          "velocity": 0.8110236220472441
        },
        {
          "duration": 0.2652599479166895,
          "durationTicks": 146,
          "midi": 57,
          "name": "A3",
          "ticks": 84288,
          "time": 153.138565,
          "velocity": 0.889763779527559
        },
        {
          "duration": 0.27979473958330914,
          "durationTicks": 154,
          "midi": 55,
          "name": "G3",
          "ticks": 84290,
          "time": 153.14219869791668,
          "velocity": 0.937007874015748
        },
        {
          "duration": 0.3597360937500014,
          "durationTicks": 198,
          "midi": 61,
          "name": "C#4",
          "ticks": 84298,
          "time": 153.15673348958333,
          "velocity": 0.937007874015748
        },
        {
          "duration": 0.3597360937500014,
          "durationTicks": 198,
          "midi": 64,
          "name": "E4",
          "ticks": 84298,
          "time": 153.15673348958333,
          "velocity": 0.937007874015748
        },
        {
          "duration": 2.249259010416665,
          "durationTicks": 1238,
          "midi": 57,
          "name": "A3",
          "ticks": 84500,
          "time": 153.52373697916667,
          "velocity": 0.952755905511811
        },
        {
          "duration": 2.2601601041666584,
          "durationTicks": 1244,
          "midi": 62,
          "name": "D4",
          "ticks": 84504,
          "time": 153.531004375,
          "velocity": 0.9133858267716536
        },
        {
          "duration": 2.202020937499981,
          "durationTicks": 1212,
          "midi": 66,
          "name": "F#4",
          "ticks": 84512,
          "time": 153.54553916666669,
          "velocity": 0.9763779527559056
        },
        {
          "duration": 2.202020937499981,
          "durationTicks": 1212,
          "midi": 69,
          "name": "A4",
          "ticks": 84512,
          "time": 153.54553916666669,
          "velocity": 0.9763779527559056
        },
        {
          "duration": 0.48691552083334955,
          "durationTicks": 268,
          "midi": 55,
          "name": "G3",
          "ticks": 86016,
          "time": 156.27808,
          "velocity": 0.952755905511811
        },
        {
          "duration": 0.25435885416669635,
          "durationTicks": 140,
          "midi": 58,
          "name": "A#3",
          "ticks": 86016,
          "time": 156.27808,
          "velocity": 0.7007874015748031
        },
        {
          "duration": 0.1526153125000178,
          "durationTicks": 84,
          "midi": 58,
          "name": "A#3",
          "ticks": 86200,
          "time": 156.61238020833332,
          "velocity": 0.9133858267716536
        },
        {
          "duration": 0.13808052083334132,
          "durationTicks": 76,
          "midi": 67,
          "name": "G4",
          "ticks": 86206,
          "time": 156.62328130208334,
          "velocity": 0.9763779527559056
        },
        {
          "duration": 0.16715010416666587,
          "durationTicks": 92,
          "midi": 62,
          "name": "D4",
          "ticks": 86208,
          "time": 156.626915,
          "velocity": 0.9763779527559056
        },
        {
          "duration": 0.33066651041667683,
          "durationTicks": 182,
          "midi": 58,
          "name": "A#3",
          "ticks": 86304,
          "time": 156.8013325,
          "velocity": 0.6456692913385826
        },
        {
          "duration": 0.31249802083334544,
          "durationTicks": 172,
          "midi": 62,
          "name": "D4",
          "ticks": 86314,
          "time": 156.81950098958333,
          "velocity": 0.8188976377952756
        },
        {
          "duration": 0.31249802083334544,
          "durationTicks": 172,
          "midi": 67,
          "name": "G4",
          "ticks": 86314,
          "time": 156.81950098958333,
          "velocity": 0.8188976377952756
        },
        {
          "duration": 0.16715010416666587,
          "durationTicks": 92,
          "midi": 55,
          "name": "G3",
          "ticks": 86490,
          "time": 157.13926640625002,
          "velocity": 0.8582677165354331
        },
        {
          "duration": 0.16715010416666587,
          "durationTicks": 92,
          "midi": 58,
          "name": "A#3",
          "ticks": 86490,
          "time": 157.13926640625002,
          "velocity": 0.7559055118110236
        },
        {
          "duration": 0.12717942708334817,
          "durationTicks": 70,
          "midi": 55,
          "name": "G3",
          "ticks": 86586,
          "time": 157.31368390625,
          "velocity": 0.9763779527559056
        },
        {
          "duration": 0.13808052083334132,
          "durationTicks": 76,
          "midi": 67,
          "name": "G4",
          "ticks": 86596,
          "time": 157.33185239583332,
          "velocity": 0.9763779527559056
        },
        {
          "duration": 0.14534791666667957,
          "durationTicks": 80,
          "midi": 58,
          "name": "A#3",
          "ticks": 86598,
          "time": 157.33548609375,
          "velocity": 0.9133858267716536
        },
        {
          "duration": 0.14534791666667957,
          "durationTicks": 80,
          "midi": 62,
          "name": "D4",
          "ticks": 86598,
          "time": 157.33548609375,
          "velocity": 0.9763779527559056
        },
        {
          "duration": 0.1671501041666943,
          "durationTicks": 92,
          "midi": 58,
          "name": "A#3",
          "ticks": 86682,
          "time": 157.48810140625,
          "velocity": 0.7637795275590551
        },
        {
          "duration": 0.1671501041666943,
          "durationTicks": 92,
          "midi": 62,
          "name": "D4",
          "ticks": 86682,
          "time": 157.48810140625,
          "velocity": 0.8976377952755905
        },
        {
          "duration": 0.1671501041666943,
          "durationTicks": 92,
          "midi": 67,
          "name": "G4",
          "ticks": 86682,
          "time": 157.48810140625,
          "velocity": 0.7952755905511811
        },
        {
          "duration": 0.28342843749999247,
          "durationTicks": 156,
          "midi": 58,
          "name": "A#3",
          "ticks": 86778,
          "time": 157.66251890625,
          "velocity": 0.7244094488188977
        },
        {
          "duration": 0.28342843749999247,
          "durationTicks": 156,
          "midi": 62,
          "name": "D4",
          "ticks": 86778,
          "time": 157.66251890625,
          "velocity": 0.8582677165354331
        },
        {
          "duration": 0.4433111458333485,
          "durationTicks": 244,
          "midi": 55,
          "name": "G3",
          "ticks": 86784,
          "time": 157.67342,
          "velocity": 0.905511811023622
        },
        {
          "duration": 0.13808052083334132,
          "durationTicks": 76,
          "midi": 58,
          "name": "A#3",
          "ticks": 86966,
          "time": 158.00408651041667,
          "velocity": 0.905511811023622
        },
        {
          "duration": 0.1526153124999894,
          "durationTicks": 84,
          "midi": 62,
          "name": "D4",
          "ticks": 86978,
          "time": 158.02588869791668,
          "velocity": 0.9763779527559056
        },
        {
          "duration": 0.1526153124999894,
          "durationTicks": 84,
          "midi": 67,
          "name": "G4",
          "ticks": 86978,
          "time": 158.02588869791668,
          "velocity": 0.9763779527559056
        },
        {
          "duration": 0.34156760416667,
          "durationTicks": 188,
          "midi": 58,
          "name": "A#3",
          "ticks": 87066,
          "time": 158.18577140625,
          "velocity": 0.7480314960629921
        },
        {
          "duration": 0.34156760416667,
          "durationTicks": 188,
          "midi": 62,
          "name": "D4",
          "ticks": 87066,
          "time": 158.18577140625,
          "velocity": 0.8188976377952756
        },
        {
          "duration": 0.34156760416667,
          "durationTicks": 188,
          "midi": 67,
          "name": "G4",
          "ticks": 87066,
          "time": 158.18577140625,
          "velocity": 0.8188976377952756
        },
        {
          "duration": 0.1707838020833492,
          "durationTicks": 94,
          "midi": 55,
          "name": "G3",
          "ticks": 87258,
          "time": 158.53460640625,
          "velocity": 0.8582677165354331
        },
        {
          "duration": 0.1707838020833492,
          "durationTicks": 94,
          "midi": 58,
          "name": "A#3",
          "ticks": 87258,
          "time": 158.53460640625,
          "velocity": 0.8110236220472441
        },
        {
          "duration": 0.2906958333333307,
          "durationTicks": 160,
          "midi": 55,
          "name": "G3",
          "ticks": 87356,
          "time": 158.71265760416668,
          "velocity": 0.937007874015748
        },
        {
          "duration": 0.27979473958333756,
          "durationTicks": 154,
          "midi": 58,
          "name": "A#3",
          "ticks": 87362,
          "time": 158.72355869791667,
          "velocity": 0.889763779527559
        },
        {
          "duration": 0.33430020833336016,
          "durationTicks": 184,
          "midi": 62,
          "name": "D4",
          "ticks": 87364,
          "time": 158.72719239583333,
          "velocity": 0.937007874015748
        },
        {
          "duration": 0.33430020833336016,
          "durationTicks": 184,
          "midi": 67,
          "name": "G4",
          "ticks": 87364,
          "time": 158.72719239583333,
          "velocity": 0.937007874015748
        },
        {
          "duration": 0.2543588541666679,
          "durationTicks": 140,
          "midi": 58,
          "name": "A#3",
          "ticks": 87552,
          "time": 159.06876,
          "velocity": 0.7007874015748031
        },
        {
          "duration": 0.48691552083334955,
          "durationTicks": 268,
          "midi": 55,
          "name": "G3",
          "ticks": 87558,
          "time": 159.07966109375,
          "velocity": 0.952755905511811
        },
        {
          "duration": 0.1526153125000178,
          "durationTicks": 84,
          "midi": 58,
          "name": "A#3",
          "ticks": 87742,
          "time": 159.41396130208332,
          "velocity": 0.9133858267716536
        },
        {
          "duration": 0.13808052083336975,
          "durationTicks": 76,
          "midi": 67,
          "name": "G4",
          "ticks": 87748,
          "time": 159.42486239583332,
          "velocity": 0.9763779527559056
        },
        {
          "duration": 0.15624901041667272,
          "durationTicks": 86,
          "midi": 62,
          "name": "D4",
          "ticks": 87750,
          "time": 159.42849609375,
          "velocity": 0.9763779527559056
        },
        {
          "duration": 0.312498020833317,
          "durationTicks": 172,
          "midi": 62,
          "name": "D4",
          "ticks": 87840,
          "time": 159.5920125,
          "velocity": 0.8976377952755905
        },
        {
          "duration": 0.312498020833317,
          "durationTicks": 172,
          "midi": 67,
          "name": "G4",
          "ticks": 87840,
          "time": 159.5920125,
          "velocity": 0.8976377952755905
        },
        {
          "duration": 0.27979473958330914,
          "durationTicks": 154,
          "midi": 55,
          "name": "G3",
          "ticks": 87848,
          "time": 159.6065472916667,
          "velocity": 0.8976377952755905
        },
        {
          "duration": 0.31613171875000035,
          "durationTicks": 174,
          "midi": 58,
          "name": "A#3",
          "ticks": 87854,
          "time": 159.61744838541668,
          "velocity": 0.8503937007874016
        },
        {
          "duration": 0.1671501041666943,
          "durationTicks": 92,
          "midi": 55,
          "name": "G3",
          "ticks": 88032,
          "time": 159.9408475,
          "velocity": 0.8582677165354331
        },
        {
          "duration": 0.1671501041666943,
          "durationTicks": 92,
          "midi": 58,
          "name": "A#3",
          "ticks": 88032,
          "time": 159.9408475,
          "velocity": 0.7559055118110236
        },
        {
          "duration": 0.12717942708334817,
          "durationTicks": 70,
          "midi": 55,
          "name": "G3",
          "ticks": 88128,
          "time": 160.115265,
          "velocity": 0.937007874015748
        },
        {
          "duration": 0.13808052083334132,
          "durationTicks": 76,
          "midi": 67,
          "name": "G4",
          "ticks": 88138,
          "time": 160.13343348958333,
          "velocity": 0.937007874015748
        },
        {
          "duration": 0.14534791666667957,
          "durationTicks": 80,
          "midi": 58,
          "name": "A#3",
          "ticks": 88140,
          "time": 160.1370671875,
          "velocity": 0.8740157480314961
        },
        {
          "duration": 0.14534791666667957,
          "durationTicks": 80,
          "midi": 62,
          "name": "D4",
          "ticks": 88140,
          "time": 160.1370671875,
          "velocity": 0.937007874015748
        },
        {
          "duration": 0.16715010416666587,
          "durationTicks": 92,
          "midi": 58,
          "name": "A#3",
          "ticks": 88224,
          "time": 160.2896825,
          "velocity": 0.7244094488188977
        },
        {
          "duration": 0.16715010416666587,
          "durationTicks": 92,
          "midi": 62,
          "name": "D4",
          "ticks": 88224,
          "time": 160.2896825,
          "velocity": 0.8582677165354331
        },
        {
          "duration": 0.16715010416666587,
          "durationTicks": 92,
          "midi": 67,
          "name": "G4",
          "ticks": 88224,
          "time": 160.2896825,
          "velocity": 0.7559055118110236
        },
        {
          "duration": 0.28342843749999247,
          "durationTicks": 156,
          "midi": 58,
          "name": "A#3",
          "ticks": 88320,
          "time": 160.4641,
          "velocity": 0.7244094488188977
        },
        {
          "duration": 0.28342843749999247,
          "durationTicks": 156,
          "midi": 62,
          "name": "D4",
          "ticks": 88320,
          "time": 160.4641,
          "velocity": 0.8582677165354331
        },
        {
          "duration": 0.4433111458333485,
          "durationTicks": 244,
          "midi": 55,
          "name": "G3",
          "ticks": 88326,
          "time": 160.47500109375,
          "velocity": 0.905511811023622
        },
        {
          "duration": 0.13808052083334132,
          "durationTicks": 76,
          "midi": 58,
          "name": "A#3",
          "ticks": 88508,
          "time": 160.80566760416667,
          "velocity": 0.905511811023622
        },
        {
          "duration": 0.1526153124999894,
          "durationTicks": 84,
          "midi": 62,
          "name": "D4",
          "ticks": 88520,
          "time": 160.8274697916667,
          "velocity": 0.9763779527559056
        },
        {
          "duration": 0.1526153124999894,
          "durationTicks": 84,
          "midi": 67,
          "name": "G4",
          "ticks": 88520,
          "time": 160.8274697916667,
          "velocity": 0.9763779527559056
        },
        {
          "duration": 0.34156760416667,
          "durationTicks": 188,
          "midi": 55,
          "name": "G3",
          "ticks": 88608,
          "time": 160.98735250000001,
          "velocity": 0.7637795275590551
        },
        {
          "duration": 0.34156760416667,
          "durationTicks": 188,
          "midi": 58,
          "name": "A#3",
          "ticks": 88608,
          "time": 160.98735250000001,
          "velocity": 0.8267716535433071
        },
        {
          "duration": 0.34156760416667,
          "durationTicks": 188,
          "midi": 62,
          "name": "D4",
          "ticks": 88608,
          "time": 160.98735250000001,
          "velocity": 0.8976377952755905
        },
        {
          "duration": 0.34156760416667,
          "durationTicks": 188,
          "midi": 67,
          "name": "G4",
          "ticks": 88608,
          "time": 160.98735250000001,
          "velocity": 0.8976377952755905
        },
        {
          "duration": 0.1707838020833492,
          "durationTicks": 94,
          "midi": 55,
          "name": "G3",
          "ticks": 88800,
          "time": 161.3361875,
          "velocity": 0.8582677165354331
        },
        {
          "duration": 0.1707838020833492,
          "durationTicks": 94,
          "midi": 58,
          "name": "A#3",
          "ticks": 88800,
          "time": 161.3361875,
          "velocity": 0.8110236220472441
        },
        {
          "duration": 0.27979473958330914,
          "durationTicks": 154,
          "midi": 55,
          "name": "G3",
          "ticks": 88898,
          "time": 161.51423869791668,
          "velocity": 0.937007874015748
        },
        {
          "duration": 0.268893645833316,
          "durationTicks": 148,
          "midi": 58,
          "name": "A#3",
          "ticks": 88904,
          "time": 161.52513979166667,
          "velocity": 0.889763779527559
        },
        {
          "duration": 0.3233991145833386,
          "durationTicks": 178,
          "midi": 62,
          "name": "D4",
          "ticks": 88906,
          "time": 161.52877348958333,
          "velocity": 0.937007874015748
        },
        {
          "duration": 0.3233991145833386,
          "durationTicks": 178,
          "midi": 67,
          "name": "G4",
          "ticks": 88906,
          "time": 161.52877348958333,
          "velocity": 0.937007874015748
        },
        {
          "duration": 0.2543588541666679,
          "durationTicks": 140,
          "midi": 57,
          "name": "A3",
          "ticks": 89088,
          "time": 161.85944,
          "velocity": 0.7007874015748031
        },
        {
          "duration": 0.4869155208333211,
          "durationTicks": 268,
          "midi": 53,
          "name": "F3",
          "ticks": 89094,
          "time": 161.87034109375,
          "velocity": 0.952755905511811
        },
        {
          "duration": 0.1526153124999894,
          "durationTicks": 84,
          "midi": 57,
          "name": "A3",
          "ticks": 89280,
          "time": 162.20827500000001,
          "velocity": 0.9133858267716536
        },
        {
          "duration": 0.13808052083334132,
          "durationTicks": 76,
          "midi": 65,
          "name": "F4",
          "ticks": 89284,
          "time": 162.21554239583332,
          "velocity": 0.9763779527559056
        },
        {
          "duration": 0.15624901041667272,
          "durationTicks": 86,
          "midi": 60,
          "name": "C4",
          "ticks": 89286,
          "time": 162.21917609375,
          "velocity": 0.9763779527559056
        },
        {
          "duration": 0.2652599479166895,
          "durationTicks": 146,
          "midi": 57,
          "name": "A3",
          "ticks": 89376,
          "time": 162.3826925,
          "velocity": 0.8503937007874016
        },
        {
          "duration": 0.31249802083334544,
          "durationTicks": 172,
          "midi": 60,
          "name": "C4",
          "ticks": 89376,
          "time": 162.3826925,
          "velocity": 0.8976377952755905
        },
        {
          "duration": 0.31249802083334544,
          "durationTicks": 172,
          "midi": 65,
          "name": "F4",
          "ticks": 89376,
          "time": 162.3826925,
          "velocity": 0.8976377952755905
        },
        {
          "duration": 0.3270328125000219,
          "durationTicks": 180,
          "midi": 53,
          "name": "F3",
          "ticks": 89384,
          "time": 162.39722729166667,
          "velocity": 0.8976377952755905
        },
        {
          "duration": 0.16715010416666587,
          "durationTicks": 92,
          "midi": 53,
          "name": "F3",
          "ticks": 89568,
          "time": 162.7315275,
          "velocity": 0.8582677165354331
        },
        {
          "duration": 0.16715010416666587,
          "durationTicks": 92,
          "midi": 57,
          "name": "A3",
          "ticks": 89568,
          "time": 162.7315275,
          "velocity": 0.7559055118110236
        },
        {
          "duration": 0.12717942708331975,
          "durationTicks": 70,
          "midi": 53,
          "name": "F3",
          "ticks": 89664,
          "time": 162.905945,
          "velocity": 0.937007874015748
        },
        {
          "duration": 0.11991203125000993,
          "durationTicks": 66,
          "midi": 57,
          "name": "A3",
          "ticks": 89664,
          "time": 162.905945,
          "velocity": 0.8740157480314961
        },
        {
          "duration": 0.13808052083334132,
          "durationTicks": 76,
          "midi": 65,
          "name": "F4",
          "ticks": 89674,
          "time": 162.92411348958333,
          "velocity": 0.937007874015748
        },
        {
          "duration": 0.14534791666667957,
          "durationTicks": 80,
          "midi": 60,
          "name": "C4",
          "ticks": 89676,
          "time": 162.9277471875,
          "velocity": 0.937007874015748
        },
        {
          "duration": 0.16715010416666587,
          "durationTicks": 92,
          "midi": 57,
          "name": "A3",
          "ticks": 89760,
          "time": 163.0803625,
          "velocity": 0.7244094488188977
        },
        {
          "duration": 0.16715010416666587,
          "durationTicks": 92,
          "midi": 60,
          "name": "C4",
          "ticks": 89760,
          "time": 163.0803625,
          "velocity": 0.8582677165354331
        },
        {
          "duration": 0.16715010416666587,
          "durationTicks": 92,
          "midi": 65,
          "name": "F4",
          "ticks": 89760,
          "time": 163.0803625,
          "velocity": 0.7559055118110236
        },
        {
          "duration": 0.28342843749999247,
          "durationTicks": 156,
          "midi": 57,
          "name": "A3",
          "ticks": 89856,
          "time": 163.25478,
          "velocity": 0.7244094488188977
        },
        {
          "duration": 0.28342843749999247,
          "durationTicks": 156,
          "midi": 60,
          "name": "C4",
          "ticks": 89856,
          "time": 163.25478,
          "velocity": 0.8582677165354331
        },
        {
          "duration": 0.4433111458333201,
          "durationTicks": 244,
          "midi": 53,
          "name": "F3",
          "ticks": 89862,
          "time": 163.26568109375,
          "velocity": 0.905511811023622
        },
        {
          "duration": 0.13808052083334132,
          "durationTicks": 76,
          "midi": 57,
          "name": "A3",
          "ticks": 90048,
          "time": 163.603615,
          "velocity": 0.905511811023622
        },
        {
          "duration": 0.1526153125000178,
          "durationTicks": 84,
          "midi": 60,
          "name": "C4",
          "ticks": 90056,
          "time": 163.61814979166667,
          "velocity": 0.9763779527559056
        },
        {
          "duration": 0.1526153125000178,
          "durationTicks": 84,
          "midi": 65,
          "name": "F4",
          "ticks": 90056,
          "time": 163.61814979166667,
          "velocity": 0.9763779527559056
        },
        {
          "duration": 0.34156760416667,
          "durationTicks": 188,
          "midi": 53,
          "name": "F3",
          "ticks": 90144,
          "time": 163.7780325,
          "velocity": 0.7637795275590551
        },
        {
          "duration": 0.34156760416667,
          "durationTicks": 188,
          "midi": 57,
          "name": "A3",
          "ticks": 90144,
          "time": 163.7780325,
          "velocity": 0.8267716535433071
        },
        {
          "duration": 0.34156760416667,
          "durationTicks": 188,
          "midi": 60,
          "name": "C4",
          "ticks": 90144,
          "time": 163.7780325,
          "velocity": 0.8976377952755905
        },
        {
          "duration": 0.34156760416667,
          "durationTicks": 188,
          "midi": 65,
          "name": "F4",
          "ticks": 90144,
          "time": 163.7780325,
          "velocity": 0.8976377952755905
        },
        {
          "duration": 0.16715010416666587,
          "durationTicks": 92,
          "midi": 53,
          "name": "F3",
          "ticks": 90336,
          "time": 164.1268675,
          "velocity": 0.8582677165354331
        },
        {
          "duration": 0.16715010416666587,
          "durationTicks": 92,
          "midi": 57,
          "name": "A3",
          "ticks": 90336,
          "time": 164.1268675,
          "velocity": 0.8110236220472441
        },
        {
          "duration": 0.2652599479166611,
          "durationTicks": 146,
          "midi": 57,
          "name": "A3",
          "ticks": 90432,
          "time": 164.301285,
          "velocity": 0.889763779527559
        },
        {
          "duration": 0.27979473958333756,
          "durationTicks": 154,
          "midi": 53,
          "name": "F3",
          "ticks": 90434,
          "time": 164.30491869791666,
          "velocity": 0.937007874015748
        },
        {
          "duration": 0.3233991145833386,
          "durationTicks": 178,
          "midi": 60,
          "name": "C4",
          "ticks": 90442,
          "time": 164.31945348958334,
          "velocity": 0.937007874015748
        },
        {
          "duration": 0.3233991145833386,
          "durationTicks": 178,
          "midi": 65,
          "name": "F4",
          "ticks": 90442,
          "time": 164.31945348958334,
          "velocity": 0.937007874015748
        },
        {
          "duration": 0.4869155208333211,
          "durationTicks": 268,
          "midi": 54,
          "name": "F#3",
          "ticks": 90624,
          "time": 164.65012000000002,
          "velocity": 0.952755905511811
        },
        {
          "duration": 0.2543588541666679,
          "durationTicks": 140,
          "midi": 57,
          "name": "A3",
          "ticks": 90624,
          "time": 164.65012000000002,
          "velocity": 0.7007874015748031
        },
        {
          "duration": 0.1526153125000178,
          "durationTicks": 84,
          "midi": 57,
          "name": "A3",
          "ticks": 90808,
          "time": 164.98442020833332,
          "velocity": 0.9133858267716536
        },
        {
          "duration": 0.13808052083334132,
          "durationTicks": 76,
          "midi": 66,
          "name": "F#4",
          "ticks": 90814,
          "time": 164.99532130208334,
          "velocity": 0.9763779527559056
        },
        {
          "duration": 0.1671501041666943,
          "durationTicks": 92,
          "midi": 60,
          "name": "C4",
          "ticks": 90816,
          "time": 164.998955,
          "velocity": 0.9763779527559056
        },
        {
          "duration": 0.33066651041667683,
          "durationTicks": 182,
          "midi": 57,
          "name": "A3",
          "ticks": 90912,
          "time": 165.1733725,
          "velocity": 0.6456692913385826
        },
        {
          "duration": 0.31249802083334544,
          "durationTicks": 172,
          "midi": 60,
          "name": "C4",
          "ticks": 90922,
          "time": 165.19154098958333,
          "velocity": 0.8188976377952756
        },
        {
          "duration": 0.31249802083334544,
          "durationTicks": 172,
          "midi": 66,
          "name": "F#4",
          "ticks": 90922,
          "time": 165.19154098958333,
          "velocity": 0.8188976377952756
        },
        {
          "duration": 0.16715010416666587,
          "durationTicks": 92,
          "midi": 54,
          "name": "F#3",
          "ticks": 91098,
          "time": 165.51130640625001,
          "velocity": 0.8582677165354331
        },
        {
          "duration": 0.16715010416666587,
          "durationTicks": 92,
          "midi": 57,
          "name": "A3",
          "ticks": 91098,
          "time": 165.51130640625001,
          "velocity": 0.7559055118110236
        },
        {
          "duration": 0.12717942708334817,
          "durationTicks": 70,
          "midi": 54,
          "name": "F#3",
          "ticks": 91194,
          "time": 165.68572390625,
          "velocity": 0.9763779527559056
        },
        {
          "duration": 0.13808052083334132,
          "durationTicks": 76,
          "midi": 66,
          "name": "F#4",
          "ticks": 91204,
          "time": 165.70389239583332,
          "velocity": 0.9763779527559056
        },
        {
          "duration": 0.14534791666667957,
          "durationTicks": 80,
          "midi": 57,
          "name": "A3",
          "ticks": 91206,
          "time": 165.70752609375,
          "velocity": 0.9133858267716536
        },
        {
          "duration": 0.14534791666667957,
          "durationTicks": 80,
          "midi": 60,
          "name": "C4",
          "ticks": 91206,
          "time": 165.70752609375,
          "velocity": 0.9763779527559056
        },
        {
          "duration": 0.1671501041666943,
          "durationTicks": 92,
          "midi": 57,
          "name": "A3",
          "ticks": 91290,
          "time": 165.86014140625,
          "velocity": 0.7637795275590551
        },
        {
          "duration": 0.1671501041666943,
          "durationTicks": 92,
          "midi": 60,
          "name": "C4",
          "ticks": 91290,
          "time": 165.86014140625,
          "velocity": 0.8976377952755905
        },
        {
          "duration": 0.1671501041666943,
          "durationTicks": 92,
          "midi": 66,
          "name": "F#4",
          "ticks": 91290,
          "time": 165.86014140625,
          "velocity": 0.7952755905511811
        },
        {
          "duration": 0.28342843749999247,
          "durationTicks": 156,
          "midi": 57,
          "name": "A3",
          "ticks": 91386,
          "time": 166.03455890625,
          "velocity": 0.7244094488188977
        },
        {
          "duration": 0.28342843749999247,
          "durationTicks": 156,
          "midi": 60,
          "name": "C4",
          "ticks": 91386,
          "time": 166.03455890625,
          "velocity": 0.8582677165354331
        },
        {
          "duration": 0.4433111458333485,
          "durationTicks": 244,
          "midi": 54,
          "name": "F#3",
          "ticks": 91392,
          "time": 166.04546,
          "velocity": 0.905511811023622
        },
        {
          "duration": 0.13808052083334132,
          "durationTicks": 76,
          "midi": 57,
          "name": "A3",
          "ticks": 91574,
          "time": 166.37612651041667,
          "velocity": 0.905511811023622
        },
        {
          "duration": 0.1526153124999894,
          "durationTicks": 84,
          "midi": 60,
          "name": "C4",
          "ticks": 91586,
          "time": 166.39792869791668,
          "velocity": 0.9763779527559056
        },
        {
          "duration": 0.1526153124999894,
          "durationTicks": 84,
          "midi": 66,
          "name": "F#4",
          "ticks": 91586,
          "time": 166.39792869791668,
          "velocity": 0.9763779527559056
        },
        {
          "duration": 0.34156760416667,
          "durationTicks": 188,
          "midi": 57,
          "name": "A3",
          "ticks": 91674,
          "time": 166.55781140625,
          "velocity": 0.7480314960629921
        },
        {
          "duration": 0.34156760416667,
          "durationTicks": 188,
          "midi": 60,
          "name": "C4",
          "ticks": 91674,
          "time": 166.55781140625,
          "velocity": 0.8188976377952756
        },
        {
          "duration": 0.34156760416667,
          "durationTicks": 188,
          "midi": 66,
          "name": "F#4",
          "ticks": 91674,
          "time": 166.55781140625,
          "velocity": 0.8188976377952756
        },
        {
          "duration": 0.1707838020833492,
          "durationTicks": 94,
          "midi": 54,
          "name": "F#3",
          "ticks": 91866,
          "time": 166.90664640625,
          "velocity": 0.8582677165354331
        },
        {
          "duration": 0.1707838020833492,
          "durationTicks": 94,
          "midi": 57,
          "name": "A3",
          "ticks": 91866,
          "time": 166.90664640625,
          "velocity": 0.8110236220472441
        },
        {
          "duration": 0.2906958333333307,
          "durationTicks": 160,
          "midi": 54,
          "name": "F#3",
          "ticks": 91964,
          "time": 167.08469760416668,
          "velocity": 0.937007874015748
        },
        {
          "duration": 0.27979473958333756,
          "durationTicks": 154,
          "midi": 57,
          "name": "A3",
          "ticks": 91970,
          "time": 167.09559869791667,
          "velocity": 0.889763779527559
        },
        {
          "duration": 0.33430020833336016,
          "durationTicks": 184,
          "midi": 60,
          "name": "C4",
          "ticks": 91972,
          "time": 167.09923239583333,
          "velocity": 0.937007874015748
        },
        {
          "duration": 0.33430020833336016,
          "durationTicks": 184,
          "midi": 66,
          "name": "F#4",
          "ticks": 91972,
          "time": 167.09923239583333,
          "velocity": 0.937007874015748
        },
        {
          "duration": 0.4869155208333211,
          "durationTicks": 268,
          "midi": 55,
          "name": "G3",
          "ticks": 92160,
          "time": 167.4408,
          "velocity": 0.952755905511811
        },
        {
          "duration": 0.2543588541666679,
          "durationTicks": 140,
          "midi": 58,
          "name": "A#3",
          "ticks": 92160,
          "time": 167.4408,
          "velocity": 0.7007874015748031
        },
        {
          "duration": 0.1526153124999894,
          "durationTicks": 84,
          "midi": 58,
          "name": "A#3",
          "ticks": 92344,
          "time": 167.77510020833333,
          "velocity": 0.9133858267716536
        },
        {
          "duration": 0.13808052083334132,
          "durationTicks": 76,
          "midi": 67,
          "name": "G4",
          "ticks": 92350,
          "time": 167.78600130208332,
          "velocity": 0.9763779527559056
        },
        {
          "duration": 0.16715010416666587,
          "durationTicks": 92,
          "midi": 62,
          "name": "D4",
          "ticks": 92352,
          "time": 167.789635,
          "velocity": 0.9763779527559056
        },
        {
          "duration": 0.33066651041667683,
          "durationTicks": 182,
          "midi": 58,
          "name": "A#3",
          "ticks": 92448,
          "time": 167.9640525,
          "velocity": 0.6456692913385826
        },
        {
          "duration": 0.31249802083334544,
          "durationTicks": 172,
          "midi": 62,
          "name": "D4",
          "ticks": 92458,
          "time": 167.98222098958334,
          "velocity": 0.8188976377952756
        },
        {
          "duration": 0.31249802083334544,
          "durationTicks": 172,
          "midi": 67,
          "name": "G4",
          "ticks": 92458,
          "time": 167.98222098958334,
          "velocity": 0.8188976377952756
        },
        {
          "duration": 0.1671501041666943,
          "durationTicks": 92,
          "midi": 55,
          "name": "G3",
          "ticks": 92634,
          "time": 168.30198640625,
          "velocity": 0.8582677165354331
        },
        {
          "duration": 0.1671501041666943,
          "durationTicks": 92,
          "midi": 58,
          "name": "A#3",
          "ticks": 92634,
          "time": 168.30198640625,
          "velocity": 0.7559055118110236
        },
        {
          "duration": 0.12717942708331975,
          "durationTicks": 70,
          "midi": 55,
          "name": "G3",
          "ticks": 92730,
          "time": 168.47640390625,
          "velocity": 0.9763779527559056
        },
        {
          "duration": 0.13808052083334132,
          "durationTicks": 76,
          "midi": 67,
          "name": "G4",
          "ticks": 92740,
          "time": 168.49457239583333,
          "velocity": 0.9763779527559056
        },
        {
          "duration": 0.14534791666665114,
          "durationTicks": 80,
          "midi": 58,
          "name": "A#3",
          "ticks": 92742,
          "time": 168.49820609375,
          "velocity": 0.9133858267716536
        },
        {
          "duration": 0.14534791666665114,
          "durationTicks": 80,
          "midi": 62,
          "name": "D4",
          "ticks": 92742,
          "time": 168.49820609375,
          "velocity": 0.9763779527559056
        },
        {
          "duration": 0.16715010416666587,
          "durationTicks": 92,
          "midi": 58,
          "name": "A#3",
          "ticks": 92826,
          "time": 168.65082140625,
          "velocity": 0.7637795275590551
        },
        {
          "duration": 0.16715010416666587,
          "durationTicks": 92,
          "midi": 62,
          "name": "D4",
          "ticks": 92826,
          "time": 168.65082140625,
          "velocity": 0.8976377952755905
        },
        {
          "duration": 0.16715010416666587,
          "durationTicks": 92,
          "midi": 67,
          "name": "G4",
          "ticks": 92826,
          "time": 168.65082140625,
          "velocity": 0.7952755905511811
        },
        {
          "duration": 0.28342843749999247,
          "durationTicks": 156,
          "midi": 58,
          "name": "A#3",
          "ticks": 92922,
          "time": 168.82523890625,
          "velocity": 0.7244094488188977
        },
        {
          "duration": 0.28342843749999247,
          "durationTicks": 156,
          "midi": 62,
          "name": "D4",
          "ticks": 92922,
          "time": 168.82523890625,
          "velocity": 0.8582677165354331
        },
        {
          "duration": 0.4433111458333201,
          "durationTicks": 244,
          "midi": 55,
          "name": "G3",
          "ticks": 92928,
          "time": 168.83614,
          "velocity": 0.905511811023622
        },
        {
          "duration": 0.1380805208333129,
          "durationTicks": 76,
          "midi": 58,
          "name": "A#3",
          "ticks": 93110,
          "time": 169.16680651041668,
          "velocity": 0.905511811023622
        },
        {
          "duration": 0.1526153125000178,
          "durationTicks": 84,
          "midi": 62,
          "name": "D4",
          "ticks": 93122,
          "time": 169.18860869791666,
          "velocity": 0.9763779527559056
        },
        {
          "duration": 0.1526153125000178,
          "durationTicks": 84,
          "midi": 67,
          "name": "G4",
          "ticks": 93122,
          "time": 169.18860869791666,
          "velocity": 0.9763779527559056
        },
        {
          "duration": 0.3415676041666984,
          "durationTicks": 188,
          "midi": 58,
          "name": "A#3",
          "ticks": 93210,
          "time": 169.34849140625,
          "velocity": 0.7480314960629921
        },
        {
          "duration": 0.3415676041666984,
          "durationTicks": 188,
          "midi": 62,
          "name": "D4",
          "ticks": 93210,
          "time": 169.34849140625,
          "velocity": 0.8188976377952756
        },
        {
          "duration": 0.3415676041666984,
          "durationTicks": 188,
          "midi": 67,
          "name": "G4",
          "ticks": 93210,
          "time": 169.34849140625,
          "velocity": 0.8188976377952756
        },
        {
          "duration": 0.17078380208332078,
          "durationTicks": 94,
          "midi": 55,
          "name": "G3",
          "ticks": 93402,
          "time": 169.69732640625,
          "velocity": 0.8582677165354331
        },
        {
          "duration": 0.17078380208332078,
          "durationTicks": 94,
          "midi": 58,
          "name": "A#3",
          "ticks": 93402,
          "time": 169.69732640625,
          "velocity": 0.8110236220472441
        },
        {
          "duration": 0.2906958333333023,
          "durationTicks": 160,
          "midi": 55,
          "name": "G3",
          "ticks": 93500,
          "time": 169.8753776041667,
          "velocity": 0.937007874015748
        },
        {
          "duration": 0.27979473958330914,
          "durationTicks": 154,
          "midi": 58,
          "name": "A#3",
          "ticks": 93506,
          "time": 169.88627869791668,
          "velocity": 0.889763779527559
        },
        {
          "duration": 0.33430020833333174,
          "durationTicks": 184,
          "midi": 62,
          "name": "D4",
          "ticks": 93508,
          "time": 169.88991239583333,
          "velocity": 0.937007874015748
        },
        {
          "duration": 0.33430020833333174,
          "durationTicks": 184,
          "midi": 67,
          "name": "G4",
          "ticks": 93508,
          "time": 169.88991239583333,
          "velocity": 0.937007874015748
        },
        {
          "duration": 0.2543588541666679,
          "durationTicks": 140,
          "midi": 58,
          "name": "A#3",
          "ticks": 93696,
          "time": 170.23148,
          "velocity": 0.7007874015748031
        },
        {
          "duration": 0.4869155208333211,
          "durationTicks": 268,
          "midi": 55,
          "name": "G3",
          "ticks": 93702,
          "time": 170.24238109375,
          "velocity": 0.952755905511811
        },
        {
          "duration": 0.1526153124999894,
          "durationTicks": 84,
          "midi": 58,
          "name": "A#3",
          "ticks": 93886,
          "time": 170.57668130208333,
          "velocity": 0.9133858267716536
        },
        {
          "duration": 0.13808052083334132,
          "durationTicks": 76,
          "midi": 67,
          "name": "G4",
          "ticks": 93892,
          "time": 170.58758239583332,
          "velocity": 0.9763779527559056
        },
        {
          "duration": 0.15624901041667272,
          "durationTicks": 86,
          "midi": 62,
          "name": "D4",
          "ticks": 93894,
          "time": 170.59121609375,
          "velocity": 0.9763779527559056
        },
        {
          "duration": 0.312498020833317,
          "durationTicks": 172,
          "midi": 62,
          "name": "D4",
          "ticks": 93984,
          "time": 170.75473250000002,
          "velocity": 0.8976377952755905
        },
        {
          "duration": 0.312498020833317,
          "durationTicks": 172,
          "midi": 67,
          "name": "G4",
          "ticks": 93984,
          "time": 170.75473250000002,
          "velocity": 0.8976377952755905
        },
        {
          "duration": 0.27979473958333756,
          "durationTicks": 154,
          "midi": 55,
          "name": "G3",
          "ticks": 93992,
          "time": 170.76926729166667,
          "velocity": 0.8976377952755905
        },
        {
          "duration": 0.31613171875000035,
          "durationTicks": 174,
          "midi": 58,
          "name": "A#3",
          "ticks": 93998,
          "time": 170.7801683854167,
          "velocity": 0.8503937007874016
        },
        {
          "duration": 0.16715010416666587,
          "durationTicks": 92,
          "midi": 55,
          "name": "G3",
          "ticks": 94176,
          "time": 171.1035675,
          "velocity": 0.8582677165354331
        },
        {
          "duration": 0.16715010416666587,
          "durationTicks": 92,
          "midi": 58,
          "name": "A#3",
          "ticks": 94176,
          "time": 171.1035675,
          "velocity": 0.7559055118110236
        },
        {
          "duration": 0.12717942708331975,
          "durationTicks": 70,
          "midi": 55,
          "name": "G3",
          "ticks": 94272,
          "time": 171.277985,
          "velocity": 0.937007874015748
        },
        {
          "duration": 0.13808052083334132,
          "durationTicks": 76,
          "midi": 67,
          "name": "G4",
          "ticks": 94282,
          "time": 171.29615348958333,
          "velocity": 0.937007874015748
        },
        {
          "duration": 0.14534791666665114,
          "durationTicks": 80,
          "midi": 58,
          "name": "A#3",
          "ticks": 94284,
          "time": 171.29978718750002,
          "velocity": 0.8740157480314961
        },
        {
          "duration": 0.14534791666665114,
          "durationTicks": 80,
          "midi": 62,
          "name": "D4",
          "ticks": 94284,
          "time": 171.29978718750002,
          "velocity": 0.937007874015748
        },
        {
          "duration": 0.16715010416666587,
          "durationTicks": 92,
          "midi": 58,
          "name": "A#3",
          "ticks": 94368,
          "time": 171.4524025,
          "velocity": 0.7244094488188977
        },
        {
          "duration": 0.16715010416666587,
          "durationTicks": 92,
          "midi": 62,
          "name": "D4",
          "ticks": 94368,
          "time": 171.4524025,
          "velocity": 0.8582677165354331
        },
        {
          "duration": 0.16715010416666587,
          "durationTicks": 92,
          "midi": 67,
          "name": "G4",
          "ticks": 94368,
          "time": 171.4524025,
          "velocity": 0.7559055118110236
        },
        {
          "duration": 0.28342843749999247,
          "durationTicks": 156,
          "midi": 58,
          "name": "A#3",
          "ticks": 94464,
          "time": 171.62682,
          "velocity": 0.7244094488188977
        },
        {
          "duration": 0.28342843749999247,
          "durationTicks": 156,
          "midi": 62,
          "name": "D4",
          "ticks": 94464,
          "time": 171.62682,
          "velocity": 0.8582677165354331
        },
        {
          "duration": 0.4433111458333201,
          "durationTicks": 244,
          "midi": 55,
          "name": "G3",
          "ticks": 94470,
          "time": 171.63772109375,
          "velocity": 0.905511811023622
        },
        {
          "duration": 0.1380805208333129,
          "durationTicks": 76,
          "midi": 58,
          "name": "A#3",
          "ticks": 94652,
          "time": 171.96838760416668,
          "velocity": 0.905511811023622
        },
        {
          "duration": 0.1526153125000178,
          "durationTicks": 84,
          "midi": 62,
          "name": "D4",
          "ticks": 94664,
          "time": 171.99018979166667,
          "velocity": 0.9763779527559056
        },
        {
          "duration": 0.1526153125000178,
          "durationTicks": 84,
          "midi": 67,
          "name": "G4",
          "ticks": 94664,
          "time": 171.99018979166667,
          "velocity": 0.9763779527559056
        },
        {
          "duration": 0.34156760416667,
          "durationTicks": 188,
          "midi": 55,
          "name": "G3",
          "ticks": 94752,
          "time": 172.1500725,
          "velocity": 0.7637795275590551
        },
        {
          "duration": 0.34156760416667,
          "durationTicks": 188,
          "midi": 58,
          "name": "A#3",
          "ticks": 94752,
          "time": 172.1500725,
          "velocity": 0.8267716535433071
        },
        {
          "duration": 0.34156760416667,
          "durationTicks": 188,
          "midi": 62,
          "name": "D4",
          "ticks": 94752,
          "time": 172.1500725,
          "velocity": 0.8976377952755905
        },
        {
          "duration": 0.34156760416667,
          "durationTicks": 188,
          "midi": 67,
          "name": "G4",
          "ticks": 94752,
          "time": 172.1500725,
          "velocity": 0.8976377952755905
        },
        {
          "duration": 0.17078380208332078,
          "durationTicks": 94,
          "midi": 55,
          "name": "G3",
          "ticks": 94944,
          "time": 172.4989075,
          "velocity": 0.8582677165354331
        },
        {
          "duration": 0.17078380208332078,
          "durationTicks": 94,
          "midi": 58,
          "name": "A#3",
          "ticks": 94944,
          "time": 172.4989075,
          "velocity": 0.8110236220472441
        },
        {
          "duration": 0.27979473958330914,
          "durationTicks": 154,
          "midi": 55,
          "name": "G3",
          "ticks": 95042,
          "time": 172.6769586979167,
          "velocity": 0.937007874015748
        },
        {
          "duration": 0.268893645833316,
          "durationTicks": 148,
          "midi": 58,
          "name": "A#3",
          "ticks": 95048,
          "time": 172.68785979166668,
          "velocity": 0.889763779527559
        },
        {
          "duration": 0.3233991145833386,
          "durationTicks": 178,
          "midi": 62,
          "name": "D4",
          "ticks": 95050,
          "time": 172.69149348958334,
          "velocity": 0.937007874015748
        },
        {
          "duration": 0.3233991145833386,
          "durationTicks": 178,
          "midi": 67,
          "name": "G4",
          "ticks": 95050,
          "time": 172.69149348958334,
          "velocity": 0.937007874015748
        },
        {
          "duration": 0.2543588541666679,
          "durationTicks": 140,
          "midi": 57,
          "name": "A3",
          "ticks": 95232,
          "time": 173.02216,
          "velocity": 0.7007874015748031
        },
        {
          "duration": 0.4869155208333211,
          "durationTicks": 268,
          "midi": 53,
          "name": "F3",
          "ticks": 95238,
          "time": 173.03306109375,
          "velocity": 0.952755905511811
        },
        {
          "duration": 0.1526153125000178,
          "durationTicks": 84,
          "midi": 57,
          "name": "A3",
          "ticks": 95424,
          "time": 173.370995,
          "velocity": 0.9133858267716536
        },
        {
          "duration": 0.13808052083334132,
          "durationTicks": 76,
          "midi": 65,
          "name": "F4",
          "ticks": 95428,
          "time": 173.37826239583333,
          "velocity": 0.9763779527559056
        },
        {
          "duration": 0.15624901041667272,
          "durationTicks": 86,
          "midi": 60,
          "name": "C4",
          "ticks": 95430,
          "time": 173.38189609375002,
          "velocity": 0.9763779527559056
        },
        {
          "duration": 0.2652599479166895,
          "durationTicks": 146,
          "midi": 57,
          "name": "A3",
          "ticks": 95520,
          "time": 173.5454125,
          "velocity": 0.8503937007874016
        },
        {
          "duration": 0.31249802083334544,
          "durationTicks": 172,
          "midi": 60,
          "name": "C4",
          "ticks": 95520,
          "time": 173.5454125,
          "velocity": 0.8976377952755905
        },
        {
          "duration": 0.31249802083334544,
          "durationTicks": 172,
          "midi": 65,
          "name": "F4",
          "ticks": 95520,
          "time": 173.5454125,
          "velocity": 0.8976377952755905
        },
        {
          "duration": 0.3270328124999935,
          "durationTicks": 180,
          "midi": 53,
          "name": "F3",
          "ticks": 95528,
          "time": 173.55994729166667,
          "velocity": 0.8976377952755905
        },
        {
          "duration": 0.16715010416666587,
          "durationTicks": 92,
          "midi": 53,
          "name": "F3",
          "ticks": 95712,
          "time": 173.8942475,
          "velocity": 0.8582677165354331
        },
        {
          "duration": 0.16715010416666587,
          "durationTicks": 92,
          "midi": 57,
          "name": "A3",
          "ticks": 95712,
          "time": 173.8942475,
          "velocity": 0.7559055118110236
        },
        {
          "duration": 0.12717942708331975,
          "durationTicks": 70,
          "midi": 53,
          "name": "F3",
          "ticks": 95808,
          "time": 174.068665,
          "velocity": 0.937007874015748
        },
        {
          "duration": 0.11991203124998151,
          "durationTicks": 66,
          "midi": 57,
          "name": "A3",
          "ticks": 95808,
          "time": 174.068665,
          "velocity": 0.8740157480314961
        },
        {
          "duration": 0.13808052083334132,
          "durationTicks": 76,
          "midi": 65,
          "name": "F4",
          "ticks": 95818,
          "time": 174.08683348958334,
          "velocity": 0.937007874015748
        },
        {
          "duration": 0.14534791666667957,
          "durationTicks": 80,
          "midi": 60,
          "name": "C4",
          "ticks": 95820,
          "time": 174.0904671875,
          "velocity": 0.937007874015748
        },
        {
          "duration": 0.16715010416666587,
          "durationTicks": 92,
          "midi": 57,
          "name": "A3",
          "ticks": 95904,
          "time": 174.2430825,
          "velocity": 0.7244094488188977
        },
        {
          "duration": 0.16715010416666587,
          "durationTicks": 92,
          "midi": 60,
          "name": "C4",
          "ticks": 95904,
          "time": 174.2430825,
          "velocity": 0.8582677165354331
        },
        {
          "duration": 0.16715010416666587,
          "durationTicks": 92,
          "midi": 65,
          "name": "F4",
          "ticks": 95904,
          "time": 174.2430825,
          "velocity": 0.7559055118110236
        },
        {
          "duration": 0.2834284375000209,
          "durationTicks": 156,
          "midi": 57,
          "name": "A3",
          "ticks": 96000,
          "time": 174.4175,
          "velocity": 0.7244094488188977
        },
        {
          "duration": 0.2834284375000209,
          "durationTicks": 156,
          "midi": 60,
          "name": "C4",
          "ticks": 96000,
          "time": 174.4175,
          "velocity": 0.8582677165354331
        },
        {
          "duration": 0.4433111458333201,
          "durationTicks": 244,
          "midi": 53,
          "name": "F3",
          "ticks": 96006,
          "time": 174.42840109375,
          "velocity": 0.905511811023622
        },
        {
          "duration": 0.13808052083334132,
          "durationTicks": 76,
          "midi": 57,
          "name": "A3",
          "ticks": 96192,
          "time": 174.766335,
          "velocity": 0.905511811023622
        },
        {
          "duration": 0.1526153124999894,
          "durationTicks": 84,
          "midi": 60,
          "name": "C4",
          "ticks": 96200,
          "time": 174.78086979166667,
          "velocity": 0.9763779527559056
        },
        {
          "duration": 0.1526153124999894,
          "durationTicks": 84,
          "midi": 65,
          "name": "F4",
          "ticks": 96200,
          "time": 174.78086979166667,
          "velocity": 0.9763779527559056
        },
        {
          "duration": 0.34156760416667,
          "durationTicks": 188,
          "midi": 53,
          "name": "F3",
          "ticks": 96288,
          "time": 174.9407525,
          "velocity": 0.7637795275590551
        },
        {
          "duration": 0.34156760416667,
          "durationTicks": 188,
          "midi": 57,
          "name": "A3",
          "ticks": 96288,
          "time": 174.9407525,
          "velocity": 0.8267716535433071
        },
        {
          "duration": 0.34156760416667,
          "durationTicks": 188,
          "midi": 60,
          "name": "C4",
          "ticks": 96288,
          "time": 174.9407525,
          "velocity": 0.8976377952755905
        },
        {
          "duration": 0.34156760416667,
          "durationTicks": 188,
          "midi": 65,
          "name": "F4",
          "ticks": 96288,
          "time": 174.9407525,
          "velocity": 0.8976377952755905
        },
        {
          "duration": 0.16715010416666587,
          "durationTicks": 92,
          "midi": 53,
          "name": "F3",
          "ticks": 96480,
          "time": 175.2895875,
          "velocity": 0.8582677165354331
        },
        {
          "duration": 0.16715010416666587,
          "durationTicks": 92,
          "midi": 57,
          "name": "A3",
          "ticks": 96480,
          "time": 175.2895875,
          "velocity": 0.8110236220472441
        },
        {
          "duration": 0.2652599479166611,
          "durationTicks": 146,
          "midi": 57,
          "name": "A3",
          "ticks": 96576,
          "time": 175.46400500000001,
          "velocity": 0.889763779527559
        },
        {
          "duration": 0.27979473958333756,
          "durationTicks": 154,
          "midi": 53,
          "name": "F3",
          "ticks": 96578,
          "time": 175.46763869791667,
          "velocity": 0.937007874015748
        },
        {
          "duration": 0.323399114583367,
          "durationTicks": 178,
          "midi": 60,
          "name": "C4",
          "ticks": 96586,
          "time": 175.48217348958332,
          "velocity": 0.937007874015748
        },
        {
          "duration": 0.323399114583367,
          "durationTicks": 178,
          "midi": 65,
          "name": "F4",
          "ticks": 96586,
          "time": 175.48217348958332,
          "velocity": 0.937007874015748
        },
        {
          "duration": 0.48691552083334955,
          "durationTicks": 268,
          "midi": 55,
          "name": "G3",
          "ticks": 96768,
          "time": 175.81284,
          "velocity": 0.952755905511811
        },
        {
          "duration": 0.25435885416669635,
          "durationTicks": 140,
          "midi": 58,
          "name": "A#3",
          "ticks": 96768,
          "time": 175.81284,
          "velocity": 0.7007874015748031
        },
        {
          "duration": 0.1526153125000178,
          "durationTicks": 84,
          "midi": 58,
          "name": "A#3",
          "ticks": 96952,
          "time": 176.14714020833333,
          "velocity": 0.9133858267716536
        },
        {
          "duration": 0.13808052083336975,
          "durationTicks": 76,
          "midi": 67,
          "name": "G4",
          "ticks": 96958,
          "time": 176.15804130208332,
          "velocity": 0.9763779527559056
        },
        {
          "duration": 0.16715010416666587,
          "durationTicks": 92,
          "midi": 62,
          "name": "D4",
          "ticks": 96960,
          "time": 176.161675,
          "velocity": 0.9763779527559056
        },
        {
          "duration": 0.33066651041667683,
          "durationTicks": 182,
          "midi": 58,
          "name": "A#3",
          "ticks": 97056,
          "time": 176.3360925,
          "velocity": 0.6456692913385826
        },
        {
          "duration": 0.31249802083334544,
          "durationTicks": 172,
          "midi": 62,
          "name": "D4",
          "ticks": 97066,
          "time": 176.35426098958334,
          "velocity": 0.8188976377952756
        },
        {
          "duration": 0.31249802083334544,
          "durationTicks": 172,
          "midi": 67,
          "name": "G4",
          "ticks": 97066,
          "time": 176.35426098958334,
          "velocity": 0.8188976377952756
        },
        {
          "duration": 0.1671501041666943,
          "durationTicks": 92,
          "midi": 55,
          "name": "G3",
          "ticks": 97242,
          "time": 176.67402640625,
          "velocity": 0.8582677165354331
        },
        {
          "duration": 0.1671501041666943,
          "durationTicks": 92,
          "midi": 58,
          "name": "A#3",
          "ticks": 97242,
          "time": 176.67402640625,
          "velocity": 0.7559055118110236
        },
        {
          "duration": 0.12717942708331975,
          "durationTicks": 70,
          "midi": 55,
          "name": "G3",
          "ticks": 97338,
          "time": 176.84844390625,
          "velocity": 0.9763779527559056
        },
        {
          "duration": 0.13808052083334132,
          "durationTicks": 76,
          "midi": 67,
          "name": "G4",
          "ticks": 97348,
          "time": 176.86661239583333,
          "velocity": 0.9763779527559056
        },
        {
          "duration": 0.14534791666665114,
          "durationTicks": 80,
          "midi": 58,
          "name": "A#3",
          "ticks": 97350,
          "time": 176.87024609375,
          "velocity": 0.9133858267716536
        },
        {
          "duration": 0.14534791666665114,
          "durationTicks": 80,
          "midi": 62,
          "name": "D4",
          "ticks": 97350,
          "time": 176.87024609375,
          "velocity": 0.9763779527559056
        },
        {
          "duration": 0.16715010416666587,
          "durationTicks": 92,
          "midi": 58,
          "name": "A#3",
          "ticks": 97434,
          "time": 177.02286140625,
          "velocity": 0.7637795275590551
        },
        {
          "duration": 0.16715010416666587,
          "durationTicks": 92,
          "midi": 62,
          "name": "D4",
          "ticks": 97434,
          "time": 177.02286140625,
          "velocity": 0.8976377952755905
        },
        {
          "duration": 0.16715010416666587,
          "durationTicks": 92,
          "midi": 67,
          "name": "G4",
          "ticks": 97434,
          "time": 177.02286140625,
          "velocity": 0.7952755905511811
        },
        {
          "duration": 0.28342843749999247,
          "durationTicks": 156,
          "midi": 58,
          "name": "A#3",
          "ticks": 97530,
          "time": 177.19727890625,
          "velocity": 0.7244094488188977
        },
        {
          "duration": 0.28342843749999247,
          "durationTicks": 156,
          "midi": 62,
          "name": "D4",
          "ticks": 97530,
          "time": 177.19727890625,
          "velocity": 0.8582677165354331
        },
        {
          "duration": 0.4433111458333201,
          "durationTicks": 244,
          "midi": 55,
          "name": "G3",
          "ticks": 97536,
          "time": 177.20818,
          "velocity": 0.905511811023622
        },
        {
          "duration": 0.13808052083334132,
          "durationTicks": 76,
          "midi": 58,
          "name": "A#3",
          "ticks": 97718,
          "time": 177.53884651041668,
          "velocity": 0.905511811023622
        },
        {
          "duration": 0.1526153124999894,
          "durationTicks": 84,
          "midi": 62,
          "name": "D4",
          "ticks": 97730,
          "time": 177.5606486979167,
          "velocity": 0.9763779527559056
        },
        {
          "duration": 0.1526153124999894,
          "durationTicks": 84,
          "midi": 67,
          "name": "G4",
          "ticks": 97730,
          "time": 177.5606486979167,
          "velocity": 0.9763779527559056
        },
        {
          "duration": 0.3415676041666984,
          "durationTicks": 188,
          "midi": 58,
          "name": "A#3",
          "ticks": 97818,
          "time": 177.72053140625,
          "velocity": 0.7480314960629921
        },
        {
          "duration": 0.3415676041666984,
          "durationTicks": 188,
          "midi": 62,
          "name": "D4",
          "ticks": 97818,
          "time": 177.72053140625,
          "velocity": 0.8188976377952756
        },
        {
          "duration": 0.3415676041666984,
          "durationTicks": 188,
          "midi": 67,
          "name": "G4",
          "ticks": 97818,
          "time": 177.72053140625,
          "velocity": 0.8188976377952756
        },
        {
          "duration": 0.17078380208332078,
          "durationTicks": 94,
          "midi": 55,
          "name": "G3",
          "ticks": 98010,
          "time": 178.06936640625,
          "velocity": 0.8582677165354331
        },
        {
          "duration": 0.17078380208332078,
          "durationTicks": 94,
          "midi": 58,
          "name": "A#3",
          "ticks": 98010,
          "time": 178.06936640625,
          "velocity": 0.8110236220472441
        },
        {
          "duration": 0.2906958333333307,
          "durationTicks": 160,
          "midi": 55,
          "name": "G3",
          "ticks": 98108,
          "time": 178.24741760416669,
          "velocity": 0.937007874015748
        },
        {
          "duration": 0.27979473958333756,
          "durationTicks": 154,
          "midi": 58,
          "name": "A#3",
          "ticks": 98114,
          "time": 178.25831869791668,
          "velocity": 0.889763779527559
        },
        {
          "duration": 0.33430020833333174,
          "durationTicks": 184,
          "midi": 62,
          "name": "D4",
          "ticks": 98116,
          "time": 178.26195239583333,
          "velocity": 0.937007874015748
        },
        {
          "duration": 0.33430020833333174,
          "durationTicks": 184,
          "midi": 67,
          "name": "G4",
          "ticks": 98116,
          "time": 178.26195239583333,
          "velocity": 0.937007874015748
        },
        {
          "duration": 0.2543588541666395,
          "durationTicks": 140,
          "midi": 57,
          "name": "A3",
          "ticks": 98304,
          "time": 178.60352,
          "velocity": 0.7007874015748031
        },
        {
          "duration": 0.48691552083334955,
          "durationTicks": 268,
          "midi": 53,
          "name": "F3",
          "ticks": 98310,
          "time": 178.61442109375,
          "velocity": 0.952755905511811
        },
        {
          "duration": 0.1526153124999894,
          "durationTicks": 84,
          "midi": 57,
          "name": "A3",
          "ticks": 98496,
          "time": 178.952355,
          "velocity": 0.9133858267716536
        },
        {
          "duration": 0.1380805208333129,
          "durationTicks": 76,
          "midi": 65,
          "name": "F4",
          "ticks": 98500,
          "time": 178.95962239583335,
          "velocity": 0.9763779527559056
        },
        {
          "duration": 0.1562490104166443,
          "durationTicks": 86,
          "midi": 60,
          "name": "C4",
          "ticks": 98502,
          "time": 178.96325609375,
          "velocity": 0.9763779527559056
        },
        {
          "duration": 0.26525994791663265,
          "durationTicks": 146,
          "midi": 57,
          "name": "A3",
          "ticks": 98592,
          "time": 179.12677250000002,
          "velocity": 0.8503937007874016
        },
        {
          "duration": 0.31249802083334544,
          "durationTicks": 172,
          "midi": 60,
          "name": "C4",
          "ticks": 98592,
          "time": 179.12677250000002,
          "velocity": 0.8976377952755905
        },
        {
          "duration": 0.31249802083334544,
          "durationTicks": 172,
          "midi": 65,
          "name": "F4",
          "ticks": 98592,
          "time": 179.12677250000002,
          "velocity": 0.8976377952755905
        },
        {
          "duration": 0.3270328124999935,
          "durationTicks": 180,
          "midi": 53,
          "name": "F3",
          "ticks": 98600,
          "time": 179.14130729166666,
          "velocity": 0.8976377952755905
        },
        {
          "duration": 0.16715010416666587,
          "durationTicks": 92,
          "midi": 53,
          "name": "F3",
          "ticks": 98784,
          "time": 179.4756075,
          "velocity": 0.8582677165354331
        },
        {
          "duration": 0.16715010416666587,
          "durationTicks": 92,
          "midi": 57,
          "name": "A3",
          "ticks": 98784,
          "time": 179.4756075,
          "velocity": 0.7559055118110236
        },
        {
          "duration": 0.12717942708334817,
          "durationTicks": 70,
          "midi": 53,
          "name": "F3",
          "ticks": 98880,
          "time": 179.650025,
          "velocity": 0.937007874015748
        },
        {
          "duration": 0.11991203125000993,
          "durationTicks": 66,
          "midi": 57,
          "name": "A3",
          "ticks": 98880,
          "time": 179.650025,
          "velocity": 0.8740157480314961
        },
        {
          "duration": 0.13808052083328448,
          "durationTicks": 76,
          "midi": 65,
          "name": "F4",
          "ticks": 98890,
          "time": 179.66819348958336,
          "velocity": 0.937007874015748
        },
        {
          "duration": 0.14534791666665114,
          "durationTicks": 80,
          "midi": 60,
          "name": "C4",
          "ticks": 98892,
          "time": 179.6718271875,
          "velocity": 0.937007874015748
        },
        {
          "duration": 0.16715010416666587,
          "durationTicks": 92,
          "midi": 57,
          "name": "A3",
          "ticks": 98976,
          "time": 179.8244425,
          "velocity": 0.7244094488188977
        },
        {
          "duration": 0.16715010416666587,
          "durationTicks": 92,
          "midi": 60,
          "name": "C4",
          "ticks": 98976,
          "time": 179.8244425,
          "velocity": 0.8582677165354331
        },
        {
          "duration": 0.16715010416666587,
          "durationTicks": 92,
          "midi": 65,
          "name": "F4",
          "ticks": 98976,
          "time": 179.8244425,
          "velocity": 0.7559055118110236
        },
        {
          "duration": 0.28342843749999247,
          "durationTicks": 156,
          "midi": 57,
          "name": "A3",
          "ticks": 99072,
          "time": 179.99886,
          "velocity": 0.7244094488188977
        },
        {
          "duration": 0.28342843749999247,
          "durationTicks": 156,
          "midi": 60,
          "name": "C4",
          "ticks": 99072,
          "time": 179.99886,
          "velocity": 0.8582677165354331
        },
        {
          "duration": 0.4433111458333485,
          "durationTicks": 244,
          "midi": 54,
          "name": "F#3",
          "ticks": 99078,
          "time": 180.00976109375,
          "velocity": 0.905511811023622
        },
        {
          "duration": 0.13808052083334132,
          "durationTicks": 76,
          "midi": 57,
          "name": "A3",
          "ticks": 99264,
          "time": 180.34769500000002,
          "velocity": 0.905511811023622
        },
        {
          "duration": 0.1526153124999894,
          "durationTicks": 84,
          "midi": 60,
          "name": "C4",
          "ticks": 99272,
          "time": 180.36222979166666,
          "velocity": 0.9763779527559056
        },
        {
          "duration": 0.1526153124999894,
          "durationTicks": 84,
          "midi": 66,
          "name": "F#4",
          "ticks": 99272,
          "time": 180.36222979166666,
          "velocity": 0.9763779527559056
        },
        {
          "duration": 0.34156760416667,
          "durationTicks": 188,
          "midi": 54,
          "name": "F#3",
          "ticks": 99360,
          "time": 180.5221125,
          "velocity": 0.7637795275590551
        },
        {
          "duration": 0.34156760416667,
          "durationTicks": 188,
          "midi": 57,
          "name": "A3",
          "ticks": 99360,
          "time": 180.5221125,
          "velocity": 0.8267716535433071
        },
        {
          "duration": 0.34156760416667,
          "durationTicks": 188,
          "midi": 60,
          "name": "C4",
          "ticks": 99360,
          "time": 180.5221125,
          "velocity": 0.8976377952755905
        },
        {
          "duration": 0.34156760416667,
          "durationTicks": 188,
          "midi": 66,
          "name": "F#4",
          "ticks": 99360,
          "time": 180.5221125,
          "velocity": 0.8976377952755905
        },
        {
          "duration": 0.16715010416666587,
          "durationTicks": 92,
          "midi": 54,
          "name": "F#3",
          "ticks": 99552,
          "time": 180.8709475,
          "velocity": 0.8582677165354331
        },
        {
          "duration": 0.16715010416666587,
          "durationTicks": 92,
          "midi": 57,
          "name": "A3",
          "ticks": 99552,
          "time": 180.8709475,
          "velocity": 0.8110236220472441
        },
        {
          "duration": 0.2652599479166611,
          "durationTicks": 146,
          "midi": 57,
          "name": "A3",
          "ticks": 99648,
          "time": 181.045365,
          "velocity": 0.889763779527559
        },
        {
          "duration": 0.27979473958333756,
          "durationTicks": 154,
          "midi": 54,
          "name": "F#3",
          "ticks": 99650,
          "time": 181.04899869791666,
          "velocity": 0.937007874015748
        },
        {
          "duration": 0.32339911458328174,
          "durationTicks": 178,
          "midi": 60,
          "name": "C4",
          "ticks": 99658,
          "time": 181.06353348958336,
          "velocity": 0.937007874015748
        },
        {
          "duration": 0.32339911458328174,
          "durationTicks": 178,
          "midi": 66,
          "name": "F#4",
          "ticks": 99658,
          "time": 181.06353348958336,
          "velocity": 0.937007874015748
        },
        {
          "duration": 0.48691552083334955,
          "durationTicks": 268,
          "midi": 55,
          "name": "G3",
          "ticks": 99840,
          "time": 181.3942,
          "velocity": 0.952755905511811
        },
        {
          "duration": 0.2543588541666395,
          "durationTicks": 140,
          "midi": 58,
          "name": "A#3",
          "ticks": 99840,
          "time": 181.3942,
          "velocity": 0.7007874015748031
        },
        {
          "duration": 0.1526153125000178,
          "durationTicks": 84,
          "midi": 58,
          "name": "A#3",
          "ticks": 100024,
          "time": 181.72850020833334,
          "velocity": 0.9133858267716536
        },
        {
          "duration": 0.1380805208333129,
          "durationTicks": 76,
          "midi": 67,
          "name": "G4",
          "ticks": 100030,
          "time": 181.73940130208334,
          "velocity": 0.9763779527559056
        },
        {
          "duration": 0.16715010416666587,
          "durationTicks": 92,
          "midi": 62,
          "name": "D4",
          "ticks": 100032,
          "time": 181.743035,
          "velocity": 0.9763779527559056
        },
        {
          "duration": 0.3306665104166484,
          "durationTicks": 182,
          "midi": 58,
          "name": "A#3",
          "ticks": 100128,
          "time": 181.9174525,
          "velocity": 0.6456692913385826
        },
        {
          "duration": 0.3124980208332886,
          "durationTicks": 172,
          "midi": 62,
          "name": "D4",
          "ticks": 100138,
          "time": 181.93562098958336,
          "velocity": 0.8188976377952756
        },
        {
          "duration": 0.3124980208332886,
          "durationTicks": 172,
          "midi": 67,
          "name": "G4",
          "ticks": 100138,
          "time": 181.93562098958336,
          "velocity": 0.8188976377952756
        },
        {
          "duration": 0.16715010416663745,
          "durationTicks": 92,
          "midi": 55,
          "name": "G3",
          "ticks": 100314,
          "time": 182.25538640625,
          "velocity": 0.8582677165354331
        },
        {
          "duration": 0.16715010416663745,
          "durationTicks": 92,
          "midi": 58,
          "name": "A#3",
          "ticks": 100314,
          "time": 182.25538640625,
          "velocity": 0.7559055118110236
        },
        {
          "duration": 0.12717942708334817,
          "durationTicks": 70,
          "midi": 55,
          "name": "G3",
          "ticks": 100410,
          "time": 182.42980390625002,
          "velocity": 0.9763779527559056
        },
        {
          "duration": 0.1380805208333129,
          "durationTicks": 76,
          "midi": 67,
          "name": "G4",
          "ticks": 100420,
          "time": 182.44797239583335,
          "velocity": 0.9763779527559056
        },
        {
          "duration": 0.14534791666665114,
          "durationTicks": 80,
          "midi": 58,
          "name": "A#3",
          "ticks": 100422,
          "time": 182.45160609375,
          "velocity": 0.9133858267716536
        },
        {
          "duration": 0.14534791666665114,
          "durationTicks": 80,
          "midi": 62,
          "name": "D4",
          "ticks": 100422,
          "time": 182.45160609375,
          "velocity": 0.9763779527559056
        },
        {
          "duration": 0.16715010416666587,
          "durationTicks": 92,
          "midi": 58,
          "name": "A#3",
          "ticks": 100506,
          "time": 182.60422140625,
          "velocity": 0.7637795275590551
        },
        {
          "duration": 0.16715010416666587,
          "durationTicks": 92,
          "midi": 62,
          "name": "D4",
          "ticks": 100506,
          "time": 182.60422140625,
          "velocity": 0.8976377952755905
        },
        {
          "duration": 0.16715010416666587,
          "durationTicks": 92,
          "midi": 67,
          "name": "G4",
          "ticks": 100506,
          "time": 182.60422140625,
          "velocity": 0.7952755905511811
        },
        {
          "duration": 0.2834284375000209,
          "durationTicks": 156,
          "midi": 58,
          "name": "A#3",
          "ticks": 100602,
          "time": 182.77863890625,
          "velocity": 0.7244094488188977
        },
        {
          "duration": 0.2834284375000209,
          "durationTicks": 156,
          "midi": 62,
          "name": "D4",
          "ticks": 100602,
          "time": 182.77863890625,
          "velocity": 0.8582677165354331
        },
        {
          "duration": 0.4433111458333201,
          "durationTicks": 244,
          "midi": 55,
          "name": "G3",
          "ticks": 100608,
          "time": 182.78954000000002,
          "velocity": 0.905511811023622
        },
        {
          "duration": 0.13808052083334132,
          "durationTicks": 76,
          "midi": 58,
          "name": "A#3",
          "ticks": 100790,
          "time": 183.12020651041666,
          "velocity": 0.905511811023622
        },
        {
          "duration": 0.1526153125000178,
          "durationTicks": 84,
          "midi": 62,
          "name": "D4",
          "ticks": 100802,
          "time": 183.14200869791665,
          "velocity": 0.9763779527559056
        },
        {
          "duration": 0.1526153125000178,
          "durationTicks": 84,
          "midi": 67,
          "name": "G4",
          "ticks": 100802,
          "time": 183.14200869791665,
          "velocity": 0.9763779527559056
        },
        {
          "duration": 0.34156760416664156,
          "durationTicks": 188,
          "midi": 58,
          "name": "A#3",
          "ticks": 100890,
          "time": 183.30189140625,
          "velocity": 0.7480314960629921
        },
        {
          "duration": 0.34156760416664156,
          "durationTicks": 188,
          "midi": 62,
          "name": "D4",
          "ticks": 100890,
          "time": 183.30189140625,
          "velocity": 0.8188976377952756
        },
        {
          "duration": 0.34156760416664156,
          "durationTicks": 188,
          "midi": 67,
          "name": "G4",
          "ticks": 100890,
          "time": 183.30189140625,
          "velocity": 0.8188976377952756
        },
        {
          "duration": 0.17078380208332078,
          "durationTicks": 94,
          "midi": 55,
          "name": "G3",
          "ticks": 101082,
          "time": 183.65072640625002,
          "velocity": 0.8582677165354331
        },
        {
          "duration": 0.17078380208332078,
          "durationTicks": 94,
          "midi": 58,
          "name": "A#3",
          "ticks": 101082,
          "time": 183.65072640625002,
          "velocity": 0.8110236220472441
        },
        {
          "duration": 0.29069583333335913,
          "durationTicks": 160,
          "midi": 55,
          "name": "G3",
          "ticks": 101180,
          "time": 183.82877760416665,
          "velocity": 0.937007874015748
        },
        {
          "duration": 0.27979473958333756,
          "durationTicks": 154,
          "midi": 58,
          "name": "A#3",
          "ticks": 101186,
          "time": 183.83967869791667,
          "velocity": 0.889763779527559
        },
        {
          "duration": 0.3343002083333033,
          "durationTicks": 184,
          "midi": 62,
          "name": "D4",
          "ticks": 101188,
          "time": 183.84331239583335,
          "velocity": 0.937007874015748
        },
        {
          "duration": 0.3343002083333033,
          "durationTicks": 184,
          "midi": 67,
          "name": "G4",
          "ticks": 101188,
          "time": 183.84331239583335,
          "velocity": 0.937007874015748
        },
        {
          "duration": 0.2543588541666679,
          "durationTicks": 140,
          "midi": 57,
          "name": "A3",
          "ticks": 101376,
          "time": 184.18488,
          "velocity": 0.7007874015748031
        },
        {
          "duration": 0.48691552083334955,
          "durationTicks": 268,
          "midi": 50,
          "name": "D3",
          "ticks": 101382,
          "time": 184.19578109375,
          "velocity": 0.952755905511811
        },
        {
          "duration": 0.1526153124999894,
          "durationTicks": 84,
          "midi": 57,
          "name": "A3",
          "ticks": 101568,
          "time": 184.533715,
          "velocity": 0.9133858267716536
        },
        {
          "duration": 0.1380805208333129,
          "durationTicks": 76,
          "midi": 66,
          "name": "F#4",
          "ticks": 101572,
          "time": 184.54098239583334,
          "velocity": 0.9763779527559056
        },
        {
          "duration": 0.15624901041667272,
          "durationTicks": 86,
          "midi": 60,
          "name": "C4",
          "ticks": 101574,
          "time": 184.54461609375,
          "velocity": 0.9763779527559056
        },
        {
          "duration": 0.2652599479166611,
          "durationTicks": 146,
          "midi": 57,
          "name": "A3",
          "ticks": 101664,
          "time": 184.7081325,
          "velocity": 0.8503937007874016
        },
        {
          "duration": 0.31249802083334544,
          "durationTicks": 172,
          "midi": 60,
          "name": "C4",
          "ticks": 101664,
          "time": 184.7081325,
          "velocity": 0.8976377952755905
        },
        {
          "duration": 0.31249802083334544,
          "durationTicks": 172,
          "midi": 66,
          "name": "F#4",
          "ticks": 101664,
          "time": 184.7081325,
          "velocity": 0.8976377952755905
        },
        {
          "duration": 0.3270328124999935,
          "durationTicks": 180,
          "midi": 50,
          "name": "D3",
          "ticks": 101672,
          "time": 184.72266729166665,
          "velocity": 0.8976377952755905
        },
        {
          "duration": 0.16715010416663745,
          "durationTicks": 92,
          "midi": 50,
          "name": "D3",
          "ticks": 101856,
          "time": 185.0569675,
          "velocity": 0.8582677165354331
        },
        {
          "duration": 0.16715010416663745,
          "durationTicks": 92,
          "midi": 57,
          "name": "A3",
          "ticks": 101856,
          "time": 185.0569675,
          "velocity": 0.7559055118110236
        },
        {
          "duration": 0.12717942708331975,
          "durationTicks": 70,
          "midi": 50,
          "name": "D3",
          "ticks": 101952,
          "time": 185.23138500000002,
          "velocity": 0.937007874015748
        },
        {
          "duration": 0.11991203124998151,
          "durationTicks": 66,
          "midi": 57,
          "name": "A3",
          "ticks": 101952,
          "time": 185.23138500000002,
          "velocity": 0.8740157480314961
        },
        {
          "duration": 0.1380805208333129,
          "durationTicks": 76,
          "midi": 66,
          "name": "F#4",
          "ticks": 101962,
          "time": 185.24955348958335,
          "velocity": 0.937007874015748
        },
        {
          "duration": 0.14534791666665114,
          "durationTicks": 80,
          "midi": 60,
          "name": "C4",
          "ticks": 101964,
          "time": 185.2531871875,
          "velocity": 0.937007874015748
        },
        {
          "duration": 0.16715010416666587,
          "durationTicks": 92,
          "midi": 57,
          "name": "A3",
          "ticks": 102048,
          "time": 185.4058025,
          "velocity": 0.7244094488188977
        },
        {
          "duration": 0.16715010416666587,
          "durationTicks": 92,
          "midi": 60,
          "name": "C4",
          "ticks": 102048,
          "time": 185.4058025,
          "velocity": 0.8582677165354331
        },
        {
          "duration": 0.16715010416666587,
          "durationTicks": 92,
          "midi": 66,
          "name": "F#4",
          "ticks": 102048,
          "time": 185.4058025,
          "velocity": 0.7559055118110236
        },
        {
          "duration": 0.28342843749999247,
          "durationTicks": 156,
          "midi": 57,
          "name": "A3",
          "ticks": 102144,
          "time": 185.58022,
          "velocity": 0.7244094488188977
        },
        {
          "duration": 0.28342843749999247,
          "durationTicks": 156,
          "midi": 60,
          "name": "C4",
          "ticks": 102144,
          "time": 185.58022,
          "velocity": 0.8582677165354331
        },
        {
          "duration": 0.4433111458333485,
          "durationTicks": 244,
          "midi": 50,
          "name": "D3",
          "ticks": 102150,
          "time": 185.59112109375,
          "velocity": 0.905511811023622
        },
        {
          "duration": 0.13808052083334132,
          "durationTicks": 76,
          "midi": 57,
          "name": "A3",
          "ticks": 102336,
          "time": 185.929055,
          "velocity": 0.905511811023622
        },
        {
          "duration": 0.1526153124999894,
          "durationTicks": 84,
          "midi": 60,
          "name": "C4",
          "ticks": 102344,
          "time": 185.94358979166665,
          "velocity": 0.9763779527559056
        },
        {
          "duration": 0.1526153124999894,
          "durationTicks": 84,
          "midi": 66,
          "name": "F#4",
          "ticks": 102344,
          "time": 185.94358979166665,
          "velocity": 0.9763779527559056
        },
        {
          "duration": 0.34156760416664156,
          "durationTicks": 188,
          "midi": 50,
          "name": "D3",
          "ticks": 102432,
          "time": 186.1034725,
          "velocity": 0.7637795275590551
        },
        {
          "duration": 0.34156760416664156,
          "durationTicks": 188,
          "midi": 57,
          "name": "A3",
          "ticks": 102432,
          "time": 186.1034725,
          "velocity": 0.8267716535433071
        },
        {
          "duration": 0.34156760416664156,
          "durationTicks": 188,
          "midi": 60,
          "name": "C4",
          "ticks": 102432,
          "time": 186.1034725,
          "velocity": 0.8976377952755905
        },
        {
          "duration": 0.34156760416664156,
          "durationTicks": 188,
          "midi": 66,
          "name": "F#4",
          "ticks": 102432,
          "time": 186.1034725,
          "velocity": 0.8976377952755905
        },
        {
          "duration": 0.16715010416666587,
          "durationTicks": 92,
          "midi": 50,
          "name": "D3",
          "ticks": 102624,
          "time": 186.4523075,
          "velocity": 0.8582677165354331
        },
        {
          "duration": 0.16715010416666587,
          "durationTicks": 92,
          "midi": 57,
          "name": "A3",
          "ticks": 102624,
          "time": 186.4523075,
          "velocity": 0.8110236220472441
        },
        {
          "duration": 0.2652599479166611,
          "durationTicks": 146,
          "midi": 57,
          "name": "A3",
          "ticks": 102720,
          "time": 186.626725,
          "velocity": 0.889763779527559
        },
        {
          "duration": 0.279794739583366,
          "durationTicks": 154,
          "midi": 50,
          "name": "D3",
          "ticks": 102722,
          "time": 186.63035869791665,
          "velocity": 0.937007874015748
        },
        {
          "duration": 0.32339911458331017,
          "durationTicks": 178,
          "midi": 60,
          "name": "C4",
          "ticks": 102730,
          "time": 186.64489348958335,
          "velocity": 0.937007874015748
        },
        {
          "duration": 0.32339911458331017,
          "durationTicks": 178,
          "midi": 66,
          "name": "F#4",
          "ticks": 102730,
          "time": 186.64489348958335,
          "velocity": 0.937007874015748
        },
        {
          "duration": 0.48691552083334955,
          "durationTicks": 268,
          "midi": 55,
          "name": "G3",
          "ticks": 102912,
          "time": 186.97556,
          "velocity": 0.952755905511811
        },
        {
          "duration": 0.2543588541666679,
          "durationTicks": 140,
          "midi": 58,
          "name": "A#3",
          "ticks": 102912,
          "time": 186.97556,
          "velocity": 0.7007874015748031
        },
        {
          "duration": 0.1526153124999894,
          "durationTicks": 84,
          "midi": 58,
          "name": "A#3",
          "ticks": 103096,
          "time": 187.30986020833336,
          "velocity": 0.9133858267716536
        },
        {
          "duration": 0.1380805208333129,
          "durationTicks": 76,
          "midi": 67,
          "name": "G4",
          "ticks": 103102,
          "time": 187.32076130208335,
          "velocity": 0.9763779527559056
        },
        {
          "duration": 0.16715010416663745,
          "durationTicks": 92,
          "midi": 62,
          "name": "D4",
          "ticks": 103104,
          "time": 187.324395,
          "velocity": 0.9763779527559056
        },
        {
          "duration": 0.3306665104166484,
          "durationTicks": 182,
          "midi": 58,
          "name": "A#3",
          "ticks": 103200,
          "time": 187.4988125,
          "velocity": 0.6456692913385826
        },
        {
          "duration": 0.312498020833317,
          "durationTicks": 172,
          "midi": 62,
          "name": "D4",
          "ticks": 103210,
          "time": 187.51698098958335,
          "velocity": 0.8188976377952756
        },
        {
          "duration": 0.312498020833317,
          "durationTicks": 172,
          "midi": 67,
          "name": "G4",
          "ticks": 103210,
          "time": 187.51698098958335,
          "velocity": 0.8188976377952756
        },
        {
          "duration": 0.16715010416666587,
          "durationTicks": 92,
          "midi": 55,
          "name": "G3",
          "ticks": 103386,
          "time": 187.83674640625,
          "velocity": 0.8582677165354331
        },
        {
          "duration": 0.16715010416666587,
          "durationTicks": 92,
          "midi": 58,
          "name": "A#3",
          "ticks": 103386,
          "time": 187.83674640625,
          "velocity": 0.7559055118110236
        },
        {
          "duration": 0.12717942708334817,
          "durationTicks": 70,
          "midi": 55,
          "name": "G3",
          "ticks": 103482,
          "time": 188.01116390625,
          "velocity": 0.9763779527559056
        },
        {
          "duration": 0.1380805208333129,
          "durationTicks": 76,
          "midi": 67,
          "name": "G4",
          "ticks": 103492,
          "time": 188.02933239583334,
          "velocity": 0.9763779527559056
        },
        {
          "duration": 0.14534791666667957,
          "durationTicks": 80,
          "midi": 58,
          "name": "A#3",
          "ticks": 103494,
          "time": 188.03296609375,
          "velocity": 0.9133858267716536
        },
        {
          "duration": 0.14534791666667957,
          "durationTicks": 80,
          "midi": 62,
          "name": "D4",
          "ticks": 103494,
          "time": 188.03296609375,
          "velocity": 0.9763779527559056
        },
        {
          "duration": 0.16715010416663745,
          "durationTicks": 92,
          "midi": 58,
          "name": "A#3",
          "ticks": 103578,
          "time": 188.18558140625,
          "velocity": 0.7637795275590551
        },
        {
          "duration": 0.16715010416663745,
          "durationTicks": 92,
          "midi": 62,
          "name": "D4",
          "ticks": 103578,
          "time": 188.18558140625,
          "velocity": 0.8976377952755905
        },
        {
          "duration": 0.16715010416663745,
          "durationTicks": 92,
          "midi": 67,
          "name": "G4",
          "ticks": 103578,
          "time": 188.18558140625,
          "velocity": 0.7952755905511811
        },
        {
          "duration": 0.28342843749999247,
          "durationTicks": 156,
          "midi": 58,
          "name": "A#3",
          "ticks": 103674,
          "time": 188.35999890625,
          "velocity": 0.7244094488188977
        },
        {
          "duration": 0.28342843749999247,
          "durationTicks": 156,
          "midi": 62,
          "name": "D4",
          "ticks": 103674,
          "time": 188.35999890625,
          "velocity": 0.8582677165354331
        },
        {
          "duration": 0.4433111458333485,
          "durationTicks": 244,
          "midi": 55,
          "name": "G3",
          "ticks": 103680,
          "time": 188.3709,
          "velocity": 0.905511811023622
        },
        {
          "duration": 0.13808052083334132,
          "durationTicks": 76,
          "midi": 58,
          "name": "A#3",
          "ticks": 103862,
          "time": 188.70156651041665,
          "velocity": 0.905511811023622
        },
        {
          "duration": 0.1526153124999894,
          "durationTicks": 84,
          "midi": 62,
          "name": "D4",
          "ticks": 103874,
          "time": 188.72336869791667,
          "velocity": 0.9763779527559056
        },
        {
          "duration": 0.1526153124999894,
          "durationTicks": 84,
          "midi": 67,
          "name": "G4",
          "ticks": 103874,
          "time": 188.72336869791667,
          "velocity": 0.9763779527559056
        },
        {
          "duration": 0.34156760416667,
          "durationTicks": 188,
          "midi": 58,
          "name": "A#3",
          "ticks": 103962,
          "time": 188.88325140625,
          "velocity": 0.7480314960629921
        },
        {
          "duration": 0.34156760416667,
          "durationTicks": 188,
          "midi": 62,
          "name": "D4",
          "ticks": 103962,
          "time": 188.88325140625,
          "velocity": 0.8188976377952756
        },
        {
          "duration": 0.34156760416667,
          "durationTicks": 188,
          "midi": 67,
          "name": "G4",
          "ticks": 103962,
          "time": 188.88325140625,
          "velocity": 0.8188976377952756
        },
        {
          "duration": 0.1707838020833492,
          "durationTicks": 94,
          "midi": 55,
          "name": "G3",
          "ticks": 104154,
          "time": 189.23208640625,
          "velocity": 0.8582677165354331
        },
        {
          "duration": 0.1707838020833492,
          "durationTicks": 94,
          "midi": 58,
          "name": "A#3",
          "ticks": 104154,
          "time": 189.23208640625,
          "velocity": 0.8110236220472441
        },
        {
          "duration": 0.2906958333333307,
          "durationTicks": 160,
          "midi": 55,
          "name": "G3",
          "ticks": 104252,
          "time": 189.41013760416666,
          "velocity": 0.937007874015748
        },
        {
          "duration": 0.27979473958333756,
          "durationTicks": 154,
          "midi": 58,
          "name": "A#3",
          "ticks": 104258,
          "time": 189.42103869791666,
          "velocity": 0.889763779527559
        },
        {
          "duration": 0.3343002083333033,
          "durationTicks": 184,
          "midi": 62,
          "name": "D4",
          "ticks": 104260,
          "time": 189.42467239583334,
          "velocity": 0.937007874015748
        },
        {
          "duration": 0.3343002083333033,
          "durationTicks": 184,
          "midi": 67,
          "name": "G4",
          "ticks": 104260,
          "time": 189.42467239583334,
          "velocity": 0.937007874015748
        },
        {
          "duration": 0.48691552083334955,
          "durationTicks": 268,
          "midi": 55,
          "name": "G3",
          "ticks": 104448,
          "time": 189.76624,
          "velocity": 0.952755905511811
        },
        {
          "duration": 0.2543588541666395,
          "durationTicks": 140,
          "midi": 58,
          "name": "A#3",
          "ticks": 104448,
          "time": 189.76624,
          "velocity": 0.7007874015748031
        },
        {
          "duration": 0.1526153125000178,
          "durationTicks": 84,
          "midi": 58,
          "name": "A#3",
          "ticks": 104632,
          "time": 190.10054020833334,
          "velocity": 0.9133858267716536
        },
        {
          "duration": 0.13808052083328448,
          "durationTicks": 76,
          "midi": 67,
          "name": "G4",
          "ticks": 104638,
          "time": 190.11144130208336,
          "velocity": 0.9763779527559056
        },
        {
          "duration": 0.16715010416666587,
          "durationTicks": 92,
          "midi": 62,
          "name": "D4",
          "ticks": 104640,
          "time": 190.115075,
          "velocity": 0.9763779527559056
        },
        {
          "duration": 0.3306665104166484,
          "durationTicks": 182,
          "midi": 58,
          "name": "A#3",
          "ticks": 104736,
          "time": 190.2894925,
          "velocity": 0.6456692913385826
        },
        {
          "duration": 0.3124980208332886,
          "durationTicks": 172,
          "midi": 62,
          "name": "D4",
          "ticks": 104746,
          "time": 190.30766098958335,
          "velocity": 0.8188976377952756
        },
        {
          "duration": 0.3124980208332886,
          "durationTicks": 172,
          "midi": 67,
          "name": "G4",
          "ticks": 104746,
          "time": 190.30766098958335,
          "velocity": 0.8188976377952756
        },
        {
          "duration": 0.16715010416663745,
          "durationTicks": 92,
          "midi": 55,
          "name": "G3",
          "ticks": 104922,
          "time": 190.62742640625,
          "velocity": 0.8582677165354331
        },
        {
          "duration": 0.16715010416663745,
          "durationTicks": 92,
          "midi": 58,
          "name": "A#3",
          "ticks": 104922,
          "time": 190.62742640625,
          "velocity": 0.7559055118110236
        },
        {
          "duration": 0.12717942708334817,
          "durationTicks": 70,
          "midi": 55,
          "name": "G3",
          "ticks": 105018,
          "time": 190.80184390625,
          "velocity": 0.9763779527559056
        },
        {
          "duration": 0.1380805208333129,
          "durationTicks": 76,
          "midi": 67,
          "name": "G4",
          "ticks": 105028,
          "time": 190.82001239583334,
          "velocity": 0.9763779527559056
        },
        {
          "duration": 0.14534791666665114,
          "durationTicks": 80,
          "midi": 58,
          "name": "A#3",
          "ticks": 105030,
          "time": 190.82364609375,
          "velocity": 0.9133858267716536
        },
        {
          "duration": 0.14534791666665114,
          "durationTicks": 80,
          "midi": 62,
          "name": "D4",
          "ticks": 105030,
          "time": 190.82364609375,
          "velocity": 0.9763779527559056
        },
        {
          "duration": 0.16715010416666587,
          "durationTicks": 92,
          "midi": 58,
          "name": "A#3",
          "ticks": 105114,
          "time": 190.97626140625,
          "velocity": 0.7637795275590551
        },
        {
          "duration": 0.16715010416666587,
          "durationTicks": 92,
          "midi": 62,
          "name": "D4",
          "ticks": 105114,
          "time": 190.97626140625,
          "velocity": 0.8976377952755905
        },
        {
          "duration": 0.16715010416666587,
          "durationTicks": 92,
          "midi": 67,
          "name": "G4",
          "ticks": 105114,
          "time": 190.97626140625,
          "velocity": 0.7952755905511811
        },
        {
          "duration": 0.2834284375000209,
          "durationTicks": 156,
          "midi": 58,
          "name": "A#3",
          "ticks": 105210,
          "time": 191.15067890625,
          "velocity": 0.7244094488188977
        },
        {
          "duration": 0.2834284375000209,
          "durationTicks": 156,
          "midi": 62,
          "name": "D4",
          "ticks": 105210,
          "time": 191.15067890625,
          "velocity": 0.8582677165354331
        },
        {
          "duration": 0.4433111458333485,
          "durationTicks": 244,
          "midi": 55,
          "name": "G3",
          "ticks": 105216,
          "time": 191.16158000000001,
          "velocity": 0.905511811023622
        },
        {
          "duration": 0.13808052083334132,
          "durationTicks": 76,
          "midi": 58,
          "name": "A#3",
          "ticks": 105398,
          "time": 191.49224651041666,
          "velocity": 0.905511811023622
        },
        {
          "duration": 0.1526153125000178,
          "durationTicks": 84,
          "midi": 62,
          "name": "D4",
          "ticks": 105410,
          "time": 191.51404869791665,
          "velocity": 0.9763779527559056
        },
        {
          "duration": 0.1526153125000178,
          "durationTicks": 84,
          "midi": 67,
          "name": "G4",
          "ticks": 105410,
          "time": 191.51404869791665,
          "velocity": 0.9763779527559056
        },
        {
          "duration": 2.783412604166699,
          "durationTicks": 1532,
          "midi": 55,
          "name": "G3",
          "ticks": 105590,
          "time": 191.84108151041664,
          "velocity": 0.9763779527559056
        },
        {
          "duration": 2.7943136979166923,
          "durationTicks": 1538,
          "midi": 58,
          "name": "A#3",
          "ticks": 105596,
          "time": 191.85198260416666,
          "velocity": 0.9291338582677166
        },
        {
          "duration": 2.794313697916664,
          "durationTicks": 1538,
          "midi": 62,
          "name": "D4",
          "ticks": 105600,
          "time": 191.85925,
          "velocity": 0.9763779527559056
        },
        {
          "duration": 2.7834126041666423,
          "durationTicks": 1532,
          "midi": 67,
          "name": "G4",
          "ticks": 105600,
          "time": 191.85925,
          "velocity": 0.9763779527559056
        }
      ]
    },
    {
      "channel": 0,
      "controlChanges": {
        "0": [
          {
            "number": 0,
            "ticks": 1536,
            "time": 2.79068,
            "value": 0
          }
        ],
        "7": [
          {
            "number": 7,
            "ticks": 1536,
            "time": 2.79068,
            "value": 0.7007874015748031
          }
        ],
        "10": [
          {
            "number": 10,
            "ticks": 1536,
            "time": 2.79068,
            "value": 0.5039370078740157
          }
        ],
        "11": [
          {
            "number": 11,
            "ticks": 1536,
            "time": 2.79068,
            "value": 1
          }
        ],
        "91": [
          {
            "number": 91,
            "ticks": 1536,
            "time": 2.79068,
            "value": 0.3779527559055118
          }
        ],
        "93": [
          {
            "number": 93,
            "ticks": 1536,
            "time": 2.79068,
            "value": 0.5669291338582677
          }
        ],
        "121": [
          {
            "number": 121,
            "ticks": 1536,
            "time": 2.79068,
            "value": 0
          }
        ]
      },
      "pitchBends": [
        {
          "ticks": 1536,
          "time": 2.79068,
          "value": 0
        }
      ],
      "instrument": {
        "family": "piano",
        "name": "acoustic grand piano",
        "number": 0
      },
      "name": "Guitar",
      "notes": []
    },
    {
      "channel": 6,
      "controlChanges": {
        "120": [
          {
            "number": 120,
            "ticks": 107160,
            "time": 194.693534375,
            "value": 0
          }
        ],
        "123": [
          {
            "number": 123,
            "ticks": 107232,
            "time": 194.82434750000002,
            "value": 0
          }
        ]
      },
      "pitchBends": [
        {
          "ticks": 72020,
          "time": 130.84946197916668,
          "value": 0.2257080078125
        },
        {
          "ticks": 72042,
          "time": 130.88943265625,
          "value": 0.9998779296875
        },
        {
          "ticks": 72312,
          "time": 131.379981875,
          "value": 0.0018310546875
        }
      ],
      "instrument": {
        "family": "guitar",
        "name": "acoustic guitar (nylon)",
        "number": 24
      },
      "name": "",
      "notes": [
        {
          "duration": 0.03997067708333191,
          "durationTicks": 22,
          "midi": 79,
          "name": "G5",
          "ticks": 67580,
          "time": 122.78265260416667,
          "velocity": 0.8031496062992126
        },
        {
          "duration": 0.036336979166662786,
          "durationTicks": 20,
          "midi": 79,
          "name": "G5",
          "ticks": 67604,
          "time": 122.82625697916667,
          "velocity": 0.8188976377952756
        },
        {
          "duration": 0.03997067708333191,
          "durationTicks": 22,
          "midi": 79,
          "name": "G5",
          "ticks": 67676,
          "time": 122.95707010416668,
          "velocity": 0.84251968503937
        },
        {
          "duration": 0.036336979166648575,
          "durationTicks": 20,
          "midi": 79,
          "name": "G5",
          "ticks": 67700,
          "time": 123.00067447916668,
          "velocity": 0.7874015748031497
        },
        {
          "duration": 0.039970677083317696,
          "durationTicks": 22,
          "midi": 79,
          "name": "G5",
          "ticks": 67772,
          "time": 123.13148760416668,
          "velocity": 0.8110236220472441
        },
        {
          "duration": 0.036336979166648575,
          "durationTicks": 20,
          "midi": 79,
          "name": "G5",
          "ticks": 67796,
          "time": 123.17509197916668,
          "velocity": 0.7716535433070866
        },
        {
          "duration": 0.03997067708333191,
          "durationTicks": 22,
          "midi": 79,
          "name": "G5",
          "ticks": 67868,
          "time": 123.30590510416667,
          "velocity": 0.8267716535433071
        },
        {
          "duration": 0.036336979166662786,
          "durationTicks": 20,
          "midi": 79,
          "name": "G5",
          "ticks": 67892,
          "time": 123.34950947916667,
          "velocity": 0.8267716535433071
        },
        {
          "duration": 0.03997067708333191,
          "durationTicks": 22,
          "midi": 79,
          "name": "G5",
          "ticks": 67964,
          "time": 123.48032260416667,
          "velocity": 0.8110236220472441
        },
        {
          "duration": 0.036336979166648575,
          "durationTicks": 20,
          "midi": 79,
          "name": "G5",
          "ticks": 67988,
          "time": 123.52392697916667,
          "velocity": 0.7716535433070866
        },
        {
          "duration": 0.03997067708333191,
          "durationTicks": 22,
          "midi": 79,
          "name": "G5",
          "ticks": 68060,
          "time": 123.65474010416668,
          "velocity": 0.8267716535433071
        },
        {
          "duration": 0.036336979166648575,
          "durationTicks": 20,
          "midi": 79,
          "name": "G5",
          "ticks": 68084,
          "time": 123.69834447916668,
          "velocity": 0.8267716535433071
        },
        {
          "duration": 0.039970677083317696,
          "durationTicks": 22,
          "midi": 81,
          "name": "A5",
          "ticks": 68156,
          "time": 123.82915760416668,
          "velocity": 0.8661417322834646
        },
        {
          "duration": 0.036336979166648575,
          "durationTicks": 20,
          "midi": 81,
          "name": "A5",
          "ticks": 68180,
          "time": 123.87276197916668,
          "velocity": 0.8267716535433071
        },
        {
          "duration": 0.03997067708333191,
          "durationTicks": 22,
          "midi": 82,
          "name": "A#5",
          "ticks": 68348,
          "time": 124.17799260416668,
          "velocity": 0.8031496062992126
        },
        {
          "duration": 0.036336979166648575,
          "durationTicks": 20,
          "midi": 82,
          "name": "A#5",
          "ticks": 68372,
          "time": 124.22159697916668,
          "velocity": 0.8188976377952756
        },
        {
          "duration": 0.039970677083317696,
          "durationTicks": 22,
          "midi": 82,
          "name": "A#5",
          "ticks": 68444,
          "time": 124.35241010416668,
          "velocity": 0.84251968503937
        },
        {
          "duration": 0.036336979166648575,
          "durationTicks": 20,
          "midi": 82,
          "name": "A#5",
          "ticks": 68468,
          "time": 124.39601447916668,
          "velocity": 0.7874015748031497
        },
        {
          "duration": 0.03997067708333191,
          "durationTicks": 22,
          "midi": 82,
          "name": "A#5",
          "ticks": 68540,
          "time": 124.52682760416667,
          "velocity": 0.8110236220472441
        },
        {
          "duration": 0.036336979166662786,
          "durationTicks": 20,
          "midi": 82,
          "name": "A#5",
          "ticks": 68564,
          "time": 124.57043197916667,
          "velocity": 0.7716535433070866
        },
        {
          "duration": 0.03997067708333191,
          "durationTicks": 22,
          "midi": 82,
          "name": "A#5",
          "ticks": 68636,
          "time": 124.70124510416667,
          "velocity": 0.8267716535433071
        },
        {
          "duration": 0.036336979166648575,
          "durationTicks": 20,
          "midi": 82,
          "name": "A#5",
          "ticks": 68660,
          "time": 124.74484947916667,
          "velocity": 0.8267716535433071
        },
        {
          "duration": 0.039970677083317696,
          "durationTicks": 22,
          "midi": 81,
          "name": "A5",
          "ticks": 68732,
          "time": 124.87566260416668,
          "velocity": 0.8110236220472441
        },
        {
          "duration": 0.036336979166648575,
          "durationTicks": 20,
          "midi": 81,
          "name": "A5",
          "ticks": 68756,
          "time": 124.91926697916668,
          "velocity": 0.7716535433070866
        },
        {
          "duration": 0.03997067708333191,
          "durationTicks": 22,
          "midi": 79,
          "name": "G5",
          "ticks": 68924,
          "time": 125.22449760416667,
          "velocity": 0.8031496062992126
        },
        {
          "duration": 0.036336979166662786,
          "durationTicks": 20,
          "midi": 79,
          "name": "G5",
          "ticks": 68948,
          "time": 125.26810197916667,
          "velocity": 0.8188976377952756
        },
        {
          "duration": 0.039970677083317696,
          "durationTicks": 22,
          "midi": 82,
          "name": "A#5",
          "ticks": 69116,
          "time": 125.57333260416668,
          "velocity": 0.8031496062992126
        },
        {
          "duration": 0.036336979166648575,
          "durationTicks": 20,
          "midi": 82,
          "name": "A#5",
          "ticks": 69140,
          "time": 125.61693697916668,
          "velocity": 0.8188976377952756
        },
        {
          "duration": 0.03997067708333191,
          "durationTicks": 22,
          "midi": 82,
          "name": "A#5",
          "ticks": 69212,
          "time": 125.74775010416667,
          "velocity": 0.84251968503937
        },
        {
          "duration": 0.036336979166662786,
          "durationTicks": 20,
          "midi": 82,
          "name": "A#5",
          "ticks": 69236,
          "time": 125.79135447916667,
          "velocity": 0.7874015748031497
        },
        {
          "duration": 0.03997067708333191,
          "durationTicks": 22,
          "midi": 82,
          "name": "A#5",
          "ticks": 69308,
          "time": 125.92216760416667,
          "velocity": 0.8110236220472441
        },
        {
          "duration": 0.036336979166648575,
          "durationTicks": 20,
          "midi": 82,
          "name": "A#5",
          "ticks": 69332,
          "time": 125.96577197916668,
          "velocity": 0.7716535433070866
        },
        {
          "duration": 0.039970677083317696,
          "durationTicks": 22,
          "midi": 82,
          "name": "A#5",
          "ticks": 69404,
          "time": 126.09658510416668,
          "velocity": 0.8267716535433071
        },
        {
          "duration": 0.036336979166648575,
          "durationTicks": 20,
          "midi": 82,
          "name": "A#5",
          "ticks": 69428,
          "time": 126.14018947916668,
          "velocity": 0.8267716535433071
        },
        {
          "duration": 0.039970677083317696,
          "durationTicks": 22,
          "midi": 82,
          "name": "A#5",
          "ticks": 69500,
          "time": 126.27100260416668,
          "velocity": 0.8110236220472441
        },
        {
          "duration": 0.036336979166662786,
          "durationTicks": 20,
          "midi": 82,
          "name": "A#5",
          "ticks": 69524,
          "time": 126.31460697916667,
          "velocity": 0.7716535433070866
        },
        {
          "duration": 0.03997067708333191,
          "durationTicks": 22,
          "midi": 82,
          "name": "A#5",
          "ticks": 69596,
          "time": 126.44542010416667,
          "velocity": 0.8267716535433071
        },
        {
          "duration": 0.036336979166662786,
          "durationTicks": 20,
          "midi": 82,
          "name": "A#5",
          "ticks": 69620,
          "time": 126.48902447916667,
          "velocity": 0.8267716535433071
        },
        {
          "duration": 0.03997067708333191,
          "durationTicks": 22,
          "midi": 84,
          "name": "C6",
          "ticks": 69692,
          "time": 126.61983760416668,
          "velocity": 0.8031496062992126
        },
        {
          "duration": 0.036336979166648575,
          "durationTicks": 20,
          "midi": 84,
          "name": "C6",
          "ticks": 69716,
          "time": 126.66344197916668,
          "velocity": 0.8188976377952756
        },
        {
          "duration": 0.039970677083317696,
          "durationTicks": 22,
          "midi": 84,
          "name": "C6",
          "ticks": 69788,
          "time": 126.79425510416668,
          "velocity": 0.84251968503937
        },
        {
          "duration": 0.036336979166648575,
          "durationTicks": 20,
          "midi": 84,
          "name": "C6",
          "ticks": 69812,
          "time": 126.83785947916668,
          "velocity": 0.7874015748031497
        },
        {
          "duration": 0.03997067708333191,
          "durationTicks": 22,
          "midi": 82,
          "name": "A#5",
          "ticks": 69884,
          "time": 126.96867260416667,
          "velocity": 0.8110236220472441
        },
        {
          "duration": 0.036336979166662786,
          "durationTicks": 20,
          "midi": 82,
          "name": "A#5",
          "ticks": 69908,
          "time": 127.01227697916667,
          "velocity": 0.7716535433070866
        },
        {
          "duration": 0.03997067708333191,
          "durationTicks": 22,
          "midi": 82,
          "name": "A#5",
          "ticks": 69980,
          "time": 127.14309010416667,
          "velocity": 0.8267716535433071
        },
        {
          "duration": 0.036336979166648575,
          "durationTicks": 20,
          "midi": 82,
          "name": "A#5",
          "ticks": 70004,
          "time": 127.18669447916668,
          "velocity": 0.8267716535433071
        },
        {
          "duration": 0.039970677083317696,
          "durationTicks": 22,
          "midi": 82,
          "name": "A#5",
          "ticks": 70076,
          "time": 127.31750760416668,
          "velocity": 0.8110236220472441
        },
        {
          "duration": 0.036336979166648575,
          "durationTicks": 20,
          "midi": 82,
          "name": "A#5",
          "ticks": 70100,
          "time": 127.36111197916668,
          "velocity": 0.7716535433070866
        },
        {
          "duration": 0.039970677083317696,
          "durationTicks": 22,
          "midi": 82,
          "name": "A#5",
          "ticks": 70172,
          "time": 127.49192510416668,
          "velocity": 0.8267716535433071
        },
        {
          "duration": 0.036336979166662786,
          "durationTicks": 20,
          "midi": 82,
          "name": "A#5",
          "ticks": 70196,
          "time": 127.53552947916667,
          "velocity": 0.8267716535433071
        },
        {
          "duration": 0.34156760416665577,
          "durationTicks": 188,
          "midi": 81,
          "name": "A5",
          "ticks": 70268,
          "time": 127.66634260416667,
          "velocity": 0.7952755905511811
        },
        {
          "duration": 0.29796322916666895,
          "durationTicks": 164,
          "midi": 79,
          "name": "G5",
          "ticks": 70460,
          "time": 128.01517760416667,
          "velocity": 0.7716535433070866
        },
        {
          "duration": 0.039970677083317696,
          "durationTicks": 22,
          "midi": 77,
          "name": "F5",
          "ticks": 70652,
          "time": 128.36401260416667,
          "velocity": 0.8031496062992126
        },
        {
          "duration": 0.036336979166662786,
          "durationTicks": 20,
          "midi": 77,
          "name": "F5",
          "ticks": 70676,
          "time": 128.40761697916668,
          "velocity": 0.8188976377952756
        },
        {
          "duration": 0.039970677083317696,
          "durationTicks": 22,
          "midi": 77,
          "name": "F5",
          "ticks": 70748,
          "time": 128.53843010416668,
          "velocity": 0.84251968503937
        },
        {
          "duration": 0.036336979166662786,
          "durationTicks": 20,
          "midi": 77,
          "name": "F5",
          "ticks": 70772,
          "time": 128.58203447916668,
          "velocity": 0.7874015748031497
        },
        {
          "duration": 0.039970677083317696,
          "durationTicks": 22,
          "midi": 77,
          "name": "F5",
          "ticks": 70844,
          "time": 128.71284760416668,
          "velocity": 0.8110236220472441
        },
        {
          "duration": 0.036336979166634364,
          "durationTicks": 20,
          "midi": 77,
          "name": "F5",
          "ticks": 70868,
          "time": 128.75645197916668,
          "velocity": 0.7716535433070866
        },
        {
          "duration": 0.039970677083317696,
          "durationTicks": 22,
          "midi": 77,
          "name": "F5",
          "ticks": 70940,
          "time": 128.8872651041667,
          "velocity": 0.8267716535433071
        },
        {
          "duration": 0.036336979166634364,
          "durationTicks": 20,
          "midi": 77,
          "name": "F5",
          "ticks": 70964,
          "time": 128.9308694791667,
          "velocity": 0.8267716535433071
        },
        {
          "duration": 0.03997067708334612,
          "durationTicks": 22,
          "midi": 77,
          "name": "F5",
          "ticks": 71036,
          "time": 129.06168260416666,
          "velocity": 0.8110236220472441
        },
        {
          "duration": 0.036336979166662786,
          "durationTicks": 20,
          "midi": 77,
          "name": "F5",
          "ticks": 71060,
          "time": 129.10528697916666,
          "velocity": 0.7716535433070866
        },
        {
          "duration": 0.03997067708334612,
          "durationTicks": 22,
          "midi": 77,
          "name": "F5",
          "ticks": 71132,
          "time": 129.23610010416667,
          "velocity": 0.8267716535433071
        },
        {
          "duration": 0.036336979166662786,
          "durationTicks": 20,
          "midi": 77,
          "name": "F5",
          "ticks": 71156,
          "time": 129.27970447916667,
          "velocity": 0.8267716535433071
        },
        {
          "duration": 0.039970677083317696,
          "durationTicks": 22,
          "midi": 77,
          "name": "F5",
          "ticks": 71228,
          "time": 129.41051760416667,
          "velocity": 0.7637795275590551
        },
        {
          "duration": 0.036336979166662786,
          "durationTicks": 20,
          "midi": 77,
          "name": "F5",
          "ticks": 71252,
          "time": 129.45412197916667,
          "velocity": 0.7244094488188977
        },
        {
          "duration": 0.039970677083317696,
          "durationTicks": 22,
          "midi": 77,
          "name": "F5",
          "ticks": 71324,
          "time": 129.58493510416668,
          "velocity": 0.7795275590551181
        },
        {
          "duration": 0.036336979166662786,
          "durationTicks": 20,
          "midi": 77,
          "name": "F5",
          "ticks": 71348,
          "time": 129.62853947916668,
          "velocity": 0.7795275590551181
        },
        {
          "duration": 0.039970677083317696,
          "durationTicks": 22,
          "midi": 78,
          "name": "F#5",
          "ticks": 71420,
          "time": 129.75935260416668,
          "velocity": 0.8031496062992126
        },
        {
          "duration": 0.036336979166662786,
          "durationTicks": 20,
          "midi": 78,
          "name": "F#5",
          "ticks": 71444,
          "time": 129.80295697916668,
          "velocity": 0.8188976377952756
        },
        {
          "duration": 0.039970677083317696,
          "durationTicks": 22,
          "midi": 78,
          "name": "F#5",
          "ticks": 71516,
          "time": 129.93377010416668,
          "velocity": 0.84251968503937
        },
        {
          "duration": 0.036336979166634364,
          "durationTicks": 20,
          "midi": 78,
          "name": "F#5",
          "ticks": 71540,
          "time": 129.97737447916668,
          "velocity": 0.7874015748031497
        },
        {
          "duration": 0.039970677083317696,
          "durationTicks": 22,
          "midi": 78,
          "name": "F#5",
          "ticks": 71612,
          "time": 130.1081876041667,
          "velocity": 0.8110236220472441
        },
        {
          "duration": 0.036336979166634364,
          "durationTicks": 20,
          "midi": 78,
          "name": "F#5",
          "ticks": 71636,
          "time": 130.1517919791667,
          "velocity": 0.7716535433070866
        },
        {
          "duration": 0.03997067708334612,
          "durationTicks": 22,
          "midi": 78,
          "name": "F#5",
          "ticks": 71708,
          "time": 130.28260510416666,
          "velocity": 0.8267716535433071
        },
        {
          "duration": 0.036336979166662786,
          "durationTicks": 20,
          "midi": 78,
          "name": "F#5",
          "ticks": 71732,
          "time": 130.32620947916666,
          "velocity": 0.8267716535433071
        },
        {
          "duration": 0.03997067708334612,
          "durationTicks": 22,
          "midi": 79,
          "name": "G5",
          "ticks": 71804,
          "time": 130.45702260416667,
          "velocity": 0.8110236220472441
        },
        {
          "duration": 0.036336979166662786,
          "durationTicks": 20,
          "midi": 79,
          "name": "G5",
          "ticks": 71828,
          "time": 130.50062697916667,
          "velocity": 0.7716535433070866
        },
        {
          "duration": 0.31976541666665526,
          "durationTicks": 176,
          "midi": 79,
          "name": "G5",
          "ticks": 71996,
          "time": 130.80585760416668,
          "velocity": 0.8267716535433071
        },
        {
          "duration": 0.21075447916663848,
          "durationTicks": 116,
          "midi": 77,
          "name": "F5",
          "ticks": 72188,
          "time": 131.15469260416668,
          "velocity": 0.8503937007874016
        }
      ]
    },
    {
      "channel": 0,
      "controlChanges": {
        "0": [
          {
            "number": 0,
            "ticks": 1536,
            "time": 2.79068,
            "value": 0
          }
        ],
        "7": [
          {
            "number": 7,
            "ticks": 1536,
            "time": 2.79068,
            "value": 0.6062992125984252
          }
        ],
        "10": [
          {
            "number": 10,
            "ticks": 1536,
            "time": 2.79068,
            "value": 0.5039370078740157
          }
        ],
        "11": [
          {
            "number": 11,
            "ticks": 1536,
            "time": 2.79068,
            "value": 1
          }
        ],
        "91": [
          {
            "number": 91,
            "ticks": 1536,
            "time": 2.79068,
            "value": 1
          }
        ],
        "93": [
          {
            "number": 93,
            "ticks": 1536,
            "time": 2.79068,
            "value": 0.1889763779527559
          }
        ],
        "121": [
          {
            "number": 121,
            "ticks": 1536,
            "time": 2.79068,
            "value": 0
          }
        ]
      },
      "pitchBends": [
        {
          "ticks": 1536,
          "time": 2.79068,
          "value": 0
        }
      ],
      "instrument": {
        "family": "piano",
        "name": "acoustic grand piano",
        "number": 0
      },
      "name": "Harp",
      "notes": []
    },
    {
      "channel": 7,
      "controlChanges": {
        "120": [
          {
            "number": 120,
            "ticks": 107160,
            "time": 194.693534375,
            "value": 0
          }
        ],
        "123": [
          {
            "number": 123,
            "ticks": 107256,
            "time": 194.86795187500002,
            "value": 0
          }
        ]
      },
      "pitchBends": [],
      "instrument": {
        "family": "strings",
        "name": "orchestral harp",
        "number": 46
      },
      "name": "",
      "notes": [
        {
          "duration": 2.281962291666666,
          "durationTicks": 1256,
          "midi": 62,
          "name": "D4",
          "ticks": 18156,
          "time": 32.9867096875,
          "velocity": 0.8582677165354331
        },
        {
          "duration": 1.9549294791666654,
          "durationTicks": 1076,
          "midi": 67,
          "name": "G4",
          "ticks": 18300,
          "time": 33.2483359375,
          "velocity": 0.8110236220472441
        },
        {
          "duration": 1.7805119791666684,
          "durationTicks": 980,
          "midi": 79,
          "name": "G5",
          "ticks": 18442,
          "time": 33.50632848958333,
          "velocity": 0.8267716535433071
        },
        {
          "duration": 0.12354572916667905,
          "durationTicks": 68,
          "midi": 67,
          "name": "G4",
          "ticks": 55104,
          "time": 100.115645,
          "velocity": 0.4251968503937008
        },
        {
          "duration": 0.10537723958334766,
          "durationTicks": 58,
          "midi": 65,
          "name": "F4",
          "ticks": 55144,
          "time": 100.18831895833333,
          "velocity": 0.4645669291338583
        },
        {
          "duration": 0.09084244791667118,
          "durationTicks": 50,
          "midi": 64,
          "name": "E4",
          "ticks": 55180,
          "time": 100.25372552083333,
          "velocity": 0.5039370078740157
        },
        {
          "duration": 0.05813916666667751,
          "durationTicks": 32,
          "midi": 62,
          "name": "D4",
          "ticks": 55216,
          "time": 100.31913208333333,
          "velocity": 0.5433070866141733
        },
        {
          "duration": 0.05450546874999418,
          "durationTicks": 30,
          "midi": 60,
          "name": "C4",
          "ticks": 55238,
          "time": 100.35910276041668,
          "velocity": 0.5669291338582677
        },
        {
          "duration": 0.04723807291668436,
          "durationTicks": 26,
          "midi": 59,
          "name": "B3",
          "ticks": 55258,
          "time": 100.39543973958332,
          "velocity": 0.5905511811023622
        },
        {
          "duration": 0.03997067708333191,
          "durationTicks": 22,
          "midi": 57,
          "name": "A3",
          "ticks": 55274,
          "time": 100.42450932291668,
          "velocity": 0.6062992125984252
        },
        {
          "duration": 0.1707838020833492,
          "durationTicks": 94,
          "midi": 55,
          "name": "G3",
          "ticks": 55294,
          "time": 100.46084630208333,
          "velocity": 0.6299212598425197
        },
        {
          "duration": 0.12354572916666484,
          "durationTicks": 68,
          "midi": 67,
          "name": "G4",
          "ticks": 85824,
          "time": 155.929245,
          "velocity": 0.4251968503937008
        },
        {
          "duration": 0.10537723958333345,
          "durationTicks": 58,
          "midi": 65,
          "name": "F4",
          "ticks": 85864,
          "time": 156.00191895833333,
          "velocity": 0.4645669291338583
        },
        {
          "duration": 0.09084244791668539,
          "durationTicks": 50,
          "midi": 64,
          "name": "E4",
          "ticks": 85900,
          "time": 156.06732552083332,
          "velocity": 0.5039370078740157
        },
        {
          "duration": 0.05813916666667751,
          "durationTicks": 32,
          "midi": 62,
          "name": "D4",
          "ticks": 85936,
          "time": 156.13273208333334,
          "velocity": 0.5433070866141733
        },
        {
          "duration": 0.05450546874999418,
          "durationTicks": 30,
          "midi": 60,
          "name": "C4",
          "ticks": 85958,
          "time": 156.17270276041668,
          "velocity": 0.5669291338582677
        },
        {
          "duration": 0.04723807291668436,
          "durationTicks": 26,
          "midi": 59,
          "name": "B3",
          "ticks": 85978,
          "time": 156.20903973958332,
          "velocity": 0.5905511811023622
        },
        {
          "duration": 0.039970677083317696,
          "durationTicks": 22,
          "midi": 57,
          "name": "A3",
          "ticks": 85994,
          "time": 156.23810932291667,
          "velocity": 0.6062992125984252
        },
        {
          "duration": 0.1707838020833492,
          "durationTicks": 94,
          "midi": 55,
          "name": "G3",
          "ticks": 86014,
          "time": 156.27444630208333,
          "velocity": 0.6299212598425197
        }
      ]
    },
    {
      "channel": 0,
      "controlChanges": {
        "0": [
          {
            "number": 0,
            "ticks": 1536,
            "time": 2.79068,
            "value": 0
          }
        ],
        "7": [
          {
            "number": 7,
            "ticks": 1536,
            "time": 2.79068,
            "value": 0.6220472440944882
          }
        ],
        "10": [
          {
            "number": 10,
            "ticks": 1536,
            "time": 2.79068,
            "value": 0.44881889763779526
          }
        ],
        "11": [
          {
            "number": 11,
            "ticks": 1536,
            "time": 2.79068,
            "value": 1
          }
        ],
        "91": [
          {
            "number": 91,
            "ticks": 1536,
            "time": 2.79068,
            "value": 0.7322834645669292
          }
        ],
        "93": [
          {
            "number": 93,
            "ticks": 1536,
            "time": 2.79068,
            "value": 0.23622047244094488
          }
        ],
        "121": [
          {
            "number": 121,
            "ticks": 1536,
            "time": 2.79068,
            "value": 0
          }
        ]
      },
      "pitchBends": [
        {
          "ticks": 1536,
          "time": 2.79068,
          "value": 0
        }
      ],
      "instrument": {
        "family": "piano",
        "name": "acoustic grand piano",
        "number": 0
      },
      "name": "Viola",
      "notes": []
    },
    {
      "channel": 8,
      "controlChanges": {
        "120": [
          {
            "number": 120,
            "ticks": 107376,
            "time": 195.08597375,
            "value": 0
          }
        ],
        "123": [
          {
            "number": 123,
            "ticks": 107424,
            "time": 195.1731825,
            "value": 0
          }
        ]
      },
      "pitchBends": [],
      "instrument": {
        "family": "strings",
        "name": "viola",
        "number": 41
      },
      "name": "",
      "notes": [
        {
          "duration": 0.4215089583333622,
          "durationTicks": 232,
          "midi": 75,
          "name": "D#5",
          "ticks": 79870,
          "time": 145.11172630208333,
          "velocity": 0.7401574803149606
        },
        {
          "duration": 0.4941829166666878,
          "durationTicks": 272,
          "midi": 75,
          "name": "D#5",
          "ticks": 80160,
          "time": 145.6386125,
          "velocity": 0.7401574803149606
        },
        {
          "duration": 0.33793390624998665,
          "durationTicks": 186,
          "midi": 77,
          "name": "F5",
          "ticks": 80434,
          "time": 146.13642911458334,
          "velocity": 0.7401574803149606
        },
        {
          "duration": 0.5014503124999976,
          "durationTicks": 276,
          "midi": 75,
          "name": "D#5",
          "ticks": 80622,
          "time": 146.47799671875,
          "velocity": 0.7401574803149606
        },
        {
          "duration": 0.42877635416667204,
          "durationTicks": 236,
          "midi": 74,
          "name": "D5",
          "ticks": 80902,
          "time": 146.98671442708334,
          "velocity": 0.6929133858267716
        },
        {
          "duration": 0.47238072916667306,
          "durationTicks": 260,
          "midi": 72,
          "name": "C5",
          "ticks": 81140,
          "time": 147.41912447916667,
          "velocity": 0.7007874015748031
        },
        {
          "duration": 0.35246869791669155,
          "durationTicks": 194,
          "midi": 74,
          "name": "D5",
          "ticks": 81402,
          "time": 147.89513890625,
          "velocity": 0.6535433070866141
        },
        {
          "duration": 0.5014503124999976,
          "durationTicks": 276,
          "midi": 74,
          "name": "D5",
          "ticks": 81674,
          "time": 148.38932182291668,
          "velocity": 0.6535433070866141
        },
        {
          "duration": 0.3815382812499877,
          "durationTicks": 210,
          "midi": 75,
          "name": "D#5",
          "ticks": 81952,
          "time": 148.89440583333334,
          "velocity": 0.7401574803149606
        },
        {
          "duration": 0.6649667187499801,
          "durationTicks": 366,
          "midi": 74,
          "name": "D5",
          "ticks": 82164,
          "time": 149.2795778125,
          "velocity": 0.6535433070866141
        },
        {
          "duration": 0.1707838020833492,
          "durationTicks": 94,
          "midi": 69,
          "name": "A4",
          "ticks": 82752,
          "time": 150.347885,
          "velocity": 0.6692913385826772
        },
        {
          "duration": 0.17078380208332078,
          "durationTicks": 94,
          "midi": 70,
          "name": "A#4",
          "ticks": 82850,
          "time": 150.52593619791668,
          "velocity": 0.7401574803149606
        },
        {
          "duration": 0.3633697916666563,
          "durationTicks": 200,
          "midi": 73,
          "name": "C#5",
          "ticks": 82946,
          "time": 150.70035369791668,
          "velocity": 0.7952755905511811
        },
        {
          "duration": 0.5123514062500192,
          "durationTicks": 282,
          "midi": 73,
          "name": "C#5",
          "ticks": 83220,
          "time": 151.1981703125,
          "velocity": 0.7401574803149606
        },
        {
          "duration": 0.4033404687500024,
          "durationTicks": 222,
          "midi": 74,
          "name": "D5",
          "ticks": 83504,
          "time": 151.71415541666667,
          "velocity": 0.7007874015748031
        },
        {
          "duration": 0.3270328124999935,
          "durationTicks": 180,
          "midi": 73,
          "name": "C#5",
          "ticks": 83728,
          "time": 152.12112958333333,
          "velocity": 0.7401574803149606
        },
        {
          "duration": 0.4215089583333054,
          "durationTicks": 232,
          "midi": 73,
          "name": "C#5",
          "ticks": 84014,
          "time": 152.64074838541669,
          "velocity": 0.7401574803149606
        },
        {
          "duration": 0.25799255208335126,
          "durationTicks": 142,
          "midi": 78,
          "name": "F#5",
          "ticks": 84256,
          "time": 153.08042583333332,
          "velocity": 0.7401574803149606
        },
        {
          "duration": 1.249992083333325,
          "durationTicks": 688,
          "midi": 78,
          "name": "F#5",
          "ticks": 84464,
          "time": 153.45833041666668,
          "velocity": 0.7401574803149606
        },
        {
          "duration": 0.1526153125000178,
          "durationTicks": 84,
          "midi": 74,
          "name": "D5",
          "ticks": 86398,
          "time": 156.97211630208332,
          "velocity": 0.8503937007874016
        },
        {
          "duration": 0.08357505208331872,
          "durationTicks": 46,
          "midi": 74,
          "name": "D5",
          "ticks": 86578,
          "time": 157.29914911458334,
          "velocity": 0.8346456692913385
        },
        {
          "duration": 0.7848787500000185,
          "durationTicks": 432,
          "midi": 74,
          "name": "D5",
          "ticks": 86674,
          "time": 157.47356661458332,
          "velocity": 0.8031496062992126
        },
        {
          "duration": 0.17078380208332078,
          "durationTicks": 94,
          "midi": 72,
          "name": "C5",
          "ticks": 87140,
          "time": 158.32021822916667,
          "velocity": 0.7401574803149606
        },
        {
          "duration": 0.6031938541666477,
          "durationTicks": 332,
          "midi": 70,
          "name": "A#4",
          "ticks": 87236,
          "time": 158.49463572916667,
          "velocity": 0.7401574803149606
        },
        {
          "duration": 0.41424156249999555,
          "durationTicks": 228,
          "midi": 79,
          "name": "G5",
          "ticks": 87570,
          "time": 159.10146328125,
          "velocity": 0.7401574803149606
        },
        {
          "duration": 0.4978166145833427,
          "durationTicks": 274,
          "midi": 79,
          "name": "G5",
          "ticks": 87860,
          "time": 159.62834947916667,
          "velocity": 0.7401574803149606
        },
        {
          "duration": 0.032703281250007876,
          "durationTicks": 18,
          "midi": 79,
          "name": "G5",
          "ticks": 88136,
          "time": 160.12979979166667,
          "velocity": 0.6850393700787402
        },
        {
          "duration": 0.5305198958333222,
          "durationTicks": 292,
          "midi": 79,
          "name": "G5",
          "ticks": 88324,
          "time": 160.47136739583334,
          "velocity": 0.7401574803149606
        },
        {
          "duration": 0.3197654166666837,
          "durationTicks": 176,
          "midi": 74,
          "name": "D5",
          "ticks": 88618,
          "time": 161.00552098958332,
          "velocity": 0.7401574803149606
        },
        {
          "duration": 0.31613171875000035,
          "durationTicks": 174,
          "midi": 77,
          "name": "F5",
          "ticks": 88900,
          "time": 161.51787239583334,
          "velocity": 0.6377952755905512
        },
        {
          "duration": 0.007267395833338242,
          "durationTicks": 4,
          "midi": 77,
          "name": "F5",
          "ticks": 89076,
          "time": 161.8376378125,
          "velocity": 0.7401574803149606
        },
        {
          "duration": 0.33430020833333174,
          "durationTicks": 184,
          "midi": 77,
          "name": "F5",
          "ticks": 89372,
          "time": 162.37542510416668,
          "velocity": 0.7401574803149606
        },
        {
          "duration": 0.18531859374999726,
          "durationTicks": 102,
          "midi": 77,
          "name": "F5",
          "ticks": 89644,
          "time": 162.86960802083334,
          "velocity": 0.7401574803149606
        },
        {
          "duration": 0.741274374999989,
          "durationTicks": 408,
          "midi": 77,
          "name": "F5",
          "ticks": 89842,
          "time": 163.22934411458334,
          "velocity": 0.7401574803149606
        },
        {
          "duration": 0.13081312500000308,
          "durationTicks": 72,
          "midi": 77,
          "name": "F5",
          "ticks": 90426,
          "time": 164.29038390625,
          "velocity": 0.7401574803149606
        },
        {
          "duration": 0.1162783333333266,
          "durationTicks": 64,
          "midi": 77,
          "name": "F5",
          "ticks": 90506,
          "time": 164.43573182291667,
          "velocity": 0.6299212598425197
        },
        {
          "duration": 0.2906958333333307,
          "durationTicks": 160,
          "midi": 78,
          "name": "F#5",
          "ticks": 90614,
          "time": 164.63195151041668,
          "velocity": 0.7401574803149606
        },
        {
          "duration": 0.5595894791666751,
          "durationTicks": 308,
          "midi": 78,
          "name": "F#5",
          "ticks": 90880,
          "time": 165.11523333333332,
          "velocity": 0.7401574803149606
        },
        {
          "duration": 0.697669999999988,
          "durationTicks": 384,
          "midi": 81,
          "name": "A5",
          "ticks": 91190,
          "time": 165.67845651041668,
          "velocity": 0.6692913385826772
        },
        {
          "duration": 0.8575527083333156,
          "durationTicks": 472,
          "midi": 78,
          "name": "F#5",
          "ticks": 91586,
          "time": 166.39792869791668,
          "velocity": 0.7401574803149606
        },
        {
          "duration": 0.45421223958334167,
          "durationTicks": 250,
          "midi": 74,
          "name": "D5",
          "ticks": 92324,
          "time": 167.73876322916666,
          "velocity": 0.6535433070866141
        },
        {
          "duration": 0.18168489583334235,
          "durationTicks": 100,
          "midi": 74,
          "name": "D5",
          "ticks": 92692,
          "time": 168.40736364583333,
          "velocity": 0.6850393700787402
        },
        {
          "duration": 0.7013036979166998,
          "durationTicks": 386,
          "midi": 74,
          "name": "D5",
          "ticks": 92902,
          "time": 168.78890192708332,
          "velocity": 0.6692913385826772
        },
        {
          "duration": 0.14534791666665114,
          "durationTicks": 80,
          "midi": 72,
          "name": "C5",
          "ticks": 93290,
          "time": 169.49383932291667,
          "velocity": 0.7401574803149606
        },
        {
          "duration": 0.5595894791666467,
          "durationTicks": 308,
          "midi": 70,
          "name": "A#4",
          "ticks": 93374,
          "time": 169.6464546354167,
          "velocity": 0.7401574803149606
        },
        {
          "duration": 0.41060786458334064,
          "durationTicks": 226,
          "midi": 79,
          "name": "G5",
          "ticks": 93684,
          "time": 170.2096778125,
          "velocity": 0.7401574803149606
        },
        {
          "duration": 0.4978166145833427,
          "durationTicks": 274,
          "midi": 79,
          "name": "G5",
          "ticks": 93986,
          "time": 170.75836619791667,
          "velocity": 0.7401574803149606
        },
        {
          "duration": 0.3270328124999935,
          "durationTicks": 180,
          "midi": 79,
          "name": "G5",
          "ticks": 94262,
          "time": 171.25981651041667,
          "velocity": 0.6850393700787402
        },
        {
          "duration": 0.025435885416698056,
          "durationTicks": 14,
          "midi": 79,
          "name": "G5",
          "ticks": 94444,
          "time": 171.59048302083332,
          "velocity": 0.7401574803149606
        },
        {
          "duration": 0.3015969270833523,
          "durationTicks": 166,
          "midi": 74,
          "name": "D5",
          "ticks": 94744,
          "time": 172.13553770833332,
          "velocity": 0.7401574803149606
        },
        {
          "duration": 0.32339911458331017,
          "durationTicks": 178,
          "midi": 77,
          "name": "F5",
          "ticks": 95034,
          "time": 172.66242390625,
          "velocity": 0.6220472440944882
        },
        {
          "duration": 0.021802187499986303,
          "durationTicks": 12,
          "midi": 77,
          "name": "F5",
          "ticks": 95214,
          "time": 172.98945671875,
          "velocity": 0.7401574803149606
        },
        {
          "duration": 0.33066651041667683,
          "durationTicks": 182,
          "midi": 77,
          "name": "F5",
          "ticks": 95524,
          "time": 173.55267989583334,
          "velocity": 0.7401574803149606
        },
        {
          "duration": 0.1744175000000041,
          "durationTicks": 96,
          "midi": 77,
          "name": "F5",
          "ticks": 95800,
          "time": 174.05413020833333,
          "velocity": 0.7401574803149606
        },
        {
          "duration": 0.7013036979166429,
          "durationTicks": 386,
          "midi": 77,
          "name": "F5",
          "ticks": 95990,
          "time": 174.3993315104167,
          "velocity": 0.7401574803149606
        },
        {
          "duration": 0.15624901041667272,
          "durationTicks": 86,
          "midi": 75,
          "name": "D#5",
          "ticks": 96378,
          "time": 175.10426890625,
          "velocity": 0.6535433070866141
        },
        {
          "duration": 0.5377872916666604,
          "durationTicks": 296,
          "midi": 74,
          "name": "D5",
          "ticks": 96466,
          "time": 175.26415161458334,
          "velocity": 0.7401574803149606
        },
        {
          "duration": 1.0755745833333492,
          "durationTicks": 592,
          "midi": 74,
          "name": "D5",
          "ticks": 96766,
          "time": 175.80920630208334,
          "velocity": 0.7401574803149606
        },
        {
          "duration": 0.15624901041667272,
          "durationTicks": 86,
          "midi": 74,
          "name": "D5",
          "ticks": 98214,
          "time": 178.44000359375,
          "velocity": 0.7401574803149606
        },
        {
          "duration": 0.3960730729166926,
          "durationTicks": 218,
          "midi": 77,
          "name": "F5",
          "ticks": 98302,
          "time": 178.59988630208332,
          "velocity": 0.7401574803149606
        },
        {
          "duration": 0.4360437500000103,
          "durationTicks": 240,
          "midi": 77,
          "name": "F5",
          "ticks": 98578,
          "time": 179.10133661458335,
          "velocity": 0.7401574803149606
        },
        {
          "duration": 0.1562490104166443,
          "durationTicks": 86,
          "midi": 77,
          "name": "F5",
          "ticks": 98890,
          "time": 179.66819348958336,
          "velocity": 0.7401574803149606
        },
        {
          "duration": 0.5523220833333369,
          "durationTicks": 304,
          "midi": 77,
          "name": "F5",
          "ticks": 99056,
          "time": 179.96979041666665,
          "velocity": 0.7401574803149606
        },
        {
          "duration": 0.5050840104167094,
          "durationTicks": 278,
          "midi": 77,
          "name": "F5",
          "ticks": 99362,
          "time": 180.52574619791665,
          "velocity": 0.7401574803149606
        },
        {
          "duration": 0.032703281249979455,
          "durationTicks": 18,
          "midi": 77,
          "name": "F5",
          "ticks": 99642,
          "time": 181.03446390625,
          "velocity": 0.6377952755905512
        },
        {
          "duration": 1.7587097916666607,
          "durationTicks": 968,
          "midi": 79,
          "name": "G5",
          "ticks": 99852,
          "time": 181.4160021875,
          "velocity": 0.7086614173228346
        },
        {
          "duration": 0.16351640624998254,
          "durationTicks": 90,
          "midi": 74,
          "name": "D5",
          "ticks": 101278,
          "time": 184.00682880208336,
          "velocity": 0.7401574803149606
        },
        {
          "duration": 0.4069741666666573,
          "durationTicks": 224,
          "midi": 78,
          "name": "F#5",
          "ticks": 101370,
          "time": 184.17397890625,
          "velocity": 0.7401574803149606
        },
        {
          "duration": 0.4614796354166515,
          "durationTicks": 254,
          "midi": 78,
          "name": "F#5",
          "ticks": 101638,
          "time": 184.66089442708335,
          "velocity": 0.7401574803149606
        },
        {
          "duration": 0.3197654166667121,
          "durationTicks": 176,
          "midi": 78,
          "name": "F#5",
          "ticks": 101954,
          "time": 185.23501869791664,
          "velocity": 0.7401574803149606
        },
        {
          "duration": 0.5268861979166388,
          "durationTicks": 290,
          "midi": 74,
          "name": "D5",
          "ticks": 102138,
          "time": 185.56931890625,
          "velocity": 0.7401574803149606
        },
        {
          "duration": 0.45057854166668676,
          "durationTicks": 248,
          "midi": 79,
          "name": "G5",
          "ticks": 102488,
          "time": 186.20521604166666,
          "velocity": 0.7401574803149606
        },
        {
          "duration": 0.0944761458333403,
          "durationTicks": 52,
          "midi": 79,
          "name": "G5",
          "ticks": 102738,
          "time": 186.65942828125,
          "velocity": 0.7401574803149606
        },
        {
          "duration": 0.1162783333333266,
          "durationTicks": 64,
          "midi": 79,
          "name": "G5",
          "ticks": 102908,
          "time": 186.96829260416666,
          "velocity": 0.7559055118110236
        }
      ]
    },
    {
      "channel": 0,
      "controlChanges": {
        "0": [
          {
            "number": 0,
            "ticks": 1536,
            "time": 2.79068,
            "value": 0
          }
        ],
        "7": [
          {
            "number": 7,
            "ticks": 1536,
            "time": 2.79068,
            "value": 0.84251968503937
          }
        ],
        "10": [
          {
            "number": 10,
            "ticks": 1536,
            "time": 2.79068,
            "value": 0.5039370078740157
          }
        ],
        "11": [
          {
            "number": 11,
            "ticks": 1536,
            "time": 2.79068,
            "value": 1
          }
        ],
        "91": [
          {
            "number": 91,
            "ticks": 1536,
            "time": 2.79068,
            "value": 0.9921259842519685
          }
        ],
        "93": [
          {
            "number": 93,
            "ticks": 1536,
            "time": 2.79068,
            "value": 0.1889763779527559
          }
        ],
        "121": [
          {
            "number": 121,
            "ticks": 1536,
            "time": 2.79068,
            "value": 0
          }
        ]
      },
      "pitchBends": [
        {
          "ticks": 1536,
          "time": 2.79068,
          "value": 0
        }
      ],
      "instrument": {
        "family": "piano",
        "name": "acoustic grand piano",
        "number": 0
      },
      "name": "Viola",
      "notes": []
    },
    {
      "channel": 10,
      "controlChanges": {
        "120": [
          {
            "number": 120,
            "ticks": 107208,
            "time": 194.78074312500001,
            "value": 0
          }
        ],
        "123": [
          {
            "number": 123,
            "ticks": 107256,
            "time": 194.86795187500002,
            "value": 0
          }
        ]
      },
      "pitchBends": [],
      "instrument": {
        "family": "strings",
        "name": "viola",
        "number": 41
      },
      "name": "",
      "notes": [
        {
          "duration": 2.5944603125000008,
          "durationTicks": 1428,
          "midi": 43,
          "name": "G2",
          "ticks": 3062,
          "time": 5.563191510416667,
          "velocity": 0.9133858267716536
        },
        {
          "duration": 2.6089951041666684,
          "durationTicks": 1436,
          "midi": 43,
          "name": "G2",
          "ticks": 4594,
          "time": 8.346604114583332,
          "velocity": 0.8818897637795275
        },
        {
          "duration": 2.6489657812500003,
          "durationTicks": 1458,
          "midi": 43,
          "name": "G2",
          "ticks": 6138,
          "time": 11.15181890625,
          "velocity": 0.8818897637795275
        },
        {
          "duration": 2.543588541666667,
          "durationTicks": 1400,
          "midi": 43,
          "name": "G2",
          "ticks": 7686,
          "time": 13.96430109375,
          "velocity": 0.84251968503937
        },
        {
          "duration": 2.5944603125000008,
          "durationTicks": 1428,
          "midi": 43,
          "name": "G2",
          "ticks": 9206,
          "time": 16.725911510416665,
          "velocity": 0.9133858267716536
        },
        {
          "duration": 2.608995104166663,
          "durationTicks": 1436,
          "midi": 43,
          "name": "G2",
          "ticks": 10738,
          "time": 19.509324114583336,
          "velocity": 0.7401574803149606
        },
        {
          "duration": 2.648965781250002,
          "durationTicks": 1458,
          "midi": 43,
          "name": "G2",
          "ticks": 12282,
          "time": 22.31453890625,
          "velocity": 0.8267716535433071
        },
        {
          "duration": 2.5435885416666686,
          "durationTicks": 1400,
          "midi": 43,
          "name": "G2",
          "ticks": 13830,
          "time": 25.12702109375,
          "velocity": 0.7874015748031497
        }
      ]
    },
    {
      "channel": 0,
      "controlChanges": {
        "0": [
          {
            "number": 0,
            "ticks": 1536,
            "time": 2.79068,
            "value": 0
          }
        ],
        "7": [
          {
            "number": 7,
            "ticks": 1536,
            "time": 2.79068,
            "value": 0.7480314960629921
          }
        ],
        "10": [
          {
            "number": 10,
            "ticks": 1536,
            "time": 2.79068,
            "value": 0.5039370078740157
          }
        ],
        "11": [
          {
            "number": 11,
            "ticks": 1536,
            "time": 2.79068,
            "value": 1
          }
        ],
        "91": [
          {
            "number": 91,
            "ticks": 1536,
            "time": 2.79068,
            "value": 1
          }
        ],
        "93": [
          {
            "number": 93,
            "ticks": 1536,
            "time": 2.79068,
            "value": 0.5354330708661418
          }
        ],
        "121": [
          {
            "number": 121,
            "ticks": 1536,
            "time": 2.79068,
            "value": 0
          }
        ]
      },
      "pitchBends": [
        {
          "ticks": 1536,
          "time": 2.79068,
          "value": 0
        }
      ],
      "instrument": {
        "family": "piano",
        "name": "acoustic grand piano",
        "number": 0
      },
      "name": "Contrabass",
      "notes": []
    },
    {
      "channel": 11,
      "controlChanges": {
        "120": [
          {
            "number": 120,
            "ticks": 107280,
            "time": 194.91155625,
            "value": 0
          }
        ],
        "123": [
          {
            "number": 123,
            "ticks": 107328,
            "time": 194.998765,
            "value": 0
          }
        ]
      },
      "pitchBends": [],
      "instrument": {
        "family": "strings",
        "name": "contrabass",
        "number": 43
      },
      "name": "",
      "notes": [
        {
          "duration": 2.5944603125000008,
          "durationTicks": 1428,
          "midi": 31,
          "name": "G1",
          "ticks": 3072,
          "time": 5.58136,
          "velocity": 0.6377952755905512
        },
        {
          "duration": 2.6089951041666666,
          "durationTicks": 1436,
          "midi": 31,
          "name": "G1",
          "ticks": 4608,
          "time": 8.37204,
          "velocity": 0.6062992125984252
        },
        {
          "duration": 2.6489657812500003,
          "durationTicks": 1458,
          "midi": 31,
          "name": "G1",
          "ticks": 6144,
          "time": 11.16272,
          "velocity": 0.6062992125984252
        },
        {
          "duration": 2.543588541666667,
          "durationTicks": 1400,
          "midi": 31,
          "name": "G1",
          "ticks": 7680,
          "time": 13.9534,
          "velocity": 0.5669291338582677
        },
        {
          "duration": 2.5944603125000008,
          "durationTicks": 1428,
          "midi": 31,
          "name": "G1",
          "ticks": 9216,
          "time": 16.74408,
          "velocity": 0.6377952755905512
        },
        {
          "duration": 2.6089951041666666,
          "durationTicks": 1436,
          "midi": 31,
          "name": "G1",
          "ticks": 10752,
          "time": 19.53476,
          "velocity": 0.5511811023622047
        },
        {
          "duration": 2.6489657812499985,
          "durationTicks": 1458,
          "midi": 31,
          "name": "G1",
          "ticks": 12288,
          "time": 22.32544,
          "velocity": 0.5511811023622047
        },
        {
          "duration": 2.543588541666665,
          "durationTicks": 1400,
          "midi": 31,
          "name": "G1",
          "ticks": 13824,
          "time": 25.116120000000002,
          "velocity": 0.5118110236220472
        }
      ]
    },
    {
      "channel": 0,
      "controlChanges": {
        "0": [
          {
            "number": 0,
            "ticks": 1536,
            "time": 2.79068,
            "value": 0
          }
        ],
        "7": [
          {
            "number": 7,
            "ticks": 1536,
            "time": 2.79068,
            "value": 1
          }
        ],
        "10": [
          {
            "number": 10,
            "ticks": 1536,
            "time": 2.79068,
            "value": 0.5039370078740157
          }
        ],
        "11": [
          {
            "number": 11,
            "ticks": 1536,
            "time": 2.79068,
            "value": 1
          }
        ],
        "91": [
          {
            "number": 91,
            "ticks": 1536,
            "time": 2.79068,
            "value": 0.09448818897637795
          }
        ],
        "93": [
          {
            "number": 93,
            "ticks": 1536,
            "time": 2.79068,
            "value": 0.25196850393700787
          }
        ],
        "121": [
          {
            "number": 121,
            "ticks": 1536,
            "time": 2.79068,
            "value": 0
          }
        ]
      },
      "pitchBends": [
        {
          "ticks": 1536,
          "time": 2.79068,
          "value": 0
        }
      ],
      "instrument": {
        "family": "piano",
        "name": "acoustic grand piano",
        "number": 0
      },
      "name": "Bass",
      "notes": []
    },
    {
      "channel": 12,
      "controlChanges": {
        "120": [
          {
            "number": 120,
            "ticks": 107328,
            "time": 194.998765,
            "value": 0
          }
        ],
        "123": [
          {
            "number": 123,
            "ticks": 107376,
            "time": 195.08597375,
            "value": 0
          }
        ]
      },
      "pitchBends": [],
      "instrument": {
        "family": "bass",
        "name": "electric bass (finger)",
        "number": 33
      },
      "name": "",
      "notes": [
        {
          "duration": 2.747075625000001,
          "durationTicks": 1512,
          "midi": 31,
          "name": "G1",
          "ticks": 3072,
          "time": 5.58136,
          "velocity": 0.5984251968503937
        },
        {
          "duration": 2.747075625000001,
          "durationTicks": 1512,
          "midi": 31,
          "name": "G1",
          "ticks": 4608,
          "time": 8.37204,
          "velocity": 0.5669291338582677
        },
        {
          "duration": 2.732540833333335,
          "durationTicks": 1504,
          "midi": 31,
          "name": "G1",
          "ticks": 6144,
          "time": 11.16272,
          "velocity": 0.5669291338582677
        },
        {
          "duration": 2.732540833333333,
          "durationTicks": 1504,
          "midi": 31,
          "name": "G1",
          "ticks": 7680,
          "time": 13.9534,
          "velocity": 0.5275590551181102
        },
        {
          "duration": 2.7616104166666666,
          "durationTicks": 1520,
          "midi": 31,
          "name": "G1",
          "ticks": 9216,
          "time": 16.74408,
          "velocity": 0.5433070866141733
        },
        {
          "duration": 2.732540833333335,
          "durationTicks": 1504,
          "midi": 31,
          "name": "G1",
          "ticks": 10752,
          "time": 19.53476,
          "velocity": 0.5118110236220472
        },
        {
          "duration": 2.7325408333333314,
          "durationTicks": 1504,
          "midi": 31,
          "name": "G1",
          "ticks": 12288,
          "time": 22.32544,
          "velocity": 0.5118110236220472
        },
        {
          "duration": 2.7325408333333314,
          "durationTicks": 1504,
          "midi": 31,
          "name": "G1",
          "ticks": 13824,
          "time": 25.116120000000002,
          "velocity": 0.47244094488188976
        },
        {
          "duration": 1.1482485416666677,
          "durationTicks": 632,
          "midi": 31,
          "name": "G1",
          "ticks": 15360,
          "time": 27.9068,
          "velocity": 0.7401574803149606
        },
        {
          "duration": 1.1337137499999983,
          "durationTicks": 624,
          "midi": 31,
          "name": "G1",
          "ticks": 16128,
          "time": 29.30214,
          "velocity": 0.7401574803149606
        },
        {
          "duration": 1.0901093750000008,
          "durationTicks": 600,
          "midi": 31,
          "name": "G1",
          "ticks": 16896,
          "time": 30.69748,
          "velocity": 0.7401574803149606
        },
        {
          "duration": 1.1337137499999983,
          "durationTicks": 624,
          "midi": 31,
          "name": "G1",
          "ticks": 17664,
          "time": 32.09282,
          "velocity": 0.7401574803149606
        },
        {
          "duration": 1.1482485416666677,
          "durationTicks": 632,
          "midi": 31,
          "name": "G1",
          "ticks": 18432,
          "time": 33.48816,
          "velocity": 0.7401574803149606
        },
        {
          "duration": 1.1337137500000054,
          "durationTicks": 624,
          "midi": 31,
          "name": "G1",
          "ticks": 19200,
          "time": 34.8835,
          "velocity": 0.7401574803149606
        },
        {
          "duration": 1.0901093749999973,
          "durationTicks": 600,
          "midi": 31,
          "name": "G1",
          "ticks": 19968,
          "time": 36.27884,
          "velocity": 0.7401574803149606
        },
        {
          "duration": 1.1337137499999983,
          "durationTicks": 624,
          "midi": 31,
          "name": "G1",
          "ticks": 20736,
          "time": 37.67418,
          "velocity": 0.7401574803149606
        },
        {
          "duration": 1.1482485416666748,
          "durationTicks": 632,
          "midi": 29,
          "name": "F1",
          "ticks": 21504,
          "time": 39.06952,
          "velocity": 0.7401574803149606
        },
        {
          "duration": 1.1337137499999983,
          "durationTicks": 624,
          "midi": 29,
          "name": "F1",
          "ticks": 22272,
          "time": 40.46486,
          "velocity": 0.7401574803149606
        },
        {
          "duration": 1.0901093750000044,
          "durationTicks": 600,
          "midi": 38,
          "name": "D2",
          "ticks": 23040,
          "time": 41.8602,
          "velocity": 0.6771653543307087
        },
        {
          "duration": 1.1337137499999983,
          "durationTicks": 624,
          "midi": 38,
          "name": "D2",
          "ticks": 23808,
          "time": 43.25554,
          "velocity": 0.6771653543307087
        },
        {
          "duration": 1.1482485416666606,
          "durationTicks": 632,
          "midi": 31,
          "name": "G1",
          "ticks": 24576,
          "time": 44.65088,
          "velocity": 0.7401574803149606
        },
        {
          "duration": 1.1337137500000054,
          "durationTicks": 624,
          "midi": 31,
          "name": "G1",
          "ticks": 25344,
          "time": 46.04622,
          "velocity": 0.7401574803149606
        },
        {
          "duration": 1.0901093749999973,
          "durationTicks": 600,
          "midi": 31,
          "name": "G1",
          "ticks": 26112,
          "time": 47.44156,
          "velocity": 0.7401574803149606
        },
        {
          "duration": 1.1337137499999983,
          "durationTicks": 624,
          "midi": 31,
          "name": "G1",
          "ticks": 26880,
          "time": 48.8369,
          "velocity": 0.7401574803149606
        },
        {
          "duration": 1.1482485416666606,
          "durationTicks": 632,
          "midi": 29,
          "name": "F1",
          "ticks": 27648,
          "time": 50.232240000000004,
          "velocity": 0.7401574803149606
        },
        {
          "duration": 1.1337137499999983,
          "durationTicks": 624,
          "midi": 29,
          "name": "F1",
          "ticks": 28416,
          "time": 51.62758,
          "velocity": 0.7401574803149606
        },
        {
          "duration": 1.0901093750000044,
          "durationTicks": 600,
          "midi": 31,
          "name": "G1",
          "ticks": 29184,
          "time": 53.02292,
          "velocity": 0.7401574803149606
        },
        {
          "duration": 1.1337137499999983,
          "durationTicks": 624,
          "midi": 31,
          "name": "G1",
          "ticks": 29952,
          "time": 54.418260000000004,
          "velocity": 0.7401574803149606
        },
        {
          "duration": 1.1482485416666606,
          "durationTicks": 632,
          "midi": 31,
          "name": "G1",
          "ticks": 30718,
          "time": 55.80996630208334,
          "velocity": 0.7401574803149606
        },
        {
          "duration": 1.1337137499999983,
          "durationTicks": 624,
          "midi": 31,
          "name": "G1",
          "ticks": 31486,
          "time": 57.205306302083336,
          "velocity": 0.7401574803149606
        },
        {
          "duration": 1.0901093749999973,
          "durationTicks": 600,
          "midi": 31,
          "name": "G1",
          "ticks": 32254,
          "time": 58.60064630208334,
          "velocity": 0.7401574803149606
        },
        {
          "duration": 1.1337137499999983,
          "durationTicks": 624,
          "midi": 31,
          "name": "G1",
          "ticks": 33022,
          "time": 59.99598630208334,
          "velocity": 0.7401574803149606
        },
        {
          "duration": 1.1482485416666677,
          "durationTicks": 632,
          "midi": 29,
          "name": "F1",
          "ticks": 33790,
          "time": 61.391326302083336,
          "velocity": 0.7401574803149606
        },
        {
          "duration": 1.1337137499999983,
          "durationTicks": 624,
          "midi": 29,
          "name": "F1",
          "ticks": 34558,
          "time": 62.78666630208334,
          "velocity": 0.7401574803149606
        },
        {
          "duration": 1.0901093749999973,
          "durationTicks": 600,
          "midi": 38,
          "name": "D2",
          "ticks": 35326,
          "time": 64.18200630208334,
          "velocity": 0.6771653543307087
        },
        {
          "duration": 1.1337137499999983,
          "durationTicks": 624,
          "midi": 38,
          "name": "D2",
          "ticks": 36094,
          "time": 65.57734630208334,
          "velocity": 0.6771653543307087
        },
        {
          "duration": 1.1482485416666748,
          "durationTicks": 632,
          "midi": 31,
          "name": "G1",
          "ticks": 36862,
          "time": 66.97268630208333,
          "velocity": 0.7401574803149606
        },
        {
          "duration": 1.1337137499999983,
          "durationTicks": 624,
          "midi": 31,
          "name": "G1",
          "ticks": 37630,
          "time": 68.36802630208334,
          "velocity": 0.7401574803149606
        },
        {
          "duration": 1.0901093749999973,
          "durationTicks": 600,
          "midi": 31,
          "name": "G1",
          "ticks": 38398,
          "time": 69.76336630208334,
          "velocity": 0.7401574803149606
        },
        {
          "duration": 1.1337137500000125,
          "durationTicks": 624,
          "midi": 31,
          "name": "G1",
          "ticks": 39166,
          "time": 71.15870630208333,
          "velocity": 0.7401574803149606
        },
        {
          "duration": 1.1482485416666606,
          "durationTicks": 632,
          "midi": 29,
          "name": "F1",
          "ticks": 39934,
          "time": 72.55404630208334,
          "velocity": 0.7401574803149606
        },
        {
          "duration": 1.1337137499999983,
          "durationTicks": 624,
          "midi": 29,
          "name": "F1",
          "ticks": 40702,
          "time": 73.94938630208334,
          "velocity": 0.7401574803149606
        },
        {
          "duration": 1.0901093749999973,
          "durationTicks": 600,
          "midi": 31,
          "name": "G1",
          "ticks": 41470,
          "time": 75.34472630208334,
          "velocity": 0.7401574803149606
        },
        {
          "duration": 1.1337137499999983,
          "durationTicks": 624,
          "midi": 31,
          "name": "G1",
          "ticks": 42238,
          "time": 76.74006630208333,
          "velocity": 0.7401574803149606
        },
        {
          "duration": 1.1482485416666748,
          "durationTicks": 632,
          "midi": 29,
          "name": "F1",
          "ticks": 43000,
          "time": 78.12450520833333,
          "velocity": 0.7244094488188977
        },
        {
          "duration": 1.1337137499999983,
          "durationTicks": 624,
          "midi": 29,
          "name": "F1",
          "ticks": 43774,
          "time": 79.53074630208334,
          "velocity": 0.7401574803149606
        },
        {
          "duration": 1.0901093749999973,
          "durationTicks": 600,
          "midi": 38,
          "name": "D2",
          "ticks": 44544,
          "time": 80.92972,
          "velocity": 0.7401574803149606
        },
        {
          "duration": 1.1337137499999983,
          "durationTicks": 624,
          "midi": 38,
          "name": "D2",
          "ticks": 45312,
          "time": 82.32506000000001,
          "velocity": 0.7401574803149606
        },
        {
          "duration": 1.1482485416666606,
          "durationTicks": 632,
          "midi": 31,
          "name": "G1",
          "ticks": 46078,
          "time": 83.71676630208334,
          "velocity": 0.7401574803149606
        },
        {
          "duration": 1.1337137499999983,
          "durationTicks": 624,
          "midi": 31,
          "name": "G1",
          "ticks": 46846,
          "time": 85.11210630208333,
          "velocity": 0.7401574803149606
        },
        {
          "duration": 1.0901093749999973,
          "durationTicks": 600,
          "midi": 36,
          "name": "C2",
          "ticks": 47614,
          "time": 86.50744630208334,
          "velocity": 0.6771653543307087
        },
        {
          "duration": 1.1337137499999983,
          "durationTicks": 624,
          "midi": 36,
          "name": "C2",
          "ticks": 48382,
          "time": 87.90278630208334,
          "velocity": 0.6771653543307087
        },
        {
          "duration": 1.1482485416666748,
          "durationTicks": 632,
          "midi": 36,
          "name": "C2",
          "ticks": 49152,
          "time": 89.30176,
          "velocity": 0.7401574803149606
        },
        {
          "duration": 1.1337137499999983,
          "durationTicks": 624,
          "midi": 36,
          "name": "C2",
          "ticks": 49920,
          "time": 90.6971,
          "velocity": 0.7401574803149606
        },
        {
          "duration": 1.0901093749999973,
          "durationTicks": 600,
          "midi": 31,
          "name": "G1",
          "ticks": 50686,
          "time": 92.08880630208333,
          "velocity": 0.7401574803149606
        },
        {
          "duration": 1.1337137499999983,
          "durationTicks": 624,
          "midi": 31,
          "name": "G1",
          "ticks": 51454,
          "time": 93.48414630208333,
          "velocity": 0.7401574803149606
        },
        {
          "duration": 1.1482485416666748,
          "durationTicks": 632,
          "midi": 31,
          "name": "G1",
          "ticks": 52222,
          "time": 94.87948630208332,
          "velocity": 0.7401574803149606
        },
        {
          "duration": 1.1337137499999983,
          "durationTicks": 624,
          "midi": 31,
          "name": "G1",
          "ticks": 52990,
          "time": 96.27482630208333,
          "velocity": 0.7401574803149606
        },
        {
          "duration": 2.2674274999999966,
          "durationTicks": 1248,
          "midi": 38,
          "name": "D2",
          "ticks": 53768,
          "time": 97.68833479166668,
          "velocity": 0.7401574803149606
        },
        {
          "duration": 1.0901093749999973,
          "durationTicks": 600,
          "midi": 31,
          "name": "G1",
          "ticks": 55296,
          "time": 100.46448000000001,
          "velocity": 0.7401574803149606
        },
        {
          "duration": 1.1337137499999983,
          "durationTicks": 624,
          "midi": 31,
          "name": "G1",
          "ticks": 56064,
          "time": 101.85982,
          "velocity": 0.7401574803149606
        },
        {
          "duration": 1.0901093749999973,
          "durationTicks": 600,
          "midi": 31,
          "name": "G1",
          "ticks": 56832,
          "time": 103.25516,
          "velocity": 0.7401574803149606
        },
        {
          "duration": 1.1337137499999983,
          "durationTicks": 624,
          "midi": 31,
          "name": "G1",
          "ticks": 57600,
          "time": 104.65050000000001,
          "velocity": 0.7401574803149606
        },
        {
          "duration": 1.1482485416666748,
          "durationTicks": 632,
          "midi": 29,
          "name": "F1",
          "ticks": 58368,
          "time": 106.04584,
          "velocity": 0.7244094488188977
        },
        {
          "duration": 1.1337137499999983,
          "durationTicks": 624,
          "midi": 38,
          "name": "D2",
          "ticks": 59136,
          "time": 107.44118,
          "velocity": 0.7401574803149606
        },
        {
          "duration": 0.43604374999999607,
          "durationTicks": 240,
          "midi": 43,
          "name": "G2",
          "ticks": 59904,
          "time": 108.83652000000001,
          "velocity": 0.7165354330708661
        },
        {
          "duration": 0.4360437500000103,
          "durationTicks": 240,
          "midi": 38,
          "name": "D2",
          "ticks": 60288,
          "time": 109.53419,
          "velocity": 0.7086614173228346
        },
        {
          "duration": 0.4360437500000103,
          "durationTicks": 240,
          "midi": 43,
          "name": "G2",
          "ticks": 60672,
          "time": 110.23186,
          "velocity": 0.6929133858267716
        },
        {
          "duration": 0.43604374999999607,
          "durationTicks": 240,
          "midi": 38,
          "name": "D2",
          "ticks": 61056,
          "time": 110.92953,
          "velocity": 0.7165354330708661
        },
        {
          "duration": 0.43604374999999607,
          "durationTicks": 240,
          "midi": 43,
          "name": "G2",
          "ticks": 61440,
          "time": 111.6272,
          "velocity": 0.7165354330708661
        },
        {
          "duration": 0.43604374999999607,
          "durationTicks": 240,
          "midi": 38,
          "name": "D2",
          "ticks": 61824,
          "time": 112.32487,
          "velocity": 0.7086614173228346
        },
        {
          "duration": 0.43604374999999607,
          "durationTicks": 240,
          "midi": 43,
          "name": "G2",
          "ticks": 62208,
          "time": 113.02254,
          "velocity": 0.6929133858267716
        },
        {
          "duration": 0.43604374999999607,
          "durationTicks": 240,
          "midi": 38,
          "name": "D2",
          "ticks": 62592,
          "time": 113.72021000000001,
          "velocity": 0.7165354330708661
        },
        {
          "duration": 0.4360437500000103,
          "durationTicks": 240,
          "midi": 43,
          "name": "G2",
          "ticks": 62976,
          "time": 114.41788,
          "velocity": 0.7165354330708661
        },
        {
          "duration": 0.43604374999999607,
          "durationTicks": 240,
          "midi": 38,
          "name": "D2",
          "ticks": 63360,
          "time": 115.11555,
          "velocity": 0.7086614173228346
        },
        {
          "duration": 0.43604374999999607,
          "durationTicks": 240,
          "midi": 43,
          "name": "G2",
          "ticks": 63744,
          "time": 115.81322,
          "velocity": 0.7165354330708661
        },
        {
          "duration": 0.1744175000000041,
          "durationTicks": 96,
          "midi": 38,
          "name": "D2",
          "ticks": 64128,
          "time": 116.51089,
          "velocity": 0.7401574803149606
        },
        {
          "duration": 0.21802187500000514,
          "durationTicks": 120,
          "midi": 43,
          "name": "G2",
          "ticks": 64320,
          "time": 116.859725,
          "velocity": 0.7401574803149606
        },
        {
          "duration": 0.4033404687500024,
          "durationTicks": 222,
          "midi": 41,
          "name": "F2",
          "ticks": 64512,
          "time": 117.20856,
          "velocity": 0.6850393700787402
        },
        {
          "duration": 0.4069741666666715,
          "durationTicks": 224,
          "midi": 36,
          "name": "C2",
          "ticks": 64896,
          "time": 117.90623000000001,
          "velocity": 0.6535433070866141
        },
        {
          "duration": 0.4614796354166799,
          "durationTicks": 254,
          "midi": 41,
          "name": "F2",
          "ticks": 65280,
          "time": 118.6039,
          "velocity": 0.6850393700787402
        },
        {
          "duration": 0.1744175000000041,
          "durationTicks": 96,
          "midi": 36,
          "name": "C2",
          "ticks": 65664,
          "time": 119.30157,
          "velocity": 0.7007874015748031
        },
        {
          "duration": 0.20348708333332866,
          "durationTicks": 112,
          "midi": 41,
          "name": "F2",
          "ticks": 65856,
          "time": 119.650405,
          "velocity": 0.6850393700787402
        },
        {
          "duration": 0.43604374999999607,
          "durationTicks": 240,
          "midi": 38,
          "name": "D2",
          "ticks": 66048,
          "time": 119.99924,
          "velocity": 0.6850393700787402
        },
        {
          "duration": 0.41424156249999555,
          "durationTicks": 228,
          "midi": 33,
          "name": "A1",
          "ticks": 66432,
          "time": 120.69691,
          "velocity": 0.6850393700787402
        },
        {
          "duration": 0.18895229166666638,
          "durationTicks": 104,
          "midi": 38,
          "name": "D2",
          "ticks": 66816,
          "time": 121.39458,
          "velocity": 0.6771653543307087
        },
        {
          "duration": 0.1889522916666806,
          "durationTicks": 104,
          "midi": 38,
          "name": "D2",
          "ticks": 67008,
          "time": 121.743415,
          "velocity": 0.6771653543307087
        },
        {
          "duration": 0.20348708333332866,
          "durationTicks": 112,
          "midi": 36,
          "name": "C2",
          "ticks": 67200,
          "time": 122.09225,
          "velocity": 0.6771653543307087
        },
        {
          "duration": 0.20348708333332866,
          "durationTicks": 112,
          "midi": 34,
          "name": "A#1",
          "ticks": 67392,
          "time": 122.441085,
          "velocity": 0.6771653543307087
        },
        {
          "duration": 0.4360437500000103,
          "durationTicks": 240,
          "midi": 43,
          "name": "G2",
          "ticks": 67584,
          "time": 122.78992,
          "velocity": 0.7165354330708661
        },
        {
          "duration": 0.4360437500000103,
          "durationTicks": 240,
          "midi": 38,
          "name": "D2",
          "ticks": 67968,
          "time": 123.48759,
          "velocity": 0.7086614173228346
        },
        {
          "duration": 0.43604374999999607,
          "durationTicks": 240,
          "midi": 43,
          "name": "G2",
          "ticks": 68352,
          "time": 124.18526,
          "velocity": 0.6929133858267716
        },
        {
          "duration": 0.43604374999999607,
          "durationTicks": 240,
          "midi": 38,
          "name": "D2",
          "ticks": 68736,
          "time": 124.88293,
          "velocity": 0.7165354330708661
        },
        {
          "duration": 0.43604374999999607,
          "durationTicks": 240,
          "midi": 43,
          "name": "G2",
          "ticks": 69120,
          "time": 125.5806,
          "velocity": 0.7165354330708661
        },
        {
          "duration": 0.43604374999999607,
          "durationTicks": 240,
          "midi": 38,
          "name": "D2",
          "ticks": 69504,
          "time": 126.27827,
          "velocity": 0.7086614173228346
        },
        {
          "duration": 0.43604374999999607,
          "durationTicks": 240,
          "midi": 43,
          "name": "G2",
          "ticks": 69888,
          "time": 126.97594000000001,
          "velocity": 0.7165354330708661
        },
        {
          "duration": 0.1744175000000041,
          "durationTicks": 96,
          "midi": 38,
          "name": "D2",
          "ticks": 70272,
          "time": 127.67361,
          "velocity": 0.7401574803149606
        },
        {
          "duration": 0.21802187500000514,
          "durationTicks": 120,
          "midi": 43,
          "name": "G2",
          "ticks": 70464,
          "time": 128.022445,
          "velocity": 0.7401574803149606
        },
        {
          "duration": 0.4033404687500024,
          "durationTicks": 222,
          "midi": 41,
          "name": "F2",
          "ticks": 70656,
          "time": 128.37128,
          "velocity": 0.6850393700787402
        },
        {
          "duration": 0.1744175000000041,
          "durationTicks": 96,
          "midi": 36,
          "name": "C2",
          "ticks": 71040,
          "time": 129.06895,
          "velocity": 0.6535433070866141
        },
        {
          "duration": 0.20348708333332866,
          "durationTicks": 112,
          "midi": 41,
          "name": "F2",
          "ticks": 71232,
          "time": 129.417785,
          "velocity": 0.6299212598425197
        },
        {
          "duration": 0.4614796354166799,
          "durationTicks": 254,
          "midi": 38,
          "name": "D2",
          "ticks": 71424,
          "time": 129.76662,
          "velocity": 0.6850393700787402
        },
        {
          "duration": 0.1744175000000041,
          "durationTicks": 96,
          "midi": 33,
          "name": "A1",
          "ticks": 71808,
          "time": 130.46429,
          "velocity": 0.7007874015748031
        },
        {
          "duration": 0.20348708333332866,
          "durationTicks": 112,
          "midi": 38,
          "name": "D2",
          "ticks": 72000,
          "time": 130.813125,
          "velocity": 0.6850393700787402
        },
        {
          "duration": 0.4360437500000103,
          "durationTicks": 240,
          "midi": 43,
          "name": "G2",
          "ticks": 72192,
          "time": 131.16196,
          "velocity": 0.6850393700787402
        },
        {
          "duration": 0.41424156249999555,
          "durationTicks": 228,
          "midi": 38,
          "name": "D2",
          "ticks": 72576,
          "time": 131.85963,
          "velocity": 0.6850393700787402
        },
        {
          "duration": 0.4360437500000103,
          "durationTicks": 240,
          "midi": 43,
          "name": "G2",
          "ticks": 72960,
          "time": 132.5573,
          "velocity": 0.6850393700787402
        },
        {
          "duration": 0.21802187499997672,
          "durationTicks": 120,
          "midi": 38,
          "name": "D2",
          "ticks": 73344,
          "time": 133.25497000000001,
          "velocity": 0.6850393700787402
        },
        {
          "duration": 0.23255666666668162,
          "durationTicks": 128,
          "midi": 43,
          "name": "G2",
          "ticks": 73536,
          "time": 133.603805,
          "velocity": 0.6692913385826772
        },
        {
          "duration": 0.4360437500000103,
          "durationTicks": 240,
          "midi": 41,
          "name": "F2",
          "ticks": 73728,
          "time": 133.95264,
          "velocity": 0.7165354330708661
        },
        {
          "duration": 0.4360437500000103,
          "durationTicks": 240,
          "midi": 36,
          "name": "C2",
          "ticks": 74112,
          "time": 134.65031,
          "velocity": 0.7086614173228346
        },
        {
          "duration": 0.43604374999998186,
          "durationTicks": 240,
          "midi": 41,
          "name": "F2",
          "ticks": 74496,
          "time": 135.34798,
          "velocity": 0.6929133858267716
        },
        {
          "duration": 0.27616104166668265,
          "durationTicks": 152,
          "midi": 36,
          "name": "C2",
          "ticks": 74880,
          "time": 136.04565,
          "velocity": 0.7165354330708661
        },
        {
          "duration": 0.23255666666668162,
          "durationTicks": 128,
          "midi": 41,
          "name": "F2",
          "ticks": 75072,
          "time": 136.394485,
          "velocity": 0.6692913385826772
        },
        {
          "duration": 0.43604374999998186,
          "durationTicks": 240,
          "midi": 38,
          "name": "D2",
          "ticks": 75264,
          "time": 136.74332,
          "velocity": 0.7165354330708661
        },
        {
          "duration": 0.4360437500000103,
          "durationTicks": 240,
          "midi": 33,
          "name": "A1",
          "ticks": 75648,
          "time": 137.44099,
          "velocity": 0.7086614173228346
        },
        {
          "duration": 0.43604374999998186,
          "durationTicks": 240,
          "midi": 38,
          "name": "D2",
          "ticks": 76032,
          "time": 138.13866000000002,
          "velocity": 0.7165354330708661
        },
        {
          "duration": 0.23255666666668162,
          "durationTicks": 128,
          "midi": 33,
          "name": "A1",
          "ticks": 76416,
          "time": 138.83633,
          "velocity": 0.7401574803149606
        },
        {
          "duration": 0.21802187499997672,
          "durationTicks": 120,
          "midi": 38,
          "name": "D2",
          "ticks": 76608,
          "time": 139.185165,
          "velocity": 0.7401574803149606
        },
        {
          "duration": 0.4360437500000103,
          "durationTicks": 240,
          "midi": 43,
          "name": "G2",
          "ticks": 76800,
          "time": 139.534,
          "velocity": 0.6850393700787402
        },
        {
          "duration": 0.41424156249999555,
          "durationTicks": 228,
          "midi": 38,
          "name": "D2",
          "ticks": 77184,
          "time": 140.23167,
          "velocity": 0.6850393700787402
        },
        {
          "duration": 0.4360437500000103,
          "durationTicks": 240,
          "midi": 43,
          "name": "G2",
          "ticks": 77568,
          "time": 140.92934,
          "velocity": 0.6850393700787402
        },
        {
          "duration": 0.21802187499997672,
          "durationTicks": 120,
          "midi": 38,
          "name": "D2",
          "ticks": 77952,
          "time": 141.62701,
          "velocity": 0.6850393700787402
        },
        {
          "duration": 0.23255666666668162,
          "durationTicks": 128,
          "midi": 43,
          "name": "G2",
          "ticks": 78144,
          "time": 141.975845,
          "velocity": 0.6692913385826772
        },
        {
          "duration": 0.4033404687500024,
          "durationTicks": 222,
          "midi": 36,
          "name": "C2",
          "ticks": 78336,
          "time": 142.32468,
          "velocity": 0.6850393700787402
        },
        {
          "duration": 0.40697416666668573,
          "durationTicks": 224,
          "midi": 31,
          "name": "G1",
          "ticks": 78720,
          "time": 143.02235,
          "velocity": 0.6535433070866141
        },
        {
          "duration": 0.4614796354166799,
          "durationTicks": 254,
          "midi": 36,
          "name": "C2",
          "ticks": 79104,
          "time": 143.72002,
          "velocity": 0.6850393700787402
        },
        {
          "duration": 0.40697416666668573,
          "durationTicks": 224,
          "midi": 31,
          "name": "G1",
          "ticks": 79488,
          "time": 144.41769,
          "velocity": 0.7007874015748031
        },
        {
          "duration": 0.4033404687500024,
          "durationTicks": 222,
          "midi": 36,
          "name": "C2",
          "ticks": 79872,
          "time": 145.11536,
          "velocity": 0.6850393700787402
        },
        {
          "duration": 0.40697416666668573,
          "durationTicks": 224,
          "midi": 31,
          "name": "G1",
          "ticks": 80256,
          "time": 145.81303,
          "velocity": 0.6535433070866141
        },
        {
          "duration": 0.4614796354166515,
          "durationTicks": 254,
          "midi": 36,
          "name": "C2",
          "ticks": 80640,
          "time": 146.5107,
          "velocity": 0.6850393700787402
        },
        {
          "duration": 0.23255666666668162,
          "durationTicks": 128,
          "midi": 31,
          "name": "G1",
          "ticks": 81024,
          "time": 147.20837,
          "velocity": 0.7007874015748031
        },
        {
          "duration": 0.24709145833332968,
          "durationTicks": 136,
          "midi": 36,
          "name": "C2",
          "ticks": 81216,
          "time": 147.557205,
          "velocity": 0.6850393700787402
        },
        {
          "duration": 0.4360437500000103,
          "durationTicks": 240,
          "midi": 43,
          "name": "G2",
          "ticks": 81408,
          "time": 147.90604,
          "velocity": 0.7165354330708661
        },
        {
          "duration": 0.43604374999998186,
          "durationTicks": 240,
          "midi": 38,
          "name": "D2",
          "ticks": 81792,
          "time": 148.60371,
          "velocity": 0.7086614173228346
        },
        {
          "duration": 0.4360437500000103,
          "durationTicks": 240,
          "midi": 43,
          "name": "G2",
          "ticks": 82176,
          "time": 149.30138,
          "velocity": 0.6929133858267716
        },
        {
          "duration": 0.24709145833332968,
          "durationTicks": 136,
          "midi": 38,
          "name": "D2",
          "ticks": 82560,
          "time": 149.99905,
          "velocity": 0.7401574803149606
        },
        {
          "duration": 0.21802187500000514,
          "durationTicks": 120,
          "midi": 43,
          "name": "G2",
          "ticks": 82752,
          "time": 150.347885,
          "velocity": 0.7401574803149606
        },
        {
          "duration": 0.4033404687500024,
          "durationTicks": 222,
          "midi": 33,
          "name": "A1",
          "ticks": 82944,
          "time": 150.69672,
          "velocity": 0.6850393700787402
        },
        {
          "duration": 0.4069741666666573,
          "durationTicks": 224,
          "midi": 28,
          "name": "E1",
          "ticks": 83328,
          "time": 151.39439000000002,
          "velocity": 0.6535433070866141
        },
        {
          "duration": 0.4614796354166799,
          "durationTicks": 254,
          "midi": 33,
          "name": "A1",
          "ticks": 83712,
          "time": 152.09206,
          "velocity": 0.6850393700787402
        },
        {
          "duration": 0.3452013020833249,
          "durationTicks": 190,
          "midi": 28,
          "name": "E1",
          "ticks": 84096,
          "time": 152.78973,
          "velocity": 0.7007874015748031
        },
        {
          "duration": 0.24709145833332968,
          "durationTicks": 136,
          "midi": 28,
          "name": "E1",
          "ticks": 84288,
          "time": 153.138565,
          "velocity": 0.6692913385826772
        },
        {
          "duration": 2.4273102083333242,
          "durationTicks": 1336,
          "midi": 38,
          "name": "D2",
          "ticks": 84480,
          "time": 153.4874,
          "velocity": 0.6535433070866141
        },
        {
          "duration": 0.4360437500000103,
          "durationTicks": 240,
          "midi": 43,
          "name": "G2",
          "ticks": 86016,
          "time": 156.27808,
          "velocity": 0.7165354330708661
        },
        {
          "duration": 0.4360437500000103,
          "durationTicks": 240,
          "midi": 38,
          "name": "D2",
          "ticks": 86400,
          "time": 156.97575,
          "velocity": 0.7086614173228346
        },
        {
          "duration": 0.4360437500000103,
          "durationTicks": 240,
          "midi": 43,
          "name": "G2",
          "ticks": 86784,
          "time": 157.67342,
          "velocity": 0.6929133858267716
        },
        {
          "duration": 0.43604374999998186,
          "durationTicks": 240,
          "midi": 38,
          "name": "D2",
          "ticks": 87168,
          "time": 158.37109,
          "velocity": 0.7165354330708661
        },
        {
          "duration": 0.4360437500000103,
          "durationTicks": 240,
          "midi": 43,
          "name": "G2",
          "ticks": 87552,
          "time": 159.06876,
          "velocity": 0.7165354330708661
        },
        {
          "duration": 0.43604374999998186,
          "durationTicks": 240,
          "midi": 38,
          "name": "D2",
          "ticks": 87936,
          "time": 159.76643,
          "velocity": 0.7086614173228346
        },
        {
          "duration": 0.4360437500000103,
          "durationTicks": 240,
          "midi": 43,
          "name": "G2",
          "ticks": 88320,
          "time": 160.4641,
          "velocity": 0.7165354330708661
        },
        {
          "duration": 0.1744175000000041,
          "durationTicks": 96,
          "midi": 38,
          "name": "D2",
          "ticks": 88704,
          "time": 161.16177,
          "velocity": 0.7401574803149606
        },
        {
          "duration": 0.21802187500000514,
          "durationTicks": 120,
          "midi": 43,
          "name": "G2",
          "ticks": 88896,
          "time": 161.510605,
          "velocity": 0.7401574803149606
        },
        {
          "duration": 0.4033404687500024,
          "durationTicks": 222,
          "midi": 41,
          "name": "F2",
          "ticks": 89088,
          "time": 161.85944,
          "velocity": 0.6850393700787402
        },
        {
          "duration": 0.3488350000000082,
          "durationTicks": 192,
          "midi": 36,
          "name": "C2",
          "ticks": 89472,
          "time": 162.55711,
          "velocity": 0.6535433070866141
        },
        {
          "duration": 0.4033404687500024,
          "durationTicks": 222,
          "midi": 41,
          "name": "F2",
          "ticks": 89862,
          "time": 163.26568109375,
          "velocity": 0.6850393700787402
        },
        {
          "duration": 0.33430020833333174,
          "durationTicks": 184,
          "midi": 36,
          "name": "C2",
          "ticks": 90246,
          "time": 163.96335109375,
          "velocity": 0.6535433070866141
        },
        {
          "duration": 0.20348708333332866,
          "durationTicks": 112,
          "midi": 41,
          "name": "F2",
          "ticks": 90432,
          "time": 164.301285,
          "velocity": 0.6850393700787402
        },
        {
          "duration": 0.43604374999998186,
          "durationTicks": 240,
          "midi": 38,
          "name": "D2",
          "ticks": 90624,
          "time": 164.65012000000002,
          "velocity": 0.6850393700787402
        },
        {
          "duration": 0.41424156249999555,
          "durationTicks": 228,
          "midi": 33,
          "name": "A1",
          "ticks": 91016,
          "time": 165.36232479166668,
          "velocity": 0.6850393700787402
        },
        {
          "duration": 0.18531859374999726,
          "durationTicks": 102,
          "midi": 38,
          "name": "D2",
          "ticks": 91390,
          "time": 166.04182630208334,
          "velocity": 0.7401574803149606
        },
        {
          "duration": 0.14534791666665114,
          "durationTicks": 80,
          "midi": 36,
          "name": "C2",
          "ticks": 91574,
          "time": 166.37612651041667,
          "velocity": 0.7401574803149606
        },
        {
          "duration": 0.1526153125000178,
          "durationTicks": 84,
          "midi": 34,
          "name": "A#1",
          "ticks": 91774,
          "time": 166.73949630208332,
          "velocity": 0.6535433070866141
        },
        {
          "duration": 0.14898161458330605,
          "durationTicks": 82,
          "midi": 33,
          "name": "A1",
          "ticks": 91968,
          "time": 167.09196500000002,
          "velocity": 0.7401574803149606
        },
        {
          "duration": 0.4360437500000103,
          "durationTicks": 240,
          "midi": 43,
          "name": "G2",
          "ticks": 92160,
          "time": 167.4408,
          "velocity": 0.7165354330708661
        },
        {
          "duration": 0.43604374999998186,
          "durationTicks": 240,
          "midi": 38,
          "name": "D2",
          "ticks": 92544,
          "time": 168.13847,
          "velocity": 0.7086614173228346
        },
        {
          "duration": 0.4360437500000103,
          "durationTicks": 240,
          "midi": 43,
          "name": "G2",
          "ticks": 92928,
          "time": 168.83614,
          "velocity": 0.6929133858267716
        },
        {
          "duration": 0.43604374999998186,
          "durationTicks": 240,
          "midi": 38,
          "name": "D2",
          "ticks": 93312,
          "time": 169.53381000000002,
          "velocity": 0.7165354330708661
        },
        {
          "duration": 0.4360437500000103,
          "durationTicks": 240,
          "midi": 43,
          "name": "G2",
          "ticks": 93696,
          "time": 170.23148,
          "velocity": 0.7165354330708661
        },
        {
          "duration": 0.4360437500000103,
          "durationTicks": 240,
          "midi": 38,
          "name": "D2",
          "ticks": 94080,
          "time": 170.92915,
          "velocity": 0.7086614173228346
        },
        {
          "duration": 0.43604374999998186,
          "durationTicks": 240,
          "midi": 43,
          "name": "G2",
          "ticks": 94464,
          "time": 171.62682,
          "velocity": 0.7165354330708661
        },
        {
          "duration": 0.1744175000000041,
          "durationTicks": 96,
          "midi": 38,
          "name": "D2",
          "ticks": 94848,
          "time": 172.32449,
          "velocity": 0.7401574803149606
        },
        {
          "duration": 0.21802187500000514,
          "durationTicks": 120,
          "midi": 43,
          "name": "G2",
          "ticks": 95040,
          "time": 172.673325,
          "velocity": 0.7401574803149606
        },
        {
          "duration": 0.4033404687500024,
          "durationTicks": 222,
          "midi": 41,
          "name": "F2",
          "ticks": 95232,
          "time": 173.02216,
          "velocity": 0.6850393700787402
        },
        {
          "duration": 0.3633697916666847,
          "durationTicks": 200,
          "midi": 36,
          "name": "C2",
          "ticks": 95616,
          "time": 173.71983,
          "velocity": 0.6535433070866141
        },
        {
          "duration": 0.4033404687500024,
          "durationTicks": 222,
          "midi": 41,
          "name": "F2",
          "ticks": 96006,
          "time": 174.42840109375,
          "velocity": 0.6850393700787402
        },
        {
          "duration": 0.40697416666668573,
          "durationTicks": 224,
          "midi": 36,
          "name": "C2",
          "ticks": 96390,
          "time": 175.12607109375,
          "velocity": 0.6535433070866141
        },
        {
          "duration": 0.4360437500000103,
          "durationTicks": 240,
          "midi": 43,
          "name": "G2",
          "ticks": 96768,
          "time": 175.81284,
          "velocity": 0.6850393700787402
        },
        {
          "duration": 0.41424156249999555,
          "durationTicks": 228,
          "midi": 38,
          "name": "D2",
          "ticks": 97152,
          "time": 176.51051,
          "velocity": 0.6850393700787402
        },
        {
          "duration": 0.4360437500000103,
          "durationTicks": 240,
          "midi": 43,
          "name": "G2",
          "ticks": 97536,
          "time": 177.20818,
          "velocity": 0.6850393700787402
        },
        {
          "duration": 0.21802187499997672,
          "durationTicks": 120,
          "midi": 38,
          "name": "D2",
          "ticks": 97920,
          "time": 177.90585000000002,
          "velocity": 0.6850393700787402
        },
        {
          "duration": 0.23255666666668162,
          "durationTicks": 128,
          "midi": 43,
          "name": "G2",
          "ticks": 98112,
          "time": 178.254685,
          "velocity": 0.6692913385826772
        },
        {
          "duration": 0.4033404687500024,
          "durationTicks": 222,
          "midi": 41,
          "name": "F2",
          "ticks": 98304,
          "time": 178.60352,
          "velocity": 0.6850393700787402
        },
        {
          "duration": 0.1744175000000041,
          "durationTicks": 96,
          "midi": 36,
          "name": "C2",
          "ticks": 98688,
          "time": 179.30119,
          "velocity": 0.6535433070866141
        },
        {
          "duration": 0.20348708333335708,
          "durationTicks": 112,
          "midi": 41,
          "name": "F2",
          "ticks": 98880,
          "time": 179.650025,
          "velocity": 0.6299212598425197
        },
        {
          "duration": 0.4614796354166515,
          "durationTicks": 254,
          "midi": 38,
          "name": "D2",
          "ticks": 99072,
          "time": 179.99886,
          "velocity": 0.6850393700787402
        },
        {
          "duration": 0.1744175000000041,
          "durationTicks": 96,
          "midi": 33,
          "name": "A1",
          "ticks": 99456,
          "time": 180.69653,
          "velocity": 0.7007874015748031
        },
        {
          "duration": 0.20348708333335708,
          "durationTicks": 112,
          "midi": 38,
          "name": "D2",
          "ticks": 99648,
          "time": 181.045365,
          "velocity": 0.6850393700787402
        },
        {
          "duration": 0.43604374999998186,
          "durationTicks": 240,
          "midi": 43,
          "name": "G2",
          "ticks": 99840,
          "time": 181.3942,
          "velocity": 0.6850393700787402
        },
        {
          "duration": 0.41424156249999555,
          "durationTicks": 228,
          "midi": 38,
          "name": "D2",
          "ticks": 100224,
          "time": 182.09187,
          "velocity": 0.6850393700787402
        },
        {
          "duration": 0.43604374999998186,
          "durationTicks": 240,
          "midi": 43,
          "name": "G2",
          "ticks": 100608,
          "time": 182.78954000000002,
          "velocity": 0.6850393700787402
        },
        {
          "duration": 0.21802187500000514,
          "durationTicks": 120,
          "midi": 38,
          "name": "D2",
          "ticks": 100992,
          "time": 183.48721,
          "velocity": 0.6850393700787402
        },
        {
          "duration": 0.2325566666666532,
          "durationTicks": 128,
          "midi": 43,
          "name": "G2",
          "ticks": 101184,
          "time": 183.836045,
          "velocity": 0.6692913385826772
        },
        {
          "duration": 0.4033404687500024,
          "durationTicks": 222,
          "midi": 38,
          "name": "D2",
          "ticks": 101376,
          "time": 184.18488,
          "velocity": 0.6850393700787402
        },
        {
          "duration": 0.43604374999998186,
          "durationTicks": 240,
          "midi": 33,
          "name": "A1",
          "ticks": 101760,
          "time": 184.88255,
          "velocity": 0.6535433070866141
        },
        {
          "duration": 0.4614796354166515,
          "durationTicks": 254,
          "midi": 38,
          "name": "D2",
          "ticks": 102144,
          "time": 185.58022,
          "velocity": 0.6850393700787402
        },
        {
          "duration": 0.1744174999999757,
          "durationTicks": 96,
          "midi": 33,
          "name": "A1",
          "ticks": 102528,
          "time": 186.27789,
          "velocity": 0.7007874015748031
        },
        {
          "duration": 0.20348708333335708,
          "durationTicks": 112,
          "midi": 38,
          "name": "D2",
          "ticks": 102720,
          "time": 186.626725,
          "velocity": 0.6850393700787402
        },
        {
          "duration": 0.4360437500000103,
          "durationTicks": 240,
          "midi": 43,
          "name": "G2",
          "ticks": 102912,
          "time": 186.97556,
          "velocity": 0.6850393700787402
        },
        {
          "duration": 0.45057854166665834,
          "durationTicks": 248,
          "midi": 38,
          "name": "D2",
          "ticks": 103296,
          "time": 187.67323,
          "velocity": 0.6850393700787402
        },
        {
          "duration": 0.4360437500000103,
          "durationTicks": 240,
          "midi": 43,
          "name": "G2",
          "ticks": 103680,
          "time": 188.3709,
          "velocity": 0.6850393700787402
        },
        {
          "duration": 0.45057854166665834,
          "durationTicks": 248,
          "midi": 38,
          "name": "D2",
          "ticks": 104064,
          "time": 189.06857,
          "velocity": 0.6850393700787402
        },
        {
          "duration": 0.43604374999998186,
          "durationTicks": 240,
          "midi": 43,
          "name": "G2",
          "ticks": 104448,
          "time": 189.76624,
          "velocity": 0.6850393700787402
        },
        {
          "duration": 0.45057854166665834,
          "durationTicks": 248,
          "midi": 38,
          "name": "D2",
          "ticks": 104832,
          "time": 190.46391,
          "velocity": 0.6850393700787402
        },
        {
          "duration": 0.26162624999997774,
          "durationTicks": 144,
          "midi": 43,
          "name": "G2",
          "ticks": 105216,
          "time": 191.16158000000001,
          "velocity": 0.6850393700787402
        },
        {
          "duration": 0.1744175000000041,
          "durationTicks": 96,
          "midi": 38,
          "name": "D2",
          "ticks": 105408,
          "time": 191.510415,
          "velocity": 0.6850393700787402
        },
        {
          "duration": 2.790680000000009,
          "durationTicks": 1536,
          "midi": 43,
          "name": "G2",
          "ticks": 105600,
          "time": 191.85925,
          "velocity": 0.6850393700787402
        }
      ]
    },
    {
      "channel": 0,
      "controlChanges": {
        "0": [
          {
            "number": 0,
            "ticks": 1536,
            "time": 2.79068,
            "value": 0
          }
        ],
        "7": [
          {
            "number": 7,
            "ticks": 1536,
            "time": 2.79068,
            "value": 0.9763779527559056
          }
        ],
        "10": [
          {
            "number": 10,
            "ticks": 1536,
            "time": 2.79068,
            "value": 0.5039370078740157
          }
        ],
        "11": [
          {
            "number": 11,
            "ticks": 1536,
            "time": 2.79068,
            "value": 1
          }
        ],
        "91": [
          {
            "number": 91,
            "ticks": 1536,
            "time": 2.79068,
            "value": 0.49606299212598426
          }
        ],
        "93": [
          {
            "number": 93,
            "ticks": 1536,
            "time": 2.79068,
            "value": 0.14173228346456693
          }
        ],
        "121": [
          {
            "number": 121,
            "ticks": 1536,
            "time": 2.79068,
            "value": 0
          }
        ]
      },
      "pitchBends": [
        {
          "ticks": 1536,
          "time": 2.79068,
          "value": 0
        }
      ],
      "instrument": {
        "family": "piano",
        "name": "acoustic grand piano",
        "number": 0
      },
      "name": "Agogo",
      "notes": []
    },
    {
      "channel": 13,
      "controlChanges": {
        "10": [
          {
            "number": 10,
            "ticks": 36080,
            "time": 65.55191041666666,
            "value": 0
          },
          {
            "number": 10,
            "ticks": 36136,
            "time": 65.65365395833334,
            "value": 0.1968503937007874
          },
          {
            "number": 10,
            "ticks": 36208,
            "time": 65.78446708333334,
            "value": 0.2204724409448819
          },
          {
            "number": 10,
            "ticks": 36280,
            "time": 65.91528020833334,
            "value": 0.2440944881889764
          },
          {
            "number": 10,
            "ticks": 36352,
            "time": 66.04609333333333,
            "value": 0.25984251968503935
          },
          {
            "number": 10,
            "ticks": 36424,
            "time": 66.17690645833333,
            "value": 0.28346456692913385
          },
          {
            "number": 10,
            "ticks": 36496,
            "time": 66.30771958333334,
            "value": 0.30708661417322836
          },
          {
            "number": 10,
            "ticks": 36568,
            "time": 66.43853270833334,
            "value": 0.3228346456692913
          },
          {
            "number": 10,
            "ticks": 36640,
            "time": 66.56934583333334,
            "value": 0.3464566929133858
          },
          {
            "number": 10,
            "ticks": 36712,
            "time": 66.70015895833333,
            "value": 0.3700787401574803
          },
          {
            "number": 10,
            "ticks": 36784,
            "time": 66.83097208333334,
            "value": 0.3858267716535433
          },
          {
            "number": 10,
            "ticks": 36856,
            "time": 66.96178520833334,
            "value": 0.4094488188976378
          },
          {
            "number": 10,
            "ticks": 37232,
            "time": 67.64492041666666,
            "value": 0.5039370078740157
          },
          {
            "number": 10,
            "ticks": 54800,
            "time": 99.56332291666668,
            "value": 0.2204724409448819
          },
          {
            "number": 10,
            "ticks": 54840,
            "time": 99.635996875,
            "value": 0.25984251968503935
          },
          {
            "number": 10,
            "ticks": 54872,
            "time": 99.69413604166668,
            "value": 0.29133858267716534
          },
          {
            "number": 10,
            "ticks": 54912,
            "time": 99.76681,
            "value": 0.3228346456692913
          },
          {
            "number": 10,
            "ticks": 54944,
            "time": 99.82494916666667,
            "value": 0.3543307086614173
          },
          {
            "number": 10,
            "ticks": 54984,
            "time": 99.897623125,
            "value": 0.3937007874015748
          },
          {
            "number": 10,
            "ticks": 55016,
            "time": 99.95576229166667,
            "value": 0.4251968503937008
          },
          {
            "number": 10,
            "ticks": 55056,
            "time": 100.02843625,
            "value": 0.4645669291338583
          },
          {
            "number": 10,
            "ticks": 55104,
            "time": 100.115645,
            "value": 0.5039370078740157
          },
          {
            "number": 10,
            "ticks": 85496,
            "time": 155.33331854166667,
            "value": 0.2125984251968504
          },
          {
            "number": 10,
            "ticks": 85536,
            "time": 155.4059925,
            "value": 0.2440944881889764
          },
          {
            "number": 10,
            "ticks": 85592,
            "time": 155.50773604166667,
            "value": 0.29133858267716534
          },
          {
            "number": 10,
            "ticks": 85632,
            "time": 155.58041,
            "value": 0.33858267716535434
          },
          {
            "number": 10,
            "ticks": 85680,
            "time": 155.66761875,
            "value": 0.3779527559055118
          },
          {
            "number": 10,
            "ticks": 85736,
            "time": 155.76936229166668,
            "value": 0.4251968503937008
          },
          {
            "number": 10,
            "ticks": 85776,
            "time": 155.84203625,
            "value": 0.48031496062992124
          },
          {
            "number": 10,
            "ticks": 85824,
            "time": 155.929245,
            "value": 0.5039370078740157
          },
          {
            "number": 10,
            "ticks": 105288,
            "time": 191.292393125,
            "value": 0.2677165354330709
          },
          {
            "number": 10,
            "ticks": 105328,
            "time": 191.36506708333334,
            "value": 0.29133858267716534
          },
          {
            "number": 10,
            "ticks": 105360,
            "time": 191.42320625,
            "value": 0.3228346456692913
          },
          {
            "number": 10,
            "ticks": 105400,
            "time": 191.49588020833335,
            "value": 0.3543307086614173
          },
          {
            "number": 10,
            "ticks": 105432,
            "time": 191.554019375,
            "value": 0.3858267716535433
          },
          {
            "number": 10,
            "ticks": 105472,
            "time": 191.62669333333335,
            "value": 0.4094488188976378
          },
          {
            "number": 10,
            "ticks": 105504,
            "time": 191.6848325,
            "value": 0.44881889763779526
          },
          {
            "number": 10,
            "ticks": 105544,
            "time": 191.75750645833335,
            "value": 0.47244094488188976
          },
          {
            "number": 10,
            "ticks": 105600,
            "time": 191.85925,
            "value": 0.5039370078740157
          }
        ],
        "120": [
          {
            "number": 120,
            "ticks": 107352,
            "time": 195.042369375,
            "value": 0
          }
        ],
        "123": [
          {
            "number": 123,
            "ticks": 107400,
            "time": 195.129578125,
            "value": 0
          }
        ]
      },
      "pitchBends": [],
      "instrument": {
        "family": "percussive",
        "name": "agogo",
        "number": 113
      },
      "name": "",
      "notes": [
        {
          "duration": 0.03633697916666989,
          "durationTicks": 20,
          "midi": 111,
          "name": "D#8",
          "ticks": 14856,
          "time": 26.991108125,
          "velocity": 0.10236220472440945
        },
        {
          "duration": 0.03633697916666634,
          "durationTicks": 20,
          "midi": 111,
          "name": "D#8",
          "ticks": 14880,
          "time": 27.0347125,
          "velocity": 0.10236220472440945
        },
        {
          "duration": 0.029069583333335203,
          "durationTicks": 16,
          "midi": 111,
          "name": "D#8",
          "ticks": 14908,
          "time": 27.085584270833333,
          "velocity": 0.10236220472440945
        },
        {
          "duration": 0.003633697916669121,
          "durationTicks": 2,
          "midi": 111,
          "name": "D#8",
          "ticks": 14928,
          "time": 27.12192125,
          "velocity": 0.10236220472440945
        },
        {
          "duration": 0.03633697916666634,
          "durationTicks": 20,
          "midi": 111,
          "name": "D#8",
          "ticks": 14952,
          "time": 27.165525625,
          "velocity": 0.10236220472440945
        },
        {
          "duration": 0.03633697916666634,
          "durationTicks": 20,
          "midi": 111,
          "name": "D#8",
          "ticks": 14976,
          "time": 27.209130000000002,
          "velocity": 0.10236220472440945
        },
        {
          "duration": 0.029069583333338755,
          "durationTicks": 16,
          "midi": 111,
          "name": "D#8",
          "ticks": 15004,
          "time": 27.26000177083333,
          "velocity": 0.11811023622047244
        },
        {
          "duration": 0.003633697916669121,
          "durationTicks": 2,
          "midi": 111,
          "name": "D#8",
          "ticks": 15024,
          "time": 27.29633875,
          "velocity": 0.15748031496062992
        },
        {
          "duration": 0.03633697916666634,
          "durationTicks": 20,
          "midi": 111,
          "name": "D#8",
          "ticks": 15048,
          "time": 27.339943125,
          "velocity": 0.2125984251968504
        },
        {
          "duration": 0.03633697916666989,
          "durationTicks": 20,
          "midi": 111,
          "name": "D#8",
          "ticks": 15072,
          "time": 27.3835475,
          "velocity": 0.25984251968503935
        },
        {
          "duration": 0.029069583333338755,
          "durationTicks": 16,
          "midi": 111,
          "name": "D#8",
          "ticks": 15100,
          "time": 27.43441927083333,
          "velocity": 0.31496062992125984
        },
        {
          "duration": 0.003633697916669121,
          "durationTicks": 2,
          "midi": 111,
          "name": "D#8",
          "ticks": 15120,
          "time": 27.47075625,
          "velocity": 0.3543307086614173
        },
        {
          "duration": 0.03633697916666634,
          "durationTicks": 20,
          "midi": 111,
          "name": "D#8",
          "ticks": 15144,
          "time": 27.514360625000002,
          "velocity": 0.4094488188976378
        },
        {
          "duration": 0.029069583333338755,
          "durationTicks": 16,
          "midi": 111,
          "name": "D#8",
          "ticks": 15172,
          "time": 27.56523239583333,
          "velocity": 0.4645669291338583
        },
        {
          "duration": 0.003633697916669121,
          "durationTicks": 2,
          "midi": 111,
          "name": "D#8",
          "ticks": 15192,
          "time": 27.601569375,
          "velocity": 0.5039370078740157
        },
        {
          "duration": 0.03633697916666634,
          "durationTicks": 20,
          "midi": 111,
          "name": "D#8",
          "ticks": 15216,
          "time": 27.64517375,
          "velocity": 0.5511811023622047
        },
        {
          "duration": 0.03633697916666989,
          "durationTicks": 20,
          "midi": 111,
          "name": "D#8",
          "ticks": 15240,
          "time": 27.688778125,
          "velocity": 0.6062992125984252
        },
        {
          "duration": 0.029069583333338755,
          "durationTicks": 16,
          "midi": 111,
          "name": "D#8",
          "ticks": 15268,
          "time": 27.73964989583333,
          "velocity": 0.6614173228346457
        },
        {
          "duration": 0.003633697916669121,
          "durationTicks": 2,
          "midi": 111,
          "name": "D#8",
          "ticks": 15288,
          "time": 27.775986875,
          "velocity": 0.7007874015748031
        },
        {
          "duration": 0.03633697916666634,
          "durationTicks": 20,
          "midi": 111,
          "name": "D#8",
          "ticks": 15312,
          "time": 27.819591250000002,
          "velocity": 0.7480314960629921
        },
        {
          "duration": 0.03633697916666989,
          "durationTicks": 20,
          "midi": 111,
          "name": "D#8",
          "ticks": 15336,
          "time": 27.863195625,
          "velocity": 0.8031496062992126
        },
        {
          "duration": 0.029069583333338755,
          "durationTicks": 16,
          "midi": 111,
          "name": "D#8",
          "ticks": 15364,
          "time": 27.91406739583333,
          "velocity": 0.8582677165354331
        },
        {
          "duration": 0.003633697916665568,
          "durationTicks": 2,
          "midi": 111,
          "name": "D#8",
          "ticks": 15384,
          "time": 27.950404375,
          "velocity": 0.8976377952755905
        },
        {
          "duration": 0.036336979166662786,
          "durationTicks": 20,
          "midi": 111,
          "name": "D#8",
          "ticks": 17664,
          "time": 32.09282,
          "velocity": 0.10236220472440945
        },
        {
          "duration": 0.03633697916666989,
          "durationTicks": 20,
          "midi": 111,
          "name": "D#8",
          "ticks": 17688,
          "time": 32.136424375,
          "velocity": 0.10236220472440945
        },
        {
          "duration": 0.03633697916666989,
          "durationTicks": 20,
          "midi": 111,
          "name": "D#8",
          "ticks": 17712,
          "time": 32.18002875,
          "velocity": 0.10236220472440945
        },
        {
          "duration": 0.03633697916666989,
          "durationTicks": 20,
          "midi": 111,
          "name": "D#8",
          "ticks": 17736,
          "time": 32.223633125,
          "velocity": 0.10236220472440945
        },
        {
          "duration": 0.03633697916666989,
          "durationTicks": 20,
          "midi": 111,
          "name": "D#8",
          "ticks": 17760,
          "time": 32.2672375,
          "velocity": 0.10236220472440945
        },
        {
          "duration": 0.03633697916666989,
          "durationTicks": 20,
          "midi": 111,
          "name": "D#8",
          "ticks": 17784,
          "time": 32.310841875,
          "velocity": 0.10236220472440945
        },
        {
          "duration": 0.03633697916666989,
          "durationTicks": 20,
          "midi": 111,
          "name": "D#8",
          "ticks": 17808,
          "time": 32.35444625,
          "velocity": 0.11811023622047244
        },
        {
          "duration": 0.036336979166662786,
          "durationTicks": 20,
          "midi": 111,
          "name": "D#8",
          "ticks": 17832,
          "time": 32.398050625,
          "velocity": 0.15748031496062992
        },
        {
          "duration": 0.03633697916666989,
          "durationTicks": 20,
          "midi": 111,
          "name": "D#8",
          "ticks": 17856,
          "time": 32.441655,
          "velocity": 0.2125984251968504
        },
        {
          "duration": 0.03633697916666989,
          "durationTicks": 20,
          "midi": 111,
          "name": "D#8",
          "ticks": 17880,
          "time": 32.485259375,
          "velocity": 0.25984251968503935
        },
        {
          "duration": 0.03633697916666989,
          "durationTicks": 20,
          "midi": 111,
          "name": "D#8",
          "ticks": 17904,
          "time": 32.52886375,
          "velocity": 0.31496062992125984
        },
        {
          "duration": 0.03633697916666989,
          "durationTicks": 20,
          "midi": 111,
          "name": "D#8",
          "ticks": 17928,
          "time": 32.572468125,
          "velocity": 0.3543307086614173
        },
        {
          "duration": 0.03633697916666989,
          "durationTicks": 20,
          "midi": 111,
          "name": "D#8",
          "ticks": 17952,
          "time": 32.6160725,
          "velocity": 0.4094488188976378
        },
        {
          "duration": 0.03633697916666989,
          "durationTicks": 20,
          "midi": 111,
          "name": "D#8",
          "ticks": 17976,
          "time": 32.659676875,
          "velocity": 0.4645669291338583
        },
        {
          "duration": 0.036336979166662786,
          "durationTicks": 20,
          "midi": 111,
          "name": "D#8",
          "ticks": 18000,
          "time": 32.70328125,
          "velocity": 0.5039370078740157
        },
        {
          "duration": 0.03633697916666989,
          "durationTicks": 20,
          "midi": 111,
          "name": "D#8",
          "ticks": 18024,
          "time": 32.746885625,
          "velocity": 0.5511811023622047
        },
        {
          "duration": 0.03633697916666989,
          "durationTicks": 20,
          "midi": 111,
          "name": "D#8",
          "ticks": 18048,
          "time": 32.79049,
          "velocity": 0.6062992125984252
        },
        {
          "duration": 0.03633697916666989,
          "durationTicks": 20,
          "midi": 111,
          "name": "D#8",
          "ticks": 18072,
          "time": 32.834094375,
          "velocity": 0.6614173228346457
        },
        {
          "duration": 0.03633697916666989,
          "durationTicks": 20,
          "midi": 111,
          "name": "D#8",
          "ticks": 18096,
          "time": 32.87769875,
          "velocity": 0.7007874015748031
        },
        {
          "duration": 0.03633697916666989,
          "durationTicks": 20,
          "midi": 111,
          "name": "D#8",
          "ticks": 18120,
          "time": 32.921303125,
          "velocity": 0.7480314960629921
        },
        {
          "duration": 0.03633697916666989,
          "durationTicks": 20,
          "midi": 111,
          "name": "D#8",
          "ticks": 18144,
          "time": 32.9649075,
          "velocity": 0.8031496062992126
        },
        {
          "duration": 0.036336979166662786,
          "durationTicks": 20,
          "midi": 111,
          "name": "D#8",
          "ticks": 18168,
          "time": 33.008511875,
          "velocity": 0.8582677165354331
        },
        {
          "duration": 0.03633697916666989,
          "durationTicks": 20,
          "midi": 111,
          "name": "D#8",
          "ticks": 18192,
          "time": 33.05211625,
          "velocity": 0.8976377952755905
        },
        {
          "duration": 0.03633697916666989,
          "durationTicks": 20,
          "midi": 111,
          "name": "D#8",
          "ticks": 18216,
          "time": 33.095720625,
          "velocity": 0.952755905511811
        },
        {
          "duration": 0.03633697916666989,
          "durationTicks": 20,
          "midi": 111,
          "name": "D#8",
          "ticks": 18240,
          "time": 33.139325,
          "velocity": 0.952755905511811
        },
        {
          "duration": 0.021802187500000514,
          "durationTicks": 12,
          "midi": 111,
          "name": "D#8",
          "ticks": 18264,
          "time": 33.182929375,
          "velocity": 0.9212598425196851
        },
        {
          "duration": 0.007267395833338242,
          "durationTicks": 4,
          "midi": 111,
          "name": "D#8",
          "ticks": 18280,
          "time": 33.21199895833333,
          "velocity": 0.8976377952755905
        },
        {
          "duration": 0.007267395833331136,
          "durationTicks": 4,
          "midi": 111,
          "name": "D#8",
          "ticks": 18296,
          "time": 33.24106854166667,
          "velocity": 0.8818897637795275
        },
        {
          "duration": 0.007267395833331136,
          "durationTicks": 4,
          "midi": 111,
          "name": "D#8",
          "ticks": 18312,
          "time": 33.270138125,
          "velocity": 0.8740157480314961
        },
        {
          "duration": 0.007267395833338242,
          "durationTicks": 4,
          "midi": 111,
          "name": "D#8",
          "ticks": 18328,
          "time": 33.299207708333334,
          "velocity": 0.8740157480314961
        },
        {
          "duration": 0.007267395833338242,
          "durationTicks": 4,
          "midi": 111,
          "name": "D#8",
          "ticks": 18344,
          "time": 33.328277291666666,
          "velocity": 0.8661417322834646
        },
        {
          "duration": 0.007267395833338242,
          "durationTicks": 4,
          "midi": 111,
          "name": "D#8",
          "ticks": 18360,
          "time": 33.357346875,
          "velocity": 0.8661417322834646
        },
        {
          "duration": 0.007267395833338242,
          "durationTicks": 4,
          "midi": 111,
          "name": "D#8",
          "ticks": 18376,
          "time": 33.38641645833333,
          "velocity": 0.8661417322834646
        },
        {
          "duration": 0.007267395833331136,
          "durationTicks": 4,
          "midi": 111,
          "name": "D#8",
          "ticks": 18392,
          "time": 33.41548604166667,
          "velocity": 0.8582677165354331
        },
        {
          "duration": 0.007267395833331136,
          "durationTicks": 4,
          "midi": 111,
          "name": "D#8",
          "ticks": 18408,
          "time": 33.444555625,
          "velocity": 0.8582677165354331
        },
        {
          "duration": 0.007267395833338242,
          "durationTicks": 4,
          "midi": 111,
          "name": "D#8",
          "ticks": 18424,
          "time": 33.47362520833333,
          "velocity": 0.8503937007874016
        },
        {
          "duration": 0.007267395833331136,
          "durationTicks": 4,
          "midi": 111,
          "name": "D#8",
          "ticks": 18440,
          "time": 33.50269479166667,
          "velocity": 0.8503937007874016
        },
        {
          "duration": 0.007267395833331136,
          "durationTicks": 4,
          "midi": 111,
          "name": "D#8",
          "ticks": 18456,
          "time": 33.531764375,
          "velocity": 0.8503937007874016
        },
        {
          "duration": 0.036336979166662786,
          "durationTicks": 20,
          "midi": 111,
          "name": "D#8",
          "ticks": 36096,
          "time": 65.58098,
          "velocity": 0.10236220472440945
        },
        {
          "duration": 0.036336979166662786,
          "durationTicks": 20,
          "midi": 111,
          "name": "D#8",
          "ticks": 36120,
          "time": 65.624584375,
          "velocity": 0.10236220472440945
        },
        {
          "duration": 0.036336979166662786,
          "durationTicks": 20,
          "midi": 111,
          "name": "D#8",
          "ticks": 36144,
          "time": 65.66818875,
          "velocity": 0.10236220472440945
        },
        {
          "duration": 0.036336979166662786,
          "durationTicks": 20,
          "midi": 111,
          "name": "D#8",
          "ticks": 36168,
          "time": 65.711793125,
          "velocity": 0.10236220472440945
        },
        {
          "duration": 0.036336979166662786,
          "durationTicks": 20,
          "midi": 111,
          "name": "D#8",
          "ticks": 36192,
          "time": 65.7553975,
          "velocity": 0.10236220472440945
        },
        {
          "duration": 0.036336979166662786,
          "durationTicks": 20,
          "midi": 111,
          "name": "D#8",
          "ticks": 36216,
          "time": 65.799001875,
          "velocity": 0.10236220472440945
        },
        {
          "duration": 0.036336979166662786,
          "durationTicks": 20,
          "midi": 111,
          "name": "D#8",
          "ticks": 36240,
          "time": 65.84260625,
          "velocity": 0.10236220472440945
        },
        {
          "duration": 0.036336979166662786,
          "durationTicks": 20,
          "midi": 111,
          "name": "D#8",
          "ticks": 36264,
          "time": 65.886210625,
          "velocity": 0.10236220472440945
        },
        {
          "duration": 0.036336979166662786,
          "durationTicks": 20,
          "midi": 111,
          "name": "D#8",
          "ticks": 36288,
          "time": 65.929815,
          "velocity": 0.13385826771653545
        },
        {
          "duration": 0.036336979166662786,
          "durationTicks": 20,
          "midi": 111,
          "name": "D#8",
          "ticks": 36312,
          "time": 65.973419375,
          "velocity": 0.18110236220472442
        },
        {
          "duration": 0.036336979166662786,
          "durationTicks": 20,
          "midi": 111,
          "name": "D#8",
          "ticks": 36336,
          "time": 66.01702375,
          "velocity": 0.23622047244094488
        },
        {
          "duration": 0.036336979166662786,
          "durationTicks": 20,
          "midi": 111,
          "name": "D#8",
          "ticks": 36360,
          "time": 66.06062812500001,
          "velocity": 0.2755905511811024
        },
        {
          "duration": 0.036336979166662786,
          "durationTicks": 20,
          "midi": 111,
          "name": "D#8",
          "ticks": 36384,
          "time": 66.1042325,
          "velocity": 0.33070866141732286
        },
        {
          "duration": 0.036336979166662786,
          "durationTicks": 20,
          "midi": 111,
          "name": "D#8",
          "ticks": 36408,
          "time": 66.147836875,
          "velocity": 0.3858267716535433
        },
        {
          "duration": 0.036336979166662786,
          "durationTicks": 20,
          "midi": 111,
          "name": "D#8",
          "ticks": 36432,
          "time": 66.19144125,
          "velocity": 0.4251968503937008
        },
        {
          "duration": 0.036336979166662786,
          "durationTicks": 20,
          "midi": 111,
          "name": "D#8",
          "ticks": 36456,
          "time": 66.235045625,
          "velocity": 0.47244094488188976
        },
        {
          "duration": 0.036336979166662786,
          "durationTicks": 20,
          "midi": 111,
          "name": "D#8",
          "ticks": 36480,
          "time": 66.27865,
          "velocity": 0.5275590551181102
        },
        {
          "duration": 0.036336979166662786,
          "durationTicks": 20,
          "midi": 111,
          "name": "D#8",
          "ticks": 36504,
          "time": 66.322254375,
          "velocity": 0.5826771653543307
        },
        {
          "duration": 0.021802187500000514,
          "durationTicks": 12,
          "midi": 111,
          "name": "D#8",
          "ticks": 36528,
          "time": 66.36585875,
          "velocity": 0.6377952755905512
        },
        {
          "duration": 0.007267395833324031,
          "durationTicks": 4,
          "midi": 111,
          "name": "D#8",
          "ticks": 36544,
          "time": 66.39492833333334,
          "velocity": 0.6614173228346457
        },
        {
          "duration": 0.007267395833338242,
          "durationTicks": 4,
          "midi": 111,
          "name": "D#8",
          "ticks": 36560,
          "time": 66.42399791666666,
          "velocity": 0.6850393700787402
        },
        {
          "duration": 0.007267395833338242,
          "durationTicks": 4,
          "midi": 111,
          "name": "D#8",
          "ticks": 36576,
          "time": 66.4530675,
          "velocity": 0.7086614173228346
        },
        {
          "duration": 0.007267395833324031,
          "durationTicks": 4,
          "midi": 111,
          "name": "D#8",
          "ticks": 36592,
          "time": 66.48213708333334,
          "velocity": 0.7244094488188977
        },
        {
          "duration": 0.007267395833338242,
          "durationTicks": 4,
          "midi": 111,
          "name": "D#8",
          "ticks": 36608,
          "time": 66.51120666666667,
          "velocity": 0.7480314960629921
        },
        {
          "duration": 0.007267395833338242,
          "durationTicks": 4,
          "midi": 111,
          "name": "D#8",
          "ticks": 36624,
          "time": 66.54027625,
          "velocity": 0.7716535433070866
        },
        {
          "duration": 0.007267395833324031,
          "durationTicks": 4,
          "midi": 111,
          "name": "D#8",
          "ticks": 36640,
          "time": 66.56934583333334,
          "velocity": 0.7952755905511811
        },
        {
          "duration": 0.007267395833338242,
          "durationTicks": 4,
          "midi": 111,
          "name": "D#8",
          "ticks": 36656,
          "time": 66.59841541666667,
          "velocity": 0.8188976377952756
        },
        {
          "duration": 0.007267395833324031,
          "durationTicks": 4,
          "midi": 111,
          "name": "D#8",
          "ticks": 36672,
          "time": 66.62748500000001,
          "velocity": 0.84251968503937
        },
        {
          "duration": 0.007267395833338242,
          "durationTicks": 4,
          "midi": 111,
          "name": "D#8",
          "ticks": 36688,
          "time": 66.65655458333333,
          "velocity": 0.7716535433070866
        },
        {
          "duration": 0.021802187499986303,
          "durationTicks": 12,
          "midi": 111,
          "name": "D#8",
          "ticks": 36696,
          "time": 66.67108937500001,
          "velocity": 0.84251968503937
        },
        {
          "duration": 0.007267395833338242,
          "durationTicks": 4,
          "midi": 111,
          "name": "D#8",
          "ticks": 36712,
          "time": 66.70015895833333,
          "velocity": 0.8188976377952756
        },
        {
          "duration": 0.007267395833324031,
          "durationTicks": 4,
          "midi": 111,
          "name": "D#8",
          "ticks": 36728,
          "time": 66.72922854166667,
          "velocity": 0.8031496062992126
        },
        {
          "duration": 0.007267395833338242,
          "durationTicks": 4,
          "midi": 111,
          "name": "D#8",
          "ticks": 36744,
          "time": 66.758298125,
          "velocity": 0.7952755905511811
        },
        {
          "duration": 0.007267395833324031,
          "durationTicks": 4,
          "midi": 111,
          "name": "D#8",
          "ticks": 36760,
          "time": 66.78736770833333,
          "velocity": 0.7952755905511811
        },
        {
          "duration": 0.007267395833338242,
          "durationTicks": 4,
          "midi": 111,
          "name": "D#8",
          "ticks": 36776,
          "time": 66.81643729166666,
          "velocity": 0.7874015748031497
        },
        {
          "duration": 0.007267395833338242,
          "durationTicks": 4,
          "midi": 111,
          "name": "D#8",
          "ticks": 36792,
          "time": 66.845506875,
          "velocity": 0.7874015748031497
        },
        {
          "duration": 0.007267395833324031,
          "durationTicks": 4,
          "midi": 111,
          "name": "D#8",
          "ticks": 36808,
          "time": 66.87457645833334,
          "velocity": 0.7874015748031497
        },
        {
          "duration": 0.007267395833338242,
          "durationTicks": 4,
          "midi": 111,
          "name": "D#8",
          "ticks": 36824,
          "time": 66.90364604166666,
          "velocity": 0.7795275590551181
        },
        {
          "duration": 0.007267395833338242,
          "durationTicks": 4,
          "midi": 111,
          "name": "D#8",
          "ticks": 36840,
          "time": 66.932715625,
          "velocity": 0.7795275590551181
        },
        {
          "duration": 0.007267395833324031,
          "durationTicks": 4,
          "midi": 111,
          "name": "D#8",
          "ticks": 36856,
          "time": 66.96178520833334,
          "velocity": 0.7716535433070866
        },
        {
          "duration": 0.007267395833338242,
          "durationTicks": 4,
          "midi": 111,
          "name": "D#8",
          "ticks": 36872,
          "time": 66.99085479166666,
          "velocity": 0.7716535433070866
        },
        {
          "duration": 0.007267395833338242,
          "durationTicks": 4,
          "midi": 111,
          "name": "D#8",
          "ticks": 36888,
          "time": 67.019924375,
          "velocity": 0.7716535433070866
        },
        {
          "duration": 0.021802187500000514,
          "durationTicks": 12,
          "midi": 111,
          "name": "D#8",
          "ticks": 54792,
          "time": 99.548788125,
          "velocity": 0.5748031496062992
        },
        {
          "duration": 0.021802187500000514,
          "durationTicks": 12,
          "midi": 111,
          "name": "D#8",
          "ticks": 54816,
          "time": 99.5923925,
          "velocity": 0.5905511811023622
        },
        {
          "duration": 0.021802187500000514,
          "durationTicks": 12,
          "midi": 111,
          "name": "D#8",
          "ticks": 54840,
          "time": 99.635996875,
          "velocity": 0.6062992125984252
        },
        {
          "duration": 0.021802187500000514,
          "durationTicks": 12,
          "midi": 111,
          "name": "D#8",
          "ticks": 54864,
          "time": 99.67960125,
          "velocity": 0.6220472440944882
        },
        {
          "duration": 0.021802187500000514,
          "durationTicks": 12,
          "midi": 111,
          "name": "D#8",
          "ticks": 54888,
          "time": 99.723205625,
          "velocity": 0.6377952755905512
        },
        {
          "duration": 0.021802187500000514,
          "durationTicks": 12,
          "midi": 111,
          "name": "D#8",
          "ticks": 54912,
          "time": 99.76681,
          "velocity": 0.6456692913385826
        },
        {
          "duration": 0.021802187500000514,
          "durationTicks": 12,
          "midi": 111,
          "name": "D#8",
          "ticks": 54936,
          "time": 99.81041437500001,
          "velocity": 0.6614173228346457
        },
        {
          "duration": 0.021802187499986303,
          "durationTicks": 12,
          "midi": 111,
          "name": "D#8",
          "ticks": 54960,
          "time": 99.85401875000001,
          "velocity": 0.6771653543307087
        },
        {
          "duration": 0.021802187500000514,
          "durationTicks": 12,
          "midi": 111,
          "name": "D#8",
          "ticks": 54984,
          "time": 99.897623125,
          "velocity": 0.6929133858267716
        },
        {
          "duration": 0.021802187500000514,
          "durationTicks": 12,
          "midi": 111,
          "name": "D#8",
          "ticks": 55008,
          "time": 99.9412275,
          "velocity": 0.7086614173228346
        },
        {
          "duration": 0.021802187500000514,
          "durationTicks": 12,
          "midi": 111,
          "name": "D#8",
          "ticks": 55032,
          "time": 99.984831875,
          "velocity": 0.7165354330708661
        },
        {
          "duration": 0.021802187500000514,
          "durationTicks": 12,
          "midi": 111,
          "name": "D#8",
          "ticks": 55056,
          "time": 100.02843625,
          "velocity": 0.7322834645669292
        },
        {
          "duration": 0.021802187500000514,
          "durationTicks": 12,
          "midi": 111,
          "name": "D#8",
          "ticks": 55080,
          "time": 100.072040625,
          "velocity": 0.7480314960629921
        },
        {
          "duration": 0.021802187500000514,
          "durationTicks": 12,
          "midi": 111,
          "name": "D#8",
          "ticks": 55104,
          "time": 100.115645,
          "velocity": 0.7637795275590551
        },
        {
          "duration": 0.021802187500000514,
          "durationTicks": 12,
          "midi": 111,
          "name": "D#8",
          "ticks": 55128,
          "time": 100.159249375,
          "velocity": 0.7795275590551181
        },
        {
          "duration": 0.036336979166677,
          "durationTicks": 20,
          "midi": 111,
          "name": "D#8",
          "ticks": 55152,
          "time": 100.20285375,
          "velocity": 0.7874015748031497
        },
        {
          "duration": 0.036336979166677,
          "durationTicks": 20,
          "midi": 111,
          "name": "D#8",
          "ticks": 55176,
          "time": 100.246458125,
          "velocity": 0.8031496062992126
        },
        {
          "duration": 0.021802187500000514,
          "durationTicks": 12,
          "midi": 111,
          "name": "D#8",
          "ticks": 55200,
          "time": 100.2900625,
          "velocity": 0.8188976377952756
        },
        {
          "duration": 0.021802187500000514,
          "durationTicks": 12,
          "midi": 111,
          "name": "D#8",
          "ticks": 55224,
          "time": 100.333666875,
          "velocity": 0.8346456692913385
        },
        {
          "duration": 0.036336979166662786,
          "durationTicks": 20,
          "midi": 111,
          "name": "D#8",
          "ticks": 55248,
          "time": 100.37727125,
          "velocity": 0.8503937007874016
        },
        {
          "duration": 0.036336979166662786,
          "durationTicks": 20,
          "midi": 111,
          "name": "D#8",
          "ticks": 55272,
          "time": 100.42087562500001,
          "velocity": 0.8582677165354331
        },
        {
          "duration": 0.021802187499986303,
          "durationTicks": 12,
          "midi": 111,
          "name": "D#8",
          "ticks": 55296,
          "time": 100.46448000000001,
          "velocity": 0.8740157480314961
        },
        {
          "duration": 0.021802187500000514,
          "durationTicks": 12,
          "midi": 111,
          "name": "D#8",
          "ticks": 55320,
          "time": 100.508084375,
          "velocity": 0.889763779527559
        },
        {
          "duration": 0.021802187500014725,
          "durationTicks": 12,
          "midi": 111,
          "name": "D#8",
          "ticks": 85512,
          "time": 155.362388125,
          "velocity": 0.5748031496062992
        },
        {
          "duration": 0.021802187500014725,
          "durationTicks": 12,
          "midi": 111,
          "name": "D#8",
          "ticks": 85536,
          "time": 155.4059925,
          "velocity": 0.5905511811023622
        },
        {
          "duration": 0.021802187500014725,
          "durationTicks": 12,
          "midi": 111,
          "name": "D#8",
          "ticks": 85560,
          "time": 155.449596875,
          "velocity": 0.6062992125984252
        },
        {
          "duration": 0.021802187500014725,
          "durationTicks": 12,
          "midi": 111,
          "name": "D#8",
          "ticks": 85584,
          "time": 155.49320125,
          "velocity": 0.6220472440944882
        },
        {
          "duration": 0.021802187500014725,
          "durationTicks": 12,
          "midi": 111,
          "name": "D#8",
          "ticks": 85608,
          "time": 155.536805625,
          "velocity": 0.6377952755905512
        },
        {
          "duration": 0.021802187500014725,
          "durationTicks": 12,
          "midi": 111,
          "name": "D#8",
          "ticks": 85632,
          "time": 155.58041,
          "velocity": 0.6456692913385826
        },
        {
          "duration": 0.021802187500014725,
          "durationTicks": 12,
          "midi": 111,
          "name": "D#8",
          "ticks": 85656,
          "time": 155.624014375,
          "velocity": 0.6614173228346457
        },
        {
          "duration": 0.021802187499986303,
          "durationTicks": 12,
          "midi": 111,
          "name": "D#8",
          "ticks": 85680,
          "time": 155.66761875,
          "velocity": 0.6771653543307087
        },
        {
          "duration": 0.021802187499986303,
          "durationTicks": 12,
          "midi": 111,
          "name": "D#8",
          "ticks": 85704,
          "time": 155.711223125,
          "velocity": 0.6929133858267716
        },
        {
          "duration": 0.021802187499986303,
          "durationTicks": 12,
          "midi": 111,
          "name": "D#8",
          "ticks": 85728,
          "time": 155.7548275,
          "velocity": 0.7086614173228346
        },
        {
          "duration": 0.021802187499986303,
          "durationTicks": 12,
          "midi": 111,
          "name": "D#8",
          "ticks": 85752,
          "time": 155.798431875,
          "velocity": 0.7165354330708661
        },
        {
          "duration": 0.021802187499986303,
          "durationTicks": 12,
          "midi": 111,
          "name": "D#8",
          "ticks": 85776,
          "time": 155.84203625,
          "velocity": 0.7322834645669292
        },
        {
          "duration": 0.021802187499986303,
          "durationTicks": 12,
          "midi": 111,
          "name": "D#8",
          "ticks": 85800,
          "time": 155.885640625,
          "velocity": 0.7480314960629921
        },
        {
          "duration": 0.021802187499986303,
          "durationTicks": 12,
          "midi": 111,
          "name": "D#8",
          "ticks": 85824,
          "time": 155.929245,
          "velocity": 0.7637795275590551
        },
        {
          "duration": 0.021802187499986303,
          "durationTicks": 12,
          "midi": 111,
          "name": "D#8",
          "ticks": 85848,
          "time": 155.972849375,
          "velocity": 0.7795275590551181
        },
        {
          "duration": 0.036336979166662786,
          "durationTicks": 20,
          "midi": 111,
          "name": "D#8",
          "ticks": 85872,
          "time": 156.01645375,
          "velocity": 0.7874015748031497
        },
        {
          "duration": 0.036336979166662786,
          "durationTicks": 20,
          "midi": 111,
          "name": "D#8",
          "ticks": 85896,
          "time": 156.060058125,
          "velocity": 0.8031496062992126
        },
        {
          "duration": 0.021802187499986303,
          "durationTicks": 12,
          "midi": 111,
          "name": "D#8",
          "ticks": 85920,
          "time": 156.1036625,
          "velocity": 0.8188976377952756
        },
        {
          "duration": 0.021802187499986303,
          "durationTicks": 12,
          "midi": 111,
          "name": "D#8",
          "ticks": 85944,
          "time": 156.147266875,
          "velocity": 0.8346456692913385
        },
        {
          "duration": 0.036336979166662786,
          "durationTicks": 20,
          "midi": 111,
          "name": "D#8",
          "ticks": 85968,
          "time": 156.19087125000001,
          "velocity": 0.8503937007874016
        },
        {
          "duration": 0.036336979166662786,
          "durationTicks": 20,
          "midi": 111,
          "name": "D#8",
          "ticks": 85992,
          "time": 156.23447562500002,
          "velocity": 0.8582677165354331
        },
        {
          "duration": 0.021802187500014725,
          "durationTicks": 12,
          "midi": 111,
          "name": "D#8",
          "ticks": 86016,
          "time": 156.27808,
          "velocity": 0.8740157480314961
        },
        {
          "duration": 0.021802187500014725,
          "durationTicks": 12,
          "midi": 111,
          "name": "D#8",
          "ticks": 86040,
          "time": 156.321684375,
          "velocity": 0.889763779527559
        },
        {
          "duration": 0.021802187500014725,
          "durationTicks": 12,
          "midi": 111,
          "name": "D#8",
          "ticks": 105312,
          "time": 191.3359975,
          "velocity": 0.4881889763779528
        },
        {
          "duration": 0.021802187500014725,
          "durationTicks": 12,
          "midi": 111,
          "name": "D#8",
          "ticks": 105328,
          "time": 191.36506708333334,
          "velocity": 0.5039370078740157
        },
        {
          "duration": 0.021802187499986303,
          "durationTicks": 12,
          "midi": 111,
          "name": "D#8",
          "ticks": 105344,
          "time": 191.39413666666667,
          "velocity": 0.5196850393700787
        },
        {
          "duration": 0.021802187500014725,
          "durationTicks": 12,
          "midi": 111,
          "name": "D#8",
          "ticks": 105360,
          "time": 191.42320625,
          "velocity": 0.5354330708661418
        },
        {
          "duration": 0.021802187500014725,
          "durationTicks": 12,
          "midi": 111,
          "name": "D#8",
          "ticks": 105376,
          "time": 191.45227583333335,
          "velocity": 0.5511811023622047
        },
        {
          "duration": 0.021802187499986303,
          "durationTicks": 12,
          "midi": 111,
          "name": "D#8",
          "ticks": 105392,
          "time": 191.48134541666667,
          "velocity": 0.5669291338582677
        },
        {
          "duration": 0.021802187500014725,
          "durationTicks": 12,
          "midi": 111,
          "name": "D#8",
          "ticks": 105408,
          "time": 191.510415,
          "velocity": 0.5826771653543307
        },
        {
          "duration": 0.021802187500014725,
          "durationTicks": 12,
          "midi": 111,
          "name": "D#8",
          "ticks": 105424,
          "time": 191.53948458333335,
          "velocity": 0.5984251968503937
        },
        {
          "duration": 0.021802187500014725,
          "durationTicks": 12,
          "midi": 111,
          "name": "D#8",
          "ticks": 105440,
          "time": 191.56855416666664,
          "velocity": 0.6141732283464567
        },
        {
          "duration": 0.021802187500014725,
          "durationTicks": 12,
          "midi": 111,
          "name": "D#8",
          "ticks": 105456,
          "time": 191.59762375,
          "velocity": 0.6377952755905512
        },
        {
          "duration": 0.021802187499986303,
          "durationTicks": 12,
          "midi": 111,
          "name": "D#8",
          "ticks": 105472,
          "time": 191.62669333333335,
          "velocity": 0.6535433070866141
        },
        {
          "duration": 0.021802187500014725,
          "durationTicks": 12,
          "midi": 111,
          "name": "D#8",
          "ticks": 105488,
          "time": 191.65576291666665,
          "velocity": 0.6692913385826772
        },
        {
          "duration": 0.021802187500014725,
          "durationTicks": 12,
          "midi": 111,
          "name": "D#8",
          "ticks": 105504,
          "time": 191.6848325,
          "velocity": 0.6850393700787402
        },
        {
          "duration": 0.021802187499986303,
          "durationTicks": 12,
          "midi": 111,
          "name": "D#8",
          "ticks": 105520,
          "time": 191.71390208333335,
          "velocity": 0.7007874015748031
        },
        {
          "duration": 0.021802187500014725,
          "durationTicks": 12,
          "midi": 111,
          "name": "D#8",
          "ticks": 105536,
          "time": 191.74297166666665,
          "velocity": 0.7165354330708661
        },
        {
          "duration": 0.021802187500014725,
          "durationTicks": 12,
          "midi": 111,
          "name": "D#8",
          "ticks": 105552,
          "time": 191.77204125,
          "velocity": 0.7322834645669292
        },
        {
          "duration": 0.021802187499986303,
          "durationTicks": 12,
          "midi": 111,
          "name": "D#8",
          "ticks": 105568,
          "time": 191.80111083333335,
          "velocity": 0.7480314960629921
        },
        {
          "duration": 0.021802187500014725,
          "durationTicks": 12,
          "midi": 111,
          "name": "D#8",
          "ticks": 105584,
          "time": 191.83018041666665,
          "velocity": 0.7637795275590551
        },
        {
          "duration": 0.021802187499986303,
          "durationTicks": 12,
          "midi": 111,
          "name": "D#8",
          "ticks": 105600,
          "time": 191.85925,
          "velocity": 0.7795275590551181
        }
      ]
    },
    {
      "channel": 9,
      "controlChanges": {
        "7": [
          {
            "number": 7,
            "ticks": 1536,
            "time": 2.79068,
            "value": 1
          }
        ],
        "11": [
          {
            "number": 11,
            "ticks": 1536,
            "time": 2.79068,
            "value": 1
          }
        ],
        "91": [
          {
            "number": 91,
            "ticks": 1536,
            "time": 2.79068,
            "value": 0.9212598425196851
          }
        ],
        "93": [
          {
            "number": 93,
            "ticks": 1536,
            "time": 2.79068,
            "value": 0.14173228346456693
          }
        ],
        "120": [
          {
            "number": 120,
            "ticks": 107160,
            "time": 194.693534375,
            "value": 0
          }
        ],
        "121": [
          {
            "number": 121,
            "ticks": 1536,
            "time": 2.79068,
            "value": 0
          }
        ]
      },
      "pitchBends": [],
      "instrument": {
        "family": "drums",
        "name": "standard kit",
        "number": 0
      },
      "name": "Drums",
      "notes": [
        {
          "duration": 0.08720874999999984,
          "durationTicks": 48,
          "midi": 37,
          "name": "C#2",
          "ticks": 1536,
          "time": 2.79068,
          "velocity": 0.9448818897637795
        },
        {
          "duration": 0.08720874999999984,
          "durationTicks": 48,
          "midi": 37,
          "name": "C#2",
          "ticks": 1920,
          "time": 3.48835,
          "velocity": 0.5511811023622047
        },
        {
          "duration": 0.08720875000000028,
          "durationTicks": 48,
          "midi": 37,
          "name": "C#2",
          "ticks": 2304,
          "time": 4.18602,
          "velocity": 0.5511811023622047
        },
        {
          "duration": 0.08720875000000028,
          "durationTicks": 48,
          "midi": 37,
          "name": "C#2",
          "ticks": 2688,
          "time": 4.88369,
          "velocity": 0.5511811023622047
        },
        {
          "duration": 0.014534791666669378,
          "durationTicks": 8,
          "midi": 35,
          "name": "B1",
          "ticks": 15360,
          "time": 27.9068,
          "velocity": 0.6456692913385826
        },
        {
          "duration": 0.014534791666665825,
          "durationTicks": 8,
          "midi": 35,
          "name": "B1",
          "ticks": 16128,
          "time": 29.30214,
          "velocity": 0.6456692913385826
        },
        {
          "duration": 0.014534791666669378,
          "durationTicks": 8,
          "midi": 35,
          "name": "B1",
          "ticks": 16896,
          "time": 30.69748,
          "velocity": 0.6456692913385826
        },
        {
          "duration": 0.014534791666662272,
          "durationTicks": 8,
          "midi": 35,
          "name": "B1",
          "ticks": 17664,
          "time": 32.09282,
          "velocity": 0.6456692913385826
        },
        {
          "duration": 0.014534791666669378,
          "durationTicks": 8,
          "midi": 35,
          "name": "B1",
          "ticks": 18432,
          "time": 33.48816,
          "velocity": 0.6456692913385826
        },
        {
          "duration": 0.014534791666669378,
          "durationTicks": 8,
          "midi": 35,
          "name": "B1",
          "ticks": 19200,
          "time": 34.8835,
          "velocity": 0.6456692913385826
        },
        {
          "duration": 0.014534791666669378,
          "durationTicks": 8,
          "midi": 35,
          "name": "B1",
          "ticks": 19968,
          "time": 36.27884,
          "velocity": 0.6456692913385826
        },
        {
          "duration": 0.014534791666669378,
          "durationTicks": 8,
          "midi": 35,
          "name": "B1",
          "ticks": 20736,
          "time": 37.67418,
          "velocity": 0.6456692913385826
        },
        {
          "duration": 0.014534791666669378,
          "durationTicks": 8,
          "midi": 35,
          "name": "B1",
          "ticks": 21504,
          "time": 39.06952,
          "velocity": 0.6456692913385826
        },
        {
          "duration": 0.014534791666669378,
          "durationTicks": 8,
          "midi": 35,
          "name": "B1",
          "ticks": 22272,
          "time": 40.46486,
          "velocity": 0.6456692913385826
        },
        {
          "duration": 0.014534791666669378,
          "durationTicks": 8,
          "midi": 35,
          "name": "B1",
          "ticks": 23040,
          "time": 41.8602,
          "velocity": 0.6456692913385826
        },
        {
          "duration": 0.014534791666662272,
          "durationTicks": 8,
          "midi": 35,
          "name": "B1",
          "ticks": 23808,
          "time": 43.25554,
          "velocity": 0.6456692913385826
        },
        {
          "duration": 0.014534791666662272,
          "durationTicks": 8,
          "midi": 35,
          "name": "B1",
          "ticks": 24576,
          "time": 44.65088,
          "velocity": 0.6456692913385826
        },
        {
          "duration": 0.014534791666669378,
          "durationTicks": 8,
          "midi": 35,
          "name": "B1",
          "ticks": 25344,
          "time": 46.04622,
          "velocity": 0.6456692913385826
        },
        {
          "duration": 0.014534791666662272,
          "durationTicks": 8,
          "midi": 35,
          "name": "B1",
          "ticks": 26112,
          "time": 47.44156,
          "velocity": 0.6456692913385826
        },
        {
          "duration": 0.014534791666662272,
          "durationTicks": 8,
          "midi": 35,
          "name": "B1",
          "ticks": 26880,
          "time": 48.8369,
          "velocity": 0.6456692913385826
        },
        {
          "duration": 0.014534791666662272,
          "durationTicks": 8,
          "midi": 35,
          "name": "B1",
          "ticks": 27648,
          "time": 50.232240000000004,
          "velocity": 0.6456692913385826
        },
        {
          "duration": 0.014534791666662272,
          "durationTicks": 8,
          "midi": 35,
          "name": "B1",
          "ticks": 28416,
          "time": 51.62758,
          "velocity": 0.6456692913385826
        },
        {
          "duration": 0.014534791666662272,
          "durationTicks": 8,
          "midi": 35,
          "name": "B1",
          "ticks": 29184,
          "time": 53.02292,
          "velocity": 0.6456692913385826
        },
        {
          "duration": 0.014534791666662272,
          "durationTicks": 8,
          "midi": 35,
          "name": "B1",
          "ticks": 29952,
          "time": 54.418260000000004,
          "velocity": 0.6456692913385826
        },
        {
          "duration": 0.014534791666662272,
          "durationTicks": 8,
          "midi": 35,
          "name": "B1",
          "ticks": 30720,
          "time": 55.8136,
          "velocity": 0.6456692913385826
        },
        {
          "duration": 0.014534791666662272,
          "durationTicks": 8,
          "midi": 54,
          "name": "F#3",
          "ticks": 31104,
          "time": 56.51127,
          "velocity": 0.5984251968503937
        },
        {
          "duration": 0.014534791666669378,
          "durationTicks": 8,
          "midi": 35,
          "name": "B1",
          "ticks": 31488,
          "time": 57.20894,
          "velocity": 0.6456692913385826
        },
        {
          "duration": 0.014534791666662272,
          "durationTicks": 8,
          "midi": 54,
          "name": "F#3",
          "ticks": 31872,
          "time": 57.90661,
          "velocity": 0.5826771653543307
        },
        {
          "duration": 0.014534791666662272,
          "durationTicks": 8,
          "midi": 35,
          "name": "B1",
          "ticks": 32256,
          "time": 58.60428,
          "velocity": 0.6456692913385826
        },
        {
          "duration": 0.014534791666669378,
          "durationTicks": 8,
          "midi": 54,
          "name": "F#3",
          "ticks": 32640,
          "time": 59.30195,
          "velocity": 0.5984251968503937
        },
        {
          "duration": 0.014534791666662272,
          "durationTicks": 8,
          "midi": 35,
          "name": "B1",
          "ticks": 33024,
          "time": 59.99962,
          "velocity": 0.6456692913385826
        },
        {
          "duration": 0.014534791666662272,
          "durationTicks": 8,
          "midi": 54,
          "name": "F#3",
          "ticks": 33408,
          "time": 60.69729,
          "velocity": 0.5905511811023622
        },
        {
          "duration": 0.014534791666669378,
          "durationTicks": 8,
          "midi": 35,
          "name": "B1",
          "ticks": 33792,
          "time": 61.39496,
          "velocity": 0.6456692913385826
        },
        {
          "duration": 0.014534791666662272,
          "durationTicks": 8,
          "midi": 54,
          "name": "F#3",
          "ticks": 34176,
          "time": 62.09263,
          "velocity": 0.5984251968503937
        },
        {
          "duration": 0.014534791666662272,
          "durationTicks": 8,
          "midi": 35,
          "name": "B1",
          "ticks": 34560,
          "time": 62.7903,
          "velocity": 0.6456692913385826
        },
        {
          "duration": 0.014534791666662272,
          "durationTicks": 8,
          "midi": 54,
          "name": "F#3",
          "ticks": 34944,
          "time": 63.487970000000004,
          "velocity": 0.5826771653543307
        },
        {
          "duration": 0.014534791666662272,
          "durationTicks": 8,
          "midi": 35,
          "name": "B1",
          "ticks": 35328,
          "time": 64.18564,
          "velocity": 0.6456692913385826
        },
        {
          "duration": 0.014534791666676483,
          "durationTicks": 8,
          "midi": 54,
          "name": "F#3",
          "ticks": 35712,
          "time": 64.88331,
          "velocity": 0.5984251968503937
        },
        {
          "duration": 0.014534791666662272,
          "durationTicks": 8,
          "midi": 35,
          "name": "B1",
          "ticks": 36096,
          "time": 65.58098,
          "velocity": 0.6456692913385826
        },
        {
          "duration": 0.014534791666662272,
          "durationTicks": 8,
          "midi": 54,
          "name": "F#3",
          "ticks": 36480,
          "time": 66.27865,
          "velocity": 0.5905511811023622
        },
        {
          "duration": 0.014534791666662272,
          "durationTicks": 8,
          "midi": 35,
          "name": "B1",
          "ticks": 36864,
          "time": 66.97632,
          "velocity": 0.6456692913385826
        },
        {
          "duration": 0.014534791666662272,
          "durationTicks": 8,
          "midi": 54,
          "name": "F#3",
          "ticks": 37248,
          "time": 67.67399,
          "velocity": 0.5984251968503937
        },
        {
          "duration": 0.014534791666662272,
          "durationTicks": 8,
          "midi": 35,
          "name": "B1",
          "ticks": 37632,
          "time": 68.37166,
          "velocity": 0.6456692913385826
        },
        {
          "duration": 0.014534791666662272,
          "durationTicks": 8,
          "midi": 54,
          "name": "F#3",
          "ticks": 38016,
          "time": 69.06933000000001,
          "velocity": 0.5826771653543307
        },
        {
          "duration": 0.014534791666662272,
          "durationTicks": 8,
          "midi": 35,
          "name": "B1",
          "ticks": 38400,
          "time": 69.767,
          "velocity": 0.6456692913385826
        },
        {
          "duration": 0.014534791666662272,
          "durationTicks": 8,
          "midi": 54,
          "name": "F#3",
          "ticks": 38784,
          "time": 70.46467,
          "velocity": 0.5984251968503937
        },
        {
          "duration": 0.014534791666662272,
          "durationTicks": 8,
          "midi": 35,
          "name": "B1",
          "ticks": 39168,
          "time": 71.16234,
          "velocity": 0.6456692913385826
        },
        {
          "duration": 0.014534791666662272,
          "durationTicks": 8,
          "midi": 54,
          "name": "F#3",
          "ticks": 39552,
          "time": 71.86001,
          "velocity": 0.5905511811023622
        },
        {
          "duration": 0.014534791666662272,
          "durationTicks": 8,
          "midi": 35,
          "name": "B1",
          "ticks": 39936,
          "time": 72.55768,
          "velocity": 0.6456692913385826
        },
        {
          "duration": 0.014534791666662272,
          "durationTicks": 8,
          "midi": 54,
          "name": "F#3",
          "ticks": 40320,
          "time": 73.25535,
          "velocity": 0.5984251968503937
        },
        {
          "duration": 0.014534791666676483,
          "durationTicks": 8,
          "midi": 35,
          "name": "B1",
          "ticks": 40704,
          "time": 73.95302,
          "velocity": 0.6456692913385826
        },
        {
          "duration": 0.014534791666662272,
          "durationTicks": 8,
          "midi": 54,
          "name": "F#3",
          "ticks": 41088,
          "time": 74.65069,
          "velocity": 0.5826771653543307
        },
        {
          "duration": 0.014534791666662272,
          "durationTicks": 8,
          "midi": 35,
          "name": "B1",
          "ticks": 41472,
          "time": 75.34836,
          "velocity": 0.6456692913385826
        },
        {
          "duration": 0.014534791666662272,
          "durationTicks": 8,
          "midi": 54,
          "name": "F#3",
          "ticks": 41856,
          "time": 76.04603,
          "velocity": 0.5984251968503937
        },
        {
          "duration": 0.014534791666662272,
          "durationTicks": 8,
          "midi": 35,
          "name": "B1",
          "ticks": 42240,
          "time": 76.7437,
          "velocity": 0.6456692913385826
        },
        {
          "duration": 0.014534791666662272,
          "durationTicks": 8,
          "midi": 54,
          "name": "F#3",
          "ticks": 42624,
          "time": 77.44137,
          "velocity": 0.5905511811023622
        },
        {
          "duration": 0.014534791666676483,
          "durationTicks": 8,
          "midi": 35,
          "name": "B1",
          "ticks": 43008,
          "time": 78.13904,
          "velocity": 0.6456692913385826
        },
        {
          "duration": 0.014534791666662272,
          "durationTicks": 8,
          "midi": 54,
          "name": "F#3",
          "ticks": 43392,
          "time": 78.83671,
          "velocity": 0.5984251968503937
        },
        {
          "duration": 0.014534791666662272,
          "durationTicks": 8,
          "midi": 35,
          "name": "B1",
          "ticks": 43776,
          "time": 79.53438,
          "velocity": 0.6456692913385826
        },
        {
          "duration": 0.014534791666662272,
          "durationTicks": 8,
          "midi": 54,
          "name": "F#3",
          "ticks": 44160,
          "time": 80.23205,
          "velocity": 0.5826771653543307
        },
        {
          "duration": 0.014534791666662272,
          "durationTicks": 8,
          "midi": 35,
          "name": "B1",
          "ticks": 44544,
          "time": 80.92972,
          "velocity": 0.6456692913385826
        },
        {
          "duration": 0.014534791666662272,
          "durationTicks": 8,
          "midi": 54,
          "name": "F#3",
          "ticks": 44928,
          "time": 81.62739,
          "velocity": 0.5984251968503937
        },
        {
          "duration": 0.014534791666662272,
          "durationTicks": 8,
          "midi": 35,
          "name": "B1",
          "ticks": 45312,
          "time": 82.32506000000001,
          "velocity": 0.6456692913385826
        },
        {
          "duration": 0.014534791666662272,
          "durationTicks": 8,
          "midi": 54,
          "name": "F#3",
          "ticks": 45696,
          "time": 83.02273,
          "velocity": 0.5905511811023622
        },
        {
          "duration": 0.014534791666662272,
          "durationTicks": 8,
          "midi": 35,
          "name": "B1",
          "ticks": 46080,
          "time": 83.7204,
          "velocity": 0.6456692913385826
        },
        {
          "duration": 0.014534791666662272,
          "durationTicks": 8,
          "midi": 54,
          "name": "F#3",
          "ticks": 46464,
          "time": 84.41807,
          "velocity": 0.5984251968503937
        },
        {
          "duration": 0.014534791666662272,
          "durationTicks": 8,
          "midi": 35,
          "name": "B1",
          "ticks": 46848,
          "time": 85.11574,
          "velocity": 0.6456692913385826
        },
        {
          "duration": 0.014534791666662272,
          "durationTicks": 8,
          "midi": 54,
          "name": "F#3",
          "ticks": 47232,
          "time": 85.81341,
          "velocity": 0.5826771653543307
        },
        {
          "duration": 0.014534791666662272,
          "durationTicks": 8,
          "midi": 35,
          "name": "B1",
          "ticks": 47616,
          "time": 86.51108,
          "velocity": 0.6456692913385826
        },
        {
          "duration": 0.014534791666676483,
          "durationTicks": 8,
          "midi": 54,
          "name": "F#3",
          "ticks": 48000,
          "time": 87.20875,
          "velocity": 0.5984251968503937
        },
        {
          "duration": 0.014534791666662272,
          "durationTicks": 8,
          "midi": 35,
          "name": "B1",
          "ticks": 48384,
          "time": 87.90642,
          "velocity": 0.6456692913385826
        },
        {
          "duration": 0.014534791666662272,
          "durationTicks": 8,
          "midi": 54,
          "name": "F#3",
          "ticks": 48768,
          "time": 88.60409,
          "velocity": 0.5905511811023622
        },
        {
          "duration": 0.014534791666676483,
          "durationTicks": 8,
          "midi": 35,
          "name": "B1",
          "ticks": 49152,
          "time": 89.30176,
          "velocity": 0.6456692913385826
        },
        {
          "duration": 0.014534791666676483,
          "durationTicks": 8,
          "midi": 54,
          "name": "F#3",
          "ticks": 49536,
          "time": 89.99943,
          "velocity": 0.5984251968503937
        },
        {
          "duration": 0.014534791666662272,
          "durationTicks": 8,
          "midi": 35,
          "name": "B1",
          "ticks": 49920,
          "time": 90.6971,
          "velocity": 0.6456692913385826
        },
        {
          "duration": 0.014534791666662272,
          "durationTicks": 8,
          "midi": 54,
          "name": "F#3",
          "ticks": 50304,
          "time": 91.39477000000001,
          "velocity": 0.5826771653543307
        },
        {
          "duration": 0.014534791666676483,
          "durationTicks": 8,
          "midi": 35,
          "name": "B1",
          "ticks": 50688,
          "time": 92.09244,
          "velocity": 0.6456692913385826
        },
        {
          "duration": 0.014534791666676483,
          "durationTicks": 8,
          "midi": 54,
          "name": "F#3",
          "ticks": 51072,
          "time": 92.79011,
          "velocity": 0.5984251968503937
        },
        {
          "duration": 0.014534791666676483,
          "durationTicks": 8,
          "midi": 35,
          "name": "B1",
          "ticks": 51456,
          "time": 93.48778,
          "velocity": 0.6456692913385826
        },
        {
          "duration": 0.014534791666676483,
          "durationTicks": 8,
          "midi": 54,
          "name": "F#3",
          "ticks": 51840,
          "time": 94.18545,
          "velocity": 0.5905511811023622
        },
        {
          "duration": 0.014534791666676483,
          "durationTicks": 8,
          "midi": 35,
          "name": "B1",
          "ticks": 52224,
          "time": 94.88312,
          "velocity": 0.6456692913385826
        },
        {
          "duration": 0.014534791666662272,
          "durationTicks": 8,
          "midi": 54,
          "name": "F#3",
          "ticks": 52608,
          "time": 95.58079000000001,
          "velocity": 0.5984251968503937
        },
        {
          "duration": 0.014534791666676483,
          "durationTicks": 8,
          "midi": 35,
          "name": "B1",
          "ticks": 52992,
          "time": 96.27846,
          "velocity": 0.6456692913385826
        },
        {
          "duration": 0.014534791666676483,
          "durationTicks": 8,
          "midi": 54,
          "name": "F#3",
          "ticks": 53376,
          "time": 96.97613,
          "velocity": 0.5826771653543307
        },
        {
          "duration": 0.014534791666676483,
          "durationTicks": 8,
          "midi": 35,
          "name": "B1",
          "ticks": 53760,
          "time": 97.6738,
          "velocity": 0.5590551181102362
        },
        {
          "duration": 0.014534791666676483,
          "durationTicks": 8,
          "midi": 54,
          "name": "F#3",
          "ticks": 54984,
          "time": 99.897623125,
          "velocity": 0.2677165354330709
        },
        {
          "duration": 0.014534791666676483,
          "durationTicks": 8,
          "midi": 54,
          "name": "F#3",
          "ticks": 54996,
          "time": 99.9194253125,
          "velocity": 0.28346456692913385
        },
        {
          "duration": 0.014534791666676483,
          "durationTicks": 8,
          "midi": 54,
          "name": "F#3",
          "ticks": 55008,
          "time": 99.9412275,
          "velocity": 0.29133858267716534
        },
        {
          "duration": 0.014534791666676483,
          "durationTicks": 8,
          "midi": 54,
          "name": "F#3",
          "ticks": 55020,
          "time": 99.9630296875,
          "velocity": 0.30708661417322836
        },
        {
          "duration": 0.014534791666676483,
          "durationTicks": 8,
          "midi": 54,
          "name": "F#3",
          "ticks": 55080,
          "time": 100.072040625,
          "velocity": 0.31496062992125984
        },
        {
          "duration": 0.014534791666676483,
          "durationTicks": 8,
          "midi": 54,
          "name": "F#3",
          "ticks": 55092,
          "time": 100.0938428125,
          "velocity": 0.33070866141732286
        },
        {
          "duration": 0.014534791666676483,
          "durationTicks": 8,
          "midi": 54,
          "name": "F#3",
          "ticks": 55104,
          "time": 100.115645,
          "velocity": 0.33858267716535434
        },
        {
          "duration": 0.014534791666676483,
          "durationTicks": 8,
          "midi": 54,
          "name": "F#3",
          "ticks": 55116,
          "time": 100.1374471875,
          "velocity": 0.3543307086614173
        },
        {
          "duration": 0.014534791666676483,
          "durationTicks": 8,
          "midi": 54,
          "name": "F#3",
          "ticks": 55176,
          "time": 100.246458125,
          "velocity": 0.3700787401574803
        },
        {
          "duration": 0.014534791666676483,
          "durationTicks": 8,
          "midi": 54,
          "name": "F#3",
          "ticks": 55188,
          "time": 100.2682603125,
          "velocity": 0.3779527559055118
        },
        {
          "duration": 0.014534791666676483,
          "durationTicks": 8,
          "midi": 54,
          "name": "F#3",
          "ticks": 55200,
          "time": 100.2900625,
          "velocity": 0.3858267716535433
        },
        {
          "duration": 0.014534791666676483,
          "durationTicks": 8,
          "midi": 54,
          "name": "F#3",
          "ticks": 55212,
          "time": 100.3118646875,
          "velocity": 0.4094488188976378
        },
        {
          "duration": 0.014534791666662272,
          "durationTicks": 8,
          "midi": 54,
          "name": "F#3",
          "ticks": 55272,
          "time": 100.42087562500001,
          "velocity": 0.4330708661417323
        },
        {
          "duration": 0.014534791666662272,
          "durationTicks": 8,
          "midi": 54,
          "name": "F#3",
          "ticks": 55284,
          "time": 100.44267781250001,
          "velocity": 0.4330708661417323
        },
        {
          "duration": 0.014534791666662272,
          "durationTicks": 8,
          "midi": 35,
          "name": "B1",
          "ticks": 55296,
          "time": 100.46448000000001,
          "velocity": 0.6456692913385826
        },
        {
          "duration": 0.014534791666662272,
          "durationTicks": 8,
          "midi": 49,
          "name": "C#3",
          "ticks": 55296,
          "time": 100.46448000000001,
          "velocity": 0.4330708661417323
        },
        {
          "duration": 0.014534791666676483,
          "durationTicks": 8,
          "midi": 54,
          "name": "F#3",
          "ticks": 55680,
          "time": 101.16215,
          "velocity": 0.5984251968503937
        },
        {
          "duration": 0.014534791666676483,
          "durationTicks": 8,
          "midi": 35,
          "name": "B1",
          "ticks": 56064,
          "time": 101.85982,
          "velocity": 0.6456692913385826
        },
        {
          "duration": 0.014534791666676483,
          "durationTicks": 8,
          "midi": 54,
          "name": "F#3",
          "ticks": 56448,
          "time": 102.55749,
          "velocity": 0.5826771653543307
        },
        {
          "duration": 0.014534791666676483,
          "durationTicks": 8,
          "midi": 35,
          "name": "B1",
          "ticks": 56832,
          "time": 103.25516,
          "velocity": 0.6456692913385826
        },
        {
          "duration": 0.014534791666662272,
          "durationTicks": 8,
          "midi": 54,
          "name": "F#3",
          "ticks": 57216,
          "time": 103.95283,
          "velocity": 0.5984251968503937
        },
        {
          "duration": 0.014534791666662272,
          "durationTicks": 8,
          "midi": 35,
          "name": "B1",
          "ticks": 57600,
          "time": 104.65050000000001,
          "velocity": 0.6456692913385826
        },
        {
          "duration": 0.014534791666676483,
          "durationTicks": 8,
          "midi": 54,
          "name": "F#3",
          "ticks": 57984,
          "time": 105.34817,
          "velocity": 0.5905511811023622
        },
        {
          "duration": 0.014534791666676483,
          "durationTicks": 8,
          "midi": 35,
          "name": "B1",
          "ticks": 58368,
          "time": 106.04584,
          "velocity": 0.6456692913385826
        },
        {
          "duration": 0.014534791666662272,
          "durationTicks": 8,
          "midi": 54,
          "name": "F#3",
          "ticks": 58944,
          "time": 107.09234500000001,
          "velocity": 0.5984251968503937
        },
        {
          "duration": 0.014534791666676483,
          "durationTicks": 8,
          "midi": 35,
          "name": "B1",
          "ticks": 59136,
          "time": 107.44118,
          "velocity": 0.6456692913385826
        },
        {
          "duration": 0.014534791666676483,
          "durationTicks": 8,
          "midi": 54,
          "name": "F#3",
          "ticks": 59712,
          "time": 108.487685,
          "velocity": 0.5826771653543307
        },
        {
          "duration": 0.014534791666662272,
          "durationTicks": 8,
          "midi": 35,
          "name": "B1",
          "ticks": 59904,
          "time": 108.83652000000001,
          "velocity": 0.6456692913385826
        },
        {
          "duration": 0.014534791666676483,
          "durationTicks": 8,
          "midi": 54,
          "name": "F#3",
          "ticks": 60288,
          "time": 109.53419,
          "velocity": 0.5984251968503937
        },
        {
          "duration": 0.014534791666676483,
          "durationTicks": 8,
          "midi": 35,
          "name": "B1",
          "ticks": 60672,
          "time": 110.23186,
          "velocity": 0.6456692913385826
        },
        {
          "duration": 0.014534791666676483,
          "durationTicks": 8,
          "midi": 54,
          "name": "F#3",
          "ticks": 61056,
          "time": 110.92953,
          "velocity": 0.5826771653543307
        },
        {
          "duration": 0.014534791666676483,
          "durationTicks": 8,
          "midi": 35,
          "name": "B1",
          "ticks": 61440,
          "time": 111.6272,
          "velocity": 0.6456692913385826
        },
        {
          "duration": 0.014534791666676483,
          "durationTicks": 8,
          "midi": 35,
          "name": "B1",
          "ticks": 61824,
          "time": 112.32487,
          "velocity": 0.4881889763779528
        },
        {
          "duration": 0.014534791666676483,
          "durationTicks": 8,
          "midi": 54,
          "name": "F#3",
          "ticks": 62016,
          "time": 112.673705,
          "velocity": 0.5984251968503937
        },
        {
          "duration": 0.014534791666662272,
          "durationTicks": 8,
          "midi": 35,
          "name": "B1",
          "ticks": 62208,
          "time": 113.02254,
          "velocity": 0.6456692913385826
        },
        {
          "duration": 0.014534791666662272,
          "durationTicks": 8,
          "midi": 35,
          "name": "B1",
          "ticks": 62592,
          "time": 113.72021000000001,
          "velocity": 0.4881889763779528
        },
        {
          "duration": 0.014534791666676483,
          "durationTicks": 8,
          "midi": 54,
          "name": "F#3",
          "ticks": 62784,
          "time": 114.069045,
          "velocity": 0.5905511811023622
        },
        {
          "duration": 0.014534791666676483,
          "durationTicks": 8,
          "midi": 35,
          "name": "B1",
          "ticks": 62976,
          "time": 114.41788,
          "velocity": 0.6456692913385826
        },
        {
          "duration": 0.014534791666676483,
          "durationTicks": 8,
          "midi": 35,
          "name": "B1",
          "ticks": 63360,
          "time": 115.11555,
          "velocity": 0.4881889763779528
        },
        {
          "duration": 0.014534791666662272,
          "durationTicks": 8,
          "midi": 54,
          "name": "F#3",
          "ticks": 63552,
          "time": 115.46438500000001,
          "velocity": 0.5984251968503937
        },
        {
          "duration": 0.014534791666676483,
          "durationTicks": 8,
          "midi": 35,
          "name": "B1",
          "ticks": 63744,
          "time": 115.81322,
          "velocity": 0.6456692913385826
        },
        {
          "duration": 0.014534791666676483,
          "durationTicks": 8,
          "midi": 35,
          "name": "B1",
          "ticks": 64128,
          "time": 116.51089,
          "velocity": 0.4881889763779528
        },
        {
          "duration": 0.014534791666676483,
          "durationTicks": 8,
          "midi": 54,
          "name": "F#3",
          "ticks": 64320,
          "time": 116.859725,
          "velocity": 0.5905511811023622
        },
        {
          "duration": 0.014534791666676483,
          "durationTicks": 8,
          "midi": 35,
          "name": "B1",
          "ticks": 64512,
          "time": 117.20856,
          "velocity": 0.6456692913385826
        },
        {
          "duration": 0.014534791666662272,
          "durationTicks": 8,
          "midi": 35,
          "name": "B1",
          "ticks": 64896,
          "time": 117.90623000000001,
          "velocity": 0.47244094488188976
        },
        {
          "duration": 0.014534791666676483,
          "durationTicks": 8,
          "midi": 54,
          "name": "F#3",
          "ticks": 65088,
          "time": 118.255065,
          "velocity": 0.5984251968503937
        },
        {
          "duration": 0.014534791666676483,
          "durationTicks": 8,
          "midi": 35,
          "name": "B1",
          "ticks": 65280,
          "time": 118.6039,
          "velocity": 0.6456692913385826
        },
        {
          "duration": 0.014534791666676483,
          "durationTicks": 8,
          "midi": 35,
          "name": "B1",
          "ticks": 65664,
          "time": 119.30157,
          "velocity": 0.5275590551181102
        },
        {
          "duration": 0.014534791666662272,
          "durationTicks": 8,
          "midi": 54,
          "name": "F#3",
          "ticks": 65856,
          "time": 119.650405,
          "velocity": 0.5905511811023622
        },
        {
          "duration": 0.014534791666676483,
          "durationTicks": 8,
          "midi": 35,
          "name": "B1",
          "ticks": 66048,
          "time": 119.99924,
          "velocity": 0.6456692913385826
        },
        {
          "duration": 0.014534791666676483,
          "durationTicks": 8,
          "midi": 35,
          "name": "B1",
          "ticks": 66432,
          "time": 120.69691,
          "velocity": 0.48031496062992124
        },
        {
          "duration": 0.014534791666676483,
          "durationTicks": 8,
          "midi": 54,
          "name": "F#3",
          "ticks": 66624,
          "time": 121.045745,
          "velocity": 0.5984251968503937
        },
        {
          "duration": 0.014534791666676483,
          "durationTicks": 8,
          "midi": 35,
          "name": "B1",
          "ticks": 66816,
          "time": 121.39458,
          "velocity": 0.6456692913385826
        },
        {
          "duration": 0.014534791666662272,
          "durationTicks": 8,
          "midi": 35,
          "name": "B1",
          "ticks": 67200,
          "time": 122.09225,
          "velocity": 0.5039370078740157
        },
        {
          "duration": 0.014534791666676483,
          "durationTicks": 8,
          "midi": 54,
          "name": "F#3",
          "ticks": 67392,
          "time": 122.441085,
          "velocity": 0.5905511811023622
        },
        {
          "duration": 0.014534791666676483,
          "durationTicks": 8,
          "midi": 35,
          "name": "B1",
          "ticks": 67584,
          "time": 122.78992,
          "velocity": 0.6456692913385826
        },
        {
          "duration": 0.014534791666676483,
          "durationTicks": 8,
          "midi": 35,
          "name": "B1",
          "ticks": 67968,
          "time": 123.48759,
          "velocity": 0.4881889763779528
        },
        {
          "duration": 0.014534791666676483,
          "durationTicks": 8,
          "midi": 54,
          "name": "F#3",
          "ticks": 68160,
          "time": 123.836425,
          "velocity": 0.5984251968503937
        },
        {
          "duration": 0.014534791666676483,
          "durationTicks": 8,
          "midi": 35,
          "name": "B1",
          "ticks": 68352,
          "time": 124.18526,
          "velocity": 0.6456692913385826
        },
        {
          "duration": 0.014534791666676483,
          "durationTicks": 8,
          "midi": 35,
          "name": "B1",
          "ticks": 68736,
          "time": 124.88293,
          "velocity": 0.4881889763779528
        },
        {
          "duration": 0.014534791666676483,
          "durationTicks": 8,
          "midi": 54,
          "name": "F#3",
          "ticks": 68928,
          "time": 125.231765,
          "velocity": 0.5905511811023622
        },
        {
          "duration": 0.014534791666676483,
          "durationTicks": 8,
          "midi": 35,
          "name": "B1",
          "ticks": 69120,
          "time": 125.5806,
          "velocity": 0.6456692913385826
        },
        {
          "duration": 0.014534791666662272,
          "durationTicks": 8,
          "midi": 35,
          "name": "B1",
          "ticks": 69504,
          "time": 126.27827,
          "velocity": 0.4881889763779528
        },
        {
          "duration": 0.014534791666676483,
          "durationTicks": 8,
          "midi": 54,
          "name": "F#3",
          "ticks": 69696,
          "time": 126.627105,
          "velocity": 0.5984251968503937
        },
        {
          "duration": 0.014534791666662272,
          "durationTicks": 8,
          "midi": 35,
          "name": "B1",
          "ticks": 69888,
          "time": 126.97594000000001,
          "velocity": 0.6456692913385826
        },
        {
          "duration": 0.014534791666676483,
          "durationTicks": 8,
          "midi": 35,
          "name": "B1",
          "ticks": 70272,
          "time": 127.67361,
          "velocity": 0.4881889763779528
        },
        {
          "duration": 0.014534791666676483,
          "durationTicks": 8,
          "midi": 54,
          "name": "F#3",
          "ticks": 70464,
          "time": 128.022445,
          "velocity": 0.5905511811023622
        },
        {
          "duration": 0.014534791666676483,
          "durationTicks": 8,
          "midi": 35,
          "name": "B1",
          "ticks": 70656,
          "time": 128.37128,
          "velocity": 0.6456692913385826
        },
        {
          "duration": 0.014534791666676483,
          "durationTicks": 8,
          "midi": 35,
          "name": "B1",
          "ticks": 71040,
          "time": 129.06895,
          "velocity": 0.47244094488188976
        },
        {
          "duration": 0.014534791666676483,
          "durationTicks": 8,
          "midi": 54,
          "name": "F#3",
          "ticks": 71232,
          "time": 129.417785,
          "velocity": 0.5984251968503937
        },
        {
          "duration": 0.014534791666676483,
          "durationTicks": 8,
          "midi": 35,
          "name": "B1",
          "ticks": 71424,
          "time": 129.76662,
          "velocity": 0.6456692913385826
        },
        {
          "duration": 0.014534791666676483,
          "durationTicks": 8,
          "midi": 35,
          "name": "B1",
          "ticks": 71808,
          "time": 130.46429,
          "velocity": 0.5275590551181102
        },
        {
          "duration": 0.014534791666648061,
          "durationTicks": 8,
          "midi": 54,
          "name": "F#3",
          "ticks": 72000,
          "time": 130.813125,
          "velocity": 0.5905511811023622
        },
        {
          "duration": 0.014534791666676483,
          "durationTicks": 8,
          "midi": 35,
          "name": "B1",
          "ticks": 72192,
          "time": 131.16196,
          "velocity": 0.6456692913385826
        },
        {
          "duration": 0.014534791666676483,
          "durationTicks": 8,
          "midi": 35,
          "name": "B1",
          "ticks": 72576,
          "time": 131.85963,
          "velocity": 0.48031496062992124
        },
        {
          "duration": 0.014534791666676483,
          "durationTicks": 8,
          "midi": 54,
          "name": "F#3",
          "ticks": 72768,
          "time": 132.208465,
          "velocity": 0.5984251968503937
        },
        {
          "duration": 0.014534791666676483,
          "durationTicks": 8,
          "midi": 35,
          "name": "B1",
          "ticks": 72960,
          "time": 132.5573,
          "velocity": 0.6456692913385826
        },
        {
          "duration": 0.014534791666648061,
          "durationTicks": 8,
          "midi": 35,
          "name": "B1",
          "ticks": 73344,
          "time": 133.25497000000001,
          "velocity": 0.5039370078740157
        },
        {
          "duration": 0.014534791666676483,
          "durationTicks": 8,
          "midi": 54,
          "name": "F#3",
          "ticks": 73536,
          "time": 133.603805,
          "velocity": 0.5905511811023622
        },
        {
          "duration": 0.014534791666676483,
          "durationTicks": 8,
          "midi": 35,
          "name": "B1",
          "ticks": 73728,
          "time": 133.95264,
          "velocity": 0.6456692913385826
        },
        {
          "duration": 0.014534791666676483,
          "durationTicks": 8,
          "midi": 35,
          "name": "B1",
          "ticks": 74112,
          "time": 134.65031,
          "velocity": 0.4881889763779528
        },
        {
          "duration": 0.014534791666676483,
          "durationTicks": 8,
          "midi": 54,
          "name": "F#3",
          "ticks": 74304,
          "time": 134.999145,
          "velocity": 0.5984251968503937
        },
        {
          "duration": 0.014534791666676483,
          "durationTicks": 8,
          "midi": 35,
          "name": "B1",
          "ticks": 74496,
          "time": 135.34798,
          "velocity": 0.6456692913385826
        },
        {
          "duration": 0.014534791666676483,
          "durationTicks": 8,
          "midi": 35,
          "name": "B1",
          "ticks": 74880,
          "time": 136.04565,
          "velocity": 0.4881889763779528
        },
        {
          "duration": 0.014534791666676483,
          "durationTicks": 8,
          "midi": 54,
          "name": "F#3",
          "ticks": 75072,
          "time": 136.394485,
          "velocity": 0.5905511811023622
        },
        {
          "duration": 0.014534791666676483,
          "durationTicks": 8,
          "midi": 35,
          "name": "B1",
          "ticks": 75264,
          "time": 136.74332,
          "velocity": 0.6456692913385826
        },
        {
          "duration": 0.014534791666676483,
          "durationTicks": 8,
          "midi": 35,
          "name": "B1",
          "ticks": 75648,
          "time": 137.44099,
          "velocity": 0.4881889763779528
        },
        {
          "duration": 0.014534791666676483,
          "durationTicks": 8,
          "midi": 54,
          "name": "F#3",
          "ticks": 75840,
          "time": 137.789825,
          "velocity": 0.5984251968503937
        },
        {
          "duration": 0.014534791666648061,
          "durationTicks": 8,
          "midi": 35,
          "name": "B1",
          "ticks": 76032,
          "time": 138.13866000000002,
          "velocity": 0.6456692913385826
        },
        {
          "duration": 0.014534791666676483,
          "durationTicks": 8,
          "midi": 35,
          "name": "B1",
          "ticks": 76416,
          "time": 138.83633,
          "velocity": 0.4881889763779528
        },
        {
          "duration": 0.014534791666676483,
          "durationTicks": 8,
          "midi": 54,
          "name": "F#3",
          "ticks": 76608,
          "time": 139.185165,
          "velocity": 0.5905511811023622
        },
        {
          "duration": 0.014534791666676483,
          "durationTicks": 8,
          "midi": 35,
          "name": "B1",
          "ticks": 76800,
          "time": 139.534,
          "velocity": 0.6456692913385826
        },
        {
          "duration": 0.014534791666676483,
          "durationTicks": 8,
          "midi": 35,
          "name": "B1",
          "ticks": 77184,
          "time": 140.23167,
          "velocity": 0.47244094488188976
        },
        {
          "duration": 0.014534791666648061,
          "durationTicks": 8,
          "midi": 54,
          "name": "F#3",
          "ticks": 77376,
          "time": 140.58050500000002,
          "velocity": 0.5984251968503937
        },
        {
          "duration": 0.014534791666676483,
          "durationTicks": 8,
          "midi": 35,
          "name": "B1",
          "ticks": 77568,
          "time": 140.92934,
          "velocity": 0.6456692913385826
        },
        {
          "duration": 0.014534791666676483,
          "durationTicks": 8,
          "midi": 35,
          "name": "B1",
          "ticks": 77952,
          "time": 141.62701,
          "velocity": 0.5275590551181102
        },
        {
          "duration": 0.014534791666676483,
          "durationTicks": 8,
          "midi": 54,
          "name": "F#3",
          "ticks": 78144,
          "time": 141.975845,
          "velocity": 0.5905511811023622
        },
        {
          "duration": 0.014534791666676483,
          "durationTicks": 8,
          "midi": 35,
          "name": "B1",
          "ticks": 78336,
          "time": 142.32468,
          "velocity": 0.6456692913385826
        },
        {
          "duration": 0.014534791666676483,
          "durationTicks": 8,
          "midi": 35,
          "name": "B1",
          "ticks": 78720,
          "time": 143.02235,
          "velocity": 0.48031496062992124
        },
        {
          "duration": 0.014534791666676483,
          "durationTicks": 8,
          "midi": 54,
          "name": "F#3",
          "ticks": 78912,
          "time": 143.371185,
          "velocity": 0.5984251968503937
        },
        {
          "duration": 0.014534791666676483,
          "durationTicks": 8,
          "midi": 35,
          "name": "B1",
          "ticks": 79104,
          "time": 143.72002,
          "velocity": 0.6456692913385826
        },
        {
          "duration": 0.014534791666676483,
          "durationTicks": 8,
          "midi": 35,
          "name": "B1",
          "ticks": 79488,
          "time": 144.41769,
          "velocity": 0.5039370078740157
        },
        {
          "duration": 0.014534791666676483,
          "durationTicks": 8,
          "midi": 54,
          "name": "F#3",
          "ticks": 79680,
          "time": 144.766525,
          "velocity": 0.5905511811023622
        },
        {
          "duration": 0.014534791666676483,
          "durationTicks": 8,
          "midi": 35,
          "name": "B1",
          "ticks": 79872,
          "time": 145.11536,
          "velocity": 0.6456692913385826
        },
        {
          "duration": 0.014534791666676483,
          "durationTicks": 8,
          "midi": 35,
          "name": "B1",
          "ticks": 80256,
          "time": 145.81303,
          "velocity": 0.4881889763779528
        },
        {
          "duration": 0.014534791666676483,
          "durationTicks": 8,
          "midi": 54,
          "name": "F#3",
          "ticks": 80448,
          "time": 146.161865,
          "velocity": 0.5984251968503937
        },
        {
          "duration": 0.014534791666648061,
          "durationTicks": 8,
          "midi": 35,
          "name": "B1",
          "ticks": 80640,
          "time": 146.5107,
          "velocity": 0.6456692913385826
        },
        {
          "duration": 0.014534791666676483,
          "durationTicks": 8,
          "midi": 35,
          "name": "B1",
          "ticks": 81024,
          "time": 147.20837,
          "velocity": 0.4881889763779528
        },
        {
          "duration": 0.014534791666676483,
          "durationTicks": 8,
          "midi": 54,
          "name": "F#3",
          "ticks": 81216,
          "time": 147.557205,
          "velocity": 0.5905511811023622
        },
        {
          "duration": 0.014534791666676483,
          "durationTicks": 8,
          "midi": 35,
          "name": "B1",
          "ticks": 81408,
          "time": 147.90604,
          "velocity": 0.6456692913385826
        },
        {
          "duration": 0.014534791666676483,
          "durationTicks": 8,
          "midi": 35,
          "name": "B1",
          "ticks": 81792,
          "time": 148.60371,
          "velocity": 0.4881889763779528
        },
        {
          "duration": 0.014534791666648061,
          "durationTicks": 8,
          "midi": 54,
          "name": "F#3",
          "ticks": 81984,
          "time": 148.95254500000001,
          "velocity": 0.5984251968503937
        },
        {
          "duration": 0.014534791666676483,
          "durationTicks": 8,
          "midi": 35,
          "name": "B1",
          "ticks": 82176,
          "time": 149.30138,
          "velocity": 0.6456692913385826
        },
        {
          "duration": 0.014534791666676483,
          "durationTicks": 8,
          "midi": 35,
          "name": "B1",
          "ticks": 82560,
          "time": 149.99905,
          "velocity": 0.4881889763779528
        },
        {
          "duration": 0.014534791666676483,
          "durationTicks": 8,
          "midi": 54,
          "name": "F#3",
          "ticks": 82752,
          "time": 150.347885,
          "velocity": 0.5905511811023622
        },
        {
          "duration": 0.014534791666676483,
          "durationTicks": 8,
          "midi": 35,
          "name": "B1",
          "ticks": 82944,
          "time": 150.69672,
          "velocity": 0.6456692913385826
        },
        {
          "duration": 0.014534791666648061,
          "durationTicks": 8,
          "midi": 35,
          "name": "B1",
          "ticks": 83328,
          "time": 151.39439000000002,
          "velocity": 0.47244094488188976
        },
        {
          "duration": 0.014534791666676483,
          "durationTicks": 8,
          "midi": 54,
          "name": "F#3",
          "ticks": 83520,
          "time": 151.743225,
          "velocity": 0.5984251968503937
        },
        {
          "duration": 0.014534791666676483,
          "durationTicks": 8,
          "midi": 35,
          "name": "B1",
          "ticks": 83712,
          "time": 152.09206,
          "velocity": 0.6456692913385826
        },
        {
          "duration": 0.014534791666676483,
          "durationTicks": 8,
          "midi": 35,
          "name": "B1",
          "ticks": 84096,
          "time": 152.78973,
          "velocity": 0.5275590551181102
        },
        {
          "duration": 0.014534791666676483,
          "durationTicks": 8,
          "midi": 54,
          "name": "F#3",
          "ticks": 84288,
          "time": 153.138565,
          "velocity": 0.5905511811023622
        },
        {
          "duration": 0.014534791666676483,
          "durationTicks": 8,
          "midi": 54,
          "name": "F#3",
          "ticks": 85704,
          "time": 155.711223125,
          "velocity": 0.2677165354330709
        },
        {
          "duration": 0.014534791666676483,
          "durationTicks": 8,
          "midi": 54,
          "name": "F#3",
          "ticks": 85716,
          "time": 155.7330253125,
          "velocity": 0.28346456692913385
        },
        {
          "duration": 0.014534791666676483,
          "durationTicks": 8,
          "midi": 54,
          "name": "F#3",
          "ticks": 85728,
          "time": 155.7548275,
          "velocity": 0.29133858267716534
        },
        {
          "duration": 0.014534791666676483,
          "durationTicks": 8,
          "midi": 54,
          "name": "F#3",
          "ticks": 85740,
          "time": 155.7766296875,
          "velocity": 0.30708661417322836
        },
        {
          "duration": 0.014534791666676483,
          "durationTicks": 8,
          "midi": 54,
          "name": "F#3",
          "ticks": 85800,
          "time": 155.885640625,
          "velocity": 0.31496062992125984
        },
        {
          "duration": 0.014534791666676483,
          "durationTicks": 8,
          "midi": 54,
          "name": "F#3",
          "ticks": 85812,
          "time": 155.9074428125,
          "velocity": 0.33070866141732286
        },
        {
          "duration": 0.014534791666676483,
          "durationTicks": 8,
          "midi": 54,
          "name": "F#3",
          "ticks": 85824,
          "time": 155.929245,
          "velocity": 0.33858267716535434
        },
        {
          "duration": 0.014534791666676483,
          "durationTicks": 8,
          "midi": 54,
          "name": "F#3",
          "ticks": 85836,
          "time": 155.9510471875,
          "velocity": 0.3543307086614173
        },
        {
          "duration": 0.014534791666676483,
          "durationTicks": 8,
          "midi": 54,
          "name": "F#3",
          "ticks": 85896,
          "time": 156.060058125,
          "velocity": 0.3700787401574803
        },
        {
          "duration": 0.014534791666676483,
          "durationTicks": 8,
          "midi": 54,
          "name": "F#3",
          "ticks": 85908,
          "time": 156.0818603125,
          "velocity": 0.3779527559055118
        },
        {
          "duration": 0.014534791666676483,
          "durationTicks": 8,
          "midi": 54,
          "name": "F#3",
          "ticks": 85920,
          "time": 156.1036625,
          "velocity": 0.3858267716535433
        },
        {
          "duration": 0.014534791666676483,
          "durationTicks": 8,
          "midi": 54,
          "name": "F#3",
          "ticks": 85932,
          "time": 156.1254646875,
          "velocity": 0.4094488188976378
        },
        {
          "duration": 0.014534791666648061,
          "durationTicks": 8,
          "midi": 54,
          "name": "F#3",
          "ticks": 85992,
          "time": 156.23447562500002,
          "velocity": 0.4330708661417323
        },
        {
          "duration": 0.014534791666676483,
          "durationTicks": 8,
          "midi": 54,
          "name": "F#3",
          "ticks": 86004,
          "time": 156.2562778125,
          "velocity": 0.4330708661417323
        },
        {
          "duration": 0.014534791666676483,
          "durationTicks": 8,
          "midi": 35,
          "name": "B1",
          "ticks": 86016,
          "time": 156.27808,
          "velocity": 0.6456692913385826
        },
        {
          "duration": 0.014534791666676483,
          "durationTicks": 8,
          "midi": 49,
          "name": "C#3",
          "ticks": 86016,
          "time": 156.27808,
          "velocity": 0.4330708661417323
        },
        {
          "duration": 0.014534791666676483,
          "durationTicks": 8,
          "midi": 35,
          "name": "B1",
          "ticks": 86400,
          "time": 156.97575,
          "velocity": 0.4881889763779528
        },
        {
          "duration": 0.014534791666676483,
          "durationTicks": 8,
          "midi": 54,
          "name": "F#3",
          "ticks": 86400,
          "time": 156.97575,
          "velocity": 0.5984251968503937
        },
        {
          "duration": 0.014534791666676483,
          "durationTicks": 8,
          "midi": 35,
          "name": "B1",
          "ticks": 86784,
          "time": 157.67342,
          "velocity": 0.6456692913385826
        },
        {
          "duration": 0.014534791666676483,
          "durationTicks": 8,
          "midi": 35,
          "name": "B1",
          "ticks": 87168,
          "time": 158.37109,
          "velocity": 0.4881889763779528
        },
        {
          "duration": 0.014534791666676483,
          "durationTicks": 8,
          "midi": 54,
          "name": "F#3",
          "ticks": 87168,
          "time": 158.37109,
          "velocity": 0.5905511811023622
        },
        {
          "duration": 0.014534791666676483,
          "durationTicks": 8,
          "midi": 35,
          "name": "B1",
          "ticks": 87552,
          "time": 159.06876,
          "velocity": 0.6456692913385826
        },
        {
          "duration": 0.014534791666648061,
          "durationTicks": 8,
          "midi": 35,
          "name": "B1",
          "ticks": 87936,
          "time": 159.76643,
          "velocity": 0.4881889763779528
        },
        {
          "duration": 0.014534791666648061,
          "durationTicks": 8,
          "midi": 54,
          "name": "F#3",
          "ticks": 87936,
          "time": 159.76643,
          "velocity": 0.5984251968503937
        },
        {
          "duration": 0.014534791666676483,
          "durationTicks": 8,
          "midi": 35,
          "name": "B1",
          "ticks": 88320,
          "time": 160.4641,
          "velocity": 0.6456692913385826
        },
        {
          "duration": 0.014534791666676483,
          "durationTicks": 8,
          "midi": 35,
          "name": "B1",
          "ticks": 88704,
          "time": 161.16177,
          "velocity": 0.4881889763779528
        },
        {
          "duration": 0.014534791666676483,
          "durationTicks": 8,
          "midi": 54,
          "name": "F#3",
          "ticks": 88704,
          "time": 161.16177,
          "velocity": 0.5905511811023622
        },
        {
          "duration": 0.014534791666676483,
          "durationTicks": 8,
          "midi": 35,
          "name": "B1",
          "ticks": 89088,
          "time": 161.85944,
          "velocity": 0.6456692913385826
        },
        {
          "duration": 0.014534791666676483,
          "durationTicks": 8,
          "midi": 35,
          "name": "B1",
          "ticks": 89472,
          "time": 162.55711,
          "velocity": 0.47244094488188976
        },
        {
          "duration": 0.014534791666676483,
          "durationTicks": 8,
          "midi": 54,
          "name": "F#3",
          "ticks": 89472,
          "time": 162.55711,
          "velocity": 0.5984251968503937
        },
        {
          "duration": 0.014534791666676483,
          "durationTicks": 8,
          "midi": 35,
          "name": "B1",
          "ticks": 89856,
          "time": 163.25478,
          "velocity": 0.6456692913385826
        },
        {
          "duration": 0.014534791666676483,
          "durationTicks": 8,
          "midi": 35,
          "name": "B1",
          "ticks": 90240,
          "time": 163.95245,
          "velocity": 0.5275590551181102
        },
        {
          "duration": 0.014534791666676483,
          "durationTicks": 8,
          "midi": 54,
          "name": "F#3",
          "ticks": 90240,
          "time": 163.95245,
          "velocity": 0.5905511811023622
        },
        {
          "duration": 0.014534791666648061,
          "durationTicks": 8,
          "midi": 35,
          "name": "B1",
          "ticks": 90624,
          "time": 164.65012000000002,
          "velocity": 0.6456692913385826
        },
        {
          "duration": 0.014534791666676483,
          "durationTicks": 8,
          "midi": 35,
          "name": "B1",
          "ticks": 91008,
          "time": 165.34779,
          "velocity": 0.48031496062992124
        },
        {
          "duration": 0.014534791666676483,
          "durationTicks": 8,
          "midi": 54,
          "name": "F#3",
          "ticks": 91008,
          "time": 165.34779,
          "velocity": 0.5984251968503937
        },
        {
          "duration": 0.014534791666676483,
          "durationTicks": 8,
          "midi": 35,
          "name": "B1",
          "ticks": 91392,
          "time": 166.04546,
          "velocity": 0.6456692913385826
        },
        {
          "duration": 0.014534791666676483,
          "durationTicks": 8,
          "midi": 35,
          "name": "B1",
          "ticks": 91588,
          "time": 166.40156239583334,
          "velocity": 0.5433070866141733
        },
        {
          "duration": 0.014534791666676483,
          "durationTicks": 8,
          "midi": 35,
          "name": "B1",
          "ticks": 91776,
          "time": 166.74313,
          "velocity": 0.5354330708661418
        },
        {
          "duration": 0.014534791666676483,
          "durationTicks": 8,
          "midi": 54,
          "name": "F#3",
          "ticks": 91776,
          "time": 166.74313,
          "velocity": 0.5905511811023622
        },
        {
          "duration": 0.014534791666648061,
          "durationTicks": 8,
          "midi": 35,
          "name": "B1",
          "ticks": 91968,
          "time": 167.09196500000002,
          "velocity": 0.5196850393700787
        },
        {
          "duration": 0.014534791666676483,
          "durationTicks": 8,
          "midi": 35,
          "name": "B1",
          "ticks": 92160,
          "time": 167.4408,
          "velocity": 0.6456692913385826
        },
        {
          "duration": 0.014534791666676483,
          "durationTicks": 8,
          "midi": 35,
          "name": "B1",
          "ticks": 92544,
          "time": 168.13847,
          "velocity": 0.4881889763779528
        },
        {
          "duration": 0.014534791666676483,
          "durationTicks": 8,
          "midi": 54,
          "name": "F#3",
          "ticks": 92544,
          "time": 168.13847,
          "velocity": 0.5984251968503937
        },
        {
          "duration": 0.014534791666676483,
          "durationTicks": 8,
          "midi": 35,
          "name": "B1",
          "ticks": 92928,
          "time": 168.83614,
          "velocity": 0.6456692913385826
        },
        {
          "duration": 0.014534791666648061,
          "durationTicks": 8,
          "midi": 35,
          "name": "B1",
          "ticks": 93312,
          "time": 169.53381000000002,
          "velocity": 0.4881889763779528
        },
        {
          "duration": 0.014534791666648061,
          "durationTicks": 8,
          "midi": 54,
          "name": "F#3",
          "ticks": 93312,
          "time": 169.53381000000002,
          "velocity": 0.5905511811023622
        },
        {
          "duration": 0.014534791666676483,
          "durationTicks": 8,
          "midi": 35,
          "name": "B1",
          "ticks": 93696,
          "time": 170.23148,
          "velocity": 0.6456692913385826
        },
        {
          "duration": 0.014534791666676483,
          "durationTicks": 8,
          "midi": 35,
          "name": "B1",
          "ticks": 94080,
          "time": 170.92915,
          "velocity": 0.4881889763779528
        },
        {
          "duration": 0.014534791666676483,
          "durationTicks": 8,
          "midi": 54,
          "name": "F#3",
          "ticks": 94080,
          "time": 170.92915,
          "velocity": 0.5984251968503937
        },
        {
          "duration": 0.014534791666676483,
          "durationTicks": 8,
          "midi": 35,
          "name": "B1",
          "ticks": 94464,
          "time": 171.62682,
          "velocity": 0.6456692913385826
        },
        {
          "duration": 0.014534791666676483,
          "durationTicks": 8,
          "midi": 35,
          "name": "B1",
          "ticks": 94848,
          "time": 172.32449,
          "velocity": 0.4881889763779528
        },
        {
          "duration": 0.014534791666676483,
          "durationTicks": 8,
          "midi": 54,
          "name": "F#3",
          "ticks": 94848,
          "time": 172.32449,
          "velocity": 0.5905511811023622
        },
        {
          "duration": 0.014534791666676483,
          "durationTicks": 8,
          "midi": 35,
          "name": "B1",
          "ticks": 95232,
          "time": 173.02216,
          "velocity": 0.6456692913385826
        },
        {
          "duration": 0.014534791666676483,
          "durationTicks": 8,
          "midi": 35,
          "name": "B1",
          "ticks": 95616,
          "time": 173.71983,
          "velocity": 0.47244094488188976
        },
        {
          "duration": 0.014534791666676483,
          "durationTicks": 8,
          "midi": 54,
          "name": "F#3",
          "ticks": 95616,
          "time": 173.71983,
          "velocity": 0.5984251968503937
        },
        {
          "duration": 0.014534791666676483,
          "durationTicks": 8,
          "midi": 35,
          "name": "B1",
          "ticks": 96000,
          "time": 174.4175,
          "velocity": 0.6456692913385826
        },
        {
          "duration": 0.014534791666676483,
          "durationTicks": 8,
          "midi": 35,
          "name": "B1",
          "ticks": 96384,
          "time": 175.11517,
          "velocity": 0.5275590551181102
        },
        {
          "duration": 0.014534791666676483,
          "durationTicks": 8,
          "midi": 54,
          "name": "F#3",
          "ticks": 96384,
          "time": 175.11517,
          "velocity": 0.5905511811023622
        },
        {
          "duration": 0.014534791666676483,
          "durationTicks": 8,
          "midi": 35,
          "name": "B1",
          "ticks": 96768,
          "time": 175.81284,
          "velocity": 0.6456692913385826
        },
        {
          "duration": 0.014534791666676483,
          "durationTicks": 8,
          "midi": 35,
          "name": "B1",
          "ticks": 97152,
          "time": 176.51051,
          "velocity": 0.48031496062992124
        },
        {
          "duration": 0.014534791666676483,
          "durationTicks": 8,
          "midi": 54,
          "name": "F#3",
          "ticks": 97152,
          "time": 176.51051,
          "velocity": 0.5984251968503937
        },
        {
          "duration": 0.014534791666676483,
          "durationTicks": 8,
          "midi": 35,
          "name": "B1",
          "ticks": 97536,
          "time": 177.20818,
          "velocity": 0.6456692913385826
        },
        {
          "duration": 0.014534791666648061,
          "durationTicks": 8,
          "midi": 35,
          "name": "B1",
          "ticks": 97920,
          "time": 177.90585000000002,
          "velocity": 0.5039370078740157
        },
        {
          "duration": 0.014534791666648061,
          "durationTicks": 8,
          "midi": 54,
          "name": "F#3",
          "ticks": 97920,
          "time": 177.90585000000002,
          "velocity": 0.5905511811023622
        },
        {
          "duration": 0.014534791666648061,
          "durationTicks": 8,
          "midi": 35,
          "name": "B1",
          "ticks": 98304,
          "time": 178.60352,
          "velocity": 0.6456692913385826
        },
        {
          "duration": 0.014534791666676483,
          "durationTicks": 8,
          "midi": 35,
          "name": "B1",
          "ticks": 98688,
          "time": 179.30119,
          "velocity": 0.4881889763779528
        },
        {
          "duration": 0.014534791666676483,
          "durationTicks": 8,
          "midi": 54,
          "name": "F#3",
          "ticks": 98688,
          "time": 179.30119,
          "velocity": 0.5984251968503937
        },
        {
          "duration": 0.014534791666648061,
          "durationTicks": 8,
          "midi": 35,
          "name": "B1",
          "ticks": 99072,
          "time": 179.99886,
          "velocity": 0.6456692913385826
        },
        {
          "duration": 0.014534791666648061,
          "durationTicks": 8,
          "midi": 35,
          "name": "B1",
          "ticks": 99456,
          "time": 180.69653,
          "velocity": 0.4881889763779528
        },
        {
          "duration": 0.014534791666648061,
          "durationTicks": 8,
          "midi": 54,
          "name": "F#3",
          "ticks": 99456,
          "time": 180.69653,
          "velocity": 0.5905511811023622
        },
        {
          "duration": 0.014534791666648061,
          "durationTicks": 8,
          "midi": 35,
          "name": "B1",
          "ticks": 99840,
          "time": 181.3942,
          "velocity": 0.6456692913385826
        },
        {
          "duration": 0.014534791666648061,
          "durationTicks": 8,
          "midi": 35,
          "name": "B1",
          "ticks": 100224,
          "time": 182.09187,
          "velocity": 0.4881889763779528
        },
        {
          "duration": 0.014534791666648061,
          "durationTicks": 8,
          "midi": 54,
          "name": "F#3",
          "ticks": 100224,
          "time": 182.09187,
          "velocity": 0.5984251968503937
        },
        {
          "duration": 0.014534791666648061,
          "durationTicks": 8,
          "midi": 35,
          "name": "B1",
          "ticks": 100608,
          "time": 182.78954000000002,
          "velocity": 0.6456692913385826
        },
        {
          "duration": 0.014534791666648061,
          "durationTicks": 8,
          "midi": 35,
          "name": "B1",
          "ticks": 100992,
          "time": 183.48721,
          "velocity": 0.4881889763779528
        },
        {
          "duration": 0.014534791666648061,
          "durationTicks": 8,
          "midi": 54,
          "name": "F#3",
          "ticks": 100992,
          "time": 183.48721,
          "velocity": 0.5905511811023622
        },
        {
          "duration": 0.014534791666676483,
          "durationTicks": 8,
          "midi": 35,
          "name": "B1",
          "ticks": 101376,
          "time": 184.18488,
          "velocity": 0.6456692913385826
        },
        {
          "duration": 0.014534791666648061,
          "durationTicks": 8,
          "midi": 35,
          "name": "B1",
          "ticks": 101760,
          "time": 184.88255,
          "velocity": 0.47244094488188976
        },
        {
          "duration": 0.014534791666648061,
          "durationTicks": 8,
          "midi": 54,
          "name": "F#3",
          "ticks": 101760,
          "time": 184.88255,
          "velocity": 0.5984251968503937
        },
        {
          "duration": 0.014534791666648061,
          "durationTicks": 8,
          "midi": 35,
          "name": "B1",
          "ticks": 102144,
          "time": 185.58022,
          "velocity": 0.6456692913385826
        },
        {
          "duration": 0.014534791666648061,
          "durationTicks": 8,
          "midi": 35,
          "name": "B1",
          "ticks": 102528,
          "time": 186.27789,
          "velocity": 0.5275590551181102
        },
        {
          "duration": 0.014534791666648061,
          "durationTicks": 8,
          "midi": 54,
          "name": "F#3",
          "ticks": 102528,
          "time": 186.27789,
          "velocity": 0.5905511811023622
        },
        {
          "duration": 0.014534791666648061,
          "durationTicks": 8,
          "midi": 35,
          "name": "B1",
          "ticks": 102912,
          "time": 186.97556,
          "velocity": 0.6456692913385826
        },
        {
          "duration": 0.014534791666676483,
          "durationTicks": 8,
          "midi": 35,
          "name": "B1",
          "ticks": 103296,
          "time": 187.67323,
          "velocity": 0.4881889763779528
        },
        {
          "duration": 0.014534791666676483,
          "durationTicks": 8,
          "midi": 54,
          "name": "F#3",
          "ticks": 103296,
          "time": 187.67323,
          "velocity": 0.5984251968503937
        },
        {
          "duration": 0.014534791666648061,
          "durationTicks": 8,
          "midi": 35,
          "name": "B1",
          "ticks": 103680,
          "time": 188.3709,
          "velocity": 0.6456692913385826
        },
        {
          "duration": 0.014534791666676483,
          "durationTicks": 8,
          "midi": 35,
          "name": "B1",
          "ticks": 104064,
          "time": 189.06857,
          "velocity": 0.4881889763779528
        },
        {
          "duration": 0.014534791666676483,
          "durationTicks": 8,
          "midi": 54,
          "name": "F#3",
          "ticks": 104064,
          "time": 189.06857,
          "velocity": 0.5905511811023622
        },
        {
          "duration": 0.014534791666648061,
          "durationTicks": 8,
          "midi": 35,
          "name": "B1",
          "ticks": 104448,
          "time": 189.76624,
          "velocity": 0.6456692913385826
        },
        {
          "duration": 0.014534791666648061,
          "durationTicks": 8,
          "midi": 35,
          "name": "B1",
          "ticks": 104832,
          "time": 190.46391,
          "velocity": 0.47244094488188976
        },
        {
          "duration": 0.014534791666648061,
          "durationTicks": 8,
          "midi": 54,
          "name": "F#3",
          "ticks": 104832,
          "time": 190.46391,
          "velocity": 0.5984251968503937
        },
        {
          "duration": 0.014534791666648061,
          "durationTicks": 8,
          "midi": 35,
          "name": "B1",
          "ticks": 105216,
          "time": 191.16158000000001,
          "velocity": 0.6456692913385826
        },
        {
          "duration": 0.014534791666648061,
          "durationTicks": 8,
          "midi": 35,
          "name": "B1",
          "ticks": 105408,
          "time": 191.510415,
          "velocity": 0.5118110236220472
        },
        {
          "duration": 0.014534791666648061,
          "durationTicks": 8,
          "midi": 35,
          "name": "B1",
          "ticks": 105600,
          "time": 191.85925,
          "velocity": 0.6377952755905512
        },
        {
          "duration": 0.014534791666648061,
          "durationTicks": 8,
          "midi": 49,
          "name": "C#3",
          "ticks": 105600,
          "time": 191.85925,
          "velocity": 0.4015748031496063
        },
        {
          "duration": 0.014534791666648061,
          "durationTicks": 8,
          "midi": 54,
          "name": "F#3",
          "ticks": 105600,
          "time": 191.85925,
          "velocity": 0.5905511811023622
        }
      ]
    }
  ]
}